o pearl
v 0.000000 -0.623485 0.000000
v 0.373383 -0.272453 0.359048
v -0.152604 -0.295787 0.609432
v -0.446159 -0.265383 -0.002804
v -0.155748 -0.292933 -0.609495
v 0.372017 -0.275764 -0.358462
v 0.151679 0.292772 0.612101
v -0.373389 0.272433 0.359056
v -0.371151 0.278000 -0.358076
v 0.152589 0.295790 -0.609439
v 0.443841 0.271677 0.002986
v 0.000000 0.623069 -0.000000
v -0.082791 -0.537058 0.350542
v 0.219387 -0.528777 0.206238
v 0.143257 -0.344707 0.577210
v 0.424088 -0.317493 -0.000975
v 0.222836 -0.525607 -0.208991
v -0.268545 -0.520957 -0.000604
v -0.353847 -0.325828 0.339863
v -0.086613 -0.536730 -0.349023
v -0.353840 -0.325847 -0.339854
v 0.144040 -0.344433 -0.576817
v 0.473876 0.005453 0.207323
v 0.473841 -0.002080 -0.206718
v -0.000677 0.001168 0.740333
v 0.317164 -0.002344 0.567355
v -0.473836 0.002301 0.206732
v -0.316713 -0.001728 0.567641
v -0.316751 0.000002 -0.567646
v -0.473872 -0.000004 -0.206689
v 0.316713 0.001733 -0.567642
v 0.002960 0.002372 -0.740286
v 0.354928 0.323371 0.340339
v -0.144071 0.339382 0.581280
v -0.424575 0.316478 -0.003746
v -0.143254 0.344713 -0.577206
v 0.353847 0.325828 -0.339863
v 0.089215 0.537308 0.346166
v 0.269496 0.520153 0.002509
v -0.221263 0.524889 0.215114
v -0.223097 0.524790 -0.211918
v 0.086889 0.537299 -0.347539
v -0.056559 -0.581119 0.246767
v -0.035668 -0.603856 0.166648
v -0.018510 -0.616500 0.091550
v 0.276442 -0.461936 0.269726
v 0.309982 -0.411437 0.302333
v 0.339407 -0.352457 0.334918
v 0.053233 -0.342527 0.612283
v -0.014946 -0.334241 0.623532
v -0.079458 -0.320590 0.622737
v 0.420446 -0.310758 0.113840
v 0.411191 -0.301573 0.195754
v 0.393362 -0.298692 0.270811
v 0.278132 -0.461785 -0.266018
v 0.313526 -0.407588 -0.301010
v 0.341216 -0.351378 -0.332984
v -0.191916 -0.572102 -0.003492
v -0.133149 -0.598059 -0.001531
v -0.071529 -0.615050 -0.006951
v -0.393242 -0.315106 0.242593
v -0.417011 -0.301192 0.166555
v -0.434212 -0.286097 0.087624
v -0.063638 -0.579714 -0.247652
v -0.037012 -0.604012 -0.164900
v -0.018725 -0.616282 -0.094271
v -0.305253 -0.325842 -0.433167
v -0.263341 -0.321680 -0.494996
v -0.215592 -0.308820 -0.554890
v 0.231270 -0.328229 -0.524170
v 0.280764 -0.318932 -0.475463
v 0.323998 -0.299471 -0.429743
v 0.456424 -0.083646 0.264189
v 0.436585 -0.143875 0.300128
v 0.409121 -0.207745 0.331929
v 0.478587 0.083605 -0.151981
v 0.474733 0.149236 -0.096718
v 0.464153 0.205631 -0.055385
v -0.051379 -0.098650 0.726843
v -0.087088 -0.165662 0.701584
v -0.119058 -0.224703 0.666594
v 0.279999 0.090371 0.600164
v 0.243890 0.160023 0.614454
v 0.206659 0.218978 0.619488
v -0.478289 -0.088634 0.148708
v -0.474589 -0.148284 0.099533
v -0.464398 -0.204811 0.056483
v -0.343473 0.090068 0.520742
v -0.358836 0.156614 0.472692
v -0.367620 0.215079 0.422271
v -0.278193 -0.095056 -0.600838
v -0.243838 -0.161001 -0.614330
v -0.202298 -0.226009 -0.619242
v -0.457844 0.084356 -0.257920
v -0.435394 0.152372 -0.297203
v -0.409637 0.205853 -0.332131
v 0.342959 -0.094592 -0.520301
v 0.357601 -0.158295 -0.474375
v 0.365670 -0.216287 -0.425157
v 0.051378 0.098674 -0.726838
v 0.088799 0.162504 -0.701881
v 0.118836 0.225865 -0.666070
v 0.305478 0.323864 0.434640
v 0.264334 0.316270 0.498767
v 0.214769 0.312718 0.552774
v -0.227392 0.331636 0.524713
v -0.280460 0.319290 0.475788
v -0.323998 0.299470 0.429744
v -0.420644 0.311415 -0.110306
v -0.409446 0.306135 -0.194542
v -0.397044 0.289428 -0.272805
v -0.055846 0.338667 -0.614867
v 0.016041 0.330452 -0.626399
v 0.079435 0.320588 -0.622746
v 0.393243 0.315105 -0.242587
v 0.417010 0.301196 -0.166551
v 0.434212 0.286095 -0.087636
v 0.110756 0.475675 0.446141
v 0.125920 0.427753 0.502253
v 0.138941 0.366083 0.560617
v 0.194129 0.570995 0.003297
v 0.131547 0.598636 -0.001271
v 0.071529 0.615052 -0.006977
v -0.276445 0.461937 0.269716
v -0.312274 0.409213 0.300445
v -0.341662 0.350068 0.333426
v -0.276425 0.461949 -0.269734
v -0.310979 0.411420 -0.299920
v -0.339406 0.352453 -0.334928
v 0.106044 0.478917 -0.443587
v 0.123179 0.424175 -0.508360
v 0.137943 0.370812 -0.556642
v -0.139786 -0.365586 0.560605
v -0.123500 -0.427819 0.503570
v -0.109392 -0.479185 0.441264
v 0.061680 -0.615510 0.049077
v 0.108904 -0.599865 0.101309
v 0.156414 -0.575036 0.151980
v 0.323998 -0.299470 0.429743
v 0.278409 -0.320903 0.476790
v 0.229166 -0.327902 0.526543
v 0.393390 -0.298227 -0.271414
v 0.411182 -0.301584 -0.195773
v 0.420489 -0.311214 -0.111689
v 0.065467 -0.614657 -0.053175
v 0.108683 -0.599944 -0.101210
v 0.156119 -0.575227 -0.151218
v -0.411413 -0.343100 0.004093
v -0.377548 -0.399876 0.002352
v -0.335271 -0.455893 -0.005594
v -0.215412 -0.309798 0.554123
v -0.262483 -0.321356 0.496302
v -0.305260 -0.325822 0.433175
v -0.138950 -0.366087 -0.560608
v -0.123494 -0.427833 -0.503558
v -0.110757 -0.475675 -0.446141
v -0.434209 -0.286103 -0.087631
v -0.418201 -0.299521 -0.165292
v -0.392543 -0.316497 -0.242394
v -0.077456 -0.319931 -0.623802
v -0.013531 -0.330430 -0.626511
v 0.055317 -0.341821 -0.612312
v 0.464157 0.205618 0.055384
v 0.474733 0.149236 0.096718
v 0.478757 0.089800 0.144478
v 0.410314 -0.211283 -0.325219
v 0.435008 -0.152464 -0.298925
v 0.457257 -0.088490 -0.257751
v 0.122064 0.225005 0.665110
v 0.088316 0.167976 0.700166
v 0.051387 0.098234 0.726841
v 0.368149 -0.208104 0.426179
v 0.358367 -0.150498 0.476402
v 0.345398 -0.087548 0.518357
v -0.409340 0.212700 0.327045
v -0.435787 0.150474 0.297347
v -0.457847 0.084377 0.257903
v -0.203901 -0.218927 0.621726
v -0.241813 -0.158305 0.617248
v -0.278198 -0.095066 0.600831
v -0.368956 0.209247 -0.423791
v -0.358506 0.158312 -0.472507
v -0.343466 0.090069 -0.520752
v -0.465339 -0.202051 -0.053579
v -0.474653 -0.149431 -0.097885
v -0.478289 -0.088639 -0.148704
v 0.203751 0.220024 -0.621159
v 0.244348 0.158310 -0.614944
v 0.278014 0.096694 -0.600669
v -0.116806 -0.230617 -0.664885
v -0.087078 -0.165660 -0.701587
v -0.051384 -0.098673 -0.726838
v 0.431957 0.290298 0.092417
v 0.416680 0.300757 0.170403
v 0.392724 0.315596 0.243925
v 0.078718 0.314809 0.627232
v 0.013463 0.330724 0.626242
v -0.057893 0.343034 0.610932
v -0.393362 0.298694 0.270808
v -0.411188 0.301580 0.195753
v -0.420447 0.310753 0.113848
v -0.326140 0.299779 -0.425350
v -0.280632 0.318615 -0.476076
v -0.229160 0.327912 -0.526538
v 0.215410 0.309801 -0.554123
v 0.262484 0.321349 -0.496305
v 0.305260 0.325822 -0.433175
v 0.021567 0.615754 0.096828
v 0.037013 0.604012 0.164900
v 0.065612 0.579610 0.247095
v 0.410467 0.344664 0.002437
v 0.376773 0.400938 0.002310
v 0.334527 0.456499 -0.001634
v -0.063759 0.614891 0.053267
v -0.108908 0.599863 0.101311
v -0.156988 0.574362 0.153369
v -0.063725 0.614896 -0.053262
v -0.108916 0.599862 -0.101307
v -0.157942 0.574651 -0.150127
v 0.021917 0.615770 -0.096308
v 0.038580 0.602962 -0.168918
v 0.063158 0.579568 -0.248260
v 0.227430 0.543622 -0.106670
v 0.191359 0.551127 -0.184274
v 0.146434 0.551278 -0.260974
v 0.300550 0.484916 -0.103419
v 0.323148 0.444546 -0.180151
v 0.338881 0.399876 -0.250190
v 0.177273 0.495330 -0.358733
v 0.234687 0.454753 -0.360696
v 0.293452 0.399873 -0.356508
v -0.000830 0.557168 -0.327153
v -0.072946 0.561138 -0.297406
v -0.140509 0.552804 -0.263275
v 0.023743 0.505915 -0.427946
v -0.033611 0.466708 -0.485834
v -0.087210 0.421056 -0.528357
v -0.203479 0.494257 -0.328470
v -0.189067 0.457045 -0.413325
v -0.170536 0.412651 -0.490665
v -0.230385 0.543233 -0.095525
v -0.235271 0.545941 0.002811
v -0.230273 0.543607 0.092470
v -0.289919 0.486101 -0.151849
v -0.341418 0.439639 -0.105064
v -0.383094 0.388130 -0.062943
v -0.290353 0.485485 0.153177
v -0.341741 0.439594 0.103925
v -0.378847 0.394800 0.059854
v -0.142020 0.550575 0.268003
v -0.072367 0.559288 0.303089
v -0.003285 0.556301 0.328856
v -0.203464 0.494259 0.328486
v -0.189071 0.457040 0.413329
v -0.170424 0.416293 0.486136
v 0.022309 0.504031 0.431214
v -0.035231 0.466082 0.486469
v -0.081614 0.422245 0.528887
v 0.147280 0.551039 0.260138
v 0.191955 0.550926 0.183682
v 0.226683 0.544606 0.104064
v 0.177688 0.495875 0.357181
v 0.236721 0.455048 0.357436
v 0.290859 0.403531 0.355123
v 0.301209 0.484102 0.105570
v 0.323365 0.443466 0.181947
v 0.339052 0.396832 0.255819
v 0.456865 0.098669 -0.254783
v 0.433809 0.161668 -0.295974
v 0.403712 0.236696 -0.318690
v 0.444092 0.003718 -0.322975
v 0.416354 0.005063 -0.397496
v 0.377006 -0.000000 -0.478015
v 0.360461 0.241778 -0.415611
v 0.355760 0.168916 -0.471952
v 0.341166 0.098698 -0.522106
v -0.053615 0.106185 -0.725124
v -0.083351 0.182905 -0.696271
v -0.113689 0.258603 -0.651113
v -0.105408 0.007611 -0.723199
v -0.180659 0.007608 -0.689044
v -0.244988 0.003544 -0.642623
v -0.206537 0.252707 -0.601157
v -0.246824 0.177415 -0.605281
v -0.277517 0.101481 -0.600184
v -0.478420 0.088828 -0.148206
v -0.471164 0.161700 -0.107097
v -0.456913 0.229418 -0.057938
v -0.490240 0.006926 -0.086264
v -0.493585 0.009163 0.002682
v -0.490240 0.006927 0.086262
v -0.456849 0.230685 0.055314
v -0.471165 0.161699 0.107098
v -0.478419 0.088824 0.148220
v -0.277505 0.101464 0.600201
v -0.244761 0.178140 0.606728
v -0.208253 0.248056 0.602638
v -0.244729 0.004527 0.642952
v -0.176628 0.004863 0.691276
v -0.105447 0.005970 0.723186
v -0.114185 0.255568 0.652378
v -0.083049 0.186251 0.695144
v -0.053609 0.106197 0.725123
v 0.342702 0.097198 0.520036
v 0.355178 0.172998 0.471159
v 0.359967 0.243296 0.415344
v 0.376051 0.002934 0.479462
v 0.413289 0.007613 0.404948
v 0.446248 0.007649 0.316283
v 0.403160 0.238314 0.318481
v 0.432076 0.169487 0.295481
v 0.457673 0.091239 0.255287
v 0.244721 -0.004511 -0.642959
v 0.179250 -0.004651 -0.689684
v 0.105386 -0.003958 -0.723085
v 0.281109 -0.098690 -0.597092
v 0.246659 -0.178217 -0.604958
v 0.201910 -0.252056 -0.605021
v 0.048165 -0.104355 -0.726145
v 0.082918 -0.187462 -0.694745
v 0.114385 -0.258612 -0.651043
v -0.377037 -0.007610 -0.477963
v -0.416330 -0.005194 -0.397546
v -0.444150 -0.007615 -0.323005
v -0.341169 -0.098681 -0.522106
v -0.352795 -0.172998 -0.475134
v -0.358478 -0.238507 -0.421899
v -0.456900 -0.097786 -0.255047
v -0.433610 -0.166696 -0.292386
v -0.406859 -0.230677 -0.316667
v -0.445658 -0.001522 0.317911
v -0.415367 -0.003373 0.399849
v -0.376976 -0.001816 0.477685
v -0.456883 -0.097828 0.255098
v -0.435650 -0.160972 0.290640
v -0.402678 -0.237985 0.320663
v -0.341171 -0.098712 0.522093
v -0.356881 -0.169490 0.469703
v -0.358557 -0.242935 0.418251
v 0.103036 -0.002234 0.724098
v 0.175844 -0.006082 0.691740
v 0.241142 -0.005490 0.645953
v 0.050520 -0.107937 0.725159
v 0.083361 -0.182909 0.696266
v 0.114187 -0.255560 0.652380
v 0.277734 -0.100110 0.600228
v 0.243679 -0.172972 0.610178
v 0.208262 -0.248051 0.602634
v 0.490115 -0.001385 0.086660
v 0.493587 -0.007620 0.002818
v 0.490245 -0.006318 -0.086235
v 0.477588 -0.091212 0.151609
v 0.470435 -0.167050 0.102948
v 0.456465 -0.230660 0.059619
v 0.476869 -0.098449 -0.151464
v 0.472320 -0.159522 -0.100455
v 0.456233 -0.231827 -0.057745
v 0.203652 -0.495323 -0.325283
v 0.191799 -0.456786 -0.410768
v 0.173208 -0.415120 -0.485288
v 0.142918 -0.551274 -0.265034
v 0.074239 -0.559305 -0.301645
v 0.004334 -0.557174 -0.327171
v 0.081458 -0.422705 -0.528435
v 0.035235 -0.466091 -0.486456
v -0.016562 -0.504076 -0.431957
v -0.177814 -0.495665 -0.357456
v -0.236731 -0.455040 -0.357434
v -0.290348 -0.404432 -0.354809
v -0.145999 -0.551505 -0.260429
v -0.192115 -0.551275 -0.182417
v -0.228624 -0.543176 -0.104164
v -0.338159 -0.398272 -0.255534
v -0.322669 -0.444242 -0.181781
v -0.303489 -0.481538 -0.106061
v -0.301209 -0.484102 0.105572
v -0.322412 -0.444965 0.181080
v -0.339238 -0.396924 0.254838
v -0.228623 -0.543235 0.103696
v -0.189932 -0.551438 0.185721
v -0.149499 -0.550955 0.257666
v -0.289250 -0.404790 0.356290
v -0.237504 -0.455073 0.356460
v -0.176683 -0.497524 0.355099
v 0.382618 -0.388658 -0.063010
v 0.340737 -0.440952 -0.102302
v 0.291245 -0.484706 -0.151686
v 0.381485 -0.390446 0.062500
v 0.340436 -0.440753 0.104739
v 0.291133 -0.484460 0.153762
v 0.229313 -0.544783 -0.089328
v 0.231625 -0.548151 -0.000926
v 0.229424 -0.544108 0.095142
v -0.021156 -0.503363 0.432616
v 0.029288 -0.469077 0.483025
v 0.082704 -0.418970 0.532046
v 0.003049 -0.557460 0.326135
v 0.072618 -0.561455 0.296906
v 0.142921 -0.551275 0.265026
v 0.174232 -0.411427 0.489341
v 0.189069 -0.457040 0.413331
v 0.205774 -0.493149 0.327457
v 0.046042 -0.596091 0.195852
v 0.024840 -0.612403 0.122476
v 0.079075 -0.599061 0.156139
v 0.108439 -0.580879 0.205199
v 0.056946 -0.582058 0.243734
v 0.001141 -0.582819 0.255137
v 0.012810 -0.601523 0.184766
v 0.360814 -0.388128 0.202681
v 0.366564 -0.351873 0.263256
v 0.340340 -0.401801 0.240905
v 0.313198 -0.446386 0.210303
v 0.353099 -0.411427 0.164657
v 0.386105 -0.371107 0.129893
v 0.381543 -0.359235 0.192917
v -0.126365 -0.591964 0.119339
v -0.075550 -0.611206 0.072771
v -0.089519 -0.598658 0.144443
v -0.111275 -0.581068 0.201060
v -0.154951 -0.576198 0.148678
v -0.181458 -0.573749 0.078896
v -0.129426 -0.596983 0.065019
v -0.123047 -0.592948 -0.119683
v -0.077748 -0.610579 -0.073774
v -0.132220 -0.596106 -0.064179
v -0.181288 -0.573760 -0.079208
v -0.154476 -0.576590 -0.147780
v -0.114115 -0.578866 -0.206048
v -0.088923 -0.598874 -0.144023
v 0.046812 -0.596280 -0.194645
v 0.027726 -0.612261 -0.120713
v 0.012084 -0.602101 -0.182281
v -0.002821 -0.582836 -0.255326
v 0.059173 -0.582333 -0.241129
v 0.108878 -0.581129 -0.203621
v 0.079214 -0.599111 -0.155734
v 0.445455 -0.206763 0.202047
v 0.420812 -0.237181 0.264019
v 0.432961 -0.246272 0.200417
v 0.442377 -0.252633 0.129870
v 0.459101 -0.187834 0.155057
v 0.462413 -0.136737 0.201154
v 0.444702 -0.178685 0.240568
v -0.004574 -0.232822 0.686234
v -0.063115 -0.258570 0.666372
v -0.006991 -0.275841 0.663133
v 0.056212 -0.274291 0.658858
v 0.031993 -0.211854 0.694313
v 0.000790 -0.152111 0.717773
v -0.039384 -0.202729 0.697020
v -0.445860 -0.210988 0.193934
v -0.451643 -0.230694 0.117619
v -0.435601 -0.247079 0.184997
v -0.420091 -0.248891 0.250872
v -0.445021 -0.187589 0.229678
v -0.463778 -0.130507 0.199621
v -0.459728 -0.183141 0.157583
v -0.295212 -0.218249 -0.533148
v -0.243739 -0.252103 -0.569271
v -0.280868 -0.261219 -0.523214
v -0.320777 -0.258639 -0.470622
v -0.319173 -0.202060 -0.510816
v -0.306088 -0.143467 -0.555003
v -0.274508 -0.195122 -0.569493
v 0.297898 -0.216407 -0.531156
v 0.331935 -0.241212 -0.466418
v 0.289278 -0.260727 -0.513177
v 0.249749 -0.264989 -0.554946
v 0.278105 -0.201388 -0.562275
v 0.309453 -0.140722 -0.551769
v 0.325174 -0.187598 -0.510088
v 0.410075 -0.098502 0.394868
v 0.397260 -0.172929 0.388114
v 0.422914 -0.114931 0.356156
v 0.439777 -0.061075 0.328006
v 0.414047 -0.055906 0.397331
v 0.381154 -0.062697 0.464234
v 0.391393 -0.116961 0.428975
v -0.176176 -0.103508 0.680393
v -0.164999 -0.183625 0.662599
v -0.134512 -0.128635 0.695809
v -0.115882 -0.072255 0.714520
v -0.172389 -0.060882 0.690000
v -0.232067 -0.071296 0.647841
v -0.202400 -0.128628 0.657737
v -0.487289 -0.099956 -0.000029
v -0.476481 -0.162052 -0.003565
v -0.483511 -0.118903 0.044559
v -0.488167 -0.064636 0.076841
v -0.491793 -0.050713 0.000927
v -0.488398 -0.064189 -0.074933
v -0.484433 -0.113682 -0.044635
v -0.176180 -0.103497 -0.680394
v -0.167610 -0.178669 -0.662849
v -0.202394 -0.128644 -0.657737
v -0.230092 -0.067146 -0.650036
v -0.172403 -0.060884 -0.689990
v -0.115870 -0.072253 -0.714524
v -0.134482 -0.128640 -0.695820
v 0.409845 -0.098709 -0.395335
v 0.398613 -0.166176 -0.389049
v 0.390475 -0.122781 -0.428511
v 0.380776 -0.067679 -0.464024
v 0.413758 -0.053739 -0.398266
v 0.439482 -0.065094 -0.327905
v 0.421932 -0.120935 -0.355792
v 0.211672 0.409965 0.456477
v 0.192711 0.364625 0.525120
v 0.239055 0.368263 0.476135
v 0.265738 0.386028 0.421184
v 0.219622 0.432062 0.417524
v 0.173230 0.459772 0.424311
v 0.176881 0.417038 0.479918
v -0.260657 0.402211 0.406420
v -0.307514 0.359566 0.389087
v -0.272312 0.363829 0.439697
v -0.223488 0.388095 0.470817
v -0.233784 0.425893 0.409038
v -0.251117 0.453385 0.337441
v -0.281283 0.409266 0.363283
v -0.361527 0.388150 -0.200047
v -0.366560 0.351878 -0.263258
v -0.381543 0.359234 -0.192917
v -0.386872 0.369805 -0.130454
v -0.353101 0.411424 -0.164648
v -0.312060 0.447753 -0.209644
v -0.338687 0.402216 -0.244876
v 0.035996 0.419128 -0.543486
v 0.081384 0.376045 -0.576563
v 0.023790 0.381154 -0.583359
v -0.030314 0.397100 -0.567219
v 0.003812 0.439436 -0.523053
v 0.054642 0.466279 -0.482261
v 0.078561 0.422713 -0.529589
v 0.376055 0.390210 -0.115725
v 0.405692 0.348630 -0.071473
v 0.396038 0.351422 -0.141047
v 0.370505 0.374853 -0.198783
v 0.357341 0.411417 -0.142748
v 0.340492 0.445441 -0.073943
v 0.376903 0.396546 -0.069304
v 0.127950 0.591572 -0.118319
v 0.179235 0.574559 -0.081270
v 0.155106 0.576915 -0.144427
v 0.114904 0.578369 -0.206883
v 0.088909 0.598878 -0.144018
v 0.077751 0.610578 -0.073779
v 0.130334 0.596343 -0.069808
v 0.256088 0.488345 -0.248275
v 0.264734 0.507122 -0.157016
v 0.287588 0.470798 -0.216380
v 0.295792 0.436769 -0.282687
v 0.248376 0.476856 -0.293127
v 0.196978 0.515146 -0.289121
v 0.226202 0.521228 -0.216827
v 0.214029 0.406101 -0.458758
v 0.268817 0.380924 -0.423265
v 0.235948 0.374019 -0.473293
v 0.191230 0.369645 -0.521130
v 0.174406 0.421931 -0.476212
v 0.168727 0.460683 -0.426894
v 0.223901 0.428310 -0.417670
v -0.046087 0.596332 -0.194733
v -0.001559 0.582557 -0.256173
v -0.061313 0.582281 -0.240669
v -0.114197 0.578671 -0.206881
v -0.079075 0.599057 -0.156160
v -0.027008 0.612200 -0.121768
v -0.012806 0.601526 -0.184753
v -0.099338 0.504141 -0.405781
v -0.034215 0.528387 -0.385753
v -0.072180 0.489538 -0.442246
v -0.118787 0.454025 -0.472505
v -0.144383 0.486283 -0.406256
v -0.147975 0.519394 -0.339756
v -0.093907 0.529304 -0.360875
v -0.263069 0.403548 -0.401052
v -0.225553 0.388118 -0.468656
v -0.272327 0.363818 -0.439690
v -0.308130 0.358474 -0.389435
v -0.282973 0.411424 -0.357139
v -0.251424 0.455031 -0.334288
v -0.232382 0.430849 -0.403517
v -0.150596 0.591489 0.000880
v -0.180875 0.574463 -0.074070
v -0.186105 0.575204 0.001562
v -0.179546 0.574520 0.079554
v -0.134347 0.596365 0.049014
v -0.094206 0.610067 0.000528
v -0.133573 0.596609 -0.045591
v -0.310402 0.482685 0.000804
v -0.282771 0.505175 -0.074035
v -0.325438 0.465280 -0.048191
v -0.354914 0.431410 -0.001778
v -0.323309 0.467538 0.045740
v -0.280622 0.506956 0.074827
v -0.278718 0.512618 0.003761
v -0.360812 0.388129 0.202683
v -0.384558 0.373310 0.131202
v -0.381551 0.359222 0.192910
v -0.367800 0.349782 0.263694
v -0.340343 0.401802 0.240892
v -0.315708 0.444550 0.207430
v -0.353872 0.411450 0.161157
v -0.046101 0.596331 0.194727
v -0.110013 0.580205 0.205906
v -0.060562 0.582344 0.240081
v -0.002836 0.583548 0.253194
v -0.012015 0.601721 0.183476
v -0.024841 0.612402 0.122479
v -0.079071 0.599059 0.156150
v -0.100279 0.504822 0.403762
v -0.150534 0.519947 0.336214
v -0.139105 0.487912 0.407382
v -0.118896 0.453975 0.472511
v -0.072759 0.489955 0.441391
v -0.030734 0.526806 0.389052
v -0.086520 0.532151 0.358821
v 0.037737 0.419986 0.542372
v -0.030006 0.399825 0.564700
v 0.023906 0.381509 0.583028
v 0.081602 0.374044 0.578063
v 0.074602 0.425646 0.527162
v 0.052138 0.466210 0.482867
v 0.009274 0.443301 0.518371
v 0.127552 0.591815 0.117279
v 0.110853 0.580328 0.204050
v 0.155459 0.576582 0.145899
v 0.179452 0.574392 0.082359
v 0.131056 0.596469 0.064695
v 0.077744 0.610580 0.073777
v 0.088915 0.598877 0.144020
v 0.250581 0.494270 0.244447
v 0.196083 0.515595 0.289256
v 0.248140 0.475230 0.297886
v 0.298472 0.433766 0.283675
v 0.286066 0.470936 0.220491
v 0.265322 0.506530 0.158219
v 0.224111 0.522028 0.218762
v 0.377127 0.388138 0.118245
v 0.374775 0.367578 0.199848
v 0.393252 0.357812 0.135043
v 0.406773 0.345684 0.075254
v 0.376920 0.396490 0.069489
v 0.340668 0.444685 0.074982
v 0.357346 0.411414 0.142734
v 0.446717 0.210449 -0.190140
v 0.463856 0.128682 -0.201816
v 0.445024 0.187590 -0.229666
v 0.421234 0.247827 -0.247874
v 0.437295 0.245413 -0.179684
v 0.451642 0.230696 -0.117623
v 0.459444 0.184831 -0.156691
v 0.408189 0.117578 -0.391725
v 0.440112 0.068485 -0.325272
v 0.413285 0.068459 -0.396386
v 0.380617 0.071088 -0.463507
v 0.388618 0.137231 -0.425935
v 0.394661 0.189801 -0.382856
v 0.421187 0.134761 -0.350564
v 0.293495 0.216406 -0.536712
v 0.309472 0.140551 -0.551809
v 0.273222 0.190489 -0.573109
v 0.247260 0.245534 -0.570154
v 0.278605 0.266207 -0.522253
v 0.319649 0.261351 -0.469883
v 0.320507 0.196674 -0.511739
v 0.002651 0.229479 -0.687898
v 0.005849 0.154133 -0.717225
v -0.031995 0.211848 -0.694316
v -0.051778 0.278185 -0.657265
v 0.005836 0.273525 -0.664698
v 0.060360 0.259258 -0.666553
v 0.039340 0.203938 -0.696647
v -0.176013 0.125930 -0.675218
v -0.112993 0.083588 -0.713951
v -0.178832 0.073473 -0.684382
v -0.229498 0.082754 -0.647999
v -0.203267 0.150697 -0.650149
v -0.169096 0.206761 -0.650358
v -0.133164 0.154078 -0.688890
v -0.298016 0.220994 -0.527948
v -0.309391 0.140695 -0.551573
v -0.324094 0.191845 -0.509332
v -0.330673 0.241951 -0.467800
v -0.292902 0.259158 -0.509544
v -0.246688 0.265388 -0.557658
v -0.273614 0.202054 -0.567347
v -0.446001 0.204807 -0.202144
v -0.462935 0.128723 -0.205746
v -0.458763 0.186573 -0.158357
v -0.443006 0.250905 -0.129945
v -0.430688 0.252979 -0.199341
v -0.422715 0.231538 -0.264337
v -0.444231 0.180299 -0.240432
v -0.485159 0.114391 0.002791
v -0.487033 0.074232 -0.081014
v -0.490491 0.068334 -0.001152
v -0.487115 0.078280 0.074364
v -0.481688 0.130759 0.042702
v -0.470050 0.189593 -0.002296
v -0.480963 0.134163 -0.046959
v -0.444451 0.211338 0.200702
v -0.462218 0.129817 0.209087
v -0.443104 0.184906 0.240132
v -0.419957 0.237200 0.267039
v -0.432956 0.246286 0.200411
v -0.443007 0.250901 0.129942
v -0.457887 0.187612 0.163108
v -0.297375 0.216409 0.531693
v -0.309799 0.139079 0.551840
v -0.277790 0.202864 0.562008
v -0.245038 0.270279 0.556053
v -0.290964 0.264357 0.507978
v -0.332424 0.244713 0.463258
v -0.325175 0.187598 0.510085
v -0.176021 0.125726 0.675263
v -0.229678 0.080747 0.648197
v -0.176736 0.073027 0.685726
v -0.113002 0.083604 0.713945
v -0.135351 0.153995 0.687945
v -0.165458 0.210747 0.650577
v -0.203502 0.149322 0.650484
v 0.004148 0.233919 0.685830
v 0.001174 0.151656 0.717926
v 0.040045 0.201907 0.697563
v 0.060365 0.259259 0.666551
v 0.007496 0.279820 0.660830
v -0.056224 0.274302 0.658850
v -0.032861 0.215334 0.692662
v 0.291543 0.216408 0.538903
v 0.309217 0.143521 0.551330
v 0.322652 0.195911 0.509153
v 0.319645 0.261361 0.469881
v 0.278618 0.266217 0.522232
v 0.247258 0.245541 0.570151
v 0.274548 0.194828 0.569857
v 0.406796 0.113716 0.397073
v 0.381825 0.071422 0.461489
v 0.411283 0.068470 0.401405
v 0.437480 0.072253 0.331743
v 0.419850 0.142490 0.350079
v 0.394876 0.194817 0.378474
v 0.387584 0.143527 0.425407
v 0.447137 0.209337 0.189144
v 0.462396 0.136842 0.201147
v 0.460240 0.181884 0.156510
v 0.451782 0.230666 0.115441
v 0.437291 0.245419 0.179689
v 0.421234 0.247827 0.247874
v 0.442459 0.190947 0.235995
v 0.176053 0.104960 -0.680168
v 0.228204 0.068461 -0.651476
v 0.178406 0.060382 -0.686461
v 0.113338 0.068479 -0.716112
v 0.138842 0.128635 -0.693699
v 0.164183 0.184765 -0.662634
v 0.208079 0.128640 -0.653653
v 0.169947 -0.127742 -0.678299
v 0.230588 -0.076615 -0.648154
v 0.208895 -0.150182 -0.646382
v 0.162405 -0.211706 -0.651996
v 0.136653 -0.153829 -0.687223
v 0.113062 -0.080143 -0.714364
v 0.178853 -0.073501 -0.684446
v -0.005675 -0.229262 -0.688144
v 0.056995 -0.274084 -0.658935
v -0.005059 -0.278242 -0.661713
v -0.060422 -0.258624 -0.667137
v -0.039891 -0.200193 -0.698242
v 0.000781 -0.153534 -0.717300
v 0.029495 -0.215977 -0.692845
v -0.409295 0.102004 -0.395528
v -0.381188 0.061445 -0.464241
v -0.413583 0.054651 -0.398577
v -0.439839 0.060873 -0.328004
v -0.422338 0.122752 -0.354122
v -0.399293 0.169519 -0.385274
v -0.387549 0.121357 -0.435032
v -0.408371 -0.115743 -0.391799
v -0.382267 -0.071835 -0.460395
v -0.386201 -0.139620 -0.429857
v -0.392888 -0.197353 -0.381236
v -0.421529 -0.133637 -0.350694
v -0.438288 -0.068442 -0.331040
v -0.414050 -0.064288 -0.395520
v -0.448215 -0.203674 -0.192727
v -0.419065 -0.253953 -0.247306
v -0.435020 -0.251739 -0.179244
v -0.451120 -0.232780 -0.114772
v -0.460095 -0.185400 -0.152353
v -0.463777 -0.130507 -0.199623
v -0.441898 -0.192141 -0.237286
v -0.409306 0.101988 0.395507
v -0.437517 0.061246 0.334696
v -0.412490 0.057285 0.400868
v -0.383510 0.060866 0.460546
v -0.388932 0.125019 0.430993
v -0.399681 0.167601 0.385411
v -0.423358 0.120057 0.352530
v -0.408375 -0.115755 0.391784
v -0.438299 -0.068435 0.331008
v -0.421480 -0.134879 0.350144
v -0.393874 -0.190213 0.384420
v -0.386231 -0.138020 0.430405
v -0.382264 -0.071829 0.460403
v -0.414543 -0.068465 0.393892
v -0.295811 -0.216407 0.533661
v -0.320202 -0.259969 0.470246
v -0.279921 -0.265295 0.521312
v -0.245834 -0.246348 0.570870
v -0.273575 -0.189018 0.573445
v -0.306196 -0.141844 0.555305
v -0.318391 -0.197848 0.514139
v 0.172002 0.108283 0.681865
v 0.116091 0.066649 0.715178
v 0.178413 0.060881 0.686458
v 0.229697 0.066231 0.650481
v 0.207960 0.128618 0.653489
v 0.167806 0.179452 0.662571
v 0.138466 0.131713 0.692816
v 0.170383 -0.123365 0.679002
v 0.114891 -0.083682 0.713031
v 0.137001 -0.150964 0.688029
v 0.168869 -0.208104 0.649914
v 0.209645 -0.145677 0.647466
v 0.234172 -0.079512 0.644691
v 0.173564 -0.072285 0.687730
v 0.297240 -0.222262 0.528415
v 0.245035 -0.270272 0.556059
v 0.290949 -0.264350 0.508003
v 0.332418 -0.244725 0.463257
v 0.326178 -0.191268 0.506535
v 0.309206 -0.143504 0.551350
v 0.273607 -0.202054 0.567356
v 0.487768 0.094805 -0.004956
v 0.488475 0.063561 0.073353
v 0.491692 0.053132 0.000859
v 0.488277 0.060894 -0.081217
v 0.484507 0.111716 -0.050527
v 0.476792 0.160636 -0.004809
v 0.483336 0.120260 0.042421
v 0.485503 -0.111390 -0.002145
v 0.487434 -0.073815 0.075640
v 0.480327 -0.138069 0.043599
v 0.470125 -0.189257 -0.004607
v 0.481634 -0.129825 -0.046116
v 0.487687 -0.068463 -0.081130
v 0.490760 -0.068044 -0.002258
v 0.445659 -0.210721 -0.195248
v 0.444833 -0.245397 -0.132605
v 0.432440 -0.250872 -0.194610
v 0.419844 -0.237691 -0.267005
v 0.442656 -0.186786 -0.240020
v 0.463865 -0.128659 -0.201788
v 0.457887 -0.187611 -0.163109
v 0.263806 -0.399887 -0.405511
v 0.248823 -0.455037 -0.338484
v 0.231479 -0.427548 -0.409565
v 0.223832 -0.387292 -0.471137
v 0.269984 -0.369460 -0.435939
v 0.311220 -0.352984 -0.391154
v 0.286946 -0.404877 -0.360261
v 0.099343 -0.504144 -0.405774
v 0.147518 -0.519901 -0.338874
v 0.089282 -0.531372 -0.358628
v 0.031397 -0.526014 -0.390609
v 0.066851 -0.492941 -0.439045
v 0.118652 -0.455014 -0.471377
v 0.143061 -0.486675 -0.406521
v -0.035837 -0.416062 -0.546993
v -0.052039 -0.466457 -0.482545
v -0.072777 -0.425474 -0.527998
v -0.081598 -0.374046 -0.578063
v -0.024202 -0.383527 -0.580972
v 0.033165 -0.399872 -0.564347
v -0.008982 -0.443262 -0.518317
v -0.209183 -0.410905 -0.457987
v -0.173221 -0.459773 -0.424316
v -0.221856 -0.431147 -0.416004
v -0.265745 -0.386022 -0.421178
v -0.239050 -0.368265 -0.476139
v -0.192694 -0.364640 -0.525117
v -0.174710 -0.417225 -0.481580
v -0.250580 -0.494270 -0.244448
v -0.198600 -0.516487 -0.283650
v -0.228491 -0.520624 -0.213451
v -0.264037 -0.507297 -0.159580
v -0.286063 -0.470937 -0.220495
v -0.296483 -0.433742 -0.288267
v -0.248155 -0.475233 -0.297851
v -0.374401 -0.391901 -0.119665
v -0.342557 -0.442935 -0.073948
v -0.378742 -0.394220 -0.066581
v -0.407601 -0.344545 -0.073372
v -0.396039 -0.351419 -0.141050
v -0.374775 -0.367580 -0.199842
v -0.355624 -0.412434 -0.147762
v -0.376506 -0.388310 0.121576
v -0.342552 -0.442210 0.077180
v -0.357342 -0.411417 0.142742
v -0.374100 -0.368727 0.199681
v -0.394560 -0.355581 0.135085
v -0.409247 -0.341991 0.070881
v -0.378217 -0.395209 0.064298
v -0.250214 -0.494291 0.245090
v -0.261761 -0.509533 0.158025
v -0.226366 -0.520999 0.216567
v -0.198309 -0.515459 0.285924
v -0.248147 -0.475227 0.297881
v -0.296463 -0.433764 0.288266
v -0.282939 -0.474698 0.218693
v -0.208936 -0.411315 0.457742
v -0.171202 -0.459999 0.425864
v -0.174709 -0.417222 0.481585
v -0.192696 -0.364297 0.525470
v -0.238569 -0.369171 0.475694
v -0.268083 -0.384921 0.419208
v -0.221873 -0.431139 0.415993
v 0.357678 -0.393986 -0.199378
v 0.385903 -0.371084 -0.131230
v 0.353099 -0.411426 -0.164664
v 0.313019 -0.448370 -0.204172
v 0.339464 -0.399876 -0.248505
v 0.367085 -0.351409 -0.263473
v 0.384922 -0.351393 -0.198631
v 0.307783 -0.485608 0.004867
v 0.357609 -0.427897 0.003359
v 0.324064 -0.466861 0.043097
v 0.280556 -0.507121 0.073722
v 0.276200 -0.514561 0.003337
v 0.278863 -0.508536 -0.074887
v 0.324543 -0.466161 -0.049682
v 0.151154 -0.591256 -0.002444
v 0.182589 -0.572917 0.080176
v 0.132760 -0.596942 0.046014
v 0.095474 -0.609757 0.000182
v 0.135279 -0.595989 -0.046046
v 0.177789 -0.575982 -0.074568
v 0.186296 -0.575056 -0.000473
v -0.035421 -0.418690 0.544191
v -0.052044 -0.466452 0.482550
v -0.003081 -0.439687 0.522691
v 0.032447 -0.399824 0.564557
v -0.023606 -0.385773 0.579161
v -0.079671 -0.373853 0.578853
v -0.072789 -0.425459 0.528010
v 0.097071 -0.504522 0.406336
v 0.030782 -0.525236 0.392161
v 0.085536 -0.532762 0.358375
v 0.148063 -0.520894 0.336176
v 0.135609 -0.487925 0.410388
v 0.117112 -0.455006 0.472408
v 0.073385 -0.488858 0.442987
v 0.262299 -0.404451 0.400840
v 0.251421 -0.455034 0.334287
v 0.284264 -0.410936 0.355520
v 0.308140 -0.358452 0.389446
v 0.272312 -0.363832 0.439694
v 0.223483 -0.388096 0.470822
v 0.230236 -0.430824 0.406234
vt 0.181819 0.032987
vt 0.191644 0.046815
vt 0.181819 0.052487
vt 0.171994 0.046815
vt 0.198391 0.062237
vt 0.181819 0.063832
vt 0.165247 0.062237
vt 0.181819 0.000000
vt 0.193183 0.019683
vt 0.170455 0.019683
vt 0.204546 0.039365
vt 0.159092 0.039365
vt 0.227273 0.078731
vt 0.201350 0.078799
vt 0.215910 0.059048
vt 0.181819 0.078731
vt 0.136365 0.078731
vt 0.147728 0.059048
vt 0.162288 0.078799
vt 0.301611 0.140968
vt 0.308358 0.125545
vt 0.318182 0.131217
vt 0.318183 0.142562
vt 0.318340 0.111991
vt 0.328007 0.125545
vt 0.334597 0.140694
vt 0.272728 0.157461
vt 0.284092 0.137778
vt 0.298651 0.157529
vt 0.295455 0.118096
vt 0.318183 0.157461
vt 0.318182 0.078731
vt 0.331203 0.101147
vt 0.306819 0.098413
vt 0.340910 0.118096
vt 0.363637 0.157461
vt 0.337674 0.157461
vt 0.350656 0.134976
vt 0.909091 0.032987
vt 0.918916 0.046815
vt 0.909091 0.052487
vt 0.899266 0.046815
vt 0.925663 0.062237
vt 0.909091 0.063832
vt 0.892519 0.062237
vt 0.909091 0.000000
vt 0.920455 0.019683
vt 0.897727 0.019683
vt 0.931818 0.039365
vt 0.886364 0.039365
vt 0.954545 0.078731
vt 0.928622 0.078799
vt 0.943182 0.059048
vt 0.909091 0.078731
vt 0.863636 0.078731
vt 0.875000 0.059048
vt 0.889560 0.078799
vt 0.727273 0.032987
vt 0.737098 0.046815
vt 0.727273 0.052487
vt 0.717448 0.046815
vt 0.743845 0.062237
vt 0.727273 0.063832
vt 0.710701 0.062237
vt 0.727273 0.000000
vt 0.738637 0.019683
vt 0.715909 0.019683
vt 0.750000 0.039365
vt 0.704546 0.039365
vt 0.772727 0.078731
vt 0.746804 0.078799
vt 0.761364 0.059048
vt 0.727273 0.078731
vt 0.681818 0.078731
vt 0.693182 0.059048
vt 0.707742 0.078799
vt 0.545455 0.032987
vt 0.555280 0.046815
vt 0.545455 0.052487
vt 0.535630 0.046815
vt 0.562027 0.062237
vt 0.545455 0.063832
vt 0.528883 0.062237
vt 0.545455 0.000000
vt 0.556819 0.019683
vt 0.534091 0.019683
vt 0.568182 0.039365
vt 0.522728 0.039365
vt 0.590909 0.078731
vt 0.564986 0.078799
vt 0.579546 0.059048
vt 0.545455 0.078731
vt 0.500000 0.078731
vt 0.511364 0.059048
vt 0.525924 0.078799
vt 0.301768 0.174228
vt 0.318183 0.172360
vt 0.318183 0.183704
vt 0.308358 0.189377
vt 0.334597 0.174228
vt 0.328007 0.189377
vt 0.318183 0.202658
vt 0.285709 0.179946
vt 0.295455 0.196826
vt 0.350656 0.179946
vt 0.340910 0.196826
vt 0.318183 0.236191
vt 0.305201 0.213707
vt 0.331164 0.213706
vt 0.119950 0.174228
vt 0.136365 0.172360
vt 0.136365 0.183704
vt 0.126540 0.189377
vt 0.152779 0.174228
vt 0.146189 0.189377
vt 0.136364 0.202658
vt 0.090910 0.157461
vt 0.116833 0.157529
vt 0.103931 0.179877
vt 0.136365 0.157461
vt 0.113637 0.196826
vt 0.181819 0.157461
vt 0.168838 0.179946
vt 0.155856 0.157461
vt 0.159092 0.196826
vt 0.136364 0.236191
vt 0.123383 0.213707
vt 0.149346 0.213706
vt 0.847222 0.174228
vt 0.863637 0.172360
vt 0.863636 0.183704
vt 0.853812 0.189377
vt 0.880051 0.174228
vt 0.873461 0.189377
vt 0.863637 0.202658
vt 0.818182 0.157461
vt 0.844105 0.157529
vt 0.831163 0.179946
vt 0.863637 0.157461
vt 0.840909 0.196826
vt 0.909091 0.157461
vt 0.896110 0.179946
vt 0.883128 0.157461
vt 0.886364 0.196826
vt 0.863637 0.236191
vt 0.850655 0.213707
vt 0.876618 0.213706
vt 0.665404 0.174228
vt 0.681819 0.172360
vt 0.681819 0.183704
vt 0.671994 0.189377
vt 0.698233 0.174228
vt 0.691643 0.189377
vt 0.681819 0.202658
vt 0.636364 0.157461
vt 0.662287 0.157529
vt 0.649345 0.179946
vt 0.681819 0.157461
vt 0.659091 0.196826
vt 0.727273 0.157461
vt 0.714292 0.179946
vt 0.701310 0.157461
vt 0.704546 0.196826
vt 0.681819 0.236191
vt 0.668837 0.213707
vt 0.694800 0.213706
vt 0.483586 0.174228
vt 0.500001 0.172360
vt 0.500001 0.183704
vt 0.490176 0.189377
vt 0.516415 0.174228
vt 0.509825 0.189377
vt 0.500001 0.202658
vt 0.454546 0.157461
vt 0.480469 0.157529
vt 0.467527 0.179946
vt 0.500001 0.157461
vt 0.477273 0.196826
vt 0.545455 0.157461
vt 0.532474 0.179946
vt 0.519492 0.157461
vt 0.522728 0.196826
vt 0.500001 0.236191
vt 0.487019 0.213707
vt 0.512982 0.213706
vt 0.272728 0.190994
vt 0.282553 0.204275
vt 0.272728 0.209948
vt 0.262903 0.204275
vt 0.289142 0.219424
vt 0.272728 0.221292
vt 0.256314 0.219424
vt 0.259747 0.179946
vt 0.250001 0.196826
vt 0.292220 0.236191
vt 0.272728 0.236191
vt 0.227274 0.236191
vt 0.240255 0.213706
vt 0.253236 0.236191
vt 0.091068 0.190721
vt 0.100735 0.204275
vt 0.090910 0.209948
vt 0.081085 0.204275
vt 0.107324 0.219424
vt 0.090910 0.221292
vt 0.074338 0.219698
vt 0.079546 0.177144
vt 0.068183 0.196826
vt 0.110402 0.236191
vt 0.090910 0.236191
vt 0.045455 0.236191
vt 0.056819 0.216509
vt 0.071378 0.236259
vt 0.818182 0.190994
vt 0.828007 0.204275
vt 0.818182 0.209948
vt 0.808357 0.204275
vt 0.834596 0.219424
vt 0.818182 0.221292
vt 0.801768 0.219424
vt 0.805201 0.179946
vt 0.795455 0.196826
vt 0.837674 0.236191
vt 0.818182 0.236191
vt 0.772728 0.236191
vt 0.785709 0.213706
vt 0.798690 0.236191
vt 0.636364 0.190994
vt 0.646189 0.204275
vt 0.636364 0.209948
vt 0.626539 0.204275
vt 0.652778 0.219424
vt 0.636364 0.221292
vt 0.619950 0.219424
vt 0.623383 0.179946
vt 0.613637 0.196826
vt 0.655856 0.236191
vt 0.636364 0.236191
vt 0.590910 0.236191
vt 0.603891 0.213706
vt 0.616872 0.236191
vt 0.454546 0.190994
vt 0.464371 0.204275
vt 0.454546 0.209948
vt 0.444721 0.204275
vt 0.470960 0.219424
vt 0.454546 0.221292
vt 0.438132 0.219424
vt 0.441565 0.179946
vt 0.431819 0.196826
vt 0.474038 0.236191
vt 0.454546 0.236191
vt 0.409092 0.236191
vt 0.422073 0.213706
vt 0.435054 0.236191
vt 0.210702 0.331414
vt 0.227274 0.329820
vt 0.227274 0.341165
vt 0.217449 0.346837
vt 0.243688 0.331688
vt 0.237098 0.346837
vt 0.227431 0.360392
vt 0.181819 0.314921
vt 0.207742 0.314853
vt 0.193183 0.334604
vt 0.227274 0.314921
vt 0.204546 0.354286
vt 0.272728 0.314921
vt 0.259747 0.337406
vt 0.246765 0.314921
vt 0.250001 0.354286
vt 0.227273 0.393651
vt 0.215910 0.373969
vt 0.240294 0.371235
vt 0.028883 0.331414
vt 0.045455 0.329820
vt 0.045455 0.341165
vt 0.035630 0.346837
vt 0.061869 0.331688
vt 0.055280 0.346837
vt 0.045613 0.360392
vt 0.000000 0.314921
vt 0.025884 0.314921
vt 0.011364 0.334604
vt 0.045455 0.314921
vt 0.022728 0.354286
vt 0.090910 0.314921
vt 0.077928 0.337406
vt 0.064947 0.314921
vt 0.068182 0.354286
vt 0.045455 0.393651
vt 0.034091 0.373969
vt 0.058476 0.371235
vt 0.756156 0.331414
vt 0.772728 0.329820
vt 0.772727 0.341165
vt 0.762903 0.346837
vt 0.789142 0.331688
vt 0.782552 0.346837
vt 0.772885 0.360392
vt 0.727273 0.314921
vt 0.753196 0.314853
vt 0.738637 0.334604
vt 0.772728 0.314921
vt 0.750000 0.354286
vt 0.818182 0.314921
vt 0.805201 0.337406
vt 0.792219 0.314921
vt 0.795455 0.354286
vt 0.772727 0.393651
vt 0.761364 0.373969
vt 0.785748 0.371235
vt 0.574338 0.331414
vt 0.590909 0.329820
vt 0.590909 0.341165
vt 0.581085 0.346837
vt 0.607324 0.331688
vt 0.600734 0.346837
vt 0.591067 0.360392
vt 0.545455 0.314921
vt 0.571378 0.314853
vt 0.556819 0.334604
vt 0.590910 0.314921
vt 0.568182 0.354286
vt 0.636364 0.314921
vt 0.623383 0.337406
vt 0.610401 0.314921
vt 0.613637 0.354286
vt 0.590909 0.393651
vt 0.579546 0.373969
vt 0.603930 0.371235
vt 0.392520 0.331414
vt 0.409092 0.329820
vt 0.409092 0.341165
vt 0.399267 0.346837
vt 0.425506 0.331688
vt 0.418916 0.346837
vt 0.409249 0.360392
vt 0.363637 0.314921
vt 0.389560 0.314853
vt 0.375001 0.334604
vt 0.409092 0.314921
vt 0.386364 0.354286
vt 0.454546 0.314921
vt 0.441565 0.337406
vt 0.428583 0.314921
vt 0.431819 0.354286
vt 0.409092 0.393651
vt 0.397728 0.373969
vt 0.422112 0.371235
vt 0.437974 0.410145
vt 0.454546 0.408550
vt 0.454546 0.419895
vt 0.444721 0.425567
vt 0.471118 0.410145
vt 0.464371 0.425567
vt 0.454546 0.439395
vt 0.435015 0.393583
vt 0.420455 0.413334
vt 0.454546 0.393652
vt 0.431819 0.433017
vt 0.500000 0.393651
vt 0.488637 0.413334
vt 0.474077 0.393583
vt 0.477273 0.433017
vt 0.454546 0.472382
vt 0.443182 0.452699
vt 0.465910 0.452699
vt 0.438132 0.376885
vt 0.444721 0.361736
vt 0.454546 0.367408
vt 0.454546 0.378753
vt 0.454546 0.348454
vt 0.464371 0.361736
vt 0.470960 0.376885
vt 0.467527 0.337406
vt 0.477273 0.354286
vt 0.486980 0.371235
vt 0.483586 0.331688
vt 0.500001 0.329820
vt 0.500000 0.341164
vt 0.490176 0.346837
vt 0.516572 0.331414
vt 0.509825 0.346837
vt 0.499843 0.360392
vt 0.480509 0.314921
vt 0.500001 0.314921
vt 0.534091 0.334604
vt 0.519532 0.314853
vt 0.522728 0.354286
vt 0.511364 0.373969
vt 0.619792 0.410145
vt 0.636364 0.408550
vt 0.636364 0.419895
vt 0.626539 0.425567
vt 0.652936 0.410145
vt 0.646189 0.425567
vt 0.636364 0.439395
vt 0.616833 0.393583
vt 0.602273 0.413334
vt 0.636364 0.393652
vt 0.613637 0.433017
vt 0.681818 0.393651
vt 0.670455 0.413334
vt 0.655895 0.393583
vt 0.659091 0.433017
vt 0.636364 0.472382
vt 0.625000 0.452699
vt 0.647728 0.452699
vt 0.619950 0.376885
vt 0.626539 0.361736
vt 0.636364 0.367408
vt 0.636364 0.378753
vt 0.636364 0.348454
vt 0.646189 0.361736
vt 0.652778 0.376885
vt 0.649345 0.337406
vt 0.659091 0.354286
vt 0.668798 0.371235
vt 0.665404 0.331688
vt 0.681819 0.329820
vt 0.681818 0.341164
vt 0.671994 0.346837
vt 0.698390 0.331414
vt 0.691643 0.346837
vt 0.681661 0.360392
vt 0.662327 0.314921
vt 0.681819 0.314921
vt 0.715909 0.334604
vt 0.701350 0.314853
vt 0.704546 0.354286
vt 0.693182 0.373969
vt 0.801610 0.410145
vt 0.818182 0.408550
vt 0.818182 0.419895
vt 0.808357 0.425567
vt 0.834754 0.410145
vt 0.828007 0.425567
vt 0.818182 0.439395
vt 0.798651 0.393583
vt 0.784091 0.413334
vt 0.818182 0.393652
vt 0.795455 0.433017
vt 0.863636 0.393651
vt 0.852273 0.413334
vt 0.837713 0.393583
vt 0.840909 0.433017
vt 0.818182 0.472382
vt 0.806818 0.452699
vt 0.829546 0.452699
vt 0.801768 0.376885
vt 0.808357 0.361736
vt 0.818182 0.367408
vt 0.818182 0.378753
vt 0.818182 0.348454
vt 0.828007 0.361736
vt 0.834596 0.376885
vt 0.831164 0.337406
vt 0.840909 0.354286
vt 0.850616 0.371235
vt 0.847222 0.331688
vt 0.863636 0.329820
vt 0.863636 0.341164
vt 0.853812 0.346837
vt 0.880208 0.331414
vt 0.873461 0.346837
vt 0.863479 0.360392
vt 0.844145 0.314921
vt 0.863637 0.314921
vt 0.909091 0.314921
vt 0.897727 0.334604
vt 0.883168 0.314853
vt 0.886364 0.354286
vt 0.875000 0.373969
vt 0.074338 0.410145
vt 0.090910 0.408550
vt 0.090910 0.419895
vt 0.081085 0.425567
vt 0.107482 0.410145
vt 0.100735 0.425567
vt 0.090910 0.439395
vt 0.071378 0.393583
vt 0.056819 0.413334
vt 0.090910 0.393652
vt 0.068183 0.433017
vt 0.136365 0.393651
vt 0.125001 0.413334
vt 0.110441 0.393583
vt 0.113637 0.433017
vt 0.090910 0.472382
vt 0.079546 0.452699
vt 0.102274 0.452699
vt 0.074495 0.376885
vt 0.081085 0.361736
vt 0.090910 0.367408
vt 0.090910 0.378753
vt 0.090910 0.348454
vt 0.100735 0.361736
vt 0.107324 0.376885
vt 0.103891 0.337406
vt 0.113637 0.354286
vt 0.123344 0.371235
vt 0.119950 0.331688
vt 0.136364 0.329820
vt 0.136364 0.341164
vt 0.126540 0.346837
vt 0.152936 0.331414
vt 0.146189 0.346837
vt 0.136207 0.360392
vt 0.116872 0.314921
vt 0.136364 0.314921
vt 0.170455 0.334604
vt 0.155896 0.314853
vt 0.159092 0.354286
vt 0.147728 0.373969
vt 0.256156 0.410145
vt 0.272728 0.408550
vt 0.272728 0.419895
vt 0.262903 0.425567
vt 0.289300 0.410145
vt 0.282553 0.425567
vt 0.272728 0.439395
vt 0.253197 0.393583
vt 0.238637 0.413334
vt 0.272728 0.393652
vt 0.250001 0.433017
vt 0.318182 0.393651
vt 0.306819 0.413334
vt 0.292259 0.393583
vt 0.295455 0.433017
vt 0.272728 0.472382
vt 0.261364 0.452699
vt 0.284092 0.452699
vt 0.256314 0.376885
vt 0.262903 0.361736
vt 0.272728 0.367408
vt 0.272728 0.378753
vt 0.272728 0.348454
vt 0.282553 0.361736
vt 0.289142 0.376885
vt 0.285709 0.337406
vt 0.295455 0.354286
vt 0.305162 0.371235
vt 0.301768 0.331688
vt 0.318183 0.329820
vt 0.318183 0.341164
vt 0.308358 0.346837
vt 0.334754 0.331414
vt 0.328007 0.346837
vt 0.318025 0.360392
vt 0.298691 0.314921
vt 0.318182 0.314921
vt 0.352273 0.334604
vt 0.337714 0.314853
vt 0.340910 0.354286
vt 0.329546 0.373969
vt 0.409092 0.269724
vt 0.418916 0.283005
vt 0.409092 0.288678
vt 0.399267 0.283005
vt 0.425506 0.298155
vt 0.409092 0.300023
vt 0.392677 0.298154
vt 0.422073 0.258676
vt 0.396110 0.258676
vt 0.431819 0.275556
vt 0.386364 0.275556
vt 0.441565 0.292437
vt 0.376618 0.292437
vt 0.438132 0.252958
vt 0.454546 0.251090
vt 0.454546 0.262434
vt 0.444721 0.268107
vt 0.470960 0.252958
vt 0.464371 0.268107
vt 0.454546 0.281388
vt 0.487019 0.258676
vt 0.477273 0.275556
vt 0.467527 0.292437
vt 0.500001 0.269724
vt 0.509825 0.283005
vt 0.500001 0.288678
vt 0.490176 0.283005
vt 0.516415 0.298154
vt 0.500001 0.300023
vt 0.483586 0.298155
vt 0.512982 0.258676
vt 0.522728 0.275556
vt 0.532474 0.292436
vt 0.590910 0.269724
vt 0.600734 0.283005
vt 0.590910 0.288678
vt 0.581085 0.283005
vt 0.607324 0.298155
vt 0.590909 0.300023
vt 0.574495 0.298154
vt 0.603891 0.258676
vt 0.577928 0.258676
vt 0.613637 0.275556
vt 0.568182 0.275556
vt 0.623383 0.292437
vt 0.558436 0.292437
vt 0.619950 0.252958
vt 0.636364 0.251090
vt 0.636364 0.262434
vt 0.626539 0.268107
vt 0.652778 0.252958
vt 0.646189 0.268107
vt 0.636364 0.281388
vt 0.668837 0.258676
vt 0.659091 0.275556
vt 0.649345 0.292437
vt 0.681819 0.269724
vt 0.691643 0.283005
vt 0.681819 0.288678
vt 0.671994 0.283005
vt 0.698233 0.298154
vt 0.681819 0.300023
vt 0.665404 0.298155
vt 0.694800 0.258676
vt 0.704546 0.275556
vt 0.714292 0.292436
vt 0.772728 0.269724
vt 0.782552 0.283005
vt 0.772727 0.288678
vt 0.762903 0.283005
vt 0.789142 0.298155
vt 0.772728 0.300023
vt 0.756313 0.298154
vt 0.785709 0.258676
vt 0.759746 0.258676
vt 0.795455 0.275556
vt 0.750000 0.275556
vt 0.805201 0.292437
vt 0.740254 0.292437
vt 0.801768 0.252958
vt 0.818182 0.251090
vt 0.818182 0.262434
vt 0.808357 0.268107
vt 0.834596 0.252958
vt 0.828007 0.268107
vt 0.818182 0.281388
vt 0.850655 0.258676
vt 0.840909 0.275556
vt 0.831163 0.292437
vt 0.863637 0.269724
vt 0.873461 0.283005
vt 0.863636 0.288678
vt 0.853812 0.283005
vt 0.880051 0.298154
vt 0.863636 0.300023
vt 0.847223 0.298155
vt 0.876618 0.258676
vt 0.886364 0.275556
vt 0.896070 0.292505
vt 0.045613 0.269451
vt 0.055280 0.283005
vt 0.045455 0.288678
vt 0.035630 0.283005
vt 0.061869 0.298155
vt 0.045455 0.300023
vt 0.028883 0.298428
vt 0.058476 0.258607
vt 0.034091 0.255874
vt 0.068182 0.275556
vt 0.022728 0.275556
vt 0.077928 0.292437
vt 0.011364 0.295239
vt 0.074496 0.252958
vt 0.090910 0.251090
vt 0.090910 0.262434
vt 0.081085 0.268107
vt 0.107324 0.252958
vt 0.100735 0.268107
vt 0.090910 0.281388
vt 0.123383 0.258676
vt 0.113637 0.275556
vt 0.103891 0.292437
vt 0.136364 0.269724
vt 0.146189 0.283005
vt 0.136364 0.288678
vt 0.126539 0.283005
vt 0.152779 0.298154
vt 0.136364 0.300023
vt 0.119950 0.298155
vt 0.149346 0.258676
vt 0.159092 0.275556
vt 0.168838 0.292436
vt 0.227274 0.269724
vt 0.237098 0.283005
vt 0.227274 0.288678
vt 0.217449 0.283005
vt 0.243688 0.298155
vt 0.227274 0.300023
vt 0.210859 0.298154
vt 0.240255 0.258676
vt 0.214292 0.258676
vt 0.250001 0.275556
vt 0.204546 0.275556
vt 0.259747 0.292437
vt 0.194800 0.292437
vt 0.256314 0.252958
vt 0.272728 0.251090
vt 0.272728 0.262434
vt 0.262903 0.268107
vt 0.289142 0.252958
vt 0.282553 0.268107
vt 0.272728 0.281388
vt 0.305201 0.258676
vt 0.295455 0.275556
vt 0.285709 0.292437
vt 0.318183 0.269724
vt 0.328007 0.283005
vt 0.318183 0.288678
vt 0.308358 0.283005
vt 0.334597 0.298154
vt 0.318182 0.300023
vt 0.301768 0.298155
vt 0.331164 0.258676
vt 0.340910 0.275556
vt 0.350656 0.292436
vt 0.529041 0.252958
vt 0.545455 0.251090
vt 0.545455 0.262434
vt 0.535630 0.268107
vt 0.561869 0.252958
vt 0.555280 0.268107
vt 0.545455 0.281388
vt 0.525963 0.236191
vt 0.545455 0.236191
vt 0.564947 0.236191
vt 0.529041 0.219424
vt 0.535630 0.204275
vt 0.545455 0.209948
vt 0.545455 0.221292
vt 0.545455 0.190994
vt 0.555280 0.204275
vt 0.561869 0.219424
vt 0.558436 0.179946
vt 0.568182 0.196826
vt 0.577928 0.213706
vt 0.574495 0.174228
vt 0.590909 0.172360
vt 0.590910 0.183704
vt 0.581085 0.189377
vt 0.607324 0.174228
vt 0.600734 0.189377
vt 0.590910 0.202658
vt 0.571418 0.157461
vt 0.590910 0.157461
vt 0.610441 0.157529
vt 0.710859 0.252958
vt 0.727273 0.251090
vt 0.727273 0.262434
vt 0.717448 0.268107
vt 0.743687 0.252958
vt 0.737098 0.268107
vt 0.727273 0.281388
vt 0.707781 0.236191
vt 0.727273 0.236191
vt 0.746765 0.236191
vt 0.710859 0.219424
vt 0.717448 0.204275
vt 0.727273 0.209948
vt 0.727273 0.221292
vt 0.727273 0.190994
vt 0.737098 0.204275
vt 0.743687 0.219424
vt 0.740254 0.179946
vt 0.750000 0.196826
vt 0.759746 0.213706
vt 0.756314 0.174228
vt 0.772728 0.172360
vt 0.772727 0.183704
vt 0.762903 0.189377
vt 0.789142 0.174228
vt 0.782552 0.189377
vt 0.772728 0.202658
vt 0.753236 0.157461
vt 0.772728 0.157461
vt 0.792259 0.157529
vt 0.892677 0.252958
vt 0.909091 0.251090
vt 0.909091 0.262434
vt 0.899266 0.268107
vt 0.925663 0.252684
vt 0.918916 0.268107
vt 0.908933 0.281661
vt 0.889599 0.236191
vt 0.909091 0.236191
vt 0.954545 0.236191
vt 0.943182 0.255874
vt 0.928622 0.236123
vt 0.931818 0.275556
vt 0.920455 0.295239
vt 0.892677 0.219424
vt 0.899266 0.204275
vt 0.909091 0.209948
vt 0.909091 0.221292
vt 0.909091 0.190994
vt 0.918916 0.204275
vt 0.925505 0.219424
vt 0.922072 0.179946
vt 0.931818 0.196826
vt 0.941525 0.213775
vt 0.938131 0.174228
vt 0.954546 0.172360
vt 0.954545 0.183704
vt 0.944721 0.189377
vt 0.971118 0.173954
vt 0.964370 0.189377
vt 0.954388 0.202931
vt 0.935054 0.157461
vt 0.954546 0.157461
vt 1.000000 0.157461
vt 0.988636 0.177144
vt 0.974116 0.157461
vt 0.977273 0.196826
vt 0.965909 0.216509
vt 0.165405 0.252958
vt 0.181819 0.251090
vt 0.181819 0.262434
vt 0.171994 0.268107
vt 0.198233 0.252958
vt 0.191644 0.268107
vt 0.181819 0.281388
vt 0.162327 0.236191
vt 0.181819 0.236191
vt 0.201311 0.236191
vt 0.165405 0.219424
vt 0.171994 0.204275
vt 0.181819 0.209948
vt 0.181819 0.221292
vt 0.181819 0.190994
vt 0.191644 0.204275
vt 0.198233 0.219424
vt 0.194800 0.179946
vt 0.204546 0.196826
vt 0.214292 0.213706
vt 0.210859 0.174228
vt 0.227274 0.172360
vt 0.227274 0.183704
vt 0.217449 0.189377
vt 0.243688 0.174228
vt 0.237098 0.189377
vt 0.227274 0.202658
vt 0.207782 0.157461
vt 0.227274 0.157461
vt 0.246805 0.157529
vt 0.347223 0.252958
vt 0.363637 0.251090
vt 0.363637 0.262434
vt 0.353812 0.268107
vt 0.380051 0.252958
vt 0.373462 0.268107
vt 0.363637 0.281388
vt 0.344145 0.236191
vt 0.363637 0.236191
vt 0.383129 0.236191
vt 0.347223 0.219424
vt 0.353812 0.204275
vt 0.363637 0.209948
vt 0.363637 0.221292
vt 0.363637 0.190994
vt 0.373462 0.204275
vt 0.380051 0.219424
vt 0.376618 0.179946
vt 0.386364 0.196826
vt 0.396110 0.213706
vt 0.392677 0.174228
vt 0.409092 0.172360
vt 0.409092 0.183704
vt 0.399267 0.189377
vt 0.425506 0.174228
vt 0.418916 0.189377
vt 0.409092 0.202658
vt 0.389600 0.157461
vt 0.409092 0.157461
vt 0.428623 0.157529
vt 0.500158 0.111991
vt 0.509825 0.125545
vt 0.500001 0.131218
vt 0.490176 0.125545
vt 0.516415 0.140694
vt 0.500001 0.142562
vt 0.483429 0.140968
vt 0.513021 0.101147
vt 0.488637 0.098413
vt 0.522728 0.118096
vt 0.477273 0.118096
vt 0.532474 0.134976
vt 0.465910 0.137778
vt 0.529041 0.095497
vt 0.545455 0.093629
vt 0.545455 0.104974
vt 0.535630 0.110646
vt 0.561869 0.095497
vt 0.555280 0.110646
vt 0.545455 0.123928
vt 0.577889 0.101147
vt 0.568182 0.118096
vt 0.558436 0.134976
vt 0.590752 0.111990
vt 0.600734 0.125545
vt 0.590910 0.131217
vt 0.581085 0.125545
vt 0.607481 0.140968
vt 0.590909 0.142562
vt 0.574495 0.140694
vt 0.602273 0.098413
vt 0.613637 0.118096
vt 0.625000 0.137778
vt 0.681976 0.111991
vt 0.691643 0.125545
vt 0.681818 0.131218
vt 0.671994 0.125545
vt 0.698233 0.140694
vt 0.681819 0.142562
vt 0.665247 0.140968
vt 0.694839 0.101147
vt 0.670455 0.098413
vt 0.704546 0.118096
vt 0.659091 0.118096
vt 0.714292 0.134976
vt 0.647728 0.137778
vt 0.710859 0.095497
vt 0.727273 0.093629
vt 0.727273 0.104974
vt 0.717448 0.110646
vt 0.743687 0.095497
vt 0.737098 0.110646
vt 0.727273 0.123928
vt 0.759707 0.101147
vt 0.750000 0.118096
vt 0.740254 0.134976
vt 0.772570 0.111990
vt 0.782552 0.125545
vt 0.772727 0.131217
vt 0.762903 0.125545
vt 0.789300 0.140968
vt 0.772728 0.142562
vt 0.756314 0.140694
vt 0.784091 0.098413
vt 0.795455 0.118096
vt 0.806818 0.137778
vt 0.863794 0.111991
vt 0.873461 0.125545
vt 0.863636 0.131218
vt 0.853812 0.125545
vt 0.880051 0.140694
vt 0.863637 0.142562
vt 0.847065 0.140968
vt 0.876657 0.101147
vt 0.852273 0.098413
vt 0.886364 0.118096
vt 0.840909 0.118096
vt 0.896110 0.134976
vt 0.829546 0.137778
vt 0.892677 0.095497
vt 0.909091 0.093629
vt 0.909091 0.104974
vt 0.899266 0.110646
vt 0.925505 0.095497
vt 0.918916 0.110646
vt 0.909091 0.123928
vt 0.941525 0.101147
vt 0.931818 0.118096
vt 0.922073 0.134976
vt 0.954388 0.111990
vt 0.964370 0.125545
vt 0.954545 0.131217
vt 0.944721 0.125545
vt 0.971118 0.140968
vt 0.954546 0.142562
vt 0.938132 0.140694
vt 0.965909 0.098413
vt 0.977273 0.118096
vt 0.988636 0.137778
vt 0.392677 0.140694
vt 0.399267 0.125545
vt 0.409092 0.131218
vt 0.409092 0.142562
vt 0.408934 0.111990
vt 0.418916 0.125545
vt 0.425664 0.140968
vt 0.376618 0.134976
vt 0.386364 0.118096
vt 0.409092 0.078731
vt 0.420455 0.098413
vt 0.396071 0.101147
vt 0.431819 0.118096
vt 0.443182 0.137778
vt 0.363637 0.123928
vt 0.353812 0.110646
vt 0.363637 0.104974
vt 0.373462 0.110646
vt 0.347223 0.095497
vt 0.363637 0.093629
vt 0.380051 0.095497
vt 0.344106 0.078799
vt 0.363637 0.078731
vt 0.383168 0.078799
vt 0.347065 0.062237
vt 0.353812 0.046815
vt 0.363637 0.052487
vt 0.363637 0.063832
vt 0.363637 0.032987
vt 0.373462 0.046815
vt 0.380209 0.062237
vt 0.329546 0.059048
vt 0.340910 0.039365
vt 0.363637 0.000000
vt 0.375001 0.019683
vt 0.352273 0.019683
vt 0.386364 0.039365
vt 0.397728 0.059048
vt 0.136522 0.111991
vt 0.146189 0.125545
vt 0.136365 0.131218
vt 0.126540 0.125545
vt 0.152779 0.140694
vt 0.136365 0.142562
vt 0.119793 0.140968
vt 0.149385 0.101147
vt 0.125001 0.098413
vt 0.159092 0.118096
vt 0.113637 0.118096
vt 0.168838 0.134976
vt 0.102274 0.137778
vt 0.165405 0.095497
vt 0.181819 0.093629
vt 0.181819 0.104974
vt 0.171994 0.110646
vt 0.198233 0.095497
vt 0.191644 0.110646
vt 0.181819 0.123928
vt 0.214253 0.101147
vt 0.204546 0.118096
vt 0.194800 0.134976
vt 0.227116 0.111990
vt 0.237098 0.125545
vt 0.227274 0.131217
vt 0.217449 0.125545
vt 0.243845 0.140968
vt 0.227274 0.142562
vt 0.210859 0.140694
vt 0.238637 0.098413
vt 0.250001 0.118096
vt 0.261364 0.137778
s 0
f 404/1 405/2 403/3 409/4
f 406/5 407/6 403/3 405/2
f 408/7 409/4 403/3 407/6
f 1/8 136/9 404/1 45/10
f 136/9 137/11 405/2 404/1
f 45/10 404/1 409/4 44/12
f 14/13 399/14 406/5 138/15
f 399/14 398/16 407/6 406/5
f 138/15 406/5 405/2 137/11
f 13/17 43/18 408/7 397/19
f 43/18 44/12 409/4 408/7
f 397/19 408/7 407/6 398/16
f 411/20 412/21 410/22 416/23
f 413/24 414/25 410/22 412/21
f 415/26 416/23 410/22 414/25
f 2/27 48/28 411/20 54/29
f 48/28 47/30 412/21 411/20
f 54/29 411/20 416/23 53/31
f 14/32 390/33 413/24 46/34
f 390/33 389/35 414/25 413/24
f 46/34 413/24 412/21 47/30
f 16/36 52/37 415/26 388/38
f 52/37 53/31 416/23 415/26
f 388/38 415/26 414/25 389/35
f 418/39 419/40 417/41 423/42
f 420/43 421/44 417/41 419/40
f 422/45 423/42 417/41 421/44
f 1/46 45/47 418/39 60/48
f 45/47 44/49 419/40 418/39
f 60/48 418/39 423/42 59/50
f 13/51 381/52 420/43 43/53
f 381/52 380/54 421/44 420/43
f 43/53 420/43 419/40 44/49
f 18/55 58/56 422/45 379/57
f 58/56 59/50 423/42 422/45
f 379/57 422/45 421/44 380/54
f 425/58 426/59 424/60 430/61
f 427/62 428/63 424/60 426/59
f 429/64 430/61 424/60 428/63
f 1/65 60/66 425/58 66/67
f 60/66 59/68 426/59 425/58
f 66/67 425/58 430/61 65/69
f 18/70 372/71 427/62 58/72
f 372/71 371/73 428/63 427/62
f 58/72 427/62 426/59 59/68
f 20/74 64/75 429/64 370/76
f 64/75 65/69 430/61 429/64
f 370/76 429/64 428/63 371/73
f 432/77 433/78 431/79 437/80
f 434/81 435/82 431/79 433/78
f 436/83 437/80 431/79 435/82
f 1/84 66/85 432/77 145/86
f 66/85 65/87 433/78 432/77
f 145/86 432/77 437/80 146/88
f 20/89 363/90 434/81 64/91
f 363/90 362/92 435/82 434/81
f 64/91 434/81 433/78 65/87
f 17/93 147/94 436/83 361/95
f 147/94 146/88 437/80 436/83
f 361/95 436/83 435/82 362/92
f 439/96 440/97 438/98 444/99
f 441/100 442/101 438/98 440/97
f 443/102 444/99 438/98 442/101
f 2/27 54/29 439/96 75/103
f 54/29 53/31 440/97 439/96
f 75/103 439/96 444/99 74/104
f 16/36 354/105 441/100 52/37
f 354/105 353/106 442/101 441/100
f 52/37 441/100 440/97 53/31
f 23/107 73/108 443/102 352/109
f 73/108 74/104 444/99 443/102
f 352/109 443/102 442/101 353/106
f 446/110 447/111 445/112 451/113
f 448/114 449/115 445/112 447/111
f 450/116 451/113 445/112 449/115
f 3/117 51/118 446/110 81/119
f 51/118 50/120 447/111 446/110
f 81/119 446/110 451/113 80/121
f 15/122 345/123 448/114 49/124
f 345/123 344/125 449/115 448/114
f 49/124 448/114 447/111 50/120
f 25/126 79/127 450/116 343/128
f 79/127 80/121 451/113 450/116
f 343/128 450/116 449/115 344/125
f 453/129 454/130 452/131 458/132
f 455/133 456/134 452/131 454/130
f 457/135 458/132 452/131 456/134
f 4/136 63/137 453/129 87/138
f 63/137 62/139 454/130 453/129
f 87/138 453/129 458/132 86/140
f 19/141 336/142 455/133 61/143
f 336/142 335/144 456/134 455/133
f 61/143 455/133 454/130 62/139
f 27/145 85/146 457/135 334/147
f 85/146 86/140 458/132 457/135
f 334/147 457/135 456/134 335/144
f 460/148 461/149 459/150 465/151
f 462/152 463/153 459/150 461/149
f 464/154 465/151 459/150 463/153
f 5/155 69/156 460/148 93/157
f 69/156 68/158 461/149 460/148
f 93/157 460/148 465/151 92/159
f 21/160 327/161 462/152 67/162
f 327/161 326/163 463/153 462/152
f 67/162 462/152 461/149 68/158
f 29/164 91/165 464/154 325/166
f 91/165 92/159 465/151 464/154
f 325/166 464/154 463/153 326/163
f 467/167 468/168 466/169 472/170
f 469/171 470/172 466/169 468/168
f 471/173 472/170 466/169 470/172
f 6/174 72/175 467/167 99/176
f 72/175 71/177 468/168 467/167
f 99/176 467/167 472/170 98/178
f 22/179 318/180 469/171 70/181
f 318/180 317/182 470/172 469/171
f 70/181 469/171 468/168 71/177
f 31/183 97/184 471/173 316/185
f 97/184 98/178 472/170 471/173
f 316/185 471/173 470/172 317/182
f 474/186 475/187 473/188 479/189
f 476/190 477/191 473/188 475/187
f 478/192 479/189 473/188 477/191
f 2/27 75/103 474/186 172/193
f 75/103 74/104 475/187 474/186
f 172/193 474/186 479/189 173/194
f 23/107 309/195 476/190 73/108
f 309/195 308/196 477/191 476/190
f 73/108 476/190 475/187 74/104
f 26/197 174/198 478/192 307/199
f 174/198 173/194 479/189 478/192
f 307/199 478/192 477/191 308/196
f 481/200 482/201 480/202 486/203
f 483/204 484/205 480/202 482/201
f 485/206 486/203 480/202 484/205
f 3/117 81/119 481/200 178/207
f 81/119 80/121 482/201 481/200
f 178/207 481/200 486/203 179/208
f 25/126 300/209 483/204 79/127
f 300/209 299/210 484/205 483/204
f 79/127 483/204 482/201 80/121
f 28/211 180/212 485/206 298/213
f 180/212 179/208 486/203 485/206
f 298/213 485/206 484/205 299/210
f 488/214 489/215 487/216 493/217
f 490/218 491/219 487/216 489/215
f 492/220 493/217 487/216 491/219
f 4/136 87/138 488/214 184/221
f 87/138 86/140 489/215 488/214
f 184/221 488/214 493/217 185/222
f 27/145 291/223 490/218 85/146
f 291/223 290/224 491/219 490/218
f 85/146 490/218 489/215 86/140
f 30/225 186/226 492/220 289/227
f 186/226 185/222 493/217 492/220
f 289/227 492/220 491/219 290/224
f 495/228 496/229 494/230 500/231
f 497/232 498/233 494/230 496/229
f 499/234 500/231 494/230 498/233
f 5/155 93/157 495/228 190/235
f 93/157 92/159 496/229 495/228
f 190/235 495/228 500/231 191/236
f 29/164 282/237 497/232 91/165
f 282/237 281/238 498/233 497/232
f 91/165 497/232 496/229 92/159
f 32/239 192/240 499/234 280/241
f 192/240 191/236 500/231 499/234
f 280/241 499/234 498/233 281/238
f 502/242 503/243 501/244 507/245
f 504/246 505/247 501/244 503/243
f 506/248 507/245 501/244 505/247
f 6/174 99/176 502/242 166/249
f 99/176 98/178 503/243 502/242
f 166/249 502/242 507/245 167/250
f 31/183 273/251 504/246 97/184
f 273/251 272/252 505/247 504/246
f 97/184 504/246 503/243 98/178
f 24/253 168/254 506/248 271/255
f 168/254 167/250 507/245 506/248
f 271/255 506/248 505/247 272/252
f 509/256 510/257 508/258 514/259
f 511/260 512/261 508/258 510/257
f 513/262 514/259 508/258 512/261
f 7/263 105/264 509/256 120/265
f 105/264 104/266 510/257 509/256
f 120/265 509/256 514/259 119/267
f 33/268 264/269 511/260 103/270
f 264/269 263/271 512/261 511/260
f 103/270 511/260 510/257 104/266
f 38/272 118/273 513/262 262/274
f 118/273 119/267 514/259 513/262
f 262/274 513/262 512/261 263/271
f 516/275 517/276 515/277 521/278
f 518/279 519/280 515/277 517/276
f 520/281 521/278 515/277 519/280
f 8/282 108/283 516/275 126/284
f 108/283 107/285 517/276 516/275
f 126/284 516/275 521/278 125/286
f 34/287 255/288 518/279 106/289
f 255/288 254/290 519/280 518/279
f 106/289 518/279 517/276 107/285
f 40/291 124/292 520/281 253/293
f 124/292 125/286 521/278 520/281
f 253/293 520/281 519/280 254/290
f 523/294 524/295 522/296 528/297
f 525/298 526/299 522/296 524/295
f 527/300 528/297 522/296 526/299
f 9/301 111/302 523/294 129/303
f 111/302 110/304 524/295 523/294
f 129/303 523/294 528/297 128/305
f 35/306 246/307 525/298 109/308
f 246/307 245/309 526/299 525/298
f 109/308 525/298 524/295 110/304
f 41/310 127/311 527/300 244/312
f 127/311 128/305 528/297 527/300
f 244/312 527/300 526/299 245/309
f 530/313 531/314 529/315 535/316
f 532/317 533/318 529/315 531/314
f 534/319 535/316 529/315 533/318
f 10/320 114/321 530/313 132/322
f 114/321 113/323 531/314 530/313
f 132/322 530/313 535/316 131/324
f 36/325 237/326 532/317 112/327
f 237/326 236/328 533/318 532/317
f 112/327 532/317 531/314 113/323
f 42/329 130/330 534/319 235/331
f 130/330 131/324 535/316 534/319
f 235/331 534/319 533/318 236/328
f 537/332 538/333 536/334 542/335
f 539/336 540/337 536/334 538/333
f 541/338 542/335 536/334 540/337
f 11/339 117/340 537/332 211/341
f 117/340 116/342 538/333 537/332
f 211/341 537/332 542/335 212/343
f 37/344 228/345 539/336 115/346
f 228/345 227/347 540/337 539/336
f 115/346 539/336 538/333 116/342
f 39/348 213/349 541/338 226/350
f 213/349 212/343 542/335 541/338
f 226/350 541/338 540/337 227/347
f 544/351 545/352 543/353 549/354
f 546/355 547/356 543/353 545/352
f 548/357 549/354 543/353 547/356
f 39/348 223/358 544/351 121/359
f 223/358 224/360 545/352 544/351
f 121/359 544/351 549/354 122/361
f 42/362 222/363 546/355 225/364
f 222/363 221/365 547/356 546/355
f 225/364 546/355 545/352 224/360
f 12/366 123/367 548/357 220/368
f 123/367 122/361 549/354 548/357
f 220/368 548/357 547/356 221/365
f 551/369 552/370 550/371 556/372
f 553/373 554/374 550/371 552/370
f 555/375 556/372 550/371 554/374
f 39/348 226/350 551/369 223/358
f 226/350 227/347 552/370 551/369
f 223/358 551/369 556/372 224/360
f 37/344 231/376 553/373 228/345
f 231/376 230/377 554/374 553/373
f 228/345 553/373 552/370 227/347
f 42/362 225/364 555/375 229/378
f 225/364 224/360 556/372 555/375
f 229/378 555/375 554/374 230/377
f 558/379 559/380 557/381 563/382
f 560/383 561/384 557/381 559/380
f 562/385 563/382 557/381 561/384
f 37/344 207/386 558/379 231/376
f 207/386 206/387 559/380 558/379
f 231/376 558/379 563/382 230/377
f 10/320 132/388 560/383 205/389
f 132/388 131/390 561/384 560/383
f 205/389 560/383 559/380 206/387
f 42/362 229/378 562/385 130/391
f 229/378 230/377 563/382 562/385
f 130/391 562/385 561/384 131/390
f 565/392 566/393 564/394 570/395
f 567/396 568/397 564/394 566/393
f 569/398 570/395 564/394 568/397
f 42/329 232/399 565/392 222/400
f 232/399 233/401 566/393 565/392
f 222/400 565/392 570/395 221/402
f 41/403 219/404 567/396 234/405
f 219/404 218/406 568/397 567/396
f 234/405 567/396 566/393 233/401
f 12/407 220/408 569/398 217/409
f 220/408 221/402 570/395 569/398
f 217/409 569/398 568/397 218/406
f 572/410 573/411 571/412 577/413
f 574/414 575/415 571/412 573/411
f 576/416 577/413 571/412 575/415
f 42/329 235/331 572/410 232/399
f 235/331 236/328 573/411 572/410
f 232/399 572/410 577/413 233/401
f 36/325 240/417 574/414 237/326
f 240/417 239/418 575/415 574/414
f 237/326 574/414 573/411 236/328
f 41/403 234/405 576/416 238/419
f 234/405 233/401 577/413 576/416
f 238/419 576/416 575/415 239/418
f 579/420 580/421 578/422 584/423
f 581/424 582/425 578/422 580/421
f 583/426 584/423 578/422 582/425
f 36/325 204/427 579/420 240/417
f 204/427 203/428 580/421 579/420
f 240/417 579/420 584/423 239/418
f 9/301 129/429 581/424 202/430
f 129/429 128/431 582/425 581/424
f 202/430 581/424 580/421 203/428
f 41/403 238/419 583/426 127/432
f 238/419 239/418 584/423 583/426
f 127/432 583/426 582/425 128/431
f 586/433 587/434 585/435 591/436
f 588/437 589/438 585/435 587/434
f 590/439 591/436 585/435 589/438
f 41/310 241/440 586/433 219/441
f 241/440 242/442 587/434 586/433
f 219/441 586/433 591/436 218/443
f 40/444 216/445 588/437 243/446
f 216/445 215/447 589/438 588/437
f 243/446 588/437 587/434 242/442
f 12/448 217/449 590/439 214/450
f 217/449 218/443 591/436 590/439
f 214/450 590/439 589/438 215/447
f 593/451 594/452 592/453 598/454
f 595/455 596/456 592/453 594/452
f 597/457 598/454 592/453 596/456
f 41/310 244/312 593/451 241/440
f 244/312 245/309 594/452 593/451
f 241/440 593/451 598/454 242/442
f 35/306 249/458 595/455 246/307
f 249/458 248/459 596/456 595/455
f 246/307 595/455 594/452 245/309
f 40/444 243/446 597/457 247/460
f 243/446 242/442 598/454 597/457
f 247/460 597/457 596/456 248/459
f 600/461 601/462 599/463 605/464
f 602/465 603/466 599/463 601/462
f 604/467 605/464 599/463 603/466
f 35/306 201/468 600/461 249/458
f 201/468 200/469 601/462 600/461
f 249/458 600/461 605/464 248/459
f 8/470 126/471 602/465 199/472
f 126/471 125/473 603/466 602/465
f 199/472 602/465 601/462 200/469
f 40/444 247/460 604/467 124/474
f 247/460 248/459 605/464 604/467
f 124/474 604/467 603/466 125/473
f 607/475 608/476 606/477 612/478
f 609/479 610/480 606/477 608/476
f 611/481 612/478 606/477 610/480
f 40/291 250/482 607/475 216/483
f 250/482 251/484 608/476 607/475
f 216/483 607/475 612/478 215/485
f 38/486 210/487 609/479 252/488
f 210/487 209/489 610/480 609/479
f 252/488 609/479 608/476 251/484
f 12/490 214/491 611/481 208/492
f 214/491 215/485 612/478 611/481
f 208/492 611/481 610/480 209/489
f 614/493 615/494 613/495 619/496
f 616/497 617/498 613/495 615/494
f 618/499 619/496 613/495 617/498
f 40/291 253/293 614/493 250/482
f 253/293 254/290 615/494 614/493
f 250/482 614/493 619/496 251/484
f 34/287 258/500 616/497 255/288
f 258/500 257/501 617/498 616/497
f 255/288 616/497 615/494 254/290
f 38/486 252/488 618/499 256/502
f 252/488 251/484 619/496 618/499
f 256/502 618/499 617/498 257/501
f 621/503 622/504 620/505 626/506
f 623/507 624/508 620/505 622/504
f 625/509 626/506 620/505 624/508
f 34/287 198/510 621/503 258/500
f 198/510 197/511 622/504 621/503
f 258/500 621/503 626/506 257/501
f 7/263 120/512 623/507 196/513
f 120/512 119/514 624/508 623/507
f 196/513 623/507 622/504 197/511
f 38/486 256/502 625/509 118/515
f 256/502 257/501 626/506 625/509
f 118/515 625/509 624/508 119/514
f 628/516 629/517 627/518 633/519
f 630/520 631/521 627/518 629/517
f 632/522 633/519 627/518 631/521
f 38/272 259/523 628/516 210/524
f 259/523 260/525 629/517 628/516
f 210/524 628/516 633/519 209/526
f 39/527 121/528 630/520 261/529
f 121/528 122/530 631/521 630/520
f 261/529 630/520 629/517 260/525
f 12/531 208/532 632/522 123/533
f 208/532 209/526 633/519 632/522
f 123/533 632/522 631/521 122/530
f 635/534 636/535 634/536 640/537
f 637/538 638/539 634/536 636/535
f 639/540 640/537 634/536 638/539
f 38/272 262/274 635/534 259/523
f 262/274 263/271 636/535 635/534
f 259/523 635/534 640/537 260/525
f 33/268 267/541 637/538 264/269
f 267/541 266/542 638/539 637/538
f 264/269 637/538 636/535 263/271
f 39/527 261/529 639/540 265/543
f 261/529 260/525 640/537 639/540
f 265/543 639/540 638/539 266/542
f 642/544 643/545 641/546 647/547
f 644/548 645/549 641/546 643/545
f 646/550 647/547 641/546 645/549
f 33/268 195/551 642/544 267/541
f 195/551 194/552 643/545 642/544
f 267/541 642/544 647/547 266/542
f 11/339 211/553 644/548 193/554
f 211/553 212/555 645/549 644/548
f 193/554 644/548 643/545 194/552
f 39/527 265/543 646/550 213/556
f 265/543 266/542 647/547 646/550
f 213/556 646/550 645/549 212/555
f 649/557 650/558 648/559 654/560
f 651/561 652/562 648/559 650/558
f 653/563 654/560 648/559 652/562
f 24/253 268/564 649/557 76/565
f 268/564 269/566 650/558 649/557
f 76/565 649/557 654/560 77/567
f 37/344 115/346 651/561 270/568
f 115/346 116/342 652/562 651/561
f 270/568 651/561 650/558 269/566
f 11/339 78/569 653/563 117/340
f 78/569 77/567 654/560 653/563
f 117/340 653/563 652/562 116/342
f 656/570 657/571 655/572 661/573
f 658/574 659/575 655/572 657/571
f 660/576 661/573 655/572 659/575
f 24/253 271/255 656/570 268/564
f 271/255 272/252 657/571 656/570
f 268/564 656/570 661/573 269/566
f 31/183 276/577 658/574 273/251
f 276/577 275/578 659/575 658/574
f 273/251 658/574 657/571 272/252
f 37/344 270/568 660/576 274/579
f 270/568 269/566 661/573 660/576
f 274/579 660/576 659/575 275/578
f 663/580 664/581 662/582 668/583
f 665/584 666/585 662/582 664/581
f 667/586 668/583 662/582 666/585
f 31/183 189/587 663/580 276/577
f 189/587 188/588 664/581 663/580
f 276/577 663/580 668/583 275/578
f 10/320 205/389 665/584 187/589
f 205/389 206/387 666/585 665/584
f 187/589 665/584 664/581 188/588
f 37/344 274/579 667/586 207/386
f 274/579 275/578 668/583 667/586
f 207/386 667/586 666/585 206/387
f 670/590 671/591 669/592 675/593
f 672/594 673/595 669/592 671/591
f 674/596 675/593 669/592 673/595
f 32/239 277/597 670/590 100/598
f 277/597 278/599 671/591 670/590
f 100/598 670/590 675/593 101/600
f 36/325 112/327 672/594 279/601
f 112/327 113/323 673/595 672/594
f 279/601 672/594 671/591 278/599
f 10/320 102/602 674/596 114/321
f 102/602 101/600 675/593 674/596
f 114/321 674/596 673/595 113/323
f 677/603 678/604 676/605 682/606
f 679/607 680/608 676/605 678/604
f 681/609 682/606 676/605 680/608
f 32/239 280/241 677/603 277/597
f 280/241 281/238 678/604 677/603
f 277/597 677/603 682/606 278/599
f 29/164 285/610 679/607 282/237
f 285/610 284/611 680/608 679/607
f 282/237 679/607 678/604 281/238
f 36/325 279/601 681/609 283/612
f 279/601 278/599 682/606 681/609
f 283/612 681/609 680/608 284/611
f 684/613 685/614 683/615 689/616
f 686/617 687/618 683/615 685/614
f 688/619 689/616 683/615 687/618
f 29/164 183/620 684/613 285/610
f 183/620 182/621 685/614 684/613
f 285/610 684/613 689/616 284/611
f 9/301 202/430 686/617 181/622
f 202/430 203/428 687/618 686/617
f 181/622 686/617 685/614 182/621
f 36/325 283/612 688/619 204/427
f 283/612 284/611 689/616 688/619
f 204/427 688/619 687/618 203/428
f 691/623 692/624 690/625 696/626
f 693/627 694/628 690/625 692/624
f 695/629 696/626 690/625 694/628
f 30/225 286/630 691/623 94/631
f 286/630 287/632 692/624 691/623
f 94/631 691/623 696/626 95/633
f 35/306 109/308 693/627 288/634
f 109/308 110/304 694/628 693/627
f 288/634 693/627 692/624 287/632
f 9/301 96/635 695/629 111/302
f 96/635 95/633 696/626 695/629
f 111/302 695/629 694/628 110/304
f 698/636 699/637 697/638 703/639
f 700/640 701/641 697/638 699/637
f 702/642 703/639 697/638 701/641
f 30/225 289/227 698/636 286/630
f 289/227 290/224 699/637 698/636
f 286/630 698/636 703/639 287/632
f 27/145 294/643 700/640 291/223
f 294/643 293/644 701/641 700/640
f 291/223 700/640 699/637 290/224
f 35/306 288/634 702/642 292/645
f 288/634 287/632 703/639 702/642
f 292/645 702/642 701/641 293/644
f 705/646 706/647 704/648 710/649
f 707/650 708/651 704/648 706/647
f 709/652 710/649 704/648 708/651
f 27/145 177/653 705/646 294/643
f 177/653 176/654 706/647 705/646
f 294/643 705/646 710/649 293/644
f 8/470 199/472 707/650 175/655
f 199/472 200/469 708/651 707/650
f 175/655 707/650 706/647 176/654
f 35/306 292/645 709/652 201/468
f 292/645 293/644 710/649 709/652
f 201/468 709/652 708/651 200/469
f 712/656 713/657 711/658 717/659
f 714/660 715/661 711/658 713/657
f 716/662 717/659 711/658 715/661
f 28/211 295/663 712/656 88/664
f 295/663 296/665 713/657 712/656
f 88/664 712/656 717/659 89/666
f 34/287 106/289 714/660 297/667
f 106/289 107/285 715/661 714/660
f 297/667 714/660 713/657 296/665
f 8/282 90/668 716/662 108/283
f 90/668 89/666 717/659 716/662
f 108/283 716/662 715/661 107/285
f 719/669 720/670 718/671 724/672
f 721/673 722/674 718/671 720/670
f 723/675 724/672 718/671 722/674
f 28/211 298/213 719/669 295/663
f 298/213 299/210 720/670 719/669
f 295/663 719/669 724/672 296/665
f 25/126 303/676 721/673 300/209
f 303/676 302/677 722/674 721/673
f 300/209 721/673 720/670 299/210
f 34/287 297/667 723/675 301/678
f 297/667 296/665 724/672 723/675
f 301/678 723/675 722/674 302/677
f 726/679 727/680 725/681 731/682
f 728/683 729/684 725/681 727/680
f 730/685 731/682 725/681 729/684
f 25/126 171/686 726/679 303/676
f 171/686 170/687 727/680 726/679
f 303/676 726/679 731/682 302/677
f 7/263 196/513 728/683 169/688
f 196/513 197/511 729/684 728/683
f 169/688 728/683 727/680 170/687
f 34/287 301/678 730/685 198/510
f 301/678 302/677 731/682 730/685
f 198/510 730/685 729/684 197/511
f 733/689 734/690 732/691 738/692
f 735/693 736/694 732/691 734/690
f 737/695 738/692 732/691 736/694
f 26/197 304/696 733/689 82/697
f 304/696 305/698 734/690 733/689
f 82/697 733/689 738/692 83/699
f 33/268 103/270 735/693 306/700
f 103/270 104/266 736/694 735/693
f 306/700 735/693 734/690 305/698
f 7/263 84/701 737/695 105/264
f 84/701 83/699 738/692 737/695
f 105/264 737/695 736/694 104/266
f 740/702 741/703 739/704 745/705
f 742/706 743/707 739/704 741/703
f 744/708 745/705 739/704 743/707
f 26/197 307/199 740/702 304/696
f 307/199 308/196 741/703 740/702
f 304/696 740/702 745/705 305/698
f 23/107 312/709 742/706 309/195
f 312/709 311/710 743/707 742/706
f 309/195 742/706 741/703 308/196
f 33/268 306/700 744/708 310/711
f 306/700 305/698 745/705 744/708
f 310/711 744/708 743/707 311/710
f 747/712 748/713 746/714 752/715
f 749/716 750/717 746/714 748/713
f 751/718 752/715 746/714 750/717
f 23/107 165/719 747/712 312/709
f 165/719 164/720 748/713 747/712
f 312/709 747/712 752/715 311/710
f 11/339 193/554 749/716 163/721
f 193/554 194/552 750/717 749/716
f 163/721 749/716 748/713 164/720
f 33/268 310/711 751/718 195/551
f 310/711 311/710 752/715 751/718
f 195/551 751/718 750/717 194/552
f 754/722 755/723 753/724 759/725
f 756/726 757/727 753/724 755/723
f 758/728 759/725 753/724 757/727
f 31/183 313/729 754/722 189/587
f 313/729 314/730 755/723 754/722
f 189/587 754/722 759/725 188/588
f 32/239 100/598 756/726 315/731
f 100/598 101/600 757/727 756/726
f 315/731 756/726 755/723 314/730
f 10/320 187/589 758/728 102/602
f 187/589 188/588 759/725 758/728
f 102/602 758/728 757/727 101/600
f 761/732 762/733 760/734 766/735
f 763/736 764/737 760/734 762/733
f 765/738 766/735 760/734 764/737
f 31/183 316/185 761/732 313/729
f 316/185 317/182 762/733 761/732
f 313/729 761/732 766/735 314/730
f 22/179 321/739 763/736 318/180
f 321/739 320/740 764/737 763/736
f 318/180 763/736 762/733 317/182
f 32/239 315/731 765/738 319/741
f 315/731 314/730 766/735 765/738
f 319/741 765/738 764/737 320/740
f 768/742 769/743 767/744 773/745
f 770/746 771/747 767/744 769/743
f 772/748 773/745 767/744 771/747
f 22/179 162/749 768/742 321/739
f 162/749 161/750 769/743 768/742
f 321/739 768/742 773/745 320/740
f 5/155 190/235 770/746 160/751
f 190/235 191/236 771/747 770/746
f 160/751 770/746 769/743 161/750
f 32/239 319/741 772/748 192/240
f 319/741 320/740 773/745 772/748
f 192/240 772/748 771/747 191/236
f 775/752 776/753 774/754 780/755
f 777/756 778/757 774/754 776/753
f 779/758 780/755 774/754 778/757
f 29/164 322/759 775/752 183/620
f 322/759 323/760 776/753 775/752
f 183/620 775/752 780/755 182/621
f 30/225 94/631 777/756 324/761
f 94/631 95/633 778/757 777/756
f 324/761 777/756 776/753 323/760
f 9/301 181/622 779/758 96/635
f 181/622 182/621 780/755 779/758
f 96/635 779/758 778/757 95/633
f 782/762 783/763 781/764 787/765
f 784/766 785/767 781/764 783/763
f 786/768 787/765 781/764 785/767
f 29/164 325/166 782/762 322/759
f 325/166 326/163 783/763 782/762
f 322/759 782/762 787/765 323/760
f 21/160 330/769 784/766 327/161
f 330/769 329/770 785/767 784/766
f 327/161 784/766 783/763 326/163
f 30/225 324/761 786/768 328/771
f 324/761 323/760 787/765 786/768
f 328/771 786/768 785/767 329/770
f 789/772 790/773 788/774 794/775
f 791/776 792/777 788/774 790/773
f 793/778 794/775 788/774 792/777
f 21/160 159/779 789/772 330/769
f 159/779 158/780 790/773 789/772
f 330/769 789/772 794/775 329/770
f 4/136 184/221 791/776 157/781
f 184/221 185/222 792/777 791/776
f 157/781 791/776 790/773 158/780
f 30/225 328/771 793/778 186/226
f 328/771 329/770 794/775 793/778
f 186/226 793/778 792/777 185/222
f 796/782 797/783 795/784 801/785
f 798/786 799/787 795/784 797/783
f 800/788 801/785 795/784 799/787
f 27/145 331/789 796/782 177/653
f 331/789 332/790 797/783 796/782
f 177/653 796/782 801/785 176/654
f 28/791 88/792 798/786 333/793
f 88/792 89/794 799/787 798/786
f 333/793 798/786 797/783 332/790
f 8/470 175/655 800/788 90/795
f 175/655 176/654 801/785 800/788
f 90/795 800/788 799/787 89/794
f 803/796 804/797 802/798 808/799
f 805/800 806/801 802/798 804/797
f 807/802 808/799 802/798 806/801
f 27/145 334/147 803/796 331/789
f 334/147 335/144 804/797 803/796
f 331/789 803/796 808/799 332/790
f 19/141 339/803 805/800 336/142
f 339/803 338/804 806/801 805/800
f 336/142 805/800 804/797 335/144
f 28/791 333/793 807/802 337/805
f 333/793 332/790 808/799 807/802
f 337/805 807/802 806/801 338/804
f 810/806 811/807 809/808 815/809
f 812/810 813/811 809/808 811/807
f 814/812 815/809 809/808 813/811
f 19/141 153/813 810/806 339/803
f 153/813 152/814 811/807 810/806
f 339/803 810/806 815/809 338/804
f 3/815 178/816 812/810 151/817
f 178/816 179/818 813/811 812/810
f 151/817 812/810 811/807 152/814
f 28/791 337/805 814/812 180/819
f 337/805 338/804 815/809 814/812
f 180/819 814/812 813/811 179/818
f 817/820 818/821 816/822 822/823
f 819/824 820/825 816/822 818/821
f 821/826 822/823 816/822 820/825
f 25/126 340/827 817/820 171/686
f 340/827 341/828 818/821 817/820
f 171/686 817/820 822/823 170/687
f 26/197 82/697 819/824 342/829
f 82/697 83/699 820/825 819/824
f 342/829 819/824 818/821 341/828
f 7/263 169/688 821/826 84/701
f 169/688 170/687 822/823 821/826
f 84/701 821/826 820/825 83/699
f 824/830 825/831 823/832 829/833
f 826/834 827/835 823/832 825/831
f 828/836 829/833 823/832 827/835
f 25/126 343/128 824/830 340/827
f 343/128 344/125 825/831 824/830
f 340/827 824/830 829/833 341/828
f 15/122 348/837 826/834 345/123
f 348/837 347/838 827/835 826/834
f 345/123 826/834 825/831 344/125
f 26/197 342/829 828/836 346/839
f 342/829 341/828 829/833 828/836
f 346/839 828/836 827/835 347/838
f 831/840 832/841 830/842 836/843
f 833/844 834/845 830/842 832/841
f 835/846 836/843 830/842 834/845
f 15/122 141/847 831/840 348/837
f 141/847 140/848 832/841 831/840
f 348/837 831/840 836/843 347/838
f 2/27 172/193 833/844 139/849
f 172/193 173/194 834/845 833/844
f 139/849 833/844 832/841 140/848
f 26/197 346/839 835/846 174/198
f 346/839 347/838 836/843 835/846
f 174/198 835/846 834/845 173/194
f 838/850 839/851 837/852 843/853
f 840/854 841/855 837/852 839/851
f 842/856 843/853 837/852 841/855
f 23/107 349/857 838/850 165/719
f 349/857 350/858 839/851 838/850
f 165/719 838/850 843/853 164/720
f 24/253 76/565 840/854 351/859
f 76/565 77/567 841/855 840/854
f 351/859 840/854 839/851 350/858
f 11/339 163/721 842/856 78/569
f 163/721 164/720 843/853 842/856
f 78/569 842/856 841/855 77/567
f 845/860 846/861 844/862 850/863
f 847/864 848/865 844/862 846/861
f 849/866 850/863 844/862 848/865
f 23/107 352/109 845/860 349/857
f 352/109 353/106 846/861 845/860
f 349/857 845/860 850/863 350/858
f 16/36 357/867 847/864 354/105
f 357/867 356/868 848/865 847/864
f 354/105 847/864 846/861 353/106
f 24/253 351/859 849/866 355/869
f 351/859 350/858 850/863 849/866
f 355/869 849/866 848/865 356/868
f 852/870 853/871 851/872 857/873
f 854/874 855/875 851/872 853/871
f 856/876 857/873 851/872 855/875
f 16/36 144/877 852/870 357/867
f 144/877 143/878 853/871 852/870
f 357/867 852/870 857/873 356/868
f 6/174 166/249 854/874 142/879
f 166/249 167/250 855/875 854/874
f 142/879 854/874 853/871 143/878
f 24/253 355/869 856/876 168/254
f 355/869 356/868 857/873 856/876
f 168/254 856/876 855/875 167/250
f 859/880 860/881 858/882 864/883
f 861/884 862/885 858/882 860/881
f 863/886 864/883 858/882 862/885
f 17/93 358/887 859/880 55/888
f 358/887 359/889 860/881 859/880
f 55/888 859/880 864/883 56/890
f 22/179 70/181 861/884 360/891
f 70/181 71/177 862/885 861/884
f 360/891 861/884 860/881 359/889
f 6/174 57/892 863/886 72/175
f 57/892 56/890 864/883 863/886
f 72/175 863/886 862/885 71/177
f 866/893 867/894 865/895 871/896
f 868/897 869/898 865/895 867/894
f 870/899 871/896 865/895 869/898
f 17/93 361/95 866/893 358/887
f 361/95 362/92 867/894 866/893
f 358/887 866/893 871/896 359/889
f 20/89 366/900 868/897 363/90
f 366/900 365/901 869/898 868/897
f 363/90 868/897 867/894 362/92
f 22/179 360/891 870/899 364/902
f 360/891 359/889 871/896 870/899
f 364/902 870/899 869/898 365/901
f 873/903 874/904 872/905 878/906
f 875/907 876/908 872/905 874/904
f 877/909 878/906 872/905 876/908
f 20/89 156/910 873/903 366/900
f 156/910 155/911 874/904 873/903
f 366/900 873/903 878/906 365/901
f 5/155 160/751 875/907 154/912
f 160/751 161/750 876/908 875/907
f 154/912 875/907 874/904 155/911
f 22/179 364/902 877/909 162/749
f 364/902 365/901 878/906 877/909
f 162/749 877/909 876/908 161/750
f 880/913 881/914 879/915 885/916
f 882/917 883/918 879/915 881/914
f 884/919 885/916 879/915 883/918
f 20/74 367/920 880/913 156/921
f 367/920 368/922 881/914 880/913
f 156/921 880/913 885/916 155/923
f 21/160 67/162 882/917 369/924
f 67/162 68/158 883/918 882/917
f 369/924 882/917 881/914 368/922
f 5/155 154/925 884/919 69/156
f 154/925 155/923 885/916 884/919
f 69/156 884/919 883/918 68/158
f 887/926 888/927 886/928 892/929
f 889/930 890/931 886/928 888/927
f 891/932 892/929 886/928 890/931
f 20/74 370/76 887/926 367/920
f 370/76 371/73 888/927 887/926
f 367/920 887/926 892/929 368/922
f 18/70 375/933 889/930 372/71
f 375/933 374/934 890/931 889/930
f 372/71 889/930 888/927 371/73
f 21/160 369/924 891/932 373/935
f 369/924 368/922 892/929 891/932
f 373/935 891/932 890/931 374/934
f 894/936 895/937 893/938 899/939
f 896/940 897/941 893/938 895/937
f 898/942 899/939 893/938 897/941
f 18/70 150/943 894/936 375/933
f 150/943 149/944 895/937 894/936
f 375/933 894/936 899/939 374/934
f 4/136 157/781 896/940 148/945
f 157/781 158/780 897/941 896/940
f 148/945 896/940 895/937 149/944
f 21/160 373/935 898/942 159/779
f 373/935 374/934 899/939 898/942
f 159/779 898/942 897/941 158/780
f 901/946 902/947 900/948 906/949
f 903/950 904/951 900/948 902/947
f 905/952 906/949 900/948 904/951
f 18/55 376/953 901/946 150/954
f 376/953 377/955 902/947 901/946
f 150/954 901/946 906/949 149/956
f 19/141 61/143 903/950 378/957
f 61/143 62/139 904/951 903/950
f 378/957 903/950 902/947 377/955
f 4/136 148/958 905/952 63/137
f 148/958 149/956 906/949 905/952
f 63/137 905/952 904/951 62/139
f 908/959 909/960 907/961 913/962
f 910/963 911/964 907/961 909/960
f 912/965 913/962 907/961 911/964
f 18/55 379/57 908/959 376/953
f 379/57 380/54 909/960 908/959
f 376/953 908/959 913/962 377/955
f 13/51 384/966 910/963 381/52
f 384/966 383/967 911/964 910/963
f 381/52 910/963 909/960 380/54
f 19/141 378/957 912/965 382/968
f 378/957 377/955 913/962 912/965
f 382/968 912/965 911/964 383/967
f 915/969 916/970 914/971 920/972
f 917/973 918/974 914/971 916/970
f 919/975 920/972 914/971 918/974
f 13/51 135/976 915/969 384/966
f 135/976 134/977 916/970 915/969
f 384/966 915/969 920/972 383/967
f 3/815 151/817 917/973 133/978
f 151/817 152/814 918/974 917/973
f 133/978 917/973 916/970 134/977
f 19/141 382/968 919/975 153/813
f 382/968 383/967 920/972 919/975
f 153/813 919/975 918/974 152/814
f 922/979 923/980 921/981 927/982
f 924/983 925/984 921/981 923/980
f 926/985 927/982 921/981 925/984
f 16/36 385/986 922/979 144/877
f 385/986 386/987 923/980 922/979
f 144/877 922/979 927/982 143/878
f 17/988 55/989 924/983 387/990
f 55/989 56/991 925/984 924/983
f 387/990 924/983 923/980 386/987
f 6/174 142/879 926/985 57/992
f 142/879 143/878 927/982 926/985
f 57/992 926/985 925/984 56/991
f 929/993 930/994 928/995 934/996
f 931/997 932/998 928/995 930/994
f 933/999 934/996 928/995 932/998
f 16/36 388/38 929/993 385/986
f 388/38 389/35 930/994 929/993
f 385/986 929/993 934/996 386/987
f 14/32 393/1000 931/997 390/33
f 393/1000 392/1001 932/998 931/997
f 390/33 931/997 930/994 389/35
f 17/988 387/990 933/999 391/1002
f 387/990 386/987 934/996 933/999
f 391/1002 933/999 932/998 392/1001
f 936/1003 937/1004 935/1005 941/1006
f 938/1007 939/1008 935/1005 937/1004
f 940/1009 941/1006 935/1005 939/1008
f 14/32 138/1010 936/1003 393/1000
f 138/1010 137/1011 937/1004 936/1003
f 393/1000 936/1003 941/1006 392/1001
f 1/1012 145/1013 938/1007 136/1014
f 145/1013 146/1015 939/1008 938/1007
f 136/1014 938/1007 937/1004 137/1011
f 17/988 391/1002 940/1009 147/1016
f 391/1002 392/1001 941/1006 940/1009
f 147/1016 940/1009 939/1008 146/1015
f 943/1017 944/1018 942/1019 948/1020
f 945/1021 946/1022 942/1019 944/1018
f 947/1023 948/1020 942/1019 946/1022
f 13/17 394/1024 943/1017 135/1025
f 394/1024 395/1026 944/1018 943/1017
f 135/1025 943/1017 948/1020 134/1027
f 15/122 49/124 945/1021 396/1028
f 49/124 50/120 946/1022 945/1021
f 396/1028 945/1021 944/1018 395/1026
f 3/117 133/1029 947/1023 51/118
f 133/1029 134/1027 948/1020 947/1023
f 51/118 947/1023 946/1022 50/120
f 950/1030 951/1031 949/1032 955/1033
f 952/1034 953/1035 949/1032 951/1031
f 954/1036 955/1033 949/1032 953/1035
f 13/17 397/19 950/1030 394/1024
f 397/19 398/16 951/1031 950/1030
f 394/1024 950/1030 955/1033 395/1026
f 14/13 402/1037 952/1034 399/14
f 402/1037 401/1038 953/1035 952/1034
f 399/14 952/1034 951/1031 398/16
f 15/122 396/1028 954/1036 400/1039
f 396/1028 395/1026 955/1033 954/1036
f 400/1039 954/1036 953/1035 401/1038
f 957/1040 958/1041 956/1042 962/1043
f 959/1044 960/1045 956/1042 958/1041
f 961/1046 962/1043 956/1042 960/1045
f 14/13 46/1047 957/1040 402/1037
f 46/1047 47/1048 958/1041 957/1040
f 402/1037 957/1040 962/1043 401/1038
f 2/27 139/849 959/1044 48/1049
f 139/849 140/848 960/1045 959/1044
f 48/1049 959/1044 958/1041 47/1048
f 15/122 400/1039 961/1046 141/847
f 400/1039 401/1038 962/1043 961/1046
f 141/847 961/1046 960/1045 140/848
