# Blender 4.5.0
# www.blender.org
o lantern_lure_pearl
v 0.000000 0.302586 1.350341
v -0.061237 0.286736 1.291190
v -0.050000 0.272541 1.346758
v 0.000000 0.347989 1.274778
v -0.050000 0.246660 1.250165
v 0.000000 0.270887 1.232040
v 0.050000 0.272541 1.346758
v 0.061237 0.286736 1.291190
v 0.050000 0.246660 1.250165
v 0.061237 0.228208 1.370270
v 0.086603 0.212359 1.311120
v 0.000000 0.234773 1.394771
v 0.000000 0.302586 1.350341
v 0.061237 0.196510 1.251969
v 0.000000 0.270887 1.232040
v -0.061237 0.228208 1.370270
v -0.050000 0.272541 1.346758
v 0.000000 0.189945 1.227468
v -0.050000 0.246660 1.250165
v -0.061237 0.196510 1.251969
v 0.000000 0.137359 1.267819
v -0.050000 0.151122 1.275764
v 0.050000 0.151122 1.275764
v 0.061237 0.153208 1.326969
v -0.086603 0.212359 1.311120
v -0.061237 0.286736 1.291190
v -0.061237 0.196510 1.251969
v -0.050000 0.246660 1.250165
v -0.050000 0.151122 1.275764
v -0.061237 0.153208 1.326969
v -0.050000 0.177004 1.372357
v 0.000000 0.169058 1.386120
v 0.050000 0.177004 1.372357
v 0.000000 0.169058 1.386120
v 0.000000 0.128707 1.333534
v -0.050000 0.177004 1.372357
v -0.061237 0.153208 1.326969
v 0.000000 0.137359 1.267819
v -0.050000 0.151122 1.275764
vn 0.6472 -0.5566 -0.5209
vn 0.8176 -0.5562 0.1490
vn -0.0000 -0.7678 -0.6407
vn -0.0000 -0.9659 0.2588
vn 0.6472 -0.2216 0.7294
vn -0.0000 -0.3447 0.9387
vn -0.6472 -0.5566 -0.5209
vn -0.8176 -0.5562 0.1490
vn -0.6472 -0.2216 0.7294
vn -0.7069 -0.1631 -0.6882
vn -0.9999 0.0161 -0.0043
vn -0.0000 -0.2427 -0.9701
vn -0.7070 0.2028 0.6776
vn -0.0000 -0.3446 0.9388
vn 0.7069 -0.1631 -0.6882
vn -0.0000 0.2748 0.9615
vn 0.7069 0.2028 0.6776
vn -0.0000 0.8660 0.5000
vn 0.5773 0.7072 0.4082
vn -0.5773 0.7071 0.4082
vn -0.7071 0.6830 -0.1830
vn 0.9999 0.0161 -0.0043
vn 0.8176 -0.5561 0.1490
vn 0.7070 0.2028 0.6775
vn 0.5773 0.7071 0.4082
vn 0.7071 0.6830 -0.1830
vn 0.5774 0.4082 -0.7071
vn -0.0000 0.5000 -0.8660
vn -0.5773 0.4082 -0.7071
vn -0.0000 0.9659 -0.2588
vn 0.5773 0.4082 -0.7071
vt 0.875000 0.500000
vt 0.875000 0.625000
vt 0.750000 0.500000
vt 0.750000 0.625000
vt 0.875000 0.750000
vt 0.750000 0.750000
vt 0.625000 0.500000
vt 0.625000 0.625000
vt 0.625000 0.750000
vt 0.500000 0.500000
vt 0.500000 0.625000
vt 0.500000 0.375000
vt 0.625000 0.375000
vt 0.500000 0.750000
vt 0.625000 0.875000
vt 0.500000 0.250000
vt 0.625000 0.250000
vt 0.500000 0.875000
vt 0.625000 1.000000
vt 0.500000 1.000000
vt 0.375000 0.875000
vt 0.375000 1.000000
vt 0.375000 0.750000
vt 0.375000 0.625000
vt 0.500000 0.125000
vt 0.625000 0.125000
vt 0.500000 0.000000
vt 0.625000 0.000000
vt 0.375000 0.000000
vt 0.375000 0.125000
vt 0.375000 0.250000
vt 0.375000 0.375000
vt 0.375000 0.500000
vt 0.250000 0.500000
vt 0.250000 0.625000
vt 0.125000 0.500000
vt 0.125000 0.625000
vt 0.250000 0.750000
vt 0.125000 0.750000
s 1
f 3/1/1 2/2/2 1/3/3
f 2/2/2 4/4/4 1/3/3
f 2/2/2 5/5/5 4/4/4
f 5/5/5 6/6/6 4/4/4
f 1/3/3 4/4/4 7/7/7
f 4/4/4 6/6/6 8/8/8
f 4/4/4 8/8/8 7/7/7
f 6/6/6 9/9/9 8/8/8
f 7/7/7 8/8/8 10/10/10
f 8/8/8 9/9/9 11/11/11
f 8/8/8 11/11/11 10/10/10
f 7/7/7 10/10/10 12/12/12
f 13/13/3 7/7/7 12/12/12
f 9/9/9 14/14/13 11/11/11
f 9/9/9 15/15/14 14/14/13
f 13/13/3 12/12/12 16/16/15
f 17/17/1 13/13/3 16/16/15
f 15/15/14 18/18/16 14/14/13
f 15/15/14 19/19/5 18/18/16
f 19/19/5 20/20/17 18/18/16
f 18/18/16 20/20/17 21/21/18
f 20/20/17 22/22/19 21/21/18
f 18/18/16 21/21/18 23/23/20
f 14/14/13 18/18/16 23/23/20
f 11/11/11 14/14/13 24/24/21
f 14/14/13 23/23/20 24/24/21
f 17/17/1 16/16/15 25/25/22
f 26/26/23 17/17/1 25/25/22
f 26/26/23 25/25/22 27/27/24
f 28/28/5 26/26/23 27/27/24
f 27/27/24 25/25/22 29/29/25
f 25/25/22 30/30/26 29/29/25
f 25/25/22 16/16/15 30/30/26
f 16/16/15 31/31/27 30/30/26
f 16/16/15 12/12/12 31/31/27
f 12/12/12 32/32/28 31/31/27
f 12/12/12 10/10/10 32/32/28
f 10/10/10 33/33/29 32/32/28
f 10/10/10 11/11/11 33/33/29
f 11/11/11 24/24/21 33/33/29
f 33/33/29 24/24/21 34/34/28
f 24/24/21 35/35/30 34/34/28
f 34/34/28 35/35/30 36/36/31
f 24/24/21 23/23/20 35/35/30
f 35/35/30 37/37/26 36/36/31
f 23/23/20 38/38/18 35/35/30
f 35/35/30 38/38/18 37/37/26
f 38/38/18 39/39/25 37/37/26
