o lantern_pearl
v 0.000000 0.179661 0.701237
v -0.112500 0.217836 0.674514
v -0.056030 0.312086 0.722307
v 0.000000 0.291662 0.733329
v 0.112500 0.217836 0.674514
v -0.024609 0.382137 0.795040
v 0.056030 0.312086 0.722307
v 0.159099 0.310000 0.610000
v 0.000000 0.372715 0.798932
v 0.079239 0.361393 0.695696
v 0.112500 0.402164 0.545485
v 0.000000 0.405874 0.888635
v -0.022852 0.415010 0.886160
v 0.024609 0.382137 0.795040
v 0.056030 0.410701 0.669084
v 0.000000 0.440339 0.518763
v 0.000000 0.426360 0.980907
v -0.021094 0.435057 0.980071
v 0.022852 0.415010 0.886160
v 0.034803 0.404882 0.785644
v 0.000000 0.431125 0.658062
v -0.112500 0.402164 0.545485
v 0.000000 0.427287 1.073609
v -0.019336 0.435217 1.074731
v 0.021094 0.435057 0.980071
v 0.032317 0.437067 0.880184
v 0.024609 0.427627 0.776248
v -0.056030 0.410701 0.669084
v -0.159099 0.310000 0.610000
v 0.000000 0.404835 1.161942
v -0.017578 0.411430 1.165028
v 0.029831 0.456054 0.978053
v 0.022852 0.459123 0.874208
v 0.000000 0.437048 0.772356
v -0.079239 0.361393 0.695696
v -0.112500 0.217836 0.674514
v -0.056030 0.312086 0.722307
v -0.024609 0.427627 0.776248
v -0.034803 0.404882 0.785644
v -0.024609 0.382137 0.795040
v -0.022852 0.415010 0.886160
v -0.032317 0.437067 0.880184
v -0.021094 0.435057 0.980071
v 0.000000 0.468259 0.871733
v -0.022852 0.459123 0.874208
v -0.029831 0.456054 0.978053
v -0.019336 0.435217 1.074731
v -0.021094 0.477051 0.976035
v -0.027345 0.454362 1.077439
v -0.017578 0.411430 1.165028
v 0.000000 0.485748 0.975199
v -0.019336 0.473508 1.080148
v -0.024859 0.427351 1.172478
v -0.015820 0.360237 1.243466
v 0.021094 0.477051 0.976035
v 0.000000 0.481438 1.081270
v -0.017578 0.443272 1.179928
v -0.022373 0.371811 1.254250
v -0.014063 0.288534 1.309740
v -0.019887 0.296334 1.321440
v -0.015820 0.383386 1.265035
v -0.014063 0.304135 1.333141
v 0.019336 0.473508 1.080148
v 0.000000 0.449867 1.183014
v 0.000000 0.388181 1.269502
v 0.000000 0.307366 1.337988
v 0.027345 0.454362 1.077439
v 0.017578 0.443272 1.179928
v 0.015820 0.383386 1.265035
v 0.014063 0.304135 1.333141
v 0.019336 0.435217 1.074731
v 0.024859 0.427351 1.172478
v 0.022373 0.371811 1.254250
v 0.019887 0.296334 1.321440
v 0.017578 0.411430 1.165028
v 0.015820 0.360237 1.243466
v 0.014063 0.288534 1.309740
v 0.000000 0.355442 1.238999
v 0.000000 0.285303 1.304893
v -0.015820 0.360237 1.243466
v -0.014063 0.288534 1.309740
v 0.000000 0.292586 1.380341
v -0.061237 0.276736 1.321190
v -0.050000 0.262541 1.376758
v 0.000000 0.337989 1.304778
v -0.050000 0.236660 1.280165
v 0.000000 0.260887 1.262040
v 0.050000 0.262541 1.376758
v 0.061237 0.276736 1.321190
v 0.050000 0.236660 1.280165
v 0.061237 0.218208 1.400270
v 0.086603 0.202359 1.341120
v 0.000000 0.224773 1.424771
v 0.000000 0.292586 1.380341
v 0.061237 0.186510 1.281969
v 0.000000 0.260887 1.262040
v -0.061237 0.218208 1.400270
v -0.050000 0.262541 1.376758
v 0.000000 0.179945 1.257468
v -0.050000 0.236660 1.280165
v -0.061237 0.186510 1.281969
v 0.000000 0.127359 1.297819
v -0.050000 0.141122 1.305764
v 0.050000 0.141122 1.305764
v 0.061237 0.143208 1.356969
v -0.086603 0.202359 1.341120
v -0.061237 0.276736 1.321190
v -0.061237 0.186510 1.281969
v -0.050000 0.236660 1.280165
v -0.050000 0.141122 1.305764
v -0.061237 0.143208 1.356969
v -0.050000 0.167004 1.402357
v 0.000000 0.159058 1.416120
v 0.050000 0.167004 1.402357
v 0.000000 0.159058 1.416120
v 0.000000 0.118707 1.363534
v -0.050000 0.167004 1.402357
v -0.061237 0.143208 1.356969
v 0.000000 0.127359 1.297819
v -0.050000 0.141122 1.305764
vn -0.5998 -0.2303 0.7663
vn -0.5493 -0.1004 0.8296
vn -0.0000 -0.2853 0.9584
vn -0.0000 -0.4426 0.8967
vn 0.5493 -0.1004 0.8295
vn -0.7013 -0.5299 0.4768
vn 0.5998 -0.2303 0.7663
vn 0.7808 0.3515 0.5165
vn 0.0001 -0.8044 0.5942
vn 0.8455 0.2811 0.4540
vn 0.5533 0.8079 0.2029
vn -0.0001 -0.9593 0.2825
vn -0.7151 -0.6684 0.2046
vn 0.7013 -0.5299 0.4768
vn 0.5956 0.7899 0.1460
vn -0.0000 0.9973 0.0735
vn -0.0002 -0.9935 0.1142
vn -0.7198 -0.6887 0.0868
vn 0.7152 -0.6683 0.2046
vn 0.9727 0.1143 0.2020
vn -0.0000 0.9998 0.0197
vn -0.5533 0.8079 0.2029
vn -0.0000 -0.9929 -0.1190
vn -0.7228 -0.6870 -0.0746
vn 0.7198 -0.6887 0.0869
vn 0.9995 0.0226 0.0199
vn 0.6754 0.7348 -0.0622
vn -0.5955 0.7899 0.1460
vn -0.7808 0.3515 0.5165
vn -0.0002 -0.9177 -0.3974
vn -0.7272 -0.6329 -0.2658
vn 0.9994 0.0277 0.0229
vn 0.6986 0.6973 -0.1605
vn 0.0001 0.9856 -0.1688
vn -0.8455 0.2811 0.4540
vn -0.5494 -0.1004 0.8295
vn -0.5999 -0.2303 0.7662
vn -0.6754 0.7349 -0.0622
vn -0.9727 0.1143 0.2020
vn -0.9995 0.0226 0.0199
vn -0.0001 0.9722 -0.2341
vn -0.6987 0.6972 -0.1605
vn -0.9994 0.0276 0.0230
vn -0.6944 0.7185 -0.0389
vn -0.9992 0.0276 0.0298
vn -0.0001 0.9979 -0.0641
vn -0.6914 0.7108 0.1292
vn -0.9989 0.0245 0.0393
vn -0.7216 -0.5375 -0.4363
vn 0.6943 0.7186 -0.0390
vn -0.0001 0.9856 0.1691
vn -0.6882 0.6472 0.3281
vn -0.9993 0.0067 0.0376
vn -0.7214 -0.4794 -0.4998
vn -0.9991 0.0039 0.0415
vn -0.6918 0.5271 0.4934
vn -0.6880 0.4641 0.5580
vn 0.6913 0.7109 0.1293
vn -0.0001 0.8962 0.4435
vn -0.0001 0.7358 0.6772
vn -0.0000 0.6465 0.7629
vn 0.9992 0.0277 0.0298
vn 0.6880 0.6473 0.3281
vn 0.6917 0.5272 0.4935
vn 0.6879 0.4642 0.5580
vn 0.7229 -0.6869 -0.0744
vn 0.9989 0.0246 0.0394
vn 0.9993 0.0066 0.0377
vn 0.9991 0.0039 0.0415
vn 0.7271 -0.6330 -0.2657
vn 0.7216 -0.5377 -0.4361
vn 0.7213 -0.4794 -0.4998
vn 0.0001 -0.7700 -0.6381
vn -0.0003 -0.6845 -0.7291
vn -0.7213 -0.4794 -0.4999
vn 0.6472 -0.5566 -0.5209
vn 0.8176 -0.5562 0.1490
vn -0.0000 -0.7678 -0.6407
vn -0.0000 -0.9659 0.2588
vn 0.6472 -0.2216 0.7294
vn -0.0000 -0.3447 0.9387
vn -0.6472 -0.5566 -0.5209
vn -0.8176 -0.5562 0.1490
vn -0.6472 -0.2216 0.7294
vn -0.7069 -0.1631 -0.6882
vn -0.9999 0.0161 -0.0043
vn -0.0000 -0.2427 -0.9701
vn -0.7070 0.2028 0.6776
vn -0.0000 -0.3446 0.9388
vn 0.7069 -0.1631 -0.6882
vn -0.0000 0.2748 0.9615
vn 0.7069 0.2028 0.6776
vn -0.0000 0.8660 0.5000
vn 0.5773 0.7072 0.4082
vn -0.5773 0.7071 0.4082
vn -0.7071 0.6830 -0.1830
vn 0.9999 0.0161 -0.0043
vn 0.8176 -0.5561 0.1490
vn 0.7070 0.2028 0.6775
vn 0.5773 0.7071 0.4082
vn 0.7071 0.6830 -0.1830
vn 0.5774 0.4082 -0.7071
vn -0.0000 0.5000 -0.8660
vn -0.5773 0.4082 -0.7071
vn -0.0000 0.9659 -0.2588
vn 0.5773 0.4082 -0.7071
vt 0.500000 1.000000
vt 0.375000 1.000000
vt 0.375000 0.875000
vt 0.500000 0.875000
vt 0.375000 0.750000
vt 0.625000 1.000000
vt 0.500000 0.750000
vt 0.375000 0.625000
vt 0.625000 0.875000
vt 0.500000 0.625000
vt 0.375000 0.500000
vt 0.625000 0.750000
vt 0.500000 0.500000
vt 0.375000 0.375000
vt 0.625000 0.625000
vt 0.500000 0.375000
vt 0.375000 0.250000
vt 0.625000 0.500000
vt 0.500000 0.250000
vt 0.375000 0.125000
vt 0.625000 0.375000
vt 0.500000 0.125000
vt 0.375000 0.000000
vt 0.500000 0.000000
vt 0.625000 0.250000
vt 0.625000 0.125000
vt 0.625000 0.000000
vt 0.875000 0.500000
vt 0.875000 0.625000
vt 0.750000 0.500000
vt 0.750000 0.625000
vt 0.875000 0.750000
vt 0.750000 0.750000
vt 0.250000 0.500000
vt 0.250000 0.625000
vt 0.125000 0.500000
vt 0.125000 0.625000
vt 0.250000 0.750000
vt 0.125000 0.750000
s 1
f 3/1/1 2/2/2 1/3/3
f 4/4/4 3/1/1 1/3/3
f 4/4/4 1/3/3 5/5/5
f 6/6/6 3/1/1 4/4/4
f 7/7/7 4/4/4 5/5/5
f 7/7/7 5/5/5 8/8/8
f 9/9/9 6/6/6 4/4/4
f 9/9/9 4/4/4 7/7/7
f 10/10/10 7/7/7 8/8/8
f 10/10/10 8/8/8 11/11/11
f 9/9/9 12/9/12 6/6/6
f 12/9/12 13/6/13 6/6/6
f 14/12/14 9/9/9 7/7/7
f 14/12/14 7/7/7 10/10/10
f 15/13/15 10/10/10 11/11/11
f 15/13/15 11/11/11 16/14/16
f 12/9/12 17/9/17 13/6/13
f 17/9/17 18/6/18 13/6/13
f 19/12/19 12/9/12 9/9/9
f 14/12/14 19/12/19 9/9/9
f 20/15/20 14/12/14 10/10/10
f 20/15/20 10/10/10 15/13/15
f 21/16/21 15/13/15 16/14/16
f 21/16/21 16/14/16 22/17/22
f 17/9/17 23/9/23 18/6/18
f 23/9/23 24/6/24 18/6/18
f 25/12/25 17/9/17 12/9/12
f 19/12/19 25/12/25 12/9/12
f 26/15/26 19/12/19 14/12/14
f 20/15/20 26/15/26 14/12/14
f 27/18/27 20/15/20 15/13/15
f 27/18/27 15/13/15 21/16/21
f 28/19/28 21/16/21 22/17/22
f 28/19/28 22/17/22 29/20/29
f 23/9/23 30/9/30 24/6/24
f 30/9/30 31/6/31 24/6/24
f 32/15/32 25/12/25 19/12/19
f 26/15/26 32/15/32 19/12/19
f 33/18/33 26/15/26 20/15/20
f 27/18/27 33/18/33 20/15/20
f 34/21/34 27/18/27 21/16/21
f 34/21/34 21/16/21 28/19/28
f 35/22/35 28/19/28 29/20/29
f 35/22/35 29/20/29 36/23/36
f 37/24/37 35/22/35 36/23/36
f 38/25/38 28/19/28 35/22/35
f 38/25/38 34/21/34 28/19/28
f 39/26/39 35/22/35 37/24/37
f 39/26/39 38/25/38 35/22/35
f 40/27/6 39/26/39 37/24/37
f 40/27/6 41/27/13 39/26/39
f 41/27/13 42/26/40 39/26/39
f 39/26/39 42/26/40 38/25/38
f 41/27/13 43/27/18 42/26/40
f 34/21/34 44/21/41 27/18/27
f 44/21/41 33/18/33 27/18/27
f 38/25/38 45/25/42 34/21/34
f 42/26/40 45/25/42 38/25/38
f 45/25/42 44/21/41 34/21/34
f 43/27/18 46/26/43 42/26/40
f 42/26/40 46/26/43 45/25/42
f 43/27/18 47/27/24 46/26/43
f 45/25/42 48/25/44 44/21/41
f 46/26/43 48/25/44 45/25/42
f 47/27/24 49/26/45 46/26/43
f 46/26/43 49/26/45 48/25/44
f 47/27/24 50/27/31 49/26/45
f 44/21/41 51/21/46 33/18/33
f 48/25/44 51/21/46 44/21/41
f 49/26/45 52/25/47 48/25/44
f 48/25/44 52/25/47 51/21/46
f 50/27/31 53/26/48 49/26/45
f 49/26/45 53/26/48 52/25/47
f 50/27/31 54/27/49 53/26/48
f 51/21/46 55/18/50 33/18/33
f 33/18/33 55/18/50 26/15/26
f 55/18/50 32/15/32 26/15/26
f 52/25/47 56/21/51 51/21/46
f 51/21/46 56/21/51 55/18/50
f 53/26/48 57/25/52 52/25/47
f 52/25/47 57/25/52 56/21/51
f 54/27/49 58/26/53 53/26/48
f 53/26/48 58/26/53 57/25/52
f 54/27/49 59/27/54 58/26/53
f 59/27/54 60/26/55 58/26/53
f 58/26/53 60/26/55 61/25/56
f 58/26/53 61/25/56 57/25/52
f 60/26/55 62/25/57 61/25/56
f 55/18/50 63/18/58 32/15/32
f 56/21/51 63/18/58 55/18/50
f 57/25/52 64/21/59 56/21/51
f 57/25/52 61/25/56 64/21/59
f 56/21/51 64/21/59 63/18/58
f 61/25/56 62/25/57 65/21/60
f 61/25/56 65/21/60 64/21/59
f 62/25/57 66/21/61 65/21/60
f 63/18/58 67/15/62 32/15/32
f 32/15/32 67/15/62 25/12/25
f 64/21/59 68/18/63 63/18/58
f 64/21/59 65/21/60 68/18/63
f 63/18/58 68/18/63 67/15/62
f 65/21/60 66/21/61 69/18/64
f 65/21/60 69/18/64 68/18/63
f 66/21/61 70/18/65 69/18/64
f 67/15/62 71/12/66 25/12/25
f 25/12/25 71/12/66 17/9/17
f 71/12/66 23/9/23 17/9/17
f 68/18/63 72/15/67 67/15/62
f 68/18/63 69/18/64 72/15/67
f 67/15/62 72/15/67 71/12/66
f 69/18/64 70/18/65 73/15/68
f 69/18/64 73/15/68 72/15/67
f 70/18/65 74/15/69 73/15/68
f 71/12/66 75/12/70 23/9/23
f 72/15/67 75/12/70 71/12/66
f 72/15/67 73/15/68 75/12/70
f 75/12/70 30/9/30 23/9/23
f 73/15/68 74/15/69 76/12/71
f 73/15/68 76/12/71 75/12/70
f 75/12/70 76/12/71 30/9/30
f 74/15/69 77/12/72 76/12/71
f 76/12/71 78/9/73 30/9/30
f 76/12/71 77/12/72 78/9/73
f 30/9/30 78/9/73 31/6/31
f 77/12/72 79/9/74 78/9/73
f 78/9/73 80/6/49 31/6/31
f 78/9/73 79/9/74 80/6/49
f 79/9/74 81/6/75 80/6/49
f 84/28/76 83/29/77 82/30/78
f 83/29/77 85/31/79 82/30/78
f 83/29/77 86/32/80 85/31/79
f 86/32/80 87/33/81 85/31/79
f 82/30/78 85/31/79 88/18/82
f 85/31/79 87/33/81 89/15/83
f 85/31/79 89/15/83 88/18/82
f 87/33/81 90/12/84 89/15/83
f 88/18/82 89/15/83 91/13/85
f 89/15/83 90/12/84 92/10/86
f 89/15/83 92/10/86 91/13/85
f 88/18/82 91/13/85 93/16/87
f 94/21/78 88/18/82 93/16/87
f 90/12/84 95/7/88 92/10/86
f 90/12/84 96/9/89 95/7/88
f 94/21/78 93/16/87 97/19/90
f 98/25/76 94/21/78 97/19/90
f 96/9/89 99/4/91 95/7/88
f 96/9/89 100/6/80 99/4/91
f 100/6/80 101/1/92 99/4/91
f 99/4/91 101/1/92 102/3/93
f 101/1/92 103/2/94 102/3/93
f 99/4/91 102/3/93 104/5/95
f 95/7/88 99/4/91 104/5/95
f 92/10/86 95/7/88 105/8/96
f 95/7/88 104/5/95 105/8/96
f 98/25/76 97/19/90 106/22/97
f 107/26/98 98/25/76 106/22/97
f 107/26/98 106/22/97 108/24/99
f 109/27/80 107/26/98 108/24/99
f 108/24/99 106/22/97 110/23/100
f 106/22/97 111/20/101 110/23/100
f 106/22/97 97/19/90 111/20/101
f 97/19/90 112/17/102 111/20/101
f 97/19/90 93/16/87 112/17/102
f 93/16/87 113/14/103 112/17/102
f 93/16/87 91/13/85 113/14/103
f 91/13/85 114/11/104 113/14/103
f 91/13/85 92/10/86 114/11/104
f 92/10/86 105/8/96 114/11/104
f 114/11/104 105/8/96 115/34/103
f 105/8/96 116/35/105 115/34/103
f 115/34/103 116/35/105 117/36/106
f 105/8/96 104/5/95 116/35/105
f 116/35/105 118/37/101 117/36/106
f 104/5/95 119/38/93 116/35/105
f 116/35/105 119/38/93 118/37/101
f 119/38/93 120/39/100 118/37/101
