o veggieCarrot
v -0.022727 -1.546207 0.000000
v 0.282886 -1.399825 -0.305612
v -0.022727 -1.399825 -0.432202
v 0.504243 -1.096396 -0.526970
v -0.022727 -1.096396 -0.745248
v 0.716597 -0.413592 -0.739323
v -0.022727 -0.413592 -1.045561
v -0.022727 0.196805 -1.068282
v 0.722522 -1.096396 0.000000
v 1.022834 -0.413592 0.000000
v 0.732661 0.196805 -0.755389
v 0.607065 0.334348 -0.629793
v -0.022727 0.334347 -0.890662
v 0.867935 0.334348 -0.000000
v 1.045554 0.196805 -0.000000
v 0.607065 0.334348 0.629793
v 0.716597 -0.413592 0.739323
v 0.732661 0.196805 0.755389
v -0.022727 0.334347 0.890662
v -0.022727 0.196805 1.068281
v -0.022727 -0.413592 1.045561
v 0.504243 -1.096396 0.526970
v -0.022727 -1.096396 0.745248
v 0.409475 -1.399825 0.000000
v -0.022727 -1.546207 0.000000
v 0.282886 -1.399825 0.305613
v -0.022727 -1.546207 0.000000
v -0.022727 -1.399825 0.432202
v -0.022727 -1.546207 0.000000
v -0.022727 -1.546207 0.000000
v -0.022727 -1.399825 -0.432202
v -0.328340 -1.399825 -0.305612
v -0.022727 -1.096396 -0.745248
v -0.549697 -1.096396 -0.526970
v -0.022727 -0.413592 -1.045561
v -0.454929 -1.399825 0.000000
v -0.022727 -1.546207 0.000000
v -0.762051 -0.413592 -0.739323
v -0.767976 -1.096396 0.000000
v -0.778115 0.196805 -0.755389
v -0.022727 0.196805 -1.068282
v -0.022727 0.334347 -0.890662
v -0.652520 0.334347 -0.629793
v -1.091008 0.196805 -0.000000
v -0.913391 0.334348 -0.000000
v -1.068289 -0.413592 0.000000
v -0.778115 0.196805 0.755389
v -0.652520 0.334347 0.629793
v -0.328340 -1.399825 0.305613
v -0.022727 -1.546207 0.000000
v -0.549697 -1.096396 0.526970
v -0.022727 0.196805 1.068281
v -0.022727 0.334347 0.890662
v -0.762051 -0.413592 0.739323
v -0.022727 -0.413592 1.045561
v -0.022727 -1.096396 0.745248
v -0.022727 -1.399825 0.432202
v -0.022727 -1.546207 0.000000
v 0.607065 0.334348 -0.629793
v 0.410659 0.371127 -0.433387
v -0.022727 0.371127 -0.612902
v -0.022727 0.334347 -0.890662
v 0.867935 0.334348 -0.000000
v -0.456116 0.371127 -0.433387
v -0.652520 0.334347 -0.629793
v 0.590173 0.371127 -0.000000
v 0.607065 0.334348 0.629793
v -0.635630 0.371127 -0.000001
v -0.913391 0.334348 -0.000000
v 0.410659 0.371127 0.433387
v -0.022727 0.334347 0.890662
v -0.456116 0.371127 0.433386
v -0.652520 0.334347 0.629793
v -0.022727 0.371127 0.612902
v 0.243232 0.343864 -0.265961
v -0.022727 0.343864 -0.376125
v -0.022727 0.343864 0.000000
v 0.353398 0.343865 -0.000000
v -0.288687 0.343864 -0.265961
v 0.243232 0.343864 0.265961
v -0.398853 0.343864 -0.000000
v -0.022727 0.343864 0.376125
v -0.288687 0.343864 0.265960
vn 0.0001 -0.7821 -0.6232
vn 0.4406 -0.7822 -0.4406
vn -0.0000 -1.0000 0.0001
vn 0.6170 -0.4884 -0.6170
vn 0.0001 -0.4885 -0.8725
vn 0.6893 -0.2233 -0.6893
vn 0.0001 -0.2227 -0.9749
vn 0.0001 0.1688 -0.9856
vn 0.8726 -0.4885 -0.0000
vn 0.9748 -0.2229 -0.0000
vn 0.6969 0.1691 -0.6969
vn 0.3083 0.8999 -0.3084
vn 0.0001 0.8999 -0.4360
vn 0.4361 0.8999 -0.0000
vn 0.9856 0.1691 -0.0000
vn 0.3084 0.8999 0.3083
vn 0.6893 -0.2230 0.6893
vn 0.6969 0.1691 0.6969
vn 0.0001 0.8999 0.4360
vn 0.0001 0.1688 0.9857
vn 0.0001 -0.2227 0.9749
vn 0.6170 -0.4884 0.6170
vn 0.0001 -0.4885 0.8726
vn 0.6231 -0.7822 -0.0000
vn -0.0000 -1.0000 -0.0000
vn 0.4406 -0.7822 0.4406
vn -0.0001 -1.0000 -0.0000
vn 0.0001 -0.7821 0.6232
vn -0.4406 -0.7822 -0.4406
vn -0.0001 -0.7821 -0.6232
vn -0.0001 -0.4885 -0.8726
vn -0.6170 -0.4884 -0.6170
vn -0.0001 -0.2227 -0.9749
vn -0.6231 -0.7822 -0.0000
vn 0.0001 -1.0000 -0.0000
vn -0.6893 -0.2231 -0.6893
vn -0.8726 -0.4885 -0.0000
vn -0.6969 0.1691 -0.6969
vn -0.0001 0.1688 -0.9857
vn -0.0001 0.8999 -0.4360
vn -0.3084 0.8999 -0.3083
vn -0.9856 0.1691 -0.0000
vn -0.4361 0.8999 -0.0000
vn -0.9748 -0.2233 -0.0000
vn -0.6969 0.1691 0.6969
vn -0.3083 0.8999 0.3084
vn -0.4406 -0.7822 0.4406
vn -0.6170 -0.4884 0.6170
vn -0.0001 0.1688 0.9856
vn -0.0001 0.8999 0.4360
vn -0.6893 -0.2228 0.6893
vn -0.0001 -0.2227 0.9749
vn -0.0001 -0.4885 0.8725
vn -0.0001 -0.7821 0.6232
vn -0.0000 -1.0000 -0.0001
vn -0.0000 0.9976 -0.0688
vn 0.0486 0.9976 -0.0486
vn 0.3083 0.9000 -0.3083
vn -0.0000 0.9000 -0.4360
vn 0.4360 0.9000 -0.0000
vn -0.0486 0.9976 -0.0486
vn -0.3083 0.9000 -0.3083
vn 0.0688 0.9976 -0.0000
vn 0.3083 0.9000 0.3083
vn -0.0688 0.9976 -0.0000
vn -0.4360 0.9000 -0.0000
vn 0.0486 0.9976 0.0486
vn -0.0000 0.9000 0.4360
vn -0.0486 0.9976 0.0486
vn -0.3083 0.9000 0.3083
vn -0.0000 0.9976 0.0688
vn -0.0594 0.9965 0.0594
vn -0.0000 0.9965 0.0840
vn -0.0000 1.0000 -0.0000
vn -0.0840 0.9965 -0.0000
vn 0.0594 0.9965 0.0594
vn -0.0594 0.9965 -0.0594
vn 0.0840 0.9965 -0.0000
vn -0.0000 0.9965 -0.0840
vn 0.0594 0.9965 -0.0594
vt 0.508480 0.077840
vt 0.628565 0.077840
vt 0.748740 0.003220
vt 0.628565 0.239191
vt 0.508480 0.239191
vt 0.628565 0.602277
vt 0.508480 0.602277
vt 0.508480 0.926861
vt 0.748650 0.239191
vt 0.748650 0.602277
vt 0.628565 0.926861
vt 0.628565 0.993559
vt 0.508480 0.993559
vt 0.748650 0.993559
vt 0.748650 0.926861
vt 0.868735 0.993559
vt 0.868735 0.602277
vt 0.868735 0.926861
vt 0.988820 0.993559
vt 0.988820 0.926861
vt 0.988820 0.602277
vt 0.868735 0.239191
vt 0.988820 0.239191
vt 0.748650 0.077840
vt 0.868735 0.077840
vt 0.988820 0.077840
vt 0.628573 0.077840
vt 0.508488 0.077840
vt 0.748748 0.003220
vt 0.508488 0.239191
vt 0.628573 0.239191
vt 0.508488 0.602277
vt 0.748659 0.077840
vt 0.628573 0.602277
vt 0.748659 0.239191
vt 0.628573 0.926861
vt 0.508488 0.926861
vt 0.508488 0.993559
vt 0.628573 0.993559
vt 0.748659 0.926861
vt 0.748659 0.993559
vt 0.748659 0.602277
vt 0.868743 0.926861
vt 0.868743 0.993559
vt 0.868743 0.077840
vt 0.868743 0.239191
vt 0.988828 0.926861
vt 0.988828 0.993559
vt 0.868743 0.602277
vt 0.988828 0.602277
vt 0.988828 0.239191
vt 0.988828 0.077840
vt 0.412145 0.693791
vt 0.318220 0.599669
vt 0.348426 0.526960
vt 0.484917 0.663736
vt 0.155197 0.526759
vt 0.412007 0.826759
vt 0.484716 0.856965
vt 0.185251 0.599531
vt 0.018421 0.663250
vt 0.317886 0.920685
vt 0.347940 0.993457
vt 0.091130 0.693456
vt 0.018219 0.856479
vt 0.184917 0.920546
vt 0.154711 0.993255
vt 0.090991 0.826425
vt 0.292471 0.661650
vt 0.350111 0.719410
vt 0.251568 0.760108
vt 0.210870 0.661565
vt 0.350026 0.801010
vt 0.153110 0.719205
vt 0.292266 0.858651
vt 0.153025 0.800805
vt 0.210665 0.858565
s 1
f 3/1/1 2/2/2 1/3/3
f 4/4/4 2/2/2 3/1/1
f 5/5/5 4/4/4 3/1/1
f 4/4/4 5/5/5 6/6/6
f 5/5/5 7/7/7 6/6/6
f 7/7/7 8/8/8 6/6/6
f 4/4/4 9/9/9 2/2/2
f 4/4/4 6/6/6 10/10/10
f 9/9/9 4/4/4 10/10/10
f 8/8/8 11/11/11 6/6/6
f 6/6/6 11/11/11 10/10/10
f 11/11/11 8/8/8 12/12/12
f 8/8/8 13/13/13 12/12/12
f 11/11/11 12/12/12 14/14/14
f 15/15/15 11/11/11 14/14/14
f 11/11/11 15/15/15 10/10/10
f 15/15/15 14/14/14 16/16/16
f 10/10/10 15/15/15 17/17/17
f 9/9/9 10/10/10 17/17/17
f 18/18/18 15/15/15 16/16/16
f 15/15/15 18/18/18 17/17/17
f 18/18/18 16/16/16 19/19/19
f 20/20/20 18/18/18 19/19/19
f 18/18/18 20/20/20 21/21/21
f 17/17/17 18/18/18 21/21/21
f 22/22/22 17/17/17 21/21/21
f 22/22/22 9/9/9 17/17/17
f 23/23/23 22/22/22 21/21/21
f 9/9/9 22/22/22 24/24/24
f 9/9/9 24/24/24 2/2/2
f 2/2/2 24/24/24 25/3/25
f 22/22/22 23/23/23 26/25/26
f 22/22/22 26/25/26 24/24/24
f 24/24/24 26/25/26 27/3/27
f 23/23/23 28/26/28 26/25/26
f 26/25/26 28/26/28 29/3/25
f 32/27/29 31/28/30 30/29/25
f 33/30/31 31/28/30 32/27/29
f 34/31/32 33/30/31 32/27/29
f 33/30/31 34/31/32 35/32/33
f 34/31/32 32/27/29 36/33/34
f 36/33/34 32/27/29 37/29/35
f 34/31/32 38/34/36 35/32/33
f 39/35/37 34/31/32 36/33/34
f 34/31/32 39/35/37 38/34/36
f 38/34/36 40/36/38 35/32/33
f 40/36/38 41/37/39 35/32/33
f 41/37/39 40/36/38 42/38/40
f 40/36/38 43/39/41 42/38/40
f 40/36/38 44/40/42 43/39/41
f 44/40/42 40/36/38 38/34/36
f 44/40/42 45/41/43 43/39/41
f 46/42/44 44/40/42 38/34/36
f 39/35/37 46/42/44 38/34/36
f 44/40/42 47/43/45 45/41/43
f 47/43/45 44/40/42 46/42/44
f 47/43/45 48/44/46 45/41/43
f 39/35/37 36/33/34 49/45/47
f 49/45/47 36/33/34 50/29/25
f 39/35/37 51/46/48 46/42/44
f 51/46/48 39/35/37 49/45/47
f 47/43/45 52/47/49 48/44/46
f 52/47/49 53/48/50 48/44/46
f 54/49/51 47/43/45 46/42/44
f 52/47/49 47/43/45 54/49/51
f 51/46/48 54/49/51 46/42/44
f 55/50/52 52/47/49 54/49/51
f 56/51/53 55/50/52 54/49/51
f 51/46/48 56/51/53 54/49/51
f 56/51/53 51/46/48 57/52/54
f 51/46/48 49/45/47 57/52/54
f 57/52/54 49/45/47 58/29/55
f 61/53/56 60/54/57 59/55/58
f 62/56/59 61/53/56 59/55/58
f 59/55/58 60/54/57 63/57/60
f 64/58/61 61/53/56 62/56/59
f 65/59/62 64/58/61 62/56/59
f 60/54/57 66/60/63 63/57/60
f 63/57/60 66/60/63 67/61/64
f 68/62/65 64/58/61 65/59/62
f 69/63/66 68/62/65 65/59/62
f 66/60/63 70/64/67 67/61/64
f 67/61/64 70/64/67 71/65/68
f 72/66/69 68/62/65 69/63/66
f 73/67/70 72/66/69 69/63/66
f 71/65/68 74/68/71 73/67/70
f 70/64/67 74/68/71 71/65/68
f 74/68/71 72/66/69 73/67/70
f 60/54/57 61/53/56 75/69/72
f 61/53/56 64/58/61 76/70/73
f 61/53/56 76/70/73 75/69/72
f 75/69/72 76/70/73 77/71/74
f 60/54/57 75/69/72 78/72/75
f 66/60/63 60/54/57 78/72/75
f 78/72/75 75/69/72 77/71/74
f 64/58/61 79/73/76 76/70/73
f 64/58/61 68/62/65 79/73/76
f 76/70/73 79/73/76 77/71/74
f 66/60/63 78/72/75 80/74/77
f 70/64/67 66/60/63 80/74/77
f 80/74/77 78/72/75 77/71/74
f 68/62/65 81/75/78 79/73/76
f 68/62/65 72/66/69 81/75/78
f 79/73/76 81/75/78 77/71/74
f 70/64/67 80/74/77 82/76/79
f 74/68/71 70/64/67 82/76/79
f 82/76/79 80/74/77 77/71/74
f 72/66/69 83/77/80 81/75/78
f 72/66/69 74/68/71 83/77/80
f 81/75/78 83/77/80 77/71/74
f 74/68/71 82/76/79 83/77/80
f 83/77/80 82/76/79 77/71/74
