o hunter_ears_LOD1
v 0.287615 0.854771 0.225291
v 0.238652 0.859864 0.212647
v 0.309194 0.988836 0.164913
v 0.226640 0.807706 0.150614
v 0.287615 0.854771 0.225291
v 0.186145 0.919958 0.039428
v 0.309194 0.988836 0.164913
v 0.347723 0.966640 0.183384
v 0.177905 0.798056 -0.093758
v 0.241461 0.701589 0.027403
v 0.220953 0.862220 -0.123424
v 0.240270 0.998958 0.027980
v 0.282259 0.954199 -0.109770
v 0.312899 1.069313 0.023462
v 0.361479 1.050018 -0.072364
v 0.417166 1.101182 0.072503
v 0.414173 1.093067 -0.025223
v 0.361479 1.050018 -0.072364
v 0.454234 0.979531 -0.109258
v 0.508421 1.065796 -0.017555
v 0.545358 0.959503 -0.065637
v 0.450860 1.069456 0.100616
v 0.354474 0.941536 0.141225
v 0.300171 0.836799 0.176767
v 0.465446 1.047713 0.051998
v 0.516804 1.130237 0.080613
v 0.448292 1.139936 0.085951
v 0.508498 1.185607 0.055096
v 0.452688 1.161088 -0.007304
v 0.414173 1.093067 -0.025223
v 0.513073 1.053178 0.039742
v 0.523445 1.114487 -0.003360
v 0.414173 1.093067 -0.025223
v 0.516804 1.130237 0.080613
v 0.508498 1.185607 0.055096
v 0.452688 1.161088 -0.007304
v 0.465446 1.047713 0.051998
v 0.551124 0.946273 -0.010110
v 0.508827 0.934984 -0.001413
v 0.552332 0.802619 -0.012238
v 0.510571 0.820668 -0.009073
v 0.522009 0.697497 0.016618
v 0.483346 0.716670 0.015644
v 0.457201 0.646812 0.042121
v 0.433548 0.678173 0.037096
v 0.344494 0.636886 -0.016271
v 0.440936 0.617591 -0.005704
v 0.571559 0.685884 -0.059037
v 0.540752 0.739322 -0.053141
v 0.571559 0.685884 -0.059037
v 0.458813 0.707201 -0.072102
v 0.589191 0.793584 -0.079560
v 0.501772 0.820048 -0.097642
v 0.458813 0.707201 -0.072102
v 0.373945 0.758669 -0.137570
v 0.422345 0.864223 -0.150690
v 0.282259 0.954199 -0.109770
v 0.361479 1.050018 -0.072364
v 0.220953 0.862220 -0.123424
v 0.319237 0.700150 -0.098478
v 0.177905 0.798056 -0.093758
v 0.344494 0.636886 -0.016271
v 0.241461 0.701589 0.027403
v 0.440936 0.617591 -0.005704
v 0.458813 0.707201 -0.072102
v 0.319237 0.700150 -0.098478
v 0.440936 0.617591 -0.005704
v 0.571559 0.685884 -0.059037
v 0.287615 0.854771 0.225291
v 0.347723 0.966640 0.183384
v 0.226640 0.807706 0.150614
v 0.287615 0.854771 0.225291
v -0.287615 0.854771 0.225291
v -0.238652 0.859864 0.212647
v -0.309194 0.988836 0.164913
v -0.226640 0.807706 0.150614
v -0.287615 0.854771 0.225291
v -0.186145 0.919958 0.039428
v -0.309194 0.988836 0.164913
v -0.347723 0.966640 0.183384
v -0.240270 0.998958 0.027980
v -0.312899 1.069313 0.023462
v -0.417166 1.101182 0.072503
v -0.414173 1.093067 -0.025223
v -0.450860 1.069456 0.100616
v -0.448292 1.139936 0.085951
v -0.452688 1.161088 -0.007304
v -0.414173 1.093067 -0.025223
v -0.508498 1.185607 0.055096
v -0.516804 1.130237 0.080613
v -0.465446 1.047713 0.051998
v -0.354474 0.941536 0.141225
v -0.300171 0.836799 0.176767
v -0.287615 0.854771 0.225291
v -0.347723 0.966640 0.183384
v -0.226640 0.807706 0.150614
v -0.287615 0.854771 0.225291
v -0.361479 1.050018 -0.072364
v -0.454234 0.979531 -0.109258
v -0.508421 1.065796 -0.017555
v -0.523445 1.114487 -0.003360
v -0.452688 1.161088 -0.007304
v -0.508498 1.185607 0.055096
v -0.516804 1.130237 0.080613
v -0.513073 1.053178 0.039742
v -0.465446 1.047713 0.051998
v -0.551124 0.946273 -0.010110
v -0.508827 0.934984 -0.001413
v -0.552332 0.802619 -0.012238
v -0.510571 0.820668 -0.009073
v -0.522009 0.697497 0.016618
v -0.483346 0.716670 0.015644
v -0.457201 0.646812 0.042121
v -0.433548 0.678173 0.037096
v -0.344494 0.636886 -0.016271
v -0.440936 0.617591 -0.005704
v -0.319237 0.700150 -0.098478
v -0.458813 0.707201 -0.072102
v -0.373945 0.758669 -0.137570
v -0.571559 0.685884 -0.059037
v -0.440936 0.617591 -0.005704
v -0.501772 0.820048 -0.097642
v -0.458813 0.707201 -0.072102
v -0.422345 0.864223 -0.150690
v -0.220953 0.862220 -0.123424
v -0.319237 0.700150 -0.098478
v -0.177905 0.798056 -0.093758
v -0.344494 0.636886 -0.016271
v -0.440936 0.617591 -0.005704
v -0.241461 0.701589 0.027403
v -0.282259 0.954199 -0.109770
v -0.361479 1.050018 -0.072364
v -0.545358 0.959503 -0.065637
v -0.589191 0.793584 -0.079560
v -0.540752 0.739322 -0.053141
v -0.571559 0.685884 -0.059037
v -0.458813 0.707201 -0.072102
v -0.571559 0.685884 -0.059037
v -0.414173 1.093067 -0.025223
v -0.282259 0.954199 -0.109770
v -0.361479 1.050018 -0.072364
v -0.220953 0.862220 -0.123424
v -0.177905 0.798056 -0.093758
v -0.241461 0.701589 0.027403
v 0.241461 0.701589 0.027403
v 0.344494 0.636886 -0.016271
v 0.433548 0.678173 0.037096
v 0.354695 0.761349 0.100743
v 0.226640 0.807706 0.150614
v 0.300171 0.836799 0.176767
v 0.370827 0.850769 0.041541
v 0.354474 0.941536 0.141225
v 0.465446 1.047713 0.051998
v 0.508827 0.934984 -0.001413
v 0.510571 0.820668 -0.009073
v 0.483346 0.716670 0.015644
v -0.241461 0.701589 0.027403
v -0.433548 0.678173 0.037096
v -0.344494 0.636886 -0.016271
v -0.354695 0.761349 0.100743
v -0.226640 0.807706 0.150614
v -0.300171 0.836799 0.176767
v -0.370827 0.850769 0.041541
v -0.354474 0.941536 0.141225
v -0.465446 1.047713 0.051998
v -0.508827 0.934984 -0.001413
v -0.510571 0.820668 -0.009073
v -0.483346 0.716670 0.015644
vn -0.5131 0.6262 0.5870
vn -0.7138 0.3719 0.5935
vn 0.3450 -0.0358 0.9379
vn 0.3449 -0.0358 0.9379
vn -0.7137 0.3719 0.5936
vn -0.6112 -0.5759 0.5430
vn -0.9160 0.3847 0.1136
vn 0.4547 0.1585 0.8764
vn -0.7826 -0.3810 -0.4924
vn -0.5711 -0.7844 0.2418
vn -0.4767 0.1408 -0.8677
vn -0.7704 0.6372 -0.0187
vn -0.4232 0.4274 -0.7989
vn -0.5964 0.7992 -0.0750
vn -0.2955 0.6059 -0.7386
vn -0.4834 0.7699 0.4166
vn -0.1980 0.7655 -0.6122
vn -0.2955 0.6060 -0.7386
vn 0.2177 0.3343 -0.9170
vn 0.6375 0.4300 -0.6393
vn 0.8243 0.2500 -0.5080
vn 0.5303 0.0360 0.8471
vn 0.8249 -0.4085 0.3907
vn 0.7594 -0.5233 0.3866
vn 0.5907 -0.4585 0.6640
vn 0.7638 0.0609 0.6426
vn -0.6426 0.6244 0.4441
vn 0.3309 0.9413 0.0662
vn -0.3899 0.6925 -0.6070
vn 0.8000 -0.1136 0.5891
vn 0.5895 0.2385 -0.7718
vn -0.1981 0.7655 -0.6122
vn 0.3309 0.9414 0.0663
vn -0.3900 0.6924 -0.6070
vn 0.5907 -0.4584 0.6640
vn 0.8554 0.0916 0.5098
vn 0.2082 -0.1856 0.9603
vn 0.7500 0.0597 0.6587
vn 0.1333 0.0623 0.9891
vn 0.6023 -0.3692 0.7078
vn 0.1365 0.2492 0.9588
vn 0.4023 -0.5842 0.7049
vn -0.1187 0.0894 0.9889
vn -0.3604 -0.9135 0.1887
vn 0.2653 -0.9411 -0.2097
vn 0.6805 -0.6596 -0.3190
vn 0.7570 -0.2404 -0.6076
vn 0.6805 -0.6597 -0.3190
vn 0.2441 -0.4730 -0.8466
vn 0.9277 -0.0300 -0.3720
vn 0.4158 -0.1119 -0.9025
vn 0.0199 -0.2252 -0.9741
vn 0.1559 0.0738 -0.9850
vn -0.4231 0.4274 -0.7989
vn -0.3813 -0.6439 -0.6633
vn -0.5712 -0.7844 0.2419
vn 0.2653 -0.9411 -0.2098
vn 0.2652 -0.9411 -0.2097
vn 0.2440 -0.4730 -0.8466
vn 0.6805 -0.6597 -0.3189
vn 0.4547 0.1584 0.8765
vn 0.3449 -0.0358 0.9380
vn 0.7594 -0.5233 0.3865
vn -0.6111 -0.5758 0.5431
vn 0.7138 0.3718 0.5935
vn 0.5131 0.6262 0.5870
vn -0.3450 -0.0359 0.9379
vn 0.6112 -0.5758 0.5431
vn 0.9160 0.3847 0.1136
vn 0.7138 0.3719 0.5935
vn -0.3450 -0.0358 0.9379
vn 0.5131 0.6262 0.5871
vn 0.7704 0.6372 -0.0187
vn -0.4547 0.1585 0.8764
vn 0.4834 0.7699 0.4166
vn 0.5964 0.7992 -0.0750
vn 0.1980 0.7655 -0.6122
vn -0.5303 0.0359 0.8471
vn 0.6426 0.6243 0.4442
vn 0.3899 0.6924 -0.6070
vn 0.1981 0.7654 -0.6123
vn -0.3310 0.9413 0.0662
vn -0.7638 0.0609 0.6426
vn -0.5908 -0.4585 0.6639
vn -0.8249 -0.4085 0.3907
vn -0.7595 -0.5233 0.3865
vn -0.3449 -0.0357 0.9380
vn 0.6112 -0.5759 0.5430
vn -0.7594 -0.5233 0.3866
vn 0.2954 0.6060 -0.7386
vn -0.2177 0.3343 -0.9170
vn -0.6376 0.4300 -0.6392
vn -0.5895 0.2385 -0.7717
vn 0.3900 0.6925 -0.6069
vn 0.1981 0.7655 -0.6122
vn -0.3308 0.9414 0.0664
vn -0.5906 -0.4585 0.6640
vn -0.8000 -0.1137 0.5891
vn -0.8554 0.0916 0.5097
vn -0.2082 -0.1856 0.9603
vn -0.7500 0.0596 0.6587
vn -0.1333 0.0623 0.9891
vn -0.6023 -0.3691 0.7078
vn -0.1365 0.2492 0.9588
vn -0.4023 -0.5842 0.7049
vn 0.1187 0.0894 0.9889
vn 0.3604 -0.9135 0.1887
vn -0.2653 -0.9411 -0.2097
vn -0.2652 -0.9411 -0.2097
vn -0.2441 -0.4731 -0.8465
vn 0.3813 -0.6440 -0.6632
vn -0.0199 -0.2252 -0.9741
vn -0.6805 -0.6597 -0.3189
vn -0.2440 -0.4730 -0.8466
vn -0.4024 -0.5841 0.7049
vn -0.1559 0.0738 -0.9850
vn -0.4158 -0.1120 -0.9025
vn -0.2441 -0.4729 -0.8466
vn 0.4767 0.1408 -0.8677
vn 0.3813 -0.6439 -0.6633
vn 0.7826 -0.3810 -0.4924
vn 0.3604 -0.9135 0.1888
vn -0.2653 -0.9411 -0.2098
vn 0.5711 -0.7844 0.2419
vn 0.4231 0.4274 -0.7990
vn 0.2954 0.6059 -0.7387
vn -0.8242 0.2501 -0.5080
vn -0.9277 -0.0300 -0.3721
vn -0.7571 -0.2403 -0.6075
vn -0.6806 -0.6596 -0.3189
vn -0.2442 -0.4731 -0.8465
vn -0.6804 -0.6597 -0.3190
vn 0.2955 0.6059 -0.7386
vn 0.4232 0.4274 -0.7989
vn 0.4767 0.1407 -0.8678
vn 0.7825 -0.3810 -0.4924
vn -0.3604 -0.9135 0.1886
vn 0.2517 -0.3280 0.9105
vn -0.5712 -0.7844 0.2418
vn 0.3601 -0.4533 0.8153
vn -0.6112 -0.5758 0.5430
vn 0.5433 -0.4983 0.6757
vn 0.7107 -0.0909 0.6975
vn 0.8405 -0.2555 0.4778
vn 0.6065 -0.3298 0.7235
vn 0.3938 -0.1862 0.9001
vn 0.3473 0.0369 0.9370
vn 0.5200 0.1729 0.8365
vn -0.3601 -0.4533 0.8154
vn -0.2517 -0.3280 0.9105
vn 0.5712 -0.7844 0.2418
vn 0.3605 -0.9135 0.1886
vn 0.6112 -0.5758 0.5430
vn -0.5433 -0.4983 0.6757
vn -0.7108 -0.0909 0.6975
vn -0.8405 -0.2555 0.4778
vn -0.6065 -0.3298 0.7235
vn -0.3938 -0.1862 0.9001
vn -0.3473 0.0368 0.9370
vn -0.5200 0.1730 0.8365
vt 0.423153 0.598720
vt 0.364904 0.632576
vt 0.350805 0.629888
vt 0.395311 0.680734
vt 0.427764 0.666848
vt 0.415466 0.587222
vt 0.399631 0.800359
vt 0.380270 0.800365
vt 0.412750 0.800339
vt 0.440652 0.652125
vt 0.480025 0.800346
vt 0.455369 0.628306
vt 0.480571 0.721840
vt 0.469659 0.592272
vt 0.480447 0.616755
vt 0.502595 0.660772
vt 0.489904 0.592283
vt 0.502663 0.592198
vt 0.471359 0.578363
vt 0.408038 0.573915
vt 0.335805 0.625834
vt 0.480457 0.563194
vt 0.480677 0.578358
vt 0.474241 0.592304
vt 0.480328 0.592346
vt 0.480392 0.604473
vt 0.487467 0.578362
vt 0.485841 0.592310
vt 0.502901 0.578372
vt 0.503206 0.563156
vt 0.527332 0.578377
vt 0.525052 0.563136
vt 0.555159 0.578378
vt 0.555242 0.563131
vt 0.573861 0.578376
vt 0.576671 0.563147
vt 0.583295 0.617252
vt 0.566575 0.592191
vt 0.554645 0.592185
vt 0.537994 0.592186
vt 0.554724 0.612063
vt 0.527138 0.592186
vt 0.527249 0.616309
vt 0.554842 0.626633
vt 0.527438 0.643634
vt 0.547255 0.800350
vt 0.569955 0.617196
vt 0.566954 0.800327
vt 0.589613 0.800313
vt -0.129337 0.440580
vt -0.099053 0.429598
vt -0.223543 0.449879
vt -0.195316 0.427259
vt -0.320709 0.436457
vt -0.296061 0.392779
vt -0.140564 0.328818
vt -0.240286 0.292707
vt -0.097056 0.247291
vt -0.017104 0.324704
vt -0.037428 0.361916
vt -0.059540 0.402080
s 1
f 3/1/1 2/2/2 1/3/3
f 5/3/4 2/2/5 4/4/6
f 6/5/7 4/4/6 2/2/5
f 6/5/7 2/2/5 7/1/1
f 8/6/8 7/1/1 5/3/3
f 6/5/7 9/7/9 4/4/6
f 9/7/9 10/8/10 4/4/6
f 6/5/7 11/9/11 9/7/9
f 6/5/7 12/10/12 11/9/11
f 12/10/12 6/5/7 7/1/1
f 12/10/12 13/11/13 11/9/11
f 12/10/12 14/12/14 13/11/13
f 14/12/14 12/10/12 7/1/1
f 14/12/14 15/13/15 13/11/13
f 14/12/14 7/1/1 16/14/16
f 16/14/16 7/1/1 8/6/8
f 17/15/17 14/12/14 16/14/16
f 14/12/14 17/15/17 18/13/18
f 19/16/19 18/13/18 17/15/17
f 17/15/17 20/17/20 19/16/19
f 19/16/19 20/17/20 21/18/21
f 22/19/22 16/14/16 8/6/8
f 22/19/22 8/6/8 23/20/23
f 23/20/23 8/6/8 24/21/24
f 25/22/25 22/19/22 23/20/23
f 22/19/22 25/22/25 26/23/26
f 27/24/27 22/19/22 26/23/26
f 27/24/27 16/14/16 22/19/22
f 26/23/26 28/25/28 27/24/27
f 27/24/27 28/25/28 29/26/29
f 27/24/27 29/26/29 16/14/16
f 29/26/29 30/15/17 16/14/16
f 20/17/20 31/27/30 21/18/21
f 20/17/20 32/28/31 31/27/30
f 32/28/31 20/17/20 33/15/32
f 32/28/31 34/23/26 31/27/30
f 32/28/31 35/25/33 34/23/26
f 32/28/31 36/26/34 35/25/33
f 36/26/34 32/28/31 17/15/17
f 34/23/26 37/22/35 31/27/30
f 31/27/30 37/22/35 38/29/36
f 31/27/30 38/29/36 21/18/21
f 37/22/35 39/30/37 38/29/36
f 38/29/36 39/30/37 40/31/38
f 38/29/36 40/31/38 21/18/21
f 39/30/37 41/32/39 40/31/38
f 40/31/38 41/32/39 42/33/40
f 41/32/39 43/34/41 42/33/40
f 42/33/40 43/34/41 44/35/42
f 43/34/41 45/36/43 44/35/42
f 44/35/42 45/36/43 46/37/44
f 47/38/45 44/35/42 46/37/44
f 42/33/40 44/35/42 48/39/46
f 49/40/47 40/31/38 42/33/40
f 49/40/47 42/33/40 50/39/48
f 51/41/49 49/40/47 50/39/48
f 49/40/47 52/42/50 40/31/38
f 40/31/38 52/42/50 21/18/21
f 53/43/51 52/42/50 49/40/47
f 21/18/21 52/42/50 53/43/51
f 54/41/49 53/43/51 49/40/47
f 54/41/49 55/44/52 53/43/51
f 53/43/51 56/45/53 21/18/21
f 55/44/52 56/45/53 53/43/51
f 56/45/53 19/16/19 21/18/21
f 56/45/53 57/11/54 19/16/19
f 57/11/54 58/13/15 19/16/19
f 59/46/11 57/11/54 56/45/53
f 55/44/52 59/46/11 56/45/53
f 59/46/11 55/44/52 60/47/55
f 61/48/9 59/46/11 60/47/55
f 60/47/55 62/37/44 61/48/9
f 62/37/44 63/49/56 61/48/9
f 60/47/55 64/38/57 62/37/44
f 66/47/55 55/44/52 65/41/49
f 65/41/49 47/38/58 66/47/55
f 65/41/59 68/39/60 67/38/57
f 44/35/42 67/38/57 68/39/60
f 70/6/61 69/3/62 24/21/63
f 72/3/4 71/4/64 24/21/24
f 74/2/65 75/1/66 73/3/67
f 76/4/68 78/5/69 74/2/70
f 74/2/70 77/3/71 76/4/68
f 74/2/70 78/5/69 79/1/72
f 78/5/69 81/10/73 79/1/72
f 79/1/72 80/6/74 77/3/67
f 79/1/72 83/14/75 80/6/74
f 81/10/73 82/12/76 79/1/72
f 79/1/72 82/12/76 83/14/75
f 82/12/76 84/15/77 83/14/75
f 83/14/75 85/19/78 80/6/74
f 83/14/75 86/24/79 85/19/78
f 87/26/80 86/24/79 83/14/75
f 88/15/81 87/26/80 83/14/75
f 89/25/82 86/24/79 87/26/80
f 89/25/82 90/23/83 86/24/79
f 91/22/84 85/19/78 90/23/83
f 85/19/78 86/24/79 90/23/83
f 85/19/78 91/22/84 92/20/85
f 80/6/74 92/20/85 93/21/86
f 80/6/74 85/19/78 92/20/85
f 94/3/87 95/6/74 93/21/86
f 96/4/88 97/3/67 93/21/89
f 84/15/77 82/12/76 98/13/90
f 98/13/90 99/16/91 84/15/77
f 100/17/92 84/15/77 99/16/91
f 101/28/93 102/26/94 84/15/95
f 102/26/94 101/28/93 103/25/96
f 103/25/96 101/28/93 104/23/83
f 106/22/97 104/23/83 105/27/98
f 104/23/83 101/28/93 105/27/98
f 106/22/97 105/27/98 107/29/99
f 108/30/100 106/22/97 107/29/99
f 108/30/100 107/29/99 109/31/101
f 110/32/102 108/30/100 109/31/101
f 110/32/102 109/31/101 111/33/103
f 112/34/104 110/32/102 111/33/103
f 112/34/104 111/33/103 113/35/105
f 114/36/106 112/34/104 113/35/105
f 114/36/106 113/35/105 115/37/107
f 113/35/105 116/38/108 115/37/107
f 116/38/109 118/41/110 117/47/111
f 119/44/112 117/47/111 118/41/110
f 120/39/113 118/41/114 121/38/108
f 121/38/108 113/35/115 120/39/113
f 124/45/116 119/44/112 122/43/117
f 119/44/112 123/41/118 122/43/117
f 125/46/119 119/44/112 124/45/116
f 119/44/112 125/46/119 126/47/120
f 125/46/119 127/48/121 126/47/120
f 128/37/122 126/47/120 127/48/121
f 129/38/123 126/47/120 128/37/122
f 130/49/124 128/37/122 127/48/121
f 131/11/125 125/46/119 124/45/116
f 132/13/126 131/11/125 99/16/91
f 131/11/125 124/45/116 99/16/91
f 99/16/91 124/45/116 133/18/127
f 124/45/116 122/43/117 133/18/127
f 105/27/98 100/17/92 133/18/127
f 100/17/92 99/16/91 133/18/127
f 107/29/99 105/27/98 133/18/127
f 109/31/101 107/29/99 133/18/127
f 134/42/128 109/31/101 133/18/127
f 134/42/128 133/18/127 122/43/117
f 134/42/128 135/40/129 109/31/101
f 134/42/128 122/43/117 135/40/129
f 109/31/101 135/40/129 111/33/103
f 111/33/103 135/40/129 136/39/130
f 135/40/129 137/41/131 136/39/130
f 122/43/117 123/41/118 135/40/129
f 113/35/105 111/33/103 138/39/132
f 101/28/93 100/17/92 105/27/98
f 100/17/92 101/28/93 139/15/95
f 141/13/133 82/12/76 140/11/134
f 82/12/76 81/10/73 140/11/134
f 140/11/134 81/10/73 142/9/135
f 142/9/135 78/5/69 143/7/136
f 81/10/73 78/5/69 142/9/135
f 144/8/124 143/7/136 76/4/68
f 143/7/136 78/5/69 76/4/68
f 146/50/137 147/51/138 145/52/139
f 147/51/138 148/53/140 145/52/139
f 145/52/139 148/53/140 149/54/141
f 148/53/140 150/55/142 149/54/141
f 148/53/140 151/56/143 150/55/142
f 151/56/143 152/57/144 150/55/142
f 151/56/143 153/58/145 152/57/144
f 153/58/145 151/56/143 154/59/146
f 154/59/146 151/56/143 155/60/147
f 155/60/147 151/56/143 156/61/148
f 156/61/148 151/56/143 147/51/138
f 151/56/143 148/53/140 147/51/138
f 160/53/149 158/51/150 157/52/151
f 158/51/150 159/50/152 157/52/151
f 160/53/149 157/52/151 161/54/153
f 162/55/154 160/53/149 161/54/153
f 163/56/155 160/53/149 162/55/154
f 164/57/156 163/56/155 162/55/154
f 165/58/157 163/56/155 164/57/156
f 163/56/155 165/58/157 166/59/158
f 163/56/155 166/59/158 167/60/159
f 163/56/155 167/60/159 168/61/160
f 163/56/155 168/61/160 158/51/150
f 160/53/149 163/56/155 158/51/150
