o lantern_stalk_LOD0
v -0 0.669661 0.391237
v -0.1125 0.707836 0.364514
v -0.05603 0.802086 0.412307
v -0 0.781662 0.423329
v 0.1125 0.707836 0.364514
v -0.024609 0.872137 0.48504
v 0.05603 0.802086 0.412307
v 0.159099 0.8 0.3
v -0 0.862715 0.488932
v 0.079239 0.851393 0.385696
v 0.1125 0.892164 0.235485
v -0 0.895874 0.578635
v -0.022852 0.90501 0.57616
v 0.024609 0.872137 0.48504
v 0.05603 0.900701 0.359084
v -0 0.930339 0.208763
v -0 0.91636 0.670907
v -0.021094 0.925057 0.670071
v 0.022852 0.90501 0.57616
v 0.034803 0.894882 0.475644
v -0 0.921125 0.348062
v -0.1125 0.892164 0.235485
v -0 0.917287 0.763609
v -0.019336 0.925217 0.764731
v 0.021094 0.925057 0.670071
v 0.032317 0.927067 0.570184
v 0.024609 0.917627 0.466248
v -0.05603 0.900701 0.359084
v -0.159099 0.8 0.3
v -0 0.894835 0.851942
v -0.017578 0.90143 0.855028
v 0.029831 0.946054 0.668053
v 0.022852 0.949123 0.564208
v -0 0.927048 0.462356
v -0.079239 0.851393 0.385696
v -0.1125 0.707836 0.364514
v -0.05603 0.802086 0.412307
v -0.024609 0.917627 0.466248
v -0.034803 0.894882 0.475644
v -0.024609 0.872137 0.48504
v -0.022852 0.90501 0.57616
v -0.032317 0.927067 0.570184
v -0.021094 0.925057 0.670071
v -0 0.958259 0.561733
v -0.022852 0.949123 0.564208
v -0.029831 0.946054 0.668053
v -0.019336 0.925217 0.764731
v -0.021094 0.967051 0.666035
v -0.027345 0.944362 0.767439
v -0.017578 0.90143 0.855028
v -0 0.975748 0.665199
v -0.019336 0.963508 0.770148
v -0.024859 0.917351 0.862478
v -0.01582 0.850237 0.933466
v 0.021094 0.967051 0.666035
v -0 0.971438 0.77127
v -0.017578 0.933272 0.869928
v -0.022373 0.861811 0.94425
v -0.014063 0.778534 0.99974
v -0.019887 0.786334 1.01144
v -0.01582 0.873386 0.955035
v -0.014063 0.794135 1.023141
v 0.019336 0.963508 0.770148
v -0 0.939867 0.873014
v -0 0.878181 0.959502
v -0 0.797366 1.027988
v 0.027345 0.944362 0.767439
v 0.017578 0.933272 0.869928
v 0.01582 0.873386 0.955035
v 0.014063 0.794135 1.023141
v 0.019336 0.925217 0.764731
v 0.024859 0.917351 0.862478
v 0.022373 0.861811 0.94425
v 0.019887 0.786334 1.01144
v 0.017578 0.90143 0.855028
v 0.01582 0.850237 0.933466
v 0.014063 0.778534 0.99974
v -0 0.845442 0.928999
v -0 0.775303 0.994893
v -0.01582 0.850237 0.933466
v -0.014063 0.778534 0.99974
vt 0.375 0.875
vt 0.375 1
vt 0.5 1
vt 0.5 0.875
vt 0.375 0.75
vt 0.625 1
vt 0.5 0.75
vt 0.375 0.625
vt 0.625 0.875
vt 0.5 0.625
vt 0.375 0.5
vt 0.625 0.875
vt 0.625 1
vt 0.625 0.75
vt 0.5 0.5
vt 0.375 0.375
vt 0.625 0.875
vt 0.625 1
vt 0.625 0.75
vt 0.625 0.625
vt 0.5 0.375
vt 0.375 0.25
vt 0.625 0.875
vt 0.625 1
vt 0.625 0.75
vt 0.625 0.625
vt 0.625 0.5
vt 0.5 0.25
vt 0.375 0.125
vt 0.625 0.875
vt 0.625 1
vt 0.625 0.625
vt 0.625 0.5
vt 0.625 0.375
vt 0.5 0.125
vt 0.375 0
vt 0.5 0
vt 0.625 0.25
vt 0.625 0.125
vt 0.625 0
vt 0.625 0
vt 0.625 0.125
vt 0.625 0
vt 0.625 0.375
vt 0.625 0.25
vt 0.625 0.125
vt 0.625 0
vt 0.625 0.25
vt 0.625 0.125
vt 0.625 0
vt 0.625 0.375
vt 0.625 0.25
vt 0.625 0.125
vt 0.625 0
vt 0.625 0.5
vt 0.625 0.375
vt 0.625 0.25
vt 0.625 0.125
vt 0.625 0
vt 0.625 0.125
vt 0.625 0.25
vt 0.625 0.25
vt 0.625 0.5
vt 0.625 0.375
vt 0.625 0.375
vt 0.625 0.375
vt 0.625 0.625
vt 0.625 0.5
vt 0.625 0.5
vt 0.625 0.5
vt 0.625 0.75
vt 0.625 0.625
vt 0.625 0.625
vt 0.625 0.625
vt 0.625 0.75
vt 0.625 0.75
vt 0.625 0.75
vt 0.625 0.875
vt 0.625 0.875
vt 0.625 1
vt 0.625 1
vn -0 -0.28531045 0.9584352
vn -0.54933274 -0.100405976 0.8295494
vn -0.59984183 -0.23031604 0.7662534
vn -0 -0.44260758 0.89671534
vn 0.54933274 -0.100405976 0.8295494
vn -0.7013162 -0.52991223 0.476811
vn 0.59984183 -0.23031604 0.7662534
vn 0.78081053 0.35150474 0.51650697
vn -0 -0.804359 0.59414357
vn 0.84549856 0.28109953 0.45399922
vn 0.5532968 0.8078953 0.20289882
vn -0 -0.9592699 0.28249115
vn -0.7151044 -0.6684041 0.20460126
vn 0.7013162 -0.52991223 0.476811
vn 0.5955363 0.7899481 0.1460089
vn -0 0.9972952 0.07349964
vn -0 -0.9934697 0.11409652
vn -0.7198165 -0.6887158 0.08680199
vn 0.7151044 -0.6684041 0.20460126
vn 0.97269326 0.11429921 0.2019986
vn -0 0.999806 0.019700117
vn -0.5532968 0.8078953 0.20289882
vn -0 -0.99289435 -0.118999325
vn -0.72280943 -0.6870089 -0.07460097
vn 0.7198165 -0.6887158 0.08680199
vn 0.9995529 0.022401186 0.019801049
vn 0.6753574 0.73486245 -0.062205285
vn -0.5955363 0.7899481 0.1460089
vn -0.78081053 0.35150474 0.51650697
vn -0 -0.9176019 -0.39750084
vn -0.7271884 -0.6328899 -0.26579577
vn 0.99936455 0.027399028 0.022799192
vn 0.6985785 0.6972785 -0.16059506
vn -0 0.9856489 -0.16880837
vn -0.84549856 0.28109953 0.45399922
vn -0.54933274 -0.100405976 0.8295494
vn -0.59984183 -0.23031604 0.7662534
vn -0.6753574 0.73486245 -0.062205285
vn -0.97269326 0.11429921 0.2019986
vn -0.7013162 -0.52991223 0.476811
vn -0.7151044 -0.6684041 0.20460126
vn -0.9995529 0.022401186 0.019801049
vn -0.7198165 -0.6887158 0.08680199
vn -0 0.97223455 -0.23400831
vn -0.6985785 0.6972785 -0.16059506
vn -0.99936455 0.027399028 0.022799192
vn -0.72280943 -0.6870089 -0.07460097
vn -0.69451743 0.718418 -0.039000977
vn -0.9991837 0.02759955 0.029499521
vn -0.7271884 -0.6328899 -0.26579577
vn -0 0.99794966 -0.06400319
vn -0.69132024 0.7109209 0.12910378
vn -0.9989353 0.024800876 0.038901374
vn -0.7216106 -0.53750795 -0.43630642
vn 0.69451743 0.718418 -0.039000977
vn -0 0.9855989 0.16909981
vn -0.68831784 0.6471167 0.3278085
vn -0.99926513 0.0069004497 0.03770246
vn -0.7213367 -0.47942442 -0.49982545
vn -0.9991309 0.0039001203 0.04150128
vn -0.6917239 0.5272182 0.49351704
vn -0.687914 0.46410945 0.5580114
vn 0.69132024 0.7109209 0.12910378
vn -0 0.8962598 0.4435296
vn -0 0.7357995 0.67719954
vn -0 0.64650685 0.7629081
vn 0.9991837 0.02759955 0.029499521
vn 0.68831784 0.6471167 0.3278085
vn 0.6917239 0.5272182 0.49351704
vn 0.687914 0.46410945 0.5580114
vn 0.72280943 -0.6870089 -0.07460097
vn 0.9989353 0.024800876 0.038901374
vn 0.99926513 0.0069004497 0.03770246
vn 0.9991309 0.0039001203 0.04150128
vn 0.7271884 -0.6328899 -0.26579577
vn 0.7216106 -0.53750795 -0.43630642
vn 0.7213367 -0.47942442 -0.49982545
vn -0 -0.77002156 -0.6380179
vn -0 -0.68440336 -0.72910357
vn -0.7216106 -0.53750795 -0.43630642
vn -0.7213367 -0.47942442 -0.49982545
g default_0
f 3/3/3 2/2/2 1/1/1
f 4/4/4 3/3/3 1/1/1
f 4/4/4 1/1/1 5/5/5
f 6/6/6 3/3/3 4/4/4
f 7/7/7 4/4/4 5/5/5
f 7/7/7 5/5/5 8/8/8
f 9/9/9 6/6/6 4/4/4
f 9/9/9 4/4/4 7/7/7
f 10/10/10 7/7/7 8/8/8
f 10/10/10 8/8/8 11/11/11
f 9/9/9 12/12/12 6/6/6
f 12/12/12 13/13/13 6/6/6
f 14/14/14 9/9/9 7/7/7
f 14/14/14 7/7/7 10/10/10
f 15/15/15 10/10/10 11/11/11
f 15/15/15 11/11/11 16/16/16
f 12/12/12 17/17/17 13/13/13
f 17/17/17 18/18/18 13/13/13
f 19/19/19 12/12/12 9/9/9
f 14/14/14 19/19/19 9/9/9
f 20/20/20 14/14/14 10/10/10
f 20/20/20 10/10/10 15/15/15
f 21/21/21 15/15/15 16/16/16
f 21/21/21 16/16/16 22/22/22
f 17/17/17 23/23/23 18/18/18
f 23/23/23 24/24/24 18/18/18
f 25/25/25 17/17/17 12/12/12
f 19/19/19 25/25/25 12/12/12
f 26/26/26 19/19/19 14/14/14
f 20/20/20 26/26/26 14/14/14
f 27/27/27 20/20/20 15/15/15
f 27/27/27 15/15/15 21/21/21
f 28/28/28 21/21/21 22/22/22
f 28/28/28 22/22/22 29/29/29
f 23/23/23 30/30/30 24/24/24
f 30/30/30 31/31/31 24/24/24
f 32/32/32 25/25/25 19/19/19
f 26/26/26 32/32/32 19/19/19
f 33/33/33 26/26/26 20/20/20
f 27/27/27 33/33/33 20/20/20
f 34/34/34 27/27/27 21/21/21
f 34/34/34 21/21/21 28/28/28
f 35/35/35 28/28/28 29/29/29
f 35/35/35 29/29/29 36/36/36
f 37/37/37 35/35/35 36/36/36
f 38/38/38 28/28/28 35/35/35
f 38/38/38 34/34/34 28/28/28
f 39/39/39 35/35/35 37/37/37
f 39/39/39 38/38/38 35/35/35
f 40/40/40 39/39/39 37/37/37
f 40/40/40 41/41/41 39/39/39
f 41/41/41 42/42/42 39/39/39
f 39/39/39 42/42/42 38/38/38
f 41/41/41 43/43/43 42/42/42
f 34/34/34 44/44/44 27/27/27
f 44/44/44 33/33/33 27/27/27
f 38/38/38 45/45/45 34/34/34
f 42/42/42 45/45/45 38/38/38
f 45/45/45 44/44/44 34/34/34
f 43/43/43 46/46/46 42/42/42
f 42/42/42 46/46/46 45/45/45
f 43/43/43 47/47/47 46/46/46
f 45/45/45 48/48/48 44/44/44
f 46/46/46 48/48/48 45/45/45
f 47/47/47 49/49/49 46/46/46
f 46/46/46 49/49/49 48/48/48
f 47/47/47 50/50/50 49/49/49
f 44/44/44 51/51/51 33/33/33
f 48/48/48 51/51/51 44/44/44
f 49/49/49 52/52/52 48/48/48
f 48/48/48 52/52/52 51/51/51
f 50/50/50 53/53/53 49/49/49
f 49/49/49 53/53/53 52/52/52
f 50/50/50 54/54/54 53/53/53
f 51/51/51 55/55/55 33/33/33
f 33/33/33 55/55/55 26/26/26
f 55/55/55 32/32/32 26/26/26
f 52/52/52 56/56/56 51/51/51
f 51/51/51 56/56/56 55/55/55
f 53/53/53 57/57/57 52/52/52
f 52/52/52 57/57/57 56/56/56
f 54/54/54 58/58/58 53/53/53
f 53/53/53 58/58/58 57/57/57
f 54/54/54 59/59/59 58/58/58
f 59/59/59 60/60/60 58/58/58
f 58/58/58 60/60/60 61/61/61
f 58/58/58 61/61/61 57/57/57
f 60/60/60 62/62/62 61/61/61
f 55/55/55 63/63/63 32/32/32
f 56/56/56 63/63/63 55/55/55
f 57/57/57 64/64/64 56/56/56
f 57/57/57 61/61/61 64/64/64
f 56/56/56 64/64/64 63/63/63
f 61/61/61 62/62/62 65/65/65
f 61/61/61 65/65/65 64/64/64
f 62/62/62 66/66/66 65/65/65
f 63/63/63 67/67/67 32/32/32
f 32/32/32 67/67/67 25/25/25
f 64/64/64 68/68/68 63/63/63
f 64/64/64 65/65/65 68/68/68
f 63/63/63 68/68/68 67/67/67
f 65/65/65 66/66/66 69/69/69
f 65/65/65 69/69/69 68/68/68
f 66/66/66 70/70/70 69/69/69
f 67/67/67 71/71/71 25/25/25
f 25/25/25 71/71/71 17/17/17
f 71/71/71 23/23/23 17/17/17
f 68/68/68 72/72/72 67/67/67
f 68/68/68 69/69/69 72/72/72
f 67/67/67 72/72/72 71/71/71
f 69/69/69 70/70/70 73/73/73
f 69/69/69 73/73/73 72/72/72
f 70/70/70 74/74/74 73/73/73
f 71/71/71 75/75/75 23/23/23
f 72/72/72 75/75/75 71/71/71
f 72/72/72 73/73/73 75/75/75
f 75/75/75 30/30/30 23/23/23
f 73/73/73 74/74/74 76/76/76
f 73/73/73 76/76/76 75/75/75
f 75/75/75 76/76/76 30/30/30
f 74/74/74 77/77/77 76/76/76
f 76/76/76 78/78/78 30/30/30
f 76/76/76 77/77/77 78/78/78
f 30/30/30 78/78/78 31/31/31
f 77/77/77 79/79/79 78/78/78
f 78/78/78 80/80/80 31/31/31
f 78/78/78 79/79/79 80/80/80
f 79/79/79 81/81/81 80/80/80
