o lantern_stalk_LOD1
v 0.000000 0.669661 0.391237
v -0.112500 0.707836 0.364514
v -0.056030 0.802086 0.412307
v 0.000000 0.781662 0.423329
v 0.112500 0.707836 0.364514
v -0.024609 0.872137 0.485040
v 0.056030 0.802086 0.412307
v 0.159099 0.800000 0.300000
v 0.000000 0.862715 0.488932
v 0.079239 0.851393 0.385696
v 0.112500 0.892164 0.235485
v 0.000352 0.913068 0.638672
v -0.022852 0.905010 0.576160
v 0.024609 0.872137 0.485040
v 0.056030 0.900701 0.359084
v 0.000000 0.930339 0.208763
v -0.021094 0.925057 0.670071
v 0.021748 0.920832 0.631639
v 0.034803 0.894882 0.475644
v 0.000000 0.921125 0.348062
v -0.112500 0.892164 0.235485
v 0.000000 0.917287 0.763609
v -0.019336 0.925217 0.764731
v 0.030630 0.943447 0.633603
v 0.024609 0.917627 0.466248
v -0.056030 0.900701 0.359084
v -0.159099 0.800000 0.300000
v 0.000000 0.894835 0.851942
v -0.017578 0.901430 0.855028
v 0.021948 0.965382 0.635858
v 0.000000 0.927048 0.462356
v -0.079239 0.851393 0.385696
v -0.112500 0.707836 0.364514
v -0.056030 0.802086 0.412307
v -0.024609 0.917627 0.466248
v -0.034803 0.894882 0.475644
v -0.024609 0.872137 0.485040
v -0.022852 0.905010 0.576160
v -0.030750 0.943461 0.633569
v -0.021094 0.925057 0.670071
v 0.000000 0.958259 0.561733
v -0.021869 0.963943 0.624157
v -0.019336 0.925217 0.764731
v -0.027345 0.944362 0.767439
v -0.017578 0.901430 0.855028
v 0.000000 0.975748 0.665199
v -0.019336 0.963508 0.770148
v -0.023785 0.900769 0.898847
v -0.015820 0.850237 0.933466
v 0.000000 0.971438 0.771270
v -0.017578 0.933272 0.869928
v -0.014063 0.778534 0.999740
v -0.019071 0.791955 1.019715
v -0.015820 0.873386 0.955035
v 0.019336 0.963508 0.770148
v 0.000000 0.939867 0.873014
v 0.009101 0.875293 0.961607
v 0.007847 0.796799 1.027179
v 0.022014 0.931665 0.865098
v 0.019336 0.925217 0.764731
v 0.023933 0.900782 0.898760
v 0.017967 0.780020 1.002152
v 0.017578 0.901430 0.855028
v 0.009111 0.843636 0.932266
v 0.000000 0.775303 0.994893
v -0.015820 0.850237 0.933466
v -0.014063 0.778534 0.999740
vn -0.5998 -0.2303 0.7663
vn -0.5493 -0.1004 0.8296
vn -0.0000 -0.2853 0.9584
vn -0.0000 -0.4426 0.8967
vn 0.5493 -0.1004 0.8295
vn -0.7074 -0.5313 0.4662
vn 0.5998 -0.2303 0.7663
vn 0.7808 0.3515 0.5165
vn 0.0006 -0.8125 0.5830
vn 0.8455 0.2811 0.4540
vn 0.5533 0.8079 0.2029
vn 0.0412 -0.9835 0.1764
vn -0.7979 -0.5622 0.2174
vn 0.7042 -0.5334 0.4686
vn 0.5956 0.7899 0.1460
vn -0.0000 0.9973 0.0735
vn -0.7410 -0.6699 0.0461
vn 0.7258 -0.6724 0.1450
vn 0.9724 0.1178 0.2014
vn -0.0000 0.9998 0.0197
vn -0.5533 0.8079 0.2029
vn -0.0038 -0.9937 -0.1118
vn -0.7228 -0.6870 -0.0746
vn 0.9992 0.0376 0.0104
vn 0.6760 0.7347 -0.0576
vn -0.5955 0.7899 0.1460
vn -0.7808 0.3515 0.5165
vn -0.0123 -0.9186 -0.3949
vn -0.7188 -0.6461 -0.2566
vn 0.6656 0.7411 -0.0885
vn -0.0033 0.9866 -0.1632
vn -0.8455 0.2811 0.4540
vn -0.5494 -0.1004 0.8295
vn -0.5999 -0.2303 0.7662
vn -0.6726 0.7381 -0.0537
vn -0.9720 0.1169 0.2038
vn -0.7013 -0.5299 0.4768
vn -0.6887 -0.6905 0.2210
vn -0.9982 0.0543 0.0246
vn -0.6948 -0.7165 0.0628
vn -0.0127 0.9629 -0.2695
vn -0.6540 0.7485 -0.1095
vn -0.7209 -0.6895 -0.0705
vn -0.9989 0.0331 0.0343
vn -0.6793 -0.6886 -0.2538
vn -0.0121 0.9999 -0.0111
vn -0.6946 0.7078 0.1286
vn -0.9864 0.1218 0.1108
vn -0.5557 -0.6026 -0.5728
vn 0.0026 0.9863 0.1651
vn -0.7115 0.6339 0.3031
vn -0.8229 -0.4153 -0.3877
vn -0.8344 0.3283 0.4427
vn -0.6380 0.5538 0.5351
vn 0.7358 0.6675 0.1140
vn 0.0259 0.8950 0.4454
vn 0.4131 0.6342 0.6536
vn 0.4197 0.5692 0.7070
vn 0.8225 0.5196 0.2312
vn 0.5180 -0.8548 -0.0318
vn 0.9883 0.0851 0.1268
vn 0.9394 -0.2690 -0.2123
vn 0.6733 -0.6938 -0.2557
vn 0.3044 -0.6971 -0.6491
vn 0.0184 -0.6937 -0.7200
vn -0.6056 -0.6150 -0.5050
vn -0.7213 -0.4794 -0.4999
vt 0.500000 1.000000
vt 0.375000 1.000000
vt 0.375000 0.875000
vt 0.500000 0.875000
vt 0.375000 0.750000
vt 0.625000 1.000000
vt 0.500000 0.750000
vt 0.375000 0.625000
vt 0.625000 0.875000
vt 0.500000 0.625000
vt 0.375000 0.500000
vt 0.625000 0.750000
vt 0.500000 0.500000
vt 0.375000 0.375000
vt 0.625000 0.625000
vt 0.500000 0.375000
vt 0.375000 0.250000
vt 0.625000 0.500000
vt 0.500000 0.250000
vt 0.375000 0.125000
vt 0.625000 0.375000
vt 0.500000 0.125000
vt 0.375000 0.000000
vt 0.500000 0.000000
vt 0.625000 0.250000
vt 0.625000 0.125000
vt 0.625000 0.000000
vt 0.625000 0.203457
vt 0.625000 0.438276
vt 0.625000 0.437639
vt 0.625000 0.506068
vt 0.625000 0.716247
vt 0.625000 0.811022
s 1
f 3/1/1 2/2/2 1/3/3
f 4/4/4 3/1/1 1/3/3
f 4/4/4 1/3/3 5/5/5
f 6/6/6 3/1/1 4/4/4
f 7/7/7 4/4/4 5/5/5
f 7/7/7 5/5/5 8/8/8
f 9/9/9 6/6/6 4/4/4
f 9/9/9 4/4/4 7/7/7
f 10/10/10 7/7/7 8/8/8
f 10/10/10 8/8/8 11/11/11
f 9/9/9 12/9/12 6/6/6
f 12/9/12 13/6/13 6/6/6
f 14/12/14 9/9/9 7/7/7
f 14/12/14 7/7/7 10/10/10
f 15/13/15 10/10/10 11/11/11
f 15/13/15 11/11/11 16/14/16
f 12/9/12 17/6/17 13/6/13
f 18/12/18 12/9/12 9/9/9
f 14/12/14 18/12/18 9/9/9
f 19/15/19 14/12/14 10/10/10
f 19/15/19 10/10/10 15/13/15
f 20/16/20 15/13/15 16/14/16
f 20/16/20 16/14/16 21/17/21
f 12/9/12 22/9/22 17/6/17
f 22/9/22 23/6/23 17/6/17
f 24/15/24 18/12/18 14/12/14
f 19/15/19 24/15/24 14/12/14
f 25/18/25 19/15/19 15/13/15
f 25/18/25 15/13/15 20/16/20
f 26/19/26 20/16/20 21/17/21
f 26/19/26 21/17/21 27/20/27
f 22/9/22 28/9/28 23/6/23
f 28/9/28 29/6/29 23/6/23
f 30/18/30 24/15/24 19/15/19
f 25/18/25 30/18/30 19/15/19
f 31/21/31 25/18/25 20/16/20
f 31/21/31 20/16/20 26/19/26
f 32/22/32 26/19/26 27/20/27
f 32/22/32 27/20/27 33/23/33
f 34/24/34 32/22/32 33/23/33
f 35/25/35 26/19/26 32/22/32
f 35/25/35 31/21/31 26/19/26
f 36/26/36 32/22/32 34/24/34
f 36/26/36 35/25/35 32/22/32
f 37/27/37 36/26/36 34/24/34
f 37/27/37 38/27/38 36/26/36
f 38/27/38 39/26/39 36/26/36
f 36/26/36 39/26/39 35/25/35
f 38/27/38 40/27/40 39/26/39
f 31/21/31 41/21/41 25/18/25
f 41/21/41 30/18/30 25/18/25
f 35/25/35 42/25/42 31/21/31
f 39/26/39 42/25/42 35/25/35
f 42/25/42 41/21/41 31/21/31
f 40/27/40 43/27/43 39/26/39
f 43/27/43 44/26/44 39/26/39
f 39/26/39 44/26/44 42/25/42
f 43/27/43 45/27/45 44/26/44
f 41/21/41 46/21/46 30/18/30
f 42/25/42 46/21/46 41/21/41
f 44/26/44 47/25/47 42/25/42
f 42/25/42 47/25/47 46/21/46
f 45/27/45 48/26/48 44/26/44
f 44/26/44 48/26/48 47/25/47
f 45/27/45 49/27/49 48/26/48
f 47/25/47 50/21/50 46/21/46
f 46/21/46 50/21/50 30/18/30
f 48/26/48 51/25/51 47/25/47
f 47/25/47 51/25/51 50/21/50
f 49/27/49 52/27/52 48/26/48
f 52/27/52 53/28/53 48/26/48
f 48/26/48 53/28/53 54/25/54
f 48/26/48 54/25/54 51/25/51
f 30/18/30 55/18/55 24/15/24
f 50/21/50 55/18/55 30/18/30
f 51/25/51 56/21/56 50/21/50
f 51/25/51 54/25/54 56/21/56
f 50/21/50 56/21/56 55/18/55
f 54/25/54 53/28/53 57/29/57
f 54/25/54 57/29/57 56/21/56
f 53/28/53 58/30/58 57/29/57
f 55/18/55 59/31/59 24/15/24
f 24/15/24 59/31/59 18/12/18
f 56/21/56 59/31/59 55/18/55
f 56/21/56 57/29/57 59/31/59
f 59/31/59 60/12/60 18/12/18
f 18/12/18 60/12/60 12/9/12
f 60/12/60 22/9/22 12/9/12
f 59/31/59 57/29/57 61/15/61
f 59/31/59 61/15/61 60/12/60
f 57/29/57 58/30/58 61/15/61
f 58/30/58 62/32/62 61/15/61
f 60/12/60 63/12/63 22/9/22
f 61/15/61 63/12/63 60/12/60
f 63/12/63 28/9/28 22/9/22
f 61/15/61 62/32/62 64/33/64
f 61/15/61 64/33/64 63/12/63
f 63/12/63 64/33/64 28/9/28
f 28/9/28 64/33/64 29/6/29
f 62/32/62 65/9/65 64/33/64
f 64/33/64 66/6/66 29/6/29
f 64/33/64 65/9/65 66/6/66
f 65/9/65 67/6/67 66/6/66
