o mesmer_tail_tip_LOD1
v -0.057445 1.165268 -0.669937
v -0.069276 1.166119 -0.641225
v -0.066524 1.155647 -0.686718
v -0.083186 1.161713 -0.654584
v -0.095323 1.152899 -0.677422
v -0.085138 1.165722 -0.627082
v -0.136342 1.140535 -0.683523
v -0.113497 1.152345 -0.632843
v -0.140121 1.135215 -0.648573
v -0.148985 1.110228 -0.670675
v -0.132391 1.132604 -0.626664
v -0.143947 1.109018 -0.637053
v -0.132725 1.083074 -0.660022
v -0.128639 1.085016 -0.635164
v -0.130203 1.109836 -0.611419
v -0.102797 1.091682 -0.583754
v -0.110457 1.128505 -0.596974
v -0.109829 1.112610 -0.585601
v -0.077043 1.115719 -0.556557
v -0.071765 1.092500 -0.551262
v -0.081915 1.147616 -0.578758
v -0.067276 1.154176 -0.574340
v -0.048712 1.145444 -0.579849
v -0.054744 1.116401 -0.555289
v -0.064001 1.163091 -0.583779
v -0.048594 1.160345 -0.579826
v -0.073471 1.159921 -0.584153
v -0.039706 1.167684 -0.577721
v -0.036234 1.149491 -0.591387
v -0.044140 1.163645 -0.588077
v -0.048348 1.160852 -0.600537
v -0.040532 1.163276 -0.603051
v -0.053773 1.162936 -0.615201
v -0.038868 1.166286 -0.626342
v -0.045874 1.165928 -0.637091
v -0.036737 1.164446 -0.615582
v -0.067800 1.165515 -0.606080
v -0.070442 1.167380 -0.619318
v -0.077924 1.164267 -0.603052
v -0.033585 1.159823 -0.609637
v -0.038490 1.164949 -0.592596
v -0.023736 1.146841 -0.601766
v -0.023750 1.127218 -0.572493
v -0.024820 1.154076 -0.616477
v -0.005298 1.134576 -0.584544
v -0.004035 1.147522 -0.605125
v -0.007203 1.153202 -0.622500
v 0.003447 1.126366 -0.600439
v 0.000463 1.143935 -0.619073
v -0.005396 1.149714 -0.635712
v 0.009250 1.114632 -0.624250
v 0.005164 1.091051 -0.605726
v 0.013207 1.086792 -0.627897
v 0.010758 1.109071 -0.651150
v 0.002327 1.121965 -0.663785
v 0.017516 1.086164 -0.652980
v 0.013524 1.084820 -0.683844
v -0.008469 1.126143 -0.682120
v 0.016432 1.049349 -0.688653
v -0.003011 1.086805 -0.708322
v 0.006490 1.050585 -0.709374
v -0.009694 1.063512 -0.723075
v -0.007310 1.043534 -0.724915
v 0.006669 1.014734 -0.701201
v 0.013699 1.015837 -0.677743
v 0.011114 1.014284 -0.649640
v -0.001336 0.988976 -0.667362
v 0.000652 0.995657 -0.688488
v -0.011457 0.985904 -0.693778
v -0.008745 0.997675 -0.707233
v -0.021345 0.978741 -0.688558
v -0.018961 0.976390 -0.664990
v -0.030365 0.972572 -0.672244
v -0.043351 0.972163 -0.677471
v -0.009188 0.986356 -0.646322
v -0.000849 1.014055 -0.622270
v -0.020404 0.992164 -0.623735
v -0.022093 1.007013 -0.606580
v -0.015446 1.033571 -0.591825
v -0.031135 0.982524 -0.632231
v -0.042514 0.994276 -0.612821
v -0.031740 0.975509 -0.648052
v -0.044708 0.971962 -0.661209
v -0.050986 0.976032 -0.647177
v -0.055499 0.983135 -0.631866
v -0.056250 0.974423 -0.682848
v -0.065936 0.977783 -0.664807
v -0.081701 0.989707 -0.650319
v -0.067253 0.981429 -0.693358
v -0.085920 0.995067 -0.694049
v -0.075817 0.998189 -0.713761
v -0.103738 1.018342 -0.699489
v -0.089742 1.024312 -0.721098
v -0.099552 1.048804 -0.722222
v -0.079738 1.042000 -0.732777
v -0.099544 1.081868 -0.726840
v -0.059401 1.040477 -0.738675
v -0.067358 1.066962 -0.736692
v -0.081314 1.096671 -0.728332
v -0.112679 1.113844 -0.717971
v -0.120421 1.138414 -0.700123
v -0.135201 1.113452 -0.705716
v -0.123972 1.089956 -0.708168
v -0.139958 1.138983 -0.671935
v -0.144076 1.112032 -0.691368
v -0.131475 1.083099 -0.684625
v -0.117350 1.033782 -0.675442
v -0.115120 1.033404 -0.644719
v -0.105646 1.012136 -0.665069
v -0.089164 0.993548 -0.672590
v -0.099128 1.010304 -0.639093
v -0.104473 1.036137 -0.612497
v -0.082379 1.002376 -0.622110
v -0.110662 1.036208 -0.702651
v -0.063812 1.000801 -0.608737
v -0.044697 1.015374 -0.589835
v -0.066805 1.037631 -0.573630
v -0.047262 1.046072 -0.564883
v -0.027933 1.035651 -0.580561
v -0.045310 1.064665 -0.554651
v -0.021442 1.063392 -0.571974
v -0.033031 1.091118 -0.555802
v -0.062432 1.065714 -0.553391
v -0.050944 1.091085 -0.548586
v -0.075069 1.062021 -0.560998
v -0.092977 1.053797 -0.583399
v -0.081971 1.026307 -0.593328
v -0.012141 1.093642 -0.575868
v 0.002095 1.048196 -0.606981
v 0.016266 1.048622 -0.640422
v 0.019236 1.049829 -0.665152
v -0.092422 1.136985 -0.706262
v -0.064235 1.136339 -0.706086
v -0.041033 1.148805 -0.686532
v -0.029263 1.130887 -0.700577
v -0.046107 1.162178 -0.670897
v -0.021565 1.156306 -0.657183
v -0.045375 1.167040 -0.652564
v -0.030028 1.163179 -0.642755
v -0.014537 1.157594 -0.637128
v -0.016694 1.142232 -0.674747
v -0.025526 1.092562 -0.719754
v -0.040750 1.072654 -0.733872
v -0.031986 1.037410 -0.737306
v -0.042524 1.008504 -0.731132
v -0.017729 1.017970 -0.728068
v -0.027483 0.993746 -0.716876
v -0.045105 0.981542 -0.706208
v -0.039981 0.975402 -0.691863
v -0.056135 0.992579 -0.718798
v -0.062467 1.009069 -0.729002
v -0.000891 1.018976 -0.714985
v -0.023782 1.159380 -0.629307
vn -0.2503 0.9540 -0.1652
vn -0.0690 0.9342 -0.3499
vn -0.0444 0.8520 -0.5217
vn -0.0845 0.9956 -0.0417
vn -0.1944 0.9202 -0.3397
vn -0.2895 0.9565 0.0367
vn -0.6765 0.6445 -0.3564
vn -0.5399 0.8209 0.1861
vn -0.7846 0.4441 0.4326
vn -0.7901 0.5899 0.1662
vn -0.9326 -0.1552 0.3258
vn -0.9840 -0.1727 -0.0427
vn -0.9096 -0.4096 0.0692
vn -0.8305 -0.0830 0.5508
vn -0.8586 -0.3993 0.3215
vn -0.7578 -0.2288 0.6110
vn -0.7522 0.1097 0.6497
vn -0.7126 0.4156 0.5652
vn -0.3959 -0.0139 0.9182
vn -0.4160 0.2891 0.8622
vn -0.5847 0.5261 0.6176
vn -0.0304 0.5507 0.8342
vn 0.1318 0.3969 0.9083
vn 0.3483 0.4169 0.8395
vn 0.1040 0.6751 0.7303
vn -0.0304 0.9152 0.4019
vn -0.4575 0.7626 0.4573
vn 0.6636 0.3225 0.6750
vn 0.3026 0.8705 0.3882
vn -0.4305 0.8949 -0.1172
vn -0.0215 0.9998 -0.0031
vn 0.0162 0.9996 -0.0228
vn -0.0266 0.9954 0.0921
vn 0.0541 0.9937 0.0979
vn 0.1053 0.9866 0.1248
vn 0.2570 0.9507 0.1736
vn 0.0441 0.9965 0.0709
vn 0.0144 0.9989 0.0445
vn -0.3140 0.9202 0.2340
vn 0.6358 0.7484 0.1886
vn 0.4558 0.8836 0.1072
vn 0.4878 0.7679 0.4151
vn 0.3994 0.5117 0.7607
vn 0.4572 0.8253 0.3313
vn 0.6069 0.7514 0.2590
vn 0.5596 0.5859 0.5862
vn 0.6185 0.7832 0.0640
vn 0.8684 0.4934 0.0500
vn 0.9128 0.2265 0.3399
vn 0.7879 0.5777 -0.2133
vn 0.9736 0.1805 0.1394
vn 0.9221 -0.0422 0.3847
vn 0.9509 0.2891 -0.1107
vn 0.9746 0.0453 0.2194
vn 0.8526 0.4465 -0.2716
vn 0.9845 0.1755 -0.0048
vn 0.9118 0.2626 -0.3157
vn 0.7123 0.5162 -0.4755
vn 0.6903 0.3558 -0.6301
vn 0.8233 0.0657 -0.5638
vn 0.9618 -0.0082 -0.2735
vn 0.6077 0.0223 -0.7939
vn 0.5485 0.2227 -0.8059
vn 0.8610 -0.3128 -0.4011
vn 0.9458 -0.3104 -0.0950
vn 0.7386 -0.6739 0.0180
vn 0.9068 -0.3589 0.2210
vn 0.7725 -0.5873 -0.2416
vn 0.5271 -0.7742 -0.3504
vn 0.5799 -0.5906 -0.5611
vn 0.4464 -0.8932 0.0543
vn 0.3630 -0.8839 -0.2947
vn 0.2030 -0.9778 -0.0524
vn 0.6180 -0.7228 0.3091
vn 0.7680 -0.4268 0.4775
vn 0.4429 -0.7179 0.5370
vn 0.4373 -0.6233 0.6483
vn 0.6557 -0.3841 0.6501
vn 0.0476 -0.7848 0.6179
vn 0.1961 -0.8688 0.4547
vn 0.1854 -0.9327 0.3094
vn -0.0285 -0.9933 -0.1119
vn -0.0906 -0.9901 0.1073
vn -0.2188 -0.9291 0.2981
vn -0.2375 -0.8681 0.4358
vn -0.4308 -0.8986 0.0835
vn -0.2735 -0.9483 -0.1610
vn -0.5761 -0.7887 0.2147
vn -0.4284 -0.8527 -0.2989
vn -0.6509 -0.7092 -0.2708
vn -0.5115 -0.6348 -0.5791
vn -0.7796 -0.5059 -0.3693
vn -0.5976 -0.3829 -0.7045
vn -0.6436 -0.2261 -0.7312
vn -0.3887 -0.1600 -0.9074
vn -0.4360 0.0145 -0.8998
vn -0.1001 0.1255 -0.9870
vn -0.1037 -0.0923 -0.9903
vn -0.0587 0.3329 -0.9411
vn -0.3243 0.3355 -0.8845
vn -0.7798 0.1182 -0.6148
vn -0.2632 0.7649 -0.5879
vn -0.7752 -0.2763 -0.5681
vn -0.7259 0.6751 -0.1315
vn -0.9506 0.0048 -0.3104
vn -0.9023 -0.3772 -0.2088
vn -0.9134 -0.3964 -0.0929
vn -0.8936 -0.4043 0.1948
vn -0.8141 -0.5805 0.0135
vn -0.6740 -0.7377 -0.0391
vn -0.7449 -0.6126 0.2641
vn -0.7976 -0.4156 0.4373
vn -0.5616 -0.7061 0.4313
vn -0.8292 -0.3433 -0.4411
vn -0.2858 -0.7527 0.5931
vn 0.0755 -0.6777 0.7314
vn -0.2994 -0.5978 0.7436
vn 0.1862 -0.5413 0.8200
vn 0.4600 -0.4739 0.7509
vn 0.6550 -0.2363 0.7177
vn 0.3264 -0.3415 0.8814
vn 0.5476 0.0461 0.8354
vn 0.1495 0.0705 0.9862
vn -0.1427 -0.3545 0.9241
vn -0.5473 -0.3560 0.7574
vn -0.7420 -0.3218 0.5881
vn -0.5397 -0.5903 0.6002
vn 0.7629 -0.0705 0.6427
vn 0.8548 -0.1875 0.4839
vn 0.9634 -0.1090 0.2449
vn 0.9989 -0.0460 -0.0105
vn -0.0975 0.7001 -0.7073
vn 0.1328 0.5945 -0.7931
vn 0.2149 0.2741 -0.9374
vn 0.3327 0.7390 -0.5858
vn 0.4150 0.5857 -0.6962
vn 0.2832 0.8706 -0.4023
vn 0.5058 0.8044 -0.3115
vn 0.6150 0.6544 -0.4399
vn 0.1207 0.9907 -0.0627
vn 0.3393 0.9326 -0.1233
vn 0.5526 0.8333 -0.0162
vn 0.3702 0.4159 -0.8306
vn 0.2426 -0.0481 -0.9689
vn 0.0713 -0.4488 -0.8908
vn 0.4430 -0.3244 -0.8358
vn 0.2962 -0.6769 -0.6739
vn 0.0606 -0.9385 -0.3399
vn -0.0117 -0.8599 -0.5103
vn -0.1648 -0.7191 -0.6751
vn -0.2787 -0.4280 -0.8598
vn 0.7274 -0.2680 -0.6317
vn 0.3037 0.9296 0.2088
vt 0.256114 0.906111
vt 0.233945 0.906111
vt 0.235167 0.888377
vt 0.252106 0.923845
vt 0.252854 0.888377
vt 0.285426 0.922162
vt 0.268073 0.871810
vt 0.296309 0.896018
vt 0.312127 0.870754
vt 0.296684 0.870643
vt 0.312127 0.852909
vt 0.299457 0.852909
vt 0.312127 0.832117
vt 0.046118 0.852909
vt 0.029795 0.870754
vt 0.033865 0.852909
vt 0.040663 0.832076
vt 0.028384 0.832117
vt 0.060312 0.835175
vt 0.057434 0.852909
vt 0.049555 0.870643
vt 0.078118 0.835175
vt 0.072718 0.852909
vt 0.063511 0.885311
vt 0.072718 0.886545
vt 0.081585 0.852909
vt 0.081585 0.870643
vt 0.081584 0.889403
vt 0.070973 0.910448
vt 0.063745 0.906111
vt 0.090452 0.870643
vt 0.090452 0.888377
vt 0.094598 0.906111
vt 0.105692 0.936811
vt 0.115810 0.923845
vt 0.211700 0.941579
vt 0.201289 0.959312
vt 0.168472 0.941579
vt 0.148088 0.959312
vt 0.131377 0.925102
vt 0.130354 0.959312
vt 0.086019 0.959312
vt 0.068285 0.959312
vt 0.043963 0.941579
vt 0.312127 0.941579
vt 0.307693 0.959312
vt 0.286230 0.941579
vt 0.245605 0.959236
vt 0.307681 0.923845
vt 0.044126 0.923845
vt 0.028384 0.906111
vt 0.115285 0.902574
vt 0.102325 0.894390
vt 0.102643 0.870643
vt 0.097113 0.852909
vt 0.120058 0.894387
vt 0.124519 0.870643
vt 0.112992 0.852909
vt 0.138579 0.888377
vt 0.139221 0.870643
vt 0.129420 0.852909
vt 0.155174 0.888377
vt 0.147722 0.852909
vt 0.140198 0.835175
vt 0.165291 0.852909
vt 0.152521 0.835175
vt 0.175357 0.865895
vt 0.165927 0.835175
vt 0.183394 0.835175
vt 0.191924 0.869272
vt 0.201458 0.837033
vt 0.196856 0.805948
vt 0.183621 0.805797
vt 0.209742 0.799707
vt 0.210085 0.817441
vt 0.191158 0.770036
vt 0.175204 0.772594
vt 0.165700 0.737612
vt 0.157502 0.771319
vt 0.183829 0.746505
vt 0.192554 0.728771
vt 0.201460 0.746505
vt 0.156555 0.711037
vt 0.192693 0.711037
vt 0.160178 0.693303
vt 0.145325 0.735486
vt 0.139756 0.772541
vt 0.126307 0.746505
vt 0.121858 0.764239
vt 0.125920 0.791594
vt 0.104095 0.746505
vt 0.117210 0.728771
vt 0.122012 0.711037
vt 0.130354 0.675570
vt 0.096348 0.693303
vt 0.087424 0.711037
vt 0.087189 0.728771
vt 0.051529 0.711037
vt 0.059418 0.675570
vt 0.043108 0.693303
vt 0.053236 0.736763
vt 0.028384 0.711037
vt 0.293339 0.711037
vt 0.298486 0.737332
vt 0.278021 0.739295
vt 0.292032 0.768292
vt 0.272327 0.772485
vt 0.273253 0.800186
vt 0.258925 0.792463
vt 0.264826 0.826085
vt 0.246191 0.817441
vt 0.245386 0.791975
vt 0.244179 0.841069
vt 0.256013 0.852909
vt 0.273185 0.852909
vt 0.255561 0.870643
vt 0.281223 0.835175
vt 0.279620 0.870643
vt 0.285526 0.852909
vt 0.298645 0.831392
vt 0.307325 0.787328
vt 0.041258 0.787684
vt 0.028384 0.787750
vt 0.032923 0.764239
vt 0.312127 0.738927
vt 0.312127 0.764239
vt 0.050399 0.764239
vt 0.033098 0.738927
vt 0.056955 0.792095
vt 0.068425 0.755627
vt 0.291807 0.791418
vt 0.086467 0.754451
vt 0.103931 0.771769
vt 0.090452 0.793144
vt 0.103043 0.799707
vt 0.117053 0.793311
vt 0.120184 0.817441
vt 0.102800 0.817441
vt 0.103022 0.835175
vt 0.090452 0.835175
vt 0.090452 0.817441
vt 0.081585 0.814544
vt 0.069320 0.808397
vt 0.077273 0.781973
vt 0.121128 0.835175
vt 0.139519 0.805987
vt 0.157375 0.805579
vt 0.170255 0.805922
vt 0.241191 0.870643
vt 0.229017 0.870643
vt 0.228172 0.824826
vt 0.217199 0.888377
vt 0.210998 0.870643
vt 0.222424 0.906111
vt 0.187580 0.906111
vt 0.194454 0.888377
vt 0.221541 0.923845
vt 0.180781 0.923845
vt 0.156932 0.906111
vt 0.214590 0.841184
vt 0.227708 0.790957
vt 0.236613 0.754707
vt 0.217127 0.770936
vt 0.221058 0.736513
vt 0.229725 0.693303
vt 0.192422 0.675570
vt 0.243123 0.711037
vt 0.254956 0.728771
vt 0.263358 0.675570
vt 0.295707 0.693303
vt 0.254169 0.752725
vt 0.202841 0.774856
vt 0.137456 0.910303
s 1
f 4/1/1 1/2/2 3/3/3
f 2/4/4 1/2/2 4/1/1
f 4/1/1 3/3/3 5/5/5
f 6/6/6 2/4/4 4/1/1
f 6/6/6 4/1/1 7/7/7
f 4/1/1 5/5/5 7/7/7
f 6/6/6 7/7/7 8/8/8
f 11/9/9 8/8/8 9/10/10
f 12/11/11 9/10/10 10/12/12
f 12/11/11 11/9/9 9/10/10
f 13/13/13 12/11/11 10/12/12
f 15/14/14 11/15/9 12/16/11
f 15/14/14 12/16/11 14/17/15
f 12/16/11 13/18/13 14/17/15
f 16/19/16 18/20/17 15/14/14
f 16/19/16 15/14/14 14/17/15
f 15/14/14 17/21/18 11/15/9
f 18/20/17 17/21/18 15/14/14
f 20/22/19 19/23/20 18/20/17
f 19/23/20 21/24/21 18/20/17
f 20/22/19 18/20/17 16/19/16
f 18/20/17 21/24/21 17/21/18
f 19/23/20 22/25/22 21/24/21
f 24/26/23 23/27/24 22/25/22
f 24/26/23 22/25/22 19/23/20
f 23/27/24 26/28/25 22/25/22
f 22/25/22 25/29/26 27/30/27
f 26/28/25 25/29/26 22/25/22
f 22/25/22 27/30/27 21/24/21
f 29/31/28 28/32/29 26/28/25
f 30/33/30 26/28/25 28/32/29
f 29/31/28 26/28/25 23/27/24
f 31/34/31 26/28/25 30/33/30
f 32/35/32 31/34/31 30/33/30
f 35/36/33 33/37/34 34/38/35
f 34/38/35 33/39/34 36/40/36
f 36/40/36 33/41/34 31/34/31
f 31/34/31 33/42/34 26/28/25
f 26/28/25 33/43/34 37/44/37
f 37/45/37 33/46/34 38/47/38
f 38/47/38 33/48/34 2/4/4
f 38/47/38 2/4/4 6/6/6
f 39/49/39 38/47/38 6/6/6
f 8/8/8 39/49/39 6/6/6
f 27/30/27 39/50/39 8/51/8
f 11/15/9 27/30/27 8/51/8
f 21/24/21 27/30/27 11/15/9
f 17/21/18 21/24/21 11/15/9
f 25/29/26 37/44/37 39/50/39
f 27/30/27 25/29/26 39/50/39
f 25/29/26 26/28/25 37/44/37
f 39/49/39 37/45/37 38/47/38
f 31/34/31 32/35/32 36/40/36
f 36/40/36 32/35/32 40/52/40
f 32/35/32 41/53/41 40/52/40
f 32/35/32 30/33/30 41/53/41
f 30/33/30 28/32/29 41/53/41
f 41/53/41 28/32/29 29/31/28
f 40/52/40 41/53/41 42/54/42
f 41/53/41 29/31/28 42/54/42
f 43/55/43 42/54/42 29/31/28
f 44/56/44 40/52/40 42/54/42
f 44/56/44 42/54/42 46/57/45
f 46/57/45 42/54/42 45/58/46
f 42/54/42 43/55/43 45/58/46
f 47/59/47 44/56/44 46/57/45
f 47/59/47 46/57/45 49/60/48
f 49/60/48 46/57/45 48/61/49
f 46/57/45 45/58/46 48/61/49
f 50/62/50 47/59/47 49/60/48
f 49/60/48 48/61/49 51/63/51
f 51/63/51 48/61/49 52/64/52
f 49/60/48 51/63/51 54/65/53
f 54/65/53 51/63/51 53/66/54
f 51/63/51 52/64/52 53/66/54
f 55/67/55 49/60/48 54/65/53
f 54/65/53 53/66/54 56/68/56
f 55/67/55 54/65/53 56/68/56
f 55/67/55 56/68/56 57/69/57
f 57/69/57 58/70/58 55/67/55
f 60/71/59 58/70/58 57/69/57
f 61/72/60 57/69/57 59/73/61
f 61/72/60 60/71/59 57/69/57
f 63/74/62 62/75/63 61/72/60
f 62/75/63 60/71/59 61/72/60
f 61/72/60 59/73/61 64/76/64
f 59/73/61 65/77/65 64/76/64
f 67/78/66 65/77/65 66/79/67
f 65/77/65 67/78/66 68/80/68
f 64/76/64 65/77/65 68/80/68
f 68/80/68 67/78/66 69/81/69
f 64/76/64 68/80/68 70/82/70
f 70/82/70 68/80/68 69/81/69
f 69/81/69 72/83/71 71/84/72
f 71/84/72 72/83/71 73/85/73
f 72/83/71 67/78/66 75/86/74
f 67/78/66 66/79/67 75/86/74
f 75/86/74 66/79/67 76/87/75
f 77/88/76 76/87/75 78/89/77
f 75/86/74 76/87/75 77/88/76
f 76/87/75 79/90/78 78/89/77
f 78/89/77 81/91/79 77/88/76
f 77/88/76 81/91/79 80/92/80
f 75/86/74 77/88/76 80/92/80
f 82/93/81 75/86/74 80/92/80
f 73/85/73 72/83/71 82/93/81
f 72/83/71 75/86/74 82/93/81
f 74/94/82 73/85/73 83/95/83
f 73/85/73 82/93/81 83/95/83
f 80/92/80 84/96/84 82/93/81
f 83/95/83 82/93/81 84/96/84
f 80/92/80 85/97/85 84/96/84
f 84/96/84 87/98/86 83/95/83
f 74/99/82 83/95/83 86/100/87
f 87/98/86 86/100/87 83/95/83
f 85/97/85 87/98/86 84/96/84
f 85/97/85 88/101/88 87/98/86
f 87/98/86 89/102/89 86/100/87
f 89/103/89 90/104/90 91/105/91
f 90/104/90 92/106/92 91/105/91
f 91/105/91 92/106/92 93/107/93
f 93/107/93 94/108/94 95/109/95
f 95/109/95 96/110/96 98/111/97
f 94/108/94 96/110/96 95/109/95
f 95/109/95 98/111/97 97/112/98
f 96/110/96 99/113/99 98/111/97
f 96/110/96 100/114/100 99/113/99
f 96/110/96 102/115/101 100/114/100
f 102/115/101 101/116/102 100/114/100
f 103/117/103 102/115/101 96/110/96
f 102/115/101 7/7/7 101/116/102
f 102/115/101 104/118/104 7/7/7
f 105/119/105 104/118/104 102/115/101
f 8/8/8 7/7/7 104/118/104
f 10/12/12 104/118/104 105/119/105
f 103/117/103 105/119/105 102/115/101
f 106/120/106 105/119/105 103/117/103
f 106/120/106 10/12/12 105/119/105
f 107/121/107 13/13/13 106/120/106
f 108/122/108 13/18/13 107/123/107
f 108/122/108 107/123/107 109/124/109
f 110/125/110 109/126/109 92/106/92
f 109/126/109 107/121/107 92/106/92
f 108/122/108 109/124/109 111/127/111
f 111/127/111 109/124/109 110/128/110
f 112/129/112 108/122/108 111/127/111
f 111/127/111 110/128/110 88/101/88
f 112/129/112 111/127/111 113/130/113
f 113/130/113 111/127/111 88/101/88
f 88/101/88 110/128/110 87/98/86
f 110/128/110 89/102/89 87/98/86
f 89/103/89 110/125/110 90/104/90
f 110/125/110 92/106/92 90/104/90
f 92/106/92 114/131/114 94/108/94
f 92/106/92 94/108/94 93/107/93
f 94/108/94 103/117/103 96/110/96
f 114/131/114 103/117/103 94/108/94
f 106/120/106 103/117/103 114/131/114
f 107/121/107 106/120/106 114/131/114
f 92/106/92 107/121/107 114/131/114
f 115/132/115 113/130/113 85/97/85
f 113/130/113 88/101/88 85/97/85
f 116/133/116 117/134/117 115/132/115
f 118/135/118 117/134/117 116/133/116
f 119/136/119 118/135/118 116/133/116
f 121/137/120 118/135/118 119/136/119
f 121/137/120 120/138/121 118/135/118
f 120/138/121 122/139/122 124/140/123
f 118/135/118 120/138/121 123/141/124
f 120/138/121 124/140/123 123/141/124
f 124/140/123 43/55/43 24/26/23
f 122/139/122 43/55/43 124/140/123
f 123/141/124 124/140/123 20/22/19
f 124/140/123 24/26/23 20/22/19
f 20/22/19 24/26/23 19/23/20
f 123/141/124 20/22/19 125/142/125
f 125/142/125 20/22/19 126/143/126
f 117/134/117 123/141/124 125/142/125
f 118/135/118 123/141/124 117/134/117
f 117/134/117 125/142/125 127/144/127
f 127/144/127 125/142/125 126/143/126
f 117/134/117 127/144/127 115/132/115
f 127/144/127 113/130/113 115/132/115
f 126/143/126 16/19/16 112/129/112
f 112/129/112 16/19/16 14/17/15
f 112/129/112 14/17/15 108/122/108
f 108/122/108 14/17/15 13/18/13
f 127/144/127 126/143/126 112/129/112
f 127/144/127 112/129/112 113/130/113
f 126/143/126 20/22/19 16/19/16
f 43/55/43 29/31/28 23/27/24
f 43/55/43 23/27/24 24/26/23
f 122/139/122 45/58/46 43/55/43
f 128/145/128 45/58/46 122/139/122
f 121/137/120 122/139/122 120/138/121
f 121/137/120 128/145/128 122/139/122
f 48/61/49 45/58/46 128/145/128
f 129/146/129 52/64/52 128/145/128
f 48/61/49 128/145/128 52/64/52
f 129/146/129 128/145/128 121/137/120
f 129/146/129 121/137/120 79/90/78
f 53/66/54 52/64/52 129/146/129
f 53/66/54 129/146/129 130/147/130
f 56/68/56 53/66/54 130/147/130
f 56/68/56 130/147/130 131/148/131
f 57/69/57 56/68/56 131/148/131
f 57/69/57 131/148/131 59/73/61
f 131/148/131 130/147/130 66/79/67
f 59/73/61 131/148/131 65/77/65
f 131/148/131 66/79/67 65/77/65
f 130/147/130 76/87/75 66/79/67
f 130/147/130 129/146/129 76/87/75
f 121/137/120 119/136/119 79/90/78
f 79/90/78 119/136/119 78/89/77
f 119/136/119 116/133/116 78/89/77
f 78/89/77 116/133/116 81/91/79
f 116/133/116 115/132/115 81/91/79
f 81/91/79 115/132/115 85/97/85
f 129/146/129 79/90/78 76/87/75
f 13/13/13 10/12/12 106/120/106
f 10/12/12 9/10/10 104/118/104
f 9/10/10 8/8/8 104/118/104
f 5/5/5 132/149/132 101/116/102
f 100/114/100 101/116/102 132/149/132
f 5/5/5 3/3/3 132/149/132
f 3/3/3 133/150/133 132/149/132
f 99/113/99 132/149/132 133/150/133
f 100/114/100 132/149/132 99/113/99
f 99/113/99 133/150/133 143/151/134
f 3/3/3 134/152/135 133/150/133
f 143/151/134 133/150/133 135/153/136
f 133/150/133 134/152/135 135/153/136
f 134/152/135 136/154/137 137/155/138
f 135/153/136 134/152/135 141/156/139
f 134/152/135 137/155/138 141/156/139
f 137/155/138 138/157/140 139/158/141
f 136/154/137 138/157/140 137/155/138
f 138/157/140 34/38/35 139/158/141
f 137/155/138 139/158/141 140/159/142
f 137/155/138 140/159/142 50/62/50
f 137/155/138 50/62/50 141/156/139
f 141/156/139 50/62/50 55/67/55
f 50/62/50 49/60/48 55/67/55
f 58/70/58 141/156/139 55/67/55
f 62/75/63 142/160/143 60/71/59
f 143/151/134 142/160/143 62/75/63
f 144/161/144 62/75/63 63/74/62
f 144/161/144 143/151/134 62/75/63
f 145/162/145 97/112/98 144/161/144
f 145/162/145 144/161/144 146/163/146
f 145/162/145 146/163/146 147/164/147
f 146/163/146 70/82/70 147/164/147
f 147/164/147 70/82/70 69/81/69
f 147/164/147 69/81/69 71/84/72
f 71/84/72 73/85/73 149/165/148
f 74/166/82 149/165/148 73/85/73
f 148/167/149 71/84/72 149/165/148
f 147/164/147 71/84/72 148/167/149
f 148/167/149 150/168/150 147/164/147
f 150/168/150 145/162/145 147/164/147
f 74/169/82 86/170/87 149/165/148
f 86/170/87 148/167/149 149/165/148
f 86/170/87 89/103/89 148/167/149
f 89/103/89 150/168/150 148/167/149
f 89/103/89 91/105/91 150/168/150
f 150/168/150 91/105/91 151/171/151
f 151/171/151 97/112/98 145/162/145
f 151/171/151 95/109/95 97/112/98
f 97/112/98 98/111/97 143/151/134
f 97/112/98 143/151/134 144/161/144
f 143/151/134 135/153/136 142/160/143
f 142/160/143 135/153/136 60/71/59
f 60/71/59 135/153/136 58/70/58
f 135/153/136 141/156/139 58/70/58
f 98/111/97 99/113/99 143/151/134
f 150/168/150 151/171/151 145/162/145
f 93/107/93 95/109/95 151/171/151
f 91/105/91 93/107/93 151/171/151
f 146/163/146 152/172/152 70/82/70
f 152/172/152 64/76/64 70/82/70
f 146/163/146 63/74/62 152/172/152
f 63/74/62 61/72/60 152/172/152
f 61/72/60 64/76/64 152/172/152
f 144/161/144 63/74/62 146/163/146
f 139/158/141 153/173/153 140/159/142
f 140/159/142 47/59/47 50/62/50
f 140/159/142 153/173/153 47/59/47
f 36/40/36 44/56/44 153/173/153
f 153/173/153 44/56/44 47/59/47
f 36/40/36 40/52/40 44/56/44
f 34/38/35 36/40/36 153/173/153
f 34/38/35 153/173/153 139/158/141
f 138/157/140 35/36/33 34/38/35
f 138/157/140 136/154/137 1/2/2
f 1/2/2 136/154/137 134/152/135
f 2/4/4 35/36/33 138/157/140
f 2/4/4 138/157/140 1/2/2
f 1/2/2 134/152/135 3/3/3
f 7/7/7 5/5/5 101/116/102
f 81/91/79 85/97/85 80/92/80
f 69/81/69 67/78/66 72/83/71
f 2/4/4 33/48/34 35/36/33
