o rosi_lantern_fins_LOD1
v 0.425095 0.317060 0.099881
v 0.509693 0.349925 -0.006093
v 0.526777 0.360322 -0.013981
v 0.562959 0.342452 -0.110826
v 0.431060 0.323975 0.107926
v 0.425095 0.317060 0.099881
v 0.441122 0.398594 0.121222
v 0.527241 0.454243 0.011393
v 0.442396 0.586808 0.122919
v 0.523306 0.607248 0.008158
v 0.430691 0.675944 0.107656
v 0.510537 0.651201 -0.005798
v 0.425095 0.682940 0.099880
v 0.559208 0.657722 -0.102229
v 0.594057 0.650128 -0.197171
v 0.606854 0.621212 -0.268323
v 0.609628 0.610248 -0.193713
v 0.570505 0.610377 -0.077133
v 0.620405 0.534946 -0.211494
v 0.575120 0.398941 -0.082473
v 0.614013 0.568511 -0.321497
v 0.616735 0.501512 -0.335897
v 0.613678 0.431047 -0.320828
v 0.607100 0.380320 -0.269791
v 0.611987 0.398220 -0.198364
v 0.593222 0.350276 -0.196295
v 0.423556 0.687803 0.096980
v 0.501907 0.644912 -0.007725
v 0.488964 0.619299 -0.007603
v 0.408951 0.598269 0.078349
v 0.542228 0.620335 -0.103440
v 0.553031 0.482703 -0.156704
v 0.488035 0.491898 -0.020081
v 0.407773 0.415425 0.076782
v 0.539531 0.393288 -0.107520
v 0.556179 0.339872 -0.105129
v 0.492868 0.365198 -0.008030
v 0.602885 0.379096 -0.268935
v 0.592973 0.351174 -0.197988
v 0.599504 0.464933 -0.319034
v 0.611812 0.431885 -0.320354
v 0.613739 0.500000 -0.334526
v 0.610155 0.569023 -0.321294
v 0.602809 0.620958 -0.269134
v 0.591965 0.649778 -0.198197
v 0.561256 0.656618 -0.109268
v 0.509693 0.650075 -0.006093
v 0.425095 0.682940 0.099880
v 0.509693 0.349925 -0.006093
v 0.423762 0.312793 0.097266
v 0.000000 0.363063 -0.395894
v 0.000000 0.358344 -0.575809
v 0.015941 0.364205 -0.564269
v 0.019473 0.422203 -0.663966
v -0.001181 0.366022 -0.396120
v 0.023378 0.401388 -0.364802
v 0.044751 0.471314 -0.514757
v 0.049157 0.589193 -0.600800
v 0.053972 0.733866 -0.490311
v 0.032220 0.821444 -0.619228
v 0.028275 0.591654 -0.733185
v 0.022554 0.685391 -0.718014
v 0.024766 0.490866 -0.717115
v 0.000000 0.411668 -0.683996
v 0.000000 0.483933 -0.747412
v 0.000000 0.577697 -0.764503
v 0.000000 0.692958 -0.738062
v 0.000000 0.812374 -0.659798
v 0.000000 0.913755 -0.559264
v 0.023087 0.934103 -0.483321
v 0.000000 0.963582 -0.452019
v 0.000000 0.966360 -0.356750
v 0.019211 0.896425 -0.277393
v 0.000000 0.919355 -0.272880
v 0.029865 0.924381 -0.367569
v 0.036419 0.774921 -0.252645
v 0.048395 0.655812 -0.326554
v 0.028368 0.576976 -0.222673
v 0.008863 0.643119 -0.169397
v 0.001393 0.822852 -0.195044
v 0.000000 0.647654 -0.165436
v 0.001182 0.647260 -0.168379
v -0.015941 0.812109 -0.201559
v -0.023378 0.609271 -0.196461
v -0.044752 0.741412 -0.296036
v -0.049157 0.801064 -0.429230
v -0.053972 0.662914 -0.547767
v -0.048395 0.518965 -0.437372
v -0.028369 0.433754 -0.338652
v -0.029865 0.503247 -0.708601
v -0.036419 0.421906 -0.538513
v -0.019211 0.420851 -0.662507
v -0.001392 0.355596 -0.573418
v 0.000000 0.411668 -0.683996
v 0.000000 0.483933 -0.747412
v -0.023086 0.614443 -0.742176
v 0.000000 0.577697 -0.764503
v 0.000000 0.692958 -0.738062
v -0.032220 0.770809 -0.660232
v 0.000000 0.812374 -0.659798
v -0.022553 0.895719 -0.547693
v 0.000000 0.913755 -0.559264
v -0.028274 0.930049 -0.459157
v 0.000000 0.963582 -0.452019
v -0.024766 0.935285 -0.357233
v 0.000000 0.966360 -0.356750
v 0.000000 0.919355 -0.272880
v 0.000000 0.824618 -0.198228
v -0.019473 0.897572 -0.279019
v 0.000000 0.647654 -0.165436
v -0.008863 0.367880 -0.392281
v 0.000000 0.363063 -0.395894
v -0.425095 0.317060 0.099881
v -0.526777 0.360322 -0.013981
v -0.509693 0.349925 -0.006093
v -0.562959 0.342452 -0.110826
v -0.593222 0.350276 -0.196295
v -0.607100 0.380320 -0.269791
v -0.613678 0.431047 -0.320828
v -0.616735 0.501512 -0.335897
v -0.614013 0.568511 -0.321497
v -0.606854 0.621212 -0.268323
v -0.620405 0.534946 -0.211494
v -0.611987 0.398220 -0.198364
v -0.431060 0.323975 0.107926
v -0.441122 0.398594 0.121222
v -0.527241 0.454243 0.011392
v -0.442396 0.586808 0.122919
v -0.523306 0.607248 0.008158
v -0.430691 0.675944 0.107656
v -0.510537 0.651201 -0.005798
v -0.425095 0.682940 0.099880
v -0.559208 0.657722 -0.102229
v -0.594057 0.650128 -0.197171
v -0.570505 0.610377 -0.077133
v -0.609628 0.610248 -0.193713
v -0.575120 0.398941 -0.082473
v -0.425095 0.317060 0.099881
v -0.423556 0.687803 0.096980
v -0.488964 0.619299 -0.007603
v -0.501907 0.644912 -0.007725
v -0.408951 0.598269 0.078349
v -0.488035 0.491898 -0.020081
v -0.407773 0.415425 0.076782
v -0.492868 0.365198 -0.008030
v -0.423762 0.312793 0.097266
v -0.509693 0.349925 -0.006093
v -0.556179 0.339872 -0.105129
v -0.592973 0.351174 -0.197988
v -0.602885 0.379096 -0.268935
v -0.599504 0.464933 -0.319034
v -0.611812 0.431885 -0.320354
v -0.613739 0.500000 -0.334526
v -0.610155 0.569023 -0.321294
v -0.602809 0.620958 -0.269134
v -0.591965 0.649778 -0.198197
v -0.561256 0.656618 -0.109268
v -0.509693 0.650075 -0.006093
v -0.425095 0.682940 0.099880
v -0.542228 0.620335 -0.103440
v -0.553031 0.482703 -0.156704
v -0.539531 0.393288 -0.107520
v 0.000000 0.374036 -0.855865
v 0.000000 0.441165 -0.919386
v 0.006035 0.453420 -0.923117
v 0.015103 0.441067 -0.879640
v 0.000022 0.374653 -0.855535
v 0.021607 0.571610 -0.809935
v 0.012799 0.660989 -0.842357
v 0.014944 0.579001 -0.927357
v 0.001374 0.646744 -0.910156
v 0.000665 0.557222 -0.954499
v 0.000000 0.503907 -0.945386
v 0.000000 0.604470 -0.941423
v 0.000000 0.671460 -0.857901
v 0.001489 0.681951 -0.801529
v 0.001496 0.663092 -0.750301
v 0.000000 0.625797 -0.715176
v 0.002170 0.569625 -0.690341
v 0.011932 0.610979 -0.727359
v 0.017210 0.481368 -0.728988
v 0.013684 0.391677 -0.767724
v -0.000190 0.403098 -0.712766
v 0.000613 0.494299 -0.684924
v -0.000165 0.403129 -0.712490
v -0.006446 0.490994 -0.689734
v -0.018023 0.500090 -0.738348
v -0.022452 0.573849 -0.815039
v -0.013633 0.384908 -0.801548
v -0.017001 0.442371 -0.870618
v -0.015165 0.537176 -0.919867
v -0.001255 0.557635 -0.955087
v -0.000936 0.503086 -0.946095
v -0.000607 0.439551 -0.919378
v -0.001481 0.604549 -0.942819
v -0.001461 0.647579 -0.909571
v -0.012752 0.654610 -0.863154
v 0.000000 0.671460 -0.857901
v -0.001374 0.681511 -0.800642
v -0.011253 0.649573 -0.760212
v 0.000000 0.662300 -0.751412
v -0.008753 0.592772 -0.707041
v 0.000000 0.625797 -0.715176
v 0.000000 0.570095 -0.692600
v 0.000000 0.495623 -0.685654
v 0.000000 0.402768 -0.712230
v 0.000286 0.374723 -0.855354
vn 0.4973 -0.8475 0.1854
vn 0.7749 -0.4476 0.4464
vn 0.4225 -0.8702 0.2534
vn 0.8760 -0.3651 0.3153
vn 0.9062 -0.1893 0.3781
vn 0.4414 -0.8402 0.3149
vn 0.7389 -0.5278 0.4189
vn 0.8020 -0.1237 0.5843
vn 0.8466 -0.0533 0.5295
vn 0.7976 0.0975 0.5952
vn 0.8410 0.2077 0.4996
vn 0.7364 0.5210 0.4316
vn 0.8116 0.3385 0.4761
vn 0.4743 0.8403 0.2627
vn 0.9837 0.1788 -0.0178
vn 0.9124 0.3601 0.1946
vn 0.9615 0.2085 0.1789
vn 0.8796 0.2216 0.4208
vn 0.8497 0.3751 0.3705
vn 0.9897 0.0237 0.1413
vn 0.9642 -0.2178 0.1515
vn 0.9963 0.0853 -0.0098
vn 0.9997 -0.0166 -0.0172
vn 0.9781 -0.2079 0.0002
vn 0.9985 -0.0539 -0.0066
vn 0.9173 -0.3469 0.1954
vn -0.6404 0.5947 -0.4860
vn -0.7882 0.2108 -0.5782
vn -0.7276 0.2620 -0.6340
vn -0.7500 0.1355 -0.6474
vn -0.8983 0.1734 -0.4038
vn -0.9318 -0.0270 -0.3621
vn -0.8306 -0.0111 -0.5567
vn -0.7571 -0.1143 -0.6432
vn -0.8881 -0.1827 -0.4218
vn -0.8748 -0.2951 -0.3842
vn -0.7485 -0.3880 -0.5378
vn -0.9385 -0.1996 -0.2817
vn -0.5842 -0.7343 -0.3457
vn -0.8219 -0.1141 -0.5581
vn -0.7120 -0.3230 -0.6235
vn -0.6958 0.0278 -0.7177
vn -0.9326 0.1226 -0.3395
vn -0.5540 0.7997 -0.2312
vn -0.8487 0.4310 -0.3066
vn -0.3707 0.8751 -0.3111
vn -0.9146 0.2257 -0.3355
vn -0.3850 0.8401 -0.3821
vn -0.5162 -0.7785 -0.3570
vn -0.7238 -0.2891 -0.6265
vn 0.3748 -0.8837 -0.2803
vn 0.7252 -0.6790 -0.1141
vn 0.2157 -0.9624 0.1649
vn 0.8612 -0.4283 -0.2737
vn 0.7841 -0.6145 0.0875
vn 0.9600 -0.2699 0.0738
vn 0.9850 -0.1708 -0.0240
vn 0.9936 -0.0339 -0.1081
vn 0.8531 0.3542 -0.3831
vn 0.9974 0.0685 -0.0200
vn 0.8824 0.0414 -0.4687
vn 0.8370 0.2038 -0.5078
vn 0.8947 -0.2242 -0.3863
vn 0.6491 -0.0008 -0.7607
vn 0.6240 -0.6119 -0.4860
vn 0.6730 -0.3095 -0.6717
vn 0.5755 0.3147 -0.7548
vn 0.5484 0.5086 -0.6638
vn 0.6243 0.6280 -0.4646
vn 0.8217 0.5256 -0.2204
vn 0.6352 0.7635 -0.1166
vn 0.7235 0.6711 0.1619
vn 0.9357 0.3410 0.0908
vn 0.8468 0.3827 0.3694
vn 0.6342 0.6064 0.4797
vn 0.9631 0.0796 0.2570
vn 0.9943 -0.0227 0.1037
vn 0.9815 -0.0543 0.1836
vn 0.8276 0.0744 0.5563
vn 0.9009 0.1686 0.3999
vn 0.3522 0.0703 0.9333
vn -0.7841 0.0421 0.6193
vn -0.7234 0.2471 0.6447
vn -0.9604 -0.0168 0.2783
vn -0.9874 0.0663 0.1438
vn -0.9936 0.1132 -0.0021
vn -0.9971 0.0190 -0.0738
vn -0.9959 -0.0786 0.0444
vn -0.9815 -0.1677 0.0925
vn -0.9268 -0.1435 -0.3471
vn -0.9637 -0.2659 -0.0256
vn -0.8468 -0.4406 -0.2981
vn -0.8990 -0.4329 -0.0659
vn -0.6342 -0.5952 -0.4934
vn -0.7235 -0.2979 -0.6227
vn -0.8169 0.0893 -0.5698
vn -0.6353 -0.0448 -0.7710
vn -0.6243 0.3239 -0.7109
vn -0.8618 0.2870 -0.4183
vn -0.5484 0.5435 -0.6356
vn -0.8390 0.4384 -0.3222
vn -0.5756 0.6729 -0.4646
vn -0.8948 0.4294 -0.1225
vn -0.6492 0.7442 -0.1574
vn -0.8943 0.4253 0.1395
vn -0.6730 0.7214 0.1631
vn -0.6240 0.6026 0.4975
vn -0.8710 0.3455 0.3493
vn -0.3747 0.4580 0.8062
vn -0.2156 0.0388 0.9757
vn -0.8214 -0.5688 0.0424
vn -0.3522 -0.9275 0.1253
vn -0.7694 -0.4358 0.4670
vn -0.4974 -0.8474 0.1855
vn -0.4226 -0.8702 0.2533
vn -0.8759 -0.3655 0.3150
vn -0.9971 0.0700 -0.0292
vn -0.9998 -0.0071 -0.0180
vn -0.9898 0.0235 0.1408
vn -0.9837 0.1788 -0.0178
vn -0.9671 -0.2132 0.1389
vn -0.9972 -0.0750 0.0049
vn -0.9803 -0.1960 -0.0241
vn -0.8985 -0.1757 0.4022
vn -0.7389 -0.5278 0.4189
vn -0.8021 -0.1234 0.5844
vn -0.8476 -0.0436 0.5288
vn -0.7976 0.0976 0.5953
vn -0.8273 0.1928 0.5276
vn -0.7364 0.5210 0.4316
vn -0.8199 0.4078 0.4018
vn -0.4744 0.8402 0.2627
vn -0.9183 0.3562 0.1730
vn -0.8794 0.2258 0.4192
vn -0.8497 0.3750 0.3706
vn -0.9595 0.2372 0.1518
vn -0.4414 -0.8403 0.3148
vn -0.9198 -0.3450 0.1868
vn 0.7934 0.2104 -0.5712
vn 0.6402 0.5949 -0.4860
vn 0.7276 0.2620 -0.6340
vn 0.7501 0.1355 -0.6473
vn 0.8443 -0.0086 -0.5359
vn 0.7561 -0.1157 -0.6441
vn 0.7478 -0.3893 -0.5379
vn 0.7238 -0.2891 -0.6265
vn 0.5163 -0.7785 -0.3568
vn 0.8520 -0.3084 -0.4230
vn 0.5841 -0.7343 -0.3457
vn 0.9316 -0.1754 -0.3185
vn 0.8098 -0.1170 -0.5749
vn 0.7120 -0.3229 -0.6236
vn 0.6958 0.0278 -0.7177
vn 0.9330 0.1215 -0.3389
vn 0.8497 0.4272 -0.3090
vn 0.5540 0.7998 -0.2311
vn 0.3707 0.8751 -0.3111
vn 0.3850 0.8401 -0.3821
vn 0.8984 0.1733 -0.4036
vn 0.9184 0.2298 -0.3222
vn 0.9319 -0.0276 -0.3617
vn 0.9022 -0.1834 -0.3905
vn 0.5101 -0.5350 -0.6735
vn 0.6942 -0.3228 -0.6433
vn 0.5942 -0.6464 -0.4787
vn 0.9760 -0.1478 -0.1599
vn 0.9558 -0.2624 -0.1328
vn 0.9377 0.0975 -0.3336
vn 0.9113 0.4017 -0.0899
vn 0.9992 0.0350 0.0216
vn 0.9430 0.2640 -0.2025
vn 0.8913 -0.0185 -0.4530
vn 0.7733 0.3040 -0.5564
vn 0.8085 -0.1385 -0.5720
vn 0.6794 0.6949 -0.2356
vn 0.9445 0.3022 0.1293
vn 0.9437 0.1689 0.2846
vn 0.7577 0.3701 0.5374
vn 0.9463 0.0468 0.3199
vn 0.9539 0.2522 0.1627
vn 0.9760 -0.0710 0.2060
vn 0.9915 -0.1152 0.0612
vn 0.9441 -0.1469 0.2952
vn 0.9351 -0.0258 0.3534
vn -0.7572 -0.1047 0.6447
vn -0.9914 -0.0155 0.1297
vn -0.9743 -0.1305 0.1834
vn -0.9745 -0.1427 -0.1734
vn -0.9907 -0.1358 -0.0021
vn -0.9983 0.0581 0.0015
vn -0.9659 -0.0060 -0.2588
vn -0.9411 0.0335 -0.3365
vn -0.9381 -0.1121 -0.3278
vn -0.9401 -0.1876 -0.2845
vn -0.9362 0.1915 -0.2946
vn -0.9102 0.3822 -0.1594
vn -0.6731 0.7082 -0.2128
vn -0.9383 0.3444 0.0311
vn -0.9253 0.3194 0.2045
vn -0.7302 0.5627 0.3875
vn -0.8255 0.2068 0.5251
vn -0.7888 0.3872 0.4773
vn -0.6885 0.1060 0.7174
vn -0.4239 0.0008 0.9057
vn -0.9645 0.1298 -0.2298
vn -0.2692 -0.3973 0.8773
vn -0.9331 -0.2830 -0.2217
vt -0.500000 0.882632
vt -0.221194 0.862903
vt 0.499211 0.994397
vt -0.511065 0.813549
vt -0.183885 0.642171
vt 0.021350 0.874588
vt 0.011480 0.632495
vt -0.041525 0.500755
vt 0.011305 0.214734
vt -0.082342 0.158350
vt 0.021376 0.065670
vt -0.502007 0.058869
vt 0.499215 0.011010
vt -0.497569 0.197066
vt -0.498285 0.149743
vt -0.312808 0.199095
vt -0.194251 0.168569
vt -0.461422 0.108474
vt -0.279133 0.328378
vt -0.304785 0.587828
vt -0.500958 0.253800
vt -0.499314 0.363630
vt -0.500310 0.615701
vt -0.499792 0.492256
vt -0.494438 0.720321
vt 1.237630 0.079188
vt 1.096412 0.137634
vt 0.485558 0.009310
vt 0.991843 0.194598
vt 1.234312 0.158182
vt 1.198688 0.388391
vt 1.045598 0.392525
vt 0.991981 0.587224
vt 1.201989 0.580671
vt 1.468853 0.804639
vt 1.176721 0.815344
vt 1.498102 0.616449
vt 1.500002 0.721251
vt 1.439193 0.426179
vt 1.500002 0.492336
vt 1.500002 0.363665
vt 1.499797 0.253686
vt 1.500002 0.105563
vt 1.499531 0.149340
vt 1.499998 0.059057
vt 1.497662 0.196946
vt 1.500002 0.882645
vt 0.491335 0.996433
vt -0.236805 0.875655
vt -0.345153 0.783346
vt 0.492261 0.992752
vt 0.013220 0.731097
vt -0.094206 0.595753
vt -0.212877 0.519280
vt -0.401198 0.344518
vt -0.202198 0.318088
vt -0.402633 0.589464
vt -0.438878 0.489186
vt -0.383910 0.699393
vt -0.500001 0.615668
vt -0.500004 0.811800
vt -0.500003 0.721187
vt -0.500003 0.492267
vt -0.500001 0.363628
vt -0.499999 0.253822
vt -0.433598 0.218152
vt -0.499998 0.196979
vt -0.499998 0.149646
vt -0.363272 0.168104
vt -0.343725 0.118717
vt -0.499997 0.105813
vt -0.114232 0.141356
vt -0.041538 0.265159
vt 0.011402 0.206961
vt 0.021799 0.063064
vt -0.485751 0.060086
vt 0.506239 0.011749
vt 1.241463 0.077775
vt 0.990033 0.144089
vt 1.100440 0.205744
vt 1.217802 0.241746
vt 1.207248 0.415381
vt 1.048355 0.500336
vt 0.991842 0.608016
vt 1.366551 0.677254
vt 1.120250 0.734587
vt 1.347220 0.782994
vt 1.486005 0.882114
vt 1.500002 0.811859
vt 1.436098 0.568424
vt 1.500002 0.615736
vt 1.404055 0.385711
vt 1.441309 0.255146
vt 1.500002 0.253681
vt 1.405471 0.208219
vt 1.500002 0.196850
vt 1.386946 0.158157
vt 1.500002 0.149402
vt 1.348614 0.118483
vt 0.981463 0.879021
vt -0.221194 0.862903
vt -0.511065 0.813549
vt -0.500957 0.253800
vt -0.041525 0.500755
vt 0.021376 0.065670
vt -0.502007 0.058869
vt -0.194251 0.168569
vt 0.485558 0.009310
vt 0.991843 0.194598
vt 1.045598 0.392525
vt 0.491335 0.996433
vt 1.468854 0.804639
vt 1.499531 0.149340
vt 1.201989 0.580671
vt -0.259843 0.851491
vt -0.080272 0.698628
vt 0.476337 0.988473
vt -0.354765 0.601588
vt -0.412897 0.350169
vt -0.201445 0.318266
vt -0.499891 0.492261
vt -0.499051 0.721039
vt -0.501274 0.253792
vt -0.363596 0.168058
vt -0.493875 0.106328
vt -0.499369 0.197001
vt -0.090542 0.183421
vt 0.011210 0.311920
vt 0.488532 0.012186
vt -0.484360 0.060190
vt 1.237844 0.079109
vt 1.097620 0.207012
vt 0.519594 0.013442
vt 1.081935 0.660916
vt 0.992022 0.498315
vt 1.211615 0.339551
vt 1.271589 0.651691
vt 1.500744 0.721369
vt 1.496540 0.811303
vt 1.483518 0.882019
vt 1.501065 0.492392
vt 1.417151 0.378025
vt 1.499915 0.253683
vt 1.409202 0.207530
vt 1.370879 0.141179
vt 1.499290 0.615657
vt 0.512187 0.991278
s 1
f 2/1/1 3/2/2 1/3/3
f 2/1/1 4/4/4 3/2/2
f 4/4/4 20/5/5 3/2/2
f 6/3/6 3/2/2 5/6/7
f 5/6/7 3/2/2 7/7/8
f 3/2/2 8/8/9 7/7/8
f 7/7/8 8/8/9 9/9/10
f 8/8/9 10/10/11 9/9/10
f 9/9/10 10/10/11 11/11/12
f 10/10/11 12/12/13 11/11/12
f 11/11/12 12/12/13 13/13/14
f 16/14/15 15/15/16 17/16/17
f 17/16/17 15/15/16 18/17/18
f 18/17/18 15/15/16 14/18/19
f 18/17/18 14/18/19 10/10/11
f 19/19/20 17/16/17 18/17/18
f 20/5/5 19/19/20 18/17/18
f 20/5/5 18/17/18 8/8/9
f 8/8/9 18/17/18 10/10/11
f 25/20/21 19/19/20 20/5/5
f 21/21/22 16/14/15 19/19/20
f 19/19/20 16/14/15 17/16/17
f 22/22/23 21/21/22 19/19/20
f 24/23/24 23/24/25 25/20/21
f 23/24/25 22/22/23 25/20/21
f 25/20/21 22/22/23 19/19/20
f 3/2/2 20/5/5 8/8/9
f 26/25/26 24/23/24 25/20/21
f 26/25/26 25/20/21 4/4/4
f 4/4/4 25/20/21 20/5/5
f 10/10/11 14/18/19 12/12/13
f 28/26/27 29/27/28 27/28/29
f 27/28/29 29/27/28 30/29/30
f 31/30/31 32/31/32 29/27/28
f 29/27/28 32/31/32 33/32/33
f 29/27/28 33/32/33 30/29/30
f 30/29/30 33/32/33 34/33/34
f 32/31/32 35/34/35 33/32/33
f 35/34/35 36/35/36 37/36/37
f 33/32/33 35/34/35 37/36/37
f 33/32/33 37/36/37 34/33/34
f 35/34/35 38/37/38 36/35/36
f 38/37/38 39/38/39 36/35/36
f 38/37/38 40/39/40 41/40/41
f 41/40/41 40/39/40 42/41/42
f 40/39/40 43/42/43 42/41/42
f 46/43/44 45/44/45 47/45/46
f 47/45/46 45/44/45 28/26/27
f 45/44/45 31/30/31 28/26/27
f 44/46/47 31/30/31 45/44/45
f 31/30/31 44/46/47 43/42/43
f 40/39/40 31/30/31 43/42/43
f 32/31/32 31/30/31 40/39/40
f 38/37/38 32/31/32 40/39/40
f 35/34/35 32/31/32 38/37/38
f 28/26/27 31/30/31 29/27/28
f 47/45/46 28/26/27 48/13/48
f 37/36/37 36/35/36 49/47/49
f 37/36/37 49/47/49 50/48/50
f 34/33/34 37/36/37 50/48/50
f 52/1/51 53/49/52 51/3/53
f 52/1/51 54/50/54 53/49/52
f 55/51/55 53/49/52 56/52/56
f 53/49/52 57/53/57 56/52/56
f 58/54/58 60/55/59 59/56/60
f 61/57/61 60/55/59 58/54/58
f 62/58/62 60/55/59 61/57/61
f 63/59/63 61/57/61 58/54/58
f 63/59/63 58/54/58 57/53/57
f 54/50/54 63/59/63 57/53/57
f 63/59/63 66/60/64 61/57/61
f 64/61/65 63/59/63 54/50/54
f 65/62/66 63/59/63 64/61/65
f 65/62/66 66/60/64 63/59/63
f 66/60/64 67/63/67 61/57/61
f 61/57/61 67/63/67 62/58/62
f 67/63/67 68/64/68 62/58/62
f 62/58/62 68/64/68 60/55/59
f 68/64/68 69/65/69 60/55/59
f 60/55/59 69/65/69 70/66/70
f 69/65/69 71/67/71 70/66/70
f 71/67/71 72/68/72 70/66/70
f 75/69/73 72/68/72 73/70/74
f 73/70/74 72/68/72 74/71/75
f 70/66/70 72/68/72 75/69/73
f 76/72/76 75/69/73 73/70/74
f 59/56/60 75/69/73 76/72/76
f 59/56/60 76/72/76 77/73/77
f 77/73/77 76/72/76 78/74/78
f 78/74/78 76/72/76 79/75/79
f 76/72/76 80/76/80 79/75/79
f 76/72/76 73/70/74 80/76/80
f 73/70/74 74/71/75 80/76/80
f 79/75/79 80/76/80 81/13/81
f 56/52/56 77/73/77 78/74/78
f 57/53/57 59/56/60 77/73/77
f 57/53/57 77/73/77 56/52/56
f 58/54/58 59/56/60 57/53/57
f 60/55/59 75/69/73 59/56/60
f 60/55/59 70/66/70 75/69/73
f 64/61/65 54/50/54 52/1/51
f 54/50/54 57/53/57 53/49/52
f 82/77/82 83/78/83 84/79/84
f 83/78/83 85/80/85 84/79/84
f 86/81/86 87/82/87 85/80/85
f 85/80/85 88/83/88 84/79/84
f 85/80/85 87/82/87 88/83/88
f 84/79/84 88/83/88 89/84/89
f 87/82/87 90/85/90 91/86/91
f 87/82/87 91/86/91 88/83/88
f 88/83/88 91/86/91 89/84/89
f 91/86/91 90/85/90 92/87/92
f 91/86/91 92/87/92 93/88/93
f 92/87/92 94/89/94 93/88/93
f 92/87/92 95/38/95 94/89/94
f 90/85/90 95/38/95 92/87/92
f 90/85/90 96/90/96 95/38/95
f 95/38/95 96/90/96 97/91/97
f 97/91/97 96/90/96 98/40/98
f 96/90/96 99/92/99 98/40/98
f 98/40/98 99/92/99 100/41/100
f 99/92/99 101/93/101 100/41/100
f 100/41/100 101/93/101 102/94/102
f 101/93/101 103/95/103 102/94/102
f 102/94/102 103/95/103 104/96/104
f 103/95/103 105/97/105 104/96/104
f 104/96/104 105/97/105 106/98/106
f 106/98/106 105/97/105 107/43/107
f 107/43/107 105/97/105 109/99/108
f 107/43/107 109/99/108 108/45/109
f 108/45/109 109/99/108 83/78/83
f 109/99/108 105/97/105 85/80/85
f 86/81/86 105/97/105 103/95/103
f 105/97/105 86/81/86 85/80/85
f 99/92/99 103/95/103 101/93/101
f 99/92/99 86/81/86 103/95/103
f 87/82/87 86/81/86 99/92/99
f 90/85/90 99/92/99 96/90/96
f 90/85/90 87/82/87 99/92/99
f 109/99/108 85/80/85 83/78/83
f 108/45/109 83/78/83 110/13/110
f 111/100/111 93/88/93 112/3/112
f 89/84/89 91/86/91 111/100/111
f 91/86/91 93/88/93 111/100/111
f 114/101/113 115/1/114 113/3/115
f 116/102/116 115/1/114 114/101/113
f 121/103/117 120/22/118 123/19/119
f 122/14/120 121/103/117 123/19/119
f 120/22/118 124/20/121 123/19/119
f 120/22/118 119/24/122 124/20/121
f 119/24/122 118/23/123 124/20/121
f 124/20/121 116/102/116 137/5/124
f 137/5/124 116/102/116 114/101/113
f 114/101/113 125/6/125 126/7/126
f 127/104/127 114/101/113 126/7/126
f 127/104/127 126/7/126 128/9/128
f 129/10/129 127/104/127 128/9/128
f 129/10/129 128/9/128 130/105/130
f 131/106/131 129/10/129 130/105/130
f 131/106/131 130/105/130 132/13/132
f 134/15/133 135/107/134 133/18/135
f 133/18/135 129/10/129 131/106/131
f 133/18/135 135/107/134 129/10/129
f 134/15/133 136/16/136 135/107/134
f 136/16/136 123/19/119 135/107/134
f 123/19/119 137/5/124 135/107/134
f 135/107/134 127/104/127 129/10/129
f 135/107/134 137/5/124 127/104/127
f 123/19/119 124/20/121 137/5/124
f 137/5/124 114/101/113 127/104/127
f 134/15/133 122/14/120 136/16/136
f 122/14/120 123/19/119 136/16/136
f 114/101/113 138/3/137 125/6/125
f 118/23/123 117/25/138 124/20/121
f 124/20/121 117/25/138 116/102/116
f 140/27/139 141/26/140 139/108/141
f 140/27/139 139/108/141 142/109/142
f 143/110/143 140/27/139 142/109/142
f 143/110/143 142/109/142 144/33/144
f 145/36/145 143/110/143 144/33/144
f 145/36/145 144/33/144 146/111/146
f 147/47/147 145/36/145 146/111/146
f 148/112/148 145/36/145 147/47/147
f 149/38/149 150/37/150 148/112/148
f 151/39/151 150/37/150 152/40/152
f 151/39/151 152/40/152 153/41/153
f 154/42/154 151/39/151 153/41/153
f 156/113/155 157/43/156 158/45/157
f 156/113/155 158/45/157 141/26/140
f 141/26/140 158/45/157 159/13/158
f 160/30/159 156/113/155 141/26/140
f 160/30/159 155/46/160 156/113/155
f 161/31/161 160/30/159 140/27/139
f 161/31/161 140/27/139 143/110/143
f 162/114/162 161/31/161 143/110/143
f 161/31/161 162/114/162 150/37/150
f 161/31/161 150/37/150 151/39/151
f 160/30/159 161/31/161 151/39/151
f 155/46/160 160/30/159 154/42/154
f 160/30/159 151/39/151 154/42/154
f 148/112/148 162/114/162 145/36/145
f 150/37/150 162/114/162 148/112/148
f 162/114/162 143/110/143 145/36/145
f 160/30/159 141/26/140 140/27/139
f 164/1/163 165/115/164 163/3/165
f 165/115/164 166/116/166 167/117/167
f 170/118/168 169/119/169 168/120/170
f 171/121/171 169/119/169 170/118/168
f 172/122/172 170/118/168 165/115/164
f 172/122/172 174/60/173 170/118/168
f 173/61/174 172/122/172 165/115/164
f 174/60/173 171/121/171 170/118/168
f 171/121/171 175/64/175 169/119/169
f 175/64/175 176/123/176 169/119/169
f 180/124/177 178/68/178 179/125/179
f 177/126/180 178/68/178 180/124/177
f 181/127/181 180/124/177 179/125/179
f 168/120/170 180/124/177 181/127/181
f 182/128/182 181/127/181 183/129/183
f 181/127/181 184/130/184 183/129/183
f 181/127/181 179/125/179 184/130/184
f 166/116/166 181/127/181 182/128/182
f 166/116/166 168/120/170 181/127/181
f 170/118/168 168/120/170 166/116/166
f 169/119/169 180/124/177 168/120/170
f 176/123/176 177/126/180 169/119/169
f 169/119/169 177/126/180 180/124/177
f 167/117/167 166/116/166 182/128/182
f 173/61/174 165/115/164 164/1/163
f 165/115/164 170/118/168 166/116/166
f 186/131/185 187/132/186 185/133/187
f 187/132/186 190/134/188 189/135/189
f 187/132/186 188/136/190 190/134/188
f 188/136/190 191/137/191 190/134/188
f 191/137/191 192/138/192 193/139/193
f 191/137/191 193/139/193 190/134/188
f 190/134/188 193/139/193 194/140/194
f 196/141/195 197/142/196 198/41/197
f 197/142/196 199/143/198 198/41/197
f 199/143/198 200/144/199 201/96/200
f 200/144/199 202/145/201 201/96/200
f 201/96/200 202/145/201 203/98/202
f 203/98/202 202/145/201 204/43/203
f 204/43/203 202/145/201 205/45/204
f 205/45/204 202/145/201 186/131/185
f 188/136/190 202/145/201 200/144/199
f 202/145/201 188/136/190 187/132/186
f 197/142/196 200/144/199 199/143/198
f 197/142/196 188/136/190 200/144/199
f 191/137/191 188/136/190 197/142/196
f 191/137/191 197/142/196 195/146/205
f 195/146/205 197/142/196 196/141/195
f 192/138/192 191/137/191 195/146/205
f 202/145/201 187/132/186 186/131/185
f 205/45/204 186/131/185 206/13/206
f 189/135/189 190/134/188 207/147/207
f 190/134/188 194/140/194 207/147/207
f 185/133/187 187/132/186 189/135/189
