o tabby_ears_LOD1
v 0.208886 0.889149 -0.118763
v 0.340558 1.046187 -0.061721
v 0.443353 1.124949 0.026468
v 0.499632 0.942687 -0.058992
v 0.421915 0.990027 -0.086254
v 0.482543 0.709641 -0.030624
v 0.352007 0.789534 -0.120944
v 0.301803 0.735930 -0.095179
v 0.504516 0.931648 -0.010770
v 0.456849 1.084807 0.062372
v 0.443353 1.124949 0.026468
v 0.488870 0.732293 0.016686
v 0.416856 0.657880 -0.007471
v 0.432130 0.685481 0.037809
v 0.324841 0.676289 -0.017553
v 0.326521 0.675953 -0.017369
v 0.324841 0.676289 -0.017553
v 0.326521 0.675953 -0.017369
v 0.416856 0.657880 -0.007471
v -0.324841 0.676289 -0.017553
v -0.416856 0.657880 -0.007471
v -0.326521 0.675953 -0.017369
v 0.443353 1.124949 0.026468
v 0.421915 0.990027 -0.086254
v 0.340558 1.046187 -0.061721
v 0.208886 0.889149 -0.118763
v 0.352007 0.789534 -0.120944
v 0.301803 0.735930 -0.095179
v 0.168189 0.828490 -0.090717
v 0.175979 0.943735 0.035196
v 0.443353 1.124949 0.026468
v 0.154050 0.906226 0.112062
v 0.228274 0.737291 0.023828
v 0.324841 0.676289 -0.017553
v 0.443353 1.124949 0.026468
v 0.175979 0.943735 0.035196
v 0.251959 0.939158 0.189402
v 0.154050 0.906226 0.112062
v 0.225618 0.886922 0.198955
v 0.271908 0.882107 0.210908
v 0.293889 0.927500 0.200753
v 0.443353 1.124949 0.026468
v 0.456849 1.084807 0.062372
v 0.228274 0.737291 0.023828
v 0.228274 0.737291 0.023828
v 0.324841 0.676289 -0.017553
v 0.432130 0.685481 0.037809
v 0.335325 0.793787 0.093163
v 0.225618 0.886922 0.198955
v 0.271908 0.882107 0.210908
v 0.293889 0.927500 0.200753
v 0.347966 0.877618 0.038903
v 0.456849 1.084807 0.062372
v 0.504516 0.931648 -0.010770
v 0.488870 0.732293 0.016686
v -0.443353 1.124949 0.026468
v -0.340558 1.046187 -0.061721
v -0.421915 0.990027 -0.086254
v -0.208886 0.889149 -0.118763
v -0.352007 0.789534 -0.120944
v -0.301803 0.735930 -0.095179
v -0.168189 0.828490 -0.090717
v -0.324841 0.676289 -0.017553
v -0.228274 0.737291 0.023828
v -0.154050 0.906226 0.112062
v -0.175979 0.943735 0.035196
v -0.297988 1.070820 0.023819
v -0.443353 1.124949 0.026468
v -0.499632 0.942687 -0.058992
v -0.443353 1.124949 0.026468
v -0.421915 0.990027 -0.086254
v -0.482543 0.709641 -0.030624
v -0.504516 0.931648 -0.010770
v -0.456849 1.084807 0.062372
v -0.443353 1.124949 0.026468
v -0.488870 0.732293 0.016686
v -0.416856 0.657880 -0.007471
v -0.432130 0.685481 0.037809
v -0.324841 0.676289 -0.017553
v -0.301803 0.735930 -0.095179
v -0.326521 0.675953 -0.017369
v -0.352007 0.789534 -0.120944
v -0.297988 1.070820 0.023819
v -0.443353 1.124949 0.026468
v -0.251959 0.939158 0.189402
v -0.175979 0.943735 0.035196
v -0.154050 0.906226 0.112062
v -0.225618 0.886922 0.198955
v -0.228274 0.737291 0.023828
v -0.271908 0.882107 0.210908
v -0.293889 0.927500 0.200753
v -0.443353 1.124949 0.026468
v -0.456849 1.084807 0.062372
v -0.228274 0.737291 0.023828
v -0.432130 0.685481 0.037809
v -0.324841 0.676289 -0.017553
v -0.335325 0.793787 0.093163
v -0.225618 0.886922 0.198955
v -0.271908 0.882107 0.210908
v -0.293889 0.927500 0.200753
v -0.347966 0.877618 0.038903
v -0.456849 1.084807 0.062372
v -0.504516 0.931648 -0.010770
v -0.488870 0.732293 0.016686
vn -0.1501 0.9882 0.0301
vn -0.3994 0.6807 -0.6141
vn -0.4516 0.4075 -0.7937
vn 0.2692 0.1903 -0.9441
vn -0.1502 0.9882 0.0300
vn 0.6895 0.0294 -0.7237
vn 0.6009 -0.3403 -0.7233
vn 0.2016 -0.1130 -0.9729
vn -0.2712 -0.6421 -0.7171
vn 0.8205 -0.0232 0.5711
vn 0.6517 0.2673 0.7098
vn -0.1502 0.9882 0.0302
vn 0.7823 -0.0028 0.6229
vn 0.2392 -0.7986 -0.5523
vn 0.2906 -0.3614 0.8860
vn -0.3919 -0.8831 0.2582
vn -0.1714 -0.9651 -0.1982
vn -0.3919 -0.8831 0.2581
vn 0.2394 -0.7985 -0.5523
vn -0.3918 -0.8831 0.2581
vn -0.2393 -0.7986 -0.5523
vn 0.1713 -0.9651 -0.1981
vn 0.3918 -0.8831 0.2580
vn 0.2691 0.1903 -0.9441
vn 0.2015 -0.1130 -0.9730
vn -0.2713 -0.6421 -0.7170
vn -0.8699 -0.3646 -0.3322
vn -0.7148 0.6966 -0.0626
vn -0.9439 -0.1710 0.2824
vn -0.6235 -0.7330 0.2720
vn -0.3918 -0.8831 0.2582
vn -0.7147 0.6966 -0.0625
vn -0.4224 0.7642 0.4874
vn -0.1502 0.9882 0.0301
vn -0.9439 -0.1711 0.2826
vn -0.6330 -0.4681 0.6166
vn 0.3995 -0.5363 0.7435
vn 0.6700 0.1128 0.7338
vn 0.6518 0.2672 0.7098
vn 0.2905 -0.3614 0.8860
vn -0.6235 -0.7330 0.2719
vn 0.2899 -0.4451 0.8473
vn -0.6330 -0.4680 0.6166
vn 0.3995 -0.5364 0.7434
vn 0.6699 0.1129 0.7338
vn 0.6668 -0.1481 0.7303
vn 0.6517 0.2674 0.7098
vn 0.8206 -0.0231 0.5710
vn 0.7824 -0.0028 0.6228
vn 0.2773 0.5537 -0.7852
vn -0.2691 0.1903 -0.9441
vn -0.0475 0.9661 0.2539
vn 0.4239 0.3202 -0.8472
vn -0.2015 -0.1130 -0.9730
vn 0.2713 -0.6420 -0.7171
vn 0.8699 -0.3646 -0.3322
vn 0.3918 -0.8831 0.2582
vn 0.6235 -0.7330 0.2720
vn 0.9439 -0.1710 0.2824
vn 0.7423 0.6693 -0.0324
vn 0.5881 0.7998 0.1199
vn -0.0474 0.9660 0.2541
vn -0.2692 0.1903 -0.9441
vn -0.6895 0.0294 -0.7237
vn -0.6009 -0.3404 -0.7232
vn -0.8205 -0.0231 0.5712
vn -0.6516 0.2673 0.7099
vn -0.0475 0.9660 0.2540
vn -0.7823 -0.0027 0.6229
vn -0.2392 -0.7986 -0.5523
vn -0.2906 -0.3613 0.8860
vn 0.2712 -0.6421 -0.7171
vn 0.3919 -0.8831 0.2582
vn 0.1714 -0.9651 -0.1982
vn -0.2016 -0.1131 -0.9729
vn -0.0474 0.9661 0.2540
vn 0.3986 0.7236 0.5634
vn 0.5882 0.7998 0.1199
vn 0.7422 0.6694 -0.0323
vn 0.9439 -0.1711 0.2825
vn 0.6330 -0.4681 0.6166
vn -0.3995 -0.5363 0.7435
vn -0.6699 0.1128 0.7338
vn -0.6518 0.2673 0.7098
vn -0.2899 -0.4450 0.8473
vn -0.2905 -0.3613 0.8860
vn 0.6235 -0.7330 0.2719
vn 0.6331 -0.4680 0.6166
vn -0.3995 -0.5364 0.7434
vn -0.6699 0.1129 0.7338
vn -0.6668 -0.1481 0.7303
vn -0.6517 0.2674 0.7098
vn -0.8206 -0.0231 0.5710
vn -0.7824 -0.0028 0.6228
vt 0.890223 0.985535
vt 0.875870 0.896510
vt 0.875870 0.725976
vt 0.788696 0.878511
vt 0.816058 0.859407
vt 0.817308 0.648801
vt 0.787977 0.687669
vt 0.787238 0.621167
vt 0.837645 0.844517
vt 0.890225 0.950189
vt 0.838185 0.630338
vt 0.817127 0.579157
vt 0.840310 0.546983
vt 0.796111 0.552277
vt 0.796207 0.552515
vt 0.876084 0.896510
vt 0.890223 0.985535
vt 0.875870 0.656200
vt 0.961310 0.739849
vt 0.961311 0.684418
vt 0.875871 0.580828
vt 0.937898 0.738632
vt 0.938721 0.683535
vt 0.919395 0.656019
vt 0.918687 0.726936
vt 0.029744 0.692059
vt 0.025737 0.593865
vt 0.058641 0.672188
vt 0.054848 0.538239
vt 0.087664 0.553581
vt 0.081262 0.478495
vt 0.079883 0.427475
vt 0.050896 0.429530
vt 0.050896 0.186995
vt 0.026773 0.307388
vt 0.018111 0.525824
vt 0.959206 0.891294
s 1
f 3/1/1 2/2/2 1/3/3
f 5/4/4 3/1/5 4/5/6
f 5/4/4 4/5/6 6/6/7
f 7/7/8 5/4/4 6/6/7
f 8/8/9 7/7/8 6/6/7
f 4/5/6 9/9/10 6/6/7
f 10/10/11 9/9/10 4/5/6
f 11/1/12 10/10/11 4/5/6
f 9/9/10 12/11/13 6/6/7
f 6/6/7 12/11/13 13/12/14
f 13/12/14 8/8/9 6/6/7
f 12/11/13 14/13/15 13/12/14
f 13/12/14 14/13/15 15/14/16
f 8/8/9 13/12/14 16/15/17
f 15/14/18 8/8/9 16/15/17
f 18/15/17 19/12/19 17/14/20
f 21/12/21 22/15/22 20/14/23
f 24/4/24 25/16/2 23/17/1
f 26/3/3 25/16/2 24/4/24
f 27/7/25 26/3/3 24/4/24
f 26/3/3 27/7/25 28/8/26
f 29/18/27 26/3/3 28/8/26
f 30/19/28 26/3/3 29/18/27
f 30/19/28 31/1/1 26/3/3
f 32/20/29 30/19/28 29/18/27
f 29/18/27 33/21/30 32/20/29
f 34/14/31 33/21/30 29/18/27
f 28/8/26 34/14/31 29/18/27
f 36/19/32 37/22/33 35/1/34
f 37/22/33 36/19/32 38/20/35
f 39/23/36 37/22/33 38/20/35
f 39/23/36 40/24/37 37/22/33
f 40/24/37 41/25/38 37/22/33
f 37/22/33 41/25/38 42/1/5
f 41/25/38 43/10/39 42/1/5
f 44/21/30 39/23/36 38/20/35
f 46/26/31 47/27/40 45/28/41
f 47/27/40 48/29/42 45/28/41
f 45/28/41 48/29/42 49/30/43
f 48/29/42 50/31/44 49/30/43
f 51/32/45 50/31/44 48/29/42
f 52/33/46 51/32/45 48/29/42
f 53/34/47 51/32/45 52/33/46
f 53/34/47 52/33/46 54/35/48
f 54/35/48 52/33/46 55/36/49
f 55/36/49 52/33/46 47/27/40
f 52/33/46 48/29/42 47/27/40
f 57/16/50 58/4/51 56/17/52
f 57/16/50 59/3/53 58/4/51
f 59/3/53 60/7/54 58/4/51
f 60/7/54 59/3/53 61/8/55
f 59/3/53 62/18/56 61/8/55
f 63/14/57 61/8/55 62/18/56
f 64/21/58 63/14/57 62/18/56
f 64/21/58 62/18/56 65/20/59
f 66/19/60 65/20/59 62/18/56
f 67/37/61 66/19/60 59/3/53
f 59/3/53 66/19/60 62/18/56
f 68/1/62 67/37/61 57/16/50
f 57/16/50 67/37/61 59/3/53
f 70/1/52 71/4/63 69/5/64
f 69/5/64 71/4/63 72/6/65
f 73/9/66 69/5/64 72/6/65
f 73/9/66 74/10/67 69/5/64
f 74/10/67 75/1/68 69/5/64
f 76/11/69 73/9/66 72/6/65
f 76/11/69 72/6/65 77/12/70
f 78/13/71 76/11/69 77/12/70
f 78/13/71 77/12/70 79/14/57
f 80/8/72 79/14/73 81/15/74
f 77/12/70 80/8/72 81/15/74
f 82/7/75 80/8/72 72/6/65
f 80/8/72 77/12/70 72/6/65
f 71/4/63 82/7/75 72/6/65
f 84/1/76 85/22/77 83/37/78
f 85/22/77 86/19/79 83/37/78
f 86/19/79 85/22/77 87/20/80
f 85/22/77 88/23/81 87/20/80
f 88/23/81 89/21/58 87/20/80
f 90/24/82 88/23/81 85/22/77
f 91/25/83 90/24/82 85/22/77
f 91/25/83 85/22/77 92/1/76
f 93/10/84 91/25/83 92/1/76
f 97/29/85 95/27/86 94/28/87
f 95/27/86 96/26/73 94/28/87
f 97/29/85 94/28/87 98/30/88
f 99/31/89 97/29/85 98/30/88
f 99/31/89 100/32/90 97/29/85
f 100/32/90 101/33/91 97/29/85
f 100/32/90 102/34/92 101/33/91
f 101/33/91 102/34/92 103/35/93
f 101/33/91 103/35/93 104/36/94
f 101/33/91 104/36/94 95/27/86
f 97/29/85 101/33/91 95/27/86
