o ears_n_tail_LOD0
v 0.468964 1.124951 0.016886
v 0.483239 1.083842 0.056323
v 0.395681 1.029488 0.128823
v 0.468964 1.124951 0.016886
v 0.365483 1.059772 0.100961
v 0.347454 0.983567 0.174548
v 0.353842 0.956081 0.133755
v 0.390088 0.990671 0.101006
v 0.483239 1.083842 0.056323
v 0.454982 1.031546 0.046067
v 0.533661 0.919234 -0.015344
v 0.317845 0.890833 0.164136
v 0.492531 0.909549 -0.006571
v 0.310866 0.922658 0.208415
v 0.300171 0.855393 0.172959
v 0.309361 1.005615 0.155535
v 0.287615 0.875047 0.220826
v 0.226640 0.825404 0.147838
v 0.315201 1.067633 0.016083
v 0.468964 1.124951 0.016886
v 0.240544 1.011540 0.018913
v 0.266514 0.934562 0.195985
v 0.186145 0.933708 0.032802
v 0.162949 0.896894 0.115443
v 0.238652 0.879696 0.208012
v 0.528494 0.929124 -0.066728
v 0.468964 1.124951 0.016886
v 0.446288 0.978161 -0.097295
v 0.534845 0.800689 -0.053996
v 0.417714 0.867422 -0.122397
v 0.510417 0.683812 -0.028136
v 0.372341 0.764936 -0.126565
v 0.319237 0.709221 -0.097349
v 0.483239 1.083842 0.056323
v 0.468964 1.124951 0.016886
v 0.537747 0.811202 -0.005026
v 0.494743 0.828951 -0.001678
v 0.517110 0.709505 0.021040
v 0.478206 0.728580 0.019558
v 0.440936 0.629950 -0.001750
v 0.345382 0.648690 -0.012880
v 0.343606 0.649038 -0.013087
v 0.457092 0.660799 0.045098
v 0.432715 0.691805 0.039465
v -0.468964 1.124951 0.016886
v -0.483239 1.083842 0.056323
v -0.395681 1.029488 0.128823
v -0.468964 1.124951 0.016886
v -0.365483 1.059772 0.100961
v -0.347454 0.983567 0.174548
v -0.353842 0.956081 0.133755
v -0.390088 0.990671 0.101006
v -0.483239 1.083842 0.056323
v -0.454982 1.031546 0.046067
v -0.533661 0.919234 -0.015344
v -0.492531 0.909549 -0.006571
v -0.537747 0.811202 -0.005026
v -0.534845 0.800689 -0.053996
v -0.528494 0.929124 -0.066728
v -0.483239 1.083842 0.056323
v -0.468964 1.124951 0.016886
v -0.446288 0.978161 -0.097295
v -0.468964 1.124951 0.016886
v -0.417714 0.867422 -0.122397
v -0.510417 0.683812 -0.028136
v -0.372341 0.764936 -0.126565
v -0.319237 0.709221 -0.097349
v -0.440936 0.629950 -0.001750
v -0.345382 0.648690 -0.012880
v -0.343606 0.649038 -0.013087
v -0.432715 0.691805 0.039465
v -0.457092 0.660799 0.045098
v -0.478206 0.728580 0.019558
v -0.517110 0.709505 0.021040
v -0.494743 0.828951 -0.001678
v -0.317845 0.890833 0.164136
v -0.310866 0.922658 0.208415
v -0.300171 0.855393 0.172959
v -0.287615 0.875047 0.220826
v -0.226640 0.825404 0.147838
v -0.238652 0.879696 0.208012
v -0.162949 0.896894 0.115443
v -0.186145 0.933708 0.032802
v -0.266514 0.934562 0.195985
v -0.309361 1.005615 0.155535
v -0.240544 1.011540 0.018913
v -0.315201 1.067633 0.016083
v -0.468964 1.124951 0.016886
v 0.468964 1.124951 0.016886
v 0.446288 0.978161 -0.097295
v 0.360231 1.038436 -0.073433
v 0.281904 0.962523 -0.116035
v 0.315201 1.067633 0.016083
v 0.468964 1.124951 0.016886
v 0.240544 1.011540 0.018913
v 0.220953 0.870322 -0.127936
v 0.186145 0.933708 0.032802
v 0.177905 0.807232 -0.096049
v 0.162949 0.896894 0.115443
v 0.241461 0.715053 0.028405
v 0.226640 0.825404 0.147838
v 0.343606 0.649038 -0.013087
v 0.319237 0.709221 -0.097349
v 0.372341 0.764936 -0.126565
v 0.417714 0.867422 -0.122397
v 0.241461 0.715053 0.028405
v 0.343606 0.649038 -0.013087
v 0.432715 0.691805 0.039465
v 0.354695 0.777336 0.099615
v 0.226640 0.825404 0.147838
v 0.300171 0.855393 0.172959
v 0.317845 0.890833 0.164136
v 0.368067 0.863952 0.039162
v 0.353842 0.956081 0.133755
v 0.390088 0.990671 0.101006
v 0.454982 1.031546 0.046067
v 0.492531 0.909549 -0.006571
v 0.494743 0.828951 -0.001678
v 0.478206 0.728580 0.019558
v -0.468964 1.124951 0.016886
v -0.360231 1.038436 -0.073433
v -0.446288 0.978161 -0.097295
v -0.281904 0.962523 -0.116035
v -0.417714 0.867422 -0.122397
v -0.220953 0.870322 -0.127936
v -0.372341 0.764936 -0.126565
v -0.319237 0.709221 -0.097349
v -0.177905 0.807232 -0.096049
v -0.343606 0.649038 -0.013087
v -0.241461 0.715053 0.028405
v -0.162949 0.896894 0.115443
v -0.226640 0.825404 0.147838
v -0.186145 0.933708 0.032802
v -0.240544 1.011540 0.018913
v -0.315201 1.067633 0.016083
v -0.468964 1.124951 0.016886
v -0.241461 0.715053 0.028405
v -0.432715 0.691805 0.039465
v -0.343606 0.649038 -0.013087
v -0.354695 0.777336 0.099615
v -0.226640 0.825404 0.147838
v -0.300171 0.855393 0.172959
v -0.317845 0.890833 0.164136
v -0.368067 0.863952 0.039162
v -0.353842 0.956081 0.133755
v -0.390088 0.990671 0.101006
v -0.454982 1.031546 0.046067
v -0.492531 0.909549 -0.006571
v -0.494743 0.828951 -0.001678
v -0.478206 0.728580 0.019558
vn 0.4978 0.2753 0.8224
vn 0.7869 0.3768 0.4887
vn 0.4780 0.8658 -0.1483
vn -0.2783 0.8319 0.4801
vn 0.4781 0.8657 -0.1483
vn 0.4923 0.2422 0.8360
vn 0.8426 -0.3710 0.3904
vn 0.7558 -0.4568 0.4692
vn 0.7869 0.3769 0.4886
vn 0.4771 -0.4034 0.7808
vn 0.9236 0.0981 0.3707
vn 0.8723 -0.3257 0.3648
vn 0.2246 -0.1684 0.9598
vn 0.4778 0.1140 0.8710
vn 0.6017 -0.6694 0.4358
vn -0.5378 0.6953 0.4768
vn 0.2766 -0.2799 0.9193
vn -0.6086 -0.6411 0.4675
vn -0.5009 0.8604 -0.0943
vn 0.4781 0.8657 -0.1482
vn -0.7148 0.6964 -0.0643
vn -0.5701 0.6366 0.5193
vn -0.8530 0.5134 -0.0944
vn -0.9700 -0.0038 0.2431
vn -0.6373 0.3799 0.6705
vn 0.2988 0.3076 -0.9034
vn 0.4780 0.8657 -0.1482
vn 0.7457 0.1720 -0.6437
vn 0.6530 -0.1596 -0.7404
vn 0.2535 0.0147 -0.9672
vn 0.5302 -0.5070 -0.6796
vn 0.1536 -0.2745 -0.9492
vn -0.2712 -0.6667 -0.6942
vn 0.7869 0.3768 0.4886
vn 0.8789 0.0185 0.4766
vn 0.1348 0.1385 0.9811
vn 0.8141 -0.2446 0.5267
vn 0.1250 0.2478 0.9607
vn 0.2392 -0.8174 -0.5241
vn -0.1714 -0.9714 -0.1644
vn -0.3635 -0.9062 0.2162
vn 0.3845 -0.5524 0.7396
vn -0.3634 -0.9062 0.2161
vn -0.1338 0.0914 0.9868
vn -0.7869 0.3768 0.4886
vn -0.4978 0.2753 0.8225
vn -0.4780 0.8657 -0.1483
vn -0.4978 0.2752 0.8224
vn 0.2782 0.8319 0.4802
vn -0.4923 0.2422 0.8360
vn -0.8426 -0.3710 0.3904
vn -0.7558 -0.4568 0.4692
vn -0.7869 0.3769 0.4886
vn -0.4772 -0.4034 0.7808
vn -0.9235 0.0981 0.3707
vn -0.2246 -0.1684 0.9598
vn -0.8789 0.0185 0.4766
vn -0.6530 -0.1596 -0.7403
vn -0.7457 0.1720 -0.6437
vn -0.4779 0.8658 -0.1483
vn -0.2988 0.3076 -0.9034
vn -0.4780 0.8657 -0.1482
vn -0.2536 0.0147 -0.9672
vn -0.5303 -0.5070 -0.6795
vn -0.1537 -0.2745 -0.9492
vn 0.2712 -0.6667 -0.6942
vn -0.2392 -0.8174 -0.5241
vn 0.1713 -0.9714 -0.1644
vn 0.3635 -0.9061 0.2163
vn 0.1338 0.0914 0.9868
vn -0.3844 -0.5524 0.7397
vn 0.3634 -0.9062 0.2161
vn -0.1250 0.2478 0.9607
vn -0.8140 -0.2446 0.5268
vn -0.1348 0.1385 0.9811
vn -0.8722 -0.3257 0.3648
vn -0.4778 0.1140 0.8710
vn -0.6017 -0.6694 0.4358
vn -0.2766 -0.2799 0.9193
vn 0.6086 -0.6412 0.4675
vn 0.6373 0.3799 0.6705
vn 0.9700 -0.0039 0.2432
vn 0.8530 0.5133 -0.0944
vn 0.5701 0.6366 0.5194
vn 0.5377 0.6953 0.4768
vn 0.7148 0.6964 -0.0643
vn 0.5009 0.8604 -0.0943
vn 0.2987 0.3076 -0.9034
vn -0.1620 0.6277 -0.7614
vn 0.4780 0.8658 -0.1482
vn -0.3411 0.4262 -0.8379
vn -0.5009 0.8604 -0.0944
vn -0.7148 0.6964 -0.0645
vn -0.5059 0.1620 -0.8473
vn -0.8530 0.5133 -0.0944
vn -0.8565 -0.3460 -0.3829
vn -0.9700 -0.0039 0.2431
vn -0.6183 -0.7430 0.2564
vn -0.6087 -0.6411 0.4674
vn -0.2713 -0.6667 -0.6942
vn 0.1536 -0.2745 -0.9493
vn 0.2534 0.0147 -0.9672
vn -0.3635 -0.9062 0.2161
vn 0.2354 -0.3148 0.9195
vn 0.2911 -0.4371 0.8510
vn 0.4447 -0.5071 0.7383
vn 0.8929 -0.0613 0.4460
vn 0.6640 -0.0207 0.7474
vn 0.8334 -0.3281 0.4448
vn 0.7456 -0.3924 0.5386
vn 0.5535 -0.3187 0.7694
vn 0.3895 -0.1520 0.9084
vn 0.3330 0.1127 0.9362
vn 0.5289 0.2033 0.8240
vn 0.1620 0.6277 -0.7614
vn -0.2987 0.3076 -0.9034
vn -0.4781 0.8657 -0.1482
vn 0.3411 0.4262 -0.8379
vn -0.2534 0.0147 -0.9672
vn 0.5059 0.1620 -0.8473
vn -0.1536 -0.2745 -0.9493
vn 0.2713 -0.6667 -0.6942
vn 0.8565 -0.3460 -0.3829
vn 0.3634 -0.9062 0.2162
vn 0.6183 -0.7430 0.2564
vn 0.9700 -0.0039 0.2431
vn 0.6087 -0.6411 0.4674
vn 0.7148 0.6964 -0.0645
vn 0.5009 0.8604 -0.0944
vn -0.4781 0.8657 -0.1483
vn -0.2911 -0.4371 0.8510
vn -0.2354 -0.3148 0.9195
vn 0.6182 -0.7430 0.2564
vn 0.3635 -0.9062 0.2161
vn 0.6087 -0.6412 0.4673
vn -0.4447 -0.5071 0.7383
vn -0.8929 -0.0613 0.4460
vn -0.6640 -0.0207 0.7474
vn -0.8334 -0.3281 0.4448
vn -0.7456 -0.3924 0.5386
vn -0.5535 -0.3187 0.7694
vn -0.3895 -0.1520 0.9084
vn -0.3330 0.1127 0.9362
vn -0.5289 0.2033 0.8240
vt 0.912486 0.866882
vt 0.890225 0.950189
vt 0.890223 0.985535
vt 0.936217 0.886583
vt 0.917520 0.807100
vt 0.890506 0.649470
vt 0.888665 0.683348
vt 0.883199 0.750417
vt 0.837645 0.844517
vt 0.891414 0.592793
vt 0.869091 0.668203
vt 0.918687 0.726936
vt 0.891728 0.545508
vt 0.937986 0.816207
vt 0.919395 0.656019
vt 0.948819 0.641173
vt 0.959206 0.891294
vt 0.960990 0.822125
vt 0.937898 0.738632
vt 0.961310 0.739849
vt 0.961311 0.684418
vt 0.938721 0.683535
vt 0.788696 0.878511
vt 0.816058 0.859407
vt 0.816784 0.755312
vt 0.788419 0.784100
vt 0.817308 0.648801
vt 0.787977 0.687669
vt 0.787238 0.621167
vt 0.836529 0.741867
vt 0.868501 0.606712
vt 0.838185 0.630338
vt 0.868382 0.522987
vt 0.817127 0.579157
vt 0.796207 0.552515
vt 0.796111 0.552277
vt 0.840310 0.546983
vt 0.869076 0.454037
vt 0.876084 0.896510
vt 0.890223 0.985535
vt 0.875870 0.817663
vt 0.875870 0.725976
vt 0.875870 0.656200
vt 0.875871 0.580828
vt 0.029744 0.692059
vt 0.025737 0.593865
vt 0.058641 0.672188
vt 0.054848 0.538239
vt 0.087664 0.553581
vt 0.081262 0.478495
vt 0.079883 0.427475
vt 0.050896 0.429530
vt 0.074696 0.331469
vt 0.066596 0.270913
vt 0.050896 0.186995
vt 0.026773 0.307388
vt 0.020468 0.399855
vt 0.018111 0.525824
s 1
f 3/1/1 2/2/2 1/3/3
f 5/4/4 3/1/1 4/3/5
f 6/5/6 3/1/1 5/4/4
f 6/5/6 7/6/7 3/1/1
f 7/6/7 8/7/8 3/1/1
f 3/1/1 8/7/8 9/2/9
f 8/7/8 10/8/10 9/2/9
f 9/2/9 10/8/10 11/9/11
f 12/10/12 7/6/7 6/5/6
f 10/8/10 13/11/13 11/9/11
f 14/12/14 12/10/12 6/5/6
f 15/13/15 12/10/12 14/12/14
f 16/14/16 6/5/6 5/4/4
f 14/12/14 6/5/6 16/14/16
f 17/15/17 15/13/15 14/12/14
f 17/15/17 18/16/18 15/13/15
f 16/14/16 5/4/4 19/17/19
f 19/17/19 5/4/4 20/3/20
f 21/18/21 16/14/16 19/17/19
f 22/19/22 14/12/14 16/14/16
f 22/19/22 16/14/16 21/18/21
f 17/15/17 14/12/14 22/19/22
f 23/20/23 22/19/22 21/18/21
f 22/19/22 23/20/23 24/21/24
f 17/15/17 25/22/25 18/16/18
f 25/22/25 24/21/24 18/16/18
f 25/22/25 22/19/22 24/21/24
f 25/22/25 17/15/17 22/19/22
f 28/23/26 27/3/27 26/24/28
f 28/23/26 26/24/28 29/25/29
f 30/26/30 28/23/26 29/25/29
f 30/26/30 29/25/29 31/27/31
f 32/28/32 30/26/30 31/27/31
f 33/29/33 32/28/32 31/27/31
f 26/24/28 11/9/11 29/25/29
f 34/2/34 11/9/11 26/24/28
f 35/3/3 34/2/34 26/24/28
f 11/9/11 36/30/35 29/25/29
f 29/25/29 36/30/35 31/27/31
f 11/9/11 13/11/13 36/30/35
f 13/11/13 37/31/36 36/30/35
f 36/30/35 37/31/36 38/32/37
f 36/30/35 38/32/37 31/27/31
f 37/31/36 39/33/38 38/32/37
f 40/34/39 33/29/33 31/27/31
f 31/27/31 38/32/37 40/34/39
f 33/29/33 40/34/39 41/35/40
f 42/36/41 33/29/33 41/35/40
f 38/32/37 39/33/38 43/37/42
f 38/32/37 43/37/42 40/34/39
f 40/34/39 43/37/42 42/36/43
f 39/33/38 44/38/44 43/37/42
f 43/37/42 44/38/44 42/36/43
f 46/2/45 47/1/46 45/3/47
f 47/1/48 49/4/49 48/3/47
f 47/1/48 50/5/50 49/4/49
f 51/6/51 50/5/50 47/1/48
f 52/7/52 51/6/51 47/1/48
f 52/7/52 47/1/48 53/2/53
f 54/8/54 52/7/52 53/2/53
f 54/8/54 53/2/53 55/9/55
f 56/11/56 54/8/54 55/9/55
f 56/11/56 55/9/55 57/30/57
f 57/30/57 55/9/55 58/25/58
f 55/9/55 59/24/59 58/25/58
f 55/9/55 60/2/53 59/24/59
f 60/2/53 61/3/60 59/24/59
f 59/24/59 62/23/61 58/25/58
f 63/3/62 62/23/61 59/24/59
f 62/23/61 64/26/63 58/25/58
f 58/25/58 64/26/63 65/27/64
f 64/26/63 66/28/65 65/27/64
f 66/28/65 67/29/66 65/27/64
f 67/29/66 68/34/67 65/27/64
f 68/34/67 67/29/66 69/35/68
f 67/29/66 70/36/69 69/35/68
f 71/38/70 72/37/71 70/36/72
f 72/37/71 68/34/67 70/36/72
f 71/38/70 73/33/73 72/37/71
f 73/33/73 74/32/74 72/37/71
f 72/37/71 74/32/74 68/34/67
f 73/33/73 75/31/75 74/32/74
f 75/31/75 57/30/57 74/32/74
f 74/32/74 57/30/57 65/27/64
f 74/32/74 65/27/64 68/34/67
f 75/31/75 56/11/56 57/30/57
f 57/30/57 58/25/58 65/27/64
f 51/6/51 76/10/76 50/5/50
f 76/10/76 77/12/77 50/5/50
f 76/10/76 78/13/78 77/12/77
f 78/13/78 79/15/79 77/12/77
f 80/16/80 79/15/79 78/13/78
f 81/22/81 79/15/79 80/16/80
f 82/21/82 81/22/81 80/16/80
f 83/20/83 84/19/84 82/21/82
f 84/19/84 81/22/81 82/21/82
f 77/12/77 79/15/79 84/19/84
f 77/12/77 84/19/84 85/14/85
f 85/14/85 84/19/84 86/18/86
f 84/19/84 83/20/83 86/18/86
f 79/15/79 81/22/81 84/19/84
f 85/14/85 86/18/86 87/17/87
f 49/4/49 87/17/87 88/3/47
f 49/4/49 85/14/85 87/17/87
f 50/5/50 77/12/77 85/14/85
f 50/5/50 85/14/85 49/4/49
f 90/23/88 91/39/89 89/40/90
f 92/41/91 91/39/89 90/23/88
f 93/17/92 91/39/89 92/41/91
f 93/17/92 94/3/5 91/39/89
f 95/18/93 93/17/92 92/41/91
f 95/18/93 92/41/91 96/42/94
f 97/20/95 95/18/93 96/42/94
f 97/20/95 96/42/94 98/43/96
f 99/21/97 97/20/95 98/43/96
f 98/43/96 100/44/98 99/21/97
f 100/44/98 101/16/99 99/21/97
f 102/36/41 100/44/98 98/43/96
f 103/29/100 102/36/41 98/43/96
f 98/43/96 96/42/94 103/29/100
f 96/42/94 104/28/101 103/29/100
f 104/28/101 96/42/94 105/26/102
f 105/26/102 92/41/91 90/23/88
f 96/42/94 92/41/91 105/26/102
f 107/45/103 108/46/104 106/47/98
f 108/46/104 109/48/105 106/47/98
f 106/47/98 109/48/105 110/49/99
f 109/48/105 111/50/106 110/49/99
f 112/51/107 111/50/106 109/48/105
f 113/52/108 112/51/107 109/48/105
f 114/53/109 112/51/107 113/52/108
f 115/54/110 114/53/109 113/52/108
f 116/55/111 115/54/110 113/52/108
f 116/55/111 113/52/108 117/56/112
f 117/56/112 113/52/108 118/57/113
f 118/57/113 113/52/108 119/58/114
f 119/58/114 113/52/108 108/46/104
f 113/52/108 109/48/105 108/46/104
f 121/39/115 122/23/116 120/40/117
f 121/39/115 123/41/118 122/23/116
f 123/41/118 124/26/119 122/23/116
f 123/41/118 125/42/120 124/26/119
f 125/42/120 126/28/121 124/26/119
f 126/28/121 125/42/120 127/29/122
f 125/42/120 128/43/123 127/29/122
f 129/36/124 127/29/122 128/43/123
f 130/44/125 129/36/124 128/43/123
f 130/44/125 128/43/123 131/21/126
f 132/16/127 130/44/125 131/21/126
f 133/20/83 131/21/126 128/43/123
f 134/18/128 133/20/83 125/42/120
f 125/42/120 133/20/83 128/43/123
f 135/17/129 134/18/128 123/41/118
f 123/41/118 134/18/128 125/42/120
f 136/3/130 135/17/129 121/39/115
f 121/39/115 135/17/129 123/41/118
f 140/48/131 138/46/132 137/47/133
f 138/46/132 139/45/134 137/47/133
f 140/48/131 137/47/133 141/49/135
f 142/50/136 140/48/131 141/49/135
f 142/50/136 143/51/137 140/48/131
f 143/51/137 144/52/138 140/48/131
f 143/51/137 145/53/139 144/52/138
f 145/53/139 146/54/140 144/52/138
f 146/54/140 147/55/141 144/52/138
f 144/52/138 147/55/141 148/56/142
f 144/52/138 148/56/142 149/57/143
f 144/52/138 149/57/143 150/58/144
f 144/52/138 150/58/144 138/46/132
f 140/48/131 144/52/138 138/46/132
