o mosaic_hermit_claws_LOD0
v 0.366012 0.203824 0.628618
v 0.340411 0.229468 0.631780
v 0.430947 0.287451 0.576930
v 0.274051 0.218894 0.640992
v 0.255084 0.178665 0.667223
v 0.292595 0.215014 0.647265
v 0.292595 0.215014 0.647265
v 0.310431 0.184869 0.658373
v 0.340411 0.229468 0.631780
v 0.221394 0.152224 0.632386
v 0.232756 0.125438 0.607516
v 0.237483 0.120950 0.639984
v 0.513458 0.500915 0.207174
v 0.470700 0.476383 0.148344
v 0.449967 0.496146 0.192954
v 0.624160 0.446688 0.230470
v 0.563452 0.491222 0.238473
v 0.585413 0.468187 0.340443
v 0.357435 0.212680 0.128361
v 0.391525 0.156806 0.144208
v 0.310804 0.149676 0.233012
v 0.291346 0.121783 0.342984
v 0.308669 0.088496 0.465602
v 0.276817 0.107057 0.466879
v 0.574097 0.283916 0.085453
v 0.619651 0.280663 0.119133
v 0.603526 0.228352 0.121878
v 0.311775 0.421971 0.416941
v 0.307878 0.439048 0.368942
v 0.287235 0.379024 0.452930
v 0.513458 0.500915 0.207174
v 0.449967 0.496146 0.192954
v 0.456998 0.510853 0.238761
v 0.351796 0.480573 0.275116
v 0.315230 0.449738 0.267110
v 0.307878 0.439048 0.368942
v 0.287235 0.379024 0.452930
v 0.247415 0.278837 0.535168
v 0.266564 0.296651 0.546041
v 0.280508 0.157204 0.288469
v 0.310804 0.149676 0.233012
v 0.291346 0.121783 0.342984
v 0.430947 0.287451 0.576930
v 0.366012 0.203824 0.628618
v 0.474359 0.292189 0.553775
v 0.396608 0.202917 0.611126
v 0.444269 0.224662 0.581521
v 0.477212 0.124474 0.500436
v 0.477858 0.150597 0.527490
v 0.403079 0.124531 0.568818
v 0.377027 0.144773 0.609023
v 0.423722 0.162092 0.581288
v 0.640728 0.426823 0.259051
v 0.624160 0.446688 0.230470
v 0.615944 0.438491 0.342145
v 0.585413 0.468187 0.340443
v 0.658000 0.390448 0.229561
v 0.640728 0.426823 0.259051
v 0.663224 0.365490 0.319034
v 0.615614 0.394685 0.401282
v 0.615944 0.438491 0.342145
v 0.543841 0.326481 0.502524
v 0.535380 0.242056 0.516774
v 0.615614 0.394685 0.401282
v 0.663224 0.365490 0.319034
v 0.661445 0.292316 0.362619
v 0.572620 0.235413 0.480413
v 0.474588 0.209461 0.559172
v 0.535380 0.242056 0.516774
v 0.444269 0.224662 0.581521
v 0.543841 0.326481 0.502524
v 0.474359 0.292189 0.553775
v 0.477212 0.124474 0.500436
v 0.530411 0.129193 0.449227
v 0.477858 0.150597 0.527490
v 0.547137 0.175927 0.479299
v 0.591573 0.157867 0.409741
v 0.601538 0.180619 0.417089
v 0.661445 0.292316 0.362619
v 0.572620 0.235413 0.480413
v 0.663560 0.240983 0.331162
v 0.601538 0.180619 0.417089
v 0.547137 0.175927 0.479299
v 0.535380 0.242056 0.516774
v 0.474588 0.209461 0.559172
v 0.572620 0.235413 0.480413
v 0.547137 0.175927 0.479299
v 0.423722 0.162092 0.581288
v 0.477858 0.150597 0.527490
v 0.675427 0.265683 0.269811
v 0.663560 0.240983 0.331162
v 0.654563 0.201507 0.258158
v 0.626294 0.161248 0.332960
v 0.591573 0.157867 0.409741
v 0.601538 0.180619 0.417089
v 0.658000 0.390448 0.229561
v 0.663224 0.365490 0.319034
v 0.673836 0.332999 0.229550
v 0.661445 0.292316 0.362619
v 0.663560 0.240983 0.331162
v 0.675427 0.265683 0.269811
v 0.474359 0.292189 0.553775
v 0.543841 0.326481 0.502524
v 0.509370 0.381363 0.497974
v 0.534510 0.410707 0.465773
v 0.615614 0.394685 0.401282
v 0.615944 0.438491 0.342145
v 0.423722 0.162092 0.581288
v 0.474588 0.209461 0.559172
v 0.364207 0.168405 0.628590
v 0.444269 0.224662 0.581521
v 0.396608 0.202917 0.611126
v 0.654563 0.201507 0.258158
v 0.655787 0.277484 0.166435
v 0.675427 0.265683 0.269811
v 0.656085 0.344026 0.175205
v 0.673836 0.332999 0.229550
v 0.474359 0.292189 0.553775
v 0.509370 0.381363 0.497974
v 0.430947 0.287451 0.576930
v 0.410187 0.305505 0.576080
v 0.615944 0.438491 0.342145
v 0.585413 0.468187 0.340443
v 0.534510 0.410707 0.465773
v 0.542031 0.478419 0.379248
v 0.626294 0.161248 0.332960
v 0.591573 0.157867 0.409741
v 0.568359 0.120110 0.383910
v 0.530411 0.129193 0.449227
v 0.331722 0.156076 0.647975
v 0.364207 0.168405 0.628590
v 0.331507 0.173881 0.650122
v 0.396608 0.202917 0.611126
v 0.366012 0.203824 0.628618
v 0.423722 0.162092 0.581288
v 0.364207 0.168405 0.628590
v 0.377027 0.144773 0.609023
v 0.329502 0.136522 0.641178
v 0.331722 0.156076 0.647975
v 0.274051 0.218894 0.640992
v 0.255528 0.238203 0.606967
v 0.255084 0.178665 0.667223
v 0.233623 0.193459 0.630388
v 0.230290 0.166989 0.652217
v 0.240626 0.155305 0.664964
v 0.283285 0.097074 0.585085
v 0.257755 0.107663 0.636163
v 0.264730 0.104942 0.550131
v 0.232756 0.125438 0.607516
v 0.237483 0.120950 0.639984
v 0.331507 0.173881 0.650122
v 0.366012 0.203824 0.628618
v 0.310431 0.184869 0.658373
v 0.340411 0.229468 0.631780
v 0.331722 0.156076 0.647975
v 0.331507 0.173881 0.650122
v 0.292409 0.144430 0.670280
v 0.283506 0.162833 0.674048
v 0.310431 0.184869 0.658373
v 0.265604 0.165775 0.674441
v 0.258772 0.139105 0.671000
v 0.283506 0.162833 0.674048
v 0.292409 0.144430 0.670280
v 0.285621 0.130839 0.667364
v 0.266324 0.129187 0.667995
v 0.246204 0.135715 0.663662
v 0.258772 0.139105 0.671000
v 0.240626 0.155305 0.664964
v 0.265604 0.165775 0.674441
v 0.255084 0.178665 0.667223
v 0.257755 0.107663 0.636163
v 0.283285 0.097074 0.585085
v 0.267884 0.112450 0.652002
v 0.303809 0.098150 0.599101
v 0.291186 0.106695 0.631551
v 0.280474 0.111699 0.649753
v 0.285621 0.130839 0.667364
v 0.266324 0.129187 0.667995
v 0.292269 0.119759 0.655163
v 0.280474 0.111699 0.649753
v 0.267884 0.112450 0.652002
v 0.258772 0.139105 0.671000
v 0.246204 0.135715 0.663662
v 0.266324 0.129187 0.667995
v 0.267884 0.112450 0.652002
v 0.237483 0.120950 0.639984
v 0.257755 0.107663 0.636163
v 0.320764 0.123210 0.636737
v 0.292269 0.119759 0.655163
v 0.341953 0.105578 0.593472
v 0.291186 0.106695 0.631551
v 0.280474 0.111699 0.649753
v 0.331722 0.156076 0.647975
v 0.292409 0.144430 0.670280
v 0.329502 0.136522 0.641178
v 0.285621 0.130839 0.667364
v 0.292269 0.119759 0.655163
v 0.320764 0.123210 0.636737
v 0.255084 0.178665 0.667223
v 0.265604 0.165775 0.674441
v 0.292595 0.215014 0.647265
v 0.283506 0.162833 0.674048
v 0.310431 0.184869 0.658373
v 0.237483 0.120950 0.639984
v 0.246204 0.135715 0.663662
v 0.221394 0.152224 0.632386
v 0.240626 0.155305 0.664964
v 0.230290 0.166989 0.652217
v 0.341953 0.105578 0.593472
v 0.403079 0.124531 0.568818
v 0.320764 0.123210 0.636737
v 0.377027 0.144773 0.609023
v 0.329502 0.136522 0.641178
v 0.381392 0.096364 0.541095
v 0.341953 0.105578 0.593472
v 0.334700 0.091511 0.559215
v 0.303809 0.098150 0.599101
v 0.291186 0.106695 0.631551
v 0.220201 0.170408 0.590796
v 0.221394 0.152224 0.632386
v 0.228074 0.207151 0.593607
v 0.230290 0.166989 0.652217
v 0.233623 0.193459 0.630388
v 0.563452 0.491222 0.238473
v 0.624160 0.446688 0.230470
v 0.567162 0.476158 0.187547
v 0.617740 0.436286 0.190843
v 0.601031 0.432540 0.162752
v 0.619651 0.280663 0.119133
v 0.614453 0.333504 0.114687
v 0.655787 0.277484 0.166435
v 0.656085 0.344026 0.175205
v 0.633706 0.368535 0.148680
v 0.446810 0.448104 0.121997
v 0.420317 0.462716 0.146511
v 0.470700 0.476383 0.148344
v 0.411209 0.487044 0.196286
v 0.449967 0.496146 0.192954
v 0.449290 0.412777 0.094980
v 0.446810 0.448104 0.121997
v 0.490231 0.419817 0.096924
v 0.508093 0.463257 0.136774
v 0.470700 0.476383 0.148344
v 0.546662 0.463563 0.152435
v 0.569948 0.416322 0.119042
v 0.508093 0.463257 0.136774
v 0.490231 0.419817 0.096924
v 0.526019 0.394588 0.088719
v 0.568185 0.397330 0.106688
v 0.600396 0.410344 0.138131
v 0.569948 0.416322 0.119042
v 0.601031 0.432540 0.162752
v 0.546662 0.463563 0.152435
v 0.567162 0.476158 0.187547
v 0.619651 0.280663 0.119133
v 0.574097 0.283916 0.085453
v 0.614453 0.333504 0.114687
v 0.580716 0.350833 0.094786
v 0.558487 0.314312 0.078609
v 0.556280 0.335894 0.079352
v 0.526019 0.394588 0.088719
v 0.568185 0.397330 0.106688
v 0.519680 0.354130 0.073091
v 0.556280 0.335894 0.079352
v 0.580716 0.350833 0.094786
v 0.569948 0.416322 0.119042
v 0.600396 0.410344 0.138131
v 0.568185 0.397330 0.106688
v 0.580716 0.350833 0.094786
v 0.633706 0.368535 0.148680
v 0.614453 0.333504 0.114687
v 0.495983 0.345836 0.067189
v 0.519680 0.354130 0.073091
v 0.510872 0.284586 0.064261
v 0.558487 0.314312 0.078609
v 0.556280 0.335894 0.079352
v 0.449290 0.412777 0.094980
v 0.490231 0.419817 0.096924
v 0.467103 0.373500 0.075050
v 0.526019 0.394588 0.088719
v 0.519680 0.354130 0.073091
v 0.495983 0.345836 0.067189
v 0.567162 0.476158 0.187547
v 0.546662 0.463563 0.152435
v 0.513458 0.500915 0.207174
v 0.508093 0.463257 0.136774
v 0.470700 0.476383 0.148344
v 0.633706 0.368535 0.148680
v 0.600396 0.410344 0.138131
v 0.645746 0.400727 0.197083
v 0.601031 0.432540 0.162752
v 0.617740 0.436286 0.190843
v 0.510872 0.284586 0.064261
v 0.428001 0.286470 0.073139
v 0.495983 0.345836 0.067189
v 0.426105 0.355485 0.078361
v 0.467103 0.373500 0.075050
v 0.563452 0.491222 0.238473
v 0.567162 0.476158 0.187547
v 0.533430 0.503683 0.251742
v 0.513458 0.500915 0.207174
v 0.510872 0.284586 0.064261
v 0.558487 0.314312 0.078609
v 0.513607 0.251184 0.070508
v 0.574097 0.283916 0.085453
v 0.501116 0.187742 0.100080
v 0.391525 0.156806 0.144208
v 0.513607 0.251184 0.070508
v 0.510872 0.284586 0.064261
v 0.428001 0.286470 0.073139
v 0.357435 0.212680 0.128361
v 0.654563 0.201507 0.258158
v 0.628808 0.177715 0.207891
v 0.655787 0.277484 0.166435
v 0.619651 0.280663 0.119133
v 0.603526 0.228352 0.121878
v 0.313610 0.089086 0.546869
v 0.283285 0.097074 0.585085
v 0.308669 0.088496 0.465602
v 0.264730 0.104942 0.550131
v 0.276817 0.107057 0.466879
v 0.334700 0.091511 0.559215
v 0.313610 0.089086 0.546869
v 0.375937 0.077560 0.476304
v 0.344756 0.079308 0.399324
v 0.308669 0.088496 0.465602
v 0.377905 0.095425 0.245888
v 0.492335 0.090750 0.215989
v 0.344756 0.079308 0.399324
v 0.375937 0.077560 0.476304
v 0.438012 0.076916 0.431378
v 0.506112 0.077261 0.286623
v 0.541835 0.154588 0.139312
v 0.492335 0.090750 0.215989
v 0.501116 0.187742 0.100080
v 0.377905 0.095425 0.245888
v 0.391525 0.156806 0.144208
v 0.654563 0.201507 0.258158
v 0.626294 0.161248 0.332960
v 0.628808 0.177715 0.207891
v 0.584385 0.113473 0.288713
v 0.568359 0.120110 0.383910
v 0.550544 0.103581 0.374727
v 0.438012 0.076916 0.431378
v 0.506112 0.077261 0.286623
v 0.473187 0.095070 0.453869
v 0.550544 0.103581 0.374727
v 0.584385 0.113473 0.288713
v 0.492335 0.090750 0.215989
v 0.541835 0.154588 0.139312
v 0.506112 0.077261 0.286623
v 0.584385 0.113473 0.288713
v 0.603526 0.228352 0.121878
v 0.628808 0.177715 0.207891
v 0.439409 0.099053 0.497939
v 0.473187 0.095070 0.453869
v 0.477212 0.124474 0.500436
v 0.530411 0.129193 0.449227
v 0.568359 0.120110 0.383910
v 0.550544 0.103581 0.374727
v 0.334700 0.091511 0.559215
v 0.375937 0.077560 0.476304
v 0.381392 0.096364 0.541095
v 0.438012 0.076916 0.431378
v 0.473187 0.095070 0.453869
v 0.439409 0.099053 0.497939
v 0.391525 0.156806 0.144208
v 0.377905 0.095425 0.245888
v 0.310804 0.149676 0.233012
v 0.291346 0.121783 0.342984
v 0.344756 0.079308 0.399324
v 0.308669 0.088496 0.465602
v 0.334700 0.091511 0.559215
v 0.303809 0.098150 0.599101
v 0.313610 0.089086 0.546869
v 0.283285 0.097074 0.585085
v 0.603526 0.228352 0.121878
v 0.541835 0.154588 0.139312
v 0.574097 0.283916 0.085453
v 0.501116 0.187742 0.100080
v 0.513607 0.251184 0.070508
v 0.477212 0.124474 0.500436
v 0.403079 0.124531 0.568818
v 0.439409 0.099053 0.497939
v 0.341953 0.105578 0.593472
v 0.381392 0.096364 0.541095
v 0.585413 0.468187 0.340443
v 0.563452 0.491222 0.238473
v 0.542031 0.478419 0.379248
v 0.533430 0.503683 0.251742
v 0.509904 0.509874 0.301200
v 0.456998 0.510853 0.238761
v 0.449967 0.496146 0.192954
v 0.389255 0.501220 0.288879
v 0.411209 0.487044 0.196286
v 0.351796 0.480573 0.275116
v 0.341443 0.257200 0.616921
v 0.340411 0.229468 0.631780
v 0.410187 0.305505 0.576080
v 0.430947 0.287451 0.576930
v 0.311403 0.248827 0.623904
v 0.341443 0.257200 0.616921
v 0.356936 0.320296 0.572500
v 0.426105 0.360025 0.538909
v 0.410187 0.305505 0.576080
v 0.491034 0.446384 0.451822
v 0.448844 0.492230 0.393805
v 0.426105 0.360025 0.538909
v 0.356936 0.320296 0.572500
v 0.349568 0.366957 0.527550
v 0.399328 0.468112 0.422531
v 0.466368 0.513383 0.314539
v 0.448844 0.492230 0.393805
v 0.509904 0.509874 0.301200
v 0.491034 0.446384 0.451822
v 0.542031 0.478419 0.379248
v 0.351796 0.480573 0.275116
v 0.307878 0.439048 0.368942
v 0.389255 0.501220 0.288879
v 0.366291 0.477721 0.373385
v 0.311775 0.421971 0.416941
v 0.329991 0.427897 0.431936
v 0.349568 0.366957 0.527550
v 0.399328 0.468112 0.422531
v 0.311297 0.356470 0.517777
v 0.329991 0.427897 0.431936
v 0.366291 0.477721 0.373385
v 0.456998 0.510853 0.238761
v 0.389255 0.501220 0.288879
v 0.466368 0.513383 0.314539
v 0.366291 0.477721 0.373385
v 0.399328 0.468112 0.422531
v 0.448844 0.492230 0.393805
v 0.266564 0.296651 0.546041
v 0.294245 0.312163 0.556354
v 0.287235 0.379024 0.452930
v 0.311297 0.356470 0.517777
v 0.311775 0.421971 0.416941
v 0.329991 0.427897 0.431936
v 0.311403 0.248827 0.623904
v 0.356936 0.320296 0.572500
v 0.297539 0.267118 0.605401
v 0.349568 0.366957 0.527550
v 0.311297 0.356470 0.517777
v 0.294245 0.312163 0.556354
v 0.542031 0.478419 0.379248
v 0.491034 0.446384 0.451822
v 0.534510 0.410707 0.465773
v 0.509370 0.381363 0.497974
v 0.426105 0.360025 0.538909
v 0.410187 0.305505 0.576080
v 0.311403 0.248827 0.623904
v 0.292595 0.215014 0.647265
v 0.341443 0.257200 0.616921
v 0.340411 0.229468 0.631780
v 0.456998 0.510853 0.238761
v 0.466368 0.513383 0.314539
v 0.513458 0.500915 0.207174
v 0.509904 0.509874 0.301200
v 0.533430 0.503683 0.251742
v 0.266564 0.296651 0.546041
v 0.255528 0.238203 0.606967
v 0.294245 0.312163 0.556354
v 0.274051 0.218894 0.640992
v 0.297539 0.267118 0.605401
v 0.297539 0.267118 0.605401
v 0.274051 0.218894 0.640992
v 0.311403 0.248827 0.623904
v 0.292595 0.215014 0.647265
v 0.341351 0.419464 0.169446
v 0.315230 0.449738 0.267110
v 0.390599 0.437456 0.141370
v 0.420317 0.462716 0.146511
v 0.411209 0.487044 0.196286
v 0.351796 0.480573 0.275116
v 0.357435 0.212680 0.128361
v 0.334260 0.264907 0.129082
v 0.428001 0.286470 0.073139
v 0.426105 0.355485 0.078361
v 0.377593 0.349886 0.100482
v 0.266564 0.296651 0.546041
v 0.247415 0.278837 0.535168
v 0.255528 0.238203 0.606967
v 0.233623 0.193459 0.630388
v 0.228074 0.207151 0.593607
v 0.220201 0.170408 0.590796
v 0.228074 0.207151 0.593607
v 0.222187 0.218586 0.505113
v 0.242098 0.306845 0.466673
v 0.247415 0.278837 0.535168
v 0.266665 0.391955 0.338092
v 0.262050 0.344040 0.245252
v 0.242098 0.306845 0.466673
v 0.222187 0.218586 0.505113
v 0.226505 0.208560 0.425488
v 0.244714 0.283545 0.275770
v 0.315456 0.370353 0.163176
v 0.262050 0.344040 0.245252
v 0.341351 0.419464 0.169446
v 0.266665 0.391955 0.338092
v 0.315230 0.449738 0.267110
v 0.357435 0.212680 0.128361
v 0.310804 0.149676 0.233012
v 0.334260 0.264907 0.129082
v 0.275185 0.230154 0.216862
v 0.280508 0.157204 0.288469
v 0.264657 0.177527 0.297454
v 0.226505 0.208560 0.425488
v 0.244714 0.283545 0.275770
v 0.244576 0.158706 0.413939
v 0.264657 0.177527 0.297454
v 0.275185 0.230154 0.216862
v 0.262050 0.344040 0.245252
v 0.315456 0.370353 0.163176
v 0.244714 0.283545 0.275770
v 0.275185 0.230154 0.216862
v 0.377593 0.349886 0.100482
v 0.334260 0.264907 0.129082
v 0.276817 0.107057 0.466879
v 0.246342 0.137675 0.473388
v 0.291346 0.121783 0.342984
v 0.244576 0.158706 0.413939
v 0.280508 0.157204 0.288469
v 0.264657 0.177527 0.297454
v 0.220201 0.170408 0.590796
v 0.222187 0.218586 0.505113
v 0.229109 0.146228 0.548269
v 0.226505 0.208560 0.425488
v 0.244576 0.158706 0.413939
v 0.246342 0.137675 0.473388
v 0.315230 0.449738 0.267110
v 0.266665 0.391955 0.338092
v 0.307878 0.439048 0.368942
v 0.287235 0.379024 0.452930
v 0.242098 0.306845 0.466673
v 0.247415 0.278837 0.535168
v 0.377593 0.349886 0.100482
v 0.315456 0.370353 0.163176
v 0.426471 0.411678 0.102230
v 0.341351 0.419464 0.169446
v 0.390599 0.437456 0.141370
v 0.276817 0.107057 0.466879
v 0.264730 0.104942 0.550131
v 0.246342 0.137675 0.473388
v 0.232756 0.125438 0.607516
v 0.229109 0.146228 0.548269
v 0.220201 0.170408 0.590796
v 0.229109 0.146228 0.548269
v 0.221394 0.152224 0.632386
v 0.232756 0.125438 0.607516
v 0.658000 0.390448 0.229561
v 0.645746 0.400727 0.197083
v 0.640728 0.426823 0.259051
v 0.617740 0.436286 0.190843
v 0.624160 0.446688 0.230470
v 0.633706 0.368535 0.148680
v 0.645746 0.400727 0.197083
v 0.656085 0.344026 0.175205
v 0.673836 0.332999 0.229550
v 0.658000 0.390448 0.229561
v 0.377593 0.349886 0.100482
v 0.426471 0.411678 0.102230
v 0.426105 0.355485 0.078361
v 0.467103 0.373500 0.075050
v 0.449290 0.412777 0.094980
v 0.449290 0.412777 0.094980
v 0.426471 0.411678 0.102230
v 0.446810 0.448104 0.121997
v 0.390599 0.437456 0.141370
v 0.420317 0.462716 0.146511
v -0.591066 0.474475 0.222928
v -0.537393 0.503100 0.301373
v -0.537960 0.498708 0.222240
v -0.472753 0.477969 0.150898
v -0.507603 0.462032 0.135332
v -0.504545 0.486783 0.170885
v -0.504545 0.486783 0.170885
v -0.563349 0.479346 0.189693
v -0.537960 0.498708 0.222240
v -0.490033 0.395305 0.083208
v -0.509911 0.355964 0.071610
v -0.535032 0.374253 0.081285
v -0.244085 0.208650 0.628922
v -0.221465 0.162893 0.629636
v -0.226313 0.214127 0.572118
v -0.322570 0.211291 0.644855
v -0.280708 0.228931 0.634447
v -0.368000 0.324991 0.569413
v -0.347584 0.081123 0.364297
v -0.391145 0.069539 0.358075
v -0.388353 0.088799 0.251434
v -0.444958 0.137958 0.142845
v -0.554458 0.230812 0.090283
v -0.512393 0.242119 0.072137
v -0.345721 0.096336 0.568806
v -0.378743 0.113567 0.576074
v -0.411079 0.100717 0.526129
v -0.279308 0.411018 0.309237
v -0.253389 0.364805 0.330968
v -0.296738 0.420618 0.246572
v -0.244085 0.208650 0.628922
v -0.226313 0.214127 0.572118
v -0.243837 0.259369 0.556995
v -0.232975 0.292947 0.434050
v -0.229279 0.273907 0.389621
v -0.253389 0.364805 0.330968
v -0.296738 0.420618 0.246572
v -0.379386 0.425234 0.138317
v -0.384044 0.455183 0.165612
v -0.383562 0.119153 0.189840
v -0.388353 0.088799 0.251434
v -0.444958 0.137958 0.142845
v -0.537393 0.503100 0.301373
v -0.591066 0.474475 0.222928
v -0.555496 0.484633 0.346414
v -0.607930 0.466587 0.243822
v -0.614206 0.457454 0.282108
v -0.679086 0.301788 0.268369
v -0.674134 0.345719 0.280032
v -0.662382 0.359014 0.195132
v -0.647700 0.403368 0.204310
v -0.653775 0.400378 0.231016
v -0.366344 0.231766 0.621955
v -0.322570 0.211291 0.644855
v -0.401569 0.311600 0.574507
v -0.368000 0.324991 0.569413
v -0.378302 0.198059 0.622176
v -0.366344 0.231766 0.621955
v -0.453704 0.263016 0.572915
v -0.464491 0.351070 0.534501
v -0.401569 0.311600 0.574507
v -0.546417 0.443244 0.428736
v -0.617752 0.409419 0.382321
v -0.464491 0.351070 0.534501
v -0.453704 0.263016 0.572915
v -0.526381 0.268992 0.525216
v -0.620738 0.360535 0.418776
v -0.641325 0.420191 0.300808
v -0.617752 0.409419 0.382321
v -0.614206 0.457454 0.282108
v -0.546417 0.443244 0.428736
v -0.555496 0.484633 0.346414
v -0.679086 0.301788 0.268369
v -0.666764 0.261458 0.334681
v -0.674134 0.345719 0.280032
v -0.658511 0.318793 0.366546
v -0.632847 0.242254 0.410380
v -0.624920 0.261135 0.426232
v -0.526381 0.268992 0.525216
v -0.620738 0.360535 0.418776
v -0.538046 0.221256 0.509606
v -0.624920 0.261135 0.426232
v -0.658511 0.318793 0.366546
v -0.617752 0.409419 0.382321
v -0.641325 0.420191 0.300808
v -0.620738 0.360535 0.418776
v -0.658511 0.318793 0.366546
v -0.653775 0.400378 0.231016
v -0.674134 0.345719 0.280032
v -0.487415 0.189432 0.542652
v -0.538046 0.221256 0.509606
v -0.513740 0.163729 0.503564
v -0.579700 0.185861 0.450550
v -0.632847 0.242254 0.410380
v -0.624920 0.261135 0.426232
v -0.378302 0.198059 0.622176
v -0.453704 0.263016 0.572915
v -0.422279 0.189169 0.592479
v -0.526381 0.268992 0.525216
v -0.538046 0.221256 0.509606
v -0.487415 0.189432 0.542652
v -0.555496 0.484633 0.346414
v -0.546417 0.443244 0.428736
v -0.481585 0.470476 0.425500
v -0.453808 0.440854 0.467637
v -0.464491 0.351070 0.534501
v -0.401569 0.311600 0.574507
v -0.653775 0.400378 0.231016
v -0.641325 0.420191 0.300808
v -0.624898 0.440069 0.213664
v -0.614206 0.457454 0.282108
v -0.607930 0.466587 0.243822
v -0.513740 0.163729 0.503564
v -0.416541 0.134439 0.567842
v -0.487415 0.189432 0.542652
v -0.370039 0.154456 0.619708
v -0.422279 0.189169 0.592479
v -0.555496 0.484633 0.346414
v -0.481585 0.470476 0.425500
v -0.537393 0.503100 0.301373
v -0.505264 0.511416 0.295454
v -0.401569 0.311600 0.574507
v -0.368000 0.324991 0.569413
v -0.453808 0.440854 0.467637
v -0.362756 0.368020 0.531169
v -0.579700 0.185861 0.450550
v -0.632847 0.242254 0.410380
v -0.632172 0.198246 0.381505
v -0.666764 0.261458 0.334681
v -0.612265 0.442748 0.189958
v -0.624898 0.440069 0.213664
v -0.593040 0.466353 0.204995
v -0.607930 0.466587 0.243822
v -0.591066 0.474475 0.222928
v -0.653775 0.400378 0.231016
v -0.624898 0.440069 0.213664
v -0.647700 0.403368 0.204310
v -0.628179 0.409857 0.171884
v -0.612265 0.442748 0.189958
v -0.472753 0.477969 0.150898
v -0.435105 0.465335 0.141485
v -0.507603 0.462032 0.135332
v -0.460990 0.437971 0.110786
v -0.488094 0.418715 0.095865
v -0.521946 0.421245 0.102474
v -0.580638 0.318670 0.088960
v -0.570504 0.352974 0.090207
v -0.542208 0.300888 0.071386
v -0.509911 0.355964 0.071610
v -0.535032 0.374253 0.081285
v -0.593040 0.466353 0.204995
v -0.591066 0.474475 0.222928
v -0.563349 0.479346 0.189693
v -0.537960 0.498708 0.222240
v -0.612265 0.442748 0.189958
v -0.593040 0.466353 0.204995
v -0.588397 0.445530 0.162003
v -0.560103 0.466395 0.166963
v -0.563349 0.479346 0.189693
v -0.538532 0.453623 0.136304
v -0.560804 0.417585 0.114660
v -0.560103 0.466395 0.166963
v -0.588397 0.445530 0.162003
v -0.599506 0.414341 0.140294
v -0.567859 0.413127 0.115340
v -0.531779 0.411829 0.098669
v -0.560804 0.417585 0.114660
v -0.521946 0.421245 0.102474
v -0.538532 0.453623 0.136304
v -0.507603 0.462032 0.135332
v -0.570504 0.352974 0.090207
v -0.580638 0.318670 0.088960
v -0.578167 0.375100 0.100604
v -0.612336 0.330147 0.112300
v -0.611590 0.348423 0.116826
v -0.607204 0.372327 0.120958
v -0.599506 0.414341 0.140294
v -0.567859 0.413127 0.115340
v -0.614345 0.379009 0.131859
v -0.607204 0.372327 0.120958
v -0.578167 0.375100 0.100604
v -0.560804 0.417585 0.114660
v -0.531779 0.411829 0.098669
v -0.567859 0.413127 0.115340
v -0.578167 0.375100 0.100604
v -0.535032 0.374253 0.081285
v -0.570504 0.352974 0.090207
v -0.634509 0.379251 0.156414
v -0.614345 0.379009 0.131859
v -0.641303 0.334077 0.145236
v -0.611590 0.348423 0.116826
v -0.607204 0.372327 0.120958
v -0.612265 0.442748 0.189958
v -0.588397 0.445530 0.162003
v -0.628179 0.409857 0.171884
v -0.599506 0.414341 0.140294
v -0.614345 0.379009 0.131859
v -0.634509 0.379251 0.156414
v -0.507603 0.462032 0.135332
v -0.538532 0.453623 0.136304
v -0.504545 0.486783 0.170885
v -0.560103 0.466395 0.166963
v -0.563349 0.479346 0.189693
v -0.535032 0.374253 0.081285
v -0.531779 0.411829 0.098669
v -0.490033 0.395305 0.083208
v -0.521946 0.421245 0.102474
v -0.488094 0.418715 0.095865
v -0.641303 0.334077 0.145236
v -0.662382 0.359014 0.195132
v -0.634509 0.379251 0.156414
v -0.647700 0.403368 0.204310
v -0.628179 0.409857 0.171884
v -0.654073 0.303188 0.162999
v -0.641303 0.334077 0.145236
v -0.623665 0.301409 0.122370
v -0.612336 0.330147 0.112300
v -0.611590 0.348423 0.116826
v -0.462141 0.380034 0.078065
v -0.490033 0.395305 0.083208
v -0.442241 0.412884 0.096304
v -0.488094 0.418715 0.095865
v -0.460990 0.437971 0.110786
v -0.280708 0.228931 0.634447
v -0.322570 0.211291 0.644855
v -0.258588 0.177869 0.668854
v -0.294158 0.169609 0.668756
v -0.279035 0.155067 0.675369
v -0.378743 0.113567 0.576074
v -0.322186 0.117948 0.629581
v -0.416541 0.134439 0.567842
v -0.370039 0.154456 0.619708
v -0.316546 0.136529 0.650669
v -0.222898 0.147276 0.602022
v -0.221474 0.173402 0.548636
v -0.221465 0.162893 0.629636
v -0.223157 0.221228 0.527622
v -0.226313 0.214127 0.572118
v -0.233399 0.126517 0.596357
v -0.222898 0.147276 0.602022
v -0.232861 0.124738 0.636677
v -0.226992 0.151080 0.648682
v -0.221465 0.162893 0.629636
v -0.243692 0.159805 0.667022
v -0.262806 0.132347 0.669114
v -0.226992 0.151080 0.648682
v -0.232861 0.124738 0.636677
v -0.248649 0.113661 0.642651
v -0.263611 0.120423 0.660811
v -0.279988 0.136167 0.671317
v -0.262806 0.132347 0.669114
v -0.279035 0.155067 0.675369
v -0.243692 0.159805 0.667022
v -0.258588 0.177869 0.668854
v -0.378743 0.113567 0.576074
v -0.345721 0.096336 0.568806
v -0.322186 0.117948 0.629581
v -0.283851 0.111969 0.648837
v -0.308480 0.099367 0.601117
v -0.278813 0.106215 0.636739
v -0.248649 0.113661 0.642651
v -0.263611 0.120423 0.660811
v -0.263137 0.105241 0.628919
v -0.278813 0.106215 0.636739
v -0.283851 0.111969 0.648837
v -0.262806 0.132347 0.669114
v -0.279988 0.136167 0.671317
v -0.263611 0.120423 0.660811
v -0.283851 0.111969 0.648837
v -0.316546 0.136529 0.650669
v -0.322186 0.117948 0.629581
v -0.274415 0.099313 0.587023
v -0.263137 0.105241 0.628919
v -0.324505 0.087063 0.537266
v -0.308480 0.099367 0.601117
v -0.278813 0.106215 0.636739
v -0.233399 0.126517 0.596357
v -0.232861 0.124738 0.636677
v -0.252759 0.109347 0.587361
v -0.248649 0.113661 0.642651
v -0.263137 0.105241 0.628919
v -0.274415 0.099313 0.587023
v -0.258588 0.177869 0.668854
v -0.243692 0.159805 0.667022
v -0.244085 0.208650 0.628922
v -0.226992 0.151080 0.648682
v -0.221465 0.162893 0.629636
v -0.316546 0.136529 0.650669
v -0.279988 0.136167 0.671317
v -0.333882 0.172277 0.648762
v -0.279035 0.155067 0.675369
v -0.294158 0.169609 0.668756
v -0.324505 0.087063 0.537266
v -0.309263 0.088017 0.471199
v -0.274415 0.099313 0.587023
v -0.267337 0.106681 0.519200
v -0.252759 0.109347 0.587361
v -0.280708 0.228931 0.634447
v -0.258588 0.177869 0.668854
v -0.276798 0.253192 0.608981
v -0.244085 0.208650 0.628922
v -0.324505 0.087063 0.537266
v -0.308480 0.099367 0.601117
v -0.355445 0.082260 0.507951
v -0.345721 0.096336 0.568806
v -0.399459 0.075176 0.457735
v -0.391145 0.069539 0.358075
v -0.355445 0.082260 0.507951
v -0.324505 0.087063 0.537266
v -0.309263 0.088017 0.471199
v -0.347584 0.081123 0.364297
v -0.513740 0.163729 0.503564
v -0.491083 0.126978 0.489264
v -0.416541 0.134439 0.567842
v -0.378743 0.113567 0.576074
v -0.411079 0.100717 0.526129
v -0.596414 0.289440 0.098728
v -0.580638 0.318670 0.088960
v -0.554458 0.230812 0.090283
v -0.542208 0.300888 0.071386
v -0.512393 0.242119 0.072137
v -0.623665 0.301409 0.122370
v -0.596414 0.289440 0.098728
v -0.629756 0.235609 0.143283
v -0.555686 0.160435 0.139875
v -0.554458 0.230812 0.090283
v -0.466782 0.072272 0.275979
v -0.502746 0.080847 0.370057
v -0.555686 0.160435 0.139875
v -0.629756 0.235609 0.143283
v -0.645520 0.198530 0.219333
v -0.559081 0.103956 0.354007
v -0.444233 0.082823 0.450208
v -0.502746 0.080847 0.370057
v -0.399459 0.075176 0.457735
v -0.466782 0.072272 0.275979
v -0.391145 0.069539 0.358075
v -0.513740 0.163729 0.503564
v -0.579700 0.185861 0.450550
v -0.491083 0.126978 0.489264
v -0.563511 0.134442 0.415130
v -0.632172 0.198246 0.381505
v -0.629782 0.177271 0.362486
v -0.645520 0.198530 0.219333
v -0.559081 0.103956 0.354007
v -0.668282 0.236316 0.255682
v -0.629782 0.177271 0.362486
v -0.563511 0.134442 0.415130
v -0.502746 0.080847 0.370057
v -0.444233 0.082823 0.450208
v -0.559081 0.103956 0.354007
v -0.563511 0.134442 0.415130
v -0.411079 0.100717 0.526129
v -0.491083 0.126978 0.489264
v -0.672249 0.280893 0.217967
v -0.668282 0.236316 0.255682
v -0.679086 0.301788 0.268369
v -0.666764 0.261458 0.334681
v -0.632172 0.198246 0.381505
v -0.629782 0.177271 0.362486
v -0.623665 0.301409 0.122370
v -0.629756 0.235609 0.143283
v -0.654073 0.303188 0.162999
v -0.645520 0.198530 0.219333
v -0.668282 0.236316 0.255682
v -0.672249 0.280893 0.217967
v -0.391145 0.069539 0.358075
v -0.466782 0.072272 0.275979
v -0.388353 0.088799 0.251434
v -0.444958 0.137958 0.142845
v -0.555686 0.160435 0.139875
v -0.554458 0.230812 0.090283
v -0.623665 0.301409 0.122370
v -0.612336 0.330147 0.112300
v -0.596414 0.289440 0.098728
v -0.580638 0.318670 0.088960
v -0.411079 0.100717 0.526129
v -0.444233 0.082823 0.450208
v -0.345721 0.096336 0.568806
v -0.399459 0.075176 0.457735
v -0.355445 0.082260 0.507951
v -0.679086 0.301788 0.268369
v -0.662382 0.359014 0.195132
v -0.672249 0.280893 0.217967
v -0.641303 0.334077 0.145236
v -0.654073 0.303188 0.162999
v -0.368000 0.324991 0.569413
v -0.280708 0.228931 0.634447
v -0.362756 0.368020 0.531169
v -0.276798 0.253192 0.608981
v -0.291009 0.306622 0.560247
v -0.243837 0.259369 0.556995
v -0.226313 0.214127 0.572118
v -0.243265 0.309229 0.467534
v -0.223157 0.221228 0.527622
v -0.232975 0.292947 0.434050
v -0.507759 0.504828 0.220676
v -0.537960 0.498708 0.222240
v -0.505264 0.511416 0.295454
v -0.537393 0.503100 0.301373
v -0.485919 0.500045 0.196165
v -0.507759 0.504828 0.220676
v -0.445237 0.511822 0.256905
v -0.455425 0.509673 0.341345
v -0.505264 0.511416 0.295454
v -0.394237 0.444072 0.454580
v -0.318651 0.402744 0.461551
v -0.455425 0.509673 0.341345
v -0.445237 0.511822 0.256905
v -0.384734 0.498940 0.283803
v -0.313169 0.429969 0.403728
v -0.277237 0.327150 0.519211
v -0.318651 0.402744 0.461551
v -0.291009 0.306622 0.560247
v -0.394237 0.444072 0.454580
v -0.362756 0.368020 0.531169
v -0.232975 0.292947 0.434050
v -0.253389 0.364805 0.330968
v -0.243265 0.309229 0.467534
v -0.269778 0.380973 0.398678
v -0.279308 0.411018 0.309237
v -0.289318 0.424796 0.316992
v -0.384734 0.498940 0.283803
v -0.313169 0.429969 0.403728
v -0.360300 0.479851 0.246803
v -0.289318 0.424796 0.316992
v -0.269778 0.380973 0.398678
v -0.243837 0.259369 0.556995
v -0.243265 0.309229 0.467534
v -0.277237 0.327150 0.519211
v -0.269778 0.380973 0.398678
v -0.313169 0.429969 0.403728
v -0.318651 0.402744 0.461551
v -0.384044 0.455183 0.165612
v -0.395529 0.482106 0.198625
v -0.296738 0.420618 0.246572
v -0.360300 0.479851 0.246803
v -0.279308 0.411018 0.309237
v -0.289318 0.424796 0.316992
v -0.485919 0.500045 0.196165
v -0.445237 0.511822 0.256905
v -0.452680 0.494630 0.187930
v -0.384734 0.498940 0.283803
v -0.360300 0.479851 0.246803
v -0.395529 0.482106 0.198625
v -0.362756 0.368020 0.531169
v -0.394237 0.444072 0.454580
v -0.453808 0.440854 0.467637
v -0.481585 0.470476 0.425500
v -0.455425 0.509673 0.341345
v -0.505264 0.511416 0.295454
v -0.485919 0.500045 0.196165
v -0.504545 0.486783 0.170885
v -0.507759 0.504828 0.220676
v -0.537960 0.498708 0.222240
v -0.243837 0.259369 0.556995
v -0.277237 0.327150 0.519211
v -0.244085 0.208650 0.628922
v -0.291009 0.306622 0.560247
v -0.276798 0.253192 0.608981
v -0.384044 0.455183 0.165612
v -0.435105 0.465335 0.141485
v -0.395529 0.482106 0.198625
v -0.472753 0.477969 0.150898
v -0.452680 0.494630 0.187930
v -0.452680 0.494630 0.187930
v -0.472753 0.477969 0.150898
v -0.485919 0.500045 0.196165
v -0.504545 0.486783 0.170885
v -0.230854 0.183338 0.438033
v -0.229279 0.273907 0.389621
v -0.226752 0.167233 0.507450
v -0.221474 0.173402 0.548636
v -0.223157 0.221228 0.527622
v -0.232975 0.292947 0.434050
v -0.347584 0.081123 0.364297
v -0.308369 0.100644 0.373211
v -0.309263 0.088017 0.471199
v -0.267337 0.106681 0.519200
v -0.266122 0.116901 0.461155
v -0.384044 0.455183 0.165612
v -0.379386 0.425234 0.138317
v -0.435105 0.465335 0.141485
v -0.460990 0.437971 0.110786
v -0.442241 0.412884 0.096304
v -0.462141 0.380034 0.078065
v -0.442241 0.412884 0.096304
v -0.401205 0.356120 0.088508
v -0.324416 0.386270 0.160902
v -0.379386 0.425234 0.138317
v -0.243924 0.309554 0.284145
v -0.249882 0.207480 0.305448
v -0.324416 0.386270 0.160902
v -0.401205 0.356120 0.088508
v -0.370357 0.280009 0.100035
v -0.275233 0.191565 0.244305
v -0.246479 0.162012 0.396534
v -0.249882 0.207480 0.305448
v -0.230854 0.183338 0.438033
v -0.243924 0.309554 0.284145
v -0.229279 0.273907 0.389621
v -0.347584 0.081123 0.364297
v -0.388353 0.088799 0.251434
v -0.308369 0.100644 0.373211
v -0.314646 0.124726 0.272785
v -0.383562 0.119153 0.189840
v -0.361610 0.139897 0.180939
v -0.370357 0.280009 0.100035
v -0.275233 0.191565 0.244305
v -0.417270 0.233465 0.088603
v -0.361610 0.139897 0.180939
v -0.314646 0.124726 0.272785
v -0.249882 0.207480 0.305448
v -0.246479 0.162012 0.396534
v -0.275233 0.191565 0.244305
v -0.314646 0.124726 0.272785
v -0.266122 0.116901 0.461155
v -0.308369 0.100644 0.373211
v -0.512393 0.242119 0.072137
v -0.465685 0.274227 0.063812
v -0.444958 0.137958 0.142845
v -0.417270 0.233465 0.088603
v -0.383562 0.119153 0.189840
v -0.361610 0.139897 0.180939
v -0.462141 0.380034 0.078065
v -0.401205 0.356120 0.088508
v -0.475499 0.333053 0.064889
v -0.370357 0.280009 0.100035
v -0.417270 0.233465 0.088603
v -0.465685 0.274227 0.063812
v -0.229279 0.273907 0.389621
v -0.243924 0.309554 0.284145
v -0.253389 0.364805 0.330968
v -0.296738 0.420618 0.246572
v -0.324416 0.386270 0.160902
v -0.379386 0.425234 0.138317
v -0.266122 0.116901 0.461155
v -0.246479 0.162012 0.396534
v -0.235470 0.133705 0.550404
v -0.230854 0.183338 0.438033
v -0.226752 0.167233 0.507450
v -0.512393 0.242119 0.072137
v -0.542208 0.300888 0.071386
v -0.465685 0.274227 0.063812
v -0.509911 0.355964 0.071610
v -0.475499 0.333053 0.064889
v -0.462141 0.380034 0.078065
v -0.475499 0.333053 0.064889
v -0.490033 0.395305 0.083208
v -0.509911 0.355964 0.071610
v -0.378302 0.198059 0.622176
v -0.333882 0.172277 0.648762
v -0.366344 0.231766 0.621955
v -0.294158 0.169609 0.668756
v -0.322570 0.211291 0.644855
v -0.316546 0.136529 0.650669
v -0.333882 0.172277 0.648762
v -0.370039 0.154456 0.619708
v -0.422279 0.189169 0.592479
v -0.378302 0.198059 0.622176
v -0.266122 0.116901 0.461155
v -0.235470 0.133705 0.550404
v -0.267337 0.106681 0.519200
v -0.252759 0.109347 0.587361
v -0.233399 0.126517 0.596357
v -0.233399 0.126517 0.596357
v -0.235470 0.133705 0.550404
v -0.222898 0.147276 0.602022
v -0.226752 0.167233 0.507450
v -0.221474 0.173402 0.548636
vt 0.918798 0.115675
vt 0.919856 0.179201
vt 0.852637 0.145730
vt 0.931226 0.114712
vt 0.976893 0.046646
vt 0.977209 0.107030
vt 0.891932 0.189518
vt 0.937104 0.191105
vt 0.939342 0.271719
vt 0.347171 0.978798
vt 0.356292 0.947830
vt 0.405461 0.983653
vt 0.351046 0.871186
vt 0.355719 0.915724
vt 0.270369 0.920145
vt 0.173956 0.888708
vt 0.102476 0.884992
vt 0.131792 0.817461
vt 0.477256 0.430091
vt 0.434690 0.386361
vt 0.485032 0.385676
vt 0.926112 0.509229
vt 0.925868 0.464146
vt 0.983642 0.461888
vt 0.116765 0.391657
vt 0.139774 0.364022
vt 0.171062 0.397072
vt 0.336134 0.437650
vt 0.290016 0.437337
vt 0.314739 0.413745
vt 0.973135 0.605888
vt 0.940172 0.634714
vt 0.891932 0.602513
vt 0.140688 0.327176
vt 0.091759 0.300581
vt 0.135387 0.286327
vt 0.233214 0.048527
vt 0.232861 0.009886
vt 0.282636 0.007812
vt 0.534653 0.146414
vt 0.488273 0.146728
vt 0.512816 0.122588
vt 0.384555 0.924605
vt 0.429088 0.872533
vt 0.448571 0.907498
vt 0.366818 0.902541
vt 0.368506 0.875726
vt 0.123207 0.897548
vt 0.115166 0.947727
vt 0.088187 0.913052
vt 0.167451 0.939049
vt 0.167871 0.911815
vt 0.989441 0.208138
vt 0.950873 0.247360
vt 0.962679 0.199673
vt 0.975762 0.275944
vt 0.315278 0.732265
vt 0.269284 0.777173
vt 0.261439 0.726562
vt 0.342575 0.808559
vt 0.364426 0.769084
vt 0.194993 0.358595
vt 0.277737 0.251997
vt 0.285028 0.329856
vt 0.200696 0.215986
vt 0.148914 0.249927
vt 0.156098 0.333008
vt 0.267967 0.551870
vt 0.304096 0.613311
vt 0.256080 0.598848
vt 0.356116 0.527431
vt 0.377778 0.577960
vt 0.500677 0.899121
vt 0.456123 0.931617
vt 0.469737 0.894690
vt 0.488753 0.953171
vt 0.526313 0.924959
vt 0.524492 0.945773
vt 0.753187 0.439108
vt 0.685532 0.354022
vt 0.745889 0.357334
vt 0.665097 0.411459
vt 0.684721 0.455174
vt 0.152703 0.481100
vt 0.130265 0.411257
vt 0.168105 0.435370
vt 0.064515 0.431670
vt 0.101242 0.518624
vt 0.052465 0.480467
vt 0.911694 0.373232
vt 0.913355 0.318002
vt 0.933450 0.359129
vt 0.882423 0.324199
vt 0.857996 0.351637
vt 0.864858 0.371577
vt 0.249204 0.624703
vt 0.180416 0.591097
vt 0.235540 0.574942
vt 0.202475 0.659871
vt 0.144800 0.653754
vt 0.139984 0.621754
vt 0.084477 0.753393
vt 0.086932 0.812736
vt 0.047107 0.771928
vt 0.109329 0.813654
vt 0.141894 0.752273
vt 0.168182 0.775896
vt 0.770013 0.845966
vt 0.774467 0.906915
vt 0.731183 0.876761
vt 0.805852 0.860979
vt 0.810438 0.888646
vt 0.947331 0.040295
vt 0.895504 0.045268
vt 0.918230 0.007812
vt 0.930751 0.086544
vt 0.899730 0.083948
vt 0.842941 0.324379
vt 0.774049 0.324750
vt 0.793014 0.281510
vt 0.774680 0.367513
vt 0.855885 0.539936
vt 0.790124 0.531445
vt 0.860688 0.498996
vt 0.832338 0.578590
vt 0.421121 0.975652
vt 0.425468 0.927815
vt 0.456527 0.954890
vt 0.390038 0.948849
vt 0.271921 0.947208
vt 0.319364 0.977893
vt 0.270369 0.973026
vt 0.314171 0.929363
vt 0.338593 0.952430
vt 0.769231 0.922066
vt 0.711536 0.922677
vt 0.717636 0.891422
vt 0.718126 0.957847
vt 0.769053 0.947946
vt 0.144970 0.731971
vt 0.119656 0.663623
vt 0.164821 0.668241
vt 0.092083 0.742121
vt 0.062320 0.724921
vt 0.052465 0.693821
vt 0.052694 0.807102
vt 0.024604 0.859127
vt 0.007812 0.809220
vt 0.085360 0.869663
vt 0.096273 0.839913
vt 0.216613 0.844515
vt 0.233191 0.903621
vt 0.193567 0.865730
vt 0.275322 0.898516
vt 0.763589 0.013516
vt 0.717595 0.058424
vt 0.709750 0.007812
vt 0.790886 0.089810
vt 0.812737 0.050335
vt 0.328951 0.150422
vt 0.411695 0.043824
vt 0.418986 0.121683
vt 0.334653 0.007812
vt 0.282872 0.041754
vt 0.290055 0.124835
vt 0.504666 0.584521
vt 0.539563 0.646669
vt 0.491845 0.631253
vt 0.593283 0.561843
vt 0.613935 0.612793
vt 0.789913 0.437460
vt 0.852551 0.400007
vt 0.836978 0.444192
vt 0.784766 0.383681
vt 0.808831 0.364574
vt 0.833549 0.360629
vt 0.712128 0.334166
vt 0.644407 0.249133
vt 0.704767 0.252398
vt 0.624017 0.306586
vt 0.643675 0.350285
vt 0.279516 0.423924
vt 0.257078 0.354081
vt 0.294918 0.378194
vt 0.191328 0.374493
vt 0.228055 0.461448
vt 0.179278 0.423291
vt 0.883020 0.070688
vt 0.818702 0.070739
vt 0.874189 0.041275
vt 0.840836 0.124729
vt 0.865782 0.123455
vt 0.479611 0.638850
vt 0.410823 0.605245
vt 0.465947 0.589089
vt 0.432882 0.674018
vt 0.375207 0.667901
vt 0.370391 0.635901
vt 0.433866 0.114735
vt 0.507097 0.088732
vt 0.461219 0.159196
vt 0.425760 0.043328
vt 0.452119 0.007812
vt 0.769589 0.446218
vt 0.778530 0.520244
vt 0.724038 0.485988
vt 0.814134 0.462450
vt 0.821317 0.495906
vt 0.190313 0.777326
vt 0.222904 0.829007
vt 0.164989 0.842962
vt 0.251595 0.769812
vt 0.261202 0.804144
vt 0.952466 0.387952
vt 0.924808 0.434398
vt 0.918723 0.384117
vt 0.948058 0.451935
vt 0.972333 0.437689
vt 0.007812 0.966452
vt 0.056893 0.990415
vt 0.009308 0.991409
vt 0.046297 0.944440
vt 0.072403 0.963754
vt 0.354316 0.726715
vt 0.435083 0.746080
vt 0.420139 0.788569
vt 0.368357 0.695403
vt 0.398234 0.682441
vt 0.876413 0.216522
vt 0.825363 0.186443
vt 0.871125 0.172839
vt 0.813343 0.242884
vt 0.841922 0.258937
vt 0.910469 0.254853
vt 0.850851 0.273813
vt 0.888052 0.232126
vt 0.897660 0.305923
vt 0.862235 0.315413
vt 0.797032 0.249934
vt 0.752590 0.203489
vt 0.803278 0.196154
vt 0.720466 0.276460
vt 0.759719 0.298708
vt 0.007812 0.195752
vt 0.114410 0.278496
vt 0.036551 0.285787
vt 0.150422 0.201454
vt 0.116480 0.149673
vt 0.033399 0.156856
vt 0.556859 0.390262
vt 0.495418 0.426390
vt 0.509880 0.378374
vt 0.581297 0.478410
vt 0.530768 0.500073
vt 0.726485 0.793607
vt 0.665097 0.844762
vt 0.667275 0.798463
vt 0.708930 0.860983
vt 0.744954 0.817924
vt 0.748505 0.842641
vt 0.479334 0.739361
vt 0.564419 0.671706
vt 0.561107 0.732063
vt 0.506982 0.651271
vt 0.463268 0.670895
vt 0.447208 0.359392
vt 0.517051 0.336953
vt 0.492938 0.374794
vt 0.496639 0.271203
vt 0.409685 0.307930
vt 0.447842 0.259153
vt 0.624537 0.856953
vt 0.621584 0.792702
vt 0.653521 0.846803
vt 0.568648 0.817250
vt 0.571046 0.842113
vt 0.042981 0.673054
vt 0.076586 0.604267
vt 0.092741 0.659390
vt 0.007812 0.626325
vt 0.013930 0.568650
vt 0.045929 0.563834
vt 0.476286 0.168546
vt 0.494796 0.243993
vt 0.429332 0.191359
vt 0.548147 0.167552
vt 0.580878 0.197301
vt 0.812354 0.617558
vt 0.738327 0.626498
vt 0.772583 0.572007
vt 0.796121 0.662102
vt 0.762665 0.669285
vt 0.815025 0.114310
vt 0.763670 0.147517
vt 0.749044 0.089710
vt 0.822742 0.171501
vt 0.788990 0.185566
vt 0.019291 0.474412
vt 0.035167 0.540761
vt 0.007812 0.517465
vt 0.080300 0.524202
vt 0.944438 0.331952
vt 0.981326 0.286825
vt 0.991413 0.306449
vt 0.927654 0.309566
vt 0.670455 0.139586
vt 0.732426 0.197345
vt 0.700645 0.207104
vt 0.752429 0.185008
vt 0.739098 0.113857
vt 0.690486 0.099016
vt 0.822274 0.632685
vt 0.873176 0.664644
vt 0.823557 0.678052
vt 0.883859 0.617946
vt 0.857784 0.591282
vt 0.970317 0.531135
vt 0.925868 0.560299
vt 0.946826 0.517426
vt 0.971870 0.576074
vt 0.942271 0.593261
vt 0.688008 0.557549
vt 0.733021 0.604252
vt 0.681172 0.611730
vt 0.765610 0.531443
vt 0.726482 0.509155
vt 0.284577 0.160012
vt 0.178048 0.077550
vt 0.255766 0.070160
vt 0.141770 0.154334
vt 0.176022 0.206164
vt 0.258992 0.198940
vt 0.550290 0.332158
vt 0.612922 0.297317
vt 0.597294 0.345216
vt 0.527567 0.243634
vt 0.578538 0.222989
vt 0.398346 0.862628
vt 0.441776 0.811882
vt 0.435807 0.859458
vt 0.397700 0.795699
vt 0.361283 0.839009
vt 0.357888 0.814516
vt 0.689200 0.007812
vt 0.604370 0.075274
vt 0.607561 0.015144
vt 0.661805 0.096247
vt 0.705393 0.076033
vt 0.367287 0.312637
vt 0.297161 0.335184
vt 0.321205 0.297212
vt 0.317679 0.400787
vt 0.405539 0.364978
vt 0.366479 0.412664
vt 0.292446 0.811951
vt 0.273673 0.874849
vt 0.263225 0.821236
vt 0.310826 0.877166
vt 0.347035 0.853026
vt 0.345379 0.828597
vt 0.632082 0.129430
vt 0.597696 0.199299
vt 0.581150 0.143411
vt 0.667423 0.176465
vt 0.661322 0.234081
vt 0.629157 0.238804
vt 0.490879 0.574883
vt 0.492108 0.501321
vt 0.535814 0.548454
vt 0.441977 0.502916
vt 0.419492 0.581373
vt 0.384679 0.554435
vt 0.988524 0.938404
vt 0.965931 0.971800
vt 0.963376 0.925229
vt 0.992188 0.986505
vt 0.574291 0.857287
vt 0.561028 0.917659
vt 0.532926 0.886741
vt 0.609655 0.874457
vt 0.612634 0.903026
vt 0.919908 0.524470
vt 0.868712 0.536785
vt 0.886651 0.496322
vt 0.906874 0.582927
vt 0.878321 0.574165
vt 0.786864 0.738922
vt 0.706177 0.719788
vt 0.734337 0.679713
vt 0.773071 0.773052
vt 0.741728 0.785333
vt 0.912053 0.442547
vt 0.852637 0.442875
vt 0.890820 0.403386
vt 0.901469 0.477830
vt 0.852825 0.487835
vt 0.958017 0.739941
vt 0.990489 0.703781
vt 0.989040 0.751334
vt 0.961420 0.681902
vt 0.186109 0.712035
vt 0.231228 0.758725
vt 0.179278 0.766261
vt 0.263913 0.685793
vt 0.224662 0.663536
vt 0.150900 0.097803
vt 0.044229 0.015207
vt 0.122097 0.007812
vt 0.007812 0.092129
vt 0.042225 0.144128
vt 0.125341 0.136879
vt 0.530596 0.116867
vt 0.593394 0.082034
vt 0.577770 0.130075
vt 0.507920 0.028205
vt 0.559002 0.007812
vt 0.796666 0.840475
vt 0.852538 0.789201
vt 0.848488 0.836199
vt 0.808461 0.773143
vt 0.772215 0.816511
vt 0.768691 0.791785
vt 0.689274 0.624790
vt 0.604370 0.692413
vt 0.607492 0.632141
vt 0.661721 0.713152
vt 0.705457 0.693176
vt 0.074342 0.413992
vt 0.078853 0.313957
vt 0.115246 0.367612
vt 0.025895 0.400329
vt 0.007812 0.333862
vt 0.033224 0.296670
vt 0.452551 0.830756
vt 0.510979 0.884678
vt 0.453046 0.882984
vt 0.481481 0.820467
vt 0.537029 0.859750
vt 0.534556 0.835182
vt 0.617881 0.353850
vt 0.583414 0.423783
vt 0.566862 0.367925
vt 0.653399 0.401007
vt 0.647343 0.458749
vt 0.614976 0.463454
vt 0.298439 0.529230
vt 0.289983 0.455817
vt 0.343529 0.502913
vt 0.261940 0.456724
vt 0.226850 0.536000
vt 0.191781 0.509139
vt 0.016020 0.737257
vt 0.036048 0.688340
vt 0.040251 0.735880
vt 0.007812 0.663539
vt 0.663723 0.919747
vt 0.661688 0.859185
vt 0.703104 0.889130
vt 0.628195 0.904370
vt 0.624017 0.876380
vt 0.888359 0.779948
vt 0.940587 0.772055
vt 0.912456 0.804380
vt 0.905072 0.726724
vt 0.934130 0.733548
vt 0.666883 0.982215
vt 0.699675 0.936189
vt 0.699325 0.985158
vt 0.677073 0.929559
vt 0.883273 0.744044
vt 0.847983 0.685455
vt 0.874556 0.684652
vt 0.827875 0.704958
vt 0.824060 0.748675
vt 0.858459 0.771366
vt 0.953040 0.912973
vt 0.902648 0.907127
vt 0.934880 0.879688
vt 0.912809 0.955477
vt 0.940747 0.958135
vt 0.614659 0.966988
vt 0.623039 0.918787
vt 0.645019 0.945509
vt 0.578421 0.927063
vt 0.568648 0.952783
vt 0.621368 0.780294
vt 0.667362 0.735386
vt 0.675208 0.785997
vt 0.594071 0.704000
vt 0.572220 0.743475
vt 0.376479 0.156181
vt 0.293735 0.262779
vt 0.286444 0.184920
vt 0.370776 0.298790
vt 0.422558 0.264849
vt 0.415374 0.181768
vt 0.180137 0.576646
vt 0.144009 0.515205
vt 0.192024 0.529668
vt 0.091989 0.601084
vt 0.070326 0.550556
vt 0.023277 0.928587
vt 0.078479 0.897364
vt 0.066461 0.934801
vt 0.045531 0.875771
vt 0.007812 0.904344
vt 0.009560 0.883370
vt 0.272155 0.634570
vt 0.339810 0.719655
vt 0.279453 0.716343
vt 0.360245 0.662218
vt 0.340621 0.618504
vt 0.360787 0.436636
vt 0.383226 0.506480
vt 0.345385 0.482367
vt 0.448976 0.486067
vt 0.412248 0.399113
vt 0.461025 0.437270
vt 0.145342 0.023449
vt 0.205868 0.054223
vt 0.157668 0.066187
vt 0.166557 0.008209
vt 0.221558 0.027581
vt 0.213773 0.007812
vt 0.595439 0.507191
vt 0.664226 0.540797
vt 0.609103 0.556952
vt 0.642168 0.472023
vt 0.699843 0.478140
vt 0.704659 0.510140
vt 0.550783 0.809022
vt 0.556430 0.749939
vt 0.588493 0.790659
vt 0.516044 0.748014
vt 0.493041 0.809581
vt 0.466840 0.785571
vt 0.911801 0.855540
vt 0.850851 0.859994
vt 0.881005 0.816709
vt 0.896788 0.891379
vt 0.869120 0.895965
vt 0.823507 0.899523
vt 0.835636 0.951020
vt 0.800841 0.925862
vt 0.875803 0.910632
vt 0.873999 0.941451
vt 0.084615 0.988655
vt 0.138530 0.965422
vt 0.133433 0.989237
vt 0.085245 0.954988
vt 0.961515 0.124252
vt 0.938320 0.173700
vt 0.936584 0.126137
vt 0.984124 0.162389
vt 0.965219 0.188793
vt 0.211908 0.971411
vt 0.213598 0.911696
vt 0.243440 0.922672
vt 0.179278 0.920645
vt 0.186899 0.970249
vt 0.921435 0.715949
vt 0.921799 0.654258
vt 0.952863 0.664899
vt 0.886573 0.664290
vt 0.895589 0.715327
vt 0.960125 0.805504
vt 0.929440 0.852946
vt 0.934307 0.803952
vt 0.977970 0.847754
vt 0.954903 0.872175
s 1
f 3/1 2/2 1/3
f 5/4 6/5 4/6
f 8/7 9/8 7/9
f 11/10 12/11 10/12
f 14/13 15/14 13/15
f 17/16 18/17 16/18
f 20/19 21/20 19/21
f 23/22 24/23 22/24
f 26/25 27/26 25/27
f 29/28 30/29 28/30
f 32/31 33/32 31/33
f 35/34 36/35 34/36
f 38/37 39/38 37/39
f 41/40 42/41 40/42
f 44/43 45/44 43/45
f 46/46 45/44 44/43
f 47/47 45/44 46/46
f 49/48 50/49 48/50
f 49/48 51/51 50/49
f 52/52 51/51 49/48
f 54/53 55/54 53/55
f 54/53 56/56 55/54
f 58/57 59/58 57/59
f 58/57 60/60 59/58
f 58/57 61/61 60/60
f 63/62 64/63 62/64
f 63/62 65/65 64/63
f 63/62 66/66 65/65
f 67/67 66/66 63/62
f 69/68 70/69 68/70
f 71/71 70/69 69/68
f 71/71 72/72 70/69
f 74/73 75/74 73/75
f 74/73 76/76 75/74
f 77/77 76/76 74/73
f 78/78 76/76 77/77
f 80/79 81/80 79/81
f 80/79 82/82 81/80
f 82/82 80/79 83/83
f 85/84 86/85 84/86
f 85/84 87/87 86/85
f 88/88 87/87 85/84
f 89/89 87/87 88/88
f 91/90 92/91 90/92
f 91/90 93/93 92/91
f 91/90 94/94 93/93
f 94/94 91/90 95/95
f 97/96 98/97 96/98
f 99/99 98/97 97/96
f 100/100 98/97 99/99
f 101/101 98/97 100/100
f 103/102 104/103 102/104
f 105/105 104/103 103/102
f 105/105 103/102 106/106
f 105/105 106/106 107/107
f 109/108 110/109 108/110
f 111/111 110/109 109/108
f 111/111 112/112 110/109
f 114/113 115/114 113/115
f 116/116 115/114 114/113
f 117/117 115/114 116/116
f 119/118 120/119 118/120
f 119/118 121/121 120/119
f 123/122 124/123 122/124
f 123/122 125/125 124/123
f 127/126 128/127 126/128
f 127/126 129/129 128/127
f 131/130 132/131 130/132
f 133/133 132/131 131/130
f 134/134 132/131 133/133
f 136/135 137/136 135/137
f 136/135 138/138 137/136
f 139/139 138/138 136/135
f 141/140 142/141 140/142
f 143/143 142/141 141/140
f 144/144 142/141 143/143
f 145/145 142/141 144/144
f 147/146 148/147 146/148
f 147/146 149/149 148/147
f 150/150 149/149 147/146
f 152/151 153/152 151/153
f 152/151 154/154 153/152
f 156/155 157/156 155/157
f 156/155 158/158 157/156
f 156/155 159/159 158/158
f 161/160 162/161 160/162
f 161/160 163/163 162/161
f 161/160 164/164 163/163
f 165/165 164/164 161/160
f 167/166 168/167 166/168
f 169/169 168/167 167/166
f 169/169 170/170 168/167
f 172/171 173/172 171/173
f 174/174 173/172 172/171
f 175/175 173/172 174/174
f 176/176 173/172 175/175
f 178/177 179/178 177/179
f 178/177 180/180 179/178
f 180/180 178/177 181/181
f 183/182 184/183 182/184
f 183/182 185/185 184/183
f 186/186 185/185 183/182
f 187/187 185/185 186/186
f 189/188 190/189 188/190
f 189/188 191/191 190/189
f 191/191 189/188 192/192
f 194/193 195/194 193/195
f 196/196 195/194 194/193
f 197/197 195/194 196/196
f 198/198 195/194 197/197
f 200/199 201/200 199/201
f 202/202 201/200 200/199
f 201/200 202/202 203/203
f 205/204 206/205 204/206
f 207/207 206/205 205/204
f 207/207 208/208 206/205
f 210/209 211/210 209/211
f 212/212 211/210 210/209
f 213/213 211/210 212/212
f 215/214 216/215 214/216
f 215/214 217/217 216/215
f 218/218 217/217 215/214
f 220/219 221/220 219/221
f 222/222 221/220 220/219
f 223/223 221/220 222/222
f 225/224 226/225 224/226
f 227/227 226/225 225/224
f 228/228 226/225 227/227
f 230/229 231/230 229/231
f 230/229 232/232 231/230
f 233/233 232/232 230/229
f 235/234 236/235 234/236
f 237/237 236/235 235/234
f 236/235 237/237 238/238
f 240/239 241/240 239/241
f 240/239 242/242 241/240
f 240/239 243/243 242/242
f 245/244 246/245 244/246
f 245/244 247/247 246/245
f 245/244 248/248 247/247
f 249/249 248/248 245/244
f 251/250 252/251 250/252
f 253/253 252/251 251/250
f 253/253 254/254 252/251
f 256/255 257/256 255/257
f 256/255 258/258 257/256
f 259/259 258/258 256/255
f 260/260 258/258 259/259
f 262/261 263/262 261/263
f 262/261 264/264 263/262
f 264/264 262/261 265/265
f 267/266 268/267 266/268
f 267/266 269/269 268/267
f 270/270 269/269 267/266
f 271/271 269/269 270/270
f 273/272 274/273 272/274
f 273/272 275/275 274/273
f 275/275 273/272 276/276
f 278/277 279/278 277/279
f 280/280 279/278 278/277
f 281/281 279/278 280/280
f 282/282 279/278 281/281
f 284/283 285/284 283/285
f 286/286 285/284 284/283
f 285/284 286/286 287/287
f 289/288 290/289 288/290
f 291/291 290/289 289/288
f 291/291 292/292 290/289
f 294/293 295/294 293/295
f 296/296 295/294 294/293
f 297/297 295/294 296/296
f 299/298 300/299 298/300
f 299/298 301/301 300/299
f 303/302 304/303 302/304
f 303/302 305/305 304/303
f 307/306 308/307 306/308
f 308/307 307/306 309/309
f 309/309 307/306 310/310
f 310/310 307/306 311/311
f 313/312 314/313 312/314
f 313/312 315/315 314/313
f 316/316 315/315 313/312
f 318/317 319/318 317/319
f 320/320 319/318 318/317
f 319/318 320/320 321/321
f 323/322 324/323 322/324
f 323/322 325/325 324/323
f 323/322 326/326 325/325
f 328/327 329/328 327/329
f 328/327 330/330 329/328
f 328/327 331/331 330/330
f 332/332 331/331 328/327
f 334/333 335/334 333/335
f 336/336 335/334 334/333
f 336/336 337/337 335/334
f 339/338 340/339 338/340
f 339/338 341/341 340/339
f 342/342 341/341 339/338
f 343/343 341/341 342/342
f 345/344 346/345 344/346
f 345/344 347/347 346/345
f 347/347 345/344 348/348
f 350/349 351/350 349/351
f 350/349 352/352 351/350
f 353/353 352/352 350/349
f 354/354 352/352 353/353
f 356/355 357/356 355/357
f 356/355 358/358 357/356
f 356/355 359/359 358/358
f 359/359 356/355 360/360
f 362/361 363/362 361/363
f 364/364 363/362 362/361
f 365/365 363/362 364/364
f 366/366 363/362 365/365
f 368/367 369/368 367/369
f 370/370 369/368 368/367
f 370/370 368/367 371/371
f 370/370 371/371 372/372
f 374/373 375/374 373/375
f 374/373 376/376 375/374
f 378/377 379/378 377/379
f 380/380 379/378 378/377
f 380/380 381/381 379/378
f 383/382 384/383 382/384
f 385/385 384/383 383/382
f 386/386 384/383 385/385
f 388/387 389/388 387/389
f 390/390 389/388 388/387
f 391/391 389/388 390/390
f 393/392 394/393 392/394
f 395/395 394/393 393/392
f 394/393 395/395 396/396
f 398/397 399/398 397/399
f 398/397 400/400 399/398
f 402/401 403/402 401/403
f 402/401 404/404 403/402
f 402/401 405/405 404/404
f 407/406 408/407 406/408
f 407/406 409/409 408/407
f 407/406 410/410 409/409
f 411/411 410/410 407/406
f 413/412 414/413 412/414
f 415/415 414/413 413/412
f 415/415 416/416 414/413
f 418/417 419/418 417/419
f 418/417 420/420 419/418
f 421/421 420/420 418/417
f 422/422 420/420 421/421
f 424/423 425/424 423/425
f 424/423 426/426 425/424
f 426/426 424/423 427/427
f 429/428 430/429 428/430
f 431/431 430/429 429/428
f 432/432 430/429 431/431
f 432/432 433/433 430/429
f 435/434 436/435 434/436
f 437/437 436/435 435/434
f 437/437 438/438 436/435
f 438/438 437/437 439/439
f 441/440 442/441 440/442
f 443/443 442/441 441/440
f 444/444 442/441 443/443
f 445/445 442/441 444/444
f 447/446 448/447 446/448
f 449/449 448/447 447/446
f 449/449 447/446 450/450
f 449/449 450/450 451/451
f 453/452 454/453 452/454
f 453/452 455/455 454/453
f 457/456 458/457 456/458
f 459/459 458/457 457/456
f 459/459 460/460 458/457
f 462/461 463/462 461/463
f 464/464 463/462 462/461
f 465/465 463/462 464/464
f 467/466 468/467 466/468
f 467/466 469/469 468/467
f 471/470 472/471 470/472
f 471/470 473/473 472/471
f 471/470 474/474 473/473
f 475/475 474/474 471/470
f 477/476 478/477 476/478
f 477/476 479/479 478/477
f 480/480 479/479 477/476
f 482/481 483/482 481/483
f 482/481 484/484 483/482
f 485/485 484/484 482/481
f 487/486 488/487 486/488
f 487/486 489/489 488/487
f 487/486 490/490 489/489
f 492/491 493/492 491/493
f 492/491 494/494 493/492
f 492/491 495/495 494/494
f 496/496 495/495 492/491
f 498/497 499/498 497/499
f 500/500 499/498 498/497
f 500/500 501/501 499/498
f 503/502 504/503 502/504
f 503/502 505/505 504/503
f 506/506 505/505 503/502
f 507/507 505/505 506/506
f 509/508 510/509 508/510
f 509/508 511/511 510/509
f 511/511 509/508 512/512
f 514/513 515/514 513/515
f 514/513 516/516 515/514
f 517/517 516/516 514/513
f 518/518 516/516 517/517
f 520/519 521/520 519/521
f 522/522 521/520 520/519
f 522/522 523/523 521/520
f 523/523 522/522 524/524
f 526/525 527/526 525/527
f 528/528 527/526 526/525
f 529/529 527/526 528/528
f 530/530 527/526 529/529
f 532/531 533/532 531/533
f 534/534 533/532 532/531
f 534/534 532/531 535/535
f 534/534 535/535 536/536
f 538/537 539/538 537/539
f 540/540 539/538 538/537
f 540/540 541/541 539/538
f 543/542 544/543 542/544
f 545/545 544/543 543/542
f 546/546 544/543 545/545
f 548/547 549/548 547/549
f 548/547 550/550 549/548
f 552/551 553/552 551/553
f 554/554 553/552 552/551
f 554/554 555/555 553/552
f 557/556 558/557 556/558
f 557/556 559/559 558/557
f 557/556 560/560 559/559
f 562/561 563/562 561/563
f 562/561 564/564 563/562
f 564/564 562/561 565/565
f 567/566 568/567 566/568
f 569/569 568/567 567/566
f 570/570 568/567 569/569
f 572/1 573/2 571/3
f 575/4 576/5 574/6
f 578/7 579/8 577/9
f 581/10 582/11 580/12
f 584/13 585/14 583/15
f 587/16 588/17 586/18
f 590/19 591/20 589/21
f 593/22 594/23 592/24
f 596/25 597/26 595/27
f 599/28 600/29 598/30
f 602/31 603/32 601/33
f 605/34 606/35 604/36
f 608/37 609/38 607/39
f 611/40 612/41 610/42
f 614/43 615/44 613/45
f 616/46 615/44 614/43
f 617/47 615/44 616/46
f 619/48 620/49 618/50
f 619/48 621/51 620/49
f 622/52 621/51 619/48
f 624/53 625/54 623/55
f 624/53 626/56 625/54
f 628/57 629/58 627/59
f 628/57 630/60 629/58
f 628/57 631/61 630/60
f 633/62 634/63 632/64
f 633/62 635/65 634/63
f 633/62 636/66 635/65
f 637/67 636/66 633/62
f 639/68 640/69 638/70
f 641/71 640/69 639/68
f 641/71 642/72 640/69
f 644/73 645/74 643/75
f 644/73 646/76 645/74
f 647/77 646/76 644/73
f 648/78 646/76 647/77
f 650/79 651/80 649/81
f 650/79 652/82 651/80
f 652/82 650/79 653/83
f 655/84 656/85 654/86
f 655/84 657/87 656/85
f 658/88 657/87 655/84
f 659/89 657/87 658/88
f 661/90 662/91 660/92
f 661/90 663/93 662/91
f 661/90 664/94 663/93
f 664/94 661/90 665/95
f 667/96 668/97 666/98
f 669/99 668/97 667/96
f 670/100 668/97 669/99
f 671/101 668/97 670/100
f 673/102 674/103 672/104
f 675/105 674/103 673/102
f 675/105 673/102 676/106
f 675/105 676/106 677/107
f 679/108 680/109 678/110
f 681/111 680/109 679/108
f 681/111 682/112 680/109
f 684/113 685/114 683/115
f 686/116 685/114 684/113
f 687/117 685/114 686/116
f 689/118 690/119 688/120
f 689/118 691/121 690/119
f 693/122 694/123 692/124
f 693/122 695/125 694/123
f 697/126 698/127 696/128
f 697/126 699/129 698/127
f 701/130 702/131 700/132
f 703/133 702/131 701/130
f 704/134 702/131 703/133
f 706/135 707/136 705/137
f 706/135 708/138 707/136
f 709/139 708/138 706/135
f 711/140 712/141 710/142
f 713/143 712/141 711/140
f 714/144 712/141 713/143
f 715/145 712/141 714/144
f 717/146 718/147 716/148
f 717/146 719/149 718/147
f 720/150 719/149 717/146
f 722/151 723/152 721/153
f 722/151 724/154 723/152
f 726/155 727/156 725/157
f 726/155 728/158 727/156
f 726/155 729/159 728/158
f 731/160 732/161 730/162
f 731/160 733/163 732/161
f 731/160 734/164 733/163
f 735/165 734/164 731/160
f 737/166 738/167 736/168
f 739/169 738/167 737/166
f 739/169 740/170 738/167
f 742/171 743/172 741/173
f 744/174 743/172 742/171
f 745/175 743/172 744/174
f 746/176 743/172 745/175
f 748/177 749/178 747/179
f 748/177 750/180 749/178
f 750/180 748/177 751/181
f 753/182 754/183 752/184
f 753/182 755/185 754/183
f 756/186 755/185 753/182
f 757/187 755/185 756/186
f 759/188 760/189 758/190
f 759/188 761/191 760/189
f 761/191 759/188 762/192
f 764/193 765/194 763/195
f 766/196 765/194 764/193
f 767/197 765/194 766/196
f 768/198 765/194 767/197
f 770/199 771/200 769/201
f 772/202 771/200 770/199
f 771/200 772/202 773/203
f 775/204 776/205 774/206
f 777/207 776/205 775/204
f 777/207 778/208 776/205
f 780/209 781/210 779/211
f 782/212 781/210 780/209
f 783/213 781/210 782/212
f 785/214 786/215 784/216
f 785/214 787/217 786/215
f 788/218 787/217 785/214
f 790/219 791/220 789/221
f 792/222 791/220 790/219
f 793/223 791/220 792/222
f 795/224 796/225 794/226
f 797/227 796/225 795/224
f 798/228 796/225 797/227
f 800/229 801/230 799/231
f 800/229 802/232 801/230
f 803/233 802/232 800/229
f 805/234 806/235 804/236
f 807/237 806/235 805/234
f 806/235 807/237 808/238
f 810/239 811/240 809/241
f 810/239 812/242 811/240
f 810/239 813/243 812/242
f 815/244 816/245 814/246
f 815/244 817/247 816/245
f 815/244 818/248 817/247
f 819/249 818/248 815/244
f 821/250 822/251 820/252
f 823/253 822/251 821/250
f 823/253 824/254 822/251
f 826/255 827/256 825/257
f 826/255 828/258 827/256
f 829/259 828/258 826/255
f 830/260 828/258 829/259
f 832/261 833/262 831/263
f 832/261 834/264 833/262
f 834/264 832/261 835/265
f 837/266 838/267 836/268
f 837/266 839/269 838/267
f 840/270 839/269 837/266
f 841/271 839/269 840/270
f 843/272 844/273 842/274
f 843/272 845/275 844/273
f 845/275 843/272 846/276
f 848/277 849/278 847/279
f 850/280 849/278 848/277
f 851/281 849/278 850/280
f 852/282 849/278 851/281
f 854/283 855/284 853/285
f 856/286 855/284 854/283
f 855/284 856/286 857/287
f 859/288 860/289 858/290
f 861/291 860/289 859/288
f 861/291 862/292 860/289
f 864/293 865/294 863/295
f 866/296 865/294 864/293
f 867/297 865/294 866/296
f 869/298 870/299 868/300
f 869/298 871/301 870/299
f 873/302 874/303 872/304
f 873/302 875/305 874/303
f 877/306 878/307 876/308
f 878/307 877/306 879/309
f 879/309 877/306 880/310
f 880/310 877/306 881/311
f 883/312 884/313 882/314
f 883/312 885/315 884/313
f 886/316 885/315 883/312
f 888/317 889/318 887/319
f 890/320 889/318 888/317
f 889/318 890/320 891/321
f 893/322 894/323 892/324
f 893/322 895/325 894/323
f 893/322 896/326 895/325
f 898/327 899/328 897/329
f 898/327 900/330 899/328
f 898/327 901/331 900/330
f 902/332 901/331 898/327
f 904/333 905/334 903/335
f 906/336 905/334 904/333
f 906/336 907/337 905/334
f 909/338 910/339 908/340
f 909/338 911/341 910/339
f 912/342 911/341 909/338
f 913/343 911/341 912/342
f 915/344 916/345 914/346
f 915/344 917/347 916/345
f 917/347 915/344 918/348
f 920/349 921/350 919/351
f 920/349 922/352 921/350
f 923/353 922/352 920/349
f 924/354 922/352 923/353
f 926/355 927/356 925/357
f 926/355 928/358 927/356
f 926/355 929/359 928/358
f 929/359 926/355 930/360
f 932/361 933/362 931/363
f 934/364 933/362 932/361
f 935/365 933/362 934/364
f 936/366 933/362 935/365
f 938/367 939/368 937/369
f 940/370 939/368 938/367
f 940/370 938/367 941/371
f 940/370 941/371 942/372
f 944/373 945/374 943/375
f 944/373 946/376 945/374
f 948/377 949/378 947/379
f 950/380 949/378 948/377
f 950/380 951/381 949/378
f 953/382 954/383 952/384
f 955/385 954/383 953/382
f 956/386 954/383 955/385
f 958/387 959/388 957/389
f 960/390 959/388 958/387
f 961/391 959/388 960/390
f 963/392 964/393 962/394
f 965/395 964/393 963/392
f 964/393 965/395 966/396
f 968/397 969/398 967/399
f 968/397 970/400 969/398
f 972/401 973/402 971/403
f 972/401 974/404 973/402
f 972/401 975/405 974/404
f 977/406 978/407 976/408
f 977/406 979/409 978/407
f 977/406 980/410 979/409
f 981/411 980/410 977/406
f 983/412 984/413 982/414
f 985/415 984/413 983/412
f 985/415 986/416 984/413
f 988/417 989/418 987/419
f 988/417 990/420 989/418
f 991/421 990/420 988/417
f 992/422 990/420 991/421
f 994/423 995/424 993/425
f 994/423 996/426 995/424
f 996/426 994/423 997/427
f 999/428 1000/429 998/430
f 1001/431 1000/429 999/428
f 1002/432 1000/429 1001/431
f 1002/432 1003/433 1000/429
f 1005/434 1006/435 1004/436
f 1007/437 1006/435 1005/434
f 1007/437 1008/438 1006/435
f 1008/438 1007/437 1009/439
f 1011/440 1012/441 1010/442
f 1013/443 1012/441 1011/440
f 1014/444 1012/441 1013/443
f 1015/445 1012/441 1014/444
f 1017/446 1018/447 1016/448
f 1019/449 1018/447 1017/446
f 1019/449 1017/446 1020/450
f 1019/449 1020/450 1021/451
f 1023/452 1024/453 1022/454
f 1023/452 1025/455 1024/453
f 1027/456 1028/457 1026/458
f 1029/459 1028/457 1027/456
f 1029/459 1030/460 1028/457
f 1032/461 1033/462 1031/463
f 1034/464 1033/462 1032/461
f 1035/465 1033/462 1034/464
f 1037/466 1038/467 1036/468
f 1037/466 1039/469 1038/467
f 1041/470 1042/471 1040/472
f 1041/470 1043/473 1042/471
f 1041/470 1044/474 1043/473
f 1045/475 1044/474 1041/470
f 1047/476 1048/477 1046/478
f 1047/476 1049/479 1048/477
f 1050/480 1049/479 1047/476
f 1052/481 1053/482 1051/483
f 1052/481 1054/484 1053/482
f 1055/485 1054/484 1052/481
f 1057/486 1058/487 1056/488
f 1057/486 1059/489 1058/487
f 1057/486 1060/490 1059/489
f 1062/491 1063/492 1061/493
f 1062/491 1064/494 1063/492
f 1062/491 1065/495 1064/494
f 1066/496 1065/495 1062/491
f 1068/497 1069/498 1067/499
f 1070/500 1069/498 1068/497
f 1070/500 1071/501 1069/498
f 1073/502 1074/503 1072/504
f 1073/502 1075/505 1074/503
f 1076/506 1075/505 1073/502
f 1077/507 1075/505 1076/506
f 1079/508 1080/509 1078/510
f 1079/508 1081/511 1080/509
f 1081/511 1079/508 1082/512
f 1084/513 1085/514 1083/515
f 1084/513 1086/516 1085/514
f 1087/517 1086/516 1084/513
f 1088/518 1086/516 1087/517
f 1090/519 1091/520 1089/521
f 1092/522 1091/520 1090/519
f 1092/522 1093/523 1091/520
f 1093/523 1092/522 1094/524
f 1096/525 1097/526 1095/527
f 1098/528 1097/526 1096/525
f 1099/529 1097/526 1098/528
f 1100/530 1097/526 1099/529
f 1102/531 1103/532 1101/533
f 1104/534 1103/532 1102/531
f 1104/534 1102/531 1105/535
f 1104/534 1105/535 1106/536
f 1108/537 1109/538 1107/539
f 1110/540 1109/538 1108/537
f 1110/540 1111/541 1109/538
f 1113/542 1114/543 1112/544
f 1115/545 1114/543 1113/542
f 1116/546 1114/543 1115/545
f 1118/547 1119/548 1117/549
f 1118/547 1120/550 1119/548
f 1122/551 1123/552 1121/553
f 1124/554 1123/552 1122/551
f 1124/554 1125/555 1123/552
f 1127/556 1128/557 1126/558
f 1127/556 1129/559 1128/557
f 1127/556 1130/560 1129/559
f 1132/561 1133/562 1131/563
f 1132/561 1134/564 1133/562
f 1134/564 1132/561 1135/565
f 1137/566 1138/567 1136/568
f 1139/569 1138/567 1137/566
f 1140/570 1138/567 1139/569
