o mosaic_mesmer_tail_stem_2_LOD0
v -0.150905 0.878703 -0.614523
v -0.093960 1.053030 -0.622107
v -0.068350 1.065179 -0.589321
v -0.142094 0.978852 -0.752492
v -0.131357 1.014921 -0.698411
v -0.180165 0.923506 -0.762015
v -0.131357 1.014921 -0.698411
v -0.093960 1.053030 -0.622107
v -0.164392 0.924260 -0.654307
v -0.163026 0.785462 -0.830207
v -0.183110 0.691763 -0.803322
v -0.159579 0.681113 -0.824179
v 0.140629 0.969790 -0.706145
v 0.138254 0.946724 -0.769231
v 0.176173 0.903425 -0.769759
v 0.148340 0.871430 -0.613520
v 0.014492 1.056440 -0.611816
v 0.129112 0.963194 -0.659088
v 0.082555 0.566321 -0.822164
v 0.017557 0.541689 -0.829506
v 0.066669 0.511822 -0.793080
v -0.038850 0.539427 -0.830182
v -0.100658 0.559713 -0.821501
v -0.100999 0.516325 -0.792510
v 0.160187 0.568293 -0.702344
v 0.124718 0.539997 -0.676239
v 0.150906 0.582207 -0.661097
v -0.025396 0.993941 -0.800728
v -0.061642 0.969113 -0.823285
v 0.017087 0.966843 -0.817385
v 0.140629 0.969790 -0.706145
v 0.111000 0.993737 -0.736855
v 0.138254 0.946724 -0.769231
v 0.080040 0.953818 -0.808123
v 0.017087 0.966843 -0.817385
v 0.072172 0.912623 -0.841468
v -0.061642 0.969113 -0.823285
v -0.103967 0.954513 -0.822617
v -0.105172 0.910005 -0.851714
v -0.008662 0.571871 -0.845632
v -0.038850 0.539427 -0.830182
v 0.017557 0.541689 -0.829506
v -0.068350 1.065179 -0.589321
v -0.061054 1.051757 -0.592360
v -0.150905 0.878703 -0.614523
v -0.136258 0.849289 -0.600310
v -0.106919 0.843106 -0.584927
v -0.077437 0.564051 -0.609441
v -0.130995 0.589322 -0.627394
v -0.083328 0.621868 -0.591203
v -0.152378 0.685174 -0.614606
v -0.125756 0.694523 -0.596393
v 0.128291 0.852515 -0.597455
v 0.077947 0.924130 -0.596165
v 0.148340 0.871430 -0.613520
v 0.014492 1.056440 -0.611816
v 0.136225 0.780122 -0.595437
v 0.092407 0.797144 -0.576275
v 0.128291 0.852515 -0.597455
v 0.048650 0.902783 -0.577950
v 0.077947 0.924130 -0.596165
v -0.025039 0.926280 -0.579469
v 0.048650 0.902783 -0.577950
v -0.048351 0.795025 -0.565817
v 0.092407 0.797144 -0.576275
v 0.058230 0.709927 -0.567649
v -0.020466 0.725541 -0.563256
v -0.093656 0.771933 -0.577257
v -0.106919 0.843106 -0.584927
v -0.048351 0.795025 -0.565817
v -0.025039 0.926280 -0.579469
v -0.061054 1.051757 -0.592360
v -0.077437 0.564051 -0.609441
v -0.083328 0.621868 -0.591203
v -0.035619 0.555749 -0.601219
v -0.030353 0.632214 -0.573586
v 0.003476 0.585595 -0.583210
v 0.008252 0.614143 -0.572809
v 0.058230 0.709927 -0.567649
v 0.054363 0.635393 -0.572738
v -0.020466 0.725541 -0.563256
v 0.008252 0.614143 -0.572809
v -0.030353 0.632214 -0.573586
v -0.048351 0.795025 -0.565817
v -0.020466 0.725541 -0.563256
v -0.093656 0.771933 -0.577257
v -0.030353 0.632214 -0.573586
v -0.125756 0.694523 -0.596393
v -0.083328 0.621868 -0.591203
v 0.082656 0.641148 -0.581590
v 0.067977 0.580476 -0.602410
v 0.054363 0.635393 -0.572738
v 0.030674 0.564117 -0.597764
v 0.003476 0.585595 -0.583210
v 0.008252 0.614143 -0.572809
v 0.136225 0.780122 -0.595437
v 0.121419 0.692890 -0.591331
v 0.092407 0.797144 -0.576275
v 0.058230 0.709927 -0.567649
v 0.054363 0.635393 -0.572738
v 0.082656 0.641148 -0.581590
v -0.061054 1.051757 -0.592360
v -0.043794 1.099926 -0.584502
v -0.025039 0.926280 -0.579469
v -0.035184 1.099105 -0.584900
v 0.048650 0.902783 -0.577950
v 0.077947 0.924130 -0.596165
v -0.125756 0.694523 -0.596393
v -0.158836 0.785791 -0.611129
v -0.093656 0.771933 -0.577257
v -0.106919 0.843106 -0.584927
v -0.136258 0.849289 -0.600310
v 0.067977 0.580476 -0.602410
v 0.082656 0.641148 -0.581590
v 0.129682 0.608106 -0.622168
v 0.151227 0.681941 -0.612450
v 0.121419 0.692890 -0.591331
v -0.061054 1.051757 -0.592360
v -0.068350 1.065179 -0.589321
v -0.043794 1.099926 -0.584502
v -0.064854 1.101975 -0.595695
v 0.077947 0.924130 -0.596165
v -0.035184 1.099105 -0.584900
v 0.014492 1.056440 -0.611816
v -0.007848 1.097378 -0.600691
v 0.030674 0.564117 -0.597764
v -0.003767 0.528272 -0.614112
v 0.003476 0.585595 -0.583210
v -0.035619 0.555749 -0.601219
v -0.175061 0.785882 -0.624718
v -0.171133 0.857846 -0.627285
v -0.158836 0.785791 -0.611129
v -0.136258 0.849289 -0.600310
v -0.150905 0.878703 -0.614523
v -0.125756 0.694523 -0.596393
v -0.152378 0.685174 -0.614606
v -0.158836 0.785791 -0.611129
v -0.179194 0.696519 -0.636001
v -0.175061 0.785882 -0.624718
v -0.142094 0.978852 -0.752492
v -0.180165 0.923506 -0.762015
v -0.134312 0.939871 -0.812283
v -0.151413 0.890520 -0.830902
v -0.172088 0.855411 -0.816165
v -0.193657 0.844117 -0.791092
v -0.157046 0.557850 -0.768816
v -0.139075 0.583153 -0.808741
v -0.183444 0.620487 -0.774543
v -0.159579 0.681113 -0.824179
v -0.183110 0.691763 -0.803322
v -0.171133 0.857846 -0.627285
v -0.164392 0.924260 -0.654307
v -0.150905 0.878703 -0.614523
v -0.093960 1.053030 -0.622107
v -0.175061 0.785882 -0.624718
v -0.199050 0.800591 -0.653581
v -0.171133 0.857846 -0.627285
v -0.198893 0.885019 -0.675989
v -0.164392 0.924260 -0.654307
v -0.205701 0.892844 -0.730739
v -0.198893 0.885019 -0.675989
v -0.216824 0.791723 -0.745341
v -0.199050 0.800591 -0.653581
v -0.208284 0.724678 -0.676957
v -0.217564 0.733929 -0.732446
v -0.206506 0.767683 -0.777561
v -0.193657 0.844117 -0.791092
v -0.216824 0.791723 -0.745341
v -0.205701 0.892844 -0.730739
v -0.180165 0.923506 -0.762015
v -0.183444 0.620487 -0.774543
v -0.202563 0.644190 -0.743505
v -0.157046 0.557850 -0.768816
v -0.161120 0.545680 -0.731191
v -0.175709 0.578417 -0.720371
v -0.190485 0.613862 -0.713997
v -0.208284 0.724678 -0.676957
v -0.194645 0.649194 -0.675133
v -0.217564 0.733929 -0.732446
v -0.190485 0.613862 -0.713997
v -0.202563 0.644190 -0.743505
v -0.216824 0.791723 -0.745341
v -0.217564 0.733929 -0.732446
v -0.206506 0.767683 -0.777561
v -0.202563 0.644190 -0.743505
v -0.183110 0.691763 -0.803322
v -0.183444 0.620487 -0.774543
v -0.177874 0.638192 -0.653286
v -0.153460 0.554999 -0.676943
v -0.194645 0.649194 -0.675133
v -0.175709 0.578417 -0.720371
v -0.190485 0.613862 -0.713997
v -0.175061 0.785882 -0.624718
v -0.179194 0.696519 -0.636001
v -0.199050 0.800591 -0.653581
v -0.208284 0.724678 -0.676957
v -0.194645 0.649194 -0.675133
v -0.177874 0.638192 -0.653286
v -0.180165 0.923506 -0.762015
v -0.131357 1.014921 -0.698411
v -0.205701 0.892844 -0.730739
v -0.198893 0.885019 -0.675989
v -0.164392 0.924260 -0.654307
v -0.183110 0.691763 -0.803322
v -0.163026 0.785462 -0.830207
v -0.206506 0.767683 -0.777561
v -0.193657 0.844117 -0.791092
v -0.172088 0.855411 -0.816165
v -0.153460 0.554999 -0.676943
v -0.177874 0.638192 -0.653286
v -0.130995 0.589322 -0.627394
v -0.152378 0.685174 -0.614606
v -0.179194 0.696519 -0.636001
v -0.125047 0.519897 -0.674046
v -0.140206 0.518250 -0.714880
v -0.153460 0.554999 -0.676943
v -0.161120 0.545680 -0.731191
v -0.175709 0.578417 -0.720371
v -0.140083 0.787360 -0.847745
v -0.136261 0.863460 -0.848254
v -0.163026 0.785462 -0.830207
v -0.172088 0.855411 -0.816165
v -0.151413 0.890520 -0.830902
v 0.129112 0.963194 -0.659088
v 0.171526 0.912903 -0.667921
v 0.148340 0.871430 -0.613520
v 0.166996 0.840214 -0.623198
v 0.187333 0.832241 -0.643726
v 0.150906 0.582207 -0.661097
v 0.129682 0.608106 -0.622168
v 0.177485 0.635195 -0.655534
v 0.151227 0.681941 -0.612450
v 0.174909 0.698023 -0.629106
v 0.179316 0.845501 -0.801752
v 0.176173 0.903425 -0.769759
v 0.156705 0.864116 -0.818377
v 0.129206 0.929163 -0.796612
v 0.138254 0.946724 -0.769231
v 0.185127 0.776871 -0.807269
v 0.205775 0.791770 -0.774252
v 0.179316 0.845501 -0.801752
v 0.202572 0.873999 -0.747283
v 0.176173 0.903425 -0.769759
v 0.198549 0.889712 -0.699278
v 0.202572 0.873999 -0.747283
v 0.212186 0.786691 -0.681066
v 0.205775 0.791770 -0.774252
v 0.214748 0.722819 -0.750979
v 0.216593 0.733468 -0.699978
v 0.199156 0.767894 -0.651963
v 0.187333 0.832241 -0.643726
v 0.212186 0.786691 -0.681066
v 0.198549 0.889712 -0.699278
v 0.171526 0.912903 -0.667921
v 0.150906 0.582207 -0.661097
v 0.177485 0.635195 -0.655534
v 0.160187 0.568293 -0.702344
v 0.198725 0.649321 -0.685433
v 0.182399 0.596842 -0.713232
v 0.194437 0.623437 -0.714523
v 0.214748 0.722819 -0.750979
v 0.198451 0.648249 -0.757993
v 0.216593 0.733468 -0.699978
v 0.194437 0.623437 -0.714523
v 0.198725 0.649321 -0.685433
v 0.212186 0.786691 -0.681066
v 0.216593 0.733468 -0.699978
v 0.199156 0.767894 -0.651963
v 0.198725 0.649321 -0.685433
v 0.174909 0.698023 -0.629106
v 0.177485 0.635195 -0.655534
v 0.188176 0.639254 -0.775408
v 0.158688 0.570626 -0.754766
v 0.198451 0.648249 -0.757993
v 0.182399 0.596842 -0.713232
v 0.194437 0.623437 -0.714523
v 0.185127 0.776871 -0.807269
v 0.186625 0.694819 -0.799548
v 0.205775 0.791770 -0.774252
v 0.214748 0.722819 -0.750979
v 0.198451 0.648249 -0.757993
v 0.188176 0.639254 -0.775408
v 0.171526 0.912903 -0.667921
v 0.140629 0.969790 -0.706145
v 0.198549 0.889712 -0.699278
v 0.202572 0.873999 -0.747283
v 0.176173 0.903425 -0.769759
v 0.174909 0.698023 -0.629106
v 0.158779 0.780165 -0.610021
v 0.199156 0.767894 -0.651963
v 0.187333 0.832241 -0.643726
v 0.166996 0.840214 -0.623198
v 0.158688 0.570626 -0.754766
v 0.188176 0.639254 -0.775408
v 0.140726 0.601984 -0.807242
v 0.160614 0.680048 -0.821665
v 0.186625 0.694819 -0.799548
v 0.129112 0.963194 -0.659088
v 0.109459 0.997369 -0.674804
v 0.171526 0.912903 -0.667921
v 0.140629 0.969790 -0.706145
v 0.158688 0.570626 -0.754766
v 0.142344 0.545669 -0.747834
v 0.182399 0.596842 -0.713232
v 0.160187 0.568293 -0.702344
v 0.103140 0.504149 -0.740726
v 0.142344 0.545669 -0.747834
v 0.066669 0.511822 -0.793080
v 0.158688 0.570626 -0.754766
v 0.140726 0.601984 -0.807242
v 0.082555 0.566321 -0.822164
v 0.067977 0.580476 -0.602410
v 0.129682 0.608106 -0.622168
v 0.077012 0.532551 -0.638649
v 0.150906 0.582207 -0.661097
v 0.124718 0.539997 -0.676239
v -0.137696 0.523039 -0.755828
v -0.100999 0.516325 -0.792510
v -0.157046 0.557850 -0.768816
v -0.139075 0.583153 -0.808741
v -0.100658 0.559713 -0.821501
v -0.140206 0.518250 -0.714880
v -0.098743 0.479439 -0.724826
v -0.137696 0.523039 -0.755828
v -0.064317 0.482392 -0.779424
v -0.100999 0.516325 -0.792510
v 0.015451 0.478269 -0.783769
v -0.064317 0.482392 -0.779424
v 0.042757 0.462131 -0.718761
v -0.098743 0.479439 -0.724826
v -0.063503 0.468799 -0.688368
v 0.015462 0.459452 -0.693831
v 0.086727 0.489330 -0.711824
v 0.103140 0.504149 -0.740726
v 0.042757 0.462131 -0.718761
v 0.015451 0.478269 -0.783769
v 0.066669 0.511822 -0.793080
v 0.067977 0.580476 -0.602410
v 0.077012 0.532551 -0.638649
v 0.030674 0.564117 -0.597764
v 0.030924 0.497747 -0.644094
v -0.003767 0.528272 -0.614112
v -0.007798 0.506205 -0.630539
v -0.063503 0.468799 -0.688368
v -0.062566 0.499603 -0.646215
v 0.015462 0.459452 -0.693831
v -0.007798 0.506205 -0.630539
v 0.030924 0.497747 -0.644094
v 0.042757 0.462131 -0.718761
v 0.015462 0.459452 -0.693831
v 0.086727 0.489330 -0.711824
v 0.030924 0.497747 -0.644094
v 0.124718 0.539997 -0.676239
v 0.077012 0.532551 -0.638649
v -0.092651 0.519871 -0.644108
v -0.077437 0.564051 -0.609441
v -0.062566 0.499603 -0.646215
v -0.035619 0.555749 -0.601219
v -0.003767 0.528272 -0.614112
v -0.007798 0.506205 -0.630539
v -0.140206 0.518250 -0.714880
v -0.125047 0.519897 -0.674046
v -0.098743 0.479439 -0.724826
v -0.063503 0.468799 -0.688368
v -0.062566 0.499603 -0.646215
v -0.092651 0.519871 -0.644108
v 0.066669 0.511822 -0.793080
v 0.017557 0.541689 -0.829506
v 0.015451 0.478269 -0.783769
v -0.038850 0.539427 -0.830182
v -0.064317 0.482392 -0.779424
v -0.100999 0.516325 -0.792510
v -0.140206 0.518250 -0.714880
v -0.137696 0.523039 -0.755828
v -0.161120 0.545680 -0.731191
v -0.157046 0.557850 -0.768816
v 0.124718 0.539997 -0.676239
v 0.160187 0.568293 -0.702344
v 0.086727 0.489330 -0.711824
v 0.103140 0.504149 -0.740726
v 0.142344 0.545669 -0.747834
v -0.077437 0.564051 -0.609441
v -0.092651 0.519871 -0.644108
v -0.130995 0.589322 -0.627394
v -0.153460 0.554999 -0.676943
v -0.125047 0.519897 -0.674046
v 0.014492 1.056440 -0.611816
v -0.007848 1.097378 -0.600691
v 0.129112 0.963194 -0.659088
v 0.109459 0.997369 -0.674804
v 0.054551 1.048610 -0.661791
v 0.111000 0.993737 -0.736855
v 0.081135 0.995039 -0.768183
v 0.138254 0.946724 -0.769231
v 0.129206 0.929163 -0.796612
v 0.080040 0.953818 -0.808123
v -0.093579 1.068232 -0.623306
v -0.064854 1.101975 -0.595695
v -0.093960 1.053030 -0.622107
v -0.068350 1.065179 -0.589321
v -0.108622 1.047671 -0.676241
v -0.079143 1.095924 -0.630113
v -0.093579 1.068232 -0.623306
v -0.056141 1.105876 -0.597381
v -0.064854 1.101975 -0.595695
v -0.022517 1.103362 -0.595781
v -0.056141 1.105876 -0.597381
v 0.001607 1.099456 -0.637877
v -0.079143 1.095924 -0.630113
v -0.066386 1.080094 -0.673204
v -0.000992 1.091850 -0.659833
v 0.055733 1.051178 -0.687555
v 0.054551 1.048610 -0.661791
v 0.001607 1.099456 -0.637877
v -0.022517 1.103362 -0.595781
v -0.007848 1.097378 -0.600691
v 0.080040 0.953818 -0.808123
v 0.081135 0.995039 -0.768183
v 0.017087 0.966843 -0.817385
v 0.034265 1.030539 -0.750790
v -0.025396 0.993941 -0.800728
v -0.019953 1.016825 -0.776784
v -0.066386 1.080094 -0.673204
v -0.080149 1.023647 -0.763168
v -0.000992 1.091850 -0.659833
v -0.019953 1.016825 -0.776784
v 0.034265 1.030539 -0.750790
v 0.111000 0.993737 -0.736855
v 0.055733 1.051178 -0.687555
v 0.081135 0.995039 -0.768183
v 0.034265 1.030539 -0.750790
v -0.000992 1.091850 -0.659833
v 0.001607 1.099456 -0.637877
v -0.103967 0.954513 -0.822617
v -0.061642 0.969113 -0.823285
v -0.098151 1.008661 -0.772154
v -0.080149 1.023647 -0.763168
v -0.025396 0.993941 -0.800728
v -0.019953 1.016825 -0.776784
v -0.108622 1.047671 -0.676241
v -0.116165 1.020639 -0.735327
v -0.079143 1.095924 -0.630113
v -0.066386 1.080094 -0.673204
v -0.080149 1.023647 -0.763168
v -0.098151 1.008661 -0.772154
v -0.007848 1.097378 -0.600691
v -0.035184 1.099105 -0.584900
v -0.022517 1.103362 -0.595781
v -0.043794 1.099926 -0.584502
v -0.056141 1.105876 -0.597381
v -0.064854 1.101975 -0.595695
v -0.108622 1.047671 -0.676241
v -0.093579 1.068232 -0.623306
v -0.131357 1.014921 -0.698411
v -0.093960 1.053030 -0.622107
v 0.111000 0.993737 -0.736855
v 0.140629 0.969790 -0.706145
v 0.055733 1.051178 -0.687555
v 0.054551 1.048610 -0.661791
v 0.109459 0.997369 -0.674804
v -0.103967 0.954513 -0.822617
v -0.098151 1.008661 -0.772154
v -0.134312 0.939871 -0.812283
v -0.142094 0.978852 -0.752492
v -0.116165 1.020639 -0.735327
v -0.116165 1.020639 -0.735327
v -0.108622 1.047671 -0.676241
v -0.142094 0.978852 -0.752492
v -0.131357 1.014921 -0.698411
v 0.114227 0.830778 -0.852697
v 0.143286 0.836812 -0.835246
v 0.072172 0.912623 -0.841468
v 0.156705 0.864116 -0.818377
v 0.129206 0.929163 -0.796612
v 0.080040 0.953818 -0.808123
v 0.082555 0.566321 -0.822164
v 0.140726 0.601984 -0.807242
v 0.094904 0.628226 -0.844856
v 0.160614 0.680048 -0.821665
v 0.136135 0.694642 -0.842256
v -0.103967 0.954513 -0.822617
v -0.134312 0.939871 -0.812283
v -0.105172 0.910005 -0.851714
v -0.151413 0.890520 -0.830902
v -0.136261 0.863460 -0.848254
v -0.140083 0.787360 -0.847745
v -0.103404 0.803227 -0.866567
v -0.136261 0.863460 -0.848254
v -0.079820 0.892906 -0.863582
v -0.105172 0.910005 -0.851714
v 0.015001 0.889559 -0.862532
v -0.079820 0.892906 -0.863582
v 0.052785 0.785636 -0.875382
v -0.103404 0.803227 -0.866567
v -0.065633 0.723169 -0.873595
v 0.025109 0.731072 -0.878884
v 0.101407 0.765123 -0.863172
v 0.114227 0.830778 -0.852697
v 0.052785 0.785636 -0.875382
v 0.015001 0.889559 -0.862532
v 0.072172 0.912623 -0.841468
v 0.082555 0.566321 -0.822164
v 0.094904 0.628226 -0.844856
v 0.017557 0.541689 -0.829506
v 0.044171 0.638349 -0.862657
v -0.008662 0.571871 -0.845632
v -0.009793 0.606866 -0.858181
v -0.065633 0.723169 -0.873595
v -0.067653 0.632991 -0.859134
v 0.025109 0.731072 -0.878884
v -0.009793 0.606866 -0.858181
v 0.044171 0.638349 -0.862657
v 0.052785 0.785636 -0.875382
v 0.025109 0.731072 -0.878884
v 0.101407 0.765123 -0.863172
v 0.044171 0.638349 -0.862657
v 0.136135 0.694642 -0.842256
v 0.094904 0.628226 -0.844856
v -0.100658 0.559713 -0.821501
v -0.038850 0.539427 -0.830182
v -0.099183 0.627982 -0.847792
v -0.067653 0.632991 -0.859134
v -0.008662 0.571871 -0.845632
v -0.009793 0.606866 -0.858181
v -0.140083 0.787360 -0.847745
v -0.130962 0.693163 -0.846118
v -0.103404 0.803227 -0.866567
v -0.065633 0.723169 -0.873595
v -0.067653 0.632991 -0.859134
v -0.099183 0.627982 -0.847792
v 0.072172 0.912623 -0.841468
v 0.017087 0.966843 -0.817385
v 0.015001 0.889559 -0.862532
v -0.061642 0.969113 -0.823285
v -0.079820 0.892906 -0.863582
v -0.105172 0.910005 -0.851714
v 0.136135 0.694642 -0.842256
v 0.166131 0.776524 -0.825289
v 0.101407 0.765123 -0.863172
v 0.114227 0.830778 -0.852697
v 0.143286 0.836812 -0.835246
v -0.100658 0.559713 -0.821501
v -0.099183 0.627982 -0.847792
v -0.139075 0.583153 -0.808741
v -0.159579 0.681113 -0.824179
v -0.130962 0.693163 -0.846118
v -0.140083 0.787360 -0.847745
v -0.163026 0.785462 -0.830207
v -0.130962 0.693163 -0.846118
v -0.159579 0.681113 -0.824179
v 0.136225 0.780122 -0.595437
v 0.128291 0.852515 -0.597455
v 0.158779 0.780165 -0.610021
v 0.166996 0.840214 -0.623198
v 0.148340 0.871430 -0.613520
v 0.174909 0.698023 -0.629106
v 0.151227 0.681941 -0.612450
v 0.158779 0.780165 -0.610021
v 0.121419 0.692890 -0.591331
v 0.136225 0.780122 -0.595437
v 0.136135 0.694642 -0.842256
v 0.160614 0.680048 -0.821665
v 0.166131 0.776524 -0.825289
v 0.186625 0.694819 -0.799548
v 0.185127 0.776871 -0.807269
v 0.185127 0.776871 -0.807269
v 0.179316 0.845501 -0.801752
v 0.166131 0.776524 -0.825289
v 0.143286 0.836812 -0.835246
v 0.156705 0.864116 -0.818377
vt 0.918798 0.115675
vt 0.919856 0.179201
vt 0.852637 0.145730
vt 0.931226 0.114712
vt 0.976893 0.046646
vt 0.977209 0.107030
vt 0.891932 0.189518
vt 0.937104 0.191105
vt 0.939342 0.271719
vt 0.347171 0.978798
vt 0.356292 0.947830
vt 0.405461 0.983653
vt 0.351046 0.871186
vt 0.355719 0.915724
vt 0.270369 0.920145
vt 0.173956 0.888708
vt 0.102476 0.884992
vt 0.131792 0.817461
vt 0.477256 0.430091
vt 0.434690 0.386361
vt 0.485032 0.385676
vt 0.926112 0.509229
vt 0.925868 0.464146
vt 0.983642 0.461888
vt 0.116765 0.391657
vt 0.139774 0.364022
vt 0.171062 0.397072
vt 0.336134 0.437650
vt 0.290016 0.437337
vt 0.314739 0.413745
vt 0.973135 0.605888
vt 0.940172 0.634714
vt 0.891932 0.602513
vt 0.140688 0.327176
vt 0.091759 0.300581
vt 0.135387 0.286327
vt 0.233214 0.048527
vt 0.232861 0.009886
vt 0.282636 0.007812
vt 0.534653 0.146414
vt 0.488273 0.146728
vt 0.512816 0.122588
vt 0.384555 0.924605
vt 0.429088 0.872533
vt 0.448571 0.907498
vt 0.366818 0.902541
vt 0.368506 0.875726
vt 0.123207 0.897548
vt 0.115166 0.947727
vt 0.088187 0.913052
vt 0.167451 0.939049
vt 0.167871 0.911815
vt 0.989441 0.208138
vt 0.950873 0.247360
vt 0.962679 0.199673
vt 0.975762 0.275944
vt 0.315278 0.732265
vt 0.269284 0.777173
vt 0.261439 0.726562
vt 0.342575 0.808559
vt 0.364426 0.769084
vt 0.194993 0.358595
vt 0.277737 0.251997
vt 0.285028 0.329856
vt 0.200696 0.215986
vt 0.148914 0.249927
vt 0.156098 0.333008
vt 0.267967 0.551870
vt 0.304096 0.613311
vt 0.256080 0.598848
vt 0.356116 0.527431
vt 0.377778 0.577960
vt 0.500677 0.899121
vt 0.456123 0.931617
vt 0.469737 0.894690
vt 0.488753 0.953171
vt 0.526313 0.924959
vt 0.524492 0.945773
vt 0.753187 0.439108
vt 0.685532 0.354022
vt 0.745889 0.357334
vt 0.665097 0.411459
vt 0.684721 0.455174
vt 0.152703 0.481100
vt 0.130265 0.411257
vt 0.168105 0.435370
vt 0.064515 0.431670
vt 0.101242 0.518624
vt 0.052465 0.480467
vt 0.911694 0.373232
vt 0.913355 0.318002
vt 0.933450 0.359129
vt 0.882423 0.324199
vt 0.857996 0.351637
vt 0.864858 0.371577
vt 0.249204 0.624703
vt 0.180416 0.591097
vt 0.235540 0.574942
vt 0.202475 0.659871
vt 0.144800 0.653754
vt 0.139984 0.621754
vt 0.084477 0.753393
vt 0.086932 0.812736
vt 0.047107 0.771928
vt 0.109329 0.813654
vt 0.141894 0.752273
vt 0.168182 0.775896
vt 0.770013 0.845966
vt 0.774467 0.906915
vt 0.731183 0.876761
vt 0.805852 0.860979
vt 0.810438 0.888646
vt 0.947331 0.040295
vt 0.895504 0.045268
vt 0.918230 0.007812
vt 0.930751 0.086544
vt 0.899730 0.083948
vt 0.842941 0.324379
vt 0.774049 0.324750
vt 0.793014 0.281510
vt 0.774680 0.367513
vt 0.855885 0.539936
vt 0.790124 0.531445
vt 0.860688 0.498996
vt 0.832338 0.578590
vt 0.421121 0.975652
vt 0.425468 0.927815
vt 0.456527 0.954890
vt 0.390038 0.948849
vt 0.271921 0.947208
vt 0.319364 0.977893
vt 0.270369 0.973026
vt 0.314171 0.929363
vt 0.338593 0.952430
vt 0.769231 0.922066
vt 0.711536 0.922677
vt 0.717636 0.891422
vt 0.718126 0.957847
vt 0.769053 0.947946
vt 0.144970 0.731971
vt 0.119656 0.663623
vt 0.164821 0.668241
vt 0.092083 0.742121
vt 0.062320 0.724921
vt 0.052465 0.693821
vt 0.052694 0.807102
vt 0.024604 0.859127
vt 0.007812 0.809220
vt 0.085360 0.869663
vt 0.096273 0.839913
vt 0.216613 0.844515
vt 0.233191 0.903621
vt 0.193567 0.865730
vt 0.275322 0.898516
vt 0.763589 0.013516
vt 0.717595 0.058424
vt 0.709750 0.007812
vt 0.790886 0.089810
vt 0.812737 0.050335
vt 0.328951 0.150422
vt 0.411695 0.043824
vt 0.418986 0.121683
vt 0.334653 0.007812
vt 0.282872 0.041754
vt 0.290055 0.124835
vt 0.504666 0.584521
vt 0.539563 0.646669
vt 0.491845 0.631253
vt 0.593283 0.561843
vt 0.613935 0.612793
vt 0.789913 0.437460
vt 0.852551 0.400007
vt 0.836978 0.444192
vt 0.784766 0.383681
vt 0.808831 0.364574
vt 0.833549 0.360629
vt 0.712128 0.334166
vt 0.644407 0.249133
vt 0.704767 0.252398
vt 0.624017 0.306586
vt 0.643675 0.350285
vt 0.279516 0.423924
vt 0.257078 0.354081
vt 0.294918 0.378194
vt 0.191328 0.374493
vt 0.228055 0.461448
vt 0.179278 0.423291
vt 0.883020 0.070688
vt 0.818702 0.070739
vt 0.874189 0.041275
vt 0.840836 0.124729
vt 0.865782 0.123455
vt 0.479611 0.638850
vt 0.410823 0.605245
vt 0.465947 0.589089
vt 0.432882 0.674018
vt 0.375207 0.667901
vt 0.370391 0.635901
vt 0.433866 0.114735
vt 0.507097 0.088732
vt 0.461219 0.159196
vt 0.425760 0.043328
vt 0.452119 0.007812
vt 0.769589 0.446218
vt 0.778530 0.520244
vt 0.724038 0.485988
vt 0.814134 0.462450
vt 0.821317 0.495906
vt 0.190313 0.777326
vt 0.222904 0.829007
vt 0.164989 0.842962
vt 0.251595 0.769812
vt 0.261202 0.804144
vt 0.952466 0.387952
vt 0.924808 0.434398
vt 0.918723 0.384117
vt 0.948058 0.451935
vt 0.972333 0.437689
vt 0.007812 0.966452
vt 0.056893 0.990415
vt 0.009308 0.991409
vt 0.046297 0.944440
vt 0.072403 0.963754
vt 0.354316 0.726715
vt 0.435083 0.746080
vt 0.420139 0.788569
vt 0.368357 0.695403
vt 0.398234 0.682441
vt 0.876413 0.216522
vt 0.825363 0.186443
vt 0.871125 0.172839
vt 0.813343 0.242884
vt 0.841922 0.258937
vt 0.910469 0.254853
vt 0.850851 0.273813
vt 0.888052 0.232126
vt 0.897660 0.305923
vt 0.862235 0.315413
vt 0.797032 0.249934
vt 0.752590 0.203489
vt 0.803278 0.196154
vt 0.720466 0.276460
vt 0.759719 0.298708
vt 0.007812 0.195752
vt 0.114410 0.278496
vt 0.036551 0.285787
vt 0.150422 0.201454
vt 0.116480 0.149673
vt 0.033399 0.156856
vt 0.556859 0.390262
vt 0.495418 0.426390
vt 0.509880 0.378374
vt 0.581297 0.478410
vt 0.530768 0.500073
vt 0.726485 0.793607
vt 0.665097 0.844762
vt 0.667275 0.798463
vt 0.708930 0.860983
vt 0.744954 0.817924
vt 0.748505 0.842641
vt 0.479334 0.739361
vt 0.564419 0.671706
vt 0.561107 0.732063
vt 0.506982 0.651271
vt 0.463268 0.670895
vt 0.447208 0.359392
vt 0.517051 0.336953
vt 0.492938 0.374794
vt 0.496639 0.271203
vt 0.409685 0.307930
vt 0.447842 0.259153
vt 0.624537 0.856953
vt 0.621584 0.792702
vt 0.653521 0.846803
vt 0.568648 0.817250
vt 0.571046 0.842113
vt 0.042981 0.673054
vt 0.076586 0.604267
vt 0.092741 0.659390
vt 0.007812 0.626325
vt 0.013930 0.568650
vt 0.045929 0.563834
vt 0.476286 0.168546
vt 0.494796 0.243993
vt 0.429332 0.191359
vt 0.548147 0.167552
vt 0.580878 0.197301
vt 0.812354 0.617558
vt 0.738327 0.626498
vt 0.772583 0.572007
vt 0.796121 0.662102
vt 0.762665 0.669285
vt 0.815025 0.114310
vt 0.763670 0.147517
vt 0.749044 0.089710
vt 0.822742 0.171501
vt 0.788990 0.185566
vt 0.019291 0.474412
vt 0.035167 0.540761
vt 0.007812 0.517465
vt 0.080300 0.524202
vt 0.944438 0.331952
vt 0.981326 0.286825
vt 0.991413 0.306449
vt 0.927654 0.309566
vt 0.670455 0.139586
vt 0.732426 0.197345
vt 0.700645 0.207104
vt 0.752429 0.185008
vt 0.739098 0.113857
vt 0.690486 0.099016
vt 0.822274 0.632685
vt 0.873176 0.664644
vt 0.823557 0.678052
vt 0.883859 0.617946
vt 0.857784 0.591282
vt 0.970317 0.531135
vt 0.925868 0.560299
vt 0.946826 0.517426
vt 0.971870 0.576074
vt 0.942271 0.593261
vt 0.688008 0.557549
vt 0.733021 0.604252
vt 0.681172 0.611730
vt 0.765610 0.531443
vt 0.726482 0.509155
vt 0.284577 0.160012
vt 0.178048 0.077550
vt 0.255766 0.070160
vt 0.141770 0.154334
vt 0.176022 0.206164
vt 0.258992 0.198940
vt 0.550290 0.332158
vt 0.612922 0.297317
vt 0.597294 0.345216
vt 0.527567 0.243634
vt 0.578538 0.222989
vt 0.398346 0.862628
vt 0.441776 0.811882
vt 0.435807 0.859458
vt 0.397700 0.795699
vt 0.361283 0.839009
vt 0.357888 0.814516
vt 0.689200 0.007812
vt 0.604370 0.075274
vt 0.607561 0.015144
vt 0.661805 0.096247
vt 0.705393 0.076033
vt 0.367287 0.312637
vt 0.297161 0.335184
vt 0.321205 0.297212
vt 0.317679 0.400787
vt 0.405539 0.364978
vt 0.366479 0.412664
vt 0.292446 0.811951
vt 0.273673 0.874849
vt 0.263225 0.821236
vt 0.310826 0.877166
vt 0.347035 0.853026
vt 0.345379 0.828597
vt 0.632082 0.129430
vt 0.597696 0.199299
vt 0.581150 0.143411
vt 0.667423 0.176465
vt 0.661322 0.234081
vt 0.629157 0.238804
vt 0.490879 0.574883
vt 0.492108 0.501321
vt 0.535814 0.548454
vt 0.441977 0.502916
vt 0.419492 0.581373
vt 0.384679 0.554435
vt 0.988524 0.938404
vt 0.965931 0.971800
vt 0.963376 0.925229
vt 0.992188 0.986505
vt 0.574291 0.857287
vt 0.561028 0.917659
vt 0.532926 0.886741
vt 0.609655 0.874457
vt 0.612634 0.903026
vt 0.919908 0.524470
vt 0.868712 0.536785
vt 0.886651 0.496322
vt 0.906874 0.582927
vt 0.878321 0.574165
vt 0.786864 0.738922
vt 0.706177 0.719788
vt 0.734337 0.679713
vt 0.773071 0.773052
vt 0.741728 0.785333
vt 0.912053 0.442547
vt 0.852637 0.442875
vt 0.890820 0.403386
vt 0.901469 0.477830
vt 0.852825 0.487835
vt 0.958017 0.739941
vt 0.990489 0.703781
vt 0.989040 0.751334
vt 0.961420 0.681902
vt 0.186109 0.712035
vt 0.231228 0.758725
vt 0.179278 0.766261
vt 0.263913 0.685793
vt 0.224662 0.663536
vt 0.150900 0.097803
vt 0.044229 0.015207
vt 0.122097 0.007812
vt 0.007812 0.092129
vt 0.042225 0.144128
vt 0.125341 0.136879
vt 0.530596 0.116867
vt 0.593394 0.082034
vt 0.577770 0.130075
vt 0.507920 0.028205
vt 0.559002 0.007812
vt 0.796666 0.840475
vt 0.852538 0.789201
vt 0.848488 0.836199
vt 0.808461 0.773143
vt 0.772215 0.816511
vt 0.768691 0.791785
vt 0.689274 0.624790
vt 0.604370 0.692413
vt 0.607492 0.632141
vt 0.661721 0.713152
vt 0.705457 0.693176
vt 0.074342 0.413992
vt 0.078853 0.313957
vt 0.115246 0.367612
vt 0.025895 0.400329
vt 0.007812 0.333862
vt 0.033224 0.296670
vt 0.452551 0.830756
vt 0.510979 0.884678
vt 0.453046 0.882984
vt 0.481481 0.820467
vt 0.537029 0.859750
vt 0.534556 0.835182
vt 0.617881 0.353850
vt 0.583414 0.423783
vt 0.566862 0.367925
vt 0.653399 0.401007
vt 0.647343 0.458749
vt 0.614976 0.463454
vt 0.298439 0.529230
vt 0.289983 0.455817
vt 0.343529 0.502913
vt 0.261940 0.456724
vt 0.226850 0.536000
vt 0.191781 0.509139
vt 0.016020 0.737257
vt 0.036048 0.688340
vt 0.040251 0.735880
vt 0.007812 0.663539
vt 0.663723 0.919747
vt 0.661688 0.859185
vt 0.703104 0.889130
vt 0.628195 0.904370
vt 0.624017 0.876380
vt 0.888359 0.779948
vt 0.940587 0.772055
vt 0.912456 0.804380
vt 0.905072 0.726724
vt 0.934130 0.733548
vt 0.666883 0.982215
vt 0.699675 0.936189
vt 0.699325 0.985158
vt 0.677073 0.929559
vt 0.883273 0.744044
vt 0.847983 0.685455
vt 0.874556 0.684652
vt 0.827875 0.704958
vt 0.824060 0.748675
vt 0.858459 0.771366
vt 0.953040 0.912973
vt 0.902648 0.907127
vt 0.934880 0.879688
vt 0.912809 0.955477
vt 0.940747 0.958135
vt 0.614659 0.966988
vt 0.623039 0.918787
vt 0.645019 0.945509
vt 0.578421 0.927063
vt 0.568648 0.952783
vt 0.621368 0.780294
vt 0.667362 0.735386
vt 0.675208 0.785997
vt 0.594071 0.704000
vt 0.572220 0.743475
vt 0.376479 0.156181
vt 0.293735 0.262779
vt 0.286444 0.184920
vt 0.370776 0.298790
vt 0.422558 0.264849
vt 0.415374 0.181768
vt 0.180137 0.576646
vt 0.144009 0.515205
vt 0.192024 0.529668
vt 0.091989 0.601084
vt 0.070326 0.550556
vt 0.023277 0.928587
vt 0.078479 0.897364
vt 0.066461 0.934801
vt 0.045531 0.875771
vt 0.007812 0.904344
vt 0.009560 0.883370
vt 0.272155 0.634570
vt 0.339810 0.719655
vt 0.279453 0.716343
vt 0.360245 0.662218
vt 0.340621 0.618504
vt 0.360787 0.436636
vt 0.383226 0.506480
vt 0.345385 0.482367
vt 0.448976 0.486067
vt 0.412248 0.399113
vt 0.461025 0.437270
vt 0.145342 0.023449
vt 0.205868 0.054223
vt 0.157668 0.066187
vt 0.166557 0.008209
vt 0.221558 0.027581
vt 0.213773 0.007812
vt 0.595439 0.507191
vt 0.664226 0.540797
vt 0.609103 0.556952
vt 0.642168 0.472023
vt 0.699843 0.478140
vt 0.704659 0.510140
vt 0.550783 0.809022
vt 0.556430 0.749939
vt 0.588493 0.790659
vt 0.516044 0.748014
vt 0.493041 0.809581
vt 0.466840 0.785571
vt 0.911801 0.855540
vt 0.850851 0.859994
vt 0.881005 0.816709
vt 0.896788 0.891379
vt 0.869120 0.895965
vt 0.823507 0.899523
vt 0.835636 0.951020
vt 0.800841 0.925862
vt 0.875803 0.910632
vt 0.873999 0.941451
vt 0.084615 0.988655
vt 0.138530 0.965422
vt 0.133433 0.989237
vt 0.085245 0.954988
vt 0.961515 0.124252
vt 0.938320 0.173700
vt 0.936584 0.126137
vt 0.984124 0.162389
vt 0.965219 0.188793
vt 0.211908 0.971411
vt 0.213598 0.911696
vt 0.243440 0.922672
vt 0.179278 0.920645
vt 0.186899 0.970249
vt 0.921435 0.715949
vt 0.921799 0.654258
vt 0.952863 0.664899
vt 0.886573 0.664290
vt 0.895589 0.715327
vt 0.960125 0.805504
vt 0.929440 0.852946
vt 0.934307 0.803952
vt 0.977970 0.847754
vt 0.954903 0.872175
s 1
f 3/1 2/2 1/3
f 6/4 5/5 4/6
f 9/7 8/8 7/9
f 12/10 11/11 10/12
f 15/13 14/14 13/15
f 18/16 17/17 16/18
f 21/19 20/20 19/21
f 24/22 23/23 22/24
f 27/25 26/26 25/27
f 30/28 29/29 28/30
f 33/31 32/32 31/33
f 36/34 35/35 34/36
f 39/37 38/38 37/39
f 42/40 41/41 40/42
f 45/43 44/44 43/45
f 46/46 44/44 45/43
f 47/47 44/44 46/46
f 50/48 49/49 48/50
f 50/48 51/51 49/49
f 52/52 51/51 50/48
f 55/53 54/54 53/55
f 55/53 56/56 54/54
f 59/57 58/58 57/59
f 59/57 60/60 58/58
f 59/57 61/61 60/60
f 64/62 63/63 62/64
f 64/62 65/65 63/63
f 64/62 66/66 65/65
f 67/67 66/66 64/62
f 70/68 69/69 68/70
f 71/71 69/69 70/68
f 71/71 72/72 69/69
f 75/73 74/74 73/75
f 75/73 76/76 74/74
f 77/77 76/76 75/73
f 78/78 76/76 77/77
f 81/79 80/80 79/81
f 81/79 82/82 80/80
f 82/82 81/79 83/83
f 86/84 85/85 84/86
f 86/84 87/87 85/85
f 88/88 87/87 86/84
f 89/89 87/87 88/88
f 92/90 91/91 90/92
f 92/90 93/93 91/91
f 92/90 94/94 93/93
f 94/94 92/90 95/95
f 98/96 97/97 96/98
f 99/99 97/97 98/96
f 100/100 97/97 99/99
f 101/101 97/97 100/100
f 104/102 103/103 102/104
f 105/105 103/103 104/102
f 105/105 104/102 106/106
f 105/105 106/106 107/107
f 110/108 109/109 108/110
f 111/111 109/109 110/108
f 111/111 112/112 109/109
f 115/113 114/114 113/115
f 116/116 114/114 115/113
f 117/117 114/114 116/116
f 120/118 119/119 118/120
f 120/118 121/121 119/119
f 124/122 123/123 122/124
f 124/122 125/125 123/123
f 128/126 127/127 126/128
f 128/126 129/129 127/127
f 132/130 131/131 130/132
f 133/133 131/131 132/130
f 134/134 131/131 133/133
f 137/135 136/136 135/137
f 137/135 138/138 136/136
f 139/139 138/138 137/135
f 142/140 141/141 140/142
f 143/143 141/141 142/140
f 144/144 141/141 143/143
f 145/145 141/141 144/144
f 148/146 147/147 146/148
f 148/146 149/149 147/147
f 150/150 149/149 148/146
f 153/151 152/152 151/153
f 153/151 154/154 152/152
f 157/155 156/156 155/157
f 157/155 158/158 156/156
f 157/155 159/159 158/158
f 162/160 161/161 160/162
f 162/160 163/163 161/161
f 162/160 164/164 163/163
f 165/165 164/164 162/160
f 168/166 167/167 166/168
f 169/169 167/167 168/166
f 169/169 170/170 167/167
f 173/171 172/172 171/173
f 174/174 172/172 173/171
f 175/175 172/172 174/174
f 176/176 172/172 175/175
f 179/177 178/178 177/179
f 179/177 180/180 178/178
f 180/180 179/177 181/181
f 184/182 183/183 182/184
f 184/182 185/185 183/183
f 186/186 185/185 184/182
f 187/187 185/185 186/186
f 190/188 189/189 188/190
f 190/188 191/191 189/189
f 191/191 190/188 192/192
f 195/193 194/194 193/195
f 196/196 194/194 195/193
f 197/197 194/194 196/196
f 198/198 194/194 197/197
f 201/199 200/200 199/201
f 202/202 200/200 201/199
f 200/200 202/202 203/203
f 206/204 205/205 204/206
f 207/207 205/205 206/204
f 207/207 208/208 205/205
f 211/209 210/210 209/211
f 212/212 210/210 211/209
f 213/213 210/210 212/212
f 216/214 215/215 214/216
f 216/214 217/217 215/215
f 218/218 217/217 216/214
f 221/219 220/220 219/221
f 222/222 220/220 221/219
f 223/223 220/220 222/222
f 226/224 225/225 224/226
f 227/227 225/225 226/224
f 228/228 225/225 227/227
f 231/229 230/230 229/231
f 231/229 232/232 230/230
f 233/233 232/232 231/229
f 236/234 235/235 234/236
f 237/237 235/235 236/234
f 235/235 237/237 238/238
f 241/239 240/240 239/241
f 241/239 242/242 240/240
f 241/239 243/243 242/242
f 246/244 245/245 244/246
f 246/244 247/247 245/245
f 246/244 248/248 247/247
f 249/249 248/248 246/244
f 252/250 251/251 250/252
f 253/253 251/251 252/250
f 253/253 254/254 251/251
f 257/255 256/256 255/257
f 257/255 258/258 256/256
f 259/259 258/258 257/255
f 260/260 258/258 259/259
f 263/261 262/262 261/263
f 263/261 264/264 262/262
f 264/264 263/261 265/265
f 268/266 267/267 266/268
f 268/266 269/269 267/267
f 270/270 269/269 268/266
f 271/271 269/269 270/270
f 274/272 273/273 272/274
f 274/272 275/275 273/273
f 275/275 274/272 276/276
f 279/277 278/278 277/279
f 280/280 278/278 279/277
f 281/281 278/278 280/280
f 282/282 278/278 281/281
f 285/283 284/284 283/285
f 286/286 284/284 285/283
f 284/284 286/286 287/287
f 290/288 289/289 288/290
f 291/291 289/289 290/288
f 291/291 292/292 289/289
f 295/293 294/294 293/295
f 296/296 294/294 295/293
f 297/297 294/294 296/296
f 300/298 299/299 298/300
f 300/298 301/301 299/299
f 304/302 303/303 302/304
f 304/302 305/305 303/303
f 308/306 307/307 306/308
f 307/307 308/306 309/309
f 309/309 308/306 310/310
f 310/310 308/306 311/311
f 314/312 313/313 312/314
f 314/312 315/315 313/313
f 316/316 315/315 314/312
f 319/317 318/318 317/319
f 320/320 318/318 319/317
f 318/318 320/320 321/321
f 324/322 323/323 322/324
f 324/322 325/325 323/323
f 324/322 326/326 325/325
f 329/327 328/328 327/329
f 329/327 330/330 328/328
f 329/327 331/331 330/330
f 332/332 331/331 329/327
f 335/333 334/334 333/335
f 336/336 334/334 335/333
f 336/336 337/337 334/334
f 340/338 339/339 338/340
f 340/338 341/341 339/339
f 342/342 341/341 340/338
f 343/343 341/341 342/342
f 346/344 345/345 344/346
f 346/344 347/347 345/345
f 347/347 346/344 348/348
f 351/349 350/350 349/351
f 351/349 352/352 350/350
f 353/353 352/352 351/349
f 354/354 352/352 353/353
f 357/355 356/356 355/357
f 357/355 358/358 356/356
f 357/355 359/359 358/358
f 359/359 357/355 360/360
f 363/361 362/362 361/363
f 364/364 362/362 363/361
f 365/365 362/362 364/364
f 366/366 362/362 365/365
f 369/367 368/368 367/369
f 370/370 368/368 369/367
f 370/370 369/367 371/371
f 370/370 371/371 372/372
f 375/373 374/374 373/375
f 375/373 376/376 374/374
f 379/377 378/378 377/379
f 380/380 378/378 379/377
f 380/380 381/381 378/378
f 384/382 383/383 382/384
f 385/385 383/383 384/382
f 386/386 383/383 385/385
f 389/387 388/388 387/389
f 390/390 388/388 389/387
f 391/391 388/388 390/390
f 394/392 393/393 392/394
f 395/395 393/393 394/392
f 393/393 395/395 396/396
f 399/397 398/398 397/399
f 399/397 400/400 398/398
f 403/401 402/402 401/403
f 403/401 404/404 402/402
f 403/401 405/405 404/404
f 408/406 407/407 406/408
f 408/406 409/409 407/407
f 408/406 410/410 409/409
f 411/411 410/410 408/406
f 414/412 413/413 412/414
f 415/415 413/413 414/412
f 415/415 416/416 413/413
f 419/417 418/418 417/419
f 419/417 420/420 418/418
f 421/421 420/420 419/417
f 422/422 420/420 421/421
f 425/423 424/424 423/425
f 425/423 426/426 424/424
f 426/426 425/423 427/427
f 430/428 429/429 428/430
f 431/431 429/429 430/428
f 432/432 429/429 431/431
f 432/432 433/433 429/429
f 436/434 435/435 434/436
f 437/437 435/435 436/434
f 437/437 438/438 435/435
f 438/438 437/437 439/439
f 442/440 441/441 440/442
f 443/443 441/441 442/440
f 444/444 441/441 443/443
f 445/445 441/441 444/444
f 448/446 447/447 446/448
f 449/449 447/447 448/446
f 449/449 448/446 450/450
f 449/449 450/450 451/451
f 454/452 453/453 452/454
f 454/452 455/455 453/453
f 458/456 457/457 456/458
f 459/459 457/457 458/456
f 459/459 460/460 457/457
f 463/461 462/462 461/463
f 464/464 462/462 463/461
f 465/465 462/462 464/464
f 468/466 467/467 466/468
f 468/466 469/469 467/467
f 472/470 471/471 470/472
f 472/470 473/473 471/471
f 472/470 474/474 473/473
f 475/475 474/474 472/470
f 478/476 477/477 476/478
f 478/476 479/479 477/477
f 480/480 479/479 478/476
f 483/481 482/482 481/483
f 483/481 484/484 482/482
f 485/485 484/484 483/481
f 488/486 487/487 486/488
f 488/486 489/489 487/487
f 488/486 490/490 489/489
f 493/491 492/492 491/493
f 493/491 494/494 492/492
f 493/491 495/495 494/494
f 496/496 495/495 493/491
f 499/497 498/498 497/499
f 500/500 498/498 499/497
f 500/500 501/501 498/498
f 504/502 503/503 502/504
f 504/502 505/505 503/503
f 506/506 505/505 504/502
f 507/507 505/505 506/506
f 510/508 509/509 508/510
f 510/508 511/511 509/509
f 511/511 510/508 512/512
f 515/513 514/514 513/515
f 515/513 516/516 514/514
f 517/517 516/516 515/513
f 518/518 516/516 517/517
f 521/519 520/520 519/521
f 522/522 520/520 521/519
f 522/522 523/523 520/520
f 523/523 522/522 524/524
f 527/525 526/526 525/527
f 528/528 526/526 527/525
f 529/529 526/526 528/528
f 530/530 526/526 529/529
f 533/531 532/532 531/533
f 534/534 532/532 533/531
f 534/534 533/531 535/535
f 534/534 535/535 536/536
f 539/537 538/538 537/539
f 540/540 538/538 539/537
f 540/540 541/541 538/538
f 544/542 543/543 542/544
f 545/545 543/543 544/542
f 546/546 543/543 545/545
f 549/547 548/548 547/549
f 549/547 550/550 548/548
f 553/551 552/552 551/553
f 554/554 552/552 553/551
f 554/554 555/555 552/552
f 558/556 557/557 556/558
f 558/556 559/559 557/557
f 558/556 560/560 559/559
f 563/561 562/562 561/563
f 563/561 564/564 562/562
f 564/564 563/561 565/565
f 568/566 567/567 566/568
f 569/569 567/567 568/566
f 570/570 567/567 569/569
