o mosaic_coco_brows_LOD1
v -0.317984 0.850198 0.265088
v -0.281994 0.871742 0.291577
v -0.309139 0.872793 0.243512
v -0.297553 0.880645 0.206586
v -0.302162 0.871192 0.201295
v -0.305237 0.879068 0.222266
v -0.305237 0.879068 0.222266
v -0.318351 0.860253 0.239823
v -0.309139 0.872793 0.243512
v -0.287453 0.842742 0.183146
v -0.283819 0.826782 0.190054
v -0.294452 0.831019 0.191682
v -0.065957 0.870423 0.356664
v -0.053991 0.863268 0.345073
v -0.058543 0.873863 0.332249
v -0.088423 0.849478 0.381708
v -0.077115 0.866408 0.367735
v -0.129505 0.870496 0.368239
v -0.081034 0.793254 0.302399
v -0.100721 0.784686 0.314100
v -0.136728 0.798534 0.279026
v -0.192245 0.797677 0.257858
v -0.259739 0.780868 0.237501
v -0.253676 0.794064 0.225819
v -0.069298 0.789681 0.371336
v -0.077527 0.791325 0.377701
v -0.087039 0.783027 0.370145
v -0.169656 0.892581 0.266364
v -0.139390 0.884313 0.274482
v -0.191769 0.888417 0.247006
v -0.065957 0.870423 0.356664
v -0.058543 0.873863 0.332249
v -0.073420 0.881237 0.337124
v -0.088007 0.883757 0.297484
v -0.087749 0.874065 0.284407
v -0.139390 0.884313 0.274482
v -0.191769 0.888417 0.247006
v -0.243784 0.872048 0.197863
v -0.247030 0.885203 0.209360
v -0.160722 0.801799 0.265278
v -0.136728 0.798534 0.279026
v -0.192245 0.797677 0.257858
v -0.281994 0.871742 0.291577
v -0.317984 0.850198 0.265088
v -0.273811 0.864913 0.310788
v -0.317464 0.839906 0.277400
v -0.303417 0.839554 0.299887
v -0.289928 0.771876 0.308256
v -0.300110 0.786226 0.311413
v -0.320881 0.779665 0.281060
v -0.325867 0.801946 0.274197
v -0.320963 0.802978 0.289747
v -0.107488 0.843637 0.385019
v -0.088423 0.849478 0.381708
v -0.136184 0.859845 0.375186
v -0.129505 0.870496 0.368239
v -0.103697 0.829151 0.387863
v -0.107488 0.843637 0.385019
v -0.139033 0.831594 0.385499
v -0.168000 0.854278 0.368772
v -0.136184 0.859845 0.375186
v -0.238670 0.859765 0.335595
v -0.268260 0.830429 0.332887
v -0.168000 0.854278 0.368772
v -0.139033 0.831594 0.385499
v -0.170281 0.815248 0.378452
v -0.245523 0.817375 0.345605
v -0.300842 0.823823 0.310988
v -0.268260 0.830429 0.332887
v -0.303417 0.839554 0.299887
v -0.238670 0.859765 0.335595
v -0.273811 0.864913 0.310788
v -0.289928 0.771876 0.308256
v -0.252707 0.774224 0.327371
v -0.300110 0.786226 0.311413
v -0.259631 0.792560 0.335169
v -0.219234 0.781364 0.350067
v -0.218150 0.787866 0.354463
v -0.170281 0.815248 0.378452
v -0.245523 0.817375 0.345605
v -0.167127 0.797532 0.376342
v -0.218150 0.787866 0.354463
v -0.259631 0.792560 0.335169
v -0.268260 0.830429 0.332887
v -0.300842 0.823823 0.310988
v -0.245523 0.817375 0.345605
v -0.259631 0.792560 0.335169
v -0.320963 0.802978 0.289747
v -0.300110 0.786226 0.311413
v -0.139992 0.797886 0.382822
v -0.167127 0.797532 0.376342
v -0.143925 0.786201 0.374473
v -0.183100 0.780540 0.360760
v -0.219234 0.781364 0.350067
v -0.218150 0.787866 0.354463
v -0.103697 0.829151 0.387863
v -0.139033 0.831594 0.385499
v -0.114782 0.811245 0.388269
v -0.170281 0.815248 0.378452
v -0.167127 0.797532 0.376342
v -0.139992 0.797886 0.382822
v -0.273811 0.864913 0.310788
v -0.238670 0.859765 0.335595
v -0.223542 0.879717 0.325282
v -0.196183 0.879065 0.337855
v -0.168000 0.854278 0.368772
v -0.136184 0.859845 0.375186
v -0.320963 0.802978 0.289747
v -0.300842 0.823823 0.310988
v -0.325297 0.825821 0.268580
v -0.303417 0.839554 0.299887
v -0.317464 0.839906 0.277400
v -0.143925 0.786201 0.374473
v -0.098536 0.794405 0.382832
v -0.139992 0.797886 0.382822
v -0.087597 0.808537 0.387084
v -0.114782 0.811245 0.388269
v -0.273811 0.864913 0.310788
v -0.223542 0.879717 0.325282
v -0.281994 0.871742 0.291577
v -0.271915 0.883856 0.280261
v -0.136184 0.859845 0.375186
v -0.129505 0.870496 0.368239
v -0.196183 0.879065 0.337855
v -0.141111 0.882982 0.352380
v -0.183100 0.780540 0.360760
v -0.219234 0.781364 0.350067
v -0.214240 0.772196 0.341369
v -0.252707 0.774224 0.327371
v -0.326892 0.829277 0.255468
v -0.325297 0.825821 0.268580
v -0.323799 0.844683 0.252616
v -0.317464 0.839906 0.277400
v -0.317984 0.850198 0.265088
v -0.320963 0.802978 0.289747
v -0.325297 0.825821 0.268580
v -0.325867 0.801946 0.274197
v -0.326878 0.812503 0.257967
v -0.326892 0.829277 0.255468
v -0.297553 0.880645 0.206586
v -0.278430 0.879536 0.194179
v -0.302162 0.871192 0.201295
v -0.284561 0.863834 0.184120
v -0.293251 0.854271 0.185546
v -0.301484 0.851045 0.192163
v -0.291611 0.789783 0.227636
v -0.301863 0.818213 0.208979
v -0.276005 0.803709 0.212006
v -0.283819 0.826782 0.190054
v -0.294452 0.831019 0.191682
v -0.323799 0.844683 0.252616
v -0.317984 0.850198 0.265088
v -0.318351 0.860253 0.239823
v -0.309139 0.872793 0.243512
v -0.326892 0.829277 0.255468
v -0.323799 0.844683 0.252616
v -0.326215 0.832928 0.239936
v -0.319360 0.855518 0.229285
v -0.318351 0.860253 0.239823
v -0.310650 0.862092 0.209482
v -0.311750 0.842370 0.205564
v -0.319360 0.855518 0.229285
v -0.326215 0.832928 0.239936
v -0.323844 0.826036 0.234799
v -0.315449 0.833561 0.213936
v -0.305781 0.842187 0.197316
v -0.311750 0.842370 0.205564
v -0.301484 0.851045 0.192163
v -0.310650 0.862092 0.209482
v -0.302162 0.871192 0.201295
v -0.301863 0.818213 0.208979
v -0.291611 0.789783 0.227636
v -0.312264 0.819555 0.218480
v -0.305163 0.782749 0.241606
v -0.313470 0.793379 0.241116
v -0.316309 0.805798 0.235205
v -0.323844 0.826036 0.234799
v -0.315449 0.833561 0.213936
v -0.322391 0.806177 0.245758
v -0.316309 0.805798 0.235205
v -0.312264 0.819555 0.218480
v -0.311750 0.842370 0.205564
v -0.305781 0.842187 0.197316
v -0.315449 0.833561 0.213936
v -0.312264 0.819555 0.218480
v -0.294452 0.831019 0.191682
v -0.301863 0.818213 0.208979
v -0.323619 0.798091 0.255460
v -0.322391 0.806177 0.245758
v -0.315265 0.778018 0.257475
v -0.313470 0.793379 0.241116
v -0.316309 0.805798 0.235205
v -0.326892 0.829277 0.255468
v -0.326215 0.832928 0.239936
v -0.326878 0.812503 0.257967
v -0.323844 0.826036 0.234799
v -0.322391 0.806177 0.245758
v -0.323619 0.798091 0.255460
v -0.302162 0.871192 0.201295
v -0.310650 0.862092 0.209482
v -0.305237 0.879068 0.222266
v -0.319360 0.855518 0.229285
v -0.318351 0.860253 0.239823
v -0.294452 0.831019 0.191682
v -0.305781 0.842187 0.197316
v -0.287453 0.842742 0.183146
v -0.301484 0.851045 0.192163
v -0.293251 0.854271 0.185546
v -0.315265 0.778018 0.257475
v -0.320881 0.779665 0.281060
v -0.323619 0.798091 0.255460
v -0.325867 0.801946 0.274197
v -0.326878 0.812503 0.257967
v -0.305171 0.766126 0.265636
v -0.315265 0.778018 0.257475
v -0.301166 0.772593 0.249360
v -0.305163 0.782749 0.241606
v -0.313470 0.793379 0.241116
v -0.270706 0.841003 0.180172
v -0.287453 0.842742 0.183146
v -0.267736 0.857491 0.180103
v -0.293251 0.854271 0.185546
v -0.284561 0.863834 0.184120
v -0.077115 0.866408 0.367735
v -0.088423 0.849478 0.381708
v -0.067870 0.856579 0.372145
v -0.076299 0.840568 0.383311
v -0.066887 0.833607 0.381881
v -0.077527 0.791325 0.377701
v -0.067701 0.805266 0.382281
v -0.098536 0.794405 0.382832
v -0.087597 0.808537 0.387084
v -0.069252 0.812042 0.384902
v -0.047351 0.854467 0.331085
v -0.045997 0.859192 0.317890
v -0.053991 0.863268 0.345073
v -0.057776 0.875598 0.319058
v -0.058543 0.873863 0.332249
v -0.047711 0.840515 0.335627
v -0.047351 0.854467 0.331085
v -0.051350 0.837693 0.353401
v -0.055230 0.854762 0.357909
v -0.053991 0.863268 0.345073
v -0.061442 0.852092 0.369616
v -0.060423 0.822630 0.379514
v -0.055230 0.854762 0.357909
v -0.051350 0.837693 0.353401
v -0.054890 0.820012 0.367600
v -0.059435 0.817107 0.378822
v -0.063864 0.822413 0.382331
v -0.060423 0.822630 0.379514
v -0.066887 0.833607 0.381881
v -0.061442 0.852092 0.369616
v -0.067870 0.856579 0.372145
v -0.077527 0.791325 0.377701
v -0.069298 0.789681 0.371336
v -0.067701 0.805266 0.382281
v -0.062007 0.809075 0.379757
v -0.062439 0.795940 0.370499
v -0.060905 0.803308 0.374938
v -0.054890 0.820012 0.367600
v -0.059435 0.817107 0.378822
v -0.057229 0.805399 0.367717
v -0.060905 0.803308 0.374938
v -0.062007 0.809075 0.379757
v -0.060423 0.822630 0.379514
v -0.063864 0.822413 0.382331
v -0.059435 0.817107 0.378822
v -0.062007 0.809075 0.379757
v -0.069252 0.812042 0.384902
v -0.067701 0.805266 0.382281
v -0.056833 0.800737 0.356847
v -0.057229 0.805399 0.367717
v -0.063920 0.788170 0.357765
v -0.062439 0.795940 0.370499
v -0.060905 0.803308 0.374938
v -0.047711 0.840515 0.335627
v -0.051350 0.837693 0.353401
v -0.052551 0.816507 0.344411
v -0.054890 0.820012 0.367600
v -0.057229 0.805399 0.367717
v -0.056833 0.800737 0.356847
v -0.067870 0.856579 0.372145
v -0.061442 0.852092 0.369616
v -0.065957 0.870423 0.356664
v -0.055230 0.854762 0.357909
v -0.053991 0.863268 0.345073
v -0.069252 0.812042 0.384902
v -0.063864 0.822413 0.382331
v -0.082426 0.827818 0.386692
v -0.066887 0.833607 0.381881
v -0.076299 0.840568 0.383311
v -0.063920 0.788170 0.357765
v -0.060571 0.792769 0.324971
v -0.056833 0.800737 0.356847
v -0.052400 0.809652 0.319951
v -0.052551 0.816507 0.344411
v -0.077115 0.866408 0.367735
v -0.067870 0.856579 0.372145
v -0.081472 0.875252 0.359055
v -0.065957 0.870423 0.356664
v -0.063920 0.788170 0.357765
v -0.062439 0.795940 0.370499
v -0.069031 0.783552 0.352778
v -0.069298 0.789681 0.371336
v -0.083265 0.778287 0.342732
v -0.100721 0.784686 0.314100
v -0.069031 0.783552 0.352778
v -0.063920 0.788170 0.357765
v -0.060571 0.792769 0.324971
v -0.081034 0.793254 0.302399
v -0.143925 0.786201 0.374473
v -0.130646 0.781729 0.370034
v -0.098536 0.794405 0.382832
v -0.077527 0.791325 0.377701
v -0.087039 0.783027 0.370145
v -0.287968 0.778188 0.236462
v -0.291611 0.789783 0.227636
v -0.259739 0.780868 0.237501
v -0.276005 0.803709 0.212006
v -0.253676 0.794064 0.225819
v -0.301166 0.772593 0.249360
v -0.287968 0.778188 0.236462
v -0.273239 0.765072 0.259099
v -0.237840 0.775561 0.259509
v -0.259739 0.780868 0.237501
v -0.158573 0.781726 0.298899
v -0.148916 0.775191 0.328467
v -0.237840 0.775561 0.259509
v -0.273239 0.765072 0.259099
v -0.255829 0.762867 0.287527
v -0.180359 0.770001 0.327863
v -0.103472 0.777126 0.351748
v -0.148916 0.775191 0.328467
v -0.083265 0.778287 0.342732
v -0.158573 0.781726 0.298899
v -0.100721 0.784686 0.314100
v -0.143925 0.786201 0.374473
v -0.183100 0.780540 0.360760
v -0.130646 0.781729 0.370034
v -0.173979 0.773319 0.349141
v -0.214240 0.772196 0.341369
v -0.214271 0.769376 0.335341
v -0.255829 0.762867 0.287527
v -0.180359 0.770001 0.327863
v -0.265034 0.763820 0.301103
v -0.214271 0.769376 0.335341
v -0.173979 0.773319 0.349141
v -0.148916 0.775191 0.328467
v -0.103472 0.777126 0.351748
v -0.180359 0.770001 0.327863
v -0.173979 0.773319 0.349141
v -0.087039 0.783027 0.370145
v -0.130646 0.781729 0.370034
v -0.292124 0.762803 0.288586
v -0.265034 0.763820 0.301103
v -0.289928 0.771876 0.308256
v -0.252707 0.774224 0.327371
v -0.214240 0.772196 0.341369
v -0.214271 0.769376 0.335341
v -0.301166 0.772593 0.249360
v -0.273239 0.765072 0.259099
v -0.305171 0.766126 0.265636
v -0.255829 0.762867 0.287527
v -0.265034 0.763820 0.301103
v -0.292124 0.762803 0.288586
v -0.100721 0.784686 0.314100
v -0.158573 0.781726 0.298899
v -0.136728 0.798534 0.279026
v -0.192245 0.797677 0.257858
v -0.237840 0.775561 0.259509
v -0.259739 0.780868 0.237501
v -0.301166 0.772593 0.249360
v -0.305163 0.782749 0.241606
v -0.287968 0.778188 0.236462
v -0.291611 0.789783 0.227636
v -0.087039 0.783027 0.370145
v -0.103472 0.777126 0.351748
v -0.069298 0.789681 0.371336
v -0.083265 0.778287 0.342732
v -0.069031 0.783552 0.352778
v -0.289928 0.771876 0.308256
v -0.320881 0.779665 0.281060
v -0.292124 0.762803 0.288586
v -0.315265 0.778018 0.257475
v -0.305171 0.766126 0.265636
v -0.129505 0.870496 0.368239
v -0.077115 0.866408 0.367735
v -0.141111 0.882982 0.352380
v -0.081472 0.875252 0.359055
v -0.102472 0.884237 0.350986
v -0.073420 0.881237 0.337124
v -0.058543 0.873863 0.332249
v -0.091044 0.889278 0.310224
v -0.057776 0.875598 0.319058
v -0.088007 0.883757 0.297484
v -0.296841 0.884292 0.239697
v -0.309139 0.872793 0.243512
v -0.271915 0.883856 0.280261
v -0.281994 0.871742 0.291577
v -0.295158 0.887009 0.228501
v -0.296841 0.884292 0.239697
v -0.262834 0.895927 0.251342
v -0.244170 0.892580 0.289226
v -0.271915 0.883856 0.280261
v -0.182401 0.889980 0.327706
v -0.141290 0.896015 0.321408
v -0.244170 0.892580 0.289226
v -0.262834 0.895927 0.251342
v -0.233396 0.900197 0.256125
v -0.160314 0.897836 0.298910
v -0.104318 0.889407 0.336989
v -0.141290 0.896015 0.321408
v -0.102472 0.884237 0.350986
v -0.182401 0.889980 0.327706
v -0.141111 0.882982 0.352380
v -0.088007 0.883757 0.297484
v -0.139390 0.884313 0.274482
v -0.091044 0.889278 0.310224
v -0.133837 0.895693 0.294771
v -0.169656 0.892581 0.266364
v -0.178674 0.897629 0.268815
v -0.233396 0.900197 0.256125
v -0.160314 0.897836 0.298910
v -0.228236 0.897605 0.242620
v -0.133837 0.895693 0.294771
v -0.073420 0.881237 0.337124
v -0.091044 0.889278 0.310224
v -0.104318 0.889407 0.336989
v -0.133837 0.895693 0.294771
v -0.160314 0.897836 0.298910
v -0.141290 0.896015 0.321408
v -0.247030 0.885203 0.209360
v -0.249084 0.894120 0.224204
v -0.191769 0.888417 0.247006
v -0.228236 0.897605 0.242620
v -0.169656 0.892581 0.266364
v -0.178674 0.897629 0.268815
v -0.295158 0.887009 0.228501
v -0.262834 0.895927 0.251342
v -0.280923 0.890406 0.219633
v -0.233396 0.900197 0.256125
v -0.228236 0.897605 0.242620
v -0.249084 0.894120 0.224204
v -0.141111 0.882982 0.352380
v -0.182401 0.889980 0.327706
v -0.196183 0.879065 0.337855
v -0.223542 0.879717 0.325282
v -0.244170 0.892580 0.289226
v -0.271915 0.883856 0.280261
v -0.295158 0.887009 0.228501
v -0.305237 0.879068 0.222266
v -0.296841 0.884292 0.239697
v -0.309139 0.872793 0.243512
v -0.073420 0.881237 0.337124
v -0.104318 0.889407 0.336989
v -0.065957 0.870423 0.356664
v -0.102472 0.884237 0.350986
v -0.081472 0.875252 0.359055
v -0.247030 0.885203 0.209360
v -0.278430 0.879536 0.194179
v -0.249084 0.894120 0.224204
v -0.297553 0.880645 0.206586
v -0.280923 0.890406 0.219633
v -0.280923 0.890406 0.219633
v -0.297553 0.880645 0.206586
v -0.295158 0.887009 0.228501
v -0.305237 0.879068 0.222266
v -0.050175 0.849822 0.285927
v -0.087749 0.874065 0.284407
v -0.044360 0.854691 0.306328
v -0.045997 0.859192 0.317890
v -0.057776 0.875598 0.319058
v -0.088007 0.883757 0.297484
v -0.081034 0.793254 0.302399
v -0.071758 0.800935 0.293949
v -0.060571 0.792769 0.324971
v -0.052400 0.809652 0.319951
v -0.051909 0.814576 0.303605
v -0.247030 0.885203 0.209360
v -0.243784 0.872048 0.197863
v -0.278430 0.879536 0.194179
v -0.284561 0.863834 0.184120
v -0.267736 0.857491 0.180103
v -0.270706 0.841003 0.180172
v -0.267736 0.857491 0.180103
v -0.240444 0.843799 0.190527
v -0.211138 0.865107 0.221198
v -0.243784 0.872048 0.197863
v -0.133478 0.867460 0.263924
v -0.098539 0.837289 0.267080
v -0.211138 0.865107 0.221198
v -0.240444 0.843799 0.190527
v -0.220176 0.827880 0.214200
v -0.124180 0.829974 0.261295
v -0.059613 0.831602 0.279000
v -0.098539 0.837289 0.267080
v -0.050175 0.849822 0.285927
v -0.133478 0.867460 0.263924
v -0.087749 0.874065 0.284407
v -0.081034 0.793254 0.302399
v -0.136728 0.798534 0.279026
v -0.071758 0.800935 0.293949
v -0.112066 0.811698 0.272217
v -0.160722 0.801799 0.265278
v -0.158432 0.806563 0.261627
v -0.220176 0.827880 0.214200
v -0.124180 0.829974 0.261295
v -0.220888 0.817935 0.221548
v -0.158432 0.806563 0.261627
v -0.112066 0.811698 0.272217
v -0.098539 0.837289 0.267080
v -0.059613 0.831602 0.279000
v -0.124180 0.829974 0.261295
v -0.112066 0.811698 0.272217
v -0.051909 0.814576 0.303605
v -0.071758 0.800935 0.293949
v -0.253676 0.794064 0.225819
v -0.245705 0.815395 0.207617
v -0.192245 0.797677 0.257858
v -0.220888 0.817935 0.221548
v -0.160722 0.801799 0.265278
v -0.158432 0.806563 0.261627
v -0.270706 0.841003 0.180172
v -0.240444 0.843799 0.190527
v -0.263253 0.826246 0.188227
v -0.220176 0.827880 0.214200
v -0.220888 0.817935 0.221548
v -0.245705 0.815395 0.207617
v -0.087749 0.874065 0.284407
v -0.133478 0.867460 0.263924
v -0.139390 0.884313 0.274482
v -0.191769 0.888417 0.247006
v -0.211138 0.865107 0.221198
v -0.243784 0.872048 0.197863
v -0.051909 0.814576 0.303605
v -0.059613 0.831602 0.279000
v -0.045796 0.841878 0.318143
v -0.050175 0.849822 0.285927
v -0.044360 0.854691 0.306328
v -0.253676 0.794064 0.225819
v -0.276005 0.803709 0.212006
v -0.245705 0.815395 0.207617
v -0.283819 0.826782 0.190054
v -0.263253 0.826246 0.188227
v -0.270706 0.841003 0.180172
v -0.263253 0.826246 0.188227
v -0.287453 0.842742 0.183146
v -0.283819 0.826782 0.190054
v -0.103697 0.829151 0.387863
v -0.082426 0.827818 0.386692
v -0.107488 0.843637 0.385019
v -0.076299 0.840568 0.383311
v -0.088423 0.849478 0.381708
v -0.069252 0.812042 0.384902
v -0.082426 0.827818 0.386692
v -0.087597 0.808537 0.387084
v -0.114782 0.811245 0.388269
v -0.103697 0.829151 0.387863
v -0.051909 0.814576 0.303605
v -0.045796 0.841878 0.318143
v -0.052400 0.809652 0.319951
v -0.052551 0.816507 0.344411
v -0.047711 0.840515 0.335627
v -0.047711 0.840515 0.335627
v -0.045796 0.841878 0.318143
v -0.047351 0.854467 0.331085
v -0.044360 0.854691 0.306328
v -0.045997 0.859192 0.317890
v 0.100571 0.849727 0.382518
v 0.092475 0.869570 0.367986
v 0.138066 0.872416 0.365235
v 0.065525 0.876356 0.341880
v 0.056197 0.864410 0.349235
v 0.072003 0.873319 0.357380
v 0.072003 0.873319 0.357380
v 0.075984 0.855925 0.375771
v 0.092475 0.869570 0.367986
v 0.046172 0.839680 0.316890
v 0.052311 0.809870 0.317095
v 0.052344 0.814459 0.336314
v 0.302704 0.881682 0.225107
v 0.299872 0.871435 0.198371
v 0.287466 0.883608 0.203083
v 0.316812 0.850297 0.267556
v 0.305990 0.874747 0.246238
v 0.278576 0.873415 0.293037
v 0.241587 0.794965 0.231380
v 0.241153 0.782388 0.246496
v 0.190414 0.797049 0.259294
v 0.142583 0.797557 0.277990
v 0.095726 0.781950 0.318112
v 0.087591 0.791112 0.303723
v 0.309161 0.780498 0.247511
v 0.317036 0.776881 0.262517
v 0.303543 0.766227 0.263422
v 0.171878 0.892136 0.264206
v 0.188747 0.888055 0.248365
v 0.143470 0.884700 0.272724
v 0.302704 0.881682 0.225107
v 0.287466 0.883608 0.203083
v 0.279374 0.891030 0.221152
v 0.234115 0.887130 0.219430
v 0.224623 0.874677 0.216339
v 0.188747 0.888055 0.248365
v 0.143470 0.884700 0.272724
v 0.082292 0.874197 0.286733
v 0.090375 0.884660 0.297438
v 0.165810 0.801408 0.263623
v 0.190414 0.797049 0.259294
v 0.142583 0.797557 0.277990
v 0.138066 0.872416 0.365235
v 0.100571 0.849727 0.382518
v 0.159104 0.862970 0.366517
v 0.112529 0.842743 0.385215
v 0.134535 0.840071 0.384309
v 0.152809 0.785198 0.371865
v 0.150314 0.797001 0.380493
v 0.109470 0.791745 0.382274
v 0.097887 0.809449 0.387848
v 0.122027 0.811250 0.388210
v 0.310124 0.845186 0.285095
v 0.316812 0.850297 0.267556
v 0.283786 0.861857 0.304246
v 0.278576 0.873415 0.293037
v 0.317989 0.827406 0.285598
v 0.310124 0.845186 0.285095
v 0.293211 0.833140 0.315157
v 0.264195 0.857819 0.323970
v 0.283786 0.861857 0.304246
v 0.201121 0.858514 0.352857
v 0.184356 0.829961 0.371703
v 0.264195 0.857819 0.323970
v 0.293211 0.833140 0.315157
v 0.273611 0.816646 0.331338
v 0.205282 0.817690 0.364726
v 0.146612 0.826947 0.384273
v 0.184356 0.829961 0.371703
v 0.134535 0.840071 0.384309
v 0.201121 0.858514 0.352857
v 0.159104 0.862970 0.366517
v 0.152809 0.785198 0.371865
v 0.188040 0.779835 0.358945
v 0.150314 0.797001 0.380493
v 0.190857 0.797463 0.368939
v 0.221180 0.781609 0.349401
v 0.225419 0.788560 0.351373
v 0.273611 0.816646 0.331338
v 0.205282 0.817690 0.364726
v 0.274699 0.794186 0.328117
v 0.225419 0.788560 0.351373
v 0.190857 0.797463 0.368939
v 0.184356 0.829961 0.371703
v 0.146612 0.826947 0.384273
v 0.205282 0.817690 0.364726
v 0.190857 0.797463 0.368939
v 0.122027 0.811250 0.388210
v 0.150314 0.797001 0.380493
v 0.298091 0.790964 0.314278
v 0.274699 0.794186 0.328117
v 0.284528 0.772088 0.310849
v 0.251064 0.774336 0.328277
v 0.221180 0.781609 0.349401
v 0.225419 0.788560 0.351373
v 0.317989 0.827406 0.285598
v 0.293211 0.833140 0.315157
v 0.316380 0.806277 0.296385
v 0.273611 0.816646 0.331338
v 0.274699 0.794186 0.328117
v 0.298091 0.790964 0.314278
v 0.159104 0.862970 0.366517
v 0.201121 0.858514 0.352857
v 0.200127 0.878104 0.337209
v 0.224386 0.879640 0.324962
v 0.264195 0.857819 0.323970
v 0.283786 0.861857 0.304246
v 0.122027 0.811250 0.388210
v 0.146612 0.826947 0.384273
v 0.094415 0.828724 0.387550
v 0.134535 0.840071 0.384309
v 0.112529 0.842743 0.385215
v 0.284528 0.772088 0.310849
v 0.320244 0.778918 0.282290
v 0.298091 0.790964 0.314278
v 0.325365 0.801894 0.276656
v 0.316380 0.806277 0.296385
v 0.159104 0.862970 0.366517
v 0.200127 0.878104 0.337209
v 0.138066 0.872416 0.365235
v 0.134205 0.881240 0.356168
v 0.283786 0.861857 0.304246
v 0.278576 0.873415 0.293037
v 0.224386 0.879640 0.324962
v 0.258202 0.885933 0.291843
v 0.251064 0.774336 0.328277
v 0.221180 0.781609 0.349401
v 0.215957 0.771545 0.339609
v 0.188040 0.779835 0.358945
v 0.077478 0.827352 0.386175
v 0.094415 0.828724 0.387550
v 0.080688 0.844193 0.382831
v 0.112529 0.842743 0.385215
v 0.100571 0.849727 0.382518
v 0.122027 0.811250 0.388210
v 0.094415 0.828724 0.387550
v 0.097887 0.809449 0.387848
v 0.074057 0.812487 0.386036
v 0.077478 0.827352 0.386175
v 0.065525 0.876356 0.341880
v 0.062766 0.878376 0.316105
v 0.056197 0.864410 0.349235
v 0.047178 0.862262 0.316326
v 0.046088 0.852144 0.326729
v 0.048824 0.847298 0.341951
v 0.063699 0.780506 0.346979
v 0.056899 0.793934 0.351554
v 0.065313 0.789155 0.320599
v 0.052311 0.809870 0.317095
v 0.052344 0.814459 0.336314
v 0.080688 0.844193 0.382831
v 0.100571 0.849727 0.382518
v 0.075984 0.855925 0.375771
v 0.092475 0.869570 0.367986
v 0.077478 0.827352 0.386175
v 0.080688 0.844193 0.382831
v 0.065927 0.829274 0.382276
v 0.065848 0.851724 0.373695
v 0.075984 0.855925 0.375771
v 0.059447 0.857468 0.363468
v 0.054451 0.831016 0.365999
v 0.065848 0.851724 0.373695
v 0.065927 0.829274 0.382276
v 0.060985 0.815137 0.380749
v 0.056959 0.818783 0.374166
v 0.051088 0.833451 0.352299
v 0.054451 0.831016 0.365999
v 0.048824 0.847298 0.341951
v 0.059447 0.857468 0.363468
v 0.056197 0.864410 0.349235
v 0.056899 0.793934 0.351554
v 0.063699 0.780506 0.346979
v 0.057506 0.800101 0.367081
v 0.066790 0.779019 0.360855
v 0.063347 0.788578 0.370131
v 0.060830 0.793419 0.370786
v 0.060985 0.815137 0.380749
v 0.056959 0.818783 0.374166
v 0.066001 0.804025 0.381183
v 0.060830 0.793419 0.370786
v 0.057506 0.800101 0.367081
v 0.054451 0.831016 0.365999
v 0.051088 0.833451 0.352299
v 0.056959 0.818783 0.374166
v 0.057506 0.800101 0.367081
v 0.052344 0.814459 0.336314
v 0.056899 0.793934 0.351554
v 0.072935 0.802492 0.383687
v 0.066001 0.804025 0.381183
v 0.079026 0.783676 0.374197
v 0.063347 0.788578 0.370131
v 0.060830 0.793419 0.370786
v 0.077478 0.827352 0.386175
v 0.065927 0.829274 0.382276
v 0.074057 0.812487 0.386036
v 0.060985 0.815137 0.380749
v 0.066001 0.804025 0.381183
v 0.072935 0.802492 0.383687
v 0.056197 0.864410 0.349235
v 0.059447 0.857468 0.363468
v 0.072003 0.873319 0.357380
v 0.065848 0.851724 0.373695
v 0.075984 0.855925 0.375771
v 0.052344 0.814459 0.336314
v 0.051088 0.833451 0.352299
v 0.046172 0.839680 0.316890
v 0.048824 0.847298 0.341951
v 0.046088 0.852144 0.326729
v 0.079026 0.783676 0.374197
v 0.109470 0.791745 0.382274
v 0.072935 0.802492 0.383687
v 0.097887 0.809449 0.387848
v 0.074057 0.812487 0.386036
v 0.099387 0.777743 0.367278
v 0.079026 0.783676 0.374197
v 0.079197 0.775433 0.360638
v 0.066790 0.779019 0.360855
v 0.063347 0.788578 0.370131
v 0.047222 0.835933 0.300408
v 0.046172 0.839680 0.316890
v 0.047924 0.858697 0.299231
v 0.046088 0.852144 0.326729
v 0.047178 0.862262 0.316326
v 0.305990 0.874747 0.246238
v 0.316812 0.850297 0.267556
v 0.316736 0.863462 0.236556
v 0.323934 0.841166 0.258434
v 0.325597 0.839662 0.245186
v 0.317036 0.776881 0.262517
v 0.323159 0.796793 0.255283
v 0.320244 0.778918 0.282290
v 0.325365 0.801894 0.276656
v 0.326884 0.811097 0.260922
v 0.294087 0.855854 0.186469
v 0.281533 0.864547 0.183681
v 0.299872 0.871435 0.198371
v 0.272209 0.881689 0.197408
v 0.287466 0.883608 0.203083
v 0.294398 0.839278 0.187669
v 0.294087 0.855854 0.186469
v 0.306076 0.843078 0.197477
v 0.308412 0.861151 0.204671
v 0.299872 0.871435 0.198371
v 0.315999 0.859976 0.221727
v 0.323477 0.835435 0.230659
v 0.308412 0.861151 0.204671
v 0.306076 0.843078 0.197477
v 0.312117 0.833803 0.208494
v 0.321804 0.830114 0.227942
v 0.326345 0.831726 0.240591
v 0.323477 0.835435 0.230659
v 0.325597 0.839662 0.245186
v 0.315999 0.859976 0.221727
v 0.316736 0.863462 0.236556
v 0.317036 0.776881 0.262517
v 0.309161 0.780498 0.247511
v 0.323159 0.796793 0.255283
v 0.320375 0.807635 0.240427
v 0.310929 0.791763 0.239762
v 0.313642 0.803227 0.233682
v 0.312117 0.833803 0.208494
v 0.321804 0.830114 0.227942
v 0.307277 0.817536 0.214523
v 0.313642 0.803227 0.233682
v 0.320375 0.807635 0.240427
v 0.323477 0.835435 0.230659
v 0.326345 0.831726 0.240591
v 0.321804 0.830114 0.227942
v 0.320375 0.807635 0.240427
v 0.326884 0.811097 0.260922
v 0.323159 0.796793 0.255283
v 0.300003 0.816606 0.209070
v 0.307277 0.817536 0.214523
v 0.293936 0.786403 0.231462
v 0.310929 0.791763 0.239762
v 0.313642 0.803227 0.233682
v 0.294398 0.839278 0.187669
v 0.306076 0.843078 0.197477
v 0.294797 0.828282 0.194114
v 0.312117 0.833803 0.208494
v 0.307277 0.817536 0.214523
v 0.300003 0.816606 0.209070
v 0.316736 0.863462 0.236556
v 0.315999 0.859976 0.221727
v 0.302704 0.881682 0.225107
v 0.308412 0.861151 0.204671
v 0.299872 0.871435 0.198371
v 0.326884 0.811097 0.260922
v 0.326345 0.831726 0.240591
v 0.324649 0.827329 0.269854
v 0.325597 0.839662 0.245186
v 0.323934 0.841166 0.258434
v 0.293936 0.786403 0.231462
v 0.271388 0.800751 0.214810
v 0.300003 0.816606 0.209070
v 0.279488 0.822881 0.192162
v 0.294797 0.828282 0.194114
v 0.305990 0.874747 0.246238
v 0.316736 0.863462 0.236556
v 0.296227 0.884394 0.240605
v 0.302704 0.881682 0.225107
v 0.293936 0.786403 0.231462
v 0.310929 0.791763 0.239762
v 0.288128 0.778393 0.236291
v 0.309161 0.780498 0.247511
v 0.273899 0.770526 0.247113
v 0.241153 0.782388 0.246496
v 0.288128 0.778393 0.236291
v 0.293936 0.786403 0.231462
v 0.271388 0.800751 0.214810
v 0.241587 0.794965 0.231380
v 0.284528 0.772088 0.310849
v 0.283502 0.763068 0.293857
v 0.320244 0.778918 0.282290
v 0.317036 0.776881 0.262517
v 0.303543 0.766227 0.263422
v 0.073390 0.776038 0.344200
v 0.063699 0.780506 0.346979
v 0.095726 0.781950 0.318112
v 0.065313 0.789155 0.320599
v 0.087591 0.791112 0.303723
v 0.079197 0.775433 0.360638
v 0.073390 0.776038 0.344200
v 0.112605 0.775990 0.341606
v 0.132864 0.781726 0.309416
v 0.095726 0.781950 0.318112
v 0.202087 0.780670 0.277055
v 0.238530 0.767268 0.280161
v 0.132864 0.781726 0.309416
v 0.112605 0.775990 0.341606
v 0.155368 0.773567 0.339857
v 0.220364 0.766510 0.303546
v 0.272604 0.763849 0.263264
v 0.238530 0.767268 0.280161
v 0.273899 0.770526 0.247113
v 0.202087 0.780670 0.277055
v 0.241153 0.782388 0.246496
v 0.284528 0.772088 0.310849
v 0.251064 0.774336 0.328277
v 0.283502 0.763068 0.293857
v 0.243901 0.765273 0.310793
v 0.215957 0.771545 0.339609
v 0.210956 0.769025 0.335119
v 0.155368 0.773567 0.339857
v 0.220364 0.766510 0.303546
v 0.162107 0.775036 0.352690
v 0.210956 0.769025 0.335119
v 0.243901 0.765273 0.310793
v 0.238530 0.767268 0.280161
v 0.272604 0.763849 0.263264
v 0.220364 0.766510 0.303546
v 0.243901 0.765273 0.310793
v 0.303543 0.766227 0.263422
v 0.283502 0.763068 0.293857
v 0.135295 0.779519 0.366424
v 0.152809 0.785198 0.371865
v 0.188040 0.779835 0.358945
v 0.215957 0.771545 0.339609
v 0.210956 0.769025 0.335119
v 0.079197 0.775433 0.360638
v 0.112605 0.775990 0.341606
v 0.099387 0.777743 0.367278
v 0.155368 0.773567 0.339857
v 0.162107 0.775036 0.352690
v 0.135295 0.779519 0.366424
v 0.241153 0.782388 0.246496
v 0.202087 0.780670 0.277055
v 0.190414 0.797049 0.259294
v 0.142583 0.797557 0.277990
v 0.132864 0.781726 0.309416
v 0.095726 0.781950 0.318112
v 0.079197 0.775433 0.360638
v 0.066790 0.779019 0.360855
v 0.073390 0.776038 0.344200
v 0.063699 0.780506 0.346979
v 0.303543 0.766227 0.263422
v 0.272604 0.763849 0.263264
v 0.309161 0.780498 0.247511
v 0.273899 0.770526 0.247113
v 0.288128 0.778393 0.236291
v 0.152809 0.785198 0.371865
v 0.109470 0.791745 0.382274
v 0.135295 0.779519 0.366424
v 0.079026 0.783676 0.374197
v 0.099387 0.777743 0.367278
v 0.278576 0.873415 0.293037
v 0.305990 0.874747 0.246238
v 0.258202 0.885933 0.291843
v 0.296227 0.884394 0.240605
v 0.275221 0.890592 0.254505
v 0.279374 0.891030 0.221152
v 0.287466 0.883608 0.203083
v 0.243270 0.894509 0.226647
v 0.272209 0.881689 0.197408
v 0.234115 0.887130 0.219430
v 0.098350 0.879359 0.358116
v 0.092475 0.869570 0.367986
v 0.134205 0.881240 0.356168
v 0.138066 0.872416 0.365235
v 0.085193 0.881479 0.350054
v 0.098350 0.879359 0.358116
v 0.120561 0.891428 0.336346
v 0.156622 0.889081 0.338404
v 0.134205 0.881240 0.356168
v 0.218820 0.892132 0.308702
v 0.228915 0.899785 0.274263
v 0.156622 0.889081 0.338404
v 0.120561 0.891428 0.336346
v 0.135920 0.896949 0.311786
v 0.204053 0.900905 0.275988
v 0.258992 0.896978 0.250257
v 0.228915 0.899785 0.274263
v 0.275221 0.890592 0.254505
v 0.218820 0.892132 0.308702
v 0.258202 0.885933 0.291843
v 0.234115 0.887130 0.219430
v 0.188747 0.888055 0.248365
v 0.243270 0.894509 0.226647
v 0.208398 0.897300 0.252851
v 0.171878 0.892136 0.264206
v 0.172713 0.895760 0.269677
v 0.135920 0.896949 0.311786
v 0.204053 0.900905 0.275988
v 0.126314 0.895274 0.299771
v 0.172713 0.895760 0.269677
v 0.208398 0.897300 0.252851
v 0.279374 0.891030 0.221152
v 0.243270 0.894509 0.226647
v 0.258992 0.896978 0.250257
v 0.208398 0.897300 0.252851
v 0.204053 0.900905 0.275988
v 0.228915 0.899785 0.274263
v 0.090375 0.884660 0.297438
v 0.100249 0.891456 0.309422
v 0.143470 0.884700 0.272724
v 0.126314 0.895274 0.299771
v 0.171878 0.892136 0.264206
v 0.172713 0.895760 0.269677
v 0.085193 0.881479 0.350054
v 0.120561 0.891428 0.336346
v 0.085258 0.886508 0.331788
v 0.135920 0.896949 0.311786
v 0.126314 0.895274 0.299771
v 0.100249 0.891456 0.309422
v 0.258202 0.885933 0.291843
v 0.218820 0.892132 0.308702
v 0.224386 0.879640 0.324962
v 0.200127 0.878104 0.337209
v 0.156622 0.889081 0.338404
v 0.134205 0.881240 0.356168
v 0.085193 0.881479 0.350054
v 0.072003 0.873319 0.357380
v 0.098350 0.879359 0.358116
v 0.092475 0.869570 0.367986
v 0.279374 0.891030 0.221152
v 0.258992 0.896978 0.250257
v 0.302704 0.881682 0.225107
v 0.275221 0.890592 0.254505
v 0.296227 0.884394 0.240605
v 0.090375 0.884660 0.297438
v 0.062766 0.878376 0.316105
v 0.100249 0.891456 0.309422
v 0.065525 0.876356 0.341880
v 0.085258 0.886508 0.331788
v 0.085258 0.886508 0.331788
v 0.065525 0.876356 0.341880
v 0.085193 0.881479 0.350054
v 0.072003 0.873319 0.357380
v 0.244952 0.851464 0.186270
v 0.224623 0.874677 0.216339
v 0.267701 0.853652 0.179296
v 0.281533 0.864547 0.183681
v 0.272209 0.881689 0.197408
v 0.234115 0.887130 0.219430
v 0.241587 0.794965 0.231380
v 0.239810 0.809571 0.217138
v 0.271388 0.800751 0.214810
v 0.279488 0.822881 0.192162
v 0.261952 0.823993 0.190725
v 0.090375 0.884660 0.297438
v 0.082292 0.874197 0.286733
v 0.062766 0.878376 0.316105
v 0.047178 0.862262 0.316326
v 0.047924 0.858697 0.299231
v 0.047222 0.835933 0.300408
v 0.047924 0.858697 0.299231
v 0.074447 0.839034 0.273810
v 0.108779 0.864978 0.271300
v 0.082292 0.874197 0.286733
v 0.182986 0.863937 0.239033
v 0.198868 0.844079 0.225123
v 0.108779 0.864978 0.271300
v 0.074447 0.839034 0.273810
v 0.102757 0.822156 0.268866
v 0.177561 0.830810 0.237843
v 0.236842 0.837257 0.195368
v 0.198868 0.844079 0.225123
v 0.244952 0.851464 0.186270
v 0.182986 0.863937 0.239033
v 0.224623 0.874677 0.216339
v 0.241587 0.794965 0.231380
v 0.190414 0.797049 0.259294
v 0.239810 0.809571 0.217138
v 0.198974 0.816368 0.236591
v 0.165810 0.801408 0.263623
v 0.158857 0.806361 0.261604
v 0.102757 0.822156 0.268866
v 0.177561 0.830810 0.237843
v 0.106647 0.807969 0.277181
v 0.158857 0.806361 0.261604
v 0.198974 0.816368 0.236591
v 0.198868 0.844079 0.225123
v 0.236842 0.837257 0.195368
v 0.177561 0.830810 0.237843
v 0.198974 0.816368 0.236591
v 0.261952 0.823993 0.190725
v 0.239810 0.809571 0.217138
v 0.087591 0.791112 0.303723
v 0.081873 0.801982 0.289934
v 0.142583 0.797557 0.277990
v 0.106647 0.807969 0.277181
v 0.165810 0.801408 0.263623
v 0.158857 0.806361 0.261604
v 0.047222 0.835933 0.300408
v 0.074447 0.839034 0.273810
v 0.056593 0.811365 0.296008
v 0.102757 0.822156 0.268866
v 0.106647 0.807969 0.277181
v 0.081873 0.801982 0.289934
v 0.224623 0.874677 0.216339
v 0.182986 0.863937 0.239033
v 0.188747 0.888055 0.248365
v 0.143470 0.884700 0.272724
v 0.108779 0.864978 0.271300
v 0.082292 0.874197 0.286733
v 0.261952 0.823993 0.190725
v 0.236842 0.837257 0.195368
v 0.284370 0.839909 0.183114
v 0.244952 0.851464 0.186270
v 0.267701 0.853652 0.179296
v 0.087591 0.791112 0.303723
v 0.065313 0.789155 0.320599
v 0.081873 0.801982 0.289934
v 0.052311 0.809870 0.317095
v 0.056593 0.811365 0.296008
v 0.047222 0.835933 0.300408
v 0.056593 0.811365 0.296008
v 0.046172 0.839680 0.316890
v 0.052311 0.809870 0.317095
v 0.317989 0.827406 0.285598
v 0.324649 0.827329 0.269854
v 0.310124 0.845186 0.285095
v 0.323934 0.841166 0.258434
v 0.316812 0.850297 0.267556
v 0.326884 0.811097 0.260922
v 0.324649 0.827329 0.269854
v 0.325365 0.801894 0.276656
v 0.316380 0.806277 0.296385
v 0.317989 0.827406 0.285598
v 0.261952 0.823993 0.190725
v 0.284370 0.839909 0.183114
v 0.279488 0.822881 0.192162
v 0.294797 0.828282 0.194114
v 0.294398 0.839278 0.187669
v 0.294398 0.839278 0.187669
v 0.284370 0.839909 0.183114
v 0.294087 0.855854 0.186469
v 0.267701 0.853652 0.179296
v 0.281533 0.864547 0.183681
vt 0.918798 0.115675
vt 0.919856 0.179201
vt 0.852637 0.145730
vt 0.931226 0.114712
vt 0.976893 0.046646
vt 0.977209 0.107030
vt 0.891932 0.189518
vt 0.937104 0.191105
vt 0.939342 0.271719
vt 0.347171 0.978798
vt 0.356292 0.947830
vt 0.405461 0.983653
vt 0.351046 0.871186
vt 0.355719 0.915724
vt 0.270369 0.920145
vt 0.173956 0.888708
vt 0.102476 0.884992
vt 0.131792 0.817461
vt 0.477256 0.430091
vt 0.434690 0.386361
vt 0.485032 0.385676
vt 0.926112 0.509229
vt 0.925868 0.464146
vt 0.983642 0.461888
vt 0.116765 0.391657
vt 0.139774 0.364022
vt 0.171062 0.397072
vt 0.336134 0.437650
vt 0.290016 0.437337
vt 0.314739 0.413745
vt 0.973135 0.605888
vt 0.940172 0.634714
vt 0.891932 0.602513
vt 0.140688 0.327176
vt 0.091759 0.300581
vt 0.135387 0.286327
vt 0.233214 0.048527
vt 0.232861 0.009886
vt 0.282636 0.007812
vt 0.534653 0.146414
vt 0.488273 0.146728
vt 0.512816 0.122588
vt 0.797032 0.249934
vt 0.759719 0.298708
vt 0.720466 0.276460
vt 0.752590 0.203489
vt 0.123207 0.897548
vt 0.115166 0.947727
vt 0.088187 0.913052
vt 0.167451 0.939049
vt 0.167871 0.911815
vt 0.315278 0.732265
vt 0.269284 0.777173
vt 0.261439 0.726562
vt 0.342575 0.808559
vt 0.364426 0.769084
vt 0.156098 0.333008
vt 0.148914 0.249927
vt 0.200696 0.215986
vt 0.277737 0.251997
vt 0.285028 0.329856
vt 0.194993 0.358595
vt 0.152703 0.481100
vt 0.064515 0.431670
vt 0.130265 0.411257
vt 0.168105 0.435370
vt 0.356116 0.527431
vt 0.377778 0.577960
vt 0.304096 0.613311
vt 0.593394 0.082034
vt 0.577770 0.130075
vt 0.530596 0.116867
vt 0.507920 0.028205
vt 0.559002 0.007812
vt 0.689274 0.624790
vt 0.705457 0.693176
vt 0.604370 0.692413
vt 0.432882 0.674018
vt 0.410823 0.605245
vt 0.465947 0.589089
vt 0.479611 0.638850
vt 0.101242 0.518624
vt 0.052465 0.480467
vt 0.808461 0.773143
vt 0.852538 0.789201
vt 0.848488 0.836199
vt 0.796666 0.840475
vt 0.772215 0.816511
vt 0.768691 0.791785
vt 0.421121 0.975652
vt 0.390038 0.948849
vt 0.425468 0.927815
vt 0.456527 0.954890
vt 0.249204 0.624703
vt 0.180416 0.591097
vt 0.235540 0.574942
vt 0.256080 0.598848
vt 0.267967 0.551870
vt 0.139984 0.621754
vt 0.144800 0.653754
vt 0.661721 0.713152
vt 0.607492 0.632141
vt 0.814134 0.462450
vt 0.821317 0.495906
vt 0.778530 0.520244
vt 0.724038 0.485988
vt 0.769589 0.446218
vt 0.842941 0.324379
vt 0.774680 0.367513
vt 0.774049 0.324750
vt 0.793014 0.281510
vt 0.753187 0.439108
vt 0.684721 0.455174
vt 0.665097 0.411459
vt 0.685532 0.354022
vt 0.745889 0.357334
vt 0.947331 0.040295
vt 0.895504 0.045268
vt 0.918230 0.007812
vt 0.290055 0.124835
vt 0.282872 0.041754
vt 0.334653 0.007812
vt 0.411695 0.043824
vt 0.418986 0.121683
vt 0.328951 0.150422
vt 0.953040 0.912973
vt 0.912809 0.955477
vt 0.902648 0.907127
vt 0.934880 0.879688
vt 0.052465 0.693821
vt 0.119656 0.663623
vt 0.092083 0.742121
vt 0.062320 0.724921
vt 0.882423 0.324199
vt 0.913355 0.318002
vt 0.933450 0.359129
vt 0.911694 0.373232
vt 0.864858 0.371577
vt 0.857996 0.351637
vt 0.271921 0.947208
vt 0.319364 0.977893
vt 0.270369 0.973026
vt 0.769231 0.922066
vt 0.711536 0.922677
vt 0.717636 0.891422
vt 0.581297 0.478410
vt 0.495418 0.426390
vt 0.509880 0.378374
vt 0.556859 0.390262
vt 0.052694 0.807102
vt 0.024604 0.859127
vt 0.007812 0.809220
vt 0.769053 0.947946
vt 0.718126 0.957847
vt 0.202475 0.659871
vt 0.708930 0.860983
vt 0.665097 0.844762
vt 0.667275 0.798463
vt 0.726485 0.793607
vt 0.744954 0.817924
vt 0.748505 0.842641
vt 0.023277 0.928587
vt 0.045531 0.875771
vt 0.078479 0.897364
vt 0.066461 0.934801
vt 0.504666 0.584521
vt 0.539563 0.646669
vt 0.491845 0.631253
vt 0.789913 0.437460
vt 0.852551 0.400007
vt 0.836978 0.444192
vt 0.784766 0.383681
vt 0.808831 0.364574
vt 0.833549 0.360629
vt 0.279516 0.423924
vt 0.257078 0.354081
vt 0.294918 0.378194
vt 0.524492 0.945773
vt 0.488753 0.953171
vt 0.456123 0.931617
vt 0.469737 0.894690
vt 0.500677 0.899121
vt 0.526313 0.924959
vt 0.166557 0.008209
vt 0.205868 0.054223
vt 0.157668 0.066187
vt 0.145342 0.023449
vt 0.084477 0.753393
vt 0.141894 0.752273
vt 0.109329 0.813654
vt 0.086932 0.812736
vt 0.047107 0.771928
vt 0.292446 0.811951
vt 0.345379 0.828597
vt 0.347035 0.853026
vt 0.310826 0.877166
vt 0.273673 0.874849
vt 0.263225 0.821236
vt 0.376479 0.156181
vt 0.370776 0.298790
vt 0.293735 0.262779
vt 0.286444 0.184920
vt 0.763589 0.013516
vt 0.812737 0.050335
vt 0.790886 0.089810
vt 0.717595 0.058424
vt 0.190313 0.777326
vt 0.222904 0.829007
vt 0.164989 0.842962
vt 0.441977 0.502916
vt 0.492108 0.501321
vt 0.535814 0.548454
vt 0.490879 0.574883
vt 0.952466 0.387952
vt 0.924808 0.434398
vt 0.918723 0.384117
vt 0.948058 0.451935
vt 0.972333 0.437689
vt 0.398234 0.682441
vt 0.435083 0.746080
vt 0.368357 0.695403
vt 0.338593 0.952430
vt 0.314171 0.929363
vt 0.910469 0.254853
vt 0.850851 0.273813
vt 0.888052 0.232126
vt 0.813343 0.242884
vt 0.825363 0.186443
vt 0.871125 0.172839
vt 0.876413 0.216522
vt 0.841922 0.258937
vt 0.213773 0.007812
vt 0.221558 0.027581
vt 0.007812 0.195752
vt 0.114410 0.278496
vt 0.036551 0.285787
vt 0.150900 0.097803
vt 0.007812 0.092129
vt 0.044229 0.015207
vt 0.122097 0.007812
vt 0.530768 0.500073
vt 0.938320 0.173700
vt 0.936584 0.126137
vt 0.961515 0.124252
vt 0.984124 0.162389
vt 0.965219 0.188793
vt 0.624537 0.856953
vt 0.568648 0.817250
vt 0.621584 0.792702
vt 0.653521 0.846803
vt 0.447208 0.359392
vt 0.517051 0.336953
vt 0.492938 0.374794
vt 0.661322 0.234081
vt 0.597696 0.199299
vt 0.632082 0.129430
vt 0.667423 0.176465
vt 0.571046 0.842113
vt 0.609655 0.874457
vt 0.612634 0.903026
vt 0.561028 0.917659
vt 0.574291 0.857287
vt 0.988524 0.938404
vt 0.992188 0.986505
vt 0.965931 0.971800
vt 0.963376 0.925229
vt 0.476286 0.168546
vt 0.494796 0.243993
vt 0.429332 0.191359
vt 0.921435 0.715949
vt 0.895589 0.715327
vt 0.886573 0.664290
vt 0.921799 0.654258
vt 0.261202 0.804144
vt 0.251595 0.769812
vt 0.072403 0.963754
vt 0.056893 0.990415
vt 0.009308 0.991409
vt 0.007812 0.966452
vt 0.046297 0.944440
vt 0.788990 0.185566
vt 0.763670 0.147517
vt 0.822742 0.171501
vt 0.019291 0.474412
vt 0.035167 0.540761
vt 0.007812 0.517465
vt 0.080300 0.524202
vt 0.944438 0.331952
vt 0.981326 0.286825
vt 0.991413 0.306449
vt 0.927654 0.309566
vt 0.670455 0.139586
vt 0.732426 0.197345
vt 0.700645 0.207104
vt 0.752429 0.185008
vt 0.739098 0.113857
vt 0.690486 0.099016
vt 0.883859 0.617946
vt 0.873176 0.664644
vt 0.823557 0.678052
vt 0.822274 0.632685
vt 0.857784 0.591282
vt 0.883273 0.744044
vt 0.827875 0.704958
vt 0.847983 0.685455
vt 0.874556 0.684652
vt 0.970317 0.531135
vt 0.925868 0.560299
vt 0.946826 0.517426
vt 0.971870 0.576074
vt 0.942271 0.593261
vt 0.688008 0.557549
vt 0.733021 0.604252
vt 0.681172 0.611730
vt 0.765610 0.531443
vt 0.726482 0.509155
vt 0.016020 0.737257
vt 0.007812 0.663539
vt 0.036048 0.688340
vt 0.040251 0.735880
vt 0.091989 0.601084
vt 0.144009 0.515205
vt 0.192024 0.529668
vt 0.180137 0.576646
vt 0.550290 0.332158
vt 0.612922 0.297317
vt 0.597294 0.345216
vt 0.548147 0.167552
vt 0.580878 0.197301
vt 0.370391 0.635901
vt 0.375207 0.667901
vt 0.367287 0.312637
vt 0.297161 0.335184
vt 0.321205 0.297212
vt 0.317679 0.400787
vt 0.258992 0.198940
vt 0.176022 0.206164
vt 0.141770 0.154334
vt 0.284577 0.160012
vt 0.581150 0.143411
vt 0.076586 0.604267
vt 0.092741 0.659390
vt 0.042981 0.673054
vt 0.007812 0.626325
vt 0.013930 0.568650
vt 0.629157 0.238804
vt 0.007812 0.333862
vt 0.078853 0.313957
vt 0.074342 0.413992
vt 0.025895 0.400329
vt 0.532926 0.886741
vt 0.919908 0.524470
vt 0.868712 0.536785
vt 0.886651 0.496322
vt 0.906874 0.582927
vt 0.878321 0.574165
vt 0.786864 0.738922
vt 0.706177 0.719788
vt 0.734337 0.679713
vt 0.661805 0.096247
vt 0.604370 0.075274
vt 0.607561 0.015144
vt 0.689200 0.007812
vt 0.705393 0.076033
vt 0.912053 0.442547
vt 0.852637 0.442875
vt 0.890820 0.403386
vt 0.901469 0.477830
vt 0.852825 0.487835
vt 0.704659 0.510140
vt 0.664226 0.540797
vt 0.595439 0.507191
vt 0.642168 0.472023
vt 0.699843 0.478140
vt 0.593283 0.561843
vt 0.613935 0.612793
vt 0.191328 0.374493
vt 0.228055 0.461448
vt 0.179278 0.423291
vt 0.042225 0.144128
vt 0.125341 0.136879
vt 0.425760 0.043328
vt 0.452119 0.007812
vt 0.507097 0.088732
vt 0.433866 0.114735
vt 0.115246 0.367612
vt 0.033224 0.296670
vt 0.617881 0.353850
vt 0.583414 0.423783
vt 0.566862 0.367925
vt 0.653399 0.401007
vt 0.647343 0.458749
vt 0.614976 0.463454
vt 0.360245 0.662218
vt 0.339810 0.719655
vt 0.279453 0.716343
vt 0.272155 0.634570
vt 0.340621 0.618504
vt 0.261940 0.456724
vt 0.298439 0.529230
vt 0.226850 0.536000
vt 0.191781 0.509139
vt 0.663723 0.919747
vt 0.661688 0.859185
vt 0.703104 0.889130
vt 0.709750 0.007812
vt 0.888359 0.779948
vt 0.940587 0.772055
vt 0.912456 0.804380
vt 0.905072 0.726724
vt 0.934130 0.733548
vt 0.666883 0.982215
vt 0.699675 0.936189
vt 0.699325 0.985158
vt 0.677073 0.929559
vt 0.510979 0.884678
vt 0.453046 0.882984
vt 0.452551 0.830756
vt 0.481481 0.820467
vt 0.534556 0.835182
vt 0.537029 0.859750
vt 0.824060 0.748675
vt 0.858459 0.771366
vt 0.940747 0.958135
vt 0.614659 0.966988
vt 0.623039 0.918787
vt 0.645019 0.945509
vt 0.578421 0.927063
vt 0.568648 0.952783
vt 0.621368 0.780294
vt 0.667362 0.735386
vt 0.675208 0.785997
vt 0.594071 0.704000
vt 0.572220 0.743475
vt 0.070326 0.550556
vt 0.007812 0.904344
vt 0.009560 0.883370
vt 0.164821 0.668241
vt 0.144970 0.731971
vt 0.360787 0.436636
vt 0.383226 0.506480
vt 0.345385 0.482367
vt 0.448976 0.486067
vt 0.412248 0.399113
vt 0.461025 0.437270
vt 0.609103 0.556952
vt 0.550783 0.809022
vt 0.556430 0.749939
vt 0.588493 0.790659
vt 0.516044 0.748014
vt 0.493041 0.809581
vt 0.466840 0.785571
vt 0.911801 0.855540
vt 0.850851 0.859994
vt 0.881005 0.816709
vt 0.952863 0.664899
vt 0.873999 0.941451
vt 0.835636 0.951020
vt 0.875803 0.910632
vt 0.084615 0.988655
vt 0.138530 0.965422
vt 0.133433 0.989237
vt 0.085245 0.954988
vt 0.178048 0.077550
vt 0.255766 0.070160
vt 0.929440 0.852946
vt 0.934307 0.803952
vt 0.960125 0.805504
vt 0.977970 0.847754
vt 0.954903 0.872175
vt 0.527567 0.243634
vt 0.578538 0.222989
vt 0.216613 0.844515
vt 0.275322 0.898516
vt 0.233191 0.903621
vt 0.193567 0.865730
vt 0.749044 0.089710
vt 0.815025 0.114310
vt 0.168182 0.775896
vt 0.033399 0.156856
vt 0.116480 0.149673
vt 0.150422 0.201454
vt 0.800841 0.925862
vt 0.823507 0.899523
vt 0.186109 0.712035
vt 0.224662 0.663536
vt 0.263913 0.685793
vt 0.231228 0.758725
vt 0.179278 0.766261
vt 0.883020 0.070688
vt 0.840836 0.124729
vt 0.818702 0.070739
vt 0.874189 0.041275
vt 0.211908 0.971411
vt 0.186899 0.970249
vt 0.179278 0.920645
vt 0.213598 0.911696
vt 0.243440 0.922672
vt 0.930751 0.086544
vt 0.899730 0.083948
vt 0.855885 0.539936
vt 0.832338 0.578590
vt 0.790124 0.531445
vt 0.860688 0.498996
vt 0.045929 0.563834
vt 0.958017 0.739941
vt 0.961420 0.681902
vt 0.990489 0.703781
vt 0.989040 0.751334
vt 0.085360 0.869663
vt 0.096273 0.839913
vt 0.479334 0.739361
vt 0.463268 0.670895
vt 0.506982 0.651271
vt 0.564419 0.671706
vt 0.561107 0.732063
vt 0.712128 0.334166
vt 0.644407 0.249133
vt 0.704767 0.252398
vt 0.624017 0.306586
vt 0.643675 0.350285
vt 0.738327 0.626498
vt 0.772583 0.572007
vt 0.812354 0.617558
vt 0.796121 0.662102
vt 0.762665 0.669285
vt 0.865782 0.123455
vt 0.419492 0.581373
vt 0.384679 0.554435
vt 0.461219 0.159196
vt 0.415374 0.181768
vt 0.422558 0.264849
vt 0.289983 0.455817
vt 0.366479 0.412664
vt 0.405539 0.364978
vt 0.805852 0.860979
vt 0.810438 0.888646
vt 0.774467 0.906915
vt 0.731183 0.876761
vt 0.770013 0.845966
vt 0.897660 0.305923
vt 0.862235 0.315413
vt 0.803278 0.196154
vt 0.989441 0.208138
vt 0.975762 0.275944
vt 0.950873 0.247360
vt 0.962679 0.199673
vt 0.496639 0.271203
vt 0.409685 0.307930
vt 0.447842 0.259153
vt 0.741728 0.785333
vt 0.773071 0.773052
vt 0.429088 0.872533
vt 0.448571 0.907498
vt 0.384555 0.924605
vt 0.366818 0.902541
vt 0.368506 0.875726
vt 0.397700 0.795699
vt 0.441776 0.811882
vt 0.435807 0.859458
vt 0.398346 0.862628
vt 0.361283 0.839009
vt 0.357888 0.814516
vt 0.628195 0.904370
vt 0.624017 0.876380
vt 0.896788 0.891379
vt 0.869120 0.895965
vt 0.343529 0.502913
vt 0.420139 0.788569
vt 0.354316 0.726715
s 1
f 2/1 3/2 1/3
f 5/4 6/5 4/6
f 8/7 9/8 7/9
f 11/10 12/11 10/12
f 14/13 15/14 13/15
f 17/16 18/17 16/18
f 20/19 21/20 19/21
f 23/22 24/23 22/24
f 26/25 27/26 25/27
f 29/28 30/29 28/30
f 32/31 33/32 31/33
f 35/34 36/35 34/36
f 38/37 39/38 37/39
f 41/40 42/41 40/42
f 809/43 812/44 811/45 810/46
f 49/47 50/48 48/49
f 49/47 51/50 50/48
f 52/51 51/50 49/47
f 58/52 59/53 57/54
f 58/52 60/55 59/53
f 58/52 61/56 60/55
f 67/57 66/58 65/59 64/60 62/61 63/62
f 85/63 87/64 86/65 84/66
f 71/67 72/68 70/69
f 982/70 980/71 981/72 983/73 984/74
f 424/75 426/76 425/77
f 765/78 764/79 762/80 763/81
f 88/82 87/64 85/63
f 89/83 87/64 88/82
f 988/84 987/85 985/86 986/87 989/88 990/89
f 696/90 698/91 697/92 695/93
f 97/94 98/95 96/96
f 71/67 70/69 68/97 69/98
f 101/99 98/95 100/100
f 992/75 995/76 994/101 993/77 991/102
f 207/103 208/104 206/105 204/106 205/107
f 688/108 690/109 689/110 687/111
f 80/112 83/113 82/114 81/115 79/116
f 114/117 115/118 113/119
f 165/120 164/121 163/122 162/123 160/124 161/125
f 1045/126 1047/127 1046/128 1044/129
f 714/130 711/131 712/132 713/133
f 93/134 92/135 90/136 91/137 95/138 94/139
f 131/140 132/141 130/142
f 136/143 137/144 135/145
f 253/146 252/147 250/148 251/149
f 144/133 142/131 143/132
f 145/130 142/131 144/133
f 147/150 148/151 146/152
f 708/153 707/154 706/144 704/145 705/143
f 669/100 667/95 666/94 668/155
f 827/156 826/157 824/158 825/159 828/160 829/161
f 1071/162 1073/163 1072/164 1070/165
f 167/166 168/167 166/168
f 172/169 173/170 171/171
f 174/172 173/170 172/169
f 175/173 173/170 174/172
f 176/174 173/170 175/173
f 183/175 184/176 182/177
f 78/178 76/179 75/180 73/181 74/182 77/183
f 521/184 520/185 518/186 519/187
f 672/188 675/189 674/190 673/191 671/192
f 194/81 195/79 193/80
f 356/193 360/194 359/195 358/196 357/197 355/198
f 491/199 493/200 492/201 490/202
f 744/173 742/170 740/171 741/169 743/172
f 725/203 728/204 727/205 726/206
f 210/207 211/208 209/209
f 370/210 369/211 367/212 368/213
f 215/214 216/215 214/216
f 215/214 217/217 216/215
f 218/218 217/217 215/214
f 733/121 732/122 731/123 729/124 730/125 734/120
f 259/160 258/156 257/157 256/159
f 228/219 226/220 227/221
f 134/222 132/141 131/140 133/223
f 235/224 236/225 234/226
f 232/227 231/228 229/229 230/230 233/231
f 521/184 523/232 522/233 520/185
f 240/43 243/44 242/45
f 245/234 246/235 244/236
f 407/237 409/238 408/239 406/240
f 253/146 254/241 252/147
f 256/159 257/157 255/158
f 260/161 258/156 259/160
f 1121/242 1119/243 1120/244 1122/245 1123/246
f 273/247 275/248 274/249 272/250
f 267/251 268/252 266/253
f 365/254 363/255 362/256 364/257
f 275/248 273/247 276/258
f 127/90 129/91 128/92 126/93
f 380/259 381/260 379/261 378/262
f 374/263 376/264 375/265 373/266
f 284/267 285/268 283/269
f 1130/270 1133/271 1132/272 1131/273
f 213/274 211/208 210/207 212/275
f 223/276 221/277 219/278 220/279 222/280
f 297/281 295/282 296/283
f 299/284 300/285 298/286
f 299/284 301/287 300/285
f 303/288 304/289 302/290
f 303/288 305/291 304/289
f 307/292 308/293 306/294
f 308/293 307/292 309/295
f 309/295 307/292 310/296
f 310/296 307/292 311/297
f 315/298 314/299 312/300 313/301 316/302
f 470/303 472/304 471/305 469/306
f 318/307 319/308 317/309
f 320/310 319/308 318/307
f 319/308 320/310 321/311
f 323/312 324/313 322/314
f 323/312 325/315 324/313
f 323/312 326/316 325/315
f 1021/317 1023/318 1022/319 1020/320
f 499/321 498/322 496/323 497/324
f 334/325 335/326 333/327
f 703/222 701/141 699/142 700/140 702/223
f 645/179 644/180 642/181 643/182 646/183 647/178
f 286/328 287/329 285/268 284/267
f 767/330 764/79 765/78 766/331
f 350/332 351/333 349/334
f 350/332 352/335 351/333
f 332/336 331/337 330/338 328/339
f 362/256 363/255 361/340
f 848/341 846/342 847/343 849/344 850/345
f 366/346 363/255 365/254
f 431/347 429/348 428/349 430/350
f 654/63 656/64 655/65 653/66
f 378/262 379/261 377/351
f 383/352 384/353 382/354
f 385/355 384/353 383/352
f 386/356 384/353 385/355
f 388/357 389/358 387/359
f 347/360 346/361 344/362 345/363 348/364
f 393/365 394/366 392/367
f 395/368 394/366 393/365
f 394/366 395/368 396/369
f 529/370 526/371 525/372 527/373 528/374
f 169/375 170/376 168/167 167/166
f 754/377 753/176 751/177 752/175 755/378 756/379
f 407/237 410/380 409/238
f 411/381 410/380 407/237
f 413/72 414/70 412/71
f 415/73 414/70 413/72
f 415/73 416/74 414/70
f 418/87 419/85 417/86
f 420/84 419/85 418/87 421/88 422/89
f 424/75 425/77 423/102
f 771/382 772/383 770/384 769/385
f 428/349 429/348 427/386
f 431/347 432/387 429/348
f 440/388 441/389 439/390
f 441/389 440/388 442/391 443/392 444/393
f 1079/394 1078/395 1076/396 1077/397 1080/398
f 448/399 446/400 449/401
f 448/399 449/401 450/402
f 456/403 457/404 455/405
f 156/203 159/204 158/205 157/206 155/406
f 461/407 462/408 460/409
f 463/410 462/408 461/407
f 464/411 462/408 463/410
f 466/412 467/413 465/414
f 466/412 468/415 467/413
f 435/416 433/417 434/418 436/419 438/420 437/421
f 470/303 473/422 472/304
f 474/423 473/422 470/303
f 476/126 477/128 475/129
f 476/126 478/127 477/128
f 479/424 478/127 476/126
f 481/425 482/426 480/427
f 481/425 483/428 482/426
f 484/429 483/428 481/425
f 486/430 487/431 485/432
f 486/430 488/433 487/431
f 486/430 489/434 488/433
f 119/108 121/109 120/110 118/111
f 499/321 500/435 498/322
f 502/162 503/164 501/165
f 504/163 503/164 502/162 505/436 506/437
f 185/377 184/176 183/175 186/378 187/379
f 143/132 142/131 140/438 141/439
f 510/394 508/397 511/398
f 513/440 514/441 512/442
f 513/440 515/443 514/441
f 516/444 515/443 513/440
f 517/445 515/443 516/444
f 1010/389 1009/388 1011/391 1012/392 1013/393
f 802/231 801/227 800/228 798/229 799/230
f 525/372 526/371 524/446
f 531/447 532/448 530/449
f 914/363 917/364 916/360 915/361 913/362
f 533/450 534/451 535/452
f 537/453 538/454 536/455
f 561/270 564/271 563/272 562/273 560/456
f 545/457 543/458 544/459
f 547/460 548/461 546/462
f 547/460 549/463 548/461
f 1084/443 1083/441 1082/440 1085/444 1086/445
f 328/339 330/338 329/464 327/465
f 567/466 565/467 566/468 568/469 569/470
f 904/326 902/327 903/325 905/471 906/472
f 572/1 571/2 570/3
f 574/4 575/5 573/6
f 577/7 578/8 576/9
f 580/10 581/11 579/12
f 583/13 584/14 582/15
f 586/16 587/17 585/18
f 589/19 590/20 588/21
f 592/22 593/23 591/24
f 595/25 596/26 594/27
f 598/28 599/29 597/30
f 601/31 602/32 600/33
f 604/34 605/35 603/36
f 607/37 608/38 606/39
f 610/40 611/41 609/42
f 721/473 723/474 722/475 720/476
f 618/47 619/48 617/49
f 618/47 620/50 619/48
f 621/51 620/50 618/47
f 531/447 534/451 533/450 532/448
f 627/52 628/53 626/54
f 627/52 629/55 628/53
f 627/52 630/56 629/55
f 1103/451 1104/452 1102/450 1100/447
f 821/147 819/148 820/149 822/146 823/241
f 296/283 295/282 293/477 294/478
f 662/134 661/135 659/136 660/137 664/138 663/139
f 452/317 454/318 453/319 451/320
f 103/188 106/189 107/479 105/190 104/191 102/192
f 249/480 248/481 247/482 246/235 245/234
f 657/82 656/64 654/63
f 658/83 656/64 657/82
f 544/459 543/458 541/483 542/484
f 666/94 667/95 665/96
f 402/485 405/486 404/487 403/488 401/489
f 670/99 667/95 669/100
f 758/490 760/491 759/492 757/493
f 674/190 675/189 676/479
f 556/494 559/495 558/496 557/497 555/498
f 683/117 684/118 682/119
f 685/499 684/118 683/117
f 686/500 684/118 685/499
f 889/310 890/311 888/308 887/307
f 1125/494 1128/495 1127/496 1126/497
f 198/330 195/79 194/81 196/78 197/331
f 123/501 125/502 124/503 122/504
f 282/505 279/341 277/342 278/343 280/344 281/345
f 966/506 968/507 967/508 965/509
f 1043/423 1042/422 1041/304 1039/303
f 716/150 717/151 715/152
f 716/150 718/510 717/151
f 719/511 718/510 716/150
f 262/512 265/513 264/514 263/515 261/516
f 725/203 726/206 724/406
f 100/100 98/95 97/94 99/155
f 1075/437 1073/163 1071/162 1074/436
f 736/166 737/167 735/168
f 398/506 400/507 399/508 397/509
f 782/274 780/208 779/207 781/275
f 712/132 711/131 709/438 710/439
f 745/174 742/170 744/173
f 747/517 748/518 746/519
f 747/517 749/520 748/518
f 749/520 747/517 750/521
f 859/522 857/523 858/524 860/525 861/526
f 760/491 758/490 761/527
f 866/281 864/282 863/478 865/283
f 371/528 372/529 370/210 368/213
f 769/385 770/384 768/530
f 495/531 494/532 493/200 491/199
f 1015/400 1018/401 1019/402 1017/399 1016/533
f 842/247 844/248 843/249 841/250
f 779/207 780/208 778/209
f 817/481 816/482 815/235 813/236 814/234 818/480
f 784/214 785/215 783/216
f 784/214 786/217 785/215
f 787/218 786/217 784/214
f 354/534 352/335 350/332 353/535
f 508/397 510/394 509/395 507/396
f 111/536 112/537 110/538 108/539 109/540
f 797/219 795/220 796/221
f 201/384 199/530 200/385 202/382 203/383
f 804/224 805/225 803/226
f 806/541 805/225 804/224
f 805/225 806/541 807/542
f 809/43 810/46 808/543
f 623/544 625/545 624/546 622/547
f 290/522 288/523 289/524 291/525 292/526
f 269/548 268/252 267/251 270/549 271/550
f 240/43 242/45 241/46 239/543
f 391/551 389/358 388/357 390/552
f 1138/470 1136/466 1135/468 1137/469
f 1035/412 1037/415 1036/413 1034/414
f 838/548 837/252 835/253 836/251 839/549 840/550
f 336/471 337/472 335/326 334/325
f 844/248 842/247 845/258
f 45/553 43/554 44/555 46/556 47/557
f 851/505 848/341 850/345
f 738/375 739/376 737/167 736/166
f 54/544 56/545 55/546 53/547
f 863/478 864/282 862/477
f 1102/450 1101/448 1099/449 1100/447
f 868/284 869/285 867/286
f 868/284 870/287 869/285
f 872/288 873/289 871/290
f 872/288 874/291 873/289
f 876/292 877/293 875/294
f 877/293 876/292 878/295
f 878/295 876/292 879/296
f 879/296 876/292 880/297
f 882/301 883/299 881/300
f 882/301 884/298 883/299
f 885/302 884/298 882/301
f 887/307 888/308 886/309
f 892/312 895/316 894/315 893/313
f 892/312 893/313 891/314
f 897/339 898/464 896/465
f 897/339 899/338 898/464
f 897/339 900/337 899/338
f 901/336 900/337 897/339
f 651/114 650/115 648/116 649/112 652/113
f 910/558 909/559 907/560 908/561 911/562 912/563
f 150/511 149/510 148/151 147/150
f 458/564 459/565 457/404 456/403
f 919/332 920/333 918/334
f 919/332 921/335 920/333
f 922/535 921/335 919/332
f 923/534 921/335 922/535
f 152/473 154/474 153/475 151/476
f 178/517 181/521 180/520 179/518 177/519
f 117/500 115/118 114/117 116/499
f 934/346 931/255 933/254
f 952/353 950/354 951/352 953/355 954/356
f 636/57 635/58 634/59 633/60 631/61 632/62
f 938/210 939/528 940/529
f 942/263 943/265 941/266
f 942/263 944/264 943/265
f 946/262 947/261 945/351
f 963/368 962/366 960/367 961/365
f 957/358 955/359 956/357 958/552 959/551
f 539/566 540/567 538/454 537/453
f 1027/564 1026/404 1024/405 1025/403
f 962/366 963/368 964/369
f 970/485 971/488 969/489
f 970/485 972/487 971/488
f 970/485 973/486 972/487
f 792/276 790/277 788/278 789/279 791/280
f 977/238 976/239 974/240 975/237 979/381 978/380
f 948/259 949/260 947/261 946/262
f 831/512 834/513 833/514 832/515 830/516
f 692/501 694/502 693/503 691/504
f 933/254 931/255 929/340 930/256 932/257
f 1060/199 1062/200 1061/201 1059/202
f 997/349 999/350 1000/347 1001/387 998/348 996/386
f 1003/418 1004/416 1002/417
f 1006/421 1004/416 1003/418 1005/419 1007/420
f 552/242 550/243 551/244 553/245 554/246
f 1009/388 1010/389 1008/390
f 341/558 340/559 338/560 339/561 342/562 343/563
f 640/67 641/68 639/69 637/97 638/98
f 1015/400 1016/533 1014/568
f 616/557 614/553 612/554 613/555 615/556
f 1039/303 1041/304 1040/305 1038/306
f 1027/564 1028/565 1026/404
f 1030/407 1031/408 1029/409
f 1032/410 1031/408 1030/407
f 1033/411 1031/408 1032/410
f 237/541 238/542 236/225 235/224
f 1064/531 1063/532 1062/200 1060/199
f 1108/566 1109/567 1107/454 1106/453
f 1048/424 1047/127 1045/126
f 1050/425 1051/426 1049/427
f 1050/425 1052/428 1051/426
f 1053/429 1052/428 1050/425
f 1055/430 1056/431 1054/432
f 1055/430 1057/433 1056/431
f 1055/430 1058/434 1057/433
f 1066/324 1067/322 1065/323
f 1068/321 1067/322 1066/324
f 1068/321 1069/435 1067/322
f 924/198 928/194 927/195 926/196 925/197
f 139/153 138/154 137/144 136/143
f 448/399 447/533 445/568 446/400
f 855/328 856/329 854/268 852/269 853/267
f 1082/440 1083/441 1081/442
f 1088/187 1089/185 1087/186
f 1090/184 1089/185 1088/187
f 1090/184 1091/233 1089/185
f 1091/233 1090/184 1092/232
f 1094/372 1095/371 1093/446
f 1096/373 1095/371 1094/372
f 1097/374 1095/371 1096/373
f 1098/370 1095/371 1097/374
f 680/536 681/537 679/538 677/539 678/540
f 227/221 226/220 224/569 225/570
f 1106/453 1107/454 1105/455
f 1111/484 1112/458 1110/483
f 1113/459 1112/458 1111/484
f 1114/457 1112/458 1113/459
f 1116/460 1117/461 1115/462
f 1116/460 1118/463 1117/461
f 189/490 192/527 191/491 190/492 188/493
f 796/221 795/220 793/569 794/570
f 1125/494 1126/497 1124/498
f 1130/270 1131/273 1129/456
f 776/103 777/104 775/105 773/106 774/107
f 1135/468 1136/466 1134/467
f 936/213 939/528 938/210 937/211 935/212
