# Blender 5.1.2
# www.blender.org
o mosaic_mesmer_pincers_LOD0
v -0.438469 0.322762 0.457754
v -0.462422 0.404743 0.401285
v -0.402306 0.383848 0.464943
v -0.502556 0.436984 0.239394
v -0.502244 0.439359 0.307366
v -0.509714 0.395684 0.244107
v -0.502244 0.439359 0.307366
v -0.462422 0.404743 0.401285
v -0.476143 0.363732 0.401425
v -0.455843 0.308679 0.224639
v -0.443894 0.253684 0.261158
v -0.427765 0.254381 0.247711
v -0.196324 0.380925 0.341827
v -0.218343 0.370994 0.285960
v -0.197159 0.326471 0.297091
v -0.133295 0.263394 0.509726
v -0.213746 0.374753 0.486840
v -0.191332 0.371067 0.435666
v -0.231344 0.139074 0.317721
v -0.279402 0.153306 0.300637
v -0.220940 0.112216 0.344180
v -0.314158 0.169030 0.290439
v -0.379591 0.200865 0.270436
v -0.339545 0.152799 0.317373
v -0.123397 0.067216 0.435213
v -0.131023 0.045457 0.463468
v -0.107609 0.047241 0.484545
v -0.355082 0.440435 0.212604
v -0.376914 0.427522 0.197316
v -0.333543 0.405824 0.208362
v -0.196324 0.380925 0.341827
v -0.223345 0.393862 0.298585
v -0.218343 0.370994 0.285960
v -0.279931 0.385828 0.234182
v -0.333543 0.405824 0.208362
v -0.299525 0.366309 0.216844
v -0.376914 0.427522 0.197316
v -0.432372 0.428030 0.190414
v -0.424294 0.387348 0.186944
v -0.304610 0.178054 0.280725
v -0.314158 0.169030 0.290439
v -0.279402 0.153306 0.300637
v -0.402306 0.383848 0.464943
v -0.368594 0.345700 0.506124
v -0.438469 0.322762 0.457754
v -0.419236 0.280863 0.479900
v -0.385184 0.275810 0.504641
v -0.308844 0.088897 0.486393
v -0.350688 0.138772 0.492349
v -0.325324 0.120070 0.511557
v -0.386424 0.180906 0.474238
v -0.371424 0.186588 0.504653
v -0.140567 0.244912 0.545072
v -0.231734 0.360955 0.506503
v -0.133295 0.263394 0.509726
v -0.213746 0.374753 0.486840
v -0.116029 0.190990 0.570130
v -0.164514 0.200966 0.580627
v -0.140567 0.244912 0.545072
v -0.254758 0.338225 0.522755
v -0.231734 0.360955 0.506503
v -0.314665 0.324178 0.537305
v -0.254758 0.338225 0.522755
v -0.323054 0.211950 0.540771
v -0.164514 0.200966 0.580627
v -0.197028 0.144343 0.594404
v -0.292024 0.159569 0.557333
v -0.357339 0.205168 0.518654
v -0.385184 0.275810 0.504641
v -0.323054 0.211950 0.540771
v -0.314665 0.324178 0.537305
v -0.368594 0.345700 0.506124
v -0.308844 0.088897 0.486393
v -0.325324 0.120070 0.511557
v -0.283376 0.083421 0.511577
v -0.299794 0.122823 0.542279
v -0.243817 0.075482 0.541644
v -0.252664 0.088723 0.549311
v -0.197028 0.144343 0.594404
v -0.191093 0.089135 0.583251
v -0.292024 0.159569 0.557333
v -0.252664 0.088723 0.549311
v -0.299794 0.122823 0.542279
v -0.323054 0.211950 0.540771
v -0.292024 0.159569 0.557333
v -0.357339 0.205168 0.518654
v -0.299794 0.122823 0.542279
v -0.371424 0.186588 0.504653
v -0.325324 0.120070 0.511557
v -0.157417 0.071719 0.582779
v -0.171402 0.039443 0.537705
v -0.191093 0.089135 0.583251
v -0.201460 0.047486 0.535293
v -0.243817 0.075482 0.541644
v -0.252664 0.088723 0.549311
v -0.116029 0.190990 0.570130
v -0.114691 0.120541 0.595350
v -0.164514 0.200966 0.580627
v -0.197028 0.144343 0.594404
v -0.191093 0.089135 0.583251
v -0.157417 0.071719 0.582779
v -0.368594 0.345700 0.506124
v -0.317714 0.386606 0.494898
v -0.314665 0.324178 0.537305
v -0.286700 0.387439 0.496470
v -0.254758 0.338225 0.522755
v -0.231734 0.360955 0.506503
v -0.371424 0.186588 0.504653
v -0.425638 0.249003 0.463956
v -0.357339 0.205168 0.518654
v -0.385184 0.275810 0.504641
v -0.419236 0.280863 0.479900
v -0.171402 0.039443 0.537705
v -0.157417 0.071719 0.582779
v -0.106849 0.040821 0.523055
v -0.071071 0.101745 0.557140
v -0.114691 0.120541 0.595350
v -0.368594 0.345700 0.506124
v -0.402306 0.383848 0.464943
v -0.317714 0.386606 0.494898
v -0.404327 0.431106 0.427473
v -0.231734 0.360955 0.506503
v -0.286700 0.387439 0.496470
v -0.213746 0.374753 0.486840
v -0.239499 0.408008 0.453607
v -0.201460 0.047486 0.535293
v -0.239252 0.055217 0.511079
v -0.243817 0.075482 0.541644
v -0.283376 0.083421 0.511577
v -0.443945 0.257932 0.441894
v -0.454504 0.307683 0.442091
v -0.425638 0.249003 0.463956
v -0.419236 0.280863 0.479900
v -0.438469 0.322762 0.457754
v -0.371424 0.186588 0.504653
v -0.386424 0.180906 0.474238
v -0.425638 0.249003 0.463956
v -0.430916 0.221407 0.435155
v -0.443945 0.257932 0.441894
v -0.502556 0.436984 0.239394
v -0.509714 0.395684 0.244107
v -0.470466 0.417347 0.199248
v -0.461473 0.369484 0.199357
v -0.479711 0.344211 0.221582
v -0.486649 0.337346 0.235128
v -0.401511 0.171671 0.329010
v -0.395757 0.198008 0.283927
v -0.425463 0.209128 0.297313
v -0.427765 0.254381 0.247711
v -0.443894 0.253684 0.261158
v -0.454504 0.307683 0.442091
v -0.476143 0.363732 0.401425
v -0.438469 0.322762 0.457754
v -0.462422 0.404743 0.401285
v -0.443945 0.257932 0.441894
v -0.470512 0.268058 0.396398
v -0.454504 0.307683 0.442091
v -0.498228 0.355258 0.363569
v -0.476143 0.363732 0.401425
v -0.515018 0.369801 0.292635
v -0.498228 0.355258 0.363569
v -0.494325 0.305724 0.283014
v -0.470512 0.268058 0.396398
v -0.461062 0.236594 0.376905
v -0.477653 0.262812 0.317001
v -0.481768 0.300222 0.260674
v -0.486649 0.337346 0.235128
v -0.494325 0.305724 0.283014
v -0.515018 0.369801 0.292635
v -0.509714 0.395684 0.244107
v -0.425463 0.209128 0.297313
v -0.446356 0.218403 0.320576
v -0.401511 0.171671 0.329010
v -0.406796 0.170334 0.340923
v -0.413259 0.171809 0.354668
v -0.424047 0.184504 0.353168
v -0.461062 0.236594 0.376905
v -0.431747 0.196734 0.379592
v -0.477653 0.262812 0.317001
v -0.424047 0.184504 0.353168
v -0.446356 0.218403 0.320576
v -0.494325 0.305724 0.283014
v -0.477653 0.262812 0.317001
v -0.481768 0.300222 0.260674
v -0.446356 0.218403 0.320576
v -0.443894 0.253684 0.261158
v -0.425463 0.209128 0.297313
v -0.429600 0.201290 0.405520
v -0.396945 0.160926 0.380183
v -0.431747 0.196734 0.379592
v -0.413259 0.171809 0.354668
v -0.424047 0.184504 0.353168
v -0.443945 0.257932 0.441894
v -0.430916 0.221407 0.435155
v -0.470512 0.268058 0.396398
v -0.461062 0.236594 0.376905
v -0.431747 0.196734 0.379592
v -0.429600 0.201290 0.405520
v -0.509714 0.395684 0.244107
v -0.502244 0.439359 0.307366
v -0.515018 0.369801 0.292635
v -0.498228 0.355258 0.363569
v -0.476143 0.363732 0.401425
v -0.443894 0.253684 0.261158
v -0.455843 0.308679 0.224639
v -0.481768 0.300222 0.260674
v -0.486649 0.337346 0.235128
v -0.479711 0.344211 0.221582
v -0.396945 0.160926 0.380183
v -0.429600 0.201290 0.405520
v -0.350688 0.138772 0.492349
v -0.386424 0.180906 0.474238
v -0.430916 0.221407 0.435155
v -0.327739 0.104203 0.415647
v -0.389913 0.156672 0.361520
v -0.396945 0.160926 0.380183
v -0.406796 0.170334 0.340923
v -0.413259 0.171809 0.354668
v -0.433124 0.311480 0.209897
v -0.448928 0.356028 0.198630
v -0.455843 0.308679 0.224639
v -0.479711 0.344211 0.221582
v -0.461473 0.369484 0.199357
v -0.191332 0.371067 0.435666
v -0.133984 0.301708 0.411079
v -0.133295 0.263394 0.509726
v -0.114398 0.238929 0.512409
v -0.096050 0.220917 0.470812
v -0.107609 0.047241 0.484545
v -0.106849 0.040821 0.523055
v -0.076796 0.077425 0.481052
v -0.071071 0.101745 0.557140
v -0.066490 0.113837 0.517888
v -0.188368 0.282559 0.295215
v -0.197159 0.326471 0.297091
v -0.223009 0.322275 0.267316
v -0.233350 0.358721 0.263778
v -0.218343 0.370994 0.285960
v -0.180195 0.240090 0.300939
v -0.142276 0.233790 0.337221
v -0.188368 0.282559 0.295215
v -0.151529 0.288658 0.341596
v -0.197159 0.326471 0.297091
v -0.124219 0.287572 0.398783
v -0.151529 0.288658 0.341596
v -0.086310 0.204027 0.423986
v -0.142276 0.233790 0.337221
v -0.122201 0.180165 0.363176
v -0.083593 0.169698 0.420244
v -0.075057 0.170417 0.462437
v -0.096050 0.220917 0.470812
v -0.086310 0.204027 0.423986
v -0.124219 0.287572 0.398783
v -0.133984 0.301708 0.411079
v -0.107609 0.047241 0.484545
v -0.076796 0.077425 0.481052
v -0.123397 0.067216 0.435213
v -0.086802 0.098427 0.442114
v -0.113983 0.084584 0.421824
v -0.098704 0.103268 0.422918
v -0.122201 0.180165 0.363176
v -0.122928 0.138318 0.377710
v -0.083593 0.169698 0.420244
v -0.098704 0.103268 0.422918
v -0.086802 0.098427 0.442114
v -0.086310 0.204027 0.423986
v -0.083593 0.169698 0.420244
v -0.075057 0.170417 0.462437
v -0.086802 0.098427 0.442114
v -0.066490 0.113837 0.517888
v -0.076796 0.077425 0.481052
v -0.151415 0.142239 0.352509
v -0.156452 0.095626 0.381679
v -0.122928 0.138318 0.377710
v -0.113983 0.084584 0.421824
v -0.098704 0.103268 0.422918
v -0.180195 0.240090 0.300939
v -0.166339 0.188557 0.321758
v -0.142276 0.233790 0.337221
v -0.122201 0.180165 0.363176
v -0.122928 0.138318 0.377710
v -0.151415 0.142239 0.352509
v -0.133984 0.301708 0.411079
v -0.196324 0.380925 0.341827
v -0.124219 0.287572 0.398783
v -0.151529 0.288658 0.341596
v -0.197159 0.326471 0.297091
v -0.066490 0.113837 0.517888
v -0.096298 0.184101 0.550150
v -0.075057 0.170417 0.462437
v -0.096050 0.220917 0.470812
v -0.114398 0.238929 0.512409
v -0.156452 0.095626 0.381679
v -0.151415 0.142239 0.352509
v -0.197280 0.141923 0.327222
v -0.196060 0.182321 0.305926
v -0.166339 0.188557 0.321758
v -0.191332 0.371067 0.435666
v -0.202393 0.401399 0.395709
v -0.133984 0.301708 0.411079
v -0.196324 0.380925 0.341827
v -0.156452 0.095626 0.381679
v -0.156630 0.090605 0.386563
v -0.113983 0.084584 0.421824
v -0.123397 0.067216 0.435213
v -0.177906 0.073723 0.396272
v -0.156630 0.090605 0.386563
v -0.220940 0.112216 0.344180
v -0.156452 0.095626 0.381679
v -0.197280 0.141923 0.327222
v -0.231344 0.139074 0.317721
v -0.171402 0.039443 0.537705
v -0.106849 0.040821 0.523055
v -0.164098 0.031606 0.492848
v -0.107609 0.047241 0.484545
v -0.131023 0.045457 0.463468
v -0.391011 0.162440 0.333433
v -0.339545 0.152799 0.317373
v -0.401511 0.171671 0.329010
v -0.395757 0.198008 0.283927
v -0.379591 0.200865 0.270436
v -0.389913 0.156672 0.361520
v -0.326116 0.107263 0.398709
v -0.391011 0.162440 0.333433
v -0.309605 0.123153 0.341944
v -0.339545 0.152799 0.317373
v -0.254348 0.105572 0.349636
v -0.309605 0.123153 0.341944
v -0.205863 0.060225 0.412375
v -0.326116 0.107263 0.398709
v -0.290249 0.073187 0.435586
v -0.231482 0.054858 0.432444
v -0.170016 0.053019 0.429546
v -0.177906 0.073723 0.396272
v -0.205863 0.060225 0.412375
v -0.254348 0.105572 0.349636
v -0.220940 0.112216 0.344180
v -0.171402 0.039443 0.537705
v -0.164098 0.031606 0.492848
v -0.201460 0.047486 0.535293
v -0.205729 0.038884 0.481721
v -0.239252 0.055217 0.511079
v -0.239104 0.050987 0.488036
v -0.290249 0.073187 0.435586
v -0.293922 0.075598 0.452360
v -0.231482 0.054858 0.432444
v -0.239104 0.050987 0.488036
v -0.205729 0.038884 0.481721
v -0.205863 0.060225 0.412375
v -0.231482 0.054858 0.432444
v -0.170016 0.053019 0.429546
v -0.205729 0.038884 0.481721
v -0.131023 0.045457 0.463468
v -0.164098 0.031606 0.492848
v -0.308707 0.086445 0.478293
v -0.308844 0.088897 0.486393
v -0.293922 0.075598 0.452360
v -0.283376 0.083421 0.511577
v -0.239252 0.055217 0.511079
v -0.239104 0.050987 0.488036
v -0.389913 0.156672 0.361520
v -0.327739 0.104203 0.415647
v -0.326116 0.107263 0.398709
v -0.290249 0.073187 0.435586
v -0.293922 0.075598 0.452360
v -0.308707 0.086445 0.478293
v -0.220940 0.112216 0.344180
v -0.279402 0.153306 0.300637
v -0.254348 0.105572 0.349636
v -0.314158 0.169030 0.290439
v -0.309605 0.123153 0.341944
v -0.339545 0.152799 0.317373
v -0.389913 0.156672 0.361520
v -0.391011 0.162440 0.333433
v -0.406796 0.170334 0.340923
v -0.401511 0.171671 0.329010
v -0.131023 0.045457 0.463468
v -0.123397 0.067216 0.435213
v -0.170016 0.053019 0.429546
v -0.177906 0.073723 0.396272
v -0.156630 0.090605 0.386563
v -0.308844 0.088897 0.486393
v -0.308707 0.086445 0.478293
v -0.350688 0.138772 0.492349
v -0.396945 0.160926 0.380183
v -0.327739 0.104203 0.415647
v -0.213746 0.374753 0.486840
v -0.239499 0.408008 0.453607
v -0.191332 0.371067 0.435666
v -0.202393 0.401399 0.395709
v -0.217557 0.415832 0.388010
v -0.223345 0.393862 0.298585
v -0.270025 0.409297 0.255623
v -0.218343 0.370994 0.285960
v -0.233350 0.358721 0.263778
v -0.279931 0.385828 0.234182
v -0.459839 0.444312 0.372229
v -0.404327 0.431106 0.427473
v -0.462422 0.404743 0.401285
v -0.402306 0.383848 0.464943
v -0.488144 0.463160 0.305936
v -0.435475 0.491618 0.322311
v -0.459839 0.444312 0.372229
v -0.380004 0.457100 0.407872
v -0.404327 0.431106 0.427473
v -0.295820 0.443410 0.424786
v -0.380004 0.457100 0.407872
v -0.283814 0.462062 0.335332
v -0.435475 0.491618 0.322311
v -0.398370 0.499102 0.271045
v -0.313006 0.471725 0.289377
v -0.239562 0.428823 0.330624
v -0.217557 0.415832 0.388010
v -0.283814 0.462062 0.335332
v -0.295820 0.443410 0.424786
v -0.239499 0.408008 0.453607
v -0.279931 0.385828 0.234182
v -0.270025 0.409297 0.255623
v -0.333543 0.405824 0.208362
v -0.311819 0.445614 0.246420
v -0.355082 0.440435 0.212604
v -0.350604 0.448520 0.219534
v -0.398370 0.499102 0.271045
v -0.407038 0.471023 0.216396
v -0.313006 0.471725 0.289377
v -0.350604 0.448520 0.219534
v -0.311819 0.445614 0.246420
v -0.223345 0.393862 0.298585
v -0.239562 0.428823 0.330624
v -0.270025 0.409297 0.255623
v -0.311819 0.445614 0.246420
v -0.313006 0.471725 0.289377
v -0.283814 0.462062 0.335332
v -0.432372 0.428030 0.190414
v -0.376914 0.427522 0.197316
v -0.439920 0.466584 0.209827
v -0.407038 0.471023 0.216396
v -0.355082 0.440435 0.212604
v -0.350604 0.448520 0.219534
v -0.488144 0.463160 0.305936
v -0.479781 0.470830 0.238362
v -0.435475 0.491618 0.322311
v -0.398370 0.499102 0.271045
v -0.407038 0.471023 0.216396
v -0.439920 0.466584 0.209827
v -0.239499 0.408008 0.453607
v -0.286700 0.387439 0.496470
v -0.295820 0.443410 0.424786
v -0.317714 0.386606 0.494898
v -0.380004 0.457100 0.407872
v -0.404327 0.431106 0.427473
v -0.488144 0.463160 0.305936
v -0.459839 0.444312 0.372229
v -0.502244 0.439359 0.307366
v -0.462422 0.404743 0.401285
v -0.223345 0.393862 0.298585
v -0.196324 0.380925 0.341827
v -0.239562 0.428823 0.330624
v -0.217557 0.415832 0.388010
v -0.202393 0.401399 0.395709
v -0.432372 0.428030 0.190414
v -0.439920 0.466584 0.209827
v -0.470466 0.417347 0.199248
v -0.502556 0.436984 0.239394
v -0.479781 0.470830 0.238362
v -0.479781 0.470830 0.238362
v -0.488144 0.463160 0.305936
v -0.502556 0.436984 0.239394
v -0.502244 0.439359 0.307366
v -0.262893 0.287565 0.242789
v -0.224330 0.284442 0.265703
v -0.299525 0.366309 0.216844
v -0.223009 0.322275 0.267316
v -0.233350 0.358721 0.263778
v -0.279931 0.385828 0.234182
v -0.231344 0.139074 0.317721
v -0.197280 0.141923 0.327222
v -0.238231 0.182809 0.286833
v -0.196060 0.182321 0.305926
v -0.217628 0.203162 0.285657
v -0.432372 0.428030 0.190414
v -0.470466 0.417347 0.199248
v -0.424294 0.387348 0.186944
v -0.461473 0.369484 0.199357
v -0.448928 0.356028 0.198630
v -0.433124 0.311480 0.209897
v -0.406538 0.309518 0.204906
v -0.448928 0.356028 0.198630
v -0.397214 0.367492 0.188231
v -0.424294 0.387348 0.186944
v -0.334255 0.356774 0.201537
v -0.397214 0.367492 0.188231
v -0.310282 0.291963 0.221209
v -0.406538 0.309518 0.204906
v -0.370071 0.263858 0.221361
v -0.323503 0.265167 0.226973
v -0.264188 0.251516 0.249707
v -0.262893 0.287565 0.242789
v -0.310282 0.291963 0.221209
v -0.334255 0.356774 0.201537
v -0.299525 0.366309 0.216844
v -0.231344 0.139074 0.317721
v -0.238231 0.182809 0.286833
v -0.279402 0.153306 0.300637
v -0.284877 0.199352 0.266906
v -0.304610 0.178054 0.280725
v -0.302629 0.199634 0.265724
v -0.370071 0.263858 0.221361
v -0.373799 0.230883 0.242709
v -0.323503 0.265167 0.226973
v -0.302629 0.199634 0.265724
v -0.284877 0.199352 0.266906
v -0.310282 0.291963 0.221209
v -0.323503 0.265167 0.226973
v -0.264188 0.251516 0.249707
v -0.284877 0.199352 0.266906
v -0.217628 0.203162 0.285657
v -0.238231 0.182809 0.286833
v -0.379591 0.200865 0.270436
v -0.314158 0.169030 0.290439
v -0.377047 0.229961 0.244155
v -0.373799 0.230883 0.242709
v -0.304610 0.178054 0.280725
v -0.302629 0.199634 0.265724
v -0.433124 0.311480 0.209897
v -0.408654 0.257778 0.234003
v -0.406538 0.309518 0.204906
v -0.370071 0.263858 0.221361
v -0.373799 0.230883 0.242709
v -0.377047 0.229961 0.244155
v -0.299525 0.366309 0.216844
v -0.333543 0.405824 0.208362
v -0.334255 0.356774 0.201537
v -0.376914 0.427522 0.197316
v -0.397214 0.367492 0.188231
v -0.424294 0.387348 0.186944
v -0.217628 0.203162 0.285657
v -0.198012 0.238982 0.288334
v -0.264188 0.251516 0.249707
v -0.262893 0.287565 0.242789
v -0.224330 0.284442 0.265703
v -0.379591 0.200865 0.270436
v -0.377047 0.229961 0.244155
v -0.395757 0.198008 0.283927
v -0.427765 0.254381 0.247711
v -0.408654 0.257778 0.234003
v -0.433124 0.311480 0.209897
v -0.455843 0.308679 0.224639
v -0.408654 0.257778 0.234003
v -0.427765 0.254381 0.247711
v -0.116029 0.190990 0.570130
v -0.140567 0.244912 0.545072
v -0.096298 0.184101 0.550150
v -0.114398 0.238929 0.512409
v -0.133295 0.263394 0.509726
v -0.066490 0.113837 0.517888
v -0.071071 0.101745 0.557140
v -0.096298 0.184101 0.550150
v -0.114691 0.120541 0.595350
v -0.116029 0.190990 0.570130
v -0.217628 0.203162 0.285657
v -0.196060 0.182321 0.305926
v -0.198012 0.238982 0.288334
v -0.166339 0.188557 0.321758
v -0.180195 0.240090 0.300939
v -0.180195 0.240090 0.300939
v -0.188368 0.282559 0.295215
v -0.198012 0.238982 0.288334
v -0.224330 0.284442 0.265703
v -0.223009 0.322275 0.267316
v 0.136940 0.270006 0.505252
v 0.201759 0.386997 0.443582
v 0.215212 0.376518 0.486072
v 0.209398 0.379621 0.303588
v 0.199985 0.388156 0.348542
v 0.192095 0.347503 0.314407
v 0.199985 0.388156 0.348542
v 0.201759 0.386997 0.443582
v 0.140969 0.305576 0.432693
v 0.201747 0.239257 0.285780
v 0.167102 0.188135 0.321358
v 0.197984 0.184063 0.304152
v 0.498725 0.454238 0.297617
v 0.494300 0.434923 0.221840
v 0.503832 0.396018 0.229962
v 0.440883 0.331836 0.454680
v 0.400813 0.388573 0.462511
v 0.471845 0.419117 0.381367
v 0.378726 0.200353 0.270801
v 0.313397 0.159703 0.299219
v 0.325826 0.140259 0.326404
v 0.275624 0.148713 0.304876
v 0.230663 0.138423 0.318373
v 0.208407 0.110309 0.347813
v 0.408307 0.167202 0.362995
v 0.326697 0.103195 0.416694
v 0.388752 0.156214 0.388740
v 0.353519 0.444114 0.215299
v 0.333223 0.417746 0.213722
v 0.375800 0.431054 0.198643
v 0.498725 0.454238 0.297617
v 0.480392 0.472171 0.243654
v 0.494300 0.434923 0.221840
v 0.429176 0.433858 0.191096
v 0.375800 0.431054 0.198643
v 0.413415 0.388714 0.186431
v 0.333223 0.417746 0.213722
v 0.279338 0.386846 0.235094
v 0.285407 0.362593 0.225561
v 0.302984 0.175526 0.282757
v 0.275624 0.148713 0.304876
v 0.313397 0.159703 0.299219
v 0.215212 0.376518 0.486072
v 0.241496 0.362476 0.511421
v 0.136940 0.270006 0.505252
v 0.136654 0.239638 0.547567
v 0.154594 0.235676 0.559655
v 0.174769 0.038372 0.532833
v 0.114937 0.038278 0.520299
v 0.167249 0.061028 0.570970
v 0.071956 0.101994 0.559482
v 0.112623 0.115594 0.594248
v 0.411056 0.301212 0.486520
v 0.379043 0.348039 0.499601
v 0.440883 0.331836 0.454680
v 0.400813 0.388573 0.462511
v 0.406319 0.255272 0.485529
v 0.364491 0.248647 0.516693
v 0.411056 0.301212 0.486520
v 0.339227 0.330395 0.524512
v 0.379043 0.348039 0.499601
v 0.286538 0.338940 0.531807
v 0.339227 0.330395 0.524512
v 0.214304 0.190322 0.579259
v 0.364491 0.248647 0.516693
v 0.320095 0.169598 0.541731
v 0.246666 0.154510 0.577437
v 0.161413 0.182926 0.588087
v 0.154594 0.235676 0.559655
v 0.214304 0.190322 0.579259
v 0.286538 0.338940 0.531807
v 0.241496 0.362476 0.511421
v 0.174769 0.038372 0.532833
v 0.167249 0.061028 0.570970
v 0.199879 0.044321 0.529439
v 0.212391 0.084956 0.571507
v 0.243433 0.073201 0.538646
v 0.256437 0.089844 0.547853
v 0.320095 0.169598 0.541731
v 0.303586 0.122400 0.538266
v 0.246666 0.154510 0.577437
v 0.256437 0.089844 0.547853
v 0.212391 0.084956 0.571507
v 0.214304 0.190322 0.579259
v 0.246666 0.154510 0.577437
v 0.161413 0.182926 0.588087
v 0.212391 0.084956 0.571507
v 0.112623 0.115594 0.594248
v 0.167249 0.061028 0.570970
v 0.330167 0.124552 0.509278
v 0.308459 0.088185 0.485841
v 0.303586 0.122400 0.538266
v 0.280377 0.078451 0.505499
v 0.243433 0.073201 0.538646
v 0.256437 0.089844 0.547853
v 0.406319 0.255272 0.485529
v 0.370194 0.185293 0.505347
v 0.364491 0.248647 0.516693
v 0.320095 0.169598 0.541731
v 0.303586 0.122400 0.538266
v 0.330167 0.124552 0.509278
v 0.241496 0.362476 0.511421
v 0.290190 0.391736 0.492534
v 0.286538 0.338940 0.531807
v 0.322151 0.396178 0.485168
v 0.339227 0.330395 0.524512
v 0.379043 0.348039 0.499601
v 0.112623 0.115594 0.594248
v 0.097932 0.186668 0.550143
v 0.161413 0.182926 0.588087
v 0.154594 0.235676 0.559655
v 0.136654 0.239638 0.547567
v 0.308459 0.088185 0.485841
v 0.330167 0.124552 0.509278
v 0.350301 0.138278 0.492161
v 0.382609 0.175653 0.476611
v 0.370194 0.185293 0.505347
v 0.241496 0.362476 0.511421
v 0.215212 0.376518 0.486072
v 0.290190 0.391736 0.492534
v 0.220303 0.404141 0.441202
v 0.379043 0.348039 0.499601
v 0.322151 0.396178 0.485168
v 0.400813 0.388573 0.462511
v 0.387677 0.437332 0.427984
v 0.280377 0.078451 0.505499
v 0.236864 0.053730 0.509743
v 0.243433 0.073201 0.538646
v 0.199879 0.044321 0.529439
v 0.089001 0.184278 0.523769
v 0.120366 0.252760 0.503504
v 0.097932 0.186668 0.550143
v 0.136654 0.239638 0.547567
v 0.136940 0.270006 0.505252
v 0.112623 0.115594 0.594248
v 0.071956 0.101994 0.559482
v 0.097932 0.186668 0.550143
v 0.065311 0.108529 0.512421
v 0.089001 0.184278 0.523769
v 0.209398 0.379621 0.303588
v 0.192095 0.347503 0.314407
v 0.235027 0.367035 0.265874
v 0.228073 0.329425 0.263255
v 0.194543 0.280476 0.289827
v 0.170531 0.265563 0.309817
v 0.161310 0.099526 0.375941
v 0.195114 0.138199 0.330667
v 0.153762 0.134752 0.354798
v 0.197984 0.184063 0.304152
v 0.167102 0.188135 0.321358
v 0.120366 0.252760 0.503504
v 0.140969 0.305576 0.432693
v 0.136940 0.270006 0.505252
v 0.201759 0.386997 0.443582
v 0.089001 0.184278 0.523769
v 0.082085 0.194659 0.454497
v 0.120366 0.252760 0.503504
v 0.123704 0.288290 0.405883
v 0.140969 0.305576 0.432693
v 0.140806 0.291359 0.360327
v 0.123704 0.288290 0.405883
v 0.117968 0.211079 0.365786
v 0.082085 0.194659 0.454497
v 0.075564 0.150091 0.439558
v 0.102191 0.171744 0.390195
v 0.150672 0.212356 0.329417
v 0.170531 0.265563 0.309817
v 0.117968 0.211079 0.365786
v 0.140806 0.291359 0.360327
v 0.192095 0.347503 0.314407
v 0.153762 0.134752 0.354798
v 0.113704 0.126999 0.391443
v 0.161310 0.099526 0.375941
v 0.140081 0.072481 0.414628
v 0.114929 0.083315 0.422227
v 0.104596 0.093268 0.424450
v 0.075564 0.150091 0.439558
v 0.079485 0.086029 0.463070
v 0.102191 0.171744 0.390195
v 0.104596 0.093268 0.424450
v 0.113704 0.126999 0.391443
v 0.117968 0.211079 0.365786
v 0.102191 0.171744 0.390195
v 0.150672 0.212356 0.329417
v 0.113704 0.126999 0.391443
v 0.167102 0.188135 0.321358
v 0.153762 0.134752 0.354798
v 0.076129 0.076054 0.484637
v 0.120852 0.050933 0.462161
v 0.079485 0.086029 0.463070
v 0.114929 0.083315 0.422227
v 0.104596 0.093268 0.424450
v 0.089001 0.184278 0.523769
v 0.065311 0.108529 0.512421
v 0.082085 0.194659 0.454497
v 0.075564 0.150091 0.439558
v 0.079485 0.086029 0.463070
v 0.076129 0.076054 0.484637
v 0.192095 0.347503 0.314407
v 0.199985 0.388156 0.348542
v 0.140806 0.291359 0.360327
v 0.123704 0.288290 0.405883
v 0.140969 0.305576 0.432693
v 0.167102 0.188135 0.321358
v 0.201747 0.239257 0.285780
v 0.150672 0.212356 0.329417
v 0.170531 0.265563 0.309817
v 0.194543 0.280476 0.289827
v 0.120852 0.050933 0.462161
v 0.076129 0.076054 0.484637
v 0.114937 0.038278 0.520299
v 0.071956 0.101994 0.559482
v 0.065311 0.108529 0.512421
v 0.146009 0.039054 0.469505
v 0.142425 0.064126 0.424973
v 0.120852 0.050933 0.462161
v 0.140081 0.072481 0.414628
v 0.114929 0.083315 0.422227
v 0.229947 0.254194 0.264927
v 0.241325 0.301448 0.254741
v 0.201747 0.239257 0.285780
v 0.194543 0.280476 0.289827
v 0.228073 0.329425 0.263255
v 0.471845 0.419117 0.381367
v 0.491020 0.387382 0.371212
v 0.440883 0.331836 0.454680
v 0.453900 0.306578 0.442759
v 0.469439 0.293504 0.413118
v 0.388752 0.156214 0.388740
v 0.350301 0.138278 0.492161
v 0.419241 0.188193 0.400064
v 0.382609 0.175653 0.476611
v 0.427305 0.218586 0.438543
v 0.482697 0.347353 0.222551
v 0.503832 0.396018 0.229962
v 0.468367 0.374855 0.202118
v 0.473604 0.421734 0.200740
v 0.494300 0.434923 0.221840
v 0.469195 0.301916 0.240827
v 0.488236 0.310397 0.259223
v 0.482697 0.347353 0.222551
v 0.512712 0.374921 0.262651
v 0.503832 0.396018 0.229962
v 0.511335 0.377727 0.326821
v 0.512712 0.374921 0.262651
v 0.486174 0.284940 0.361382
v 0.488236 0.310397 0.259223
v 0.473827 0.265369 0.294487
v 0.472555 0.251682 0.348619
v 0.462638 0.256068 0.406686
v 0.469439 0.293504 0.413118
v 0.486174 0.284940 0.361382
v 0.511335 0.377727 0.326821
v 0.491020 0.387382 0.371212
v 0.388752 0.156214 0.388740
v 0.419241 0.188193 0.400064
v 0.408307 0.167202 0.362995
v 0.436999 0.200400 0.366856
v 0.412926 0.171478 0.354805
v 0.420707 0.180965 0.351164
v 0.473827 0.265369 0.294487
v 0.442304 0.218214 0.310352
v 0.472555 0.251682 0.348619
v 0.420707 0.180965 0.351164
v 0.436999 0.200400 0.366856
v 0.486174 0.284940 0.361382
v 0.472555 0.251682 0.348619
v 0.462638 0.256068 0.406686
v 0.436999 0.200400 0.366856
v 0.427305 0.218586 0.438543
v 0.419241 0.188193 0.400064
v 0.428059 0.211037 0.298166
v 0.400121 0.167594 0.334125
v 0.442304 0.218214 0.310352
v 0.412926 0.171478 0.354805
v 0.420707 0.180965 0.351164
v 0.469195 0.301916 0.240827
v 0.443600 0.250962 0.263555
v 0.488236 0.310397 0.259223
v 0.473827 0.265369 0.294487
v 0.442304 0.218214 0.310352
v 0.428059 0.211037 0.298166
v 0.491020 0.387382 0.371212
v 0.498725 0.454238 0.297617
v 0.511335 0.377727 0.326821
v 0.512712 0.374921 0.262651
v 0.503832 0.396018 0.229962
v 0.427305 0.218586 0.438543
v 0.425920 0.249004 0.463621
v 0.462638 0.256068 0.406686
v 0.469439 0.293504 0.413118
v 0.453900 0.306578 0.442759
v 0.400121 0.167594 0.334125
v 0.428059 0.211037 0.298166
v 0.396326 0.191976 0.291223
v 0.425829 0.245042 0.254707
v 0.443600 0.250962 0.263555
v 0.471845 0.419117 0.381367
v 0.468669 0.454170 0.351116
v 0.491020 0.387382 0.371212
v 0.498725 0.454238 0.297617
v 0.400121 0.167594 0.334125
v 0.391643 0.162235 0.334793
v 0.412926 0.171478 0.354805
v 0.408307 0.167202 0.362995
v 0.376077 0.151269 0.349193
v 0.391643 0.162235 0.334793
v 0.325826 0.140259 0.326404
v 0.400121 0.167594 0.334125
v 0.396326 0.191976 0.291223
v 0.378726 0.200353 0.270801
v 0.308459 0.088185 0.485841
v 0.350301 0.138278 0.492161
v 0.307998 0.085890 0.479277
v 0.388752 0.156214 0.388740
v 0.326697 0.103195 0.416694
v 0.168753 0.088148 0.383943
v 0.208407 0.110309 0.347813
v 0.161310 0.099526 0.375941
v 0.195114 0.138199 0.330667
v 0.230663 0.138423 0.318373
v 0.142425 0.064126 0.424973
v 0.182135 0.059432 0.416750
v 0.168753 0.088148 0.383943
v 0.226456 0.092189 0.364884
v 0.208407 0.110309 0.347813
v 0.276325 0.111575 0.345453
v 0.226456 0.092189 0.364884
v 0.279069 0.078734 0.405571
v 0.182135 0.059432 0.416750
v 0.197910 0.043591 0.448608
v 0.266673 0.066916 0.428560
v 0.315816 0.096750 0.411132
v 0.376077 0.151269 0.349193
v 0.279069 0.078734 0.405571
v 0.276325 0.111575 0.345453
v 0.325826 0.140259 0.326404
v 0.308459 0.088185 0.485841
v 0.307998 0.085890 0.479277
v 0.280377 0.078451 0.505499
v 0.276567 0.066882 0.464119
v 0.236864 0.053730 0.509743
v 0.233244 0.048780 0.492076
v 0.197910 0.043591 0.448608
v 0.189271 0.036076 0.479472
v 0.266673 0.066916 0.428560
v 0.233244 0.048780 0.492076
v 0.276567 0.066882 0.464119
v 0.279069 0.078734 0.405571
v 0.266673 0.066916 0.428560
v 0.315816 0.096750 0.411132
v 0.276567 0.066882 0.464119
v 0.326697 0.103195 0.416694
v 0.307998 0.085890 0.479277
v 0.164058 0.031718 0.491311
v 0.174769 0.038372 0.532833
v 0.189271 0.036076 0.479472
v 0.199879 0.044321 0.529439
v 0.236864 0.053730 0.509743
v 0.233244 0.048780 0.492076
v 0.142425 0.064126 0.424973
v 0.146009 0.039054 0.469505
v 0.182135 0.059432 0.416750
v 0.197910 0.043591 0.448608
v 0.189271 0.036076 0.479472
v 0.164058 0.031718 0.491311
v 0.325826 0.140259 0.326404
v 0.313397 0.159703 0.299219
v 0.276325 0.111575 0.345453
v 0.275624 0.148713 0.304876
v 0.226456 0.092189 0.364884
v 0.208407 0.110309 0.347813
v 0.142425 0.064126 0.424973
v 0.168753 0.088148 0.383943
v 0.140081 0.072481 0.414628
v 0.161310 0.099526 0.375941
v 0.326697 0.103195 0.416694
v 0.408307 0.167202 0.362995
v 0.315816 0.096750 0.411132
v 0.376077 0.151269 0.349193
v 0.391643 0.162235 0.334793
v 0.174769 0.038372 0.532833
v 0.164058 0.031718 0.491311
v 0.114937 0.038278 0.520299
v 0.120852 0.050933 0.462161
v 0.146009 0.039054 0.469505
v 0.400813 0.388573 0.462511
v 0.387677 0.437332 0.427984
v 0.471845 0.419117 0.381367
v 0.468669 0.454170 0.351116
v 0.441835 0.475581 0.349779
v 0.480392 0.472171 0.243654
v 0.435691 0.471809 0.212744
v 0.494300 0.434923 0.221840
v 0.473604 0.421734 0.200740
v 0.429176 0.433858 0.191096
v 0.206398 0.405835 0.397943
v 0.220303 0.404141 0.441202
v 0.201759 0.386997 0.443582
v 0.215212 0.376518 0.486072
v 0.217830 0.413322 0.354859
v 0.247851 0.439791 0.353384
v 0.206398 0.405835 0.397943
v 0.266100 0.439554 0.412562
v 0.220303 0.404141 0.441202
v 0.345714 0.460058 0.408547
v 0.266100 0.439554 0.412562
v 0.391517 0.498290 0.314603
v 0.247851 0.439791 0.353384
v 0.296017 0.463531 0.298958
v 0.372953 0.496353 0.286359
v 0.437085 0.497161 0.298080
v 0.441835 0.475581 0.349779
v 0.391517 0.498290 0.314603
v 0.345714 0.460058 0.408547
v 0.387677 0.437332 0.427984
v 0.429176 0.433858 0.191096
v 0.435691 0.471809 0.212744
v 0.375800 0.431054 0.198643
v 0.390962 0.478601 0.228033
v 0.353519 0.444114 0.215299
v 0.359110 0.456535 0.221729
v 0.296017 0.463531 0.298958
v 0.304973 0.443388 0.251395
v 0.372953 0.496353 0.286359
v 0.359110 0.456535 0.221729
v 0.390962 0.478601 0.228033
v 0.480392 0.472171 0.243654
v 0.437085 0.497161 0.298080
v 0.435691 0.471809 0.212744
v 0.390962 0.478601 0.228033
v 0.372953 0.496353 0.286359
v 0.391517 0.498290 0.314603
v 0.279338 0.386846 0.235094
v 0.333223 0.417746 0.213722
v 0.276448 0.424770 0.262662
v 0.304973 0.443388 0.251395
v 0.353519 0.444114 0.215299
v 0.359110 0.456535 0.221729
v 0.217830 0.413322 0.354859
v 0.234517 0.407622 0.298142
v 0.247851 0.439791 0.353384
v 0.296017 0.463531 0.298958
v 0.304973 0.443388 0.251395
v 0.276448 0.424770 0.262662
v 0.387677 0.437332 0.427984
v 0.322151 0.396178 0.485168
v 0.345714 0.460058 0.408547
v 0.290190 0.391736 0.492534
v 0.266100 0.439554 0.412562
v 0.220303 0.404141 0.441202
v 0.217830 0.413322 0.354859
v 0.206398 0.405835 0.397943
v 0.199985 0.388156 0.348542
v 0.201759 0.386997 0.443582
v 0.480392 0.472171 0.243654
v 0.498725 0.454238 0.297617
v 0.437085 0.497161 0.298080
v 0.441835 0.475581 0.349779
v 0.468669 0.454170 0.351116
v 0.279338 0.386846 0.235094
v 0.276448 0.424770 0.262662
v 0.235027 0.367035 0.265874
v 0.209398 0.379621 0.303588
v 0.234517 0.407622 0.298142
v 0.234517 0.407622 0.298142
v 0.217830 0.413322 0.354859
v 0.209398 0.379621 0.303588
v 0.199985 0.388156 0.348542
v 0.427097 0.345321 0.194432
v 0.456980 0.346593 0.205328
v 0.413415 0.388714 0.186431
v 0.468367 0.374855 0.202118
v 0.473604 0.421734 0.200740
v 0.429176 0.433858 0.191096
v 0.378726 0.200353 0.270801
v 0.396326 0.191976 0.291223
v 0.378340 0.215448 0.257068
v 0.425829 0.245042 0.254707
v 0.412511 0.260086 0.234090
v 0.279338 0.386846 0.235094
v 0.235027 0.367035 0.265874
v 0.285407 0.362593 0.225561
v 0.228073 0.329425 0.263255
v 0.241325 0.301448 0.254741
v 0.229947 0.254194 0.264927
v 0.270110 0.281966 0.240493
v 0.241325 0.301448 0.254741
v 0.315450 0.349154 0.208518
v 0.285407 0.362593 0.225561
v 0.366762 0.370952 0.192131
v 0.315450 0.349154 0.208518
v 0.380438 0.310970 0.201442
v 0.270110 0.281966 0.240493
v 0.293083 0.239813 0.244988
v 0.361084 0.270650 0.218099
v 0.405162 0.292793 0.211406
v 0.427097 0.345321 0.194432
v 0.380438 0.310970 0.201442
v 0.366762 0.370952 0.192131
v 0.413415 0.388714 0.186431
v 0.378726 0.200353 0.270801
v 0.378340 0.215448 0.257068
v 0.313397 0.159703 0.299219
v 0.368909 0.228347 0.244558
v 0.302984 0.175526 0.282757
v 0.299734 0.190797 0.271793
v 0.293083 0.239813 0.244988
v 0.269605 0.197338 0.271417
v 0.361084 0.270650 0.218099
v 0.299734 0.190797 0.271793
v 0.368909 0.228347 0.244558
v 0.380438 0.310970 0.201442
v 0.361084 0.270650 0.218099
v 0.405162 0.292793 0.211406
v 0.368909 0.228347 0.244558
v 0.412511 0.260086 0.234090
v 0.378340 0.215448 0.257068
v 0.230663 0.138423 0.318373
v 0.275624 0.148713 0.304876
v 0.238285 0.182929 0.286749
v 0.269605 0.197338 0.271417
v 0.302984 0.175526 0.282757
v 0.299734 0.190797 0.271793
v 0.229947 0.254194 0.264927
v 0.220595 0.204934 0.283701
v 0.270110 0.281966 0.240493
v 0.293083 0.239813 0.244988
v 0.269605 0.197338 0.271417
v 0.238285 0.182929 0.286749
v 0.413415 0.388714 0.186431
v 0.375800 0.431054 0.198643
v 0.366762 0.370952 0.192131
v 0.333223 0.417746 0.213722
v 0.315450 0.349154 0.208518
v 0.285407 0.362593 0.225561
v 0.412511 0.260086 0.234090
v 0.456389 0.309847 0.224246
v 0.405162 0.292793 0.211406
v 0.427097 0.345321 0.194432
v 0.456980 0.346593 0.205328
v 0.230663 0.138423 0.318373
v 0.238285 0.182929 0.286749
v 0.195114 0.138199 0.330667
v 0.197984 0.184063 0.304152
v 0.220595 0.204934 0.283701
v 0.229947 0.254194 0.264927
v 0.201747 0.239257 0.285780
v 0.220595 0.204934 0.283701
v 0.197984 0.184063 0.304152
v 0.406319 0.255272 0.485529
v 0.411056 0.301212 0.486520
v 0.425920 0.249004 0.463621
v 0.453900 0.306578 0.442759
v 0.440883 0.331836 0.454680
v 0.427305 0.218586 0.438543
v 0.382609 0.175653 0.476611
v 0.425920 0.249004 0.463621
v 0.370194 0.185293 0.505347
v 0.406319 0.255272 0.485529
v 0.412511 0.260086 0.234090
v 0.425829 0.245042 0.254707
v 0.456389 0.309847 0.224246
v 0.443600 0.250962 0.263555
v 0.469195 0.301916 0.240827
v 0.469195 0.301916 0.240827
v 0.482697 0.347353 0.222551
v 0.456389 0.309847 0.224246
v 0.456980 0.346593 0.205328
v 0.468367 0.374855 0.202118
vt 0.918798 0.115675
vt 0.919856 0.179201
vt 0.852637 0.145730
vt 0.931226 0.114712
vt 0.976893 0.046646
vt 0.977209 0.107030
vt 0.891932 0.189518
vt 0.937104 0.191105
vt 0.939342 0.271719
vt 0.347171 0.978798
vt 0.356292 0.947830
vt 0.405461 0.983653
vt 0.351046 0.871186
vt 0.355719 0.915724
vt 0.270369 0.920145
vt 0.173956 0.888708
vt 0.102476 0.884992
vt 0.131792 0.817461
vt 0.477256 0.430091
vt 0.434690 0.386361
vt 0.485032 0.385676
vt 0.926112 0.509229
vt 0.925868 0.464146
vt 0.983642 0.461888
vt 0.116765 0.391657
vt 0.139774 0.364022
vt 0.171062 0.397072
vt 0.336134 0.437650
vt 0.290016 0.437337
vt 0.314739 0.413745
vt 0.973135 0.605888
vt 0.940172 0.634714
vt 0.891932 0.602513
vt 0.140688 0.327176
vt 0.091759 0.300581
vt 0.135387 0.286327
vt 0.233214 0.048527
vt 0.232861 0.009886
vt 0.282636 0.007812
vt 0.534653 0.146414
vt 0.488273 0.146728
vt 0.512816 0.122588
vt 0.384555 0.924605
vt 0.429088 0.872533
vt 0.448571 0.907498
vt 0.366818 0.902541
vt 0.368506 0.875726
vt 0.123207 0.897548
vt 0.115166 0.947727
vt 0.088187 0.913052
vt 0.167451 0.939049
vt 0.167871 0.911815
vt 0.989441 0.208138
vt 0.950873 0.247360
vt 0.962679 0.199673
vt 0.975762 0.275944
vt 0.315278 0.732265
vt 0.269284 0.777173
vt 0.261439 0.726562
vt 0.342575 0.808559
vt 0.364426 0.769084
vt 0.194993 0.358595
vt 0.277737 0.251997
vt 0.285028 0.329856
vt 0.200696 0.215986
vt 0.148914 0.249927
vt 0.156098 0.333008
vt 0.267967 0.551870
vt 0.304096 0.613311
vt 0.256080 0.598848
vt 0.356116 0.527431
vt 0.377778 0.577960
vt 0.500677 0.899121
vt 0.456123 0.931617
vt 0.469737 0.894690
vt 0.488753 0.953171
vt 0.526313 0.924959
vt 0.524492 0.945773
vt 0.753187 0.439108
vt 0.685532 0.354022
vt 0.745889 0.357334
vt 0.665097 0.411459
vt 0.684721 0.455174
vt 0.152703 0.481100
vt 0.130265 0.411257
vt 0.168105 0.435370
vt 0.064515 0.431670
vt 0.101242 0.518624
vt 0.052465 0.480467
vt 0.911694 0.373232
vt 0.913355 0.318002
vt 0.933450 0.359129
vt 0.882423 0.324199
vt 0.857996 0.351637
vt 0.864858 0.371577
vt 0.249204 0.624703
vt 0.180416 0.591097
vt 0.235540 0.574942
vt 0.202475 0.659871
vt 0.144800 0.653754
vt 0.139984 0.621754
vt 0.084477 0.753393
vt 0.086932 0.812736
vt 0.047107 0.771928
vt 0.109329 0.813654
vt 0.141894 0.752273
vt 0.168182 0.775896
vt 0.770013 0.845966
vt 0.774467 0.906915
vt 0.731183 0.876761
vt 0.805852 0.860979
vt 0.810438 0.888646
vt 0.947331 0.040295
vt 0.895504 0.045268
vt 0.918230 0.007812
vt 0.930751 0.086544
vt 0.899730 0.083948
vt 0.842941 0.324379
vt 0.774049 0.324750
vt 0.793014 0.281510
vt 0.774680 0.367513
vt 0.855885 0.539936
vt 0.790124 0.531445
vt 0.860688 0.498996
vt 0.832338 0.578590
vt 0.421121 0.975652
vt 0.425468 0.927815
vt 0.456527 0.954890
vt 0.390038 0.948849
vt 0.271921 0.947208
vt 0.319364 0.977893
vt 0.270369 0.973026
vt 0.314171 0.929363
vt 0.338593 0.952430
vt 0.769231 0.922066
vt 0.711536 0.922677
vt 0.717636 0.891422
vt 0.718126 0.957847
vt 0.769053 0.947946
vt 0.144970 0.731971
vt 0.119656 0.663623
vt 0.164821 0.668241
vt 0.092083 0.742121
vt 0.062320 0.724921
vt 0.052465 0.693821
vt 0.052694 0.807102
vt 0.024604 0.859127
vt 0.007812 0.809220
vt 0.085360 0.869663
vt 0.096273 0.839913
vt 0.216613 0.844515
vt 0.233191 0.903621
vt 0.193567 0.865730
vt 0.275322 0.898516
vt 0.763589 0.013516
vt 0.717595 0.058424
vt 0.709750 0.007812
vt 0.790886 0.089810
vt 0.812737 0.050335
vt 0.328951 0.150422
vt 0.411695 0.043824
vt 0.418986 0.121683
vt 0.334653 0.007812
vt 0.282872 0.041754
vt 0.290055 0.124835
vt 0.504666 0.584521
vt 0.539563 0.646669
vt 0.491845 0.631253
vt 0.593283 0.561843
vt 0.613935 0.612793
vt 0.789913 0.437460
vt 0.852551 0.400007
vt 0.836978 0.444192
vt 0.784766 0.383681
vt 0.808831 0.364574
vt 0.833549 0.360629
vt 0.712128 0.334166
vt 0.644407 0.249133
vt 0.704767 0.252398
vt 0.624017 0.306586
vt 0.643675 0.350285
vt 0.279516 0.423924
vt 0.257078 0.354081
vt 0.294918 0.378194
vt 0.191328 0.374493
vt 0.228055 0.461448
vt 0.179278 0.423291
vt 0.883020 0.070688
vt 0.818702 0.070739
vt 0.874189 0.041275
vt 0.840836 0.124729
vt 0.865782 0.123455
vt 0.479611 0.638850
vt 0.410823 0.605245
vt 0.465947 0.589089
vt 0.432882 0.674018
vt 0.375207 0.667901
vt 0.370391 0.635901
vt 0.433866 0.114735
vt 0.507097 0.088732
vt 0.461219 0.159196
vt 0.425760 0.043328
vt 0.452119 0.007812
vt 0.769589 0.446218
vt 0.778530 0.520244
vt 0.724038 0.485988
vt 0.814134 0.462450
vt 0.821317 0.495906
vt 0.190313 0.777326
vt 0.222904 0.829007
vt 0.164989 0.842962
vt 0.251595 0.769812
vt 0.261202 0.804144
vt 0.952466 0.387952
vt 0.924808 0.434398
vt 0.918723 0.384117
vt 0.948058 0.451935
vt 0.972333 0.437689
vt 0.007812 0.966452
vt 0.056893 0.990415
vt 0.009308 0.991409
vt 0.046297 0.944440
vt 0.072403 0.963754
vt 0.354316 0.726715
vt 0.435083 0.746080
vt 0.420139 0.788569
vt 0.368357 0.695403
vt 0.398234 0.682441
vt 0.876413 0.216522
vt 0.825363 0.186443
vt 0.871125 0.172839
vt 0.813343 0.242884
vt 0.841922 0.258937
vt 0.910469 0.254853
vt 0.850851 0.273813
vt 0.888052 0.232126
vt 0.897660 0.305923
vt 0.862235 0.315413
vt 0.797032 0.249934
vt 0.752590 0.203489
vt 0.803278 0.196154
vt 0.720466 0.276460
vt 0.759719 0.298708
vt 0.007812 0.195752
vt 0.114410 0.278496
vt 0.036551 0.285787
vt 0.150422 0.201454
vt 0.116480 0.149673
vt 0.033399 0.156856
vt 0.556859 0.390262
vt 0.495418 0.426390
vt 0.509880 0.378374
vt 0.581297 0.478410
vt 0.530768 0.500073
vt 0.726485 0.793607
vt 0.665097 0.844762
vt 0.667275 0.798463
vt 0.708930 0.860983
vt 0.744954 0.817924
vt 0.748505 0.842641
vt 0.479334 0.739361
vt 0.564419 0.671706
vt 0.561107 0.732063
vt 0.506982 0.651271
vt 0.463268 0.670895
vt 0.447208 0.359392
vt 0.517051 0.336953
vt 0.492938 0.374794
vt 0.496639 0.271203
vt 0.409685 0.307930
vt 0.447842 0.259153
vt 0.624537 0.856953
vt 0.621584 0.792702
vt 0.653521 0.846803
vt 0.568648 0.817250
vt 0.571046 0.842113
vt 0.042981 0.673054
vt 0.076586 0.604267
vt 0.092741 0.659390
vt 0.007812 0.626325
vt 0.013930 0.568650
vt 0.045929 0.563834
vt 0.476286 0.168546
vt 0.494796 0.243993
vt 0.429332 0.191359
vt 0.548147 0.167552
vt 0.580878 0.197301
vt 0.812354 0.617558
vt 0.738327 0.626498
vt 0.772583 0.572007
vt 0.796121 0.662102
vt 0.762665 0.669285
vt 0.815025 0.114310
vt 0.763670 0.147517
vt 0.749044 0.089710
vt 0.822742 0.171501
vt 0.788990 0.185566
vt 0.019291 0.474412
vt 0.035167 0.540761
vt 0.007812 0.517465
vt 0.080300 0.524202
vt 0.944438 0.331952
vt 0.981326 0.286825
vt 0.991413 0.306449
vt 0.927654 0.309566
vt 0.670455 0.139586
vt 0.732426 0.197345
vt 0.700645 0.207104
vt 0.752429 0.185008
vt 0.739098 0.113857
vt 0.690486 0.099016
vt 0.822274 0.632685
vt 0.873176 0.664644
vt 0.823557 0.678052
vt 0.883859 0.617946
vt 0.857784 0.591282
vt 0.970317 0.531135
vt 0.925868 0.560299
vt 0.946826 0.517426
vt 0.971870 0.576074
vt 0.942271 0.593261
vt 0.688008 0.557549
vt 0.733021 0.604252
vt 0.681172 0.611730
vt 0.765610 0.531443
vt 0.726482 0.509155
vt 0.284577 0.160012
vt 0.178048 0.077550
vt 0.255766 0.070160
vt 0.141770 0.154334
vt 0.176022 0.206164
vt 0.258992 0.198940
vt 0.550290 0.332158
vt 0.612922 0.297317
vt 0.597294 0.345216
vt 0.527567 0.243634
vt 0.578538 0.222989
vt 0.398346 0.862628
vt 0.441776 0.811882
vt 0.435807 0.859458
vt 0.397700 0.795699
vt 0.361283 0.839009
vt 0.357888 0.814516
vt 0.689200 0.007812
vt 0.604370 0.075274
vt 0.607561 0.015144
vt 0.661805 0.096247
vt 0.705393 0.076033
vt 0.367287 0.312637
vt 0.297161 0.335184
vt 0.321205 0.297212
vt 0.317679 0.400787
vt 0.405539 0.364978
vt 0.366479 0.412664
vt 0.292446 0.811951
vt 0.273673 0.874849
vt 0.263225 0.821236
vt 0.310826 0.877166
vt 0.347035 0.853026
vt 0.345379 0.828597
vt 0.632082 0.129430
vt 0.597696 0.199299
vt 0.581150 0.143411
vt 0.667423 0.176465
vt 0.661322 0.234081
vt 0.629157 0.238804
vt 0.490879 0.574883
vt 0.492108 0.501321
vt 0.535814 0.548454
vt 0.441977 0.502916
vt 0.419492 0.581373
vt 0.384679 0.554435
vt 0.988524 0.938404
vt 0.965931 0.971800
vt 0.963376 0.925229
vt 0.992188 0.986505
vt 0.574291 0.857287
vt 0.561028 0.917659
vt 0.532926 0.886741
vt 0.609655 0.874457
vt 0.612634 0.903026
vt 0.919908 0.524470
vt 0.868712 0.536785
vt 0.886651 0.496322
vt 0.906874 0.582927
vt 0.878321 0.574165
vt 0.786864 0.738922
vt 0.706177 0.719788
vt 0.734337 0.679713
vt 0.773071 0.773052
vt 0.741728 0.785333
vt 0.912053 0.442547
vt 0.852637 0.442875
vt 0.890820 0.403386
vt 0.901469 0.477830
vt 0.852825 0.487835
vt 0.958017 0.739941
vt 0.990489 0.703781
vt 0.989040 0.751334
vt 0.961420 0.681902
vt 0.186109 0.712035
vt 0.231228 0.758725
vt 0.179278 0.766261
vt 0.263913 0.685793
vt 0.224662 0.663536
vt 0.150900 0.097803
vt 0.044229 0.015207
vt 0.122097 0.007812
vt 0.007812 0.092129
vt 0.042225 0.144128
vt 0.125341 0.136879
vt 0.530596 0.116867
vt 0.593394 0.082034
vt 0.577770 0.130075
vt 0.507920 0.028205
vt 0.559002 0.007812
vt 0.796666 0.840475
vt 0.852538 0.789201
vt 0.848488 0.836199
vt 0.808461 0.773143
vt 0.772215 0.816511
vt 0.768691 0.791785
vt 0.689274 0.624790
vt 0.604370 0.692413
vt 0.607492 0.632141
vt 0.661721 0.713152
vt 0.705457 0.693176
vt 0.074342 0.413992
vt 0.078853 0.313957
vt 0.115246 0.367612
vt 0.025895 0.400329
vt 0.007812 0.333862
vt 0.033224 0.296670
vt 0.452551 0.830756
vt 0.510979 0.884678
vt 0.453046 0.882984
vt 0.481481 0.820467
vt 0.537029 0.859750
vt 0.534556 0.835182
vt 0.617881 0.353850
vt 0.583414 0.423783
vt 0.566862 0.367925
vt 0.653399 0.401007
vt 0.647343 0.458749
vt 0.614976 0.463454
vt 0.298439 0.529230
vt 0.289983 0.455817
vt 0.343529 0.502913
vt 0.261940 0.456724
vt 0.226850 0.536000
vt 0.191781 0.509139
vt 0.016020 0.737257
vt 0.036048 0.688340
vt 0.040251 0.735880
vt 0.007812 0.663539
vt 0.663723 0.919747
vt 0.661688 0.859185
vt 0.703104 0.889130
vt 0.628195 0.904370
vt 0.624017 0.876380
vt 0.888359 0.779948
vt 0.940587 0.772055
vt 0.912456 0.804380
vt 0.905072 0.726724
vt 0.934130 0.733548
vt 0.666883 0.982215
vt 0.699675 0.936189
vt 0.699325 0.985158
vt 0.677073 0.929559
vt 0.883273 0.744044
vt 0.847983 0.685455
vt 0.874556 0.684652
vt 0.827875 0.704958
vt 0.824060 0.748675
vt 0.858459 0.771366
vt 0.953040 0.912973
vt 0.902648 0.907127
vt 0.934880 0.879688
vt 0.912809 0.955477
vt 0.940747 0.958135
vt 0.614659 0.966988
vt 0.623039 0.918787
vt 0.645019 0.945509
vt 0.578421 0.927063
vt 0.568648 0.952783
vt 0.621368 0.780294
vt 0.667362 0.735386
vt 0.675208 0.785997
vt 0.594071 0.704000
vt 0.572220 0.743475
vt 0.376479 0.156181
vt 0.293735 0.262779
vt 0.286444 0.184920
vt 0.370776 0.298790
vt 0.422558 0.264849
vt 0.415374 0.181768
vt 0.180137 0.576646
vt 0.144009 0.515205
vt 0.192024 0.529668
vt 0.091989 0.601084
vt 0.070326 0.550556
vt 0.023277 0.928587
vt 0.078479 0.897364
vt 0.066461 0.934801
vt 0.045531 0.875771
vt 0.007812 0.904344
vt 0.009560 0.883370
vt 0.272155 0.634570
vt 0.339810 0.719655
vt 0.279453 0.716343
vt 0.360245 0.662218
vt 0.340621 0.618504
vt 0.360787 0.436636
vt 0.383226 0.506480
vt 0.345385 0.482367
vt 0.448976 0.486067
vt 0.412248 0.399113
vt 0.461025 0.437270
vt 0.145342 0.023449
vt 0.205868 0.054223
vt 0.157668 0.066187
vt 0.166557 0.008209
vt 0.221558 0.027581
vt 0.213773 0.007812
vt 0.595439 0.507191
vt 0.664226 0.540797
vt 0.609103 0.556952
vt 0.642168 0.472023
vt 0.699843 0.478140
vt 0.704659 0.510140
vt 0.550783 0.809022
vt 0.556430 0.749939
vt 0.588493 0.790659
vt 0.516044 0.748014
vt 0.493041 0.809581
vt 0.466840 0.785571
vt 0.911801 0.855540
vt 0.850851 0.859994
vt 0.881005 0.816709
vt 0.896788 0.891379
vt 0.869120 0.895965
vt 0.823507 0.899523
vt 0.835636 0.951020
vt 0.800841 0.925862
vt 0.875803 0.910632
vt 0.873999 0.941451
vt 0.084615 0.988655
vt 0.138530 0.965422
vt 0.133433 0.989237
vt 0.085245 0.954988
vt 0.961515 0.124252
vt 0.938320 0.173700
vt 0.936584 0.126137
vt 0.984124 0.162389
vt 0.965219 0.188793
vt 0.211908 0.971411
vt 0.213598 0.911696
vt 0.243440 0.922672
vt 0.179278 0.920645
vt 0.186899 0.970249
vt 0.921435 0.715949
vt 0.921799 0.654258
vt 0.952863 0.664899
vt 0.886573 0.664290
vt 0.895589 0.715327
vt 0.960125 0.805504
vt 0.929440 0.852946
vt 0.934307 0.803952
vt 0.977970 0.847754
vt 0.954903 0.872175
s 1
f 3/1 2/2 1/3
f 6/4 5/5 4/6
f 9/7 8/8 7/9
f 12/10 11/11 10/12
f 15/13 14/14 13/15
f 18/16 17/17 16/18
f 21/19 20/20 19/21
f 24/22 23/23 22/24
f 27/25 26/26 25/27
f 30/28 29/29 28/30
f 33/31 32/32 31/33
f 36/34 35/35 34/36
f 39/37 38/38 37/39
f 42/40 41/41 40/42
f 45/43 44/44 43/45
f 46/46 44/44 45/43
f 47/47 44/44 46/46
f 50/48 49/49 48/50
f 50/48 51/51 49/49
f 52/52 51/51 50/48
f 55/53 54/54 53/55
f 55/53 56/56 54/54
f 59/57 58/58 57/59
f 59/57 60/60 58/58
f 59/57 61/61 60/60
f 64/62 63/63 62/64
f 64/62 65/65 63/63
f 64/62 66/66 65/65
f 67/67 66/66 64/62
f 70/68 69/69 68/70
f 71/71 69/69 70/68
f 71/71 72/72 69/69
f 75/73 74/74 73/75
f 75/73 76/76 74/74
f 77/77 76/76 75/73
f 78/78 76/76 77/77
f 81/79 80/80 79/81
f 81/79 82/82 80/80
f 82/82 81/79 83/83
f 86/84 85/85 84/86
f 86/84 87/87 85/85
f 88/88 87/87 86/84
f 89/89 87/87 88/88
f 92/90 91/91 90/92
f 92/90 93/93 91/91
f 92/90 94/94 93/93
f 94/94 92/90 95/95
f 98/96 97/97 96/98
f 99/99 97/97 98/96
f 100/100 97/97 99/99
f 101/101 97/97 100/100
f 104/102 103/103 102/104
f 105/105 103/103 104/102
f 105/105 104/102 106/106
f 105/105 106/106 107/107
f 110/108 109/109 108/110
f 111/111 109/109 110/108
f 111/111 112/112 109/109
f 115/113 114/114 113/115
f 116/116 114/114 115/113
f 117/117 114/114 116/116
f 120/118 119/119 118/120
f 120/118 121/121 119/119
f 124/122 123/123 122/124
f 124/122 125/125 123/123
f 128/126 127/127 126/128
f 128/126 129/129 127/127
f 132/130 131/131 130/132
f 133/133 131/131 132/130
f 134/134 131/131 133/133
f 137/135 136/136 135/137
f 137/135 138/138 136/136
f 139/139 138/138 137/135
f 142/140 141/141 140/142
f 143/143 141/141 142/140
f 144/144 141/141 143/143
f 145/145 141/141 144/144
f 148/146 147/147 146/148
f 148/146 149/149 147/147
f 150/150 149/149 148/146
f 153/151 152/152 151/153
f 153/151 154/154 152/152
f 157/155 156/156 155/157
f 157/155 158/158 156/156
f 157/155 159/159 158/158
f 162/160 161/161 160/162
f 162/160 163/163 161/161
f 162/160 164/164 163/163
f 165/165 164/164 162/160
f 168/166 167/167 166/168
f 169/169 167/167 168/166
f 169/169 170/170 167/167
f 173/171 172/172 171/173
f 174/174 172/172 173/171
f 175/175 172/172 174/174
f 176/176 172/172 175/175
f 179/177 178/178 177/179
f 179/177 180/180 178/178
f 180/180 179/177 181/181
f 184/182 183/183 182/184
f 184/182 185/185 183/183
f 186/186 185/185 184/182
f 187/187 185/185 186/186
f 190/188 189/189 188/190
f 190/188 191/191 189/189
f 191/191 190/188 192/192
f 195/193 194/194 193/195
f 196/196 194/194 195/193
f 197/197 194/194 196/196
f 198/198 194/194 197/197
f 201/199 200/200 199/201
f 202/202 200/200 201/199
f 200/200 202/202 203/203
f 206/204 205/205 204/206
f 207/207 205/205 206/204
f 207/207 208/208 205/205
f 211/209 210/210 209/211
f 212/212 210/210 211/209
f 213/213 210/210 212/212
f 216/214 215/215 214/216
f 216/214 217/217 215/215
f 218/218 217/217 216/214
f 221/219 220/220 219/221
f 222/222 220/220 221/219
f 223/223 220/220 222/222
f 226/224 225/225 224/226
f 227/227 225/225 226/224
f 228/228 225/225 227/227
f 231/229 230/230 229/231
f 231/229 232/232 230/230
f 233/233 232/232 231/229
f 236/234 235/235 234/236
f 237/237 235/235 236/234
f 235/235 237/237 238/238
f 241/239 240/240 239/241
f 241/239 242/242 240/240
f 241/239 243/243 242/242
f 246/244 245/245 244/246
f 246/244 247/247 245/245
f 246/244 248/248 247/247
f 249/249 248/248 246/244
f 252/250 251/251 250/252
f 253/253 251/251 252/250
f 253/253 254/254 251/251
f 257/255 256/256 255/257
f 257/255 258/258 256/256
f 259/259 258/258 257/255
f 260/260 258/258 259/259
f 263/261 262/262 261/263
f 263/261 264/264 262/262
f 264/264 263/261 265/265
f 268/266 267/267 266/268
f 268/266 269/269 267/267
f 270/270 269/269 268/266
f 271/271 269/269 270/270
f 274/272 273/273 272/274
f 274/272 275/275 273/273
f 275/275 274/272 276/276
f 279/277 278/278 277/279
f 280/280 278/278 279/277
f 281/281 278/278 280/280
f 282/282 278/278 281/281
f 285/283 284/284 283/285
f 286/286 284/284 285/283
f 284/284 286/286 287/287
f 290/288 289/289 288/290
f 291/291 289/289 290/288
f 291/291 292/292 289/289
f 295/293 294/294 293/295
f 296/296 294/294 295/293
f 297/297 294/294 296/296
f 300/298 299/299 298/300
f 300/298 301/301 299/299
f 304/302 303/303 302/304
f 304/302 305/305 303/303
f 308/306 307/307 306/308
f 307/307 308/306 309/309
f 309/309 308/306 310/310
f 310/310 308/306 311/311
f 314/312 313/313 312/314
f 314/312 315/315 313/313
f 316/316 315/315 314/312
f 319/317 318/318 317/319
f 320/320 318/318 319/317
f 318/318 320/320 321/321
f 324/322 323/323 322/324
f 324/322 325/325 323/323
f 324/322 326/326 325/325
f 329/327 328/328 327/329
f 329/327 330/330 328/328
f 329/327 331/331 330/330
f 332/332 331/331 329/327
f 335/333 334/334 333/335
f 336/336 334/334 335/333
f 336/336 337/337 334/334
f 340/338 339/339 338/340
f 340/338 341/341 339/339
f 342/342 341/341 340/338
f 343/343 341/341 342/342
f 346/344 345/345 344/346
f 346/344 347/347 345/345
f 347/347 346/344 348/348
f 351/349 350/350 349/351
f 351/349 352/352 350/350
f 353/353 352/352 351/349
f 354/354 352/352 353/353
f 357/355 356/356 355/357
f 357/355 358/358 356/356
f 357/355 359/359 358/358
f 359/359 357/355 360/360
f 363/361 362/362 361/363
f 364/364 362/362 363/361
f 365/365 362/362 364/364
f 366/366 362/362 365/365
f 369/367 368/368 367/369
f 370/370 368/368 369/367
f 370/370 369/367 371/371
f 370/370 371/371 372/372
f 375/373 374/374 373/375
f 375/373 376/376 374/374
f 379/377 378/378 377/379
f 380/380 378/378 379/377
f 380/380 381/381 378/378
f 384/382 383/383 382/384
f 385/385 383/383 384/382
f 386/386 383/383 385/385
f 389/387 388/388 387/389
f 390/390 388/388 389/387
f 391/391 388/388 390/390
f 394/392 393/393 392/394
f 395/395 393/393 394/392
f 393/393 395/395 396/396
f 399/397 398/398 397/399
f 399/397 400/400 398/398
f 403/401 402/402 401/403
f 403/401 404/404 402/402
f 403/401 405/405 404/404
f 408/406 407/407 406/408
f 408/406 409/409 407/407
f 408/406 410/410 409/409
f 411/411 410/410 408/406
f 414/412 413/413 412/414
f 415/415 413/413 414/412
f 415/415 416/416 413/413
f 419/417 418/418 417/419
f 419/417 420/420 418/418
f 421/421 420/420 419/417
f 422/422 420/420 421/421
f 425/423 424/424 423/425
f 425/423 426/426 424/424
f 426/426 425/423 427/427
f 430/428 429/429 428/430
f 431/431 429/429 430/428
f 432/432 429/429 431/431
f 432/432 433/433 429/429
f 436/434 435/435 434/436
f 437/437 435/435 436/434
f 437/437 438/438 435/435
f 438/438 437/437 439/439
f 442/440 441/441 440/442
f 443/443 441/441 442/440
f 444/444 441/441 443/443
f 445/445 441/441 444/444
f 448/446 447/447 446/448
f 449/449 447/447 448/446
f 449/449 448/446 450/450
f 449/449 450/450 451/451
f 454/452 453/453 452/454
f 454/452 455/455 453/453
f 458/456 457/457 456/458
f 459/459 457/457 458/456
f 459/459 460/460 457/457
f 463/461 462/462 461/463
f 464/464 462/462 463/461
f 465/465 462/462 464/464
f 468/466 467/467 466/468
f 468/466 469/469 467/467
f 472/470 471/471 470/472
f 472/470 473/473 471/471
f 472/470 474/474 473/473
f 475/475 474/474 472/470
f 478/476 477/477 476/478
f 478/476 479/479 477/477
f 480/480 479/479 478/476
f 483/481 482/482 481/483
f 483/481 484/484 482/482
f 485/485 484/484 483/481
f 488/486 487/487 486/488
f 488/486 489/489 487/487
f 488/486 490/490 489/489
f 493/491 492/492 491/493
f 493/491 494/494 492/492
f 493/491 495/495 494/494
f 496/496 495/495 493/491
f 499/497 498/498 497/499
f 500/500 498/498 499/497
f 500/500 501/501 498/498
f 504/502 503/503 502/504
f 504/502 505/505 503/503
f 506/506 505/505 504/502
f 507/507 505/505 506/506
f 510/508 509/509 508/510
f 510/508 511/511 509/509
f 511/511 510/508 512/512
f 515/513 514/514 513/515
f 515/513 516/516 514/514
f 517/517 516/516 515/513
f 518/518 516/516 517/517
f 521/519 520/520 519/521
f 522/522 520/520 521/519
f 522/522 523/523 520/520
f 523/523 522/522 524/524
f 527/525 526/526 525/527
f 528/528 526/526 527/525
f 529/529 526/526 528/528
f 530/530 526/526 529/529
f 533/531 532/532 531/533
f 534/534 532/532 533/531
f 534/534 533/531 535/535
f 534/534 535/535 536/536
f 539/537 538/538 537/539
f 540/540 538/538 539/537
f 540/540 541/541 538/538
f 544/542 543/543 542/544
f 545/545 543/543 544/542
f 546/546 543/543 545/545
f 549/547 548/548 547/549
f 549/547 550/550 548/548
f 553/551 552/552 551/553
f 554/554 552/552 553/551
f 554/554 555/555 552/552
f 558/556 557/557 556/558
f 558/556 559/559 557/557
f 558/556 560/560 559/559
f 563/561 562/562 561/563
f 563/561 564/564 562/562
f 564/564 563/561 565/565
f 568/566 567/567 566/568
f 569/569 567/567 568/566
f 570/570 567/567 569/569
f 573/1 572/2 571/3
f 576/4 575/5 574/6
f 579/7 578/8 577/9
f 582/10 581/11 580/12
f 585/13 584/14 583/15
f 588/16 587/17 586/18
f 591/19 590/20 589/21
f 594/22 593/23 592/24
f 597/25 596/26 595/27
f 600/28 599/29 598/30
f 603/31 602/32 601/33
f 606/34 605/35 604/36
f 609/37 608/38 607/39
f 612/40 611/41 610/42
f 615/43 614/44 613/45
f 616/46 614/44 615/43
f 617/47 614/44 616/46
f 620/48 619/49 618/50
f 620/48 621/51 619/49
f 622/52 621/51 620/48
f 625/53 624/54 623/55
f 625/53 626/56 624/54
f 629/57 628/58 627/59
f 629/57 630/60 628/58
f 629/57 631/61 630/60
f 634/62 633/63 632/64
f 634/62 635/65 633/63
f 634/62 636/66 635/65
f 637/67 636/66 634/62
f 640/68 639/69 638/70
f 641/71 639/69 640/68
f 641/71 642/72 639/69
f 645/73 644/74 643/75
f 645/73 646/76 644/74
f 647/77 646/76 645/73
f 648/78 646/76 647/77
f 651/79 650/80 649/81
f 651/79 652/82 650/80
f 652/82 651/79 653/83
f 656/84 655/85 654/86
f 656/84 657/87 655/85
f 658/88 657/87 656/84
f 659/89 657/87 658/88
f 662/90 661/91 660/92
f 662/90 663/93 661/91
f 662/90 664/94 663/93
f 664/94 662/90 665/95
f 668/96 667/97 666/98
f 669/99 667/97 668/96
f 670/100 667/97 669/99
f 671/101 667/97 670/100
f 674/102 673/103 672/104
f 675/105 673/103 674/102
f 675/105 674/102 676/106
f 675/105 676/106 677/107
f 680/108 679/109 678/110
f 681/111 679/109 680/108
f 681/111 682/112 679/109
f 685/113 684/114 683/115
f 686/116 684/114 685/113
f 687/117 684/114 686/116
f 690/118 689/119 688/120
f 690/118 691/121 689/119
f 694/122 693/123 692/124
f 694/122 695/125 693/123
f 698/126 697/127 696/128
f 698/126 699/129 697/127
f 702/130 701/131 700/132
f 703/133 701/131 702/130
f 704/134 701/131 703/133
f 707/135 706/136 705/137
f 707/135 708/138 706/136
f 709/139 708/138 707/135
f 712/140 711/141 710/142
f 713/143 711/141 712/140
f 714/144 711/141 713/143
f 715/145 711/141 714/144
f 718/146 717/147 716/148
f 718/146 719/149 717/147
f 720/150 719/149 718/146
f 723/151 722/152 721/153
f 723/151 724/154 722/152
f 727/155 726/156 725/157
f 727/155 728/158 726/156
f 727/155 729/159 728/158
f 732/160 731/161 730/162
f 732/160 733/163 731/161
f 732/160 734/164 733/163
f 735/165 734/164 732/160
f 738/166 737/167 736/168
f 739/169 737/167 738/166
f 739/169 740/170 737/167
f 743/171 742/172 741/173
f 744/174 742/172 743/171
f 745/175 742/172 744/174
f 746/176 742/172 745/175
f 749/177 748/178 747/179
f 749/177 750/180 748/178
f 750/180 749/177 751/181
f 754/182 753/183 752/184
f 754/182 755/185 753/183
f 756/186 755/185 754/182
f 757/187 755/185 756/186
f 760/188 759/189 758/190
f 760/188 761/191 759/189
f 761/191 760/188 762/192
f 765/193 764/194 763/195
f 766/196 764/194 765/193
f 767/197 764/194 766/196
f 768/198 764/194 767/197
f 771/199 770/200 769/201
f 772/202 770/200 771/199
f 770/200 772/202 773/203
f 776/204 775/205 774/206
f 777/207 775/205 776/204
f 777/207 778/208 775/205
f 781/209 780/210 779/211
f 782/212 780/210 781/209
f 783/213 780/210 782/212
f 786/214 785/215 784/216
f 786/214 787/217 785/215
f 788/218 787/217 786/214
f 791/219 790/220 789/221
f 792/222 790/220 791/219
f 793/223 790/220 792/222
f 796/224 795/225 794/226
f 797/227 795/225 796/224
f 798/228 795/225 797/227
f 801/229 800/230 799/231
f 801/229 802/232 800/230
f 803/233 802/232 801/229
f 806/234 805/235 804/236
f 807/237 805/235 806/234
f 805/235 807/237 808/238
f 811/239 810/240 809/241
f 811/239 812/242 810/240
f 811/239 813/243 812/242
f 816/244 815/245 814/246
f 816/244 817/247 815/245
f 816/244 818/248 817/247
f 819/249 818/248 816/244
f 822/250 821/251 820/252
f 823/253 821/251 822/250
f 823/253 824/254 821/251
f 827/255 826/256 825/257
f 827/255 828/258 826/256
f 829/259 828/258 827/255
f 830/260 828/258 829/259
f 833/261 832/262 831/263
f 833/261 834/264 832/262
f 834/264 833/261 835/265
f 838/266 837/267 836/268
f 838/266 839/269 837/267
f 840/270 839/269 838/266
f 841/271 839/269 840/270
f 844/272 843/273 842/274
f 844/272 845/275 843/273
f 845/275 844/272 846/276
f 849/277 848/278 847/279
f 850/280 848/278 849/277
f 851/281 848/278 850/280
f 852/282 848/278 851/281
f 855/283 854/284 853/285
f 856/286 854/284 855/283
f 854/284 856/286 857/287
f 860/288 859/289 858/290
f 861/291 859/289 860/288
f 861/291 862/292 859/289
f 865/293 864/294 863/295
f 866/296 864/294 865/293
f 867/297 864/294 866/296
f 870/298 869/299 868/300
f 870/298 871/301 869/299
f 874/302 873/303 872/304
f 874/302 875/305 873/303
f 878/306 877/307 876/308
f 877/307 878/306 879/309
f 879/309 878/306 880/310
f 880/310 878/306 881/311
f 884/312 883/313 882/314
f 884/312 885/315 883/313
f 886/316 885/315 884/312
f 889/317 888/318 887/319
f 890/320 888/318 889/317
f 888/318 890/320 891/321
f 894/322 893/323 892/324
f 894/322 895/325 893/323
f 894/322 896/326 895/325
f 899/327 898/328 897/329
f 899/327 900/330 898/328
f 899/327 901/331 900/330
f 902/332 901/331 899/327
f 905/333 904/334 903/335
f 906/336 904/334 905/333
f 906/336 907/337 904/334
f 910/338 909/339 908/340
f 910/338 911/341 909/339
f 912/342 911/341 910/338
f 913/343 911/341 912/342
f 916/344 915/345 914/346
f 916/344 917/347 915/345
f 917/347 916/344 918/348
f 921/349 920/350 919/351
f 921/349 922/352 920/350
f 923/353 922/352 921/349
f 924/354 922/352 923/353
f 927/355 926/356 925/357
f 927/355 928/358 926/356
f 927/355 929/359 928/358
f 929/359 927/355 930/360
f 933/361 932/362 931/363
f 934/364 932/362 933/361
f 935/365 932/362 934/364
f 936/366 932/362 935/365
f 939/367 938/368 937/369
f 940/370 938/368 939/367
f 940/370 939/367 941/371
f 940/370 941/371 942/372
f 945/373 944/374 943/375
f 945/373 946/376 944/374
f 949/377 948/378 947/379
f 950/380 948/378 949/377
f 950/380 951/381 948/378
f 954/382 953/383 952/384
f 955/385 953/383 954/382
f 956/386 953/383 955/385
f 959/387 958/388 957/389
f 960/390 958/388 959/387
f 961/391 958/388 960/390
f 964/392 963/393 962/394
f 965/395 963/393 964/392
f 963/393 965/395 966/396
f 969/397 968/398 967/399
f 969/397 970/400 968/398
f 973/401 972/402 971/403
f 973/401 974/404 972/402
f 973/401 975/405 974/404
f 978/406 977/407 976/408
f 978/406 979/409 977/407
f 978/406 980/410 979/409
f 981/411 980/410 978/406
f 984/412 983/413 982/414
f 985/415 983/413 984/412
f 985/415 986/416 983/413
f 989/417 988/418 987/419
f 989/417 990/420 988/418
f 991/421 990/420 989/417
f 992/422 990/420 991/421
f 995/423 994/424 993/425
f 995/423 996/426 994/424
f 996/426 995/423 997/427
f 1000/428 999/429 998/430
f 1001/431 999/429 1000/428
f 1002/432 999/429 1001/431
f 1002/432 1003/433 999/429
f 1006/434 1005/435 1004/436
f 1007/437 1005/435 1006/434
f 1007/437 1008/438 1005/435
f 1008/438 1007/437 1009/439
f 1012/440 1011/441 1010/442
f 1013/443 1011/441 1012/440
f 1014/444 1011/441 1013/443
f 1015/445 1011/441 1014/444
f 1018/446 1017/447 1016/448
f 1019/449 1017/447 1018/446
f 1019/449 1018/446 1020/450
f 1019/449 1020/450 1021/451
f 1024/452 1023/453 1022/454
f 1024/452 1025/455 1023/453
f 1028/456 1027/457 1026/458
f 1029/459 1027/457 1028/456
f 1029/459 1030/460 1027/457
f 1033/461 1032/462 1031/463
f 1034/464 1032/462 1033/461
f 1035/465 1032/462 1034/464
f 1038/466 1037/467 1036/468
f 1038/466 1039/469 1037/467
f 1042/470 1041/471 1040/472
f 1042/470 1043/473 1041/471
f 1042/470 1044/474 1043/473
f 1045/475 1044/474 1042/470
f 1048/476 1047/477 1046/478
f 1048/476 1049/479 1047/477
f 1050/480 1049/479 1048/476
f 1053/481 1052/482 1051/483
f 1053/481 1054/484 1052/482
f 1055/485 1054/484 1053/481
f 1058/486 1057/487 1056/488
f 1058/486 1059/489 1057/487
f 1058/486 1060/490 1059/489
f 1063/491 1062/492 1061/493
f 1063/491 1064/494 1062/492
f 1063/491 1065/495 1064/494
f 1066/496 1065/495 1063/491
f 1069/497 1068/498 1067/499
f 1070/500 1068/498 1069/497
f 1070/500 1071/501 1068/498
f 1074/502 1073/503 1072/504
f 1074/502 1075/505 1073/503
f 1076/506 1075/505 1074/502
f 1077/507 1075/505 1076/506
f 1080/508 1079/509 1078/510
f 1080/508 1081/511 1079/509
f 1081/511 1080/508 1082/512
f 1085/513 1084/514 1083/515
f 1085/513 1086/516 1084/514
f 1087/517 1086/516 1085/513
f 1088/518 1086/516 1087/517
f 1091/519 1090/520 1089/521
f 1092/522 1090/520 1091/519
f 1092/522 1093/523 1090/520
f 1093/523 1092/522 1094/524
f 1097/525 1096/526 1095/527
f 1098/528 1096/526 1097/525
f 1099/529 1096/526 1098/528
f 1100/530 1096/526 1099/529
f 1103/531 1102/532 1101/533
f 1104/534 1102/532 1103/531
f 1104/534 1103/531 1105/535
f 1104/534 1105/535 1106/536
f 1109/537 1108/538 1107/539
f 1110/540 1108/538 1109/537
f 1110/540 1111/541 1108/538
f 1114/542 1113/543 1112/544
f 1115/545 1113/543 1114/542
f 1116/546 1113/543 1115/545
f 1119/547 1118/548 1117/549
f 1119/547 1120/550 1118/548
f 1123/551 1122/552 1121/553
f 1124/554 1122/552 1123/551
f 1124/554 1125/555 1122/552
f 1128/556 1127/557 1126/558
f 1128/556 1129/559 1127/557
f 1128/556 1130/560 1129/559
f 1133/561 1132/562 1131/563
f 1133/561 1134/564 1132/562
f 1134/564 1133/561 1135/565
f 1138/566 1137/567 1136/568
f 1139/569 1137/567 1138/566
f 1140/570 1137/567 1139/569
