o mosaic_mesmer_pincers_LOD1
v -0.438469 0.322762 0.457754
v -0.462422 0.404743 0.401285
v -0.402306 0.383848 0.464943
v -0.502556 0.436984 0.239394
v -0.502244 0.439359 0.307366
v -0.509714 0.395684 0.244107
v -0.502244 0.439359 0.307366
v -0.462422 0.404743 0.401285
v -0.476143 0.363732 0.401425
v -0.455843 0.308679 0.224639
v -0.443894 0.253684 0.261158
v -0.427765 0.254381 0.247711
v -0.196324 0.380925 0.341827
v -0.218343 0.370994 0.285960
v -0.197159 0.326471 0.297091
v -0.133295 0.263394 0.509726
v -0.213746 0.374753 0.486840
v -0.191332 0.371067 0.435666
v -0.231344 0.139074 0.317721
v -0.279402 0.153306 0.300637
v -0.220940 0.112216 0.344180
v -0.314158 0.169030 0.290439
v -0.379591 0.200865 0.270436
v -0.339545 0.152799 0.317373
v -0.123397 0.067216 0.435213
v -0.131023 0.045457 0.463468
v -0.107609 0.047241 0.484545
v -0.355082 0.440435 0.212604
v -0.376914 0.427522 0.197316
v -0.333543 0.405824 0.208362
v -0.196324 0.380925 0.341827
v -0.223345 0.393862 0.298585
v -0.218343 0.370994 0.285960
v -0.279931 0.385828 0.234182
v -0.333543 0.405824 0.208362
v -0.299525 0.366309 0.216844
v -0.376914 0.427522 0.197316
v -0.432372 0.428030 0.190414
v -0.424294 0.387348 0.186944
v -0.304610 0.178054 0.280725
v -0.314158 0.169030 0.290439
v -0.279402 0.153306 0.300637
v -0.402306 0.383848 0.464943
v -0.368594 0.345700 0.506124
v -0.438469 0.322762 0.457754
v -0.419236 0.280863 0.479900
v -0.385184 0.275810 0.504641
v -0.308844 0.088897 0.486393
v -0.350688 0.138772 0.492349
v -0.325324 0.120070 0.511557
v -0.386424 0.180906 0.474238
v -0.371424 0.186588 0.504653
v -0.140567 0.244912 0.545072
v -0.231734 0.360955 0.506503
v -0.133295 0.263394 0.509726
v -0.213746 0.374753 0.486840
v -0.116029 0.190990 0.570130
v -0.164514 0.200966 0.580627
v -0.140567 0.244912 0.545072
v -0.254758 0.338225 0.522755
v -0.231734 0.360955 0.506503
v -0.314665 0.324178 0.537305
v -0.254758 0.338225 0.522755
v -0.323054 0.211950 0.540771
v -0.164514 0.200966 0.580627
v -0.197028 0.144343 0.594404
v -0.292024 0.159569 0.557333
v -0.357339 0.205168 0.518654
v -0.385184 0.275810 0.504641
v -0.323054 0.211950 0.540771
v -0.314665 0.324178 0.537305
v -0.368594 0.345700 0.506124
v -0.308844 0.088897 0.486393
v -0.325324 0.120070 0.511557
v -0.283376 0.083421 0.511577
v -0.299794 0.122823 0.542279
v -0.243817 0.075482 0.541644
v -0.252664 0.088723 0.549311
v -0.197028 0.144343 0.594404
v -0.191093 0.089135 0.583251
v -0.292024 0.159569 0.557333
v -0.252664 0.088723 0.549311
v -0.299794 0.122823 0.542279
v -0.323054 0.211950 0.540771
v -0.292024 0.159569 0.557333
v -0.357339 0.205168 0.518654
v -0.299794 0.122823 0.542279
v -0.371424 0.186588 0.504653
v -0.325324 0.120070 0.511557
v -0.157417 0.071719 0.582779
v -0.171402 0.039443 0.537705
v -0.191093 0.089135 0.583251
v -0.201460 0.047486 0.535293
v -0.243817 0.075482 0.541644
v -0.252664 0.088723 0.549311
v -0.116029 0.190990 0.570130
v -0.114691 0.120541 0.595350
v -0.164514 0.200966 0.580627
v -0.197028 0.144343 0.594404
v -0.191093 0.089135 0.583251
v -0.157417 0.071719 0.582779
v -0.368594 0.345700 0.506124
v -0.317714 0.386606 0.494898
v -0.314665 0.324178 0.537305
v -0.286700 0.387439 0.496470
v -0.254758 0.338225 0.522755
v -0.231734 0.360955 0.506503
v -0.371424 0.186588 0.504653
v -0.425638 0.249003 0.463956
v -0.357339 0.205168 0.518654
v -0.385184 0.275810 0.504641
v -0.419236 0.280863 0.479900
v -0.171402 0.039443 0.537705
v -0.157417 0.071719 0.582779
v -0.106849 0.040821 0.523055
v -0.071071 0.101745 0.557140
v -0.114691 0.120541 0.595350
v -0.368594 0.345700 0.506124
v -0.402306 0.383848 0.464943
v -0.317714 0.386606 0.494898
v -0.404327 0.431106 0.427473
v -0.231734 0.360955 0.506503
v -0.286700 0.387439 0.496470
v -0.213746 0.374753 0.486840
v -0.239499 0.408008 0.453607
v -0.201460 0.047486 0.535293
v -0.239252 0.055217 0.511079
v -0.243817 0.075482 0.541644
v -0.283376 0.083421 0.511577
v -0.443945 0.257932 0.441894
v -0.454504 0.307683 0.442091
v -0.425638 0.249003 0.463956
v -0.419236 0.280863 0.479900
v -0.438469 0.322762 0.457754
v -0.371424 0.186588 0.504653
v -0.386424 0.180906 0.474238
v -0.425638 0.249003 0.463956
v -0.430916 0.221407 0.435155
v -0.443945 0.257932 0.441894
v -0.502556 0.436984 0.239394
v -0.509714 0.395684 0.244107
v -0.470466 0.417347 0.199248
v -0.461473 0.369484 0.199357
v -0.479711 0.344211 0.221582
v -0.486649 0.337346 0.235128
v -0.401511 0.171671 0.329010
v -0.395757 0.198008 0.283927
v -0.425463 0.209128 0.297313
v -0.427765 0.254381 0.247711
v -0.443894 0.253684 0.261158
v -0.454504 0.307683 0.442091
v -0.476143 0.363732 0.401425
v -0.438469 0.322762 0.457754
v -0.462422 0.404743 0.401285
v -0.443945 0.257932 0.441894
v -0.470512 0.268058 0.396398
v -0.454504 0.307683 0.442091
v -0.498228 0.355258 0.363569
v -0.476143 0.363732 0.401425
v -0.515018 0.369801 0.292635
v -0.498228 0.355258 0.363569
v -0.494325 0.305724 0.283014
v -0.470512 0.268058 0.396398
v -0.461062 0.236594 0.376905
v -0.477653 0.262812 0.317001
v -0.481768 0.300222 0.260674
v -0.486649 0.337346 0.235128
v -0.494325 0.305724 0.283014
v -0.515018 0.369801 0.292635
v -0.509714 0.395684 0.244107
v -0.425463 0.209128 0.297313
v -0.446356 0.218403 0.320576
v -0.401511 0.171671 0.329010
v -0.406796 0.170334 0.340923
v -0.413259 0.171809 0.354668
v -0.424047 0.184504 0.353168
v -0.461062 0.236594 0.376905
v -0.431747 0.196734 0.379592
v -0.477653 0.262812 0.317001
v -0.424047 0.184504 0.353168
v -0.446356 0.218403 0.320576
v -0.494325 0.305724 0.283014
v -0.477653 0.262812 0.317001
v -0.481768 0.300222 0.260674
v -0.446356 0.218403 0.320576
v -0.443894 0.253684 0.261158
v -0.425463 0.209128 0.297313
v -0.429600 0.201290 0.405520
v -0.396945 0.160926 0.380183
v -0.431747 0.196734 0.379592
v -0.413259 0.171809 0.354668
v -0.424047 0.184504 0.353168
v -0.443945 0.257932 0.441894
v -0.430916 0.221407 0.435155
v -0.470512 0.268058 0.396398
v -0.461062 0.236594 0.376905
v -0.431747 0.196734 0.379592
v -0.429600 0.201290 0.405520
v -0.509714 0.395684 0.244107
v -0.502244 0.439359 0.307366
v -0.515018 0.369801 0.292635
v -0.498228 0.355258 0.363569
v -0.476143 0.363732 0.401425
v -0.443894 0.253684 0.261158
v -0.455843 0.308679 0.224639
v -0.481768 0.300222 0.260674
v -0.486649 0.337346 0.235128
v -0.479711 0.344211 0.221582
v -0.396945 0.160926 0.380183
v -0.429600 0.201290 0.405520
v -0.350688 0.138772 0.492349
v -0.386424 0.180906 0.474238
v -0.430916 0.221407 0.435155
v -0.327739 0.104203 0.415647
v -0.389913 0.156672 0.361520
v -0.396945 0.160926 0.380183
v -0.406796 0.170334 0.340923
v -0.413259 0.171809 0.354668
v -0.433124 0.311480 0.209897
v -0.448928 0.356028 0.198630
v -0.455843 0.308679 0.224639
v -0.479711 0.344211 0.221582
v -0.461473 0.369484 0.199357
v -0.191332 0.371067 0.435666
v -0.133984 0.301708 0.411079
v -0.133295 0.263394 0.509726
v -0.114398 0.238929 0.512409
v -0.096050 0.220917 0.470812
v -0.107609 0.047241 0.484545
v -0.106849 0.040821 0.523055
v -0.076796 0.077425 0.481052
v -0.071071 0.101745 0.557140
v -0.066490 0.113837 0.517888
v -0.188368 0.282559 0.295215
v -0.197159 0.326471 0.297091
v -0.223009 0.322275 0.267316
v -0.233350 0.358721 0.263778
v -0.218343 0.370994 0.285960
v -0.180195 0.240090 0.300939
v -0.142276 0.233790 0.337221
v -0.188368 0.282559 0.295215
v -0.151529 0.288658 0.341596
v -0.197159 0.326471 0.297091
v -0.124219 0.287572 0.398783
v -0.151529 0.288658 0.341596
v -0.086310 0.204027 0.423986
v -0.142276 0.233790 0.337221
v -0.122201 0.180165 0.363176
v -0.083593 0.169698 0.420244
v -0.075057 0.170417 0.462437
v -0.096050 0.220917 0.470812
v -0.086310 0.204027 0.423986
v -0.124219 0.287572 0.398783
v -0.133984 0.301708 0.411079
v -0.107609 0.047241 0.484545
v -0.076796 0.077425 0.481052
v -0.123397 0.067216 0.435213
v -0.086802 0.098427 0.442114
v -0.113983 0.084584 0.421824
v -0.098704 0.103268 0.422918
v -0.122201 0.180165 0.363176
v -0.122928 0.138318 0.377710
v -0.083593 0.169698 0.420244
v -0.098704 0.103268 0.422918
v -0.086802 0.098427 0.442114
v -0.086310 0.204027 0.423986
v -0.083593 0.169698 0.420244
v -0.075057 0.170417 0.462437
v -0.086802 0.098427 0.442114
v -0.066490 0.113837 0.517888
v -0.076796 0.077425 0.481052
v -0.151415 0.142239 0.352509
v -0.156452 0.095626 0.381679
v -0.122928 0.138318 0.377710
v -0.113983 0.084584 0.421824
v -0.098704 0.103268 0.422918
v -0.180195 0.240090 0.300939
v -0.166339 0.188557 0.321758
v -0.142276 0.233790 0.337221
v -0.122201 0.180165 0.363176
v -0.122928 0.138318 0.377710
v -0.151415 0.142239 0.352509
v -0.133984 0.301708 0.411079
v -0.196324 0.380925 0.341827
v -0.124219 0.287572 0.398783
v -0.151529 0.288658 0.341596
v -0.197159 0.326471 0.297091
v -0.066490 0.113837 0.517888
v -0.096298 0.184101 0.550150
v -0.075057 0.170417 0.462437
v -0.096050 0.220917 0.470812
v -0.114398 0.238929 0.512409
v -0.156452 0.095626 0.381679
v -0.151415 0.142239 0.352509
v -0.197280 0.141923 0.327222
v -0.196060 0.182321 0.305926
v -0.166339 0.188557 0.321758
v -0.191332 0.371067 0.435666
v -0.202393 0.401399 0.395709
v -0.133984 0.301708 0.411079
v -0.196324 0.380925 0.341827
v -0.156452 0.095626 0.381679
v -0.156630 0.090605 0.386563
v -0.113983 0.084584 0.421824
v -0.123397 0.067216 0.435213
v -0.177906 0.073723 0.396272
v -0.156630 0.090605 0.386563
v -0.220940 0.112216 0.344180
v -0.156452 0.095626 0.381679
v -0.197280 0.141923 0.327222
v -0.231344 0.139074 0.317721
v -0.171402 0.039443 0.537705
v -0.106849 0.040821 0.523055
v -0.164098 0.031606 0.492848
v -0.107609 0.047241 0.484545
v -0.131023 0.045457 0.463468
v -0.391011 0.162440 0.333433
v -0.339545 0.152799 0.317373
v -0.401511 0.171671 0.329010
v -0.395757 0.198008 0.283927
v -0.379591 0.200865 0.270436
v -0.389913 0.156672 0.361520
v -0.326116 0.107263 0.398709
v -0.391011 0.162440 0.333433
v -0.309605 0.123153 0.341944
v -0.339545 0.152799 0.317373
v -0.254348 0.105572 0.349636
v -0.309605 0.123153 0.341944
v -0.205863 0.060225 0.412375
v -0.326116 0.107263 0.398709
v -0.290249 0.073187 0.435586
v -0.231482 0.054858 0.432444
v -0.170016 0.053019 0.429546
v -0.177906 0.073723 0.396272
v -0.205863 0.060225 0.412375
v -0.254348 0.105572 0.349636
v -0.220940 0.112216 0.344180
v -0.171402 0.039443 0.537705
v -0.164098 0.031606 0.492848
v -0.201460 0.047486 0.535293
v -0.205729 0.038884 0.481721
v -0.239252 0.055217 0.511079
v -0.239104 0.050987 0.488036
v -0.290249 0.073187 0.435586
v -0.293922 0.075598 0.452360
v -0.231482 0.054858 0.432444
v -0.239104 0.050987 0.488036
v -0.205729 0.038884 0.481721
v -0.205863 0.060225 0.412375
v -0.231482 0.054858 0.432444
v -0.170016 0.053019 0.429546
v -0.205729 0.038884 0.481721
v -0.131023 0.045457 0.463468
v -0.164098 0.031606 0.492848
v -0.308707 0.086445 0.478293
v -0.308844 0.088897 0.486393
v -0.293922 0.075598 0.452360
v -0.283376 0.083421 0.511577
v -0.239252 0.055217 0.511079
v -0.239104 0.050987 0.488036
v -0.389913 0.156672 0.361520
v -0.327739 0.104203 0.415647
v -0.326116 0.107263 0.398709
v -0.290249 0.073187 0.435586
v -0.293922 0.075598 0.452360
v -0.308707 0.086445 0.478293
v -0.220940 0.112216 0.344180
v -0.279402 0.153306 0.300637
v -0.254348 0.105572 0.349636
v -0.314158 0.169030 0.290439
v -0.309605 0.123153 0.341944
v -0.339545 0.152799 0.317373
v -0.389913 0.156672 0.361520
v -0.391011 0.162440 0.333433
v -0.406796 0.170334 0.340923
v -0.401511 0.171671 0.329010
v -0.131023 0.045457 0.463468
v -0.123397 0.067216 0.435213
v -0.170016 0.053019 0.429546
v -0.177906 0.073723 0.396272
v -0.156630 0.090605 0.386563
v -0.308844 0.088897 0.486393
v -0.308707 0.086445 0.478293
v -0.350688 0.138772 0.492349
v -0.396945 0.160926 0.380183
v -0.327739 0.104203 0.415647
v -0.213746 0.374753 0.486840
v -0.239499 0.408008 0.453607
v -0.191332 0.371067 0.435666
v -0.202393 0.401399 0.395709
v -0.217557 0.415832 0.388010
v -0.223345 0.393862 0.298585
v -0.270025 0.409297 0.255623
v -0.218343 0.370994 0.285960
v -0.233350 0.358721 0.263778
v -0.279931 0.385828 0.234182
v -0.459839 0.444312 0.372229
v -0.404327 0.431106 0.427473
v -0.462422 0.404743 0.401285
v -0.402306 0.383848 0.464943
v -0.488144 0.463160 0.305936
v -0.435475 0.491618 0.322311
v -0.459839 0.444312 0.372229
v -0.380004 0.457100 0.407872
v -0.404327 0.431106 0.427473
v -0.295820 0.443410 0.424786
v -0.380004 0.457100 0.407872
v -0.283814 0.462062 0.335332
v -0.435475 0.491618 0.322311
v -0.398370 0.499102 0.271045
v -0.313006 0.471725 0.289377
v -0.239562 0.428823 0.330624
v -0.217557 0.415832 0.388010
v -0.283814 0.462062 0.335332
v -0.295820 0.443410 0.424786
v -0.239499 0.408008 0.453607
v -0.279931 0.385828 0.234182
v -0.270025 0.409297 0.255623
v -0.333543 0.405824 0.208362
v -0.311819 0.445614 0.246420
v -0.355082 0.440435 0.212604
v -0.350604 0.448520 0.219534
v -0.398370 0.499102 0.271045
v -0.407038 0.471023 0.216396
v -0.313006 0.471725 0.289377
v -0.350604 0.448520 0.219534
v -0.311819 0.445614 0.246420
v -0.223345 0.393862 0.298585
v -0.239562 0.428823 0.330624
v -0.270025 0.409297 0.255623
v -0.311819 0.445614 0.246420
v -0.313006 0.471725 0.289377
v -0.283814 0.462062 0.335332
v -0.432372 0.428030 0.190414
v -0.376914 0.427522 0.197316
v -0.439920 0.466584 0.209827
v -0.407038 0.471023 0.216396
v -0.355082 0.440435 0.212604
v -0.350604 0.448520 0.219534
v -0.488144 0.463160 0.305936
v -0.479781 0.470830 0.238362
v -0.435475 0.491618 0.322311
v -0.398370 0.499102 0.271045
v -0.407038 0.471023 0.216396
v -0.439920 0.466584 0.209827
v -0.239499 0.408008 0.453607
v -0.286700 0.387439 0.496470
v -0.295820 0.443410 0.424786
v -0.317714 0.386606 0.494898
v -0.380004 0.457100 0.407872
v -0.404327 0.431106 0.427473
v -0.488144 0.463160 0.305936
v -0.459839 0.444312 0.372229
v -0.502244 0.439359 0.307366
v -0.462422 0.404743 0.401285
v -0.223345 0.393862 0.298585
v -0.196324 0.380925 0.341827
v -0.239562 0.428823 0.330624
v -0.217557 0.415832 0.388010
v -0.202393 0.401399 0.395709
v -0.432372 0.428030 0.190414
v -0.439920 0.466584 0.209827
v -0.470466 0.417347 0.199248
v -0.502556 0.436984 0.239394
v -0.479781 0.470830 0.238362
v -0.479781 0.470830 0.238362
v -0.488144 0.463160 0.305936
v -0.502556 0.436984 0.239394
v -0.502244 0.439359 0.307366
v -0.262893 0.287565 0.242789
v -0.224330 0.284442 0.265703
v -0.299525 0.366309 0.216844
v -0.223009 0.322275 0.267316
v -0.233350 0.358721 0.263778
v -0.279931 0.385828 0.234182
v -0.231344 0.139074 0.317721
v -0.197280 0.141923 0.327222
v -0.238231 0.182809 0.286833
v -0.196060 0.182321 0.305926
v -0.217628 0.203162 0.285657
v -0.432372 0.428030 0.190414
v -0.470466 0.417347 0.199248
v -0.424294 0.387348 0.186944
v -0.461473 0.369484 0.199357
v -0.448928 0.356028 0.198630
v -0.433124 0.311480 0.209897
v -0.406538 0.309518 0.204906
v -0.448928 0.356028 0.198630
v -0.397214 0.367492 0.188231
v -0.424294 0.387348 0.186944
v -0.334255 0.356774 0.201537
v -0.397214 0.367492 0.188231
v -0.310282 0.291963 0.221209
v -0.406538 0.309518 0.204906
v -0.370071 0.263858 0.221361
v -0.323503 0.265167 0.226973
v -0.264188 0.251516 0.249707
v -0.262893 0.287565 0.242789
v -0.310282 0.291963 0.221209
v -0.334255 0.356774 0.201537
v -0.299525 0.366309 0.216844
v -0.231344 0.139074 0.317721
v -0.238231 0.182809 0.286833
v -0.279402 0.153306 0.300637
v -0.284877 0.199352 0.266906
v -0.304610 0.178054 0.280725
v -0.302629 0.199634 0.265724
v -0.370071 0.263858 0.221361
v -0.373799 0.230883 0.242709
v -0.323503 0.265167 0.226973
v -0.302629 0.199634 0.265724
v -0.284877 0.199352 0.266906
v -0.310282 0.291963 0.221209
v -0.323503 0.265167 0.226973
v -0.264188 0.251516 0.249707
v -0.284877 0.199352 0.266906
v -0.217628 0.203162 0.285657
v -0.238231 0.182809 0.286833
v -0.379591 0.200865 0.270436
v -0.314158 0.169030 0.290439
v -0.377047 0.229961 0.244155
v -0.373799 0.230883 0.242709
v -0.304610 0.178054 0.280725
v -0.302629 0.199634 0.265724
v -0.433124 0.311480 0.209897
v -0.408654 0.257778 0.234003
v -0.406538 0.309518 0.204906
v -0.370071 0.263858 0.221361
v -0.373799 0.230883 0.242709
v -0.377047 0.229961 0.244155
v -0.299525 0.366309 0.216844
v -0.333543 0.405824 0.208362
v -0.334255 0.356774 0.201537
v -0.376914 0.427522 0.197316
v -0.397214 0.367492 0.188231
v -0.424294 0.387348 0.186944
v -0.217628 0.203162 0.285657
v -0.198012 0.238982 0.288334
v -0.264188 0.251516 0.249707
v -0.262893 0.287565 0.242789
v -0.224330 0.284442 0.265703
v -0.379591 0.200865 0.270436
v -0.377047 0.229961 0.244155
v -0.395757 0.198008 0.283927
v -0.427765 0.254381 0.247711
v -0.408654 0.257778 0.234003
v -0.433124 0.311480 0.209897
v -0.455843 0.308679 0.224639
v -0.408654 0.257778 0.234003
v -0.427765 0.254381 0.247711
v -0.116029 0.190990 0.570130
v -0.140567 0.244912 0.545072
v -0.096298 0.184101 0.550150
v -0.114398 0.238929 0.512409
v -0.133295 0.263394 0.509726
v -0.066490 0.113837 0.517888
v -0.071071 0.101745 0.557140
v -0.096298 0.184101 0.550150
v -0.114691 0.120541 0.595350
v -0.116029 0.190990 0.570130
v -0.217628 0.203162 0.285657
v -0.196060 0.182321 0.305926
v -0.198012 0.238982 0.288334
v -0.166339 0.188557 0.321758
v -0.180195 0.240090 0.300939
v -0.180195 0.240090 0.300939
v -0.188368 0.282559 0.295215
v -0.198012 0.238982 0.288334
v -0.224330 0.284442 0.265703
v -0.223009 0.322275 0.267316
v 0.136940 0.270006 0.505252
v 0.201759 0.386997 0.443582
v 0.215212 0.376518 0.486072
v 0.209398 0.379621 0.303588
v 0.199985 0.388156 0.348542
v 0.192095 0.347503 0.314407
v 0.199985 0.388156 0.348542
v 0.201759 0.386997 0.443582
v 0.140969 0.305576 0.432693
v 0.201747 0.239257 0.285780
v 0.167102 0.188135 0.321358
v 0.197984 0.184063 0.304152
v 0.498725 0.454238 0.297617
v 0.494300 0.434923 0.221840
v 0.503832 0.396018 0.229962
v 0.440883 0.331836 0.454680
v 0.400813 0.388573 0.462511
v 0.471845 0.419117 0.381367
v 0.378726 0.200353 0.270801
v 0.313397 0.159703 0.299219
v 0.325826 0.140259 0.326404
v 0.275624 0.148713 0.304876
v 0.230663 0.138423 0.318373
v 0.208407 0.110309 0.347813
v 0.408307 0.167202 0.362995
v 0.326697 0.103195 0.416694
v 0.388752 0.156214 0.388740
v 0.353519 0.444114 0.215299
v 0.333223 0.417746 0.213722
v 0.375800 0.431054 0.198643
v 0.498725 0.454238 0.297617
v 0.480392 0.472171 0.243654
v 0.494300 0.434923 0.221840
v 0.429176 0.433858 0.191096
v 0.375800 0.431054 0.198643
v 0.413415 0.388714 0.186431
v 0.333223 0.417746 0.213722
v 0.279338 0.386846 0.235094
v 0.285407 0.362593 0.225561
v 0.302984 0.175526 0.282757
v 0.275624 0.148713 0.304876
v 0.313397 0.159703 0.299219
v 0.215212 0.376518 0.486072
v 0.241496 0.362476 0.511421
v 0.136940 0.270006 0.505252
v 0.136654 0.239638 0.547567
v 0.154594 0.235676 0.559655
v 0.174769 0.038372 0.532833
v 0.114937 0.038278 0.520299
v 0.167249 0.061028 0.570970
v 0.071956 0.101994 0.559482
v 0.112623 0.115594 0.594248
v 0.411056 0.301212 0.486520
v 0.379043 0.348039 0.499601
v 0.440883 0.331836 0.454680
v 0.400813 0.388573 0.462511
v 0.406319 0.255272 0.485529
v 0.364491 0.248647 0.516693
v 0.411056 0.301212 0.486520
v 0.339227 0.330395 0.524512
v 0.379043 0.348039 0.499601
v 0.286538 0.338940 0.531807
v 0.339227 0.330395 0.524512
v 0.214304 0.190322 0.579259
v 0.364491 0.248647 0.516693
v 0.320095 0.169598 0.541731
v 0.246666 0.154510 0.577437
v 0.161413 0.182926 0.588087
v 0.154594 0.235676 0.559655
v 0.214304 0.190322 0.579259
v 0.286538 0.338940 0.531807
v 0.241496 0.362476 0.511421
v 0.174769 0.038372 0.532833
v 0.167249 0.061028 0.570970
v 0.199879 0.044321 0.529439
v 0.212391 0.084956 0.571507
v 0.243433 0.073201 0.538646
v 0.256437 0.089844 0.547853
v 0.320095 0.169598 0.541731
v 0.303586 0.122400 0.538266
v 0.246666 0.154510 0.577437
v 0.256437 0.089844 0.547853
v 0.212391 0.084956 0.571507
v 0.214304 0.190322 0.579259
v 0.246666 0.154510 0.577437
v 0.161413 0.182926 0.588087
v 0.212391 0.084956 0.571507
v 0.112623 0.115594 0.594248
v 0.167249 0.061028 0.570970
v 0.330167 0.124552 0.509278
v 0.308459 0.088185 0.485841
v 0.303586 0.122400 0.538266
v 0.280377 0.078451 0.505499
v 0.243433 0.073201 0.538646
v 0.256437 0.089844 0.547853
v 0.406319 0.255272 0.485529
v 0.370194 0.185293 0.505347
v 0.364491 0.248647 0.516693
v 0.320095 0.169598 0.541731
v 0.303586 0.122400 0.538266
v 0.330167 0.124552 0.509278
v 0.241496 0.362476 0.511421
v 0.290190 0.391736 0.492534
v 0.286538 0.338940 0.531807
v 0.322151 0.396178 0.485168
v 0.339227 0.330395 0.524512
v 0.379043 0.348039 0.499601
v 0.112623 0.115594 0.594248
v 0.097932 0.186668 0.550143
v 0.161413 0.182926 0.588087
v 0.154594 0.235676 0.559655
v 0.136654 0.239638 0.547567
v 0.308459 0.088185 0.485841
v 0.330167 0.124552 0.509278
v 0.350301 0.138278 0.492161
v 0.382609 0.175653 0.476611
v 0.370194 0.185293 0.505347
v 0.241496 0.362476 0.511421
v 0.215212 0.376518 0.486072
v 0.290190 0.391736 0.492534
v 0.220303 0.404141 0.441202
v 0.379043 0.348039 0.499601
v 0.322151 0.396178 0.485168
v 0.400813 0.388573 0.462511
v 0.387677 0.437332 0.427984
v 0.280377 0.078451 0.505499
v 0.236864 0.053730 0.509743
v 0.243433 0.073201 0.538646
v 0.199879 0.044321 0.529439
v 0.089001 0.184278 0.523769
v 0.120366 0.252760 0.503504
v 0.097932 0.186668 0.550143
v 0.136654 0.239638 0.547567
v 0.136940 0.270006 0.505252
v 0.112623 0.115594 0.594248
v 0.071956 0.101994 0.559482
v 0.097932 0.186668 0.550143
v 0.065311 0.108529 0.512421
v 0.089001 0.184278 0.523769
v 0.209398 0.379621 0.303588
v 0.192095 0.347503 0.314407
v 0.235027 0.367035 0.265874
v 0.228073 0.329425 0.263255
v 0.194543 0.280476 0.289827
v 0.170531 0.265563 0.309817
v 0.161310 0.099526 0.375941
v 0.195114 0.138199 0.330667
v 0.153762 0.134752 0.354798
v 0.197984 0.184063 0.304152
v 0.167102 0.188135 0.321358
v 0.120366 0.252760 0.503504
v 0.140969 0.305576 0.432693
v 0.136940 0.270006 0.505252
v 0.201759 0.386997 0.443582
v 0.089001 0.184278 0.523769
v 0.082085 0.194659 0.454497
v 0.120366 0.252760 0.503504
v 0.123704 0.288290 0.405883
v 0.140969 0.305576 0.432693
v 0.140806 0.291359 0.360327
v 0.123704 0.288290 0.405883
v 0.117968 0.211079 0.365786
v 0.082085 0.194659 0.454497
v 0.075564 0.150091 0.439558
v 0.102191 0.171744 0.390195
v 0.150672 0.212356 0.329417
v 0.170531 0.265563 0.309817
v 0.117968 0.211079 0.365786
v 0.140806 0.291359 0.360327
v 0.192095 0.347503 0.314407
v 0.153762 0.134752 0.354798
v 0.113704 0.126999 0.391443
v 0.161310 0.099526 0.375941
v 0.140081 0.072481 0.414628
v 0.114929 0.083315 0.422227
v 0.104596 0.093268 0.424450
v 0.075564 0.150091 0.439558
v 0.079485 0.086029 0.463070
v 0.102191 0.171744 0.390195
v 0.104596 0.093268 0.424450
v 0.113704 0.126999 0.391443
v 0.117968 0.211079 0.365786
v 0.102191 0.171744 0.390195
v 0.150672 0.212356 0.329417
v 0.113704 0.126999 0.391443
v 0.167102 0.188135 0.321358
v 0.153762 0.134752 0.354798
v 0.076129 0.076054 0.484637
v 0.120852 0.050933 0.462161
v 0.079485 0.086029 0.463070
v 0.114929 0.083315 0.422227
v 0.104596 0.093268 0.424450
v 0.089001 0.184278 0.523769
v 0.065311 0.108529 0.512421
v 0.082085 0.194659 0.454497
v 0.075564 0.150091 0.439558
v 0.079485 0.086029 0.463070
v 0.076129 0.076054 0.484637
v 0.192095 0.347503 0.314407
v 0.199985 0.388156 0.348542
v 0.140806 0.291359 0.360327
v 0.123704 0.288290 0.405883
v 0.140969 0.305576 0.432693
v 0.167102 0.188135 0.321358
v 0.201747 0.239257 0.285780
v 0.150672 0.212356 0.329417
v 0.170531 0.265563 0.309817
v 0.194543 0.280476 0.289827
v 0.120852 0.050933 0.462161
v 0.076129 0.076054 0.484637
v 0.114937 0.038278 0.520299
v 0.071956 0.101994 0.559482
v 0.065311 0.108529 0.512421
v 0.146009 0.039054 0.469505
v 0.142425 0.064126 0.424973
v 0.120852 0.050933 0.462161
v 0.140081 0.072481 0.414628
v 0.114929 0.083315 0.422227
v 0.229947 0.254194 0.264927
v 0.241325 0.301448 0.254741
v 0.201747 0.239257 0.285780
v 0.194543 0.280476 0.289827
v 0.228073 0.329425 0.263255
v 0.471845 0.419117 0.381367
v 0.491020 0.387382 0.371212
v 0.440883 0.331836 0.454680
v 0.453900 0.306578 0.442759
v 0.469439 0.293504 0.413118
v 0.388752 0.156214 0.388740
v 0.350301 0.138278 0.492161
v 0.419241 0.188193 0.400064
v 0.382609 0.175653 0.476611
v 0.427305 0.218586 0.438543
v 0.482697 0.347353 0.222551
v 0.503832 0.396018 0.229962
v 0.468367 0.374855 0.202118
v 0.473604 0.421734 0.200740
v 0.494300 0.434923 0.221840
v 0.469195 0.301916 0.240827
v 0.488236 0.310397 0.259223
v 0.482697 0.347353 0.222551
v 0.512712 0.374921 0.262651
v 0.503832 0.396018 0.229962
v 0.511335 0.377727 0.326821
v 0.512712 0.374921 0.262651
v 0.486174 0.284940 0.361382
v 0.488236 0.310397 0.259223
v 0.473827 0.265369 0.294487
v 0.472555 0.251682 0.348619
v 0.462638 0.256068 0.406686
v 0.469439 0.293504 0.413118
v 0.486174 0.284940 0.361382
v 0.511335 0.377727 0.326821
v 0.491020 0.387382 0.371212
v 0.388752 0.156214 0.388740
v 0.419241 0.188193 0.400064
v 0.408307 0.167202 0.362995
v 0.436999 0.200400 0.366856
v 0.412926 0.171478 0.354805
v 0.420707 0.180965 0.351164
v 0.473827 0.265369 0.294487
v 0.442304 0.218214 0.310352
v 0.472555 0.251682 0.348619
v 0.420707 0.180965 0.351164
v 0.436999 0.200400 0.366856
v 0.486174 0.284940 0.361382
v 0.472555 0.251682 0.348619
v 0.462638 0.256068 0.406686
v 0.436999 0.200400 0.366856
v 0.427305 0.218586 0.438543
v 0.419241 0.188193 0.400064
v 0.428059 0.211037 0.298166
v 0.400121 0.167594 0.334125
v 0.442304 0.218214 0.310352
v 0.412926 0.171478 0.354805
v 0.420707 0.180965 0.351164
v 0.469195 0.301916 0.240827
v 0.443600 0.250962 0.263555
v 0.488236 0.310397 0.259223
v 0.473827 0.265369 0.294487
v 0.442304 0.218214 0.310352
v 0.428059 0.211037 0.298166
v 0.491020 0.387382 0.371212
v 0.498725 0.454238 0.297617
v 0.511335 0.377727 0.326821
v 0.512712 0.374921 0.262651
v 0.503832 0.396018 0.229962
v 0.427305 0.218586 0.438543
v 0.425920 0.249004 0.463621
v 0.462638 0.256068 0.406686
v 0.469439 0.293504 0.413118
v 0.453900 0.306578 0.442759
v 0.400121 0.167594 0.334125
v 0.428059 0.211037 0.298166
v 0.396326 0.191976 0.291223
v 0.425829 0.245042 0.254707
v 0.443600 0.250962 0.263555
v 0.471845 0.419117 0.381367
v 0.468669 0.454170 0.351116
v 0.491020 0.387382 0.371212
v 0.498725 0.454238 0.297617
v 0.400121 0.167594 0.334125
v 0.391643 0.162235 0.334793
v 0.412926 0.171478 0.354805
v 0.408307 0.167202 0.362995
v 0.376077 0.151269 0.349193
v 0.391643 0.162235 0.334793
v 0.325826 0.140259 0.326404
v 0.400121 0.167594 0.334125
v 0.396326 0.191976 0.291223
v 0.378726 0.200353 0.270801
v 0.308459 0.088185 0.485841
v 0.350301 0.138278 0.492161
v 0.307998 0.085890 0.479277
v 0.388752 0.156214 0.388740
v 0.326697 0.103195 0.416694
v 0.168753 0.088148 0.383943
v 0.208407 0.110309 0.347813
v 0.161310 0.099526 0.375941
v 0.195114 0.138199 0.330667
v 0.230663 0.138423 0.318373
v 0.142425 0.064126 0.424973
v 0.182135 0.059432 0.416750
v 0.168753 0.088148 0.383943
v 0.226456 0.092189 0.364884
v 0.208407 0.110309 0.347813
v 0.276325 0.111575 0.345453
v 0.226456 0.092189 0.364884
v 0.279069 0.078734 0.405571
v 0.182135 0.059432 0.416750
v 0.197910 0.043591 0.448608
v 0.266673 0.066916 0.428560
v 0.315816 0.096750 0.411132
v 0.376077 0.151269 0.349193
v 0.279069 0.078734 0.405571
v 0.276325 0.111575 0.345453
v 0.325826 0.140259 0.326404
v 0.308459 0.088185 0.485841
v 0.307998 0.085890 0.479277
v 0.280377 0.078451 0.505499
v 0.276567 0.066882 0.464119
v 0.236864 0.053730 0.509743
v 0.233244 0.048780 0.492076
v 0.197910 0.043591 0.448608
v 0.189271 0.036076 0.479472
v 0.266673 0.066916 0.428560
v 0.233244 0.048780 0.492076
v 0.276567 0.066882 0.464119
v 0.279069 0.078734 0.405571
v 0.266673 0.066916 0.428560
v 0.315816 0.096750 0.411132
v 0.276567 0.066882 0.464119
v 0.326697 0.103195 0.416694
v 0.307998 0.085890 0.479277
v 0.164058 0.031718 0.491311
v 0.174769 0.038372 0.532833
v 0.189271 0.036076 0.479472
v 0.199879 0.044321 0.529439
v 0.236864 0.053730 0.509743
v 0.233244 0.048780 0.492076
v 0.142425 0.064126 0.424973
v 0.146009 0.039054 0.469505
v 0.182135 0.059432 0.416750
v 0.197910 0.043591 0.448608
v 0.189271 0.036076 0.479472
v 0.164058 0.031718 0.491311
v 0.325826 0.140259 0.326404
v 0.313397 0.159703 0.299219
v 0.276325 0.111575 0.345453
v 0.275624 0.148713 0.304876
v 0.226456 0.092189 0.364884
v 0.208407 0.110309 0.347813
v 0.142425 0.064126 0.424973
v 0.168753 0.088148 0.383943
v 0.140081 0.072481 0.414628
v 0.161310 0.099526 0.375941
v 0.326697 0.103195 0.416694
v 0.408307 0.167202 0.362995
v 0.315816 0.096750 0.411132
v 0.376077 0.151269 0.349193
v 0.391643 0.162235 0.334793
v 0.174769 0.038372 0.532833
v 0.164058 0.031718 0.491311
v 0.114937 0.038278 0.520299
v 0.120852 0.050933 0.462161
v 0.146009 0.039054 0.469505
v 0.400813 0.388573 0.462511
v 0.387677 0.437332 0.427984
v 0.471845 0.419117 0.381367
v 0.468669 0.454170 0.351116
v 0.441835 0.475581 0.349779
v 0.480392 0.472171 0.243654
v 0.435691 0.471809 0.212744
v 0.494300 0.434923 0.221840
v 0.473604 0.421734 0.200740
v 0.429176 0.433858 0.191096
v 0.206398 0.405835 0.397943
v 0.220303 0.404141 0.441202
v 0.201759 0.386997 0.443582
v 0.215212 0.376518 0.486072
v 0.217830 0.413322 0.354859
v 0.247851 0.439791 0.353384
v 0.206398 0.405835 0.397943
v 0.266100 0.439554 0.412562
v 0.220303 0.404141 0.441202
v 0.345714 0.460058 0.408547
v 0.266100 0.439554 0.412562
v 0.391517 0.498290 0.314603
v 0.247851 0.439791 0.353384
v 0.296017 0.463531 0.298958
v 0.372953 0.496353 0.286359
v 0.437085 0.497161 0.298080
v 0.441835 0.475581 0.349779
v 0.391517 0.498290 0.314603
v 0.345714 0.460058 0.408547
v 0.387677 0.437332 0.427984
v 0.429176 0.433858 0.191096
v 0.435691 0.471809 0.212744
v 0.375800 0.431054 0.198643
v 0.390962 0.478601 0.228033
v 0.353519 0.444114 0.215299
v 0.359110 0.456535 0.221729
v 0.296017 0.463531 0.298958
v 0.304973 0.443388 0.251395
v 0.372953 0.496353 0.286359
v 0.359110 0.456535 0.221729
v 0.390962 0.478601 0.228033
v 0.480392 0.472171 0.243654
v 0.437085 0.497161 0.298080
v 0.435691 0.471809 0.212744
v 0.390962 0.478601 0.228033
v 0.372953 0.496353 0.286359
v 0.391517 0.498290 0.314603
v 0.279338 0.386846 0.235094
v 0.333223 0.417746 0.213722
v 0.276448 0.424770 0.262662
v 0.304973 0.443388 0.251395
v 0.353519 0.444114 0.215299
v 0.359110 0.456535 0.221729
v 0.217830 0.413322 0.354859
v 0.234517 0.407622 0.298142
v 0.247851 0.439791 0.353384
v 0.296017 0.463531 0.298958
v 0.304973 0.443388 0.251395
v 0.276448 0.424770 0.262662
v 0.387677 0.437332 0.427984
v 0.322151 0.396178 0.485168
v 0.345714 0.460058 0.408547
v 0.290190 0.391736 0.492534
v 0.266100 0.439554 0.412562
v 0.220303 0.404141 0.441202
v 0.217830 0.413322 0.354859
v 0.206398 0.405835 0.397943
v 0.199985 0.388156 0.348542
v 0.201759 0.386997 0.443582
v 0.480392 0.472171 0.243654
v 0.498725 0.454238 0.297617
v 0.437085 0.497161 0.298080
v 0.441835 0.475581 0.349779
v 0.468669 0.454170 0.351116
v 0.279338 0.386846 0.235094
v 0.276448 0.424770 0.262662
v 0.235027 0.367035 0.265874
v 0.209398 0.379621 0.303588
v 0.234517 0.407622 0.298142
v 0.234517 0.407622 0.298142
v 0.217830 0.413322 0.354859
v 0.209398 0.379621 0.303588
v 0.199985 0.388156 0.348542
v 0.427097 0.345321 0.194432
v 0.456980 0.346593 0.205328
v 0.413415 0.388714 0.186431
v 0.468367 0.374855 0.202118
v 0.473604 0.421734 0.200740
v 0.429176 0.433858 0.191096
v 0.378726 0.200353 0.270801
v 0.396326 0.191976 0.291223
v 0.378340 0.215448 0.257068
v 0.425829 0.245042 0.254707
v 0.412511 0.260086 0.234090
v 0.279338 0.386846 0.235094
v 0.235027 0.367035 0.265874
v 0.285407 0.362593 0.225561
v 0.228073 0.329425 0.263255
v 0.241325 0.301448 0.254741
v 0.229947 0.254194 0.264927
v 0.270110 0.281966 0.240493
v 0.241325 0.301448 0.254741
v 0.315450 0.349154 0.208518
v 0.285407 0.362593 0.225561
v 0.366762 0.370952 0.192131
v 0.315450 0.349154 0.208518
v 0.380438 0.310970 0.201442
v 0.270110 0.281966 0.240493
v 0.293083 0.239813 0.244988
v 0.361084 0.270650 0.218099
v 0.405162 0.292793 0.211406
v 0.427097 0.345321 0.194432
v 0.380438 0.310970 0.201442
v 0.366762 0.370952 0.192131
v 0.413415 0.388714 0.186431
v 0.378726 0.200353 0.270801
v 0.378340 0.215448 0.257068
v 0.313397 0.159703 0.299219
v 0.368909 0.228347 0.244558
v 0.302984 0.175526 0.282757
v 0.299734 0.190797 0.271793
v 0.293083 0.239813 0.244988
v 0.269605 0.197338 0.271417
v 0.361084 0.270650 0.218099
v 0.299734 0.190797 0.271793
v 0.368909 0.228347 0.244558
v 0.380438 0.310970 0.201442
v 0.361084 0.270650 0.218099
v 0.405162 0.292793 0.211406
v 0.368909 0.228347 0.244558
v 0.412511 0.260086 0.234090
v 0.378340 0.215448 0.257068
v 0.230663 0.138423 0.318373
v 0.275624 0.148713 0.304876
v 0.238285 0.182929 0.286749
v 0.269605 0.197338 0.271417
v 0.302984 0.175526 0.282757
v 0.299734 0.190797 0.271793
v 0.229947 0.254194 0.264927
v 0.220595 0.204934 0.283701
v 0.270110 0.281966 0.240493
v 0.293083 0.239813 0.244988
v 0.269605 0.197338 0.271417
v 0.238285 0.182929 0.286749
v 0.413415 0.388714 0.186431
v 0.375800 0.431054 0.198643
v 0.366762 0.370952 0.192131
v 0.333223 0.417746 0.213722
v 0.315450 0.349154 0.208518
v 0.285407 0.362593 0.225561
v 0.412511 0.260086 0.234090
v 0.456389 0.309847 0.224246
v 0.405162 0.292793 0.211406
v 0.427097 0.345321 0.194432
v 0.456980 0.346593 0.205328
v 0.230663 0.138423 0.318373
v 0.238285 0.182929 0.286749
v 0.195114 0.138199 0.330667
v 0.197984 0.184063 0.304152
v 0.220595 0.204934 0.283701
v 0.229947 0.254194 0.264927
v 0.201747 0.239257 0.285780
v 0.220595 0.204934 0.283701
v 0.197984 0.184063 0.304152
v 0.406319 0.255272 0.485529
v 0.411056 0.301212 0.486520
v 0.425920 0.249004 0.463621
v 0.453900 0.306578 0.442759
v 0.440883 0.331836 0.454680
v 0.427305 0.218586 0.438543
v 0.382609 0.175653 0.476611
v 0.425920 0.249004 0.463621
v 0.370194 0.185293 0.505347
v 0.406319 0.255272 0.485529
v 0.412511 0.260086 0.234090
v 0.425829 0.245042 0.254707
v 0.456389 0.309847 0.224246
v 0.443600 0.250962 0.263555
v 0.469195 0.301916 0.240827
v 0.469195 0.301916 0.240827
v 0.482697 0.347353 0.222551
v 0.456389 0.309847 0.224246
v 0.456980 0.346593 0.205328
v 0.468367 0.374855 0.202118
vt 0.918798 0.115675
vt 0.919856 0.179201
vt 0.852637 0.145730
vt 0.931226 0.114712
vt 0.976893 0.046646
vt 0.977209 0.107030
vt 0.891932 0.189518
vt 0.937104 0.191105
vt 0.939342 0.271719
vt 0.347171 0.978798
vt 0.356292 0.947830
vt 0.405461 0.983653
vt 0.351046 0.871186
vt 0.355719 0.915724
vt 0.270369 0.920145
vt 0.173956 0.888708
vt 0.102476 0.884992
vt 0.131792 0.817461
vt 0.477256 0.430091
vt 0.434690 0.386361
vt 0.485032 0.385676
vt 0.926112 0.509229
vt 0.925868 0.464146
vt 0.983642 0.461888
vt 0.116765 0.391657
vt 0.139774 0.364022
vt 0.171062 0.397072
vt 0.336134 0.437650
vt 0.290016 0.437337
vt 0.314739 0.413745
vt 0.973135 0.605888
vt 0.940172 0.634714
vt 0.891932 0.602513
vt 0.140688 0.327176
vt 0.091759 0.300581
vt 0.135387 0.286327
vt 0.233214 0.048527
vt 0.232861 0.009886
vt 0.282636 0.007812
vt 0.534653 0.146414
vt 0.488273 0.146728
vt 0.512816 0.122588
vt 0.384555 0.924605
vt 0.429088 0.872533
vt 0.448571 0.907498
vt 0.123207 0.897548
vt 0.115166 0.947727
vt 0.088187 0.913052
vt 0.167451 0.939049
vt 0.167871 0.911815
vt 0.989441 0.208138
vt 0.950873 0.247360
vt 0.962679 0.199673
vt 0.975762 0.275944
vt 0.315278 0.732265
vt 0.364426 0.769084
vt 0.342575 0.808559
vt 0.194993 0.358595
vt 0.277737 0.251997
vt 0.285028 0.329856
vt 0.200696 0.215986
vt 0.148914 0.249927
vt 0.156098 0.333008
vt 0.267967 0.551870
vt 0.304096 0.613311
vt 0.256080 0.598848
vt 0.500677 0.899121
vt 0.456123 0.931617
vt 0.469737 0.894690
vt 0.661721 0.713152
vt 0.604370 0.692413
vt 0.607492 0.632141
vt 0.689274 0.624790
vt 0.705457 0.693176
vt 0.753187 0.439108
vt 0.685532 0.354022
vt 0.745889 0.357334
vt 0.665097 0.411459
vt 0.684721 0.455174
vt 0.152703 0.481100
vt 0.130265 0.411257
vt 0.168105 0.435370
vt 0.858459 0.771366
vt 0.824060 0.748675
vt 0.827875 0.704958
vt 0.883273 0.744044
vt 0.052465 0.480467
vt 0.064515 0.431670
vt 0.101242 0.518624
vt 0.911694 0.373232
vt 0.913355 0.318002
vt 0.933450 0.359129
vt 0.882423 0.324199
vt 0.096273 0.839913
vt 0.085360 0.869663
vt 0.024604 0.859127
vt 0.052694 0.807102
vt 0.249204 0.624703
vt 0.180416 0.591097
vt 0.235540 0.574942
vt 0.202475 0.659871
vt 0.179278 0.423291
vt 0.191328 0.374493
vt 0.279516 0.423924
vt 0.228055 0.461448
vt 0.084477 0.753393
vt 0.086932 0.812736
vt 0.047107 0.771928
vt 0.109329 0.813654
vt 0.822274 0.632685
vt 0.883859 0.617946
vt 0.873176 0.664644
vt 0.823557 0.678052
vt 0.704659 0.510140
vt 0.664226 0.540797
vt 0.642168 0.472023
vt 0.699843 0.478140
vt 0.805852 0.860979
vt 0.810438 0.888646
vt 0.774467 0.906915
vt 0.947331 0.040295
vt 0.895504 0.045268
vt 0.918230 0.007812
vt 0.930751 0.086544
vt 0.899730 0.083948
vt 0.072403 0.963754
vt 0.056893 0.990415
vt 0.009308 0.991409
vt 0.007812 0.966452
vt 0.046297 0.944440
vt 0.855885 0.539936
vt 0.790124 0.531445
vt 0.860688 0.498996
vt 0.832338 0.578590
vt 0.971870 0.576074
vt 0.942271 0.593261
vt 0.925868 0.560299
vt 0.970317 0.531135
vt 0.338593 0.952430
vt 0.319364 0.977893
vt 0.314171 0.929363
vt 0.421121 0.975652
vt 0.390038 0.948849
vt 0.425468 0.927815
vt 0.456527 0.954890
vt 0.144970 0.731971
vt 0.119656 0.663623
vt 0.164821 0.668241
vt 0.052465 0.693821
vt 0.062320 0.724921
vt 0.007812 0.809220
vt 0.731183 0.876761
vt 0.770013 0.845966
vt 0.216613 0.844515
vt 0.233191 0.903621
vt 0.193567 0.865730
vt 0.275322 0.898516
vt 0.016020 0.737257
vt 0.007812 0.663539
vt 0.036048 0.688340
vt 0.040251 0.735880
vt 0.763589 0.013516
vt 0.812737 0.050335
vt 0.790886 0.089810
vt 0.334653 0.007812
vt 0.411695 0.043824
vt 0.418986 0.121683
vt 0.328951 0.150422
vt 0.290055 0.124835
vt 0.282872 0.041754
vt 0.717595 0.058424
vt 0.709750 0.007812
vt 0.504666 0.584521
vt 0.539563 0.646669
vt 0.491845 0.631253
vt 0.788990 0.185566
vt 0.763670 0.147517
vt 0.815025 0.114310
vt 0.822742 0.171501
vt 0.833549 0.360629
vt 0.852551 0.400007
vt 0.808831 0.364574
vt 0.033399 0.156856
vt 0.116480 0.149673
vt 0.150422 0.201454
vt 0.007812 0.195752
vt 0.712128 0.334166
vt 0.643675 0.350285
vt 0.624017 0.306586
vt 0.644407 0.249133
vt 0.704767 0.252398
vt 0.211908 0.971411
vt 0.179278 0.920645
vt 0.213598 0.911696
vt 0.243440 0.922672
vt 0.857784 0.591282
vt 0.840836 0.124729
vt 0.883020 0.070688
vt 0.865782 0.123455
vt 0.479611 0.638850
vt 0.410823 0.605245
vt 0.465947 0.589089
vt 0.432882 0.674018
vt 0.375207 0.667901
vt 0.370391 0.635901
vt 0.433866 0.114735
vt 0.507097 0.088732
vt 0.461219 0.159196
vt 0.425760 0.043328
vt 0.452119 0.007812
vt 0.873999 0.941451
vt 0.835636 0.951020
vt 0.823507 0.899523
vt 0.875803 0.910632
vt 0.190313 0.777326
vt 0.222904 0.829007
vt 0.164989 0.842962
vt 0.269284 0.777173
vt 0.261439 0.726562
vt 0.972333 0.437689
vt 0.948058 0.451935
vt 0.952466 0.387952
vt 0.841922 0.258937
vt 0.813343 0.242884
vt 0.825363 0.186443
vt 0.876413 0.216522
vt 0.186899 0.970249
vt 0.398234 0.682441
vt 0.435083 0.746080
vt 0.368357 0.695403
vt 0.871125 0.172839
vt 0.506982 0.651271
vt 0.564419 0.671706
vt 0.561107 0.732063
vt 0.479334 0.739361
vt 0.463268 0.670895
vt 0.797032 0.249934
vt 0.752590 0.203489
vt 0.803278 0.196154
vt 0.481481 0.820467
vt 0.510979 0.884678
vt 0.453046 0.882984
vt 0.452551 0.830756
vt 0.114410 0.278496
vt 0.036551 0.285787
vt 0.310826 0.877166
vt 0.273673 0.874849
vt 0.263225 0.821236
vt 0.292446 0.811951
vt 0.347035 0.853026
vt 0.581297 0.478410
vt 0.530768 0.500073
vt 0.495418 0.426390
vt 0.261940 0.456724
vt 0.289983 0.455817
vt 0.343529 0.502913
vt 0.298439 0.529230
vt 0.670455 0.139586
vt 0.690486 0.099016
vt 0.739098 0.113857
vt 0.752429 0.185008
vt 0.732426 0.197345
vt 0.700645 0.207104
vt 0.748505 0.842641
vt 0.708930 0.860983
vt 0.744954 0.817924
vt 0.007812 0.626325
vt 0.076586 0.604267
vt 0.092741 0.659390
vt 0.042981 0.673054
vt 0.084615 0.988655
vt 0.085245 0.954988
vt 0.138530 0.965422
vt 0.133433 0.989237
vt 0.447208 0.359392
vt 0.517051 0.336953
vt 0.492938 0.374794
vt 0.946826 0.517426
vt 0.689200 0.007812
vt 0.705393 0.076033
vt 0.661805 0.096247
vt 0.604370 0.075274
vt 0.422558 0.264849
vt 0.370776 0.298790
vt 0.293735 0.262779
vt 0.286444 0.184920
vt 0.376479 0.156181
vt 0.415374 0.181768
vt 0.490879 0.574883
vt 0.419492 0.581373
vt 0.384679 0.554435
vt 0.441977 0.502916
vt 0.492108 0.501321
vt 0.476286 0.168546
vt 0.494796 0.243993
vt 0.429332 0.191359
vt 0.548147 0.167552
vt 0.580878 0.197301
vt 0.594071 0.704000
vt 0.667362 0.735386
vt 0.675208 0.785997
vt 0.621368 0.780294
vt 0.572220 0.743475
vt 0.796121 0.662102
vt 0.762665 0.669285
vt 0.738327 0.626498
vt 0.749044 0.089710
vt 0.360245 0.662218
vt 0.339810 0.719655
vt 0.279453 0.716343
vt 0.272155 0.634570
vt 0.340621 0.618504
vt 0.019291 0.474412
vt 0.035167 0.540761
vt 0.007812 0.517465
vt 0.080300 0.524202
vt 0.628195 0.904370
vt 0.624017 0.876380
vt 0.661688 0.859185
vt 0.663723 0.919747
vt 0.984124 0.162389
vt 0.938320 0.173700
vt 0.936584 0.126137
vt 0.961515 0.124252
vt 0.667423 0.176465
vt 0.597696 0.199299
vt 0.581150 0.143411
vt 0.632082 0.129430
vt 0.688008 0.557549
vt 0.733021 0.604252
vt 0.681172 0.611730
vt 0.765610 0.531443
vt 0.726482 0.509155
vt 0.284577 0.160012
vt 0.178048 0.077550
vt 0.255766 0.070160
vt 0.141770 0.154334
vt 0.412248 0.399113
vt 0.448976 0.486067
vt 0.383226 0.506480
vt 0.360787 0.436636
vt 0.550290 0.332158
vt 0.612922 0.297317
vt 0.597294 0.345216
vt 0.257078 0.354081
vt 0.294918 0.378194
vt 0.507920 0.028205
vt 0.593394 0.082034
vt 0.577770 0.130075
vt 0.530596 0.116867
vt 0.629157 0.238804
vt 0.661322 0.234081
vt 0.607561 0.015144
vt 0.366479 0.412664
vt 0.317679 0.400787
vt 0.405539 0.364978
vt 0.772583 0.572007
vt 0.812354 0.617558
vt 0.141894 0.752273
vt 0.168182 0.775896
vt 0.535814 0.548454
vt 0.988524 0.938404
vt 0.965931 0.971800
vt 0.963376 0.925229
vt 0.992188 0.986505
vt 0.850851 0.273813
vt 0.888052 0.232126
vt 0.910469 0.254853
vt 0.897660 0.305923
vt 0.862235 0.315413
vt 0.878321 0.574165
vt 0.868712 0.536785
vt 0.906874 0.582927
vt 0.786864 0.738922
vt 0.706177 0.719788
vt 0.734337 0.679713
vt 0.773071 0.773052
vt 0.741728 0.785333
vt 0.912053 0.442547
vt 0.852637 0.442875
vt 0.890820 0.403386
vt 0.769053 0.947946
vt 0.718126 0.957847
vt 0.711536 0.922677
vt 0.717636 0.891422
vt 0.769231 0.922066
vt 0.186109 0.712035
vt 0.231228 0.758725
vt 0.179278 0.766261
vt 0.559002 0.007812
vt 0.125341 0.136879
vt 0.042225 0.144128
vt 0.150900 0.097803
vt 0.367287 0.312637
vt 0.759719 0.298708
vt 0.720466 0.276460
vt 0.768691 0.791785
vt 0.808461 0.773143
vt 0.772215 0.816511
vt 0.818702 0.070739
vt 0.874189 0.041275
vt 0.078853 0.313957
vt 0.115246 0.367612
vt 0.074342 0.413992
vt 0.025895 0.400329
vt 0.007812 0.333862
vt 0.033224 0.296670
vt 0.814134 0.462450
vt 0.821317 0.495906
vt 0.778530 0.520244
vt 0.769589 0.446218
vt 0.617881 0.353850
vt 0.583414 0.423783
vt 0.566862 0.367925
vt 0.653399 0.401007
vt 0.647343 0.458749
vt 0.614976 0.463454
vt 0.924808 0.434398
vt 0.226850 0.536000
vt 0.191781 0.509139
vt 0.703104 0.889130
vt 0.888359 0.779948
vt 0.940587 0.772055
vt 0.912456 0.804380
vt 0.905072 0.726724
vt 0.934130 0.733548
vt 0.368506 0.875726
vt 0.366818 0.902541
vt 0.953040 0.912973
vt 0.902648 0.907127
vt 0.934880 0.879688
vt 0.614659 0.966988
vt 0.623039 0.918787
vt 0.645019 0.945509
vt 0.578421 0.927063
vt 0.568648 0.952783
vt 0.847983 0.685455
vt 0.874556 0.684652
vt 0.356116 0.527431
vt 0.377778 0.577960
vt 0.609103 0.556952
vt 0.595439 0.507191
vt 0.397700 0.795699
vt 0.441776 0.811882
vt 0.435807 0.859458
vt 0.398346 0.862628
vt 0.361283 0.839009
vt 0.357888 0.814516
vt 0.139984 0.621754
vt 0.144800 0.653754
vt 0.166557 0.008209
vt 0.221558 0.027581
vt 0.205868 0.054223
vt 0.157668 0.066187
vt 0.145342 0.023449
vt 0.345385 0.482367
vt 0.461025 0.437270
vt 0.297161 0.335184
vt 0.321205 0.297212
vt 0.940747 0.958135
vt 0.912809 0.955477
vt 0.213773 0.007812
vt 0.624537 0.856953
vt 0.571046 0.842113
vt 0.568648 0.817250
vt 0.621584 0.792702
vt 0.653521 0.846803
vt 0.516044 0.748014
vt 0.550783 0.809022
vt 0.493041 0.809581
vt 0.466840 0.785571
vt 0.800841 0.925862
vt 0.488753 0.953171
vt 0.526313 0.924959
vt 0.524492 0.945773
vt 0.864858 0.371577
vt 0.857996 0.351637
vt 0.420139 0.788569
vt 0.354316 0.726715
vt 0.886573 0.664290
vt 0.921435 0.715949
vt 0.895589 0.715327
vt 0.556430 0.749939
vt 0.588493 0.790659
vt 0.527567 0.243634
vt 0.578538 0.222989
vt 0.091989 0.601084
vt 0.070326 0.550556
vt 0.144009 0.515205
vt 0.192024 0.529668
vt 0.180137 0.576646
vt 0.784766 0.383681
vt 0.836978 0.444192
vt 0.789913 0.437460
vt 0.593283 0.561843
vt 0.613935 0.612793
vt 0.509880 0.378374
vt 0.556859 0.390262
vt 0.045929 0.563834
vt 0.013930 0.568650
vt 0.447842 0.259153
vt 0.496639 0.271203
vt 0.409685 0.307930
vt 0.842941 0.324379
vt 0.774049 0.324750
vt 0.793014 0.281510
vt 0.774680 0.367513
vt 0.850851 0.859994
vt 0.881005 0.816709
vt 0.911801 0.855540
vt 0.896788 0.891379
vt 0.869120 0.895965
vt 0.271921 0.947208
vt 0.270369 0.973026
vt 0.007812 0.092129
vt 0.044229 0.015207
vt 0.045531 0.875771
vt 0.078479 0.897364
vt 0.066461 0.934801
vt 0.023277 0.928587
vt 0.007812 0.904344
vt 0.724038 0.485988
vt 0.251595 0.769812
vt 0.261202 0.804144
vt 0.918723 0.384117
vt 0.726485 0.793607
vt 0.665097 0.844762
vt 0.667275 0.798463
vt 0.666883 0.982215
vt 0.677073 0.929559
vt 0.699675 0.936189
vt 0.699325 0.985158
vt 0.092083 0.742121
vt 0.921799 0.654258
vt 0.952863 0.664899
vt 0.224662 0.663536
vt 0.263913 0.685793
vt 0.345379 0.828597
vt 0.901469 0.477830
vt 0.852825 0.487835
vt 0.176022 0.206164
vt 0.258992 0.198940
vt 0.574291 0.857287
vt 0.561028 0.917659
vt 0.532926 0.886741
vt 0.609655 0.874457
vt 0.612634 0.903026
vt 0.919908 0.524470
vt 0.886651 0.496322
vt 0.958017 0.739941
vt 0.990489 0.703781
vt 0.989040 0.751334
vt 0.961420 0.681902
vt 0.122097 0.007812
vt 0.954903 0.872175
vt 0.929440 0.852946
vt 0.934307 0.803952
vt 0.960125 0.805504
vt 0.977970 0.847754
vt 0.796666 0.840475
vt 0.852538 0.789201
vt 0.848488 0.836199
vt 0.944438 0.331952
vt 0.927654 0.309566
vt 0.981326 0.286825
vt 0.991413 0.306449
vt 0.537029 0.859750
vt 0.534556 0.835182
vt 0.965219 0.188793
vt 0.009560 0.883370
s 1
f 3/1 2/2 1/3
f 6/4 5/5 4/6
f 9/7 8/8 7/9
f 12/10 11/11 10/12
f 15/13 14/14 13/15
f 18/16 17/17 16/18
f 21/19 20/20 19/21
f 24/22 23/23 22/24
f 27/25 26/26 25/27
f 30/28 29/29 28/30
f 33/31 32/32 31/33
f 36/34 35/35 34/36
f 39/37 38/38 37/39
f 42/40 41/41 40/42
f 45/43 44/44 43/45
f 50/46 49/47 48/48
f 50/46 51/49 49/47
f 52/50 51/49 50/46
f 55/51 54/52 53/53
f 55/51 56/54 54/52
f 59/55 61/56 60/57
f 64/58 63/59 62/60
f 64/58 65/61 63/59
f 64/58 66/62 65/61
f 67/63 66/62 64/58
f 70/64 69/65 68/66
f 75/67 74/68 73/69
f 426/70 424/71 423/72 425/73 427/74
f 81/75 80/76 79/77
f 81/75 82/78 80/76
f 82/78 81/75 83/79
f 86/80 85/81 84/82
f 475/83 474/84 473/85 472/86
f 89/87 87/88 88/89
f 92/90 91/91 90/92
f 92/90 93/93 91/91
f 150/94 149/95 147/96 148/97
f 98/98 97/99 96/100
f 99/101 97/99 98/98
f 187/102 185/103 184/104 186/105
f 104/106 103/107 102/108
f 105/109 103/107 104/106
f 884/110 885/111 883/112 882/113
f 1100/114 1096/115 1098/116 1099/117
f 111/118 112/119 109/120
f 115/121 114/122 113/123
f 116/124 114/122 115/121
f 117/125 114/122 116/124
f 223/126 220/127 219/128 221/129 222/130
f 124/131 123/132 122/133
f 124/131 125/134 123/132
f 320/135 321/136 318/137 319/138
f 134/139 131/140 133/141
f 128/142 129/143 127/144 126/145
f 142/146 141/147 140/148
f 145/149 141/147 144/150
f 148/97 147/96 146/151
f 111/118 109/120 108/152 110/153
f 153/154 152/155 151/156
f 153/154 154/157 152/155
f 454/158 455/159 453/160 452/161
f 157/162 159/163 158/164
f 163/165 161/166 160/167 162/168 165/169 164/170
f 157/162 158/164 156/171 155/172
f 168/173 167/174 166/175
f 651/75 653/79 652/78 650/76
f 297/176 294/177 295/178 296/179
f 176/180 172/181 175/182
f 249/183 248/184 247/185 246/186
f 179/187 181/188 180/189 178/190 177/191
f 1128/192 1129/193 1127/194 1126/195
f 316/196 315/111 313/112 314/110
f 191/197 190/198 192/199
f 195/200 194/201 193/202
f 196/203 194/201 195/200
f 197/204 194/201 196/203
f 198/205 194/201 197/204
f 201/206 200/207 199/208
f 202/209 200/207 201/206
f 200/207 202/209 203/210
f 1116/211 1113/212 1114/213 1115/214
f 211/215 210/216 209/217
f 59/55 60/57 58/218 57/219
f 218/220 217/221 216/222
f 803/223 802/224 800/225 801/226
f 558/192 560/227 559/193 557/194
f 228/228 225/229 227/230
f 231/226 230/225 229/231
f 231/226 232/224 230/225
f 233/223 232/224 231/226
f 264/232 262/233 261/234 263/235 265/236
f 241/237 240/238 239/239
f 437/240 435/241 434/242 436/243
f 246/186 245/244 244/245
f 246/186 247/185 245/244
f 928/246 926/247 925/248 927/249 929/250
f 698/142 699/143 697/144 696/145
f 253/251 254/252 251/253
f 1019/254 1017/255 1016/256 1018/257
f 308/258 311/259 310/260 309/261 307/262 306/263
f 260/264 258/265 259/266
f 280/267 278/268 277/269 279/270
f 1119/271 1120/272 1118/273 1117/274
f 268/275 267/276 266/277
f 890/135 891/136 888/137 887/278 889/138
f 346/279 348/280 347/281 345/282
f 1065/283 1064/284 1062/285 1061/286 1063/287 1066/288
f 793/126 790/127 789/128 791/129 792/130
f 369/289 371/290 372/291 370/292 368/293
f 285/294 284/295 283/296
f 286/297 284/295 285/294
f 284/295 286/297 287/298
f 1059/299 1057/300 1056/301 1058/302 1060/303
f 291/304 292/305 289/306
f 295/178 294/177 293/307
f 1081/308 1079/309 1078/310 1080/311 1082/312
f 300/313 299/314 298/315
f 300/313 301/316 299/314
f 1029/317 1030/318 1027/319 1028/320
f 314/110 313/112 312/113
f 1124/321 1122/322 1121/323 1123/324
f 319/138 318/137 317/278
f 364/325 362/326 361/327 363/328
f 324/329 323/330 322/331
f 324/329 325/332 323/330
f 324/329 326/333 325/332
f 329/334 328/335 327/336
f 329/334 330/337 328/335
f 1087/338 1086/339 1084/340 1085/341
f 335/342 334/343 333/344
f 184/104 185/103 183/345 182/346
f 985/347 983/348 982/349 984/350
f 366/351 362/326 364/325 365/352
f 346/279 345/282 344/353
f 867/176 864/177 865/178 866/179
f 488/302 490/303 489/299 487/300 486/301
f 354/354 352/355 353/356
f 357/249 356/247 355/248
f 357/249 358/246 356/247
f 291/304 289/306 288/357 290/358
f 106/359 107/360 105/109 104/106
f 369/289 368/293 367/361
f 375/362 374/363 373/364
f 375/362 376/365 374/363
f 235/366 234/367 236/368 237/369 238/370
f 386/371 383/372 385/373
f 389/374 388/375 387/376
f 390/377 388/375 389/374
f 391/378 388/375 390/377
f 394/379 393/380 392/381
f 139/382 138/383 136/384 135/385 137/386
f 403/387 402/388 401/389
f 415/347 416/390 413/348 414/350
f 687/125 684/122 685/121 686/124
f 727/162 728/164 726/171 725/172
f 411/391 410/392 408/393
f 414/350 413/348 412/349
f 924/354 922/355 921/394 923/356
f 241/237 243/395 242/396 240/238
f 422/397 420/398 421/399
f 190/198 191/197 189/400 188/401
f 429/402 428/403 430/404 431/405 432/406
f 432/406 433/407 429/402
f 669/101 667/99 666/100 668/98
f 777/408 778/409 775/410 776/411
f 442/412 441/413 440/414
f 443/415 441/413 442/412
f 444/416 441/413 443/415
f 445/417 441/413 444/416
f 448/257 447/255 446/256
f 788/220 787/221 785/418 786/222
f 449/254 450/419 451/420
f 941/290 942/291 940/292 939/289
f 458/320 457/319 456/421
f 463/422 462/423 461/424
f 464/425 462/423 463/422
f 465/426 462/423 464/425
f 996/70 994/71 993/72 995/73 997/74
f 720/94 719/95 717/96 718/97
f 47/427 44/44 45/43 46/428
f 478/429 477/430 476/431
f 483/432 482/433 481/434
f 483/432 484/435 482/433
f 485/436 484/435 483/432
f 472/86 473/85 471/437 470/438
f 818/184 817/185 815/244 816/186 819/183
f 71/439 72/440 69/65 70/64
f 1098/116 1096/115 1095/441 1097/442
f 341/443 339/444 338/445 340/446 342/447 343/448
f 101/449 97/99 99/101 100/450
f 522/451 523/452 520/453 519/454 521/455
f 1020/419 1021/420 1019/254 1018/257
f 516/339 514/340 513/456 515/341 517/338 518/457
f 833/235 835/236 834/232 832/233 831/234
f 921/394 922/355 920/458 919/459
f 480/460 479/461 477/430 478/429
f 523/452 522/451 524/462
f 1002/406 999/402 1000/404 1001/405
f 844/463 846/464 845/465 843/466 842/467
f 534/468 533/469 535/470
f 534/468 535/470 536/471
f 622/50 621/49 619/47 620/46
f 1034/425 1032/423 1031/424 1033/422
f 544/213 543/212 542/472
f 76/473 74/68 75/67 77/474 78/475
f 92/90 95/476 94/477 93/93
f 558/192 557/194 556/195
f 227/230 225/229 224/478 226/479
f 564/480 563/481 565/482
f 534/468 532/483 531/484 533/469
f 336/485 337/486 334/343 335/342
f 573/1 572/2 571/3
f 576/4 575/5 574/6
f 579/7 578/8 577/9
f 582/10 581/11 580/12
f 585/13 584/14 583/15
f 588/16 587/17 586/18
f 591/19 590/20 589/21
f 594/22 593/23 592/24
f 597/25 596/26 595/27
f 600/28 599/29 598/30
f 603/31 602/32 601/33
f 606/34 605/35 604/36
f 609/37 608/38 607/39
f 612/40 611/41 610/42
f 615/43 614/44 613/45
f 616/428 614/44 615/43
f 617/427 614/44 616/428
f 620/46 619/47 618/48
f 625/51 624/52 623/53
f 625/51 626/54 624/52
f 629/55 628/218 627/219
f 1015/417 1011/413 1013/415 1014/416
f 634/58 633/59 632/60
f 500/487 501/488 498/489 497/490 499/491
f 637/63 636/62 634/58
f 640/64 639/65 638/66
f 641/439 639/65 640/64
f 641/439 642/440 639/65
f 645/67 644/68 643/69
f 744/492 742/181 741/493 743/494
f 169/495 170/496 167/174 168/173
f 651/75 650/76 649/77
f 352/355 350/458 349/459 351/394 353/356
f 656/80 655/81 654/82
f 656/80 657/88 655/81
f 658/89 657/88 656/80
f 659/87 657/88 658/89
f 253/251 251/253 250/497 252/498
f 670/450 667/99 669/101
f 671/449 667/99 670/450
f 674/106 673/107 672/108
f 675/109 673/107 674/106
f 852/499 848/268 847/269 849/270 850/267 851/500
f 768/205 764/201 766/203 767/204
f 685/121 684/122 683/123
f 841/501 839/502 837/276 838/275 840/503
f 690/504 689/505 688/506
f 690/504 691/507 689/505
f 1050/460 1049/461 1047/430 1048/429
f 538/508 537/509 539/510 540/511 541/512
f 702/513 701/140 700/514
f 980/392 979/515 977/516 978/393 981/391
f 707/386 706/384 705/385
f 707/386 708/383 706/384
f 709/382 708/383 707/386
f 715/149 711/147 714/150
f 718/97 717/96 716/151
f 269/502 267/276 268/275 270/503 271/501
f 723/154 722/155 721/156
f 723/154 724/157 722/155
f 546/211 543/212 544/213 545/214
f 727/162 729/163 728/164
f 772/209 770/207 769/208 771/206
f 811/237 813/395 812/396 810/238
f 735/169 734/170 732/168
f 738/173 737/174 736/175
f 663/93 661/91 660/92 662/90 665/476 664/477
f 634/58 636/62 635/61 633/59
f 745/182 742/181 744/492
f 746/180 742/181 745/182
f 861/304 862/305 859/306 860/358
f 750/189 749/187 751/188
f 754/104 753/345 752/346
f 1075/517 1073/518 1072/519 1074/520 1076/521
f 757/102 755/103 756/105
f 530/114 526/115 525/441 527/442 528/116 529/117
f 761/197 760/198 762/199
f 765/200 764/201 763/202
f 766/203 764/201 765/200
f 770/207 772/209 773/210
f 776/411 775/410 774/522
f 781/215 780/216 779/217
f 782/523 780/216 781/215
f 783/524 780/216 782/523
f 786/222 785/418 784/525
f 739/495 740/496 737/174 738/173
f 1053/432 1054/435 1052/433 1051/434
f 796/479 795/229 794/478
f 797/230 795/229 796/479
f 798/228 795/229 797/230
f 801/226 800/225 799/231
f 733/165 731/166 730/167 732/168 734/170
f 806/368 805/366 804/367
f 807/369 805/366 806/368
f 805/366 807/369 808/370
f 811/237 810/238 809/239
f 913/448 911/443 909/444 908/445 910/446 912/447
f 816/186 815/244 814/245
f 1013/415 1011/413 1010/414 1012/412
f 822/498 821/253 820/497
f 823/251 821/253 822/498
f 823/251 824/252 821/253
f 827/526 826/527 825/528
f 275/465 273/466 272/467 274/463 276/464
f 830/264 828/265 829/266
f 213/524 210/216 211/215 212/523
f 1038/529 1039/530 1037/531 1036/532
f 838/275 837/276 836/277
f 829/266 828/265 826/527 827/526
f 714/150 711/147 710/148 712/146 713/533
f 704/139 701/140 702/513 703/141
f 1133/481 1135/482 1134/480 1132/534 1131/535
f 133/141 131/140 130/514 132/513
f 756/105 755/103 753/345 754/104
f 855/294 854/295 853/296
f 856/297 854/295 855/294
f 854/295 856/297 857/298
f 860/358 859/306 858/357
f 1090/453 1089/454 1091/455 1092/451 1094/462 1093/452
f 865/178 864/177 863/307
f 870/313 869/314 868/315
f 870/313 871/316 869/314
f 878/258 877/262 876/263
f 877/262 878/258 879/261
f 879/261 878/258 880/260
f 880/260 878/258 881/259
f 403/387 405/536 404/537 402/388
f 886/196 885/111 884/110
f 510/311 512/312 511/308 509/309 508/310
f 694/131 695/134 693/132 692/133
f 357/249 360/538 359/250 358/246
f 681/118 682/119 679/120 678/152 680/153
f 395/539 396/540 393/380 394/379
f 899/334 901/541 900/337 898/335 897/336
f 902/542 901/541 899/334
f 905/342 904/343 903/344
f 906/485 904/343 905/342
f 906/485 907/486 904/343
f 258/265 256/527 255/528 257/526 259/266
f 496/288 495/283 494/284 492/285 491/286 493/287
f 468/529 469/530 467/531 466/532
f 629/55 631/56 630/57 628/218
f 894/329 896/333 895/332 893/330 892/331
f 1110/511 1111/512 1108/508 1107/509 1109/510
f 929/250 927/249 930/538
f 933/328 932/326 931/327
f 934/325 932/326 933/328
f 935/352 932/326 934/325
f 936/351 932/326 935/352
f 939/289 938/293 937/361
f 940/292 938/293 939/289
f 646/473 644/68 645/67 647/474 648/475
f 945/362 944/363 943/364
f 945/362 946/365 944/363
f 949/543 948/544 947/545
f 950/546 948/544 949/543
f 950/546 951/547 948/544
f 954/548 953/372 952/549
f 955/373 953/372 954/548
f 956/371 953/372 955/373
f 448/257 450/419 449/254 447/255
f 88/89 87/88 85/81 86/80
f 964/379 963/380 962/381
f 965/539 963/380 964/379
f 963/380 965/539 966/540
f 969/550 968/551 967/552
f 969/550 970/553 968/551
f 973/387 972/388 971/389
f 1070/487 1071/488 1068/489 1069/491
f 978/393 977/516 976/554
f 120/504 121/507 119/505 118/506
f 408/393 410/392 409/515 407/516 406/554
f 570/555 567/556 566/557 568/558 569/559
f 985/347 986/390 983/348
f 989/560 988/561 987/562
f 990/398 988/561 989/560 991/399 992/397
f 304/563 305/564 303/565 302/566
f 1000/404 999/402 998/403
f 1002/406 1003/407 999/402
f 282/499 278/268 280/267 281/500
f 1007/240 1008/567 1005/241 1004/242 1006/243
f 1008/567 1007/240 1009/568
f 385/373 383/372 382/549 384/548
f 749/187 750/189 748/190 747/191
f 676/359 677/360 675/109 674/106
f 172/181 171/493 173/494 174/492 175/182
f 1024/158 1023/160 1022/161
f 1024/158 1025/159 1023/160
f 1028/320 1027/319 1026/421
f 332/542 331/541 330/337 329/334
f 378/544 377/545 379/543 380/546 381/547
f 1035/426 1032/423 1034/425
f 437/240 439/568 438/567 435/241
f 1042/86 1041/437 1040/438
f 1042/86 1043/85 1041/437
f 1042/86 1044/84 1043/85
f 1045/83 1044/84 1042/86
f 1048/429 1047/430 1046/431
f 760/198 761/197 759/400 758/401
f 874/563 875/564 873/565 872/566
f 1055/436 1054/435 1053/432
f 399/550 400/553 398/551 397/552
f 552/322 551/323 553/324 554/321 555/569
f 505/517 503/518 502/519 504/520 506/521 507/570
f 1069/491 1068/489 1067/490
f 207/408 208/409 205/410 204/522 206/411
f 973/387 975/536 974/537 972/388
f 1077/570 1075/517 1076/521
f 563/481 564/480 562/534 561/535
f 1085/341 1084/340 1083/456
f 1088/457 1086/339 1087/338
f 216/222 217/221 215/418 214/525
f 459/317 460/318 457/319 458/320
f 1103/469 1102/483 1101/484
f 1103/469 1105/470 1106/471 1104/468 1102/483
f 144/150 141/147 142/146 143/533
f 1114/213 1113/212 1112/472
f 958/375 957/376 959/374 960/377 961/378
f 421/399 420/398 418/561 417/562 419/560
f 549/271 550/272 548/273 547/274
f 1124/321 1125/569 1122/322
f 1128/192 1130/227 1129/193
f 916/279 918/280 917/281 915/282 914/353
f 1138/558 1137/556 1136/557
f 1139/559 1137/556 1138/558
f 1140/555 1137/556 1139/559
