o mosaic_hermit_claws_LOD1
v 0.366012 0.203824 0.628618
v 0.340411 0.229468 0.631780
v 0.430947 0.287451 0.576930
v 0.274051 0.218894 0.640992
v 0.255084 0.178665 0.667223
v 0.292595 0.215014 0.647265
v 0.292595 0.215014 0.647265
v 0.310431 0.184869 0.658373
v 0.340411 0.229468 0.631780
v 0.221394 0.152224 0.632386
v 0.232756 0.125438 0.607516
v 0.237483 0.120950 0.639984
v 0.513458 0.500915 0.207174
v 0.470700 0.476383 0.148344
v 0.449967 0.496146 0.192954
v 0.624160 0.446688 0.230470
v 0.563452 0.491222 0.238473
v 0.585413 0.468187 0.340443
v 0.357435 0.212680 0.128361
v 0.391525 0.156806 0.144208
v 0.310804 0.149676 0.233012
v 0.291346 0.121783 0.342984
v 0.308669 0.088496 0.465602
v 0.276817 0.107057 0.466879
v 0.574097 0.283916 0.085453
v 0.619651 0.280663 0.119133
v 0.603526 0.228352 0.121878
v 0.311775 0.421971 0.416941
v 0.307878 0.439048 0.368942
v 0.287235 0.379024 0.452930
v 0.513458 0.500915 0.207174
v 0.449967 0.496146 0.192954
v 0.456998 0.510853 0.238761
v 0.351796 0.480573 0.275116
v 0.315230 0.449738 0.267110
v 0.307878 0.439048 0.368942
v 0.287235 0.379024 0.452930
v 0.247415 0.278837 0.535168
v 0.266564 0.296651 0.546041
v 0.280508 0.157204 0.288469
v 0.310804 0.149676 0.233012
v 0.291346 0.121783 0.342984
v 0.430947 0.287451 0.576930
v 0.366012 0.203824 0.628618
v 0.474359 0.292189 0.553775
v 0.396608 0.202917 0.611126
v 0.444269 0.224662 0.581521
v 0.477212 0.124474 0.500436
v 0.477858 0.150597 0.527490
v 0.403079 0.124531 0.568818
v 0.377027 0.144773 0.609023
v 0.423722 0.162092 0.581288
v 0.640728 0.426823 0.259051
v 0.624160 0.446688 0.230470
v 0.615944 0.438491 0.342145
v 0.585413 0.468187 0.340443
v 0.658000 0.390448 0.229561
v 0.640728 0.426823 0.259051
v 0.663224 0.365490 0.319034
v 0.615614 0.394685 0.401282
v 0.615944 0.438491 0.342145
v 0.543841 0.326481 0.502524
v 0.535380 0.242056 0.516774
v 0.615614 0.394685 0.401282
v 0.663224 0.365490 0.319034
v 0.661445 0.292316 0.362619
v 0.572620 0.235413 0.480413
v 0.474588 0.209461 0.559172
v 0.535380 0.242056 0.516774
v 0.444269 0.224662 0.581521
v 0.543841 0.326481 0.502524
v 0.474359 0.292189 0.553775
v 0.477212 0.124474 0.500436
v 0.530411 0.129193 0.449227
v 0.477858 0.150597 0.527490
v 0.547137 0.175927 0.479299
v 0.591573 0.157867 0.409741
v 0.601538 0.180619 0.417089
v 0.661445 0.292316 0.362619
v 0.572620 0.235413 0.480413
v 0.663560 0.240983 0.331162
v 0.601538 0.180619 0.417089
v 0.547137 0.175927 0.479299
v 0.535380 0.242056 0.516774
v 0.474588 0.209461 0.559172
v 0.572620 0.235413 0.480413
v 0.547137 0.175927 0.479299
v 0.423722 0.162092 0.581288
v 0.477858 0.150597 0.527490
v 0.675427 0.265683 0.269811
v 0.663560 0.240983 0.331162
v 0.654563 0.201507 0.258158
v 0.626294 0.161248 0.332960
v 0.591573 0.157867 0.409741
v 0.601538 0.180619 0.417089
v 0.658000 0.390448 0.229561
v 0.663224 0.365490 0.319034
v 0.673836 0.332999 0.229550
v 0.661445 0.292316 0.362619
v 0.663560 0.240983 0.331162
v 0.675427 0.265683 0.269811
v 0.474359 0.292189 0.553775
v 0.543841 0.326481 0.502524
v 0.509370 0.381363 0.497974
v 0.534510 0.410707 0.465773
v 0.615614 0.394685 0.401282
v 0.615944 0.438491 0.342145
v 0.423722 0.162092 0.581288
v 0.474588 0.209461 0.559172
v 0.364207 0.168405 0.628590
v 0.444269 0.224662 0.581521
v 0.396608 0.202917 0.611126
v 0.654563 0.201507 0.258158
v 0.655787 0.277484 0.166435
v 0.675427 0.265683 0.269811
v 0.656085 0.344026 0.175205
v 0.673836 0.332999 0.229550
v 0.474359 0.292189 0.553775
v 0.509370 0.381363 0.497974
v 0.430947 0.287451 0.576930
v 0.410187 0.305505 0.576080
v 0.615944 0.438491 0.342145
v 0.585413 0.468187 0.340443
v 0.534510 0.410707 0.465773
v 0.542031 0.478419 0.379248
v 0.626294 0.161248 0.332960
v 0.591573 0.157867 0.409741
v 0.568359 0.120110 0.383910
v 0.530411 0.129193 0.449227
v 0.331722 0.156076 0.647975
v 0.364207 0.168405 0.628590
v 0.331507 0.173881 0.650122
v 0.396608 0.202917 0.611126
v 0.366012 0.203824 0.628618
v 0.423722 0.162092 0.581288
v 0.364207 0.168405 0.628590
v 0.377027 0.144773 0.609023
v 0.329502 0.136522 0.641178
v 0.331722 0.156076 0.647975
v 0.274051 0.218894 0.640992
v 0.255528 0.238203 0.606967
v 0.255084 0.178665 0.667223
v 0.233623 0.193459 0.630388
v 0.230290 0.166989 0.652217
v 0.240626 0.155305 0.664964
v 0.283285 0.097074 0.585085
v 0.257755 0.107663 0.636163
v 0.264730 0.104942 0.550131
v 0.232756 0.125438 0.607516
v 0.237483 0.120950 0.639984
v 0.331507 0.173881 0.650122
v 0.366012 0.203824 0.628618
v 0.310431 0.184869 0.658373
v 0.340411 0.229468 0.631780
v 0.331722 0.156076 0.647975
v 0.331507 0.173881 0.650122
v 0.292409 0.144430 0.670280
v 0.283506 0.162833 0.674048
v 0.310431 0.184869 0.658373
v 0.265604 0.165775 0.674441
v 0.258772 0.139105 0.671000
v 0.283506 0.162833 0.674048
v 0.292409 0.144430 0.670280
v 0.285621 0.130839 0.667364
v 0.266324 0.129187 0.667995
v 0.246204 0.135715 0.663662
v 0.258772 0.139105 0.671000
v 0.240626 0.155305 0.664964
v 0.265604 0.165775 0.674441
v 0.255084 0.178665 0.667223
v 0.257755 0.107663 0.636163
v 0.283285 0.097074 0.585085
v 0.267884 0.112450 0.652002
v 0.303809 0.098150 0.599101
v 0.280474 0.111699 0.649753
v 0.285621 0.130839 0.667364
v 0.266324 0.129187 0.667995
v 0.292269 0.119759 0.655163
v 0.280474 0.111699 0.649753
v 0.267884 0.112450 0.652002
v 0.258772 0.139105 0.671000
v 0.246204 0.135715 0.663662
v 0.266324 0.129187 0.667995
v 0.267884 0.112450 0.652002
v 0.237483 0.120950 0.639984
v 0.257755 0.107663 0.636163
v 0.320764 0.123210 0.636737
v 0.292269 0.119759 0.655163
v 0.341953 0.105578 0.593472
v 0.291186 0.106695 0.631551
v 0.280474 0.111699 0.649753
v 0.331722 0.156076 0.647975
v 0.292409 0.144430 0.670280
v 0.329502 0.136522 0.641178
v 0.285621 0.130839 0.667364
v 0.292269 0.119759 0.655163
v 0.320764 0.123210 0.636737
v 0.255084 0.178665 0.667223
v 0.265604 0.165775 0.674441
v 0.292595 0.215014 0.647265
v 0.283506 0.162833 0.674048
v 0.310431 0.184869 0.658373
v 0.237483 0.120950 0.639984
v 0.246204 0.135715 0.663662
v 0.221394 0.152224 0.632386
v 0.240626 0.155305 0.664964
v 0.230290 0.166989 0.652217
v 0.341953 0.105578 0.593472
v 0.403079 0.124531 0.568818
v 0.320764 0.123210 0.636737
v 0.377027 0.144773 0.609023
v 0.329502 0.136522 0.641178
v 0.381392 0.096364 0.541095
v 0.341953 0.105578 0.593472
v 0.334700 0.091511 0.559215
v 0.303809 0.098150 0.599101
v 0.291186 0.106695 0.631551
v 0.220201 0.170408 0.590796
v 0.221394 0.152224 0.632386
v 0.228074 0.207151 0.593607
v 0.230290 0.166989 0.652217
v 0.233623 0.193459 0.630388
v 0.563452 0.491222 0.238473
v 0.624160 0.446688 0.230470
v 0.567162 0.476158 0.187547
v 0.617740 0.436286 0.190843
v 0.601031 0.432540 0.162752
v 0.619651 0.280663 0.119133
v 0.614453 0.333504 0.114687
v 0.655787 0.277484 0.166435
v 0.656085 0.344026 0.175205
v 0.633706 0.368535 0.148680
v 0.446810 0.448104 0.121997
v 0.420317 0.462716 0.146511
v 0.470700 0.476383 0.148344
v 0.411209 0.487044 0.196286
v 0.449967 0.496146 0.192954
v 0.449290 0.412777 0.094980
v 0.446810 0.448104 0.121997
v 0.490231 0.419817 0.096924
v 0.508093 0.463257 0.136774
v 0.470700 0.476383 0.148344
v 0.546662 0.463563 0.152435
v 0.569948 0.416322 0.119042
v 0.508093 0.463257 0.136774
v 0.490231 0.419817 0.096924
v 0.526019 0.394588 0.088719
v 0.568185 0.397330 0.106688
v 0.600396 0.410344 0.138131
v 0.569948 0.416322 0.119042
v 0.601031 0.432540 0.162752
v 0.546662 0.463563 0.152435
v 0.567162 0.476158 0.187547
v 0.619651 0.280663 0.119133
v 0.574097 0.283916 0.085453
v 0.614453 0.333504 0.114687
v 0.580716 0.350833 0.094786
v 0.558487 0.314312 0.078609
v 0.556280 0.335894 0.079352
v 0.526019 0.394588 0.088719
v 0.568185 0.397330 0.106688
v 0.519680 0.354130 0.073091
v 0.556280 0.335894 0.079352
v 0.580716 0.350833 0.094786
v 0.569948 0.416322 0.119042
v 0.600396 0.410344 0.138131
v 0.568185 0.397330 0.106688
v 0.580716 0.350833 0.094786
v 0.633706 0.368535 0.148680
v 0.614453 0.333504 0.114687
v 0.495983 0.345836 0.067189
v 0.519680 0.354130 0.073091
v 0.510872 0.284586 0.064261
v 0.558487 0.314312 0.078609
v 0.556280 0.335894 0.079352
v 0.449290 0.412777 0.094980
v 0.490231 0.419817 0.096924
v 0.467103 0.373500 0.075050
v 0.526019 0.394588 0.088719
v 0.519680 0.354130 0.073091
v 0.495983 0.345836 0.067189
v 0.567162 0.476158 0.187547
v 0.546662 0.463563 0.152435
v 0.513458 0.500915 0.207174
v 0.508093 0.463257 0.136774
v 0.470700 0.476383 0.148344
v 0.633706 0.368535 0.148680
v 0.600396 0.410344 0.138131
v 0.645746 0.400727 0.197083
v 0.601031 0.432540 0.162752
v 0.617740 0.436286 0.190843
v 0.510872 0.284586 0.064261
v 0.428001 0.286470 0.073139
v 0.495983 0.345836 0.067189
v 0.426105 0.355485 0.078361
v 0.467103 0.373500 0.075050
v 0.563452 0.491222 0.238473
v 0.567162 0.476158 0.187547
v 0.533430 0.503683 0.251742
v 0.513458 0.500915 0.207174
v 0.510872 0.284586 0.064261
v 0.558487 0.314312 0.078609
v 0.513607 0.251184 0.070508
v 0.574097 0.283916 0.085453
v 0.501116 0.187742 0.100080
v 0.391525 0.156806 0.144208
v 0.513607 0.251184 0.070508
v 0.510872 0.284586 0.064261
v 0.428001 0.286470 0.073139
v 0.357435 0.212680 0.128361
v 0.654563 0.201507 0.258158
v 0.628808 0.177715 0.207891
v 0.655787 0.277484 0.166435
v 0.619651 0.280663 0.119133
v 0.603526 0.228352 0.121878
v 0.313610 0.089086 0.546869
v 0.283285 0.097074 0.585085
v 0.308669 0.088496 0.465602
v 0.264730 0.104942 0.550131
v 0.276817 0.107057 0.466879
v 0.334700 0.091511 0.559215
v 0.313610 0.089086 0.546869
v 0.375937 0.077560 0.476304
v 0.344756 0.079308 0.399324
v 0.308669 0.088496 0.465602
v 0.377905 0.095425 0.245888
v 0.492335 0.090750 0.215989
v 0.344756 0.079308 0.399324
v 0.375937 0.077560 0.476304
v 0.438012 0.076916 0.431378
v 0.506112 0.077261 0.286623
v 0.541835 0.154588 0.139312
v 0.492335 0.090750 0.215989
v 0.501116 0.187742 0.100080
v 0.377905 0.095425 0.245888
v 0.391525 0.156806 0.144208
v 0.654563 0.201507 0.258158
v 0.626294 0.161248 0.332960
v 0.628808 0.177715 0.207891
v 0.584385 0.113473 0.288713
v 0.568359 0.120110 0.383910
v 0.550544 0.103581 0.374727
v 0.438012 0.076916 0.431378
v 0.506112 0.077261 0.286623
v 0.473187 0.095070 0.453869
v 0.550544 0.103581 0.374727
v 0.584385 0.113473 0.288713
v 0.492335 0.090750 0.215989
v 0.541835 0.154588 0.139312
v 0.506112 0.077261 0.286623
v 0.584385 0.113473 0.288713
v 0.603526 0.228352 0.121878
v 0.628808 0.177715 0.207891
v 0.439409 0.099053 0.497939
v 0.473187 0.095070 0.453869
v 0.477212 0.124474 0.500436
v 0.530411 0.129193 0.449227
v 0.568359 0.120110 0.383910
v 0.550544 0.103581 0.374727
v 0.334700 0.091511 0.559215
v 0.375937 0.077560 0.476304
v 0.381392 0.096364 0.541095
v 0.438012 0.076916 0.431378
v 0.473187 0.095070 0.453869
v 0.439409 0.099053 0.497939
v 0.391525 0.156806 0.144208
v 0.377905 0.095425 0.245888
v 0.310804 0.149676 0.233012
v 0.291346 0.121783 0.342984
v 0.344756 0.079308 0.399324
v 0.308669 0.088496 0.465602
v 0.334700 0.091511 0.559215
v 0.303809 0.098150 0.599101
v 0.313610 0.089086 0.546869
v 0.283285 0.097074 0.585085
v 0.603526 0.228352 0.121878
v 0.541835 0.154588 0.139312
v 0.574097 0.283916 0.085453
v 0.501116 0.187742 0.100080
v 0.513607 0.251184 0.070508
v 0.477212 0.124474 0.500436
v 0.403079 0.124531 0.568818
v 0.439409 0.099053 0.497939
v 0.341953 0.105578 0.593472
v 0.381392 0.096364 0.541095
v 0.585413 0.468187 0.340443
v 0.563452 0.491222 0.238473
v 0.542031 0.478419 0.379248
v 0.533430 0.503683 0.251742
v 0.509904 0.509874 0.301200
v 0.456998 0.510853 0.238761
v 0.449967 0.496146 0.192954
v 0.389255 0.501220 0.288879
v 0.411209 0.487044 0.196286
v 0.351796 0.480573 0.275116
v 0.341443 0.257200 0.616921
v 0.340411 0.229468 0.631780
v 0.410187 0.305505 0.576080
v 0.430947 0.287451 0.576930
v 0.311403 0.248827 0.623904
v 0.341443 0.257200 0.616921
v 0.356936 0.320296 0.572500
v 0.426105 0.360025 0.538909
v 0.410187 0.305505 0.576080
v 0.491034 0.446384 0.451822
v 0.448844 0.492230 0.393805
v 0.426105 0.360025 0.538909
v 0.356936 0.320296 0.572500
v 0.349568 0.366957 0.527550
v 0.399328 0.468112 0.422531
v 0.466368 0.513383 0.314539
v 0.448844 0.492230 0.393805
v 0.509904 0.509874 0.301200
v 0.491034 0.446384 0.451822
v 0.542031 0.478419 0.379248
v 0.351796 0.480573 0.275116
v 0.307878 0.439048 0.368942
v 0.389255 0.501220 0.288879
v 0.366291 0.477721 0.373385
v 0.311775 0.421971 0.416941
v 0.329991 0.427897 0.431936
v 0.349568 0.366957 0.527550
v 0.399328 0.468112 0.422531
v 0.311297 0.356470 0.517777
v 0.329991 0.427897 0.431936
v 0.366291 0.477721 0.373385
v 0.456998 0.510853 0.238761
v 0.389255 0.501220 0.288879
v 0.466368 0.513383 0.314539
v 0.366291 0.477721 0.373385
v 0.399328 0.468112 0.422531
v 0.448844 0.492230 0.393805
v 0.266564 0.296651 0.546041
v 0.294245 0.312163 0.556354
v 0.287235 0.379024 0.452930
v 0.311297 0.356470 0.517777
v 0.311775 0.421971 0.416941
v 0.329991 0.427897 0.431936
v 0.311403 0.248827 0.623904
v 0.356936 0.320296 0.572500
v 0.297539 0.267118 0.605401
v 0.349568 0.366957 0.527550
v 0.311297 0.356470 0.517777
v 0.294245 0.312163 0.556354
v 0.542031 0.478419 0.379248
v 0.491034 0.446384 0.451822
v 0.534510 0.410707 0.465773
v 0.509370 0.381363 0.497974
v 0.426105 0.360025 0.538909
v 0.410187 0.305505 0.576080
v 0.311403 0.248827 0.623904
v 0.292595 0.215014 0.647265
v 0.341443 0.257200 0.616921
v 0.340411 0.229468 0.631780
v 0.456998 0.510853 0.238761
v 0.466368 0.513383 0.314539
v 0.513458 0.500915 0.207174
v 0.509904 0.509874 0.301200
v 0.533430 0.503683 0.251742
v 0.266564 0.296651 0.546041
v 0.255528 0.238203 0.606967
v 0.294245 0.312163 0.556354
v 0.274051 0.218894 0.640992
v 0.297539 0.267118 0.605401
v 0.297539 0.267118 0.605401
v 0.274051 0.218894 0.640992
v 0.311403 0.248827 0.623904
v 0.292595 0.215014 0.647265
v 0.341351 0.419464 0.169446
v 0.315230 0.449738 0.267110
v 0.390599 0.437456 0.141370
v 0.420317 0.462716 0.146511
v 0.411209 0.487044 0.196286
v 0.351796 0.480573 0.275116
v 0.357435 0.212680 0.128361
v 0.334260 0.264907 0.129082
v 0.428001 0.286470 0.073139
v 0.426105 0.355485 0.078361
v 0.377593 0.349886 0.100482
v 0.266564 0.296651 0.546041
v 0.247415 0.278837 0.535168
v 0.255528 0.238203 0.606967
v 0.233623 0.193459 0.630388
v 0.228074 0.207151 0.593607
v 0.220201 0.170408 0.590796
v 0.228074 0.207151 0.593607
v 0.222187 0.218586 0.505113
v 0.242098 0.306845 0.466673
v 0.247415 0.278837 0.535168
v 0.266665 0.391955 0.338092
v 0.262050 0.344040 0.245252
v 0.242098 0.306845 0.466673
v 0.222187 0.218586 0.505113
v 0.226505 0.208560 0.425488
v 0.244714 0.283545 0.275770
v 0.315456 0.370353 0.163176
v 0.262050 0.344040 0.245252
v 0.341351 0.419464 0.169446
v 0.266665 0.391955 0.338092
v 0.315230 0.449738 0.267110
v 0.357435 0.212680 0.128361
v 0.310804 0.149676 0.233012
v 0.334260 0.264907 0.129082
v 0.275185 0.230154 0.216862
v 0.280508 0.157204 0.288469
v 0.264657 0.177527 0.297454
v 0.226505 0.208560 0.425488
v 0.244714 0.283545 0.275770
v 0.244576 0.158706 0.413939
v 0.264657 0.177527 0.297454
v 0.275185 0.230154 0.216862
v 0.262050 0.344040 0.245252
v 0.315456 0.370353 0.163176
v 0.244714 0.283545 0.275770
v 0.275185 0.230154 0.216862
v 0.377593 0.349886 0.100482
v 0.334260 0.264907 0.129082
v 0.276817 0.107057 0.466879
v 0.246342 0.137675 0.473388
v 0.291346 0.121783 0.342984
v 0.244576 0.158706 0.413939
v 0.280508 0.157204 0.288469
v 0.264657 0.177527 0.297454
v 0.220201 0.170408 0.590796
v 0.222187 0.218586 0.505113
v 0.229109 0.146228 0.548269
v 0.226505 0.208560 0.425488
v 0.244576 0.158706 0.413939
v 0.246342 0.137675 0.473388
v 0.315230 0.449738 0.267110
v 0.266665 0.391955 0.338092
v 0.307878 0.439048 0.368942
v 0.287235 0.379024 0.452930
v 0.242098 0.306845 0.466673
v 0.247415 0.278837 0.535168
v 0.377593 0.349886 0.100482
v 0.315456 0.370353 0.163176
v 0.426471 0.411678 0.102230
v 0.341351 0.419464 0.169446
v 0.390599 0.437456 0.141370
v 0.276817 0.107057 0.466879
v 0.264730 0.104942 0.550131
v 0.246342 0.137675 0.473388
v 0.232756 0.125438 0.607516
v 0.229109 0.146228 0.548269
v 0.220201 0.170408 0.590796
v 0.229109 0.146228 0.548269
v 0.221394 0.152224 0.632386
v 0.232756 0.125438 0.607516
v 0.658000 0.390448 0.229561
v 0.645746 0.400727 0.197083
v 0.640728 0.426823 0.259051
v 0.617740 0.436286 0.190843
v 0.624160 0.446688 0.230470
v 0.633706 0.368535 0.148680
v 0.645746 0.400727 0.197083
v 0.656085 0.344026 0.175205
v 0.673836 0.332999 0.229550
v 0.658000 0.390448 0.229561
v 0.377593 0.349886 0.100482
v 0.426471 0.411678 0.102230
v 0.426105 0.355485 0.078361
v 0.467103 0.373500 0.075050
v 0.449290 0.412777 0.094980
v 0.449290 0.412777 0.094980
v 0.426471 0.411678 0.102230
v 0.446810 0.448104 0.121997
v 0.390599 0.437456 0.141370
v 0.420317 0.462716 0.146511
v -0.591066 0.474475 0.222928
v -0.537393 0.503100 0.301373
v -0.537960 0.498708 0.222240
v -0.472753 0.477969 0.150898
v -0.507603 0.462032 0.135332
v -0.504545 0.486783 0.170885
v -0.504545 0.486783 0.170885
v -0.563349 0.479346 0.189693
v -0.537960 0.498708 0.222240
v -0.490033 0.395305 0.083208
v -0.509911 0.355964 0.071610
v -0.535032 0.374253 0.081285
v -0.244085 0.208650 0.628922
v -0.221465 0.162893 0.629636
v -0.226313 0.214127 0.572118
v -0.322570 0.211291 0.644855
v -0.280708 0.228931 0.634447
v -0.368000 0.324991 0.569413
v -0.347584 0.081123 0.364297
v -0.391145 0.069539 0.358075
v -0.388353 0.088799 0.251434
v -0.444958 0.137958 0.142845
v -0.554458 0.230812 0.090283
v -0.512393 0.242119 0.072137
v -0.345721 0.096336 0.568806
v -0.378743 0.113567 0.576074
v -0.411079 0.100717 0.526129
v -0.279308 0.411018 0.309237
v -0.253389 0.364805 0.330968
v -0.296738 0.420618 0.246572
v -0.244085 0.208650 0.628922
v -0.226313 0.214127 0.572118
v -0.243837 0.259369 0.556995
v -0.232975 0.292947 0.434050
v -0.229279 0.273907 0.389621
v -0.253389 0.364805 0.330968
v -0.296738 0.420618 0.246572
v -0.379386 0.425234 0.138317
v -0.384044 0.455183 0.165612
v -0.383562 0.119153 0.189840
v -0.388353 0.088799 0.251434
v -0.444958 0.137958 0.142845
v -0.537393 0.503100 0.301373
v -0.591066 0.474475 0.222928
v -0.555496 0.484633 0.346414
v -0.607930 0.466587 0.243822
v -0.614206 0.457454 0.282108
v -0.679086 0.301788 0.268369
v -0.674134 0.345719 0.280032
v -0.662382 0.359014 0.195132
v -0.647700 0.403368 0.204310
v -0.653775 0.400378 0.231016
v -0.366344 0.231766 0.621955
v -0.322570 0.211291 0.644855
v -0.401569 0.311600 0.574507
v -0.368000 0.324991 0.569413
v -0.378302 0.198059 0.622176
v -0.366344 0.231766 0.621955
v -0.453704 0.263016 0.572915
v -0.464491 0.351070 0.534501
v -0.401569 0.311600 0.574507
v -0.546417 0.443244 0.428736
v -0.617752 0.409419 0.382321
v -0.464491 0.351070 0.534501
v -0.453704 0.263016 0.572915
v -0.526381 0.268992 0.525216
v -0.620738 0.360535 0.418776
v -0.641325 0.420191 0.300808
v -0.617752 0.409419 0.382321
v -0.614206 0.457454 0.282108
v -0.546417 0.443244 0.428736
v -0.555496 0.484633 0.346414
v -0.679086 0.301788 0.268369
v -0.666764 0.261458 0.334681
v -0.674134 0.345719 0.280032
v -0.658511 0.318793 0.366546
v -0.632847 0.242254 0.410380
v -0.624920 0.261135 0.426232
v -0.526381 0.268992 0.525216
v -0.620738 0.360535 0.418776
v -0.538046 0.221256 0.509606
v -0.624920 0.261135 0.426232
v -0.658511 0.318793 0.366546
v -0.617752 0.409419 0.382321
v -0.641325 0.420191 0.300808
v -0.620738 0.360535 0.418776
v -0.658511 0.318793 0.366546
v -0.653775 0.400378 0.231016
v -0.674134 0.345719 0.280032
v -0.487415 0.189432 0.542652
v -0.538046 0.221256 0.509606
v -0.513740 0.163729 0.503564
v -0.579700 0.185861 0.450550
v -0.632847 0.242254 0.410380
v -0.624920 0.261135 0.426232
v -0.378302 0.198059 0.622176
v -0.453704 0.263016 0.572915
v -0.422279 0.189169 0.592479
v -0.526381 0.268992 0.525216
v -0.538046 0.221256 0.509606
v -0.487415 0.189432 0.542652
v -0.555496 0.484633 0.346414
v -0.546417 0.443244 0.428736
v -0.481585 0.470476 0.425500
v -0.453808 0.440854 0.467637
v -0.464491 0.351070 0.534501
v -0.401569 0.311600 0.574507
v -0.653775 0.400378 0.231016
v -0.641325 0.420191 0.300808
v -0.624898 0.440069 0.213664
v -0.614206 0.457454 0.282108
v -0.607930 0.466587 0.243822
v -0.513740 0.163729 0.503564
v -0.416541 0.134439 0.567842
v -0.487415 0.189432 0.542652
v -0.370039 0.154456 0.619708
v -0.422279 0.189169 0.592479
v -0.555496 0.484633 0.346414
v -0.481585 0.470476 0.425500
v -0.537393 0.503100 0.301373
v -0.505264 0.511416 0.295454
v -0.401569 0.311600 0.574507
v -0.368000 0.324991 0.569413
v -0.453808 0.440854 0.467637
v -0.362756 0.368020 0.531169
v -0.579700 0.185861 0.450550
v -0.632847 0.242254 0.410380
v -0.632172 0.198246 0.381505
v -0.666764 0.261458 0.334681
v -0.612265 0.442748 0.189958
v -0.624898 0.440069 0.213664
v -0.593040 0.466353 0.204995
v -0.607930 0.466587 0.243822
v -0.591066 0.474475 0.222928
v -0.653775 0.400378 0.231016
v -0.624898 0.440069 0.213664
v -0.647700 0.403368 0.204310
v -0.628179 0.409857 0.171884
v -0.612265 0.442748 0.189958
v -0.472753 0.477969 0.150898
v -0.435105 0.465335 0.141485
v -0.507603 0.462032 0.135332
v -0.460990 0.437971 0.110786
v -0.488094 0.418715 0.095865
v -0.521946 0.421245 0.102474
v -0.580638 0.318670 0.088960
v -0.570504 0.352974 0.090207
v -0.542208 0.300888 0.071386
v -0.509911 0.355964 0.071610
v -0.535032 0.374253 0.081285
v -0.593040 0.466353 0.204995
v -0.591066 0.474475 0.222928
v -0.563349 0.479346 0.189693
v -0.537960 0.498708 0.222240
v -0.612265 0.442748 0.189958
v -0.593040 0.466353 0.204995
v -0.588397 0.445530 0.162003
v -0.560103 0.466395 0.166963
v -0.563349 0.479346 0.189693
v -0.538532 0.453623 0.136304
v -0.560804 0.417585 0.114660
v -0.560103 0.466395 0.166963
v -0.588397 0.445530 0.162003
v -0.599506 0.414341 0.140294
v -0.567859 0.413127 0.115340
v -0.531779 0.411829 0.098669
v -0.560804 0.417585 0.114660
v -0.521946 0.421245 0.102474
v -0.538532 0.453623 0.136304
v -0.507603 0.462032 0.135332
v -0.570504 0.352974 0.090207
v -0.580638 0.318670 0.088960
v -0.578167 0.375100 0.100604
v -0.612336 0.330147 0.112300
v -0.607204 0.372327 0.120958
v -0.599506 0.414341 0.140294
v -0.567859 0.413127 0.115340
v -0.614345 0.379009 0.131859
v -0.607204 0.372327 0.120958
v -0.578167 0.375100 0.100604
v -0.560804 0.417585 0.114660
v -0.531779 0.411829 0.098669
v -0.567859 0.413127 0.115340
v -0.578167 0.375100 0.100604
v -0.535032 0.374253 0.081285
v -0.570504 0.352974 0.090207
v -0.634509 0.379251 0.156414
v -0.614345 0.379009 0.131859
v -0.641303 0.334077 0.145236
v -0.611590 0.348423 0.116826
v -0.607204 0.372327 0.120958
v -0.612265 0.442748 0.189958
v -0.588397 0.445530 0.162003
v -0.628179 0.409857 0.171884
v -0.599506 0.414341 0.140294
v -0.614345 0.379009 0.131859
v -0.634509 0.379251 0.156414
v -0.507603 0.462032 0.135332
v -0.538532 0.453623 0.136304
v -0.504545 0.486783 0.170885
v -0.560103 0.466395 0.166963
v -0.563349 0.479346 0.189693
v -0.535032 0.374253 0.081285
v -0.531779 0.411829 0.098669
v -0.490033 0.395305 0.083208
v -0.521946 0.421245 0.102474
v -0.488094 0.418715 0.095865
v -0.641303 0.334077 0.145236
v -0.662382 0.359014 0.195132
v -0.634509 0.379251 0.156414
v -0.647700 0.403368 0.204310
v -0.628179 0.409857 0.171884
v -0.654073 0.303188 0.162999
v -0.641303 0.334077 0.145236
v -0.623665 0.301409 0.122370
v -0.612336 0.330147 0.112300
v -0.611590 0.348423 0.116826
v -0.462141 0.380034 0.078065
v -0.490033 0.395305 0.083208
v -0.442241 0.412884 0.096304
v -0.488094 0.418715 0.095865
v -0.460990 0.437971 0.110786
v -0.280708 0.228931 0.634447
v -0.322570 0.211291 0.644855
v -0.258588 0.177869 0.668854
v -0.294158 0.169609 0.668756
v -0.279035 0.155067 0.675369
v -0.378743 0.113567 0.576074
v -0.322186 0.117948 0.629581
v -0.416541 0.134439 0.567842
v -0.370039 0.154456 0.619708
v -0.316546 0.136529 0.650669
v -0.222898 0.147276 0.602022
v -0.221474 0.173402 0.548636
v -0.221465 0.162893 0.629636
v -0.223157 0.221228 0.527622
v -0.226313 0.214127 0.572118
v -0.233399 0.126517 0.596357
v -0.222898 0.147276 0.602022
v -0.232861 0.124738 0.636677
v -0.226992 0.151080 0.648682
v -0.221465 0.162893 0.629636
v -0.243692 0.159805 0.667022
v -0.262806 0.132347 0.669114
v -0.226992 0.151080 0.648682
v -0.232861 0.124738 0.636677
v -0.248649 0.113661 0.642651
v -0.263611 0.120423 0.660811
v -0.279988 0.136167 0.671317
v -0.262806 0.132347 0.669114
v -0.279035 0.155067 0.675369
v -0.243692 0.159805 0.667022
v -0.258588 0.177869 0.668854
v -0.378743 0.113567 0.576074
v -0.345721 0.096336 0.568806
v -0.322186 0.117948 0.629581
v -0.283851 0.111969 0.648837
v -0.308480 0.099367 0.601117
v -0.278813 0.106215 0.636739
v -0.248649 0.113661 0.642651
v -0.263611 0.120423 0.660811
v -0.263137 0.105241 0.628919
v -0.278813 0.106215 0.636739
v -0.283851 0.111969 0.648837
v -0.262806 0.132347 0.669114
v -0.279988 0.136167 0.671317
v -0.263611 0.120423 0.660811
v -0.283851 0.111969 0.648837
v -0.316546 0.136529 0.650669
v -0.322186 0.117948 0.629581
v -0.274415 0.099313 0.587023
v -0.263137 0.105241 0.628919
v -0.324505 0.087063 0.537266
v -0.308480 0.099367 0.601117
v -0.278813 0.106215 0.636739
v -0.233399 0.126517 0.596357
v -0.232861 0.124738 0.636677
v -0.252759 0.109347 0.587361
v -0.248649 0.113661 0.642651
v -0.263137 0.105241 0.628919
v -0.274415 0.099313 0.587023
v -0.258588 0.177869 0.668854
v -0.243692 0.159805 0.667022
v -0.244085 0.208650 0.628922
v -0.226992 0.151080 0.648682
v -0.221465 0.162893 0.629636
v -0.316546 0.136529 0.650669
v -0.279988 0.136167 0.671317
v -0.333882 0.172277 0.648762
v -0.279035 0.155067 0.675369
v -0.294158 0.169609 0.668756
v -0.324505 0.087063 0.537266
v -0.309263 0.088017 0.471199
v -0.274415 0.099313 0.587023
v -0.267337 0.106681 0.519200
v -0.252759 0.109347 0.587361
v -0.280708 0.228931 0.634447
v -0.258588 0.177869 0.668854
v -0.276798 0.253192 0.608981
v -0.244085 0.208650 0.628922
v -0.324505 0.087063 0.537266
v -0.308480 0.099367 0.601117
v -0.355445 0.082260 0.507951
v -0.345721 0.096336 0.568806
v -0.399459 0.075176 0.457735
v -0.391145 0.069539 0.358075
v -0.324505 0.087063 0.537266
v -0.309263 0.088017 0.471199
v -0.347584 0.081123 0.364297
v -0.513740 0.163729 0.503564
v -0.491083 0.126978 0.489264
v -0.416541 0.134439 0.567842
v -0.378743 0.113567 0.576074
v -0.411079 0.100717 0.526129
v -0.596414 0.289440 0.098728
v -0.580638 0.318670 0.088960
v -0.554458 0.230812 0.090283
v -0.542208 0.300888 0.071386
v -0.512393 0.242119 0.072137
v -0.623665 0.301409 0.122370
v -0.596414 0.289440 0.098728
v -0.629756 0.235609 0.143283
v -0.555686 0.160435 0.139875
v -0.554458 0.230812 0.090283
v -0.466782 0.072272 0.275979
v -0.502746 0.080847 0.370057
v -0.555686 0.160435 0.139875
v -0.629756 0.235609 0.143283
v -0.645520 0.198530 0.219333
v -0.559081 0.103956 0.354007
v -0.444233 0.082823 0.450208
v -0.502746 0.080847 0.370057
v -0.399459 0.075176 0.457735
v -0.466782 0.072272 0.275979
v -0.391145 0.069539 0.358075
v -0.513740 0.163729 0.503564
v -0.579700 0.185861 0.450550
v -0.491083 0.126978 0.489264
v -0.563511 0.134442 0.415130
v -0.632172 0.198246 0.381505
v -0.629782 0.177271 0.362486
v -0.645520 0.198530 0.219333
v -0.559081 0.103956 0.354007
v -0.668282 0.236316 0.255682
v -0.629782 0.177271 0.362486
v -0.563511 0.134442 0.415130
v -0.502746 0.080847 0.370057
v -0.444233 0.082823 0.450208
v -0.559081 0.103956 0.354007
v -0.563511 0.134442 0.415130
v -0.411079 0.100717 0.526129
v -0.491083 0.126978 0.489264
v -0.672249 0.280893 0.217967
v -0.668282 0.236316 0.255682
v -0.679086 0.301788 0.268369
v -0.666764 0.261458 0.334681
v -0.632172 0.198246 0.381505
v -0.629782 0.177271 0.362486
v -0.623665 0.301409 0.122370
v -0.629756 0.235609 0.143283
v -0.654073 0.303188 0.162999
v -0.645520 0.198530 0.219333
v -0.668282 0.236316 0.255682
v -0.672249 0.280893 0.217967
v -0.391145 0.069539 0.358075
v -0.466782 0.072272 0.275979
v -0.388353 0.088799 0.251434
v -0.444958 0.137958 0.142845
v -0.555686 0.160435 0.139875
v -0.554458 0.230812 0.090283
v -0.623665 0.301409 0.122370
v -0.612336 0.330147 0.112300
v -0.596414 0.289440 0.098728
v -0.580638 0.318670 0.088960
v -0.411079 0.100717 0.526129
v -0.444233 0.082823 0.450208
v -0.345721 0.096336 0.568806
v -0.399459 0.075176 0.457735
v -0.355445 0.082260 0.507951
v -0.679086 0.301788 0.268369
v -0.662382 0.359014 0.195132
v -0.672249 0.280893 0.217967
v -0.641303 0.334077 0.145236
v -0.654073 0.303188 0.162999
v -0.368000 0.324991 0.569413
v -0.280708 0.228931 0.634447
v -0.362756 0.368020 0.531169
v -0.276798 0.253192 0.608981
v -0.291009 0.306622 0.560247
v -0.243837 0.259369 0.556995
v -0.226313 0.214127 0.572118
v -0.243265 0.309229 0.467534
v -0.223157 0.221228 0.527622
v -0.232975 0.292947 0.434050
v -0.507759 0.504828 0.220676
v -0.537960 0.498708 0.222240
v -0.505264 0.511416 0.295454
v -0.537393 0.503100 0.301373
v -0.485919 0.500045 0.196165
v -0.507759 0.504828 0.220676
v -0.445237 0.511822 0.256905
v -0.455425 0.509673 0.341345
v -0.505264 0.511416 0.295454
v -0.394237 0.444072 0.454580
v -0.318651 0.402744 0.461551
v -0.455425 0.509673 0.341345
v -0.445237 0.511822 0.256905
v -0.384734 0.498940 0.283803
v -0.313169 0.429969 0.403728
v -0.277237 0.327150 0.519211
v -0.318651 0.402744 0.461551
v -0.291009 0.306622 0.560247
v -0.394237 0.444072 0.454580
v -0.362756 0.368020 0.531169
v -0.232975 0.292947 0.434050
v -0.253389 0.364805 0.330968
v -0.243265 0.309229 0.467534
v -0.269778 0.380973 0.398678
v -0.279308 0.411018 0.309237
v -0.289318 0.424796 0.316992
v -0.384734 0.498940 0.283803
v -0.313169 0.429969 0.403728
v -0.360300 0.479851 0.246803
v -0.289318 0.424796 0.316992
v -0.269778 0.380973 0.398678
v -0.243837 0.259369 0.556995
v -0.243265 0.309229 0.467534
v -0.269778 0.380973 0.398678
v -0.313169 0.429969 0.403728
v -0.318651 0.402744 0.461551
v -0.384044 0.455183 0.165612
v -0.395529 0.482106 0.198625
v -0.296738 0.420618 0.246572
v -0.360300 0.479851 0.246803
v -0.279308 0.411018 0.309237
v -0.289318 0.424796 0.316992
v -0.485919 0.500045 0.196165
v -0.445237 0.511822 0.256905
v -0.452680 0.494630 0.187930
v -0.384734 0.498940 0.283803
v -0.360300 0.479851 0.246803
v -0.395529 0.482106 0.198625
v -0.362756 0.368020 0.531169
v -0.394237 0.444072 0.454580
v -0.453808 0.440854 0.467637
v -0.481585 0.470476 0.425500
v -0.455425 0.509673 0.341345
v -0.505264 0.511416 0.295454
v -0.485919 0.500045 0.196165
v -0.504545 0.486783 0.170885
v -0.507759 0.504828 0.220676
v -0.537960 0.498708 0.222240
v -0.243837 0.259369 0.556995
v -0.277237 0.327150 0.519211
v -0.244085 0.208650 0.628922
v -0.291009 0.306622 0.560247
v -0.276798 0.253192 0.608981
v -0.384044 0.455183 0.165612
v -0.435105 0.465335 0.141485
v -0.395529 0.482106 0.198625
v -0.472753 0.477969 0.150898
v -0.452680 0.494630 0.187930
v -0.452680 0.494630 0.187930
v -0.472753 0.477969 0.150898
v -0.485919 0.500045 0.196165
v -0.504545 0.486783 0.170885
v -0.230854 0.183338 0.438033
v -0.229279 0.273907 0.389621
v -0.226752 0.167233 0.507450
v -0.221474 0.173402 0.548636
v -0.223157 0.221228 0.527622
v -0.232975 0.292947 0.434050
v -0.347584 0.081123 0.364297
v -0.308369 0.100644 0.373211
v -0.309263 0.088017 0.471199
v -0.267337 0.106681 0.519200
v -0.266122 0.116901 0.461155
v -0.384044 0.455183 0.165612
v -0.379386 0.425234 0.138317
v -0.435105 0.465335 0.141485
v -0.460990 0.437971 0.110786
v -0.442241 0.412884 0.096304
v -0.462141 0.380034 0.078065
v -0.442241 0.412884 0.096304
v -0.401205 0.356120 0.088508
v -0.324416 0.386270 0.160902
v -0.379386 0.425234 0.138317
v -0.243924 0.309554 0.284145
v -0.249882 0.207480 0.305448
v -0.324416 0.386270 0.160902
v -0.401205 0.356120 0.088508
v -0.370357 0.280009 0.100035
v -0.275233 0.191565 0.244305
v -0.246479 0.162012 0.396534
v -0.249882 0.207480 0.305448
v -0.230854 0.183338 0.438033
v -0.243924 0.309554 0.284145
v -0.229279 0.273907 0.389621
v -0.347584 0.081123 0.364297
v -0.388353 0.088799 0.251434
v -0.308369 0.100644 0.373211
v -0.314646 0.124726 0.272785
v -0.383562 0.119153 0.189840
v -0.361610 0.139897 0.180939
v -0.370357 0.280009 0.100035
v -0.275233 0.191565 0.244305
v -0.417270 0.233465 0.088603
v -0.361610 0.139897 0.180939
v -0.314646 0.124726 0.272785
v -0.249882 0.207480 0.305448
v -0.246479 0.162012 0.396534
v -0.275233 0.191565 0.244305
v -0.314646 0.124726 0.272785
v -0.266122 0.116901 0.461155
v -0.308369 0.100644 0.373211
v -0.512393 0.242119 0.072137
v -0.465685 0.274227 0.063812
v -0.444958 0.137958 0.142845
v -0.417270 0.233465 0.088603
v -0.383562 0.119153 0.189840
v -0.361610 0.139897 0.180939
v -0.462141 0.380034 0.078065
v -0.401205 0.356120 0.088508
v -0.475499 0.333053 0.064889
v -0.370357 0.280009 0.100035
v -0.417270 0.233465 0.088603
v -0.465685 0.274227 0.063812
v -0.229279 0.273907 0.389621
v -0.243924 0.309554 0.284145
v -0.253389 0.364805 0.330968
v -0.296738 0.420618 0.246572
v -0.324416 0.386270 0.160902
v -0.379386 0.425234 0.138317
v -0.266122 0.116901 0.461155
v -0.246479 0.162012 0.396534
v -0.235470 0.133705 0.550404
v -0.230854 0.183338 0.438033
v -0.226752 0.167233 0.507450
v -0.512393 0.242119 0.072137
v -0.542208 0.300888 0.071386
v -0.465685 0.274227 0.063812
v -0.509911 0.355964 0.071610
v -0.475499 0.333053 0.064889
v -0.462141 0.380034 0.078065
v -0.475499 0.333053 0.064889
v -0.490033 0.395305 0.083208
v -0.509911 0.355964 0.071610
v -0.378302 0.198059 0.622176
v -0.333882 0.172277 0.648762
v -0.366344 0.231766 0.621955
v -0.294158 0.169609 0.668756
v -0.322570 0.211291 0.644855
v -0.316546 0.136529 0.650669
v -0.333882 0.172277 0.648762
v -0.370039 0.154456 0.619708
v -0.422279 0.189169 0.592479
v -0.378302 0.198059 0.622176
v -0.266122 0.116901 0.461155
v -0.235470 0.133705 0.550404
v -0.267337 0.106681 0.519200
v -0.252759 0.109347 0.587361
v -0.233399 0.126517 0.596357
v -0.233399 0.126517 0.596357
v -0.235470 0.133705 0.550404
v -0.222898 0.147276 0.602022
v -0.226752 0.167233 0.507450
v -0.221474 0.173402 0.548636
vt 0.918798 0.115675
vt 0.919856 0.179201
vt 0.852637 0.145730
vt 0.931226 0.114712
vt 0.976893 0.046646
vt 0.977209 0.107030
vt 0.891932 0.189518
vt 0.937104 0.191105
vt 0.939342 0.271719
vt 0.347171 0.978798
vt 0.356292 0.947830
vt 0.405461 0.983653
vt 0.351046 0.871186
vt 0.355719 0.915724
vt 0.270369 0.920145
vt 0.173956 0.888708
vt 0.102476 0.884992
vt 0.131792 0.817461
vt 0.477256 0.430091
vt 0.434690 0.386361
vt 0.485032 0.385676
vt 0.926112 0.509229
vt 0.925868 0.464146
vt 0.983642 0.461888
vt 0.116765 0.391657
vt 0.139774 0.364022
vt 0.171062 0.397072
vt 0.336134 0.437650
vt 0.290016 0.437337
vt 0.314739 0.413745
vt 0.973135 0.605888
vt 0.940172 0.634714
vt 0.891932 0.602513
vt 0.140688 0.327176
vt 0.091759 0.300581
vt 0.135387 0.286327
vt 0.233214 0.048527
vt 0.232861 0.009886
vt 0.282636 0.007812
vt 0.534653 0.146414
vt 0.488273 0.146728
vt 0.512816 0.122588
vt 0.370391 0.635901
vt 0.410823 0.605245
vt 0.432882 0.674018
vt 0.375207 0.667901
vt 0.906874 0.582927
vt 0.868712 0.536785
vt 0.886651 0.496322
vt 0.919908 0.524470
vt 0.319364 0.977893
vt 0.270369 0.973026
vt 0.271921 0.947208
vt 0.314171 0.929363
vt 0.338593 0.952430
vt 0.166557 0.008209
vt 0.213773 0.007812
vt 0.221558 0.027581
vt 0.205868 0.054223
vt 0.315278 0.732265
vt 0.269284 0.777173
vt 0.261439 0.726562
vt 0.342575 0.808559
vt 0.364426 0.769084
vt 0.356116 0.527431
vt 0.377778 0.577960
vt 0.304096 0.613311
vt 0.256080 0.598848
vt 0.267967 0.551870
vt 0.084615 0.988655
vt 0.085245 0.954988
vt 0.138530 0.965422
vt 0.133433 0.989237
vt 0.911694 0.373232
vt 0.882423 0.324199
vt 0.913355 0.318002
vt 0.933450 0.359129
vt 0.292446 0.811951
vt 0.345379 0.828597
vt 0.347035 0.853026
vt 0.310826 0.877166
vt 0.665097 0.411459
vt 0.753187 0.439108
vt 0.684721 0.455174
vt 0.261202 0.804144
vt 0.222904 0.829007
vt 0.190313 0.777326
vt 0.251595 0.769812
vt 0.609655 0.874457
vt 0.612634 0.903026
vt 0.561028 0.917659
vt 0.532926 0.886741
vt 0.574291 0.857287
vt 0.944438 0.331952
vt 0.927654 0.309566
vt 0.981326 0.286825
vt 0.991413 0.306449
vt 0.249204 0.624703
vt 0.180416 0.591097
vt 0.235540 0.574942
vt 0.934130 0.733548
vt 0.940587 0.772055
vt 0.888359 0.779948
vt 0.905072 0.726724
vt 0.139984 0.621754
vt 0.144800 0.653754
vt 0.194993 0.358595
vt 0.200696 0.215986
vt 0.277737 0.251997
vt 0.285028 0.329856
vt 0.109329 0.813654
vt 0.084477 0.753393
vt 0.141894 0.752273
vt 0.168182 0.775896
vt 0.770013 0.845966
vt 0.774467 0.906915
vt 0.731183 0.876761
vt 0.465947 0.589089
vt 0.479611 0.638850
vt 0.947331 0.040295
vt 0.895504 0.045268
vt 0.918230 0.007812
vt 0.930751 0.086544
vt 0.899730 0.083948
vt 0.056893 0.990415
vt 0.009308 0.991409
vt 0.007812 0.966452
vt 0.046297 0.944440
vt 0.072403 0.963754
vt 0.977970 0.847754
vt 0.929440 0.852946
vt 0.934307 0.803952
vt 0.960125 0.805504
vt 0.421121 0.975652
vt 0.425468 0.927815
vt 0.456527 0.954890
vt 0.390038 0.948849
vt 0.689274 0.624790
vt 0.661721 0.713152
vt 0.604370 0.692413
vt 0.607492 0.632141
vt 0.488753 0.953171
vt 0.456123 0.931617
vt 0.469737 0.894690
vt 0.500677 0.899121
vt 0.526313 0.924959
vt 0.524492 0.945773
vt 0.216613 0.844515
vt 0.275322 0.898516
vt 0.233191 0.903621
vt 0.193567 0.865730
vt 0.052465 0.693821
vt 0.119656 0.663623
vt 0.062320 0.724921
vt 0.052694 0.807102
vt 0.024604 0.859127
vt 0.007812 0.809220
vt 0.842941 0.324379
vt 0.774680 0.367513
vt 0.774049 0.324750
vt 0.793014 0.281510
vt 0.157668 0.066187
vt 0.145342 0.023449
vt 0.763589 0.013516
vt 0.717595 0.058424
vt 0.709750 0.007812
vt 0.152703 0.481100
vt 0.064515 0.431670
vt 0.130265 0.411257
vt 0.168105 0.435370
vt 0.376479 0.156181
vt 0.370776 0.298790
vt 0.293735 0.262779
vt 0.286444 0.184920
vt 0.814134 0.462450
vt 0.821317 0.495906
vt 0.778530 0.520244
vt 0.724038 0.485988
vt 0.769589 0.446218
vt 0.504666 0.584521
vt 0.539563 0.646669
vt 0.491845 0.631253
vt 0.593283 0.561843
vt 0.613935 0.612793
vt 0.425760 0.043328
vt 0.452119 0.007812
vt 0.507097 0.088732
vt 0.461219 0.159196
vt 0.433866 0.114735
vt 0.768691 0.791785
vt 0.808461 0.773143
vt 0.796666 0.840475
vt 0.772215 0.816511
vt 0.841922 0.258937
vt 0.813343 0.242884
vt 0.825363 0.186443
vt 0.876413 0.216522
vt 0.796121 0.662102
vt 0.762665 0.669285
vt 0.738327 0.626498
vt 0.772583 0.572007
vt 0.812354 0.617558
vt 0.279516 0.423924
vt 0.257078 0.354081
vt 0.294918 0.378194
vt 0.007812 0.333862
vt 0.078853 0.313957
vt 0.074342 0.413992
vt 0.025895 0.400329
vt 0.624537 0.856953
vt 0.571046 0.842113
vt 0.568648 0.817250
vt 0.621584 0.792702
vt 0.653521 0.846803
vt 0.016020 0.737257
vt 0.007812 0.663539
vt 0.036048 0.688340
vt 0.040251 0.735880
vt 0.805852 0.860979
vt 0.810438 0.888646
vt 0.896788 0.891379
vt 0.869120 0.895965
vt 0.850851 0.859994
vt 0.881005 0.816709
vt 0.911801 0.855540
vt 0.085360 0.869663
vt 0.096273 0.839913
vt 0.273673 0.874849
vt 0.263225 0.821236
vt 0.019291 0.474412
vt 0.080300 0.524202
vt 0.035167 0.540761
vt 0.007812 0.517465
vt 0.164989 0.842962
vt 0.647343 0.458749
vt 0.583414 0.423783
vt 0.617881 0.353850
vt 0.653399 0.401007
vt 0.527567 0.243634
vt 0.578538 0.222989
vt 0.612922 0.297317
vt 0.597294 0.345216
vt 0.550290 0.332158
vt 0.852538 0.789201
vt 0.848488 0.836199
vt 0.398234 0.682441
vt 0.435083 0.746080
vt 0.368357 0.695403
vt 0.666883 0.982215
vt 0.677073 0.929559
vt 0.699675 0.936189
vt 0.699325 0.985158
vt 0.910469 0.254853
vt 0.850851 0.273813
vt 0.888052 0.232126
vt 0.420139 0.788569
vt 0.354316 0.726715
vt 0.797032 0.249934
vt 0.759719 0.298708
vt 0.720466 0.276460
vt 0.752590 0.203489
vt 0.864858 0.371577
vt 0.857996 0.351637
vt 0.263913 0.685793
vt 0.231228 0.758725
vt 0.179278 0.766261
vt 0.186109 0.712035
vt 0.224662 0.663536
vt 0.912809 0.955477
vt 0.902648 0.907127
vt 0.934880 0.879688
vt 0.953040 0.912973
vt 0.940747 0.958135
vt 0.164821 0.668241
vt 0.144970 0.731971
vt 0.092083 0.742121
vt 0.506982 0.651271
vt 0.564419 0.671706
vt 0.561107 0.732063
vt 0.479334 0.739361
vt 0.463268 0.670895
vt 0.317679 0.400787
vt 0.297161 0.335184
vt 0.321205 0.297212
vt 0.367287 0.312637
vt 0.405539 0.364978
vt 0.366479 0.412664
vt 0.852637 0.442875
vt 0.890820 0.403386
vt 0.912053 0.442547
vt 0.901469 0.477830
vt 0.852825 0.487835
vt 0.857784 0.591282
vt 0.883859 0.617946
vt 0.873176 0.664644
vt 0.822274 0.632685
vt 0.886573 0.664290
vt 0.921799 0.654258
vt 0.952863 0.664899
vt 0.921435 0.715949
vt 0.895589 0.715327
vt 0.495418 0.426390
vt 0.509880 0.378374
vt 0.556859 0.390262
vt 0.581297 0.478410
vt 0.530768 0.500073
vt 0.803278 0.196154
vt 0.670455 0.139586
vt 0.732426 0.197345
vt 0.700645 0.207104
vt 0.752429 0.185008
vt 0.739098 0.113857
vt 0.690486 0.099016
vt 0.823557 0.678052
vt 0.925868 0.560299
vt 0.971870 0.576074
vt 0.942271 0.593261
vt 0.688008 0.557549
vt 0.733021 0.604252
vt 0.681172 0.611730
vt 0.897660 0.305923
vt 0.284577 0.160012
vt 0.176022 0.206164
vt 0.141770 0.154334
vt 0.178048 0.077550
vt 0.255766 0.070160
vt 0.258992 0.198940
vt 0.741728 0.785333
vt 0.706177 0.719788
vt 0.786864 0.738922
vt 0.773071 0.773052
vt 0.398346 0.862628
vt 0.397700 0.795699
vt 0.441776 0.811882
vt 0.435807 0.859458
vt 0.447842 0.259153
vt 0.496639 0.271203
vt 0.447208 0.359392
vt 0.409685 0.307930
vt 0.357888 0.814516
vt 0.361283 0.839009
vt 0.490879 0.574883
vt 0.492108 0.501321
vt 0.535814 0.548454
vt 0.481481 0.820467
vt 0.510979 0.884678
vt 0.453046 0.882984
vt 0.452551 0.830756
vt 0.883020 0.070688
vt 0.865782 0.123455
vt 0.840836 0.124729
vt 0.818702 0.070739
vt 0.874189 0.041275
vt 0.878321 0.574165
vt 0.116480 0.149673
vt 0.150422 0.201454
vt 0.114410 0.278496
vt 0.036551 0.285787
vt 0.007812 0.195752
vt 0.033399 0.156856
vt 0.685532 0.354022
vt 0.745889 0.357334
vt 0.091989 0.601084
vt 0.144009 0.515205
vt 0.192024 0.529668
vt 0.180137 0.576646
vt 0.530596 0.116867
vt 0.593394 0.082034
vt 0.577770 0.130075
vt 0.507920 0.028205
vt 0.559002 0.007812
vt 0.086932 0.812736
vt 0.115246 0.367612
vt 0.988524 0.938404
vt 0.992188 0.986505
vt 0.965931 0.971800
vt 0.963376 0.925229
vt 0.033224 0.296670
vt 0.550783 0.809022
vt 0.493041 0.809581
vt 0.466840 0.785571
vt 0.516044 0.748014
vt 0.556430 0.749939
vt 0.534556 0.835182
vt 0.537029 0.859750
vt 0.202475 0.659871
vt 0.298439 0.529230
vt 0.289983 0.455817
vt 0.343529 0.502913
vt 0.862235 0.315413
vt 0.023277 0.928587
vt 0.045531 0.875771
vt 0.078479 0.897364
vt 0.066461 0.934801
vt 0.167451 0.939049
vt 0.115166 0.947727
vt 0.088187 0.913052
vt 0.123207 0.897548
vt 0.167871 0.911815
vt 0.629157 0.238804
vt 0.597696 0.199299
vt 0.581150 0.143411
vt 0.632082 0.129430
vt 0.667423 0.176465
vt 0.661322 0.234081
vt 0.912456 0.804380
vt 0.290055 0.124835
vt 0.282872 0.041754
vt 0.334653 0.007812
vt 0.411695 0.043824
vt 0.418986 0.121683
vt 0.328951 0.150422
vt 0.568648 0.952783
vt 0.578421 0.927063
vt 0.614659 0.966988
vt 0.621368 0.780294
vt 0.572220 0.743475
vt 0.594071 0.704000
vt 0.007812 0.626325
vt 0.076586 0.604267
vt 0.092741 0.659390
vt 0.042981 0.673054
vt 0.661805 0.096247
vt 0.604370 0.075274
vt 0.607561 0.015144
vt 0.689200 0.007812
vt 0.705393 0.076033
vt 0.070326 0.550556
vt 0.788990 0.185566
vt 0.763670 0.147517
vt 0.749044 0.089710
vt 0.815025 0.114310
vt 0.822742 0.171501
vt 0.272155 0.634570
vt 0.340621 0.618504
vt 0.360245 0.662218
vt 0.339810 0.719655
vt 0.279453 0.716343
vt 0.412248 0.399113
vt 0.448976 0.486067
vt 0.360787 0.436636
vt 0.461025 0.437270
vt 0.548147 0.167552
vt 0.580878 0.197301
vt 0.494796 0.243993
vt 0.429332 0.191359
vt 0.476286 0.168546
vt 0.699843 0.478140
vt 0.664226 0.540797
vt 0.642168 0.472023
vt 0.704659 0.510140
vt 0.588493 0.790659
vt 0.009560 0.883370
vt 0.007812 0.904344
vt 0.873999 0.941451
vt 0.835636 0.951020
vt 0.875803 0.910632
vt 0.748505 0.842641
vt 0.708930 0.860983
vt 0.665097 0.844762
vt 0.667275 0.798463
vt 0.726485 0.793607
vt 0.744954 0.817924
vt 0.984124 0.162389
vt 0.965219 0.188793
vt 0.938320 0.173700
vt 0.211908 0.971411
vt 0.213598 0.911696
vt 0.243440 0.922672
vt 0.609103 0.556952
vt 0.595439 0.507191
vt 0.812737 0.050335
vt 0.790886 0.089810
vt 0.186899 0.970249
vt 0.179278 0.920645
vt 0.384555 0.924605
vt 0.429088 0.872533
vt 0.448571 0.907498
vt 0.366818 0.902541
vt 0.368506 0.875726
vt 0.989441 0.208138
vt 0.950873 0.247360
vt 0.962679 0.199673
vt 0.975762 0.275944
vt 0.045929 0.563834
vt 0.013930 0.568650
vt 0.148914 0.249927
vt 0.156098 0.333008
vt 0.101242 0.518624
vt 0.052465 0.480467
vt 0.958017 0.739941
vt 0.961420 0.681902
vt 0.990489 0.703781
vt 0.989040 0.751334
vt 0.047107 0.771928
vt 0.833549 0.360629
vt 0.852551 0.400007
vt 0.836978 0.444192
vt 0.789913 0.437460
vt 0.784766 0.383681
vt 0.125341 0.136879
vt 0.042225 0.144128
vt 0.007812 0.092129
vt 0.150900 0.097803
vt 0.769231 0.922066
vt 0.711536 0.922677
vt 0.717636 0.891422
vt 0.044229 0.015207
vt 0.122097 0.007812
vt 0.712128 0.334166
vt 0.643675 0.350285
vt 0.624017 0.306586
vt 0.644407 0.249133
vt 0.704767 0.252398
vt 0.946826 0.517426
vt 0.970317 0.531135
vt 0.800841 0.925862
vt 0.823507 0.899523
vt 0.718126 0.957847
vt 0.769053 0.947946
vt 0.614976 0.463454
vt 0.734337 0.679713
vt 0.972333 0.437689
vt 0.948058 0.451935
vt 0.952466 0.387952
vt 0.517051 0.336953
vt 0.492938 0.374794
vt 0.871125 0.172839
vt 0.667362 0.735386
vt 0.675208 0.785997
vt 0.226850 0.536000
vt 0.261940 0.456724
vt 0.924808 0.434398
vt 0.918723 0.384117
vt 0.855885 0.539936
vt 0.832338 0.578590
vt 0.790124 0.531445
vt 0.860688 0.498996
vt 0.623039 0.918787
vt 0.645019 0.945509
vt 0.936584 0.126137
vt 0.961515 0.124252
vt 0.827875 0.704958
vt 0.847983 0.685455
vt 0.874556 0.684652
vt 0.883273 0.744044
vt 0.824060 0.748675
vt 0.954903 0.872175
vt 0.191328 0.374493
vt 0.228055 0.461448
vt 0.179278 0.423291
vt 0.765610 0.531443
vt 0.726482 0.509155
vt 0.566862 0.367925
vt 0.191781 0.509139
vt 0.441977 0.502916
vt 0.419492 0.581373
vt 0.384679 0.554435
vt 0.383226 0.506480
vt 0.858459 0.771366
vt 0.415374 0.181768
vt 0.422558 0.264849
vt 0.705457 0.693176
vt 0.345385 0.482367
vt 0.663723 0.919747
vt 0.661688 0.859185
vt 0.703104 0.889130
vt 0.628195 0.904370
vt 0.624017 0.876380
s 1
f 3/1 2/2 1/3
f 5/4 6/5 4/6
f 8/7 9/8 7/9
f 11/10 12/11 10/12
f 14/13 15/14 13/15
f 17/16 18/17 16/18
f 20/19 21/20 19/21
f 23/22 24/23 22/24
f 26/25 27/26 25/27
f 29/28 30/29 28/30
f 32/31 33/32 31/33
f 35/34 36/35 34/36
f 38/37 39/38 37/39
f 41/40 42/41 40/42
f 197/43 194/44 195/45 196/46
f 384/47 383/48 381/49 382/50
f 132/51 130/52 131/53 133/54 134/55
f 1088/56 1090/57 1089/58 1087/59
f 58/60 59/61 57/62
f 58/60 60/63 59/61
f 58/60 61/64 60/63
f 71/65 72/66 70/67 68/68 69/69
f 547/70 549/71 548/72 546/73
f 91/74 93/75 92/76 90/77
f 923/78 927/79 926/80 925/81
f 82/82 80/83 83/84
f 212/85 210/86 209/87 211/88
f 947/89 948/90 946/91 944/92 945/93
f 871/94 873/95 872/96 870/97
f 97/98 98/99 96/100
f 464/101 462/102 461/103 463/104
f 101/105 98/99 100/106
f 63/107 65/108 64/109 62/110
f 105/111 103/112 106/113
f 105/111 106/113 107/114
f 109/115 110/116 108/117
f 764/45 763/44 761/118 762/119
f 114/120 115/121 113/122
f 116/123 115/121 114/120
f 117/124 115/121 116/123
f 789/125 787/126 788/127 790/128 791/129
f 1135/130 1134/131 1132/132 1133/133
f 127/134 128/135 126/136
f 127/134 129/137 128/135
f 991/138 993/139 992/140 990/141
f 76/142 75/143 73/144 74/145 77/146 78/147
f 152/148 154/149 153/150 151/151
f 145/152 142/153 144/154
f 147/155 148/156 146/157
f 688/158 690/159 689/160 687/161
f 522/58 520/59 518/162 519/163 521/56 523/57
f 156/164 157/165 155/166
f 654/167 656/168 655/169 653/170
f 1058/171 1060/172 1059/173 1057/174
f 775/175 776/176 774/177 772/178 773/179
f 167/180 168/181 166/182
f 169/183 168/181 167/180
f 169/183 170/184 168/181
f 201/185 202/186 200/187 198/188 199/189
f 421/190 419/191 417/192 420/193
f 801/194 800/195 799/196 798/197
f 290/198 291/199 289/200 287/201 288/202
f 182/203 183/204 181/205
f 431/206 429/207 428/208 430/209
f 841/210 844/211 843/212 842/213 840/214
f 452/215 454/216 453/217 451/218
f 679/116 677/117 678/115 680/219 681/220
f 539/221 540/222 538/223 536/224 537/225
f 718/226 717/156 715/157 716/155 719/227
f 923/78 925/81 924/228 922/229
f 867/230 869/231 868/232 866/233
f 209/87 210/86 208/234
f 1010/235 1008/236 1007/237 1009/238
f 903/239 904/240 902/241 900/242 901/243
f 987/191 986/244 984/245 985/192 988/193 989/190
f 227/246 225/247 226/248
f 417/192 419/191 418/244 416/245
f 466/249 468/250 467/251 465/252
f 234/253 235/254 233/255
f 770/185 771/186 769/187 767/188 768/189
f 226/248 225/247 223/256 224/257
f 766/43 763/44 764/45 765/46
f 298/230 300/231 299/232 297/233
f 808/258 811/259 810/260 809/261
f 660/74 664/262 663/263 662/75 661/76 659/77
f 1019/215 1021/216 1020/217 1018/218
f 403/264 402/265 400/266 401/267 404/268
f 1045/269 1044/270 1042/271 1043/272 1046/273
f 643/145 645/142 644/143 642/144
f 274/212 273/213 271/214 272/210 275/211
f 144/154 142/153 140/274 141/275 143/276
f 832/277 831/278 829/279 830/280 833/281
f 781/85 779/86 777/234 778/87 780/88
f 919/282 918/283 916/284 917/285 920/286 921/287
f 393/288 391/289 392/290 394/291 395/292
f 883/293 882/294 881/295 880/296
f 1130/297 1129/298 1127/299 1128/300 1131/301
f 251/302 249/303 250/304 252/305 253/306
f 239/258 242/259 241/260 240/261 238/307
f 306/308 307/309 305/310
f 307/309 306/308 308/311
f 308/311 306/308 309/312
f 309/312 306/308 310/313
f 312/296 313/295 311/314
f 312/296 314/294 313/295
f 315/293 314/294 312/296
f 222/129 220/125 218/126 219/127 221/128
f 318/315 319/316 320/317
f 322/318 323/319 321/320
f 805/321 804/254 802/255 803/253
f 327/322 330/323 329/324 328/325 326/326
f 331/327 330/323 327/322
f 333/243 334/241 332/242
f 335/239 334/241 333/243
f 335/239 336/240 334/241
f 958/328 956/329 955/330 957/331
f 338/332 340/333 339/334 337/335
f 796/246 794/247 793/257 795/248
f 1031/101 1029/102 1028/103 1030/104
f 349/285 350/283 348/284
f 349/285 351/282 350/283
f 352/286 351/282 349/285
f 353/287 351/282 352/286
f 839/336 837/337 835/338 838/339
f 150/227 149/226 148/156 147/155
f 342/340 340/333 338/332 341/341
f 367/342 368/343 366/344
f 1003/345 1002/346 1000/347 1001/348
f 377/93 378/91 376/92
f 757/349 760/350 759/351 758/352 756/353
f 385/354 383/48 384/47
f 247/355 246/356 245/357 243/358 244/359 248/360
f 195/45 194/44 192/118 193/119
f 80/83 82/82 81/361 79/362
f 499/363 498/364 496/365 497/366
f 111/219 112/220 110/116 109/115
f 412/367 413/368 411/369
f 414/370 413/368 412/367
f 414/370 415/371 413/368
f 672/112 675/113 674/111 673/372
f 428/208 429/207 427/373
f 941/374 943/375 942/376 940/377
f 431/206 432/378 429/207
f 531/379 534/380 535/381 533/382 532/383
f 436/345 438/384 437/385 435/346 433/347 434/348
f 100/106 98/99 97/98 99/386
f 446/387 447/388 445/389
f 236/321 237/390 235/254 234/253
f 502/391 504/392 503/393 501/394
f 51/395 50/396 48/397 49/398 52/399
f 365/400 362/401 360/402 361/403 363/404 364/405
f 461/103 462/102 460/406
f 165/407 164/408 163/409 162/410 160/411 161/412
f 476/272 477/270 475/271
f 476/272 478/269 477/270
f 479/273 478/269 476/272
f 484/413 483/414 481/415
f 486/416 489/417 488/418
f 899/327 898/323 897/324 895/322
f 848/419 847/420 845/421 846/422
f 346/423 345/424 343/425 344/426 347/427
f 499/363 500/428 498/364
f 1088/56 1087/59 1085/162 1086/163
f 296/429 294/430 292/431 293/432 295/433
f 508/434 511/435 510/436 509/437 507/438
f 858/200 856/201 857/202 859/198 860/199
f 516/439 515/440 513/441
f 517/442 515/440 516/439
f 285/443 286/444 284/445 282/446 283/447
f 528/448 526/449 527/450
f 529/451 526/449 528/448
f 531/379 532/383 530/452
f 506/453 504/392 502/391 505/454
f 119/158 121/159 120/160 118/161
f 545/455 543/456 544/457
f 259/458 257/459 256/460 254/461 255/462 258/463
f 553/464 554/465 552/466
f 556/467 557/468 555/469
f 561/300 562/298 560/299
f 527/450 526/449 524/470 525/471
f 156/164 159/472 158/473 157/165
f 556/467 559/474 558/475 557/468
f 571/1 572/2 570/3
f 574/4 575/5 573/6
f 577/7 578/8 576/9
f 580/10 581/11 579/12
f 583/13 584/14 582/15
f 586/16 587/17 585/18
f 589/19 590/20 588/21
f 592/22 593/23 591/24
f 595/25 596/26 594/27
f 598/28 599/29 597/30
f 601/31 602/32 600/33
f 604/34 605/35 603/36
f 607/37 608/38 606/39
f 610/40 611/41 609/42
f 613/476 614/477 612/478
f 615/479 614/477 613/476
f 616/480 614/477 615/479
f 618/398 619/396 617/397
f 618/398 620/395 619/396
f 621/399 620/395 618/398
f 623/481 624/482 622/483
f 623/481 625/484 624/482
f 627/60 628/61 626/62
f 850/485 847/420 848/419 849/486
f 632/107 635/487 634/108
f 636/488 635/487 632/107
f 638/69 639/67 637/68
f 640/65 639/67 638/69
f 640/65 641/66 639/67
f 379/89 380/90 378/91 377/93
f 205/177 203/178 204/179 206/175 207/176
f 649/83 650/361 648/362
f 649/83 651/82 650/361
f 651/82 649/83 652/84
f 67/488 66/487 65/108 63/107
f 657/489 656/168 654/167
f 658/490 656/168 657/489
f 965/491 967/492 966/493 964/494
f 962/291 963/292 961/288 960/290
f 672/112 673/372 671/495
f 188/349 191/350 190/351 189/352 187/353
f 674/111 675/113 676/114
f 686/124 684/121 685/123
f 175/496 173/497 171/498 172/499 174/500
f 696/134 697/135 695/136
f 696/134 698/137 697/135
f 410/501 409/502 408/503 406/504
f 705/505 706/506 704/507
f 406/504 408/503 407/508 405/509
f 91/74 95/262 94/263 93/75
f 47/480 45/477 43/478 44/476 46/479
f 982/370 983/371 981/368 980/367
f 721/148 722/150 720/151
f 721/148 723/149 722/150
f 727/473 726/165 724/166 725/164 728/472
f 732/409 731/410 729/411 730/412 734/407 733/408
f 1114/70 1116/71 1115/72 1113/73
f 746/510 749/511 748/512 747/513 745/514
f 319/316 318/315 316/515 317/516
f 544/457 543/456 541/517 542/518
f 138/519 137/506 135/507 136/505 139/520
f 444/521 441/236 442/238 443/235
f 627/60 630/64 629/63 628/61
f 54/481 56/484 55/482 53/483
f 390/328 388/329 386/522 387/330 389/331
f 105/111 104/372 102/495 103/112
f 786/523 785/524 783/525
f 737/181 735/182 736/180 738/183 739/184
f 793/257 794/247 792/256
f 270/336 268/337 267/526 265/527 266/338 269/339
f 798/197 799/196 797/528
f 486/416 488/418 487/529 485/530
f 1013/387 1016/531 1015/532 1014/388
f 804/254 805/321 806/390
f 808/258 809/261 807/307
f 703/55 701/51 699/52 700/53 702/54
f 783/525 785/524 784/533 782/534
f 819/304 820/302 818/303
f 821/305 820/302 819/304
f 821/305 822/306 820/302
f 854/443 855/444 853/445 852/447
f 1095/448 1093/449 1092/471 1094/450
f 835/338 836/526 834/527
f 835/338 837/337 836/526
f 177/510 180/511 179/512 178/513 176/514
f 692/535 694/536 693/537 691/538
f 481/415 483/414 482/539 480/540
f 281/485 278/420 276/421 277/422 279/419 280/486
f 232/194 231/195 230/196 228/528 229/197
f 852/447 853/445 851/446
f 123/535 125/536 124/537 122/538
f 553/464 552/466 550/541 551/542
f 302/94 304/95 303/96 301/97
f 862/432 863/430 861/431
f 670/105 667/99 665/100 666/98 668/386 669/106
f 1039/543 1038/544 1036/545 1037/546 1040/547
f 685/123 684/121 682/122 683/120
f 569/548 567/131 565/132 566/133 568/130
f 753/549 752/204 750/205 751/203 754/550 755/551
f 880/296 881/295 879/314
f 373/374 375/375 374/376 372/377
f 886/315 884/515 885/516 887/316 888/317
f 890/318 891/319 889/320
f 890/318 892/552 891/319
f 890/318 893/553 892/552
f 895/322 896/325 894/326
f 895/322 897/324 896/325
f 217/523 216/524 215/533 213/534 214/525
f 828/458 826/459 825/460 823/461 824/462 827/463
f 932/405 930/401 929/403 931/404
f 1106/221 1107/222 1105/223 1104/225
f 912/426 913/424 911/425
f 912/426 914/423 913/424
f 914/423 912/426 915/427
f 442/238 441/236 439/554 440/237
f 632/107 634/108 633/109 631/110
f 446/387 449/531 450/555 448/532 447/388
f 711/153 709/274 710/275 712/276 713/154 714/152
f 929/403 930/401 928/402
f 933/400 930/401 932/405
f 935/342 936/343 934/344
f 937/556 936/343 935/342
f 937/556 935/342 938/557
f 937/556 938/557 939/558
f 1084/442 1082/440 1081/559 1080/441 1083/439
f 1125/475 1124/468 1122/469 1123/467 1126/474
f 473/547 472/543 471/544 469/545 470/546 474/560
f 950/50 951/48 949/49
f 952/47 951/48 950/50
f 953/354 951/48 952/47
f 955/330 956/329 954/522
f 1062/561 1061/562 1060/172 1058/171
f 960/290 961/288 959/289
f 969/267 970/265 968/266
f 969/267 971/264 970/265
f 969/267 972/268 971/264
f 974/504 975/508 973/509
f 974/504 976/503 975/508
f 974/504 977/502 976/503
f 978/501 977/502 974/504
f 980/367 981/368 979/369
f 1033/249 1035/250 1034/251 1032/252
f 744/496 742/497 740/498 741/499 743/500
f 355/78 359/79 358/80 357/81 356/228 354/229
f 1051/413 1050/414 1049/539 1047/540 1048/415
f 993/139 991/138 994/563
f 89/490 87/168 86/169 84/170 85/167 88/489
f 513/441 515/440 514/559 512/564
f 322/318 325/553 324/552 323/319
f 1003/345 1004/385 1002/346
f 1004/385 1003/345 1005/384
f 1007/237 1008/236 1006/554
f 708/520 707/519 706/506 705/505
f 1011/521 1008/236 1010/235
f 1013/387 1014/388 1012/389
f 817/360 816/355 815/356 814/357 812/358 813/359
f 1015/532 1016/531 1017/555
f 1023/565 1024/566 1022/567
f 261/280 264/281 263/277 262/278 260/279
f 1028/103 1029/102 1027/406
f 1073/453 1071/392 1070/393 1068/394 1069/391 1072/454
f 1041/560 1040/547 1037/546
f 995/373 996/208 997/209 998/206 999/378
f 184/549 183/204 182/203 185/550 186/551
f 493/172 492/173 490/174 491/171 495/561 494/562
f 1053/416 1054/529 1052/530
f 1053/416 1055/418 1054/529
f 1053/416 1056/417 1055/418
f 458/568 459/569 457/566 455/567 456/565
f 1025/568 1026/569 1024/566 1023/565
f 1064/366 1065/364 1063/365
f 561/300 564/301 563/297 562/298
f 1075/434 1076/437 1074/438
f 1075/434 1077/436 1076/437
f 1077/436 1075/434 1078/435
f 1080/441 1081/559 1079/564
f 647/147 645/142 643/145 646/146
f 876/311 874/310 875/308 878/313 877/312
f 1119/466 1117/541 1118/542 1120/464 1121/465
f 1092/471 1093/449 1091/470
f 1096/451 1093/449 1095/448
f 1098/379 1099/383 1097/452
f 1100/382 1099/383 1098/379
f 1100/382 1098/379 1101/380
f 1100/382 1101/380 1102/381
f 1104/225 1105/223 1103/224
f 865/429 863/430 862/432 864/433
f 1110/456 1108/517 1109/518 1111/457 1112/455
f 910/340 908/333 907/334 905/335 906/332 909/341
f 370/557 371/558 369/556 368/343 367/342
f 1066/363 1067/428 1065/364 1064/366
f 397/491 399/492 398/493 396/494
f 1136/548 1134/131 1135/130
f 425/139 424/140 422/141 423/138 426/563
