o blowtato_veggie
v -0.021592 -1.333393 -0.137542
v 0.302409 -1.256786 0.078480
v 0.308239 -1.268647 -0.008675
v 0.290595 -1.106650 0.179401
v 0.324556 -1.140234 -0.126257
v 0.315562 -0.692469 0.424351
v 0.473919 -0.622854 -0.022727
v 0.479001 -0.259539 0.053499
v -0.068387 -1.151894 0.453888
v -0.103138 -0.718383 0.586310
v 0.320824 -0.332265 0.508476
v 0.161402 -0.113010 0.333975
v 0.288896 -0.144170 0.085481
v -0.096229 -0.154719 0.436278
v -0.110054 -0.330442 0.641751
v -0.359811 -0.184172 0.279001
v -0.538031 -0.711275 0.388003
v -0.498966 -0.321077 0.382703
v -0.393777 -0.170688 -0.036047
v -0.583182 -0.297662 -0.052494
v -0.596976 -0.661489 -0.091158
v -0.397069 -1.137844 0.242013
v -0.477006 -1.097196 -0.133796
v 0.230688 -1.309800 0.066203
v -0.020625 -1.330130 -0.143825
v -0.220878 -1.320922 0.136065
v -0.026173 -1.333489 -0.132219
v -0.316607 -1.277530 -0.137100
v -0.032461 -1.334878 -0.138467
v -0.021394 -1.331654 -0.143067
v 0.308242 -1.268641 -0.008692
v 0.320932 -1.234046 -0.080839
v 0.324556 -1.140234 -0.126257
v 0.293004 -1.106293 -0.355800
v 0.473919 -0.622854 -0.022727
v 0.051140 -1.195242 -0.359916
v -0.022305 -1.330393 -0.145620
v 0.400017 -0.595568 -0.414683
v 0.058720 -1.065694 -0.555435
v 0.437880 -0.258484 -0.344160
v 0.479001 -0.259539 0.053499
v 0.288896 -0.144170 0.085481
v 0.357640 -0.196188 -0.245171
v 0.075943 -0.279084 -0.558958
v 0.090799 -0.157695 -0.439998
v 0.120518 -0.617674 -0.679153
v -0.352137 -0.261527 -0.462032
v -0.243316 -0.155927 -0.332629
v -0.172462 -1.229465 -0.359209
v -0.027011 -1.331907 -0.146451
v -0.291425 -1.071061 -0.465923
v -0.583182 -0.297662 -0.052494
v -0.393777 -0.170688 -0.036047
v -0.417287 -0.640463 -0.586272
v -0.596647 -0.661287 -0.092244
v -0.476749 -1.096694 -0.136236
v -0.315249 -1.276330 -0.144234
v -0.031371 -1.333651 -0.143442
v 0.161402 -0.113010 0.333975
v 0.054920 -0.025455 0.148098
v 0.187275 -0.110948 0.061371
v 0.288896 -0.144170 0.085481
v -0.096229 -0.154719 0.436278
v 0.205236 -0.179001 -0.045839
v 0.357640 -0.196188 -0.245171
v -0.047260 -0.029950 0.155566
v -0.359811 -0.184172 0.279001
v 0.076107 -0.128303 -0.136386
v 0.090801 -0.157688 -0.439930
v -0.148279 -0.036826 0.099012
v -0.393777 -0.170688 -0.036047
v -0.061701 -0.095426 -0.100222
v -0.243314 -0.155927 -0.332627
v -0.128641 -0.071373 -0.016395
v 0.040213 -0.003725 0.081801
v 0.094515 -0.037914 0.037367
v 0.018560 0.003434 0.013533
v -0.011269 -0.011246 0.080978
v 0.078551 -0.040621 0.000660
v -0.044343 -0.014673 0.045814
v 0.032559 -0.052339 -0.036980
v -0.048301 -0.039706 0.001251
v -0.020915 -0.050675 -0.035709
v 0.039693 0.004261 0.076552
v 0.091667 -0.028310 0.034190
v -0.009479 -0.002715 0.075744
v 0.076391 -0.031140 -0.000914
v -0.041107 -0.006223 0.042108
v 0.032438 -0.042410 -0.036914
v -0.044847 -0.030109 -0.000448
v -0.018673 -0.040772 -0.035743
v 0.124120 0.665805 0.052552
v 0.004903 0.644510 0.100830
v -0.022643 0.540325 0.125364
v 0.097762 0.502687 0.004141
v 0.004377 0.483419 0.051022
v 0.244008 0.608352 0.010582
v 0.162284 0.478108 -0.004032
v 0.012588 0.071688 0.038757
v 0.027299 0.068823 0.017259
v -0.058228 -0.188354 0.078662
v -0.032984 -0.201757 0.029954
v -0.007738 -0.215159 -0.018752
v 0.039687 0.056426 -0.005033
v 0.162284 0.478108 -0.004032
v 0.179071 0.454444 -0.067965
v 0.244008 0.608352 0.010582
v 0.387296 0.815048 0.067112
v 0.323071 0.548563 -0.088510
v 0.284599 0.357941 -0.172659
v 0.194521 0.370562 -0.137031
v 0.333962 0.449322 -0.185927
v 0.279491 0.866838 0.086974
v 0.051097 0.829938 0.192583
v 0.016483 0.711640 0.115051
v 0.128733 0.922865 0.125673
v 0.470980 0.756619 0.001054
v 0.538272 0.542544 -0.161580
v 0.395154 0.487506 -0.187061
v 0.554749 0.673213 -0.142407
v 0.522898 1.009709 0.192489
v 0.439040 1.033602 0.175795
v 0.234368 1.053170 0.208508
v 0.184867 0.996189 0.135756
v 0.374675 1.120790 0.195442
v 0.665101 1.174330 0.406561
v 0.492199 1.165038 0.266284
v 0.575490 0.957258 0.143863
v 0.689413 1.054694 0.220133
v 0.697472 0.788944 0.033706
v 0.683291 0.948118 0.123220
v 0.625896 0.742424 -0.060852
v 0.226432 0.217192 -0.123313
v 0.282035 0.185009 -0.016365
v 0.255737 0.138033 0.015014
v 0.120301 0.176372 -0.053042
v 0.170641 0.143886 0.023252
v 0.125226 0.249216 -0.193663
v 0.080039 0.180588 -0.105061
v 0.017037 -0.091422 0.018450
v -0.004091 -0.084307 0.010208
v 0.017099 -0.210170 0.046035
v -0.029608 -0.203084 0.029978
v -0.076316 -0.195997 0.013920
v -0.027189 -0.084321 0.003125
v 0.080039 0.180588 -0.105061
v 0.022354 0.200172 -0.084034
v 0.125226 0.249216 -0.193663
v 0.214231 0.354574 -0.342125
v 0.008552 0.292767 -0.188410
v -0.130306 0.207288 -0.112796
v -0.070240 0.186452 -0.056664
v -0.111145 0.275255 -0.144034
v 0.296474 0.304011 -0.291349
v 0.417138 0.206493 -0.128102
v 0.323129 0.198620 -0.047007
v 0.407189 0.269184 -0.179223
v 0.120463 0.406545 -0.338616
v -0.123612 0.374240 -0.295661
v -0.113473 0.314062 -0.185653
v -0.038049 0.444442 -0.312300
v 0.315395 0.438736 -0.495658
v 0.355116 0.387703 -0.451286
v 0.463076 0.271080 -0.343802
v 0.431395 0.278190 -0.255062
v 0.435843 0.353220 -0.426426
v 0.434310 0.498691 -0.674366
v 0.440872 0.402796 -0.542017
v 0.252211 0.479513 -0.476285
v 0.309361 0.553191 -0.572254
v 0.046371 0.513519 -0.457323
v 0.184562 0.537359 -0.491574
v 0.014149 0.488469 -0.373041
v -0.081299 0.416715 -0.002427
v -0.081047 0.353456 -0.122921
v -0.083356 0.281510 -0.112921
v -0.012369 0.330585 0.049798
v -0.020427 0.272118 -0.046978
v -0.067212 0.464233 0.128218
v -0.023339 0.352382 0.118757
v -0.002078 0.044516 -0.011995
v 0.010232 0.049172 0.014127
v -0.060313 -0.204276 -0.019402
v -0.032984 -0.201757 0.029954
v -0.005654 -0.199237 0.079312
v 0.023620 0.047948 0.034846
v -0.023339 0.352382 0.118757
v 0.034900 0.360912 0.149582
v -0.067212 0.464233 0.128218
v -0.153775 0.643822 0.102907
v 0.017170 0.500881 0.220309
v 0.109429 0.385540 0.281049
v 0.100454 0.335821 0.199072
v 0.108937 0.475562 0.278291
v -0.162420 0.589744 0.001622
v -0.200786 0.455203 -0.185188
v -0.107472 0.387477 -0.141141
v -0.167904 0.549724 -0.168892
v -0.092455 0.685860 0.187966
v 0.045298 0.657703 0.365728
v 0.098040 0.535236 0.303686
v 0.026255 0.739874 0.288336
v -0.267437 0.808993 0.032569
v -0.253265 0.753494 -0.020620
v -0.283434 0.637921 -0.157119
v -0.204405 0.594261 -0.157890
v -0.276476 0.755586 -0.118728
v -0.439214 0.978223 -0.119683
v -0.332201 0.839225 -0.113394
v -0.217654 0.830903 0.097648
v -0.290753 0.960591 0.050524
v -0.119494 0.867439 0.282972
v -0.182868 0.916938 0.157216
v -0.033299 0.802680 0.276645
vn 0.7893 -0.6026 -0.1174
vn 0.7651 -0.6007 0.2320
vn -0.1714 -0.9849 -0.0222
vn 0.8271 -0.2156 0.5191
vn 0.9804 -0.1510 -0.1266
vn 0.7014 -0.3047 0.6443
vn 0.9879 -0.1403 -0.0659
vn 0.9754 0.2039 -0.0836
vn 0.0308 -0.5719 0.8197
vn -0.0101 -0.2677 0.9634
vn 0.6958 0.0540 0.7162
vn 0.2859 0.8737 0.3935
vn 0.3547 0.9317 -0.0783
vn -0.1113 0.8685 0.4831
vn -0.1155 0.1129 0.9869
vn -0.3913 0.8882 0.2409
vn -0.8172 -0.1798 0.5477
vn -0.8089 0.2251 0.5432
vn -0.3810 0.9222 -0.0659
vn -0.9468 0.2578 -0.1926
vn -0.9679 -0.0951 -0.2326
vn -0.6968 -0.5537 0.4560
vn -0.9032 -0.3894 -0.1806
vn 0.4860 -0.8702 0.0803
vn 0.2374 -0.6029 -0.7617
vn -0.2644 -0.7858 0.5592
vn -0.0149 -0.9623 -0.2715
vn -0.6180 -0.7674 -0.1708
vn 0.1150 -0.9635 -0.2418
vn 0.8879 -0.4423 -0.1267
vn 0.6861 -0.7189 -0.1116
vn -0.0252 -0.8994 -0.4363
vn 0.9881 -0.0288 0.1512
vn 0.7325 -0.4565 -0.5050
vn 0.9590 -0.1973 0.2033
vn 0.2476 -0.7971 -0.5507
vn 0.0323 -0.9646 -0.2617
vn 0.8383 -0.0762 -0.5399
vn 0.2055 -0.4387 -0.8748
vn 0.7900 0.2805 -0.5451
vn 0.9406 0.2538 0.2255
vn 0.2897 0.9459 0.1465
vn 0.3311 0.9354 -0.1243
vn 0.2031 0.3044 -0.9307
vn 0.2245 0.8225 -0.5226
vn 0.2872 0.0127 -0.9578
vn -0.5325 0.4031 -0.7443
vn -0.2386 0.9384 -0.2498
vn -0.2315 -0.7657 -0.6001
vn 0.1650 -0.9711 -0.1726
vn -0.5102 -0.4321 -0.7437
vn -0.9649 0.2624 -0.0137
vn -0.3793 0.9246 0.0357
vn -0.6099 -0.0239 -0.7921
vn -0.9927 -0.1172 0.0266
vn -0.9040 -0.4169 -0.0950
vn -0.5878 -0.7843 -0.1981
vn 0.1137 -0.9814 -0.1548
vn 0.5281 0.8346 -0.1570
vn 0.2809 0.9194 0.2753
vn 0.4256 0.7590 0.4927
vn 0.5049 0.8612 -0.0590
vn -0.1654 0.7359 0.6566
vn 0.3010 0.9303 -0.2095
vn 0.4258 0.8922 -0.1505
vn -0.1419 0.9332 0.3301
vn -0.6192 0.6852 0.3835
vn 0.2846 0.9238 -0.2559
vn 0.1457 0.8865 -0.4391
vn -0.3534 0.9336 0.0599
vn -0.6751 0.7271 -0.1245
vn -0.0335 0.9308 -0.3640
vn -0.3452 0.8422 -0.4143
vn -0.2757 0.9147 -0.2953
vn 0.3184 0.7937 0.5183
vn 0.7555 0.6536 -0.0457
vn -0.6158 0.7875 0.0252
vn -0.2805 0.8544 0.4375
vn -0.4026 0.4141 0.8163
vn -0.9119 0.2710 0.3083
vn 0.7104 0.4415 -0.5481
vn 0.2130 0.5430 -0.8122
vn 0.3382 -0.1629 -0.9269
vn 0.7917 -0.1185 -0.5993
vn -0.2878 0.6116 -0.7369
vn -0.5805 0.6772 -0.4522
vn -0.9455 0.0916 -0.3125
vn -0.4474 -0.1192 -0.8863
vn 0.9767 0.1603 0.1429
vn 0.3570 0.3860 0.8506
vn -0.7379 0.5041 -0.4487
vn -0.5683 0.2790 -0.7741
vn -0.3531 -0.1250 -0.9272
vn -0.2748 0.3456 -0.8972
vn -0.3480 0.2080 -0.9141
vn -0.4499 0.6227 -0.6402
vn -0.1245 0.2845 -0.9506
vn -0.2500 0.1401 -0.9581
vn -0.5755 0.0841 -0.8135
vn -0.7422 0.1640 -0.6498
vn -0.8422 0.1569 -0.5158
vn -0.8433 0.1632 -0.5120
vn -0.8443 0.1687 -0.5087
vn -0.8654 0.2188 -0.4508
vn -0.7387 0.4200 -0.5272
vn -0.6761 0.4238 -0.6028
vn -0.4351 0.5414 -0.7194
vn -0.1387 0.4795 -0.8665
vn -0.3836 0.5434 -0.7467
vn -0.4666 0.4581 -0.7566
vn -0.2221 0.5950 -0.7724
vn -0.8056 0.3677 -0.4646
vn -0.1013 0.3808 -0.9191
vn -0.4116 0.3681 -0.8337
vn -0.2113 0.5783 -0.7880
vn -0.3497 -0.3372 -0.8741
vn -0.2506 0.5746 -0.7791
vn -0.3419 0.5345 -0.7730
vn -0.1864 0.7683 -0.6124
vn -0.7981 0.1848 -0.5735
vn 0.1030 0.6084 -0.7869
vn 0.1323 0.4449 -0.8858
vn -0.0106 0.4999 -0.8660
vn 0.4039 0.5664 -0.7184
vn -0.1462 0.1135 -0.9827
vn 0.1919 0.6503 -0.7350
vn 0.5963 0.2775 -0.7533
vn -0.0884 0.6271 -0.7739
vn -0.3063 0.7825 -0.5421
vn -0.0001 0.6392 -0.7690
vn -0.1260 0.4777 -0.8694
vn -0.0738 0.9158 -0.3947
vn -0.1074 0.8662 0.4879
vn -0.5744 0.6521 0.4949
vn -0.0081 0.8780 0.4786
vn -0.3032 0.7551 0.5812
vn 0.0969 0.9372 0.3351
vn -0.0229 0.8598 0.5101
vn -0.3665 0.7275 0.5800
vn -0.5051 0.3827 0.7736
vn -0.2215 0.3617 0.9056
vn -0.2884 0.2169 0.9326
vn -0.2879 0.2168 0.9328
vn -0.2876 0.2170 0.9329
vn 0.0700 0.2730 0.9595
vn 0.3052 0.5310 0.7905
vn 0.1905 0.5978 0.7787
vn 0.3291 0.6594 0.6759
vn 0.2687 0.7310 0.6272
vn 0.1751 0.7338 0.6564
vn -0.0032 0.7143 0.6999
vn -0.0271 0.9273 0.3732
vn 0.2846 0.3330 0.8990
vn 0.1247 0.8473 0.5162
vn -0.0008 0.8917 0.4527
vn 0.0594 0.9846 0.1644
vn -0.5482 0.4746 0.6887
vn 0.2772 0.6894 0.6692
vn 0.0564 0.7456 0.6640
vn 0.1626 0.8719 0.4620
vn 0.1699 0.0264 0.9851
vn 0.4111 0.6934 0.5917
vn 0.2825 0.7889 0.5457
vn 0.2841 0.8642 0.4153
vn 0.1907 0.9816 -0.0106
vn 0.0972 0.7217 0.6854
vn 0.5448 0.5930 0.5929
vn 0.4182 0.7453 0.5193
vn 0.4112 0.6171 0.6709
vn 0.6794 0.3279 0.6564
vn 0.2500 0.7709 0.5858
vn 0.1511 0.4140 0.8977
vn 0.4689 0.7815 0.4116
vn 0.8836 0.3197 -0.3422
vn 0.9994 -0.0296 0.0176
vn 0.8505 0.4158 -0.3223
vn 0.9390 0.2910 -0.1832
vn 0.5791 0.6756 -0.4564
vn 0.8769 0.4172 -0.2386
vn 0.9307 0.3418 -0.1306
vn 0.9602 -0.0672 -0.2710
vn 0.8964 0.0334 -0.4419
vn 0.8771 -0.1855 -0.4430
vn 0.8655 -0.1846 -0.4657
vn 0.8514 -0.1833 -0.4913
vn 0.7007 0.1103 -0.7049
vn 0.5364 0.3345 -0.7748
vn 0.5994 0.3629 -0.7135
vn 0.6385 0.2995 -0.7089
vn 0.7972 0.3341 -0.5028
vn 0.6853 0.3292 -0.6496
vn 0.7330 0.3231 -0.5986
vn 0.5991 0.6538 -0.4621
vn 0.5295 -0.0231 -0.8480
vn 0.8553 0.4041 -0.3243
vn 0.8867 0.3189 -0.3349
vn 0.6461 0.7131 -0.2722
vn 0.9407 -0.3356 0.0485
vn 0.7266 0.2815 -0.6267
vn 0.7543 0.2443 -0.6093
vn 0.4735 0.5517 -0.6866
vn 0.6908 -0.4044 -0.5994
vn 0.7981 0.3453 -0.4938
vn 0.8399 0.4268 -0.3354
vn 0.7870 0.4837 -0.3829
vn 0.4803 0.8712 -0.1017
vn 0.9731 0.0174 -0.2298
vn 0.7985 0.3556 -0.4858
vn 0.7896 0.6027 -0.1149
vn 0.7659 0.2418 -0.5958
vn 0.7493 0.1921 -0.6337
vn 0.7211 0.3619 -0.5908
vn 0.8862 -0.0386 -0.4618
vn 0.2977 0.4770 -0.8270
vt 0.508480 0.077840
vt 0.628565 0.077840
vt 0.748740 0.003220
vt 0.628565 0.239191
vt 0.508480 0.239191
vt 0.628565 0.602277
vt 0.508480 0.602277
vt 0.508480 0.926861
vt 0.748650 0.239191
vt 0.748650 0.602277
vt 0.628565 0.926861
vt 0.628565 0.993559
vt 0.508480 0.993559
vt 0.748650 0.993559
vt 0.748650 0.926861
vt 0.868735 0.993559
vt 0.868735 0.602277
vt 0.868735 0.926861
vt 0.988820 0.993559
vt 0.988820 0.926861
vt 0.988820 0.602277
vt 0.868735 0.239191
vt 0.988820 0.239191
vt 0.748650 0.077840
vt 0.868735 0.077840
vt 0.988820 0.077840
vt 0.628573 0.077840
vt 0.508488 0.077840
vt 0.748748 0.003220
vt 0.508488 0.239191
vt 0.628573 0.239191
vt 0.508488 0.602277
vt 0.748659 0.077840
vt 0.628573 0.602277
vt 0.748659 0.239191
vt 0.628573 0.926861
vt 0.508488 0.926861
vt 0.508488 0.993559
vt 0.628573 0.993559
vt 0.748659 0.926861
vt 0.748659 0.993559
vt 0.748659 0.602277
vt 0.868743 0.926861
vt 0.868743 0.993559
vt 0.868743 0.077840
vt 0.868743 0.239191
vt 0.988828 0.926861
vt 0.988828 0.993559
vt 0.868743 0.602277
vt 0.988828 0.602277
vt 0.988828 0.239191
vt 0.988828 0.077840
vt 0.412145 0.693791
vt 0.318220 0.599669
vt 0.348426 0.526960
vt 0.484917 0.663736
vt 0.155197 0.526759
vt 0.412007 0.826759
vt 0.484716 0.856965
vt 0.185251 0.599531
vt 0.018421 0.663250
vt 0.317886 0.920685
vt 0.347940 0.993457
vt 0.091130 0.693456
vt 0.018219 0.856479
vt 0.184917 0.920546
vt 0.154711 0.993255
vt 0.090991 0.826425
vt 0.292471 0.661650
vt 0.350111 0.719410
vt 0.153110 0.719205
vt 0.210870 0.661565
vt 0.350026 0.801010
vt 0.292266 0.858651
vt 0.210665 0.858565
vt 0.153025 0.800805
vt 0.969418 0.586851
vt 0.967001 0.538725
vt 0.915261 0.515381
vt 0.892307 0.586582
vt 0.933161 0.609584
vt 0.854425 0.516425
vt 0.861496 0.586625
vt 0.878518 0.778155
vt 0.867104 0.776743
vt 0.885434 0.897501
vt 0.860677 0.898527
vt 0.835918 0.899571
vt 0.855082 0.779971
vt 0.831586 0.595808
vt 0.846394 0.401369
vt 0.794868 0.530322
vt 0.755553 0.613510
vt 0.795765 0.628374
vt 0.747734 0.568575
vt 0.899180 0.404885
vt 0.996903 0.457660
vt 0.973573 0.517028
vt 0.971534 0.402772
vt 0.794548 0.412509
vt 0.702918 0.491447
vt 0.738074 0.549789
vt 0.716446 0.434896
vt 0.848775 0.281776
vt 0.884104 0.297984
vt 0.968200 0.333321
vt 0.968027 0.379220
vt 0.928074 0.277876
vt 0.850438 0.147820
vt 0.906042 0.227845
vt 0.813053 0.297131
vt 0.792864 0.226456
vt 0.720815 0.343075
vt 0.768426 0.278544
vt 0.722352 0.398855
vt 0.064799 0.160379
vt 0.057164 0.184386
vt 0.094042 0.218596
vt 0.126932 0.176525
vt 0.097862 0.149099
vt 0.140443 0.240386
vt 0.151438 0.189230
vt 0.164780 0.063789
vt 0.173897 0.067126
vt 0.162093 0.014143
vt 0.182187 0.017393
vt 0.202286 0.020624
vt 0.183760 0.067012
vt 0.178319 0.188252
vt 0.117400 0.321387
vt 0.190553 0.243047
vt 0.242039 0.192455
vt 0.214663 0.171250
vt 0.238594 0.223456
vt 0.079550 0.298808
vt 0.017135 0.232475
vt 0.049621 0.193518
vt 0.023762 0.264836
vt 0.160454 0.326393
vt 0.253717 0.287388
vt 0.240980 0.237684
vt 0.227269 0.324266
vt 0.087027 0.398725
vt 0.065903 0.374785
vt 0.010165 0.320171
vt 0.023402 0.283983
vt 0.030207 0.364536
vt 0.044447 0.479094
vt 0.032390 0.413552
vt 0.118615 0.398016
vt 0.108138 0.451537
vt 0.202740 0.384586
vt 0.151813 0.413825
vt 0.212889 0.347774
vt 0.482093 0.077139
vt 0.514490 0.073179
vt 0.541811 0.127828
vt 0.496936 0.158887
vt 0.468749 0.116165
vt 0.566710 0.185129
vt 0.511586 0.188887
vt 0.366468 0.144596
vt 0.369085 0.157488
vt 0.252257 0.131687
vt 0.253968 0.157042
vt 0.255652 0.182395
vt 0.368546 0.168627
vt 0.509530 0.218880
vt 0.654203 0.160637
vt 0.576266 0.242658
vt 0.520329 0.287202
vt 0.492617 0.253814
vt 0.560676 0.290107
vt 0.626916 0.116770
vt 0.566616 0.031064
vt 0.523118 0.065608
vt 0.611383 0.039610
vt 0.668040 0.209416
vt 0.647171 0.309046
vt 0.582130 0.296913
vt 0.689724 0.280121
vt 0.737147 0.112647
vt 0.708228 0.092657
vt 0.656846 0.029309
vt 0.618579 0.042942
vt 0.709614 0.047319
vt 0.826538 0.020579
vt 0.750113 0.040373
vt 0.742691 0.150370
vt 0.806236 0.120434
vt 0.753807 0.245433
vt 0.779629 0.183484
vt 0.710180 0.266800
s 1
f 3/1/1 2/2/2 1/3/3
f 4/4/4 2/2/2 3/1/1
f 5/5/5 4/4/4 3/1/1
f 4/4/4 5/5/5 6/6/6
f 5/5/5 7/7/7 6/6/6
f 7/7/7 8/8/8 6/6/6
f 4/4/4 9/9/9 2/2/2
f 4/4/4 6/6/6 10/10/10
f 9/9/9 4/4/4 10/10/10
f 8/8/8 11/11/11 6/6/6
f 6/6/6 11/11/11 10/10/10
f 11/11/11 8/8/8 12/12/12
f 8/8/8 13/13/13 12/12/12
f 11/11/11 12/12/12 14/14/14
f 15/15/15 11/11/11 14/14/14
f 11/11/11 15/15/15 10/10/10
f 15/15/15 14/14/14 16/16/16
f 10/10/10 15/15/15 17/17/17
f 9/9/9 10/10/10 17/17/17
f 18/18/18 15/15/15 16/16/16
f 15/15/15 18/18/18 17/17/17
f 18/18/18 16/16/16 19/19/19
f 20/20/20 18/18/18 19/19/19
f 18/18/18 20/20/20 21/21/21
f 17/17/17 18/18/18 21/21/21
f 22/22/22 17/17/17 21/21/21
f 22/22/22 9/9/9 17/17/17
f 23/23/23 22/22/22 21/21/21
f 9/9/9 22/22/22 24/24/24
f 9/9/9 24/24/24 2/2/2
f 2/2/2 24/24/24 25/3/25
f 22/22/22 23/23/23 26/25/26
f 22/22/22 26/25/26 24/24/24
f 24/24/24 26/25/26 27/3/27
f 23/23/23 28/26/28 26/25/26
f 26/25/26 28/26/28 29/3/29
f 32/27/30 31/28/31 30/29/32
f 33/30/33 31/28/31 32/27/30
f 34/31/34 33/30/33 32/27/30
f 33/30/33 34/31/34 35/32/35
f 34/31/34 32/27/30 36/33/36
f 36/33/36 32/27/30 37/29/37
f 34/31/34 38/34/38 35/32/35
f 39/35/39 34/31/34 36/33/36
f 34/31/34 39/35/39 38/34/38
f 38/34/38 40/36/40 35/32/35
f 40/36/40 41/37/41 35/32/35
f 41/37/41 40/36/40 42/38/42
f 40/36/40 43/39/43 42/38/42
f 40/36/40 44/40/44 43/39/43
f 44/40/44 40/36/40 38/34/38
f 44/40/44 45/41/45 43/39/43
f 46/42/46 44/40/44 38/34/38
f 39/35/39 46/42/46 38/34/38
f 44/40/44 47/43/47 45/41/45
f 47/43/47 44/40/44 46/42/46
f 47/43/47 48/44/48 45/41/45
f 39/35/39 36/33/36 49/45/49
f 49/45/49 36/33/36 50/29/50
f 39/35/39 51/46/51 46/42/46
f 51/46/51 39/35/39 49/45/49
f 47/43/47 52/47/52 48/44/48
f 52/47/52 53/48/53 48/44/48
f 54/49/54 47/43/47 46/42/46
f 52/47/52 47/43/47 54/49/54
f 51/46/51 54/49/54 46/42/46
f 55/50/55 52/47/52 54/49/54
f 56/51/56 55/50/55 54/49/54
f 51/46/51 56/51/56 54/49/54
f 56/51/56 51/46/51 57/52/57
f 51/46/51 49/45/49 57/52/57
f 57/52/57 49/45/49 58/29/58
f 61/53/59 60/54/60 59/55/61
f 62/56/62 61/53/59 59/55/61
f 59/55/61 60/54/60 63/57/63
f 64/58/64 61/53/59 62/56/62
f 65/59/65 64/58/64 62/56/62
f 60/54/60 66/60/66 63/57/63
f 63/57/63 66/60/66 67/61/67
f 68/62/68 64/58/64 65/59/65
f 69/63/69 68/62/68 65/59/65
f 66/60/66 70/64/70 67/61/67
f 67/61/67 70/64/70 71/65/71
f 72/66/72 68/62/68 69/63/69
f 73/67/73 72/66/72 69/63/69
f 71/65/71 74/68/74 73/67/73
f 70/64/70 74/68/74 71/65/71
f 74/68/74 72/66/72 73/67/73
f 60/54/60 61/53/59 75/69/75
f 61/53/59 64/58/64 76/70/76
f 61/53/59 76/70/76 75/69/75
f 80/71/77 78/72/78 86/72/79 88/71/80
f 60/54/60 75/69/75 78/72/78
f 66/60/66 60/54/60 78/72/78
f 79/73/81 81/74/82 89/74/83 87/73/84
f 64/58/64 79/73/81 76/70/76
f 64/58/64 68/62/68 79/73/81
f 83/75/85 82/76/86 90/76/87 91/75/88
f 66/60/66 78/72/78 80/71/77
f 70/64/70 66/60/66 80/71/77
f 82/76/86 80/71/77 88/71/80 90/76/87
f 68/62/68 81/74/82 79/73/81
f 68/62/68 72/66/72 81/74/82
f 75/69/75 76/70/76 85/70/89 84/69/90
f 70/64/70 80/71/77 82/76/86
f 74/68/74 70/64/70 82/76/86
f 81/74/82 83/75/85 91/75/88 89/74/83
f 72/66/72 83/75/85 81/74/82
f 72/66/72 74/68/74 83/75/85
f 78/72/78 75/69/75 84/69/90 86/72/79
f 74/68/74 82/76/86 83/75/85
f 76/70/76 79/73/81 87/73/84 85/70/89
f 91/75/88 90/76/87 77/75/91
f 86/72/79 84/69/90 77/72/91
f 85/70/89 87/73/84 77/70/91
f 88/71/80 86/72/79 77/71/91
f 87/73/84 89/74/83 77/73/91
f 84/69/90 85/70/89 77/69/91
f 90/76/87 88/71/80 77/76/91
f 89/74/83 91/75/88 77/74/91
f 94/77/92 93/78/93 92/79/94
f 95/80/95 94/77/92 92/79/94
f 95/80/95 96/81/96 94/77/92
f 95/80/95 92/79/94 97/82/97
f 98/83/98 95/80/95 97/82/97
f 99/84/99 95/80/95 98/83/98
f 100/85/100 99/84/99 98/83/98
f 99/84/99 100/85/100 101/86/101
f 100/85/100 102/87/102 101/86/101
f 102/87/102 100/85/100 103/88/103
f 100/85/100 104/89/104 103/88/103
f 104/89/104 100/85/100 105/83/105
f 106/90/106 104/89/104 105/83/105
f 106/90/106 105/83/105 107/82/107
f 97/82/97 92/79/94 108/91/108
f 109/92/109 106/90/106 107/82/107
f 109/92/109 107/82/107 108/91/108
f 110/93/110 106/90/106 109/92/109
f 111/94/111 106/90/106 110/93/110
f 112/95/112 110/93/110 109/92/109
f 92/79/94 113/96/113 108/91/108
f 92/79/94 114/97/114 113/96/113
f 92/79/94 115/98/115 114/97/114
f 114/97/114 116/99/116 113/96/113
f 117/100/117 109/92/109 108/91/108
f 118/101/118 109/92/109 117/100/117
f 119/102/119 109/92/109 118/101/118
f 120/103/120 118/101/118 117/100/117
f 108/91/108 113/96/113 121/104/121
f 117/100/117 108/91/108 121/104/121
f 113/96/113 122/105/122 121/104/121
f 113/96/113 123/106/123 122/105/122
f 113/96/113 124/107/124 123/106/123
f 123/106/123 125/108/125 122/105/122
f 121/104/121 122/105/122 126/109/126
f 122/105/122 127/110/127 126/109/126
f 128/111/128 121/104/121 126/109/126
f 128/111/128 117/100/117 121/104/121
f 129/112/129 128/111/128 126/109/126
f 130/113/130 117/100/117 128/111/128
f 131/114/131 130/113/130 128/111/128
f 132/115/132 117/100/117 130/113/130
f 135/116/133 134/117/134 133/118/135
f 136/119/136 135/116/133 133/118/135
f 136/119/136 137/120/137 135/116/133
f 136/119/136 133/118/135 138/121/138
f 139/122/139 136/119/136 138/121/138
f 140/123/140 136/119/136 139/122/139
f 141/124/141 140/123/140 139/122/139
f 140/123/140 141/124/141 142/125/142
f 141/124/141 143/126/143 142/125/142
f 143/126/143 141/124/141 144/127/144
f 141/124/141 145/128/145 144/127/144
f 145/128/145 141/124/141 146/122/146
f 147/129/147 145/128/145 146/122/146
f 147/129/147 146/122/146 148/121/148
f 138/121/138 133/118/135 149/130/149
f 150/131/150 147/129/147 148/121/148
f 150/131/150 148/121/148 149/130/149
f 151/132/151 147/129/147 150/131/150
f 152/133/152 147/129/147 151/132/151
f 153/134/153 151/132/151 150/131/150
f 133/118/135 154/135/154 149/130/149
f 133/118/135 155/136/155 154/135/154
f 133/118/135 156/137/156 155/136/155
f 155/136/155 157/138/157 154/135/154
f 158/139/158 150/131/150 149/130/149
f 159/140/159 150/131/150 158/139/158
f 160/141/160 150/131/150 159/140/159
f 161/142/161 159/140/159 158/139/158
f 149/130/149 154/135/154 162/143/162
f 158/139/158 149/130/149 162/143/162
f 154/135/154 163/144/163 162/143/162
f 154/135/154 164/145/164 163/144/163
f 154/135/154 165/146/165 164/145/164
f 164/145/164 166/147/166 163/144/163
f 162/143/162 163/144/163 167/148/167
f 163/144/163 168/149/168 167/148/167
f 169/150/169 162/143/162 167/148/167
f 169/150/169 158/139/158 162/143/162
f 170/151/170 169/150/169 167/148/167
f 171/152/171 158/139/158 169/150/169
f 172/153/172 171/152/171 169/150/169
f 173/154/173 158/139/158 171/152/171
f 176/155/174 175/156/175 174/157/176
f 177/158/177 176/155/174 174/157/176
f 177/158/177 178/159/178 176/155/174
f 177/158/177 174/157/176 179/160/179
f 180/161/180 177/158/177 179/160/179
f 181/162/181 177/158/177 180/161/180
f 182/163/182 181/162/181 180/161/180
f 181/162/181 182/163/182 183/164/183
f 182/163/182 184/165/184 183/164/183
f 184/165/184 182/163/182 185/166/185
f 182/163/182 186/167/186 185/166/185
f 186/167/186 182/163/182 187/161/187
f 188/168/188 186/167/186 187/161/187
f 188/168/188 187/161/187 189/160/189
f 179/160/179 174/157/176 190/169/190
f 191/170/191 188/168/188 189/160/189
f 191/170/191 189/160/189 190/169/190
f 192/171/192 188/168/188 191/170/191
f 193/172/193 188/168/188 192/171/192
f 194/173/194 192/171/192 191/170/191
f 174/157/176 195/174/195 190/169/190
f 174/157/176 196/175/196 195/174/195
f 174/157/176 197/176/197 196/175/196
f 196/175/196 198/177/198 195/174/195
f 199/178/199 191/170/191 190/169/190
f 200/179/200 191/170/191 199/178/199
f 201/180/201 191/170/191 200/179/200
f 202/181/202 200/179/200 199/178/199
f 190/169/190 195/174/195 203/182/203
f 199/178/199 190/169/190 203/182/203
f 195/174/195 204/183/204 203/182/203
f 195/174/195 205/184/205 204/183/204
f 195/174/195 206/185/206 205/184/205
f 205/184/205 207/186/207 204/183/204
f 203/182/203 204/183/204 208/187/208
f 204/183/204 209/188/209 208/187/208
f 210/189/210 203/182/203 208/187/208
f 210/189/210 199/178/199 203/182/203
f 211/190/211 210/189/210 208/187/208
f 212/191/212 199/178/199 210/189/210
f 213/192/213 212/191/212 210/189/210
f 214/193/214 199/178/199 212/191/212
