o hermit_tarr_claws
v -0.770431 0.427097 0.224233
v -0.734870 0.459316 0.149815
v -0.676096 0.465165 0.096459
v -0.641547 0.460262 0.077349
v -0.605289 0.450325 0.064330
v -0.533228 0.417060 0.058320
v -0.781473 0.371539 0.300192
v -0.783459 0.392200 0.257828
v -0.778038 0.409721 0.215492
v -0.765417 0.423428 0.174815
v -0.746374 0.433661 0.136310
v -0.720390 0.436339 0.105922
v -0.689666 0.434903 0.080528
v -0.655383 0.429407 0.061106
v -0.618858 0.420064 0.048400
v -0.581496 0.407233 0.042899
v -0.544732 0.391406 0.044815
v -0.508774 0.369647 0.058364
v -0.476258 0.346480 0.078561
v -0.448140 0.321932 0.105678
v -0.425498 0.296944 0.138672
v -0.783651 0.364527 0.298630
v -0.787734 0.378442 0.254761
v -0.784244 0.389746 0.211041
v -0.773315 0.398006 0.169149
v -0.756015 0.404807 0.128389
v -0.731102 0.404278 0.097121
v -0.701037 0.400867 0.071186
v -0.666977 0.394705 0.051580
v -0.630230 0.386029 0.039057
v -0.592208 0.375172 0.034099
v -0.554372 0.362552 0.036895
v -0.516673 0.344224 0.052698
v -0.482464 0.326506 0.074109
v -0.452414 0.308173 0.102611
v -0.427678 0.289930 0.137108
v -0.785254 0.356870 0.298632
v -0.790879 0.363423 0.254766
v -0.788810 0.367942 0.211048
v -0.779126 0.370254 0.169158
v -0.763421 0.373863 0.126358
v -0.739331 0.369895 0.094864
v -0.709774 0.364365 0.068790
v -0.675885 0.357488 0.049137
v -0.638966 0.349527 0.036661
v -0.600437 0.340788 0.031842
v -0.561778 0.331607 0.034863
v -0.522484 0.316473 0.052708
v -0.487030 0.304702 0.074117
v -0.455559 0.293154 0.102617
v -0.429281 0.282274 0.137111
v -0.786220 0.348866 0.300201
v -0.792773 0.347721 0.257843
v -0.791560 0.345146 0.215515
v -0.782627 0.341240 0.174844
v -0.766317 0.336154 0.137391
v -0.743258 0.330081 0.104598
v -0.714335 0.323256 0.077723
v -0.680660 0.315942 0.057800
v -0.643528 0.308418 0.045595
v -0.604364 0.300975 0.041575
v -0.564674 0.293898 0.045897
v -0.525984 0.287459 0.058393
v -0.489780 0.281906 0.078584
v -0.457453 0.277452 0.105693
v -0.430247 0.274269 0.138680
v -0.786511 0.340820 0.303275
v -0.793344 0.331939 0.263873
v -0.792389 0.322234 0.224270
v -0.783682 0.312079 0.185986
v -0.767558 0.301863 0.150493
v -0.744637 0.291979 0.119156
v -0.715799 0.282808 0.093178
v -0.682153 0.274701 0.073558
v -0.644991 0.267970 0.061049
v -0.605743 0.262873 0.056133
v -0.565915 0.259607 0.058999
v -0.527039 0.258297 0.069535
v -0.490609 0.258994 0.087338
v -0.458025 0.261670 0.111723
v -0.430538 0.266223 0.141754
v -0.772153 0.348536 0.340961
v -0.786117 0.333043 0.307737
v -0.792570 0.316683 0.272625
v -0.791265 0.300086 0.236975
v -0.782252 0.283890 0.202157
v -0.765876 0.268717 0.169508
v -0.742768 0.255149 0.140284
v -0.713815 0.243709 0.115608
v -0.680130 0.234836 0.096427
v -0.643007 0.228871 0.083479
v -0.603874 0.226043 0.077262
v -0.564233 0.226461 0.078014
v -0.525609 0.230109 0.085706
v -0.489485 0.236846 0.100044
v -0.457250 0.246414 0.120475
v -0.430143 0.258446 0.146215
v -0.785052 0.325833 0.313414
v -0.790481 0.302540 0.283762
v -0.788232 0.279554 0.253143
v -0.778391 0.257758 0.222735
v -0.761336 0.237988 0.193706
v -0.737723 0.221005 0.167171
v -0.708459 0.207462 0.144151
v -0.674670 0.197879 0.125529
v -0.637652 0.192624 0.112022
v -0.598829 0.191899 0.104149
v -0.559693 0.195732 0.102211
v -0.521748 0.203976 0.106285
v -0.486452 0.216314 0.116212
v -0.455161 0.232272 0.131612
v -0.429078 0.251236 0.151893
v -0.783357 0.319467 0.320089
v -0.787156 0.290054 0.296856
v -0.783405 0.261427 0.272153
v -0.772247 0.234686 0.246930
v -0.754112 0.210858 0.222156
v -0.729696 0.190861 0.198783
v -0.699938 0.175461 0.177710
v -0.665981 0.165250 0.159746
v -0.629131 0.160622 0.145581
v -0.590802 0.161754 0.135761
v -0.552469 0.168603 0.130661
v -0.515605 0.180904 0.130479
v -0.481625 0.198187 0.135222
v -0.451836 0.219785 0.144706
v -0.427383 0.244870 0.158568
v -0.409205 0.272478 0.176275
v -0.753975 0.376143 0.358667
v -0.729522 0.401228 0.372529
v -0.699731 0.422826 0.382013
v -0.665753 0.440109 0.386756
v -0.628889 0.452411 0.386574
v -0.590553 0.459259 0.381474
v -0.552230 0.460392 0.371656
v -0.515377 0.455763 0.357490
v -0.481420 0.445553 0.339526
v -0.451662 0.430153 0.318452
v -0.427246 0.410155 0.295080
v -0.409111 0.386328 0.270306
v -0.397953 0.359587 0.245083
v -0.394202 0.330959 0.220380
v -0.398001 0.301546 0.197146
v -0.756235 0.381420 0.351251
v -0.733954 0.411578 0.357981
v -0.706168 0.437853 0.360893
v -0.673943 0.459234 0.359875
v -0.638519 0.474899 0.354965
v -0.601256 0.484248 0.346352
v -0.563586 0.486917 0.334370
v -0.526958 0.482809 0.319475
v -0.492779 0.472079 0.302241
v -0.462362 0.455140 0.283330
v -0.436876 0.432643 0.263470
v -0.417300 0.405452 0.243424
v -0.404388 0.374613 0.223962
v -0.398634 0.341310 0.205831
v -0.400261 0.306823 0.189730
v -0.758972 0.385404 0.343378
v -0.739323 0.419395 0.342538
v -0.713963 0.449201 0.338473
v -0.683865 0.473677 0.331338
v -0.650185 0.491882 0.321411
v -0.614219 0.503117 0.309070
v -0.577348 0.506950 0.294789
v -0.540989 0.503234 0.279119
v -0.506540 0.492112 0.262661
v -0.475325 0.474011 0.246047
v -0.448542 0.449626 0.229916
v -0.427222 0.419895 0.214889
v -0.412183 0.385960 0.201542
v -0.404004 0.349126 0.190388
v -0.402998 0.310808 0.181857
v -0.762082 0.387944 0.335351
v -0.745424 0.424377 0.326793
v -0.722819 0.456433 0.315615
v -0.695136 0.482882 0.302247
v -0.663439 0.502706 0.287202
v -0.628945 0.515145 0.271059
v -0.592982 0.519719 0.254437
v -0.556929 0.516253 0.237976
v -0.522174 0.504881 0.222308
v -0.490051 0.486038 0.208036
v -0.461796 0.460451 0.195707
v -0.438493 0.429101 0.185797
v -0.421039 0.393193 0.178684
v -0.410104 0.354108 0.174644
v -0.406108 0.313347 0.173830
v -0.765444 0.388942 0.327480
v -0.752020 0.426333 0.311352
v -0.732395 0.459273 0.293198
v -0.707324 0.486497 0.273716
v -0.677771 0.506957 0.253653
v -0.644870 0.519867 0.233781
v -0.609888 0.524732 0.214863
v -0.574167 0.521365 0.197627
v -0.539080 0.509894 0.182734
v -0.505976 0.490761 0.170758
v -0.476128 0.464701 0.162158
v -0.450682 0.432715 0.157265
v -0.430615 0.396033 0.156267
v -0.416700 0.356064 0.159203
v -0.409471 0.314345 0.165958
v -0.768931 0.388358 0.320065
v -0.758859 0.425188 0.296808
v -0.742324 0.457611 0.272084
v -0.719962 0.484382 0.246842
v -0.693851 0.508062 0.217704
v -0.662029 0.519009 0.196362
v -0.627710 0.522664 0.176540
v -0.592213 0.518888 0.158998
v -0.556902 0.507826 0.144411
v -0.523135 0.489902 0.133340
v -0.492208 0.465806 0.126209
v -0.463319 0.430600 0.130391
v -0.440544 0.394371 0.135153
v -0.423539 0.354919 0.144658
v -0.412957 0.313761 0.158544
v -0.772407 0.386216 0.313393
v -0.765678 0.420987 0.283720
v -0.752224 0.451512 0.253083
v -0.732562 0.476617 0.222659
v -0.708094 0.497245 0.191309
v -0.677855 0.506990 0.167034
v -0.644511 0.509905 0.145405
v -0.609343 0.505879 0.127254
v -0.573703 0.495067 0.113277
v -0.538961 0.477883 0.104012
v -0.506451 0.454990 0.099815
v -0.475919 0.422837 0.106207
v -0.450444 0.388271 0.116151
v -0.430358 0.350718 0.131570
v -0.416434 0.311619 0.151872
v -0.775740 0.382598 0.307719
v -0.772216 0.413889 0.272591
v -0.761715 0.441208 0.236925
v -0.744641 0.463504 0.202093
v -0.721945 0.480786 0.168386
v -0.693245 0.488701 0.141563
v -0.660849 0.490490 0.118365
v -0.626001 0.486083 0.099684
v -0.590041 0.475651 0.086237
v -0.554351 0.459595 0.078541
v -0.520302 0.438531 0.076891
v -0.487998 0.409723 0.085643
v -0.459935 0.377968 0.099994
v -0.436896 0.343621 0.120441
v -0.419766 0.308001 0.146198
v -0.778801 0.377643 0.303262
v -0.778219 0.404170 0.263848
v -0.755735 0.445544 0.185939
v -0.707607 0.464845 0.120928
v -0.568713 0.435739 0.057906
v -0.499092 0.391763 0.069488
v -0.468651 0.363857 0.087301
v -0.442900 0.333901 0.111698
v -0.422827 0.303046 0.141741
v -0.747213 0.302521 0.389569
v -0.757795 0.275057 0.369850
v -0.761385 0.247269 0.347900
v -0.757841 0.220223 0.324561
v -0.747300 0.194960 0.300732
v -0.730167 0.172449 0.277326
v -0.707100 0.153556 0.255245
v -0.678986 0.139006 0.235335
v -0.646905 0.129360 0.218364
v -0.612090 0.124988 0.204982
v -0.575879 0.126057 0.195704
v -0.539664 0.132527 0.190886
v -0.504835 0.144149 0.190714
v -0.472733 0.160477 0.195195
v -0.444590 0.180882 0.204155
v -0.421488 0.204581 0.217251
v -0.404314 0.230664 0.233980
v -0.730037 0.328602 0.406296
v -0.706935 0.352302 0.419392
v -0.678792 0.372707 0.428353
v -0.646689 0.389034 0.432833
v -0.611861 0.400657 0.432661
v -0.575646 0.407126 0.427844
v -0.539435 0.408196 0.418566
v -0.504620 0.403823 0.405184
v -0.472539 0.394177 0.388212
v -0.444425 0.379628 0.368303
v -0.421358 0.360735 0.346221
v -0.404225 0.338224 0.322816
v -0.393684 0.312960 0.298986
v -0.390140 0.285915 0.275648
v -0.393729 0.258126 0.253698
v -0.700471 0.242521 0.442116
v -0.709303 0.219604 0.425662
v -0.712299 0.196416 0.407345
v -0.709341 0.173847 0.387870
v -0.700545 0.152766 0.367985
v -0.686248 0.133981 0.348454
v -0.666999 0.118215 0.330028
v -0.643539 0.106074 0.313414
v -0.616769 0.098025 0.299252
v -0.587717 0.094376 0.288085
v -0.557500 0.095269 0.280343
v -0.527279 0.100668 0.276323
v -0.498216 0.110366 0.276179
v -0.471428 0.123991 0.279918
v -0.447943 0.141018 0.287395
v -0.428666 0.160794 0.298323
v -0.414335 0.182559 0.312283
v -0.686140 0.264286 0.456076
v -0.666862 0.284062 0.467004
v -0.643377 0.301090 0.474481
v -0.616589 0.314715 0.478220
v -0.587526 0.324413 0.478076
v -0.557305 0.329812 0.474056
v -0.527089 0.330704 0.466314
v -0.498037 0.327056 0.455147
v -0.471266 0.319006 0.440985
v -0.447806 0.306865 0.424371
v -0.428560 0.291100 0.405946
v -0.414260 0.272315 0.386414
v -0.405464 0.251233 0.366529
v -0.402507 0.228665 0.347054
v -0.405502 0.205476 0.328737
v -0.649522 0.183903 0.489430
v -0.656291 0.166339 0.476819
v -0.658587 0.148567 0.462781
v -0.656320 0.131270 0.447855
v -0.649576 0.115111 0.432613
v -0.638621 0.100715 0.417645
v -0.623868 0.088632 0.403523
v -0.605888 0.079327 0.390790
v -0.585370 0.073157 0.379935
v -0.563104 0.070361 0.371377
v -0.539945 0.071045 0.365443
v -0.516783 0.075183 0.362362
v -0.494508 0.082616 0.362252
v -0.473977 0.093058 0.365117
v -0.455978 0.106109 0.370848
v -0.441202 0.121266 0.379224
v -0.430219 0.137947 0.389923
v -0.638538 0.200584 0.500129
v -0.623763 0.215741 0.508505
v -0.605764 0.228792 0.514236
v -0.585232 0.239234 0.517101
v -0.562958 0.246667 0.516991
v -0.539796 0.250805 0.513910
v -0.516637 0.251489 0.507976
v -0.494371 0.248693 0.499418
v -0.473853 0.242523 0.488563
v -0.455872 0.233218 0.475830
v -0.441120 0.221135 0.461708
v -0.430162 0.206738 0.446739
v -0.423420 0.190580 0.431498
v -0.421156 0.173284 0.416573
v -0.423449 0.155511 0.402534
v -0.603971 0.134410 0.525730
v -0.608804 0.121854 0.516714
v -0.610444 0.109085 0.506654
v -0.608828 0.096659 0.495961
v -0.604011 0.085035 0.485039
v -0.596172 0.074664 0.474305
v -0.585634 0.065958 0.464185
v -0.572778 0.059253 0.455060
v -0.558114 0.054817 0.447291
v -0.542200 0.052817 0.441173
v -0.525646 0.053334 0.436944
v -0.509094 0.056345 0.434764
v -0.493176 0.061731 0.434714
v -0.478500 0.069272 0.436796
v -0.465633 0.078676 0.440921
v -0.455076 0.089510 0.446908
v -0.447227 0.101496 0.454582
v -0.596115 0.146331 0.533374
v -0.585555 0.157165 0.539361
v -0.572695 0.166426 0.543433
v -0.558019 0.173826 0.545454
v -0.542095 0.179061 0.545344
v -0.525545 0.181941 0.543108
v -0.508992 0.182431 0.538868
v -0.493073 0.180360 0.532719
v -0.478408 0.175949 0.524963
v -0.465562 0.169299 0.515865
v -0.455017 0.160736 0.505798
v -0.447187 0.150524 0.495134
v -0.442366 0.139051 0.484270
v -0.440746 0.126688 0.473602
v -0.442383 0.114049 0.463593
v -0.560050 0.063214 0.549514
v -0.563008 0.055470 0.543976
v -0.564014 0.047576 0.537792
v -0.563020 0.039841 0.531198
v -0.560075 0.032581 0.524455
v -0.555287 0.026086 0.517834
v -0.548846 0.020628 0.511591
v -0.540992 0.016427 0.505972
v -0.532026 0.013653 0.501198
v -0.522300 0.012431 0.497459
v -0.512185 0.012810 0.494900
v -0.502069 0.014681 0.493581
v -0.492333 0.018063 0.493587
v -0.483366 0.022774 0.494900
v -0.475503 0.028610 0.497460
v -0.469047 0.035338 0.501162
v -0.464246 0.042689 0.505858
v -0.555251 0.070501 0.554188
v -0.548798 0.077051 0.557817
v -0.540933 0.082620 0.560267
v -0.531962 0.087085 0.561479
v -0.522237 0.090184 0.561369
v -0.512118 0.091820 0.559955
v -0.502002 0.092030 0.557327
v -0.492274 0.090731 0.553554
v -0.483311 0.088036 0.548812
v -0.475457 0.084001 0.543264
v -0.469013 0.078770 0.537115
v -0.464226 0.072569 0.530612
v -0.461280 0.065550 0.523968
v -0.460289 0.058061 0.517477
v -0.461293 0.050361 0.511372
v -0.526989 0.003821 0.564194
v -0.528524 -0.000196 0.561324
v -0.529040 -0.004289 0.558117
v -0.528530 -0.008295 0.554705
v -0.527006 -0.012055 0.551216
v -0.524529 -0.015418 0.547787
v -0.521190 -0.018247 0.544554
v -0.517121 -0.020428 0.541640
v -0.512480 -0.021873 0.539165
v -0.507451 -0.022505 0.537232
v -0.502213 -0.022350 0.535890
v -0.496975 -0.021415 0.535193
v -0.491937 -0.019682 0.535189
v -0.487292 -0.017247 0.535867
v -0.483223 -0.014198 0.537204
v -0.479878 -0.010742 0.539108
v -0.477394 -0.006970 0.541528
v -0.524505 0.007593 0.566613
v -0.521164 0.011021 0.568507
v -0.517093 0.013973 0.569803
v -0.512454 0.016289 0.570434
v -0.507418 0.017898 0.570379
v -0.502177 0.018738 0.569643
v -0.496940 0.018822 0.568273
v -0.491904 0.018155 0.566324
v -0.487264 0.016760 0.563869
v -0.483201 0.014577 0.560958
v -0.479864 0.011845 0.557765
v -0.477383 0.008667 0.554410
v -0.475859 0.005013 0.550963
v -0.475346 0.001100 0.547587
v -0.475865 -0.002919 0.544412
v -0.499757 -0.033594 0.578714
v -0.500086 -0.034446 0.578102
v -0.500198 -0.035307 0.577418
v -0.500086 -0.036182 0.576683
v -0.499760 -0.036964 0.575941
v -0.499229 -0.037664 0.575214
v -0.498517 -0.038251 0.574534
v -0.497639 -0.038702 0.573914
v -0.496642 -0.039067 0.573359
v -0.495562 -0.039202 0.572944
v -0.494439 -0.039167 0.572654
v -0.493314 -0.038968 0.572507
v -0.492233 -0.038608 0.572501
v -0.491243 -0.038098 0.572640
v -0.490369 -0.037466 0.572921
v -0.489652 -0.036731 0.573327
v -0.489115 -0.035856 0.573870
v -0.499225 -0.032783 0.579231
v -0.498508 -0.032047 0.579637
v -0.497634 -0.031416 0.579918
v -0.496638 -0.030907 0.580055
v -0.495556 -0.030548 0.580051
v -0.494438 -0.030345 0.579902
v -0.493308 -0.030314 0.579614
v -0.492228 -0.030448 0.579196
v -0.491233 -0.030747 0.578670
v -0.490360 -0.031233 0.578038
v -0.489644 -0.031820 0.577353
v -0.489112 -0.032518 0.576627
v -0.488784 -0.033304 0.575889
v -0.488680 -0.034140 0.575165
v -0.488791 -0.035005 0.574486
v -0.493747 -0.040345 0.583123
v -0.493817 -0.040529 0.582994
v -0.493841 -0.040715 0.582848
v -0.493817 -0.040893 0.582694
v -0.493747 -0.041059 0.582534
v -0.493634 -0.041208 0.582378
v -0.493481 -0.041335 0.582231
v -0.493294 -0.041431 0.582099
v -0.493081 -0.041494 0.581987
v -0.492850 -0.041524 0.581897
v -0.492610 -0.041517 0.581836
v -0.492369 -0.041475 0.581807
v -0.492139 -0.041397 0.581803
v -0.491925 -0.041290 0.581835
v -0.491739 -0.041153 0.581892
v -0.491584 -0.040997 0.581981
v -0.491471 -0.040822 0.582090
v -0.493632 -0.040174 0.583236
v -0.493480 -0.040016 0.583320
v -0.493293 -0.039882 0.583382
v -0.493080 -0.039772 0.583410
v -0.492848 -0.039696 0.583411
v -0.492609 -0.039652 0.583377
v -0.492368 -0.039646 0.583317
v -0.492137 -0.039673 0.583227
v -0.491924 -0.039738 0.583114
v -0.491738 -0.039834 0.582981
v -0.491584 -0.039959 0.582835
v -0.491471 -0.040109 0.582680
v -0.491401 -0.040277 0.582521
v -0.491377 -0.040458 0.582369
v -0.491400 -0.040642 0.582223
v -0.493758 -0.040696 0.582836
v -0.493651 -0.040499 0.582973
v -0.493503 -0.040305 0.583091
v -0.493318 -0.040122 0.583188
v -0.493102 -0.039960 0.583264
v -0.492866 -0.039823 0.583311
v -0.492618 -0.039717 0.583329
v -0.493651 -0.040863 0.582668
v -0.493501 -0.040662 0.582796
v -0.493319 -0.040457 0.582914
v -0.493109 -0.040260 0.583018
v -0.492876 -0.040074 0.583103
v -0.492629 -0.039913 0.583170
v -0.492381 -0.039776 0.583210
v -0.493488 -0.041027 0.582487
v -0.493307 -0.040828 0.582601
v -0.493097 -0.040622 0.582712
v -0.492867 -0.040417 0.582820
v -0.492625 -0.040218 0.582918
v -0.492382 -0.040033 0.582998
v -0.492144 -0.039872 0.583068
v -0.493294 -0.041176 0.582313
v -0.493080 -0.040991 0.582406
v -0.492849 -0.040791 0.582503
v -0.492609 -0.040584 0.582607
v -0.492368 -0.040378 0.582712
v -0.492137 -0.040179 0.582812
v -0.491924 -0.039997 0.582903
v -0.493073 -0.041299 0.582150
v -0.492836 -0.041136 0.582215
v -0.492592 -0.040953 0.582300
v -0.492351 -0.040755 0.582396
v -0.492121 -0.040546 0.582501
v -0.491911 -0.040340 0.582612
v -0.491730 -0.040142 0.582725
v -0.492838 -0.041393 0.582002
v -0.492588 -0.041260 0.582046
v -0.492342 -0.041097 0.582112
v -0.492109 -0.040913 0.582198
v -0.491897 -0.040714 0.582303
v -0.491717 -0.040509 0.582421
v -0.491573 -0.040304 0.582547
v -0.492599 -0.041455 0.581888
v -0.492351 -0.041348 0.581907
v -0.492115 -0.041211 0.581953
v -0.491901 -0.041047 0.582025
v -0.491715 -0.040867 0.582125
v -0.491566 -0.040673 0.582244
v -0.491461 -0.040473 0.582376
v 0.770431 0.427097 0.224233
v 0.734871 0.459316 0.149815
v 0.676096 0.465165 0.096459
v 0.641547 0.460262 0.077349
v 0.605289 0.450325 0.064330
v 0.533228 0.417060 0.058320
v 0.781473 0.371539 0.300192
v 0.783460 0.392200 0.257828
v 0.778038 0.409721 0.215492
v 0.765417 0.423428 0.174815
v 0.746375 0.433661 0.136310
v 0.720390 0.436339 0.105922
v 0.689666 0.434903 0.080528
v 0.655383 0.429407 0.061106
v 0.618859 0.420064 0.048400
v 0.581496 0.407233 0.042899
v 0.544732 0.391406 0.044815
v 0.508775 0.369647 0.058364
v 0.476259 0.346480 0.078561
v 0.448140 0.321932 0.105678
v 0.425499 0.296944 0.138672
v 0.783652 0.364527 0.298630
v 0.787734 0.378442 0.254761
v 0.784244 0.389746 0.211041
v 0.773315 0.398006 0.169149
v 0.756015 0.404807 0.128389
v 0.731102 0.404278 0.097121
v 0.701038 0.400867 0.071186
v 0.666978 0.394705 0.051580
v 0.630230 0.386029 0.039057
v 0.592208 0.375172 0.034099
v 0.554373 0.362552 0.036895
v 0.516673 0.344224 0.052698
v 0.482465 0.326506 0.074109
v 0.452415 0.308173 0.102611
v 0.427678 0.289930 0.137108
v 0.785255 0.356870 0.298632
v 0.790879 0.363423 0.254766
v 0.788810 0.367942 0.211048
v 0.779127 0.370254 0.169158
v 0.763422 0.373863 0.126358
v 0.739332 0.369895 0.094864
v 0.709774 0.364365 0.068790
v 0.675885 0.357488 0.049137
v 0.638967 0.349527 0.036661
v 0.600438 0.340788 0.031842
v 0.561779 0.331607 0.034863
v 0.522484 0.316473 0.052708
v 0.487030 0.304702 0.074117
v 0.455559 0.293154 0.102617
v 0.429281 0.282274 0.137111
v 0.786221 0.348866 0.300201
v 0.792774 0.347721 0.257843
v 0.791560 0.345146 0.215515
v 0.782627 0.341240 0.174844
v 0.766317 0.336154 0.137391
v 0.743258 0.330081 0.104598
v 0.714335 0.323256 0.077723
v 0.680661 0.315942 0.057800
v 0.643528 0.308418 0.045595
v 0.604364 0.300975 0.041575
v 0.564675 0.293898 0.045897
v 0.525985 0.287459 0.058393
v 0.489781 0.281906 0.078584
v 0.457454 0.277452 0.105693
v 0.430247 0.274269 0.138680
v 0.786512 0.340820 0.303275
v 0.793345 0.331939 0.263873
v 0.792389 0.322234 0.224270
v 0.783682 0.312079 0.185986
v 0.767558 0.301863 0.150493
v 0.744637 0.291979 0.119156
v 0.715799 0.282808 0.093178
v 0.682153 0.274701 0.073558
v 0.644992 0.267970 0.061049
v 0.605743 0.262873 0.056133
v 0.565916 0.259607 0.058999
v 0.527040 0.258297 0.069535
v 0.490610 0.258994 0.087338
v 0.458025 0.261670 0.111723
v 0.430538 0.266223 0.141754
v 0.772153 0.348536 0.340961
v 0.786117 0.333043 0.307737
v 0.792571 0.316683 0.272625
v 0.791265 0.300086 0.236975
v 0.782252 0.283890 0.202157
v 0.765877 0.268717 0.169508
v 0.742768 0.255149 0.140284
v 0.713815 0.243709 0.115608
v 0.680130 0.234836 0.096427
v 0.643008 0.228871 0.083479
v 0.603874 0.226043 0.077262
v 0.564234 0.226461 0.078014
v 0.525609 0.230109 0.085706
v 0.489486 0.236846 0.100044
v 0.457251 0.246414 0.120475
v 0.430144 0.258446 0.146215
v 0.785052 0.325833 0.313414
v 0.790481 0.302540 0.283762
v 0.788232 0.279554 0.253143
v 0.778391 0.257758 0.222735
v 0.761336 0.237988 0.193706
v 0.737724 0.221005 0.167171
v 0.708460 0.207462 0.144151
v 0.674670 0.197879 0.125529
v 0.637652 0.192624 0.112022
v 0.598830 0.191899 0.104149
v 0.559694 0.195732 0.102211
v 0.521749 0.203976 0.106285
v 0.486452 0.216314 0.116212
v 0.455161 0.232272 0.131612
v 0.429079 0.251236 0.151893
v 0.783357 0.319467 0.320089
v 0.787156 0.290054 0.296856
v 0.783405 0.261427 0.272153
v 0.772248 0.234686 0.246930
v 0.754112 0.210858 0.222156
v 0.729697 0.190861 0.198783
v 0.699939 0.175461 0.177710
v 0.665982 0.165250 0.159746
v 0.629131 0.160622 0.145581
v 0.590803 0.161754 0.135761
v 0.552470 0.168603 0.130661
v 0.515605 0.180904 0.130479
v 0.481625 0.198187 0.135222
v 0.451837 0.219785 0.144706
v 0.427384 0.244870 0.158568
v 0.409206 0.272478 0.176275
v 0.753975 0.376143 0.358667
v 0.729522 0.401228 0.372529
v 0.699731 0.422826 0.382013
v 0.665754 0.440109 0.386756
v 0.628889 0.452411 0.386574
v 0.590553 0.459259 0.381474
v 0.552230 0.460392 0.371656
v 0.515377 0.455763 0.357490
v 0.481420 0.445553 0.339526
v 0.451662 0.430153 0.318452
v 0.427247 0.410155 0.295080
v 0.409111 0.386328 0.270306
v 0.397954 0.359587 0.245083
v 0.394203 0.330959 0.220380
v 0.398002 0.301546 0.197146
v 0.756235 0.381420 0.351251
v 0.733954 0.411578 0.357981
v 0.706168 0.437853 0.360893
v 0.673944 0.459234 0.359875
v 0.638519 0.474899 0.354965
v 0.601257 0.484248 0.346352
v 0.563587 0.486917 0.334370
v 0.526959 0.482809 0.319475
v 0.492779 0.472079 0.302241
v 0.462362 0.455140 0.283330
v 0.436876 0.432643 0.263470
v 0.417301 0.405452 0.243424
v 0.404388 0.374613 0.223962
v 0.398635 0.341310 0.205831
v 0.400262 0.306823 0.189730
v 0.758972 0.385404 0.343378
v 0.739324 0.419395 0.342538
v 0.713963 0.449201 0.338473
v 0.683865 0.473677 0.331338
v 0.650185 0.491882 0.321411
v 0.614219 0.503117 0.309070
v 0.577348 0.506950 0.294789
v 0.540990 0.503234 0.279119
v 0.506541 0.492112 0.262661
v 0.475325 0.474011 0.246047
v 0.448543 0.449626 0.229916
v 0.427222 0.419895 0.214889
v 0.412184 0.385960 0.201542
v 0.404004 0.349126 0.190388
v 0.402999 0.310808 0.181857
v 0.762082 0.387944 0.335351
v 0.745424 0.424377 0.326793
v 0.722819 0.456433 0.315615
v 0.695136 0.482882 0.302247
v 0.663439 0.502706 0.287202
v 0.628946 0.515145 0.271059
v 0.592982 0.519719 0.254437
v 0.556930 0.516253 0.237976
v 0.522175 0.504881 0.222308
v 0.490052 0.486038 0.208036
v 0.461797 0.460451 0.195707
v 0.438494 0.429101 0.185797
v 0.421039 0.393193 0.178684
v 0.410104 0.354108 0.174644
v 0.406108 0.313347 0.173830
v 0.765445 0.388942 0.327480
v 0.752020 0.426333 0.311352
v 0.732395 0.459273 0.293198
v 0.707325 0.486497 0.273716
v 0.677771 0.506957 0.253653
v 0.644871 0.519867 0.233781
v 0.609888 0.524732 0.214863
v 0.574167 0.521365 0.197627
v 0.539081 0.509894 0.182734
v 0.505977 0.490761 0.170758
v 0.476128 0.464701 0.162158
v 0.450682 0.432715 0.157265
v 0.430616 0.396033 0.156267
v 0.416701 0.356064 0.159203
v 0.409471 0.314345 0.165958
v 0.768931 0.388358 0.320065
v 0.758859 0.425188 0.296808
v 0.742324 0.457611 0.272084
v 0.719962 0.484382 0.246842
v 0.693851 0.508062 0.217704
v 0.662029 0.519009 0.196362
v 0.627710 0.522664 0.176540
v 0.592214 0.518888 0.158998
v 0.556903 0.507826 0.144411
v 0.523135 0.489902 0.133340
v 0.492209 0.465806 0.126209
v 0.463319 0.430600 0.130391
v 0.440545 0.394371 0.135153
v 0.423540 0.354919 0.144658
v 0.412958 0.313761 0.158544
v 0.772408 0.386216 0.313393
v 0.765679 0.420987 0.283720
v 0.752224 0.451512 0.253083
v 0.732562 0.476617 0.222659
v 0.708094 0.497245 0.191309
v 0.677855 0.506990 0.167034
v 0.644511 0.509905 0.145405
v 0.609344 0.505879 0.127254
v 0.573704 0.495067 0.113277
v 0.538961 0.477883 0.104012
v 0.506452 0.454990 0.099815
v 0.475920 0.422837 0.106207
v 0.450445 0.388271 0.116151
v 0.430359 0.350718 0.131570
v 0.416434 0.311619 0.151872
v 0.775740 0.382598 0.307719
v 0.772216 0.413889 0.272591
v 0.761715 0.441208 0.236925
v 0.744641 0.463504 0.202093
v 0.721945 0.480786 0.168386
v 0.693245 0.488701 0.141563
v 0.660849 0.490490 0.118365
v 0.626001 0.486083 0.099684
v 0.590042 0.475651 0.086237
v 0.554351 0.459595 0.078541
v 0.520303 0.438531 0.076891
v 0.487999 0.409723 0.085643
v 0.459935 0.377968 0.099994
v 0.436896 0.343621 0.120441
v 0.419767 0.308001 0.146198
v 0.778801 0.377643 0.303262
v 0.778220 0.404170 0.263848
v 0.755735 0.445544 0.185939
v 0.707608 0.464845 0.120928
v 0.568714 0.435739 0.057906
v 0.499093 0.391763 0.069488
v 0.468652 0.363857 0.087301
v 0.442900 0.333901 0.111698
v 0.422828 0.303046 0.141741
v 0.747214 0.302521 0.389569
v 0.757796 0.275057 0.369850
v 0.761385 0.247269 0.347900
v 0.757841 0.220223 0.324561
v 0.747300 0.194960 0.300732
v 0.730167 0.172449 0.277326
v 0.707100 0.153556 0.255245
v 0.678986 0.139006 0.235335
v 0.646905 0.129360 0.218364
v 0.612090 0.124988 0.204982
v 0.575879 0.126057 0.195704
v 0.539664 0.132527 0.190886
v 0.504836 0.144149 0.190714
v 0.472733 0.160477 0.195195
v 0.444590 0.180882 0.204155
v 0.421488 0.204581 0.217251
v 0.404315 0.230664 0.233980
v 0.730037 0.328602 0.406296
v 0.706935 0.352302 0.419392
v 0.678792 0.372707 0.428353
v 0.646690 0.389034 0.432833
v 0.611862 0.400657 0.432661
v 0.575646 0.407126 0.427844
v 0.539435 0.408196 0.418566
v 0.504621 0.403823 0.405184
v 0.472540 0.394177 0.388212
v 0.444426 0.379628 0.368303
v 0.421359 0.360735 0.346221
v 0.404225 0.338224 0.322816
v 0.393684 0.312960 0.298986
v 0.390140 0.285915 0.275648
v 0.393730 0.258126 0.253698
v 0.700471 0.242521 0.442116
v 0.709304 0.219604 0.425662
v 0.712299 0.196416 0.407345
v 0.709342 0.173847 0.387870
v 0.700545 0.152766 0.367985
v 0.686248 0.133981 0.348454
v 0.667000 0.118215 0.330028
v 0.643539 0.106074 0.313414
v 0.616769 0.098025 0.299252
v 0.587717 0.094376 0.288085
v 0.557500 0.095269 0.280343
v 0.527280 0.100668 0.276323
v 0.498217 0.110366 0.276179
v 0.471428 0.123991 0.279918
v 0.447944 0.141018 0.287395
v 0.428666 0.160794 0.298323
v 0.414335 0.182559 0.312283
v 0.686140 0.264286 0.456076
v 0.666862 0.284062 0.467004
v 0.643378 0.301090 0.474481
v 0.616589 0.314715 0.478220
v 0.587526 0.324413 0.478076
v 0.557306 0.329812 0.474056
v 0.527089 0.330704 0.466314
v 0.498037 0.327056 0.455147
v 0.471267 0.319006 0.440985
v 0.447806 0.306865 0.424371
v 0.428560 0.291100 0.405946
v 0.414261 0.272315 0.386414
v 0.405465 0.251233 0.366529
v 0.402507 0.228665 0.347054
v 0.405502 0.205476 0.328737
v 0.649522 0.183903 0.489430
v 0.656292 0.166339 0.476819
v 0.658587 0.148567 0.462781
v 0.656321 0.131270 0.447855
v 0.649576 0.115111 0.432613
v 0.638621 0.100715 0.417645
v 0.623869 0.088632 0.403523
v 0.605888 0.079327 0.390790
v 0.585370 0.073157 0.379935
v 0.563104 0.070361 0.371377
v 0.539945 0.071045 0.365443
v 0.516783 0.075183 0.362362
v 0.494509 0.082616 0.362252
v 0.473977 0.093058 0.365117
v 0.455978 0.106109 0.370848
v 0.441203 0.121266 0.379224
v 0.430220 0.137947 0.389923
v 0.638538 0.200584 0.500129
v 0.623763 0.215741 0.508505
v 0.605764 0.228792 0.514236
v 0.585233 0.239234 0.517101
v 0.562958 0.246667 0.516991
v 0.539796 0.250805 0.513910
v 0.516637 0.251489 0.507976
v 0.494371 0.248693 0.499418
v 0.473853 0.242523 0.488563
v 0.455873 0.233218 0.475830
v 0.441120 0.221135 0.461708
v 0.430162 0.206738 0.446739
v 0.423421 0.190580 0.431498
v 0.421157 0.173284 0.416573
v 0.423450 0.155511 0.402534
v 0.603971 0.134410 0.525730
v 0.608805 0.121854 0.516714
v 0.610445 0.109085 0.506654
v 0.608829 0.096659 0.495961
v 0.604012 0.085035 0.485039
v 0.596173 0.074664 0.474305
v 0.585635 0.065958 0.464185
v 0.572779 0.059253 0.455060
v 0.558114 0.054817 0.447291
v 0.542200 0.052817 0.441173
v 0.525647 0.053334 0.436944
v 0.509095 0.056345 0.434764
v 0.493176 0.061731 0.434714
v 0.478501 0.069272 0.436796
v 0.465634 0.078676 0.440921
v 0.455076 0.089510 0.446908
v 0.447227 0.101496 0.454582
v 0.596116 0.146331 0.533374
v 0.585555 0.157165 0.539361
v 0.572695 0.166426 0.543433
v 0.558019 0.173826 0.545454
v 0.542096 0.179061 0.545344
v 0.525545 0.181941 0.543108
v 0.508992 0.182431 0.538868
v 0.493074 0.180360 0.532719
v 0.478408 0.175949 0.524963
v 0.465562 0.169299 0.515865
v 0.455018 0.160736 0.505798
v 0.447187 0.150524 0.495134
v 0.442367 0.139051 0.484270
v 0.440747 0.126688 0.473602
v 0.442384 0.114049 0.463593
v 0.560050 0.063214 0.549514
v 0.563008 0.055470 0.543976
v 0.564015 0.047576 0.537792
v 0.563021 0.039841 0.531198
v 0.560076 0.032581 0.524455
v 0.555288 0.026086 0.517834
v 0.548847 0.020628 0.511591
v 0.540993 0.016427 0.505972
v 0.532027 0.013653 0.501198
v 0.522301 0.012431 0.497459
v 0.512186 0.012810 0.494900
v 0.502069 0.014681 0.493581
v 0.492333 0.018063 0.493587
v 0.483366 0.022774 0.494900
v 0.475503 0.028610 0.497460
v 0.469048 0.035338 0.501162
v 0.464246 0.042689 0.505858
v 0.555251 0.070501 0.554188
v 0.548799 0.077051 0.557817
v 0.540934 0.082620 0.560267
v 0.531963 0.087085 0.561479
v 0.522237 0.090184 0.561369
v 0.512118 0.091820 0.559955
v 0.502003 0.092030 0.557327
v 0.492274 0.090731 0.553554
v 0.483311 0.088036 0.548812
v 0.475457 0.084001 0.543264
v 0.469014 0.078770 0.537115
v 0.464226 0.072569 0.530612
v 0.461281 0.065550 0.523968
v 0.460290 0.058061 0.517477
v 0.461294 0.050361 0.511372
v 0.526990 0.003821 0.564194
v 0.528525 -0.000196 0.561324
v 0.529040 -0.004289 0.558117
v 0.528530 -0.008295 0.554705
v 0.527006 -0.012055 0.551216
v 0.524529 -0.015418 0.547787
v 0.521191 -0.018247 0.544554
v 0.517122 -0.020428 0.541640
v 0.512481 -0.021873 0.539165
v 0.507451 -0.022505 0.537232
v 0.502213 -0.022350 0.535890
v 0.496975 -0.021415 0.535193
v 0.491938 -0.019682 0.535189
v 0.487292 -0.017247 0.535867
v 0.483223 -0.014198 0.537204
v 0.479878 -0.010742 0.539108
v 0.477394 -0.006970 0.541528
v 0.524506 0.007593 0.566613
v 0.521164 0.011021 0.568507
v 0.517094 0.013973 0.569803
v 0.512454 0.016289 0.570434
v 0.507418 0.017898 0.570379
v 0.502178 0.018738 0.569643
v 0.496941 0.018822 0.568273
v 0.491905 0.018155 0.566324
v 0.487265 0.016760 0.563869
v 0.483202 0.014577 0.560958
v 0.479865 0.011845 0.557765
v 0.477384 0.008667 0.554410
v 0.475859 0.005013 0.550963
v 0.475347 0.001100 0.547587
v 0.475866 -0.002919 0.544412
v 0.499758 -0.033594 0.578714
v 0.500086 -0.034446 0.578102
v 0.500198 -0.035307 0.577418
v 0.500087 -0.036182 0.576683
v 0.499760 -0.036964 0.575941
v 0.499229 -0.037664 0.575214
v 0.498518 -0.038251 0.574534
v 0.497640 -0.038702 0.573914
v 0.496643 -0.039067 0.573359
v 0.495562 -0.039202 0.572944
v 0.494439 -0.039167 0.572654
v 0.493315 -0.038968 0.572507
v 0.492234 -0.038608 0.572501
v 0.491243 -0.038098 0.572640
v 0.490369 -0.037466 0.572921
v 0.489652 -0.036731 0.573327
v 0.489115 -0.035856 0.573870
v 0.499225 -0.032783 0.579231
v 0.498508 -0.032047 0.579637
v 0.497634 -0.031416 0.579918
v 0.496638 -0.030907 0.580055
v 0.495557 -0.030548 0.580051
v 0.494439 -0.030345 0.579902
v 0.493309 -0.030314 0.579614
v 0.492229 -0.030448 0.579196
v 0.491233 -0.030747 0.578670
v 0.490360 -0.031233 0.578038
v 0.489645 -0.031820 0.577353
v 0.489112 -0.032518 0.576627
v 0.488785 -0.033304 0.575889
v 0.488681 -0.034140 0.575165
v 0.488792 -0.035005 0.574486
v 0.493747 -0.040345 0.583123
v 0.493817 -0.040529 0.582994
v 0.493841 -0.040715 0.582848
v 0.493817 -0.040893 0.582694
v 0.493748 -0.041059 0.582534
v 0.493634 -0.041208 0.582378
v 0.493482 -0.041335 0.582231
v 0.493295 -0.041431 0.582099
v 0.493082 -0.041494 0.581987
v 0.492851 -0.041524 0.581897
v 0.492611 -0.041517 0.581836
v 0.492369 -0.041475 0.581807
v 0.492139 -0.041397 0.581803
v 0.491925 -0.041290 0.581835
v 0.491739 -0.041153 0.581892
v 0.491585 -0.040997 0.581981
v 0.491472 -0.040822 0.582090
v 0.493633 -0.040174 0.583236
v 0.493480 -0.040016 0.583320
v 0.493293 -0.039882 0.583382
v 0.493081 -0.039772 0.583410
v 0.492849 -0.039696 0.583411
v 0.492609 -0.039652 0.583377
v 0.492368 -0.039646 0.583317
v 0.492137 -0.039673 0.583227
v 0.491925 -0.039738 0.583114
v 0.491738 -0.039834 0.582981
v 0.491585 -0.039959 0.582835
v 0.491471 -0.040109 0.582680
v 0.491402 -0.040277 0.582521
v 0.491377 -0.040458 0.582369
v 0.491401 -0.040642 0.582223
v 0.493759 -0.040696 0.582836
v 0.493652 -0.040499 0.582973
v 0.493503 -0.040305 0.583091
v 0.493318 -0.040122 0.583188
v 0.493103 -0.039960 0.583264
v 0.492867 -0.039823 0.583311
v 0.492619 -0.039717 0.583329
v 0.493652 -0.040863 0.582668
v 0.493501 -0.040662 0.582796
v 0.493320 -0.040457 0.582914
v 0.493109 -0.040260 0.583018
v 0.492877 -0.040074 0.583103
v 0.492630 -0.039913 0.583170
v 0.492381 -0.039776 0.583210
v 0.493489 -0.041027 0.582487
v 0.493307 -0.040828 0.582601
v 0.493098 -0.040622 0.582712
v 0.492868 -0.040417 0.582820
v 0.492625 -0.040218 0.582918
v 0.492383 -0.040033 0.582998
v 0.492145 -0.039872 0.583068
v 0.493294 -0.041176 0.582313
v 0.493081 -0.040991 0.582406
v 0.492850 -0.040791 0.582503
v 0.492610 -0.040584 0.582607
v 0.492368 -0.040378 0.582712
v 0.492137 -0.040179 0.582812
v 0.491925 -0.039997 0.582903
v 0.493073 -0.041299 0.582150
v 0.492837 -0.041136 0.582215
v 0.492592 -0.040953 0.582300
v 0.492351 -0.040755 0.582396
v 0.492121 -0.040546 0.582501
v 0.491912 -0.040340 0.582612
v 0.491731 -0.040142 0.582725
v 0.492839 -0.041393 0.582002
v 0.492589 -0.041260 0.582046
v 0.492343 -0.041097 0.582112
v 0.492110 -0.040913 0.582198
v 0.491898 -0.040714 0.582303
v 0.491717 -0.040509 0.582421
v 0.491573 -0.040304 0.582547
v 0.492600 -0.041455 0.581888
v 0.492351 -0.041348 0.581907
v 0.492115 -0.041211 0.581953
v 0.491901 -0.041047 0.582025
v 0.491716 -0.040867 0.582125
v 0.491567 -0.040673 0.582244
v 0.491461 -0.040473 0.582376
s 1
f 4 5 14
f 5 15 14
f 250 8 249
f 8 7 249
f 5 253 15
f 253 16 15
f 1 9 250
f 9 8 250
f 253 6 16
f 6 17 16
f 251 10 1
f 10 9 1
f 6 254 17
f 254 18 17
f 2 11 251
f 11 10 251
f 254 255 18
f 255 19 18
f 252 12 2
f 12 11 2
f 255 256 19
f 256 20 19
f 3 13 252
f 13 12 252
f 256 257 20
f 257 21 20
f 4 14 3
f 14 13 3
f 249 7 82
f 128 21 257
f 14 29 13
f 29 28 13
f 7 22 82
f 128 36 21
f 14 15 29
f 15 30 29
f 8 23 7
f 23 22 7
f 15 16 30
f 16 31 30
f 9 24 8
f 24 23 8
f 16 17 31
f 17 32 31
f 10 25 9
f 25 24 9
f 17 18 32
f 18 33 32
f 11 26 10
f 26 25 10
f 18 19 33
f 19 34 33
f 12 27 11
f 27 26 11
f 19 20 34
f 20 35 34
f 13 28 12
f 28 27 12
f 20 21 35
f 21 36 35
f 32 33 47
f 33 48 47
f 26 41 25
f 41 40 25
f 33 34 48
f 34 49 48
f 27 42 26
f 42 41 26
f 34 35 49
f 35 50 49
f 28 43 27
f 43 42 27
f 35 36 50
f 36 51 50
f 29 44 28
f 44 43 28
f 22 37 82
f 128 51 36
f 29 30 44
f 30 45 44
f 23 38 22
f 38 37 22
f 30 31 45
f 31 46 45
f 24 39 23
f 39 38 23
f 31 32 46
f 32 47 46
f 25 40 24
f 40 39 24
f 37 52 82
f 128 66 51
f 44 45 59
f 45 60 59
f 38 53 37
f 53 52 37
f 45 46 60
f 46 61 60
f 39 54 38
f 54 53 38
f 46 47 61
f 47 62 61
f 40 55 39
f 55 54 39
f 47 48 62
f 48 63 62
f 41 56 40
f 56 55 40
f 48 49 63
f 49 64 63
f 42 57 41
f 57 56 41
f 49 50 64
f 50 65 64
f 43 58 42
f 58 57 42
f 50 51 65
f 51 66 65
f 44 59 43
f 59 58 43
f 56 71 55
f 71 70 55
f 63 64 78
f 64 79 78
f 57 72 56
f 72 71 56
f 64 65 79
f 65 80 79
f 58 73 57
f 73 72 57
f 65 66 80
f 66 81 80
f 59 74 58
f 74 73 58
f 52 67 82
f 128 81 66
f 59 60 74
f 60 75 74
f 53 68 52
f 68 67 52
f 60 61 75
f 61 76 75
f 54 69 53
f 69 68 53
f 61 62 76
f 62 77 76
f 55 70 54
f 70 69 54
f 62 63 77
f 63 78 77
f 74 75 90
f 75 91 90
f 68 84 67
f 84 83 67
f 75 76 91
f 76 92 91
f 69 85 68
f 85 84 68
f 76 77 92
f 77 93 92
f 70 86 69
f 86 85 69
f 77 78 93
f 78 94 93
f 71 87 70
f 87 86 70
f 78 79 94
f 79 95 94
f 72 88 71
f 88 87 71
f 79 80 95
f 80 96 95
f 73 89 72
f 89 88 72
f 80 81 96
f 81 97 96
f 74 90 73
f 90 89 73
f 67 83 82
f 128 97 81
f 94 95 109
f 95 110 109
f 88 103 87
f 103 102 87
f 95 96 110
f 96 111 110
f 89 104 88
f 104 103 88
f 96 97 111
f 97 112 111
f 90 105 89
f 105 104 89
f 83 98 82
f 128 112 97
f 90 91 105
f 91 106 105
f 84 99 83
f 99 98 83
f 91 92 106
f 92 107 106
f 85 100 84
f 100 99 84
f 92 93 107
f 93 108 107
f 86 101 85
f 101 100 85
f 93 94 108
f 94 109 108
f 87 102 86
f 102 101 86
f 106 107 121
f 107 122 121
f 100 115 99
f 115 114 99
f 107 108 122
f 108 123 122
f 101 116 100
f 116 115 100
f 108 109 123
f 109 124 123
f 102 117 101
f 117 116 101
f 109 110 124
f 110 125 124
f 103 118 102
f 118 117 102
f 110 111 125
f 111 126 125
f 104 119 103
f 119 118 103
f 111 112 126
f 112 127 126
f 105 120 104
f 120 119 104
f 98 113 82
f 128 127 112
f 105 106 120
f 106 121 120
f 99 114 98
f 114 113 98
f 139 154 138
f 154 153 138
f 131 132 146
f 132 147 146
f 140 155 139
f 155 154 139
f 132 133 147
f 133 148 147
f 141 156 140
f 156 155 140
f 133 134 148
f 134 149 148
f 142 157 141
f 157 156 141
f 134 135 149
f 135 150 149
f 143 158 142
f 158 157 142
f 135 136 150
f 136 151 150
f 129 144 82
f 128 158 143
f 137 152 136
f 152 151 136
f 129 130 144
f 130 145 144
f 138 153 137
f 153 152 137
f 130 131 145
f 131 146 145
f 158 173 157
f 173 172 157
f 150 151 165
f 151 166 165
f 144 159 82
f 128 173 158
f 152 167 151
f 167 166 151
f 144 145 159
f 145 160 159
f 153 168 152
f 168 167 152
f 145 146 160
f 146 161 160
f 154 169 153
f 169 168 153
f 146 147 161
f 147 162 161
f 155 170 154
f 170 169 154
f 147 148 162
f 148 163 162
f 156 171 155
f 171 170 155
f 148 149 163
f 149 164 163
f 157 172 156
f 172 171 156
f 149 150 164
f 150 165 164
f 170 185 169
f 185 184 169
f 162 163 177
f 163 178 177
f 171 186 170
f 186 185 170
f 163 164 178
f 164 179 178
f 172 187 171
f 187 186 171
f 164 165 179
f 165 180 179
f 173 188 172
f 188 187 172
f 165 166 180
f 166 181 180
f 159 174 82
f 128 188 173
f 167 182 166
f 182 181 166
f 159 160 174
f 160 175 174
f 168 183 167
f 183 182 167
f 160 161 175
f 161 176 175
f 169 184 168
f 184 183 168
f 161 162 176
f 162 177 176
f 174 189 82
f 128 203 188
f 182 197 181
f 197 196 181
f 174 175 189
f 175 190 189
f 183 198 182
f 198 197 182
f 175 176 190
f 176 191 190
f 184 199 183
f 199 198 183
f 176 177 191
f 177 192 191
f 185 200 184
f 200 199 184
f 177 178 192
f 178 193 192
f 186 201 185
f 201 200 185
f 178 179 193
f 179 194 193
f 187 202 186
f 202 201 186
f 179 180 194
f 180 195 194
f 188 203 187
f 203 202 187
f 180 181 195
f 181 196 195
f 192 193 207
f 193 208 207
f 201 216 200
f 216 215 200
f 193 194 208
f 194 209 208
f 202 217 201
f 217 216 201
f 194 195 209
f 195 210 209
f 203 218 202
f 218 217 202
f 195 196 210
f 196 211 210
f 189 204 82
f 128 218 203
f 197 212 196
f 212 211 196
f 189 190 204
f 190 205 204
f 198 213 197
f 213 212 197
f 190 191 205
f 191 206 205
f 199 214 198
f 214 213 198
f 191 192 206
f 192 207 206
f 200 215 199
f 215 214 199
f 212 227 211
f 227 226 211
f 204 205 219
f 205 220 219
f 213 228 212
f 228 227 212
f 205 206 220
f 206 221 220
f 214 229 213
f 229 228 213
f 206 207 221
f 207 222 221
f 215 230 214
f 230 229 214
f 207 208 222
f 208 223 222
f 216 231 215
f 231 230 215
f 208 209 223
f 209 224 223
f 217 232 216
f 232 231 216
f 209 210 224
f 210 225 224
f 218 233 217
f 233 232 217
f 210 211 225
f 211 226 225
f 204 219 82
f 128 233 218
f 231 246 230
f 246 245 230
f 223 224 238
f 224 239 238
f 232 247 231
f 247 246 231
f 224 225 239
f 225 240 239
f 233 248 232
f 248 247 232
f 225 226 240
f 226 241 240
f 219 234 82
f 128 248 233
f 227 242 226
f 242 241 226
f 219 220 234
f 220 235 234
f 228 243 227
f 243 242 227
f 220 221 235
f 221 236 235
f 229 244 228
f 244 243 228
f 221 222 236
f 222 237 236
f 230 245 229
f 245 244 229
f 222 223 237
f 223 238 237
f 234 235 249
f 235 250 249
f 243 253 242
f 253 5 242
f 235 236 250
f 236 1 250
f 244 6 243
f 6 253 243
f 236 237 1
f 237 251 1
f 245 254 244
f 254 6 244
f 237 238 251
f 238 2 251
f 246 255 245
f 255 254 245
f 238 239 2
f 239 252 2
f 247 256 246
f 256 255 246
f 239 240 252
f 240 3 252
f 248 257 247
f 257 256 247
f 240 241 3
f 241 4 3
f 234 249 82
f 128 257 248
f 242 5 241
f 5 4 241
f 121 267 120
f 267 266 120
f 134 280 135
f 280 281 135
f 122 268 121
f 268 267 121
f 135 281 136
f 281 282 136
f 123 269 122
f 269 268 122
f 137 136 283
f 136 282 283
f 82 113 258
f 113 259 258
f 124 270 123
f 270 269 123
f 138 137 284
f 137 283 284
f 128 274 127
f 274 273 127
f 125 271 124
f 271 270 124
f 139 138 285
f 138 284 285
f 82 258 129
f 258 275 129
f 126 272 125
f 272 271 125
f 140 139 286
f 139 285 286
f 128 143 274
f 143 289 274
f 127 273 126
f 273 272 126
f 141 140 287
f 140 286 287
f 113 114 259
f 114 260 259
f 142 141 288
f 141 287 288
f 114 115 260
f 115 261 260
f 143 142 289
f 142 288 289
f 115 116 261
f 116 262 261
f 129 275 130
f 275 276 130
f 116 117 262
f 117 263 262
f 130 276 131
f 276 277 131
f 117 118 263
f 118 264 263
f 131 277 132
f 277 278 132
f 118 119 264
f 119 265 264
f 132 278 133
f 278 279 133
f 119 120 265
f 120 266 265
f 133 279 134
f 279 280 134
f 259 260 291
f 260 292 291
f 289 288 321
f 288 320 321
f 275 307 276
f 307 308 276
f 260 261 292
f 261 293 292
f 258 259 290
f 259 291 290
f 276 308 277
f 308 309 277
f 261 262 293
f 262 294 293
f 274 306 273
f 306 305 273
f 277 309 278
f 309 310 278
f 262 263 294
f 263 295 294
f 258 290 275
f 290 307 275
f 278 310 279
f 310 311 279
f 263 264 295
f 264 296 295
f 274 289 306
f 289 321 306
f 279 311 280
f 311 312 280
f 264 265 296
f 265 297 296
f 280 312 281
f 312 313 281
f 265 266 297
f 266 298 297
f 281 313 282
f 313 314 282
f 267 299 266
f 299 298 266
f 283 282 315
f 282 314 315
f 268 300 267
f 300 299 267
f 284 283 316
f 283 315 316
f 269 301 268
f 301 300 268
f 285 284 317
f 284 316 317
f 270 302 269
f 302 301 269
f 286 285 318
f 285 317 318
f 271 303 270
f 303 302 270
f 287 286 319
f 286 318 319
f 272 304 271
f 304 303 271
f 288 287 320
f 287 319 320
f 273 305 272
f 305 304 272
f 294 295 326
f 295 327 326
f 290 322 307
f 322 339 307
f 310 342 311
f 342 343 311
f 295 296 327
f 296 328 327
f 306 321 338
f 321 353 338
f 311 343 312
f 343 344 312
f 296 297 328
f 297 329 328
f 312 344 313
f 344 345 313
f 297 298 329
f 298 330 329
f 313 345 314
f 345 346 314
f 299 331 298
f 331 330 298
f 315 314 347
f 314 346 347
f 300 332 299
f 332 331 299
f 316 315 348
f 315 347 348
f 301 333 300
f 333 332 300
f 317 316 349
f 316 348 349
f 302 334 301
f 334 333 301
f 318 317 350
f 317 349 350
f 303 335 302
f 335 334 302
f 319 318 351
f 318 350 351
f 304 336 303
f 336 335 303
f 320 319 352
f 319 351 352
f 305 337 304
f 337 336 304
f 291 292 323
f 292 324 323
f 321 320 353
f 320 352 353
f 307 339 308
f 339 340 308
f 292 293 324
f 293 325 324
f 290 291 322
f 291 323 322
f 308 340 309
f 340 341 309
f 293 294 325
f 294 326 325
f 306 338 305
f 338 337 305
f 309 341 310
f 341 342 310
f 329 330 361
f 330 362 361
f 345 377 346
f 377 378 346
f 331 363 330
f 363 362 330
f 346 378 347
f 378 379 347
f 332 364 331
f 364 363 331
f 348 347 380
f 347 379 380
f 333 365 332
f 365 364 332
f 349 348 381
f 348 380 381
f 334 366 333
f 366 365 333
f 350 349 382
f 349 381 382
f 335 367 334
f 367 366 334
f 351 350 383
f 350 382 383
f 336 368 335
f 368 367 335
f 352 351 384
f 351 383 384
f 337 369 336
f 369 368 336
f 323 324 355
f 324 356 355
f 353 352 385
f 352 384 385
f 339 371 340
f 371 372 340
f 324 325 356
f 325 357 356
f 322 323 354
f 323 355 354
f 340 372 341
f 372 373 341
f 325 326 357
f 326 358 357
f 338 370 337
f 370 369 337
f 341 373 342
f 373 374 342
f 326 327 358
f 327 359 358
f 339 322 371
f 322 354 371
f 342 374 343
f 374 375 343
f 327 328 359
f 328 360 359
f 353 385 338
f 385 370 338
f 343 375 344
f 375 376 344
f 328 329 360
f 329 361 360
f 344 376 345
f 376 377 345
f 365 397 364
f 397 396 364
f 380 412 381
f 412 413 381
f 366 398 365
f 398 397 365
f 381 413 382
f 413 414 382
f 367 399 366
f 399 398 366
f 382 414 383
f 414 415 383
f 368 400 367
f 400 399 367
f 383 415 384
f 415 416 384
f 369 401 368
f 401 400 368
f 355 356 387
f 356 388 387
f 384 416 385
f 416 417 385
f 372 371 404
f 371 403 404
f 356 357 388
f 357 389 388
f 354 355 386
f 355 387 386
f 373 372 405
f 372 404 405
f 357 358 389
f 358 390 389
f 370 402 369
f 402 401 369
f 374 373 406
f 373 405 406
f 358 359 390
f 359 391 390
f 371 354 403
f 354 386 403
f 375 374 407
f 374 406 407
f 359 360 391
f 360 392 391
f 385 417 370
f 417 402 370
f 376 375 408
f 375 407 408
f 360 361 392
f 361 393 392
f 376 408 377
f 408 409 377
f 361 362 393
f 362 394 393
f 377 409 378
f 409 410 378
f 362 363 394
f 363 395 394
f 378 410 379
f 410 411 379
f 363 364 395
f 364 396 395
f 379 411 380
f 411 412 380
f 400 432 399
f 432 431 399
f 415 447 416
f 447 448 416
f 401 433 400
f 433 432 400
f 387 388 419
f 388 420 419
f 416 448 417
f 448 449 417
f 404 403 436
f 403 435 436
f 388 389 420
f 389 421 420
f 386 387 418
f 387 419 418
f 405 404 437
f 404 436 437
f 389 390 421
f 390 422 421
f 402 434 401
f 434 433 401
f 406 405 438
f 405 437 438
f 390 391 422
f 391 423 422
f 403 386 435
f 386 418 435
f 407 406 439
f 406 438 439
f 391 392 423
f 392 424 423
f 417 449 402
f 449 434 402
f 408 407 440
f 407 439 440
f 392 393 424
f 393 425 424
f 408 440 409
f 440 441 409
f 393 394 425
f 394 426 425
f 409 441 410
f 441 442 410
f 394 395 426
f 395 427 426
f 410 442 411
f 442 443 411
f 395 396 427
f 396 428 427
f 411 443 412
f 443 444 412
f 397 429 396
f 429 428 396
f 412 444 413
f 444 445 413
f 398 430 397
f 430 429 397
f 413 445 414
f 445 446 414
f 399 431 398
f 431 430 398
f 414 446 415
f 446 447 415
f 437 436 469
f 436 468 469
f 421 422 453
f 422 454 453
f 434 466 433
f 466 465 433
f 438 437 470
f 437 469 470
f 422 423 454
f 423 455 454
f 435 418 467
f 418 450 467
f 439 438 471
f 438 470 471
f 423 424 455
f 424 456 455
f 449 481 434
f 481 466 434
f 439 471 440
f 471 472 440
f 424 425 456
f 425 457 456
f 440 472 441
f 472 473 441
f 425 426 457
f 426 458 457
f 441 473 442
f 473 474 442
f 426 427 458
f 427 459 458
f 442 474 443
f 474 475 443
f 428 460 427
f 460 459 427
f 443 475 444
f 475 476 444
f 429 461 428
f 461 460 428
f 444 476 445
f 476 477 445
f 430 462 429
f 462 461 429
f 445 477 446
f 477 478 446
f 431 463 430
f 463 462 430
f 446 478 447
f 478 479 447
f 432 464 431
f 464 463 431
f 447 479 448
f 479 480 448
f 433 465 432
f 465 464 432
f 419 420 451
f 420 452 451
f 448 480 449
f 480 481 449
f 436 435 468
f 435 467 468
f 420 421 452
f 421 453 452
f 418 419 450
f 419 451 450
f 452 453 484
f 453 485 484
f 450 451 482
f 451 483 482
f 469 468 501
f 468 500 501
f 453 454 485
f 454 486 485
f 466 498 465
f 498 497 465
f 469 501 470
f 501 502 470
f 454 455 486
f 455 487 486
f 467 450 499
f 450 482 499
f 470 502 471
f 502 503 471
f 455 456 487
f 456 488 487
f 481 513 466
f 513 498 466
f 471 503 472
f 503 504 472
f 456 457 488
f 457 489 488
f 472 504 473
f 504 505 473
f 457 458 489
f 458 490 489
f 473 505 474
f 505 506 474
f 458 459 490
f 459 491 490
f 474 506 475
f 506 507 475
f 460 492 459
f 492 491 459
f 475 507 476
f 507 508 476
f 461 493 460
f 493 492 460
f 476 508 477
f 508 509 477
f 462 494 461
f 494 493 461
f 477 509 478
f 509 510 478
f 463 495 462
f 495 494 462
f 478 510 479
f 510 511 479
f 464 496 463
f 496 495 463
f 479 511 480
f 511 512 480
f 465 497 464
f 497 496 464
f 451 452 483
f 452 484 483
f 480 512 481
f 512 513 481
f 468 467 500
f 467 499 500
f 483 484 514
f 484 485 514
f 514 485 521
f 485 486 521
f 521 486 528
f 486 487 528
f 528 487 535
f 487 488 535
f 542 535 489
f 535 488 489
f 549 542 490
f 542 489 490
f 556 549 491
f 549 490 491
f 493 556 492
f 556 491 492
f 482 483 515
f 483 514 515
f 515 514 522
f 514 521 522
f 522 521 529
f 521 528 529
f 529 528 536
f 528 535 536
f 543 536 542
f 536 535 542
f 550 543 549
f 543 542 549
f 557 550 556
f 550 549 556
f 494 557 493
f 557 556 493
f 499 482 516
f 482 515 516
f 516 515 523
f 515 522 523
f 523 522 530
f 522 529 530
f 530 529 537
f 529 536 537
f 544 537 543
f 537 536 543
f 551 544 550
f 544 543 550
f 558 551 557
f 551 550 557
f 495 558 494
f 558 557 494
f 500 499 517
f 499 516 517
f 517 516 524
f 516 523 524
f 524 523 531
f 523 530 531
f 538 531 537
f 531 530 537
f 545 538 544
f 538 537 544
f 552 545 551
f 545 544 551
f 559 552 558
f 552 551 558
f 496 559 495
f 559 558 495
f 518 501 517
f 501 500 517
f 525 518 524
f 518 517 524
f 532 525 531
f 525 524 531
f 539 532 538
f 532 531 538
f 546 539 545
f 539 538 545
f 546 545 553
f 545 552 553
f 553 552 560
f 552 559 560
f 560 559 497
f 559 496 497
f 519 502 518
f 502 501 518
f 526 519 525
f 519 518 525
f 533 526 532
f 526 525 532
f 540 533 539
f 533 532 539
f 540 539 547
f 539 546 547
f 547 546 554
f 546 553 554
f 554 553 561
f 553 560 561
f 561 560 498
f 560 497 498
f 520 503 519
f 503 502 519
f 527 520 526
f 520 519 526
f 534 527 533
f 527 526 533
f 541 534 540
f 534 533 540
f 541 540 548
f 540 547 548
f 548 547 555
f 547 554 555
f 555 554 562
f 554 561 562
f 562 561 513
f 561 498 513
f 505 504 520
f 504 503 520
f 506 505 527
f 505 520 527
f 507 506 534
f 506 527 534
f 508 507 541
f 507 534 541
f 508 541 509
f 541 548 509
f 509 548 510
f 548 555 510
f 510 555 511
f 555 562 511
f 511 562 512
f 562 513 512
f 566 567 576
f 567 577 576
f 812 570 811
f 570 569 811
f 567 815 577
f 815 578 577
f 563 571 812
f 571 570 812
f 815 568 578
f 568 579 578
f 813 572 563
f 572 571 563
f 568 816 579
f 816 580 579
f 564 573 813
f 573 572 813
f 816 817 580
f 817 581 580
f 814 574 564
f 574 573 564
f 817 818 581
f 818 582 581
f 565 575 814
f 575 574 814
f 818 819 582
f 819 583 582
f 566 576 565
f 576 575 565
f 811 569 644
f 690 583 819
f 576 591 575
f 591 590 575
f 569 584 644
f 690 598 583
f 576 577 591
f 577 592 591
f 570 585 569
f 585 584 569
f 577 578 592
f 578 593 592
f 571 586 570
f 586 585 570
f 578 579 593
f 579 594 593
f 572 587 571
f 587 586 571
f 579 580 594
f 580 595 594
f 573 588 572
f 588 587 572
f 580 581 595
f 581 596 595
f 574 589 573
f 589 588 573
f 581 582 596
f 582 597 596
f 575 590 574
f 590 589 574
f 582 583 597
f 583 598 597
f 594 595 609
f 595 610 609
f 588 603 587
f 603 602 587
f 595 596 610
f 596 611 610
f 589 604 588
f 604 603 588
f 596 597 611
f 597 612 611
f 590 605 589
f 605 604 589
f 597 598 612
f 598 613 612
f 591 606 590
f 606 605 590
f 584 599 644
f 690 613 598
f 591 592 606
f 592 607 606
f 585 600 584
f 600 599 584
f 592 593 607
f 593 608 607
f 586 601 585
f 601 600 585
f 593 594 608
f 594 609 608
f 587 602 586
f 602 601 586
f 599 614 644
f 690 628 613
f 606 607 621
f 607 622 621
f 600 615 599
f 615 614 599
f 607 608 622
f 608 623 622
f 601 616 600
f 616 615 600
f 608 609 623
f 609 624 623
f 602 617 601
f 617 616 601
f 609 610 624
f 610 625 624
f 603 618 602
f 618 617 602
f 610 611 625
f 611 626 625
f 604 619 603
f 619 618 603
f 611 612 626
f 612 627 626
f 605 620 604
f 620 619 604
f 612 613 627
f 613 628 627
f 606 621 605
f 621 620 605
f 618 633 617
f 633 632 617
f 625 626 640
f 626 641 640
f 619 634 618
f 634 633 618
f 626 627 641
f 627 642 641
f 620 635 619
f 635 634 619
f 627 628 642
f 628 643 642
f 621 636 620
f 636 635 620
f 614 629 644
f 690 643 628
f 621 622 636
f 622 637 636
f 615 630 614
f 630 629 614
f 622 623 637
f 623 638 637
f 616 631 615
f 631 630 615
f 623 624 638
f 624 639 638
f 617 632 616
f 632 631 616
f 624 625 639
f 625 640 639
f 636 637 652
f 637 653 652
f 630 646 629
f 646 645 629
f 637 638 653
f 638 654 653
f 631 647 630
f 647 646 630
f 638 639 654
f 639 655 654
f 632 648 631
f 648 647 631
f 639 640 655
f 640 656 655
f 633 649 632
f 649 648 632
f 640 641 656
f 641 657 656
f 634 650 633
f 650 649 633
f 641 642 657
f 642 658 657
f 635 651 634
f 651 650 634
f 642 643 658
f 643 659 658
f 636 652 635
f 652 651 635
f 629 645 644
f 690 659 643
f 656 657 671
f 657 672 671
f 650 665 649
f 665 664 649
f 657 658 672
f 658 673 672
f 651 666 650
f 666 665 650
f 658 659 673
f 659 674 673
f 652 667 651
f 667 666 651
f 645 660 644
f 690 674 659
f 652 653 667
f 653 668 667
f 646 661 645
f 661 660 645
f 653 654 668
f 654 669 668
f 647 662 646
f 662 661 646
f 654 655 669
f 655 670 669
f 648 663 647
f 663 662 647
f 655 656 670
f 656 671 670
f 649 664 648
f 664 663 648
f 668 669 683
f 669 684 683
f 662 677 661
f 677 676 661
f 669 670 684
f 670 685 684
f 663 678 662
f 678 677 662
f 670 671 685
f 671 686 685
f 664 679 663
f 679 678 663
f 671 672 686
f 672 687 686
f 665 680 664
f 680 679 664
f 672 673 687
f 673 688 687
f 666 681 665
f 681 680 665
f 673 674 688
f 674 689 688
f 667 682 666
f 682 681 666
f 660 675 644
f 690 689 674
f 667 668 682
f 668 683 682
f 661 676 660
f 676 675 660
f 701 716 700
f 716 715 700
f 693 694 708
f 694 709 708
f 702 717 701
f 717 716 701
f 694 695 709
f 695 710 709
f 703 718 702
f 718 717 702
f 695 696 710
f 696 711 710
f 704 719 703
f 719 718 703
f 696 697 711
f 697 712 711
f 705 720 704
f 720 719 704
f 697 698 712
f 698 713 712
f 691 706 644
f 690 720 705
f 699 714 698
f 714 713 698
f 691 692 706
f 692 707 706
f 700 715 699
f 715 714 699
f 692 693 707
f 693 708 707
f 720 735 719
f 735 734 719
f 712 713 727
f 713 728 727
f 706 721 644
f 690 735 720
f 714 729 713
f 729 728 713
f 706 707 721
f 707 722 721
f 715 730 714
f 730 729 714
f 707 708 722
f 708 723 722
f 716 731 715
f 731 730 715
f 708 709 723
f 709 724 723
f 717 732 716
f 732 731 716
f 709 710 724
f 710 725 724
f 718 733 717
f 733 732 717
f 710 711 725
f 711 726 725
f 719 734 718
f 734 733 718
f 711 712 726
f 712 727 726
f 732 747 731
f 747 746 731
f 724 725 739
f 725 740 739
f 733 748 732
f 748 747 732
f 725 726 740
f 726 741 740
f 734 749 733
f 749 748 733
f 726 727 741
f 727 742 741
f 735 750 734
f 750 749 734
f 727 728 742
f 728 743 742
f 721 736 644
f 690 750 735
f 729 744 728
f 744 743 728
f 721 722 736
f 722 737 736
f 730 745 729
f 745 744 729
f 722 723 737
f 723 738 737
f 731 746 730
f 746 745 730
f 723 724 738
f 724 739 738
f 736 751 644
f 690 765 750
f 744 759 743
f 759 758 743
f 736 737 751
f 737 752 751
f 745 760 744
f 760 759 744
f 737 738 752
f 738 753 752
f 746 761 745
f 761 760 745
f 738 739 753
f 739 754 753
f 747 762 746
f 762 761 746
f 739 740 754
f 740 755 754
f 748 763 747
f 763 762 747
f 740 741 755
f 741 756 755
f 749 764 748
f 764 763 748
f 741 742 756
f 742 757 756
f 750 765 749
f 765 764 749
f 742 743 757
f 743 758 757
f 754 755 769
f 755 770 769
f 763 778 762
f 778 777 762
f 755 756 770
f 756 771 770
f 764 779 763
f 779 778 763
f 756 757 771
f 757 772 771
f 765 780 764
f 780 779 764
f 757 758 772
f 758 773 772
f 751 766 644
f 690 780 765
f 759 774 758
f 774 773 758
f 751 752 766
f 752 767 766
f 760 775 759
f 775 774 759
f 752 753 767
f 753 768 767
f 761 776 760
f 776 775 760
f 753 754 768
f 754 769 768
f 762 777 761
f 777 776 761
f 774 789 773
f 789 788 773
f 766 767 781
f 767 782 781
f 775 790 774
f 790 789 774
f 767 768 782
f 768 783 782
f 776 791 775
f 791 790 775
f 768 769 783
f 769 784 783
f 777 792 776
f 792 791 776
f 769 770 784
f 770 785 784
f 778 793 777
f 793 792 777
f 770 771 785
f 771 786 785
f 779 794 778
f 794 793 778
f 771 772 786
f 772 787 786
f 780 795 779
f 795 794 779
f 772 773 787
f 773 788 787
f 766 781 644
f 690 795 780
f 793 808 792
f 808 807 792
f 785 786 800
f 786 801 800
f 794 809 793
f 809 808 793
f 786 787 801
f 787 802 801
f 795 810 794
f 810 809 794
f 787 788 802
f 788 803 802
f 781 796 644
f 690 810 795
f 789 804 788
f 804 803 788
f 781 782 796
f 782 797 796
f 790 805 789
f 805 804 789
f 782 783 797
f 783 798 797
f 791 806 790
f 806 805 790
f 783 784 798
f 784 799 798
f 792 807 791
f 807 806 791
f 784 785 799
f 785 800 799
f 796 797 811
f 797 812 811
f 805 815 804
f 815 567 804
f 797 798 812
f 798 563 812
f 806 568 805
f 568 815 805
f 798 799 563
f 799 813 563
f 807 816 806
f 816 568 806
f 799 800 813
f 800 564 813
f 808 817 807
f 817 816 807
f 800 801 564
f 801 814 564
f 809 818 808
f 818 817 808
f 801 802 814
f 802 565 814
f 810 819 809
f 819 818 809
f 802 803 565
f 803 566 565
f 796 811 644
f 690 819 810
f 804 567 803
f 567 566 803
f 683 829 682
f 829 828 682
f 696 842 697
f 842 843 697
f 684 830 683
f 830 829 683
f 697 843 698
f 843 844 698
f 685 831 684
f 831 830 684
f 699 698 845
f 698 844 845
f 644 675 820
f 675 821 820
f 686 832 685
f 832 831 685
f 700 699 846
f 699 845 846
f 690 836 689
f 836 835 689
f 687 833 686
f 833 832 686
f 701 700 847
f 700 846 847
f 644 820 691
f 820 837 691
f 688 834 687
f 834 833 687
f 702 701 848
f 701 847 848
f 690 705 836
f 705 851 836
f 689 835 688
f 835 834 688
f 703 702 849
f 702 848 849
f 675 676 821
f 676 822 821
f 704 703 850
f 703 849 850
f 676 677 822
f 677 823 822
f 705 704 851
f 704 850 851
f 677 678 823
f 678 824 823
f 691 837 692
f 837 838 692
f 678 679 824
f 679 825 824
f 692 838 693
f 838 839 693
f 679 680 825
f 680 826 825
f 693 839 694
f 839 840 694
f 680 681 826
f 681 827 826
f 694 840 695
f 840 841 695
f 681 682 827
f 682 828 827
f 695 841 696
f 841 842 696
f 821 822 853
f 822 854 853
f 851 850 883
f 850 882 883
f 837 869 838
f 869 870 838
f 822 823 854
f 823 855 854
f 820 821 852
f 821 853 852
f 838 870 839
f 870 871 839
f 823 824 855
f 824 856 855
f 836 868 835
f 868 867 835
f 839 871 840
f 871 872 840
f 824 825 856
f 825 857 856
f 820 852 837
f 852 869 837
f 840 872 841
f 872 873 841
f 825 826 857
f 826 858 857
f 836 851 868
f 851 883 868
f 841 873 842
f 873 874 842
f 826 827 858
f 827 859 858
f 842 874 843
f 874 875 843
f 827 828 859
f 828 860 859
f 843 875 844
f 875 876 844
f 829 861 828
f 861 860 828
f 845 844 877
f 844 876 877
f 830 862 829
f 862 861 829
f 846 845 878
f 845 877 878
f 831 863 830
f 863 862 830
f 847 846 879
f 846 878 879
f 832 864 831
f 864 863 831
f 848 847 880
f 847 879 880
f 833 865 832
f 865 864 832
f 849 848 881
f 848 880 881
f 834 866 833
f 866 865 833
f 850 849 882
f 849 881 882
f 835 867 834
f 867 866 834
f 856 857 888
f 857 889 888
f 852 884 869
f 884 901 869
f 872 904 873
f 904 905 873
f 857 858 889
f 858 890 889
f 868 883 900
f 883 915 900
f 873 905 874
f 905 906 874
f 858 859 890
f 859 891 890
f 874 906 875
f 906 907 875
f 859 860 891
f 860 892 891
f 875 907 876
f 907 908 876
f 861 893 860
f 893 892 860
f 877 876 909
f 876 908 909
f 862 894 861
f 894 893 861
f 878 877 910
f 877 909 910
f 863 895 862
f 895 894 862
f 879 878 911
f 878 910 911
f 864 896 863
f 896 895 863
f 880 879 912
f 879 911 912
f 865 897 864
f 897 896 864
f 881 880 913
f 880 912 913
f 866 898 865
f 898 897 865
f 882 881 914
f 881 913 914
f 867 899 866
f 899 898 866
f 853 854 885
f 854 886 885
f 883 882 915
f 882 914 915
f 869 901 870
f 901 902 870
f 854 855 886
f 855 887 886
f 852 853 884
f 853 885 884
f 870 902 871
f 902 903 871
f 855 856 887
f 856 888 887
f 868 900 867
f 900 899 867
f 871 903 872
f 903 904 872
f 891 892 923
f 892 924 923
f 907 939 908
f 939 940 908
f 893 925 892
f 925 924 892
f 908 940 909
f 940 941 909
f 894 926 893
f 926 925 893
f 910 909 942
f 909 941 942
f 895 927 894
f 927 926 894
f 911 910 943
f 910 942 943
f 896 928 895
f 928 927 895
f 912 911 944
f 911 943 944
f 897 929 896
f 929 928 896
f 913 912 945
f 912 944 945
f 898 930 897
f 930 929 897
f 914 913 946
f 913 945 946
f 899 931 898
f 931 930 898
f 885 886 917
f 886 918 917
f 915 914 947
f 914 946 947
f 901 933 902
f 933 934 902
f 886 887 918
f 887 919 918
f 884 885 916
f 885 917 916
f 902 934 903
f 934 935 903
f 887 888 919
f 888 920 919
f 900 932 899
f 932 931 899
f 903 935 904
f 935 936 904
f 888 889 920
f 889 921 920
f 901 884 933
f 884 916 933
f 904 936 905
f 936 937 905
f 889 890 921
f 890 922 921
f 915 947 900
f 947 932 900
f 905 937 906
f 937 938 906
f 890 891 922
f 891 923 922
f 906 938 907
f 938 939 907
f 927 959 926
f 959 958 926
f 942 974 943
f 974 975 943
f 928 960 927
f 960 959 927
f 943 975 944
f 975 976 944
f 929 961 928
f 961 960 928
f 944 976 945
f 976 977 945
f 930 962 929
f 962 961 929
f 945 977 946
f 977 978 946
f 931 963 930
f 963 962 930
f 917 918 949
f 918 950 949
f 946 978 947
f 978 979 947
f 934 933 966
f 933 965 966
f 918 919 950
f 919 951 950
f 916 917 948
f 917 949 948
f 935 934 967
f 934 966 967
f 919 920 951
f 920 952 951
f 932 964 931
f 964 963 931
f 936 935 968
f 935 967 968
f 920 921 952
f 921 953 952
f 933 916 965
f 916 948 965
f 937 936 969
f 936 968 969
f 921 922 953
f 922 954 953
f 947 979 932
f 979 964 932
f 938 937 970
f 937 969 970
f 922 923 954
f 923 955 954
f 938 970 939
f 970 971 939
f 923 924 955
f 924 956 955
f 939 971 940
f 971 972 940
f 924 925 956
f 925 957 956
f 940 972 941
f 972 973 941
f 925 926 957
f 926 958 957
f 941 973 942
f 973 974 942
f 962 994 961
f 994 993 961
f 977 1009 978
f 1009 1010 978
f 963 995 962
f 995 994 962
f 949 950 981
f 950 982 981
f 978 1010 979
f 1010 1011 979
f 966 965 998
f 965 997 998
f 950 951 982
f 951 983 982
f 948 949 980
f 949 981 980
f 967 966 999
f 966 998 999
f 951 952 983
f 952 984 983
f 964 996 963
f 996 995 963
f 968 967 1000
f 967 999 1000
f 952 953 984
f 953 985 984
f 965 948 997
f 948 980 997
f 969 968 1001
f 968 1000 1001
f 953 954 985
f 954 986 985
f 979 1011 964
f 1011 996 964
f 970 969 1002
f 969 1001 1002
f 954 955 986
f 955 987 986
f 970 1002 971
f 1002 1003 971
f 955 956 987
f 956 988 987
f 971 1003 972
f 1003 1004 972
f 956 957 988
f 957 989 988
f 972 1004 973
f 1004 1005 973
f 957 958 989
f 958 990 989
f 973 1005 974
f 1005 1006 974
f 959 991 958
f 991 990 958
f 974 1006 975
f 1006 1007 975
f 960 992 959
f 992 991 959
f 975 1007 976
f 1007 1008 976
f 961 993 960
f 993 992 960
f 976 1008 977
f 1008 1009 977
f 999 998 1031
f 998 1030 1031
f 983 984 1015
f 984 1016 1015
f 996 1028 995
f 1028 1027 995
f 1000 999 1032
f 999 1031 1032
f 984 985 1016
f 985 1017 1016
f 997 980 1029
f 980 1012 1029
f 1001 1000 1033
f 1000 1032 1033
f 985 986 1017
f 986 1018 1017
f 1011 1043 996
f 1043 1028 996
f 1001 1033 1002
f 1033 1034 1002
f 986 987 1018
f 987 1019 1018
f 1002 1034 1003
f 1034 1035 1003
f 987 988 1019
f 988 1020 1019
f 1003 1035 1004
f 1035 1036 1004
f 988 989 1020
f 989 1021 1020
f 1004 1036 1005
f 1036 1037 1005
f 990 1022 989
f 1022 1021 989
f 1005 1037 1006
f 1037 1038 1006
f 991 1023 990
f 1023 1022 990
f 1006 1038 1007
f 1038 1039 1007
f 992 1024 991
f 1024 1023 991
f 1007 1039 1008
f 1039 1040 1008
f 993 1025 992
f 1025 1024 992
f 1008 1040 1009
f 1040 1041 1009
f 994 1026 993
f 1026 1025 993
f 1009 1041 1010
f 1041 1042 1010
f 995 1027 994
f 1027 1026 994
f 981 982 1013
f 982 1014 1013
f 1010 1042 1011
f 1042 1043 1011
f 998 997 1030
f 997 1029 1030
f 982 983 1014
f 983 1015 1014
f 980 981 1012
f 981 1013 1012
f 1014 1015 1046
f 1015 1047 1046
f 1012 1013 1044
f 1013 1045 1044
f 1031 1030 1063
f 1030 1062 1063
f 1015 1016 1047
f 1016 1048 1047
f 1028 1060 1027
f 1060 1059 1027
f 1031 1063 1032
f 1063 1064 1032
f 1016 1017 1048
f 1017 1049 1048
f 1029 1012 1061
f 1012 1044 1061
f 1032 1064 1033
f 1064 1065 1033
f 1017 1018 1049
f 1018 1050 1049
f 1043 1075 1028
f 1075 1060 1028
f 1033 1065 1034
f 1065 1066 1034
f 1018 1019 1050
f 1019 1051 1050
f 1034 1066 1035
f 1066 1067 1035
f 1019 1020 1051
f 1020 1052 1051
f 1035 1067 1036
f 1067 1068 1036
f 1020 1021 1052
f 1021 1053 1052
f 1036 1068 1037
f 1068 1069 1037
f 1022 1054 1021
f 1054 1053 1021
f 1037 1069 1038
f 1069 1070 1038
f 1023 1055 1022
f 1055 1054 1022
f 1038 1070 1039
f 1070 1071 1039
f 1024 1056 1023
f 1056 1055 1023
f 1039 1071 1040
f 1071 1072 1040
f 1025 1057 1024
f 1057 1056 1024
f 1040 1072 1041
f 1072 1073 1041
f 1026 1058 1025
f 1058 1057 1025
f 1041 1073 1042
f 1073 1074 1042
f 1027 1059 1026
f 1059 1058 1026
f 1013 1014 1045
f 1014 1046 1045
f 1042 1074 1043
f 1074 1075 1043
f 1030 1029 1062
f 1029 1061 1062
f 1045 1046 1076
f 1046 1047 1076
f 1076 1047 1083
f 1047 1048 1083
f 1083 1048 1090
f 1048 1049 1090
f 1090 1049 1097
f 1049 1050 1097
f 1104 1097 1051
f 1097 1050 1051
f 1111 1104 1052
f 1104 1051 1052
f 1118 1111 1053
f 1111 1052 1053
f 1055 1118 1054
f 1118 1053 1054
f 1044 1045 1077
f 1045 1076 1077
f 1077 1076 1084
f 1076 1083 1084
f 1084 1083 1091
f 1083 1090 1091
f 1091 1090 1098
f 1090 1097 1098
f 1105 1098 1104
f 1098 1097 1104
f 1112 1105 1111
f 1105 1104 1111
f 1119 1112 1118
f 1112 1111 1118
f 1056 1119 1055
f 1119 1118 1055
f 1061 1044 1078
f 1044 1077 1078
f 1078 1077 1085
f 1077 1084 1085
f 1085 1084 1092
f 1084 1091 1092
f 1092 1091 1099
f 1091 1098 1099
f 1106 1099 1105
f 1099 1098 1105
f 1113 1106 1112
f 1106 1105 1112
f 1120 1113 1119
f 1113 1112 1119
f 1057 1120 1056
f 1120 1119 1056
f 1062 1061 1079
f 1061 1078 1079
f 1079 1078 1086
f 1078 1085 1086
f 1086 1085 1093
f 1085 1092 1093
f 1100 1093 1099
f 1093 1092 1099
f 1107 1100 1106
f 1100 1099 1106
f 1114 1107 1113
f 1107 1106 1113
f 1121 1114 1120
f 1114 1113 1120
f 1058 1121 1057
f 1121 1120 1057
f 1080 1063 1079
f 1063 1062 1079
f 1087 1080 1086
f 1080 1079 1086
f 1094 1087 1093
f 1087 1086 1093
f 1101 1094 1100
f 1094 1093 1100
f 1108 1101 1107
f 1101 1100 1107
f 1108 1107 1115
f 1107 1114 1115
f 1115 1114 1122
f 1114 1121 1122
f 1122 1121 1059
f 1121 1058 1059
f 1081 1064 1080
f 1064 1063 1080
f 1088 1081 1087
f 1081 1080 1087
f 1095 1088 1094
f 1088 1087 1094
f 1102 1095 1101
f 1095 1094 1101
f 1102 1101 1109
f 1101 1108 1109
f 1109 1108 1116
f 1108 1115 1116
f 1116 1115 1123
f 1115 1122 1123
f 1123 1122 1060
f 1122 1059 1060
f 1082 1065 1081
f 1065 1064 1081
f 1089 1082 1088
f 1082 1081 1088
f 1096 1089 1095
f 1089 1088 1095
f 1103 1096 1102
f 1096 1095 1102
f 1103 1102 1110
f 1102 1109 1110
f 1110 1109 1117
f 1109 1116 1117
f 1117 1116 1124
f 1116 1123 1124
f 1124 1123 1075
f 1123 1060 1075
f 1067 1066 1082
f 1066 1065 1082
f 1068 1067 1089
f 1067 1082 1089
f 1069 1068 1096
f 1068 1089 1096
f 1070 1069 1103
f 1069 1096 1103
f 1070 1103 1071
f 1103 1110 1071
f 1071 1110 1072
f 1110 1117 1072
f 1072 1117 1073
f 1117 1124 1073
f 1073 1124 1074
f 1124 1075 1074
