o mesmer_eating_tarr_pincers
v -0.486189 0.524310 -0.189091
v -0.469666 0.517327 -0.195878
v -0.446010 0.481087 -0.134363
v -0.515487 0.552066 -0.245199
v -0.494458 0.543160 -0.253826
v -0.500232 0.525081 -0.176012
v -0.467060 0.486329 -0.120668
v -0.450371 0.448020 -0.132433
v -0.424413 0.435277 -0.071708
v -0.430196 0.437656 -0.069305
v -0.404375 0.352080 -0.026859
v -0.435121 0.437772 -0.064715
v -0.438980 0.435608 -0.058099
v -0.441628 0.431219 -0.049715
v -0.474649 0.482439 -0.107668
v -0.479868 0.474311 -0.091179
v -0.511261 0.519596 -0.157136
v -0.518857 0.508041 -0.133181
v -0.547409 0.546175 -0.204546
v -0.533364 0.553085 -0.228562
v -0.565188 0.569476 -0.276278
v -0.581712 0.561381 -0.248049
v -0.544163 0.568262 -0.295831
v -0.594484 0.573698 -0.317322
v -0.612858 0.564719 -0.285966
v -0.571118 0.572340 -0.339039
v -0.620130 0.565613 -0.350115
v -0.639654 0.556093 -0.316834
v -0.595316 0.564169 -0.373165
v -0.641144 0.545540 -0.373396
v -0.615831 0.544063 -0.396896
v -0.586076 0.531457 -0.409075
v -0.566139 0.551805 -0.385111
v -0.631880 0.512793 -0.409325
v -0.602684 0.500427 -0.421270
v -0.656084 0.518947 -0.382506
v -0.673400 0.510542 -0.353059
v -0.661072 0.535844 -0.339465
v -0.666283 0.472913 -0.388261
v -0.684770 0.463972 -0.356898
v -0.697673 0.445096 -0.317068
v -0.689950 0.484712 -0.310756
v -0.686160 0.415043 -0.351053
v -0.697872 0.398062 -0.315190
v -0.669459 0.423093 -0.379289
v -0.648328 0.421864 -0.398841
v -0.666136 0.366621 -0.359728
v -0.648109 0.365597 -0.376358
v -0.626984 0.356701 -0.384978
v -0.642205 0.304771 -0.343431
v -0.625559 0.297819 -0.350201
v -0.656436 0.305518 -0.330371
v -0.630829 0.241471 -0.301394
v -0.640693 0.241876 -0.292424
v -0.648554 0.237944 -0.279475
v -0.619256 0.177878 -0.247352
v -0.622813 0.175820 -0.240591
v -0.623879 0.171997 -0.231570
v -0.653545 0.229668 -0.262494
v -0.577288 0.128306 -0.194069
v -0.608357 0.175487 -0.254265
v -0.614293 0.177780 -0.251935
v -0.601640 0.171136 -0.254231
v -0.593222 0.165111 -0.251251
v -0.574212 0.159577 -0.240755
v -0.562256 0.151600 -0.230676
v -0.555769 0.143128 -0.222577
v -0.550760 0.134112 -0.213958
v -0.546620 0.124815 -0.204605
v -0.543373 0.115613 -0.194755
v -0.541129 0.106900 -0.184758
v -0.539973 0.098998 -0.175000
v -0.539938 0.092180 -0.165842
v -0.541028 0.086650 -0.157625
v -0.543258 0.082535 -0.150670
v -0.546613 0.079960 -0.145270
v -0.551078 0.078962 -0.141672
v -0.556535 0.079684 -0.140065
v -0.562355 0.083079 -0.140550
v -0.567799 0.089599 -0.142988
v -0.573023 0.097991 -0.147140
v -0.577732 0.108220 -0.152959
v -0.582764 0.118623 -0.160103
v -0.588858 0.127962 -0.168160
v -0.596095 0.136218 -0.176908
v -0.604110 0.144109 -0.186450
v -0.611985 0.152219 -0.197104
v -0.617571 0.160301 -0.208736
v -0.621464 0.167021 -0.220483
v -0.651055 0.203248 -0.219648
v -0.654432 0.217750 -0.241965
v -0.680032 0.271293 -0.259178
v -0.675793 0.288536 -0.287580
v -0.690507 0.345265 -0.305208
v -0.667752 0.300035 -0.311518
v -0.680422 0.359746 -0.335712
v -0.696159 0.323781 -0.269350
v -0.697648 0.296120 -0.229489
v -0.704295 0.372869 -0.273020
v -0.679741 0.249077 -0.227313
v -0.673372 0.224068 -0.194519
v -0.656975 0.197943 -0.164001
v -0.676268 0.228683 -0.147501
v -0.643825 0.186730 -0.197433
v -0.693788 0.263950 -0.186889
v -0.685218 0.260785 -0.127862
v -0.705513 0.340563 -0.226086
v -0.701126 0.302551 -0.175862
v -0.701640 0.338796 -0.162596
v -0.705735 0.381177 -0.218213
v -0.697955 0.416352 -0.205755
v -0.704637 0.417075 -0.270252
v -0.697229 0.454890 -0.261085
v -0.683221 0.445769 -0.189635
v -0.682271 0.484931 -0.245798
v -0.660945 0.467436 -0.169812
v -0.660351 0.506135 -0.224988
v -0.674919 0.515375 -0.296394
v -0.653199 0.536013 -0.274600
v -0.632192 0.517501 -0.199386
v -0.625569 0.545752 -0.246156
v -0.599026 0.518804 -0.170109
v -0.593125 0.544282 -0.212210
v -0.562071 0.509829 -0.138253
v -0.557095 0.531583 -0.174058
v -0.522738 0.490806 -0.105061
v -0.522765 0.468456 -0.073855
v -0.482482 0.446480 -0.050386
v -0.482513 0.462196 -0.071836
v -0.442957 0.424735 -0.039886
v -0.442913 0.416359 -0.028987
v -0.441481 0.406370 -0.017422
v -0.479768 0.427650 -0.027664
v -0.474470 0.406333 -0.004581
v -0.518957 0.441681 -0.040770
v -0.511482 0.411280 -0.007107
v -0.557455 0.447902 -0.056273
v -0.562175 0.481650 -0.098484
v -0.599251 0.485832 -0.123330
v -0.593914 0.446360 -0.073608
v -0.632609 0.481010 -0.147427
v -0.627004 0.437383 -0.092219
v -0.615940 0.387309 -0.034771
v -0.583094 0.400218 -0.021700
v -0.655507 0.421481 -0.111269
v -0.644710 0.369620 -0.051525
v -0.678669 0.399294 -0.129607
v -0.664200 0.346306 -0.071152
v -0.693225 0.370700 -0.146542
v -0.677416 0.320893 -0.090705
v -0.686240 0.292467 -0.107923
v -0.659973 0.244443 -0.063714
v -0.651905 0.267838 -0.044498
v -0.619871 0.214034 0.000395
v -0.604391 0.232926 0.015390
v -0.640539 0.290335 -0.027020
v -0.618602 0.310157 -0.006940
v -0.585043 0.246659 0.029396
v -0.572536 0.259888 0.031912
v -0.599210 0.331861 0.016770
v -0.544506 0.260589 0.034588
v -0.568141 0.350278 0.023694
v -0.508260 0.283775 0.032102
v -0.534750 0.367519 0.028592
v -0.500607 0.378372 0.025846
v -0.548190 0.409478 -0.013292
v -0.477503 0.294265 0.022139
v -0.454592 0.313884 0.013397
v -0.466635 0.383336 0.018209
v -0.430352 0.350875 -0.013139
v -0.433856 0.362834 -0.023163
v -0.425887 0.339044 -0.003634
v -0.420649 0.328365 0.005030
v -0.438907 0.301923 0.032003
v -0.428484 0.286251 0.045523
v -0.415049 0.319465 0.012214
v -0.461936 0.283590 0.052090
v -0.445573 0.260198 0.071357
v -0.429068 0.242137 0.087438
v -0.464687 0.230404 0.092838
v -0.440566 0.205299 0.114889
v -0.420443 0.185202 0.127056
v -0.454754 0.170657 0.132142
v -0.428945 0.144573 0.151679
v -0.403962 0.119819 0.154717
v -0.400089 0.165863 0.128286
v -0.437403 0.102818 0.165538
v -0.464717 0.130136 0.145422
v -0.481484 0.101914 0.144367
v -0.451266 0.068852 0.166934
v -0.496536 0.154166 0.115641
v -0.482349 0.190557 0.104359
v -0.517009 0.198943 0.076207
v -0.487837 0.252070 0.062164
v -0.531397 0.185035 0.079718
v -0.543594 0.181094 0.073899
v -0.511641 0.135763 0.114891
v -0.534638 0.125269 0.101719
v -0.503844 0.082608 0.134951
v -0.523421 0.065917 0.113501
v -0.490012 0.028157 0.133589
v -0.471444 0.046577 0.154903
v -0.441843 -0.005935 0.161281
v -0.459670 -0.019243 0.139963
v -0.431713 -0.063072 0.137892
v -0.477875 -0.017149 0.110904
v -0.450992 -0.055942 0.108481
v -0.426850 -0.078787 0.097472
v -0.471255 -0.030394 0.071140
v -0.449199 -0.048069 0.061161
v -0.430288 -0.049596 0.043769
v -0.473990 -0.022995 0.016663
v -0.457751 -0.023813 0.002299
v -0.445172 -0.016880 -0.018980
v -0.487025 -0.000415 -0.044714
v -0.477114 0.005199 -0.061230
v -0.499709 -0.000440 -0.033431
v -0.525331 0.029653 -0.086641
v -0.516397 0.031290 -0.094373
v -0.514905 0.004542 -0.027632
v -0.536483 0.030799 -0.082873
v -0.493413 -0.016143 0.024457
v -0.532345 0.014259 -0.027544
v -0.548497 0.038614 -0.084030
v -0.515587 -0.002261 0.024722
v -0.552438 0.027629 -0.033083
v -0.558755 0.055223 -0.089684
v -0.570765 0.071012 -0.098288
v -0.574991 0.045160 -0.044193
v -0.581055 0.091088 -0.110274
v -0.590705 0.079475 -0.064792
v -0.591934 0.111679 -0.124825
v -0.606974 0.111546 -0.087676
v -0.604355 0.131296 -0.140919
v -0.623701 0.141505 -0.111789
v -0.617636 0.150538 -0.158040
v -0.639862 0.170471 -0.136858
v -0.631522 0.169108 -0.176767
v -0.644430 0.154999 -0.082108
v -0.658596 0.193071 -0.113523
v -0.649434 0.174104 -0.051551
v -0.665061 0.218665 -0.087778
v -0.634782 0.196683 -0.022142
v -0.607648 0.142635 0.021621
v -0.625546 0.128701 -0.014839
v -0.593986 0.082981 0.022266
v -0.625005 0.115241 -0.049399
v -0.599426 0.074464 -0.017372
v -0.568659 0.043022 0.003940
v -0.557914 0.044836 0.047341
v -0.525733 0.014576 0.062953
v -0.541707 0.052921 0.084089
v -0.577012 0.094278 0.058253
v -0.556382 0.109638 0.083745
v -0.585054 0.157322 0.046503
v -0.562986 0.171994 0.062820
v -0.508346 0.018262 0.101657
v -0.496961 -0.009692 0.071001
v -0.540394 0.018182 0.017550
v -0.509633 0.035991 -0.105652
v -0.505000 0.044022 -0.119988
v -0.470306 0.015667 -0.082183
v -0.466857 0.031124 -0.106864
v -0.436519 -0.003791 -0.045740
v -0.502634 0.055055 -0.136826
v -0.502598 0.068762 -0.155548
v -0.504907 0.084736 -0.175470
v -0.466888 0.050897 -0.134286
v -0.470376 0.074189 -0.163373
v -0.432212 0.040584 -0.112175
v -0.432160 0.015647 -0.077230
v -0.399571 0.008429 -0.048909
v -0.404681 -0.014225 -0.011851
v -0.376742 -0.027312 0.017358
v -0.415069 -0.033850 0.019370
v -0.389211 -0.065291 0.050903
v -0.362112 -0.086438 0.065478
v -0.405488 -0.083376 0.076476
v -0.370100 -0.121120 0.070240
v -0.343391 -0.138760 0.066787
v -0.397816 -0.103970 0.105696
v -0.378321 -0.097385 0.122060
v -0.352312 -0.055496 0.123416
v -0.374859 -0.044559 0.156452
v -0.414034 -0.050375 0.158780
v -0.424817 0.022377 0.173314
v -0.398417 -0.018776 0.170882
v -0.369820 0.022671 0.147324
v -0.388115 0.035180 0.167540
v -0.383909 0.108261 0.147251
v -0.412026 0.070625 0.171523
v -0.368366 0.098766 0.130406
v -0.384150 0.156435 0.120886
v -0.370916 0.154008 0.106742
v -0.384879 0.202035 0.092552
v -0.396308 0.206464 0.097205
v -0.396956 0.252698 0.060955
v -0.411739 0.220694 0.094459
v -0.407347 0.259623 0.057859
v -0.399720 0.298843 0.020439
v -0.404507 0.305139 0.019828
v -0.418477 0.271982 0.053053
v -0.409572 0.311968 0.017226
v -0.394925 0.293593 0.019628
v -0.388128 0.248888 0.060841
v -0.381090 0.243912 0.052915
v -0.375311 0.201094 0.080563
v -0.366091 0.203337 0.066775
v -0.358732 0.156420 0.089688
v -0.347705 0.164141 0.070178
v -0.353696 0.107383 0.109520
v -0.340206 0.117677 0.086287
v -0.327097 0.128848 0.061628
v -0.336643 0.044760 0.098027
v -0.321359 0.077454 0.070268
v -0.309956 0.102390 0.036968
v -0.315048 0.144404 0.034307
v -0.322875 0.015207 0.071044
v -0.313248 0.065861 0.031826
v -0.313429 0.100193 -0.016798
v -0.326428 0.038536 0.018112
v -0.326495 0.074206 -0.031318
v -0.345643 0.020384 -0.000292
v -0.345745 0.054668 -0.048821
v -0.334536 -0.024407 0.060235
v -0.353419 -0.036174 0.041246
v -0.370354 0.009985 -0.022935
v -0.370441 0.042311 -0.068639
v -0.399636 0.037573 -0.090024
v -0.404859 0.072086 -0.133617
v -0.436647 0.070009 -0.149226
v -0.445290 0.102832 -0.186967
v -0.477170 0.100096 -0.192994
v -0.487011 0.127703 -0.222023
v -0.509506 0.102515 -0.195846
v -0.516249 0.121530 -0.215852
v -0.524864 0.141032 -0.234665
v -0.534994 0.160224 -0.251561
v -0.499518 0.155928 -0.249342
v -0.514211 0.183727 -0.273892
v -0.473727 0.173735 -0.258726
v -0.457811 0.137856 -0.223943
v -0.429759 0.151820 -0.221496
v -0.415032 0.110664 -0.178009
v -0.387561 0.123456 -0.166422
v -0.376253 0.080624 -0.117087
v -0.351920 0.095317 -0.100261
v -0.363927 0.140769 -0.152639
v -0.332795 0.115637 -0.083771
v -0.345039 0.161970 -0.137178
v -0.319612 0.140823 -0.068247
v -0.331621 0.186260 -0.120631
v -0.324189 0.212710 -0.103629
v -0.312874 0.169908 -0.054282
v -0.323027 0.240282 -0.086825
v -0.312844 0.201750 -0.042409
v -0.307050 0.131637 -0.005814
v -0.307598 0.167294 0.001220
v -0.319473 0.235009 -0.033037
v -0.320944 0.209162 -0.000403
v -0.333813 0.268025 -0.027376
v -0.336326 0.247881 -0.004249
v -0.327817 0.189545 0.026220
v -0.342412 0.231620 0.015685
v -0.337219 0.175048 0.049248
v -0.357363 0.208896 0.051596
v -0.349403 0.218694 0.034579
v -0.359279 0.269628 0.004931
v -0.368894 0.251363 0.030864
v -0.363580 0.259134 0.018538
v -0.379011 0.297518 0.000606
v -0.381632 0.291750 0.008223
v -0.385468 0.289351 0.013912
v -0.374694 0.245968 0.042419
v -0.390055 0.290200 0.017571
v -0.377661 0.305551 -0.008020
v -0.377150 0.314148 -0.016744
v -0.356599 0.282623 -0.010052
v -0.356255 0.297878 -0.026596
v -0.358751 0.315794 -0.045180
v -0.377696 0.323769 -0.025889
v -0.379430 0.334344 -0.035349
v -0.364123 0.335891 -0.064312
v -0.382217 0.345422 -0.044729
v -0.385833 0.356609 -0.053528
v -0.370919 0.356554 -0.082019
v -0.378439 0.377073 -0.097164
v -0.360055 0.350476 -0.111667
v -0.377878 0.400566 -0.131250
v -0.356558 0.338740 -0.142632
v -0.372523 0.401898 -0.176499
v -0.349302 0.321663 -0.085326
v -0.340690 0.302853 -0.107852
v -0.340083 0.293860 -0.056733
v -0.328136 0.267842 -0.070838
v -0.337758 0.281410 -0.130325
v -0.356470 0.323551 -0.171243
v -0.340557 0.258398 -0.151964
v -0.361349 0.305213 -0.197428
v -0.348997 0.234761 -0.171941
v -0.371069 0.284458 -0.220206
v -0.396991 0.333443 -0.263571
v -0.385260 0.262093 -0.238701
v -0.411690 0.312039 -0.282916
v -0.446868 0.385244 -0.342123
v -0.429296 0.287967 -0.295570
v -0.466132 0.357021 -0.355607
v -0.500631 0.404511 -0.388184
v -0.486670 0.324802 -0.359388
v -0.519172 0.369541 -0.390073
v -0.552289 0.407900 -0.411081
v -0.536954 0.330069 -0.380936
v -0.566766 0.364594 -0.399842
v -0.595997 0.392050 -0.409310
v -0.578664 0.316920 -0.377217
v -0.603541 0.340266 -0.385267
v -0.607103 0.284929 -0.350427
v -0.606554 0.227925 -0.306192
v -0.619309 0.236758 -0.306043
v -0.587531 0.266594 -0.344105
v -0.593038 0.215316 -0.301838
v -0.567581 0.243518 -0.331480
v -0.553297 0.287555 -0.361143
v -0.528408 0.253298 -0.337665
v -0.507698 0.289800 -0.353324
v -0.492421 0.209081 -0.289982
v -0.470451 0.235522 -0.299162
v -0.448471 0.193977 -0.262405
v -0.424718 0.215989 -0.260208
v -0.449137 0.262140 -0.301054
v -0.403374 0.238980 -0.252206
v -0.381302 0.189276 -0.203944
v -0.362755 0.211421 -0.189491
v -0.403925 0.169162 -0.214747
v -0.548012 0.216585 -0.313040
v -0.546247 0.178361 -0.265907
v -0.579268 0.199417 -0.293146
v -0.623532 0.411386 -0.408974
v -0.615329 0.459894 -0.421235
v -0.584755 0.438408 -0.421605
v -0.535782 0.445231 -0.410487
v -0.570239 0.477616 -0.421661
v -0.553003 0.508200 -0.409473
v -0.517877 0.475180 -0.398079
v -0.499259 0.496609 -0.374328
v -0.482040 0.433664 -0.375338
v -0.464113 0.455891 -0.352025
v -0.447536 0.470345 -0.319135
v -0.429618 0.408402 -0.319447
v -0.415042 0.425608 -0.288449
v -0.403702 0.436194 -0.250318
v -0.384408 0.376214 -0.249267
v -0.376131 0.391731 -0.215056
v -0.396009 0.439742 -0.206516
v -0.420903 0.473984 -0.230000
v -0.392732 0.435545 -0.158694
v -0.411696 0.463024 -0.177104
v -0.396923 0.422810 -0.112453
v -0.407708 0.442592 -0.122771
v -0.399931 0.386752 -0.072204
v -0.394749 0.377678 -0.067449
v -0.390052 0.367496 -0.061205
v -0.412488 0.423688 -0.070970
v -0.418299 0.430617 -0.072132
v -0.420227 0.459244 -0.130405
v -0.433375 0.472165 -0.134543
v -0.451295 0.504403 -0.196116
v -0.471078 0.526715 -0.254120
v -0.427379 0.448693 -0.185577
v -0.446242 0.503357 -0.246073
v -0.462740 0.510988 -0.296838
v -0.491943 0.538446 -0.306306
v -0.519436 0.557785 -0.305967
v -0.513090 0.539209 -0.350666
v -0.543639 0.560696 -0.350296
v -0.533708 0.528995 -0.385502
v -0.480641 0.508702 -0.340144
v -0.432945 0.476461 -0.277934
v -0.642851 0.471542 -0.409979
v -0.341273 -0.082233 0.079247
v -0.339295 -0.024223 0.101810
v -0.353000 0.025171 0.123726
v 0.528059 0.516669 -0.209098
v 0.510620 0.511831 -0.215448
v 0.482022 0.484285 -0.151571
v 0.560959 0.535386 -0.266927
v 0.538761 0.529212 -0.274997
v 0.542129 0.516229 -0.196032
v 0.503705 0.487219 -0.138179
v 0.481253 0.451173 -0.147190
v 0.453991 0.447075 -0.085842
v 0.460085 0.448706 -0.083587
v 0.421646 0.371477 -0.035112
v 0.464995 0.448400 -0.078990
v 0.468513 0.446161 -0.072211
v 0.470501 0.442045 -0.063511
v 0.510679 0.483174 -0.124885
v 0.514679 0.475573 -0.107814
v 0.552289 0.510516 -0.176741
v 0.558154 0.499723 -0.151959
v 0.591825 0.527659 -0.225770
v 0.578874 0.534862 -0.250309
v 0.612568 0.542609 -0.298919
v 0.627812 0.534166 -0.270077
v 0.591497 0.543209 -0.318449
v 0.641931 0.539244 -0.339994
v 0.658883 0.529875 -0.307959
v 0.618512 0.539905 -0.361686
v 0.665841 0.524921 -0.371957
v 0.683856 0.514984 -0.337956
v 0.640969 0.525621 -0.394980
v 0.683383 0.500197 -0.393580
v 0.658011 0.500908 -0.417052
v 0.626602 0.492170 -0.428439
v 0.610169 0.517049 -0.406151
v 0.668986 0.466713 -0.427056
v 0.638167 0.458142 -0.438226
v 0.694002 0.471025 -0.400625
v 0.709985 0.462244 -0.370542
v 0.701775 0.490071 -0.358914
v 0.696963 0.423673 -0.402921
v 0.714032 0.414325 -0.370881
v 0.724105 0.396668 -0.329698
v 0.722605 0.437356 -0.326360
v 0.707911 0.366328 -0.361447
v 0.717076 0.350430 -0.324366
v 0.692487 0.374754 -0.390293
v 0.671308 0.375357 -0.409822
v 0.680627 0.321058 -0.366652
v 0.662562 0.321600 -0.383265
v 0.640272 0.315451 -0.391328
v 0.647558 0.264994 -0.345988
v 0.630002 0.260208 -0.352324
v 0.661809 0.264501 -0.332938
v 0.626818 0.207462 -0.299477
v 0.636677 0.207003 -0.290505
v 0.643914 0.202871 -0.277258
v 0.605906 0.150554 -0.240973
v 0.609143 0.148476 -0.234059
v 0.609659 0.145208 -0.224775
v 0.647669 0.195197 -0.259686
v 0.557116 0.112082 -0.184430
v 0.594731 0.149367 -0.247753
v 0.600962 0.150884 -0.245564
v 0.587424 0.146115 -0.247437
v 0.578196 0.141693 -0.244071
v 0.558622 0.139936 -0.233305
v 0.545638 0.134657 -0.222735
v 0.537971 0.127902 -0.214072
v 0.531684 0.120423 -0.204842
v 0.526217 0.112587 -0.194854
v 0.521648 0.104743 -0.184373
v 0.518148 0.097239 -0.173776
v 0.515845 0.090347 -0.163471
v 0.514813 0.084308 -0.153836
v 0.515087 0.079295 -0.145228
v 0.516696 0.075409 -0.137977
v 0.519646 0.072753 -0.132383
v 0.523925 0.071347 -0.128697
v 0.529437 0.071336 -0.127116
v 0.535707 0.073751 -0.127816
v 0.542076 0.079158 -0.130696
v 0.548505 0.086318 -0.135424
v 0.554698 0.095245 -0.141952
v 0.561230 0.104197 -0.149813
v 0.568643 0.111868 -0.158500
v 0.577013 0.118247 -0.167789
v 0.586092 0.124088 -0.177841
v 0.595061 0.130084 -0.189016
v 0.601757 0.136333 -0.201179
v 0.606571 0.141492 -0.213366
v 0.641387 0.172697 -0.215028
v 0.646828 0.184826 -0.238331
v 0.680263 0.232380 -0.259288
v 0.678565 0.247935 -0.288904
v 0.701732 0.300273 -0.310572
v 0.672253 0.258743 -0.313668
v 0.693821 0.313851 -0.342115
v 0.704215 0.280871 -0.273199
v 0.701658 0.256317 -0.231405
v 0.719787 0.327719 -0.280422
v 0.676739 0.212878 -0.225878
v 0.666785 0.191626 -0.191371
v 0.646738 0.170650 -0.159109
v 0.670624 0.199185 -0.144804
v 0.631829 0.159167 -0.191700
v 0.693137 0.228344 -0.186578
v 0.684519 0.230884 -0.127527
v 0.716287 0.299148 -0.231234
v 0.706389 0.266061 -0.178377
v 0.712550 0.302672 -0.167809
v 0.722800 0.339713 -0.226367
v 0.720595 0.376486 -0.216573
v 0.726941 0.371428 -0.280910
v 0.725492 0.410503 -0.274590
v 0.710654 0.408924 -0.202744
v 0.715422 0.443529 -0.261638
v 0.692091 0.435158 -0.184695
v 0.697143 0.469325 -0.242570
v 0.712552 0.470939 -0.314377
v 0.694392 0.496218 -0.294283
v 0.671215 0.486740 -0.218033
v 0.668751 0.512157 -0.266790
v 0.638812 0.495278 -0.189121
v 0.636661 0.518196 -0.233014
v 0.601098 0.494463 -0.156902
v 0.599325 0.514032 -0.194237
v 0.559496 0.484211 -0.122626
v 0.556262 0.464478 -0.089862
v 0.513212 0.450747 -0.065070
v 0.515539 0.464652 -0.087617
v 0.470873 0.436174 -0.053226
v 0.469603 0.428728 -0.041740
v 0.466717 0.419957 -0.029481
v 0.507763 0.434281 -0.041041
v 0.499380 0.415789 -0.016484
v 0.548569 0.441114 -0.054919
v 0.536697 0.414783 -0.019156
v 0.587477 0.440180 -0.070619
v 0.597092 0.469605 -0.115169
v 0.634228 0.466194 -0.140043
v 0.623164 0.431777 -0.087585
v 0.666309 0.454538 -0.163531
v 0.654373 0.416472 -0.105297
v 0.636064 0.373057 -0.044387
v 0.605670 0.391792 -0.032488
v 0.679981 0.395017 -0.122964
v 0.661674 0.349969 -0.059631
v 0.699349 0.368243 -0.139488
v 0.677232 0.322555 -0.077379
v 0.709235 0.336583 -0.154192
v 0.686270 0.294043 -0.094935
v 0.690517 0.263410 -0.109966
v 0.657426 0.223381 -0.062497
v 0.653164 0.249087 -0.045099
v 0.613489 0.204301 0.003445
v 0.601186 0.226400 0.016922
v 0.645494 0.274289 -0.029387
v 0.626982 0.298672 -0.010944
v 0.584261 0.243939 0.029770
v 0.573953 0.259083 0.031236
v 0.611296 0.324785 0.010995
v 0.546380 0.264283 0.033693
v 0.583471 0.348221 0.016369
v 0.514120 0.292523 0.029302
v 0.553159 0.370708 0.019796
v 0.521077 0.386453 0.016065
v 0.572655 0.406905 -0.024982
v 0.485286 0.306860 0.018419
v 0.465618 0.329074 0.008129
v 0.488230 0.396009 0.007890
v 0.447207 0.367301 -0.021193
v 0.452452 0.377809 -0.032048
v 0.441029 0.357029 -0.010869
v 0.434260 0.347950 -0.001473
v 0.448385 0.321070 0.027474
v 0.435752 0.308224 0.042050
v 0.427398 0.340570 0.006313
v 0.468433 0.300938 0.048986
v 0.448776 0.281823 0.069826
v 0.429781 0.267748 0.087098
v 0.463201 0.251103 0.093549
v 0.435631 0.231699 0.117247
v 0.412724 0.215887 0.130745
v 0.444418 0.196649 0.137082
v 0.415015 0.176355 0.158336
v 0.386538 0.156031 0.163044
v 0.389645 0.200053 0.133277
v 0.417026 0.134930 0.175275
v 0.448103 0.156166 0.153361
v 0.460322 0.125699 0.154480
v 0.425506 0.099430 0.179243
v 0.483070 0.172759 0.122076
v 0.474587 0.209970 0.108068
v 0.509964 0.210830 0.079574
v 0.489233 0.266635 0.061497
v 0.522060 0.195170 0.084180
v 0.533472 0.188983 0.078736
v 0.495159 0.152246 0.122767
v 0.516192 0.137399 0.110534
v 0.479391 0.102544 0.146636
v 0.496044 0.081508 0.126584
v 0.457339 0.050918 0.149202
v 0.441947 0.073493 0.168998
v 0.404657 0.026773 0.179051
v 0.420102 0.009349 0.158871
v 0.385724 -0.029688 0.159869
v 0.438247 0.006476 0.129841
v 0.405702 -0.027791 0.130123
v 0.378270 -0.047397 0.120687
v 0.429441 -0.008480 0.091122
v 0.404872 -0.023237 0.082344
v 0.385852 -0.023111 0.065003
v 0.432971 -0.005616 0.036264
v 0.416718 -0.004979 0.021907
v 0.405235 0.002223 0.000105
v 0.448975 0.010116 -0.026531
v 0.439952 0.015958 -0.043472
v 0.461569 0.008969 -0.015206
v 0.491212 0.030766 -0.070337
v 0.482592 0.033186 -0.078219
v 0.477383 0.011966 -0.009702
v 0.502429 0.030457 -0.066600
v 0.453261 -0.001280 0.043644
v 0.496110 0.018864 -0.010229
v 0.515496 0.036224 -0.068260
v 0.477309 0.009007 0.043014
v 0.517990 0.028540 -0.016621
v 0.528153 0.050596 -0.075061
v 0.542401 0.063673 -0.084734
v 0.542907 0.041527 -0.028861
v 0.555589 0.080991 -0.098104
v 0.563596 0.071407 -0.051837
v 0.569424 0.098537 -0.114068
v 0.584476 0.098823 -0.076924
v 0.584623 0.114772 -0.131490
v 0.605475 0.123997 -0.103080
v 0.600608 0.130430 -0.149903
v 0.625757 0.148209 -0.130117
v 0.617080 0.145215 -0.169866
v 0.628202 0.136286 -0.074353
v 0.647877 0.169311 -0.108401
v 0.636259 0.156588 -0.045255
v 0.658350 0.195429 -0.084571
v 0.625424 0.183253 -0.017670
v 0.590547 0.137388 0.029793
v 0.605880 0.118224 -0.005441
v 0.567873 0.080758 0.034744
v 0.603078 0.102504 -0.038921
v 0.571712 0.068615 -0.004129
v 0.536596 0.043933 0.019261
v 0.526505 0.050565 0.062350
v 0.490142 0.026847 0.079960
v 0.511945 0.063727 0.098311
v 0.553045 0.097146 0.069706
v 0.535170 0.117330 0.093881
v 0.570624 0.157166 0.053399
v 0.551170 0.176218 0.068466
v 0.473750 0.036000 0.118189
v 0.458025 0.007953 0.089607
v 0.504924 0.024807 0.034500
v 0.476568 0.038030 -0.089851
v 0.473144 0.045602 -0.104765
v 0.434716 0.025780 -0.065177
v 0.433546 0.039727 -0.090946
v 0.398547 0.014484 -0.027594
v 0.472408 0.055599 -0.122382
v 0.474375 0.067735 -0.142061
v 0.479000 0.081654 -0.163090
v 0.436463 0.057188 -0.119747
v 0.443327 0.077464 -0.150448
v 0.400739 0.053988 -0.097135
v 0.397051 0.031993 -0.060453
v 0.363901 0.031977 -0.031864
v 0.365676 0.011593 0.006788
v 0.336223 0.005144 0.036720
v 0.373098 -0.007048 0.039426
v 0.342891 -0.031731 0.073037
v 0.312944 -0.047327 0.088973
v 0.356337 -0.050176 0.099963
v 0.315528 -0.082380 0.096317
v 0.286404 -0.095906 0.094019
v 0.345754 -0.067139 0.130574
v 0.327599 -0.056448 0.146298
v 0.308352 -0.011071 0.144423
v 0.332501 -0.001335 0.176693
v 0.370327 -0.012922 0.179665
v 0.392258 0.058174 0.188873
v 0.359827 0.021507 0.189322
v 0.337815 0.065015 0.162618
v 0.357931 0.076013 0.181964
v 0.364903 0.147178 0.156334
v 0.387033 0.107552 0.183467
v 0.347989 0.138975 0.140143
v 0.372403 0.192672 0.126499
v 0.358873 0.191276 0.112497
v 0.379978 0.235408 0.094894
v 0.391979 0.238356 0.099274
v 0.399526 0.281148 0.059728
v 0.409400 0.249802 0.095577
v 0.410841 0.286145 0.056190
v 0.409126 0.323213 0.015945
v 0.414821 0.328636 0.014900
v 0.423712 0.296258 0.050552
v 0.420861 0.334394 0.011831
v 0.403575 0.318718 0.015495
v 0.390217 0.278743 0.059843
v 0.382451 0.274340 0.052265
v 0.370311 0.235072 0.082953
v 0.361468 0.237687 0.068985
v 0.347108 0.194274 0.095242
v 0.337289 0.202143 0.075155
v 0.334701 0.148188 0.118597
v 0.322823 0.158698 0.094594
v 0.311448 0.169910 0.069105
v 0.308151 0.088261 0.111642
v 0.297921 0.120786 0.081468
v 0.290301 0.144664 0.046361
v 0.301781 0.185083 0.040647
v 0.289846 0.059275 0.086827
v 0.287904 0.107785 0.043937
v 0.293088 0.138012 -0.007078
v 0.296645 0.077824 0.032345
v 0.301917 0.109327 -0.019574
v 0.312733 0.055629 0.015435
v 0.317832 0.085827 -0.035482
v 0.295211 0.017653 0.079026
v 0.311951 0.001757 0.061062
v 0.335420 0.039915 -0.006241
v 0.340219 0.068394 -0.054197
v 0.368215 0.057661 -0.075009
v 0.378437 0.087660 -0.120991
v 0.409438 0.079575 -0.136224
v 0.422813 0.107813 -0.176226
v 0.453858 0.099769 -0.181853
v 0.467663 0.123323 -0.212777
v 0.486164 0.096968 -0.184692
v 0.495638 0.113195 -0.206003
v 0.507043 0.129703 -0.226149
v 0.519909 0.145814 -0.244352
v 0.484208 0.147202 -0.242026
v 0.502863 0.170529 -0.268469
v 0.461411 0.168026 -0.252841
v 0.440363 0.137678 -0.215605
v 0.414807 0.155934 -0.214351
v 0.394171 0.120844 -0.168041
v 0.369062 0.138527 -0.157582
v 0.351580 0.101690 -0.105297
v 0.329894 0.121148 -0.089735
v 0.348453 0.160236 -0.145244
v 0.314217 0.145326 -0.074893
v 0.333140 0.185169 -0.131492
v 0.305155 0.173313 -0.061338
v 0.323713 0.212385 -0.116852
v 0.320537 0.240841 -0.101883
v 0.303052 0.204035 -0.049588
v 0.323726 0.269424 -0.087159
v 0.307989 0.236288 -0.040089
v 0.291685 0.170784 0.001528
v 0.297753 0.206352 0.005925
v 0.319710 0.268730 -0.033150
v 0.317372 0.245433 0.001304
v 0.338990 0.299471 -0.029850
v 0.338506 0.280936 -0.005290
v 0.321297 0.227004 0.029336
v 0.342131 0.265442 0.015819
v 0.328488 0.212966 0.053421
v 0.353612 0.243391 0.053388
v 0.347158 0.253020 0.035653
v 0.364584 0.299508 0.002397
v 0.371421 0.281938 0.029657
v 0.367296 0.289506 0.016763
v 0.388347 0.323636 -0.003855
v 0.390092 0.318109 0.004181
v 0.393546 0.315573 0.010052
v 0.376388 0.276579 0.041609
v 0.398230 0.315973 0.013665
v 0.388200 0.331125 -0.013055
v 0.388968 0.339033 -0.022391
v 0.363849 0.311624 -0.013516
v 0.365763 0.325491 -0.031139
v 0.370879 0.341395 -0.050975
v 0.390935 0.347757 -0.032216
v 0.394222 0.357214 -0.042417
v 0.379171 0.358965 -0.071502
v 0.398627 0.367011 -0.052570
v 0.403870 0.376831 -0.062147
v 0.388964 0.376978 -0.090642
v 0.399464 0.394925 -0.107211
v 0.377125 0.370480 -0.119823
v 0.402331 0.415655 -0.142934
v 0.371687 0.357177 -0.149861
v 0.396986 0.414464 -0.188189
v 0.362217 0.345681 -0.091497
v 0.350686 0.326815 -0.112628
v 0.348994 0.321805 -0.060991
v 0.333106 0.296969 -0.073212
v 0.344361 0.304484 -0.133480
v 0.369101 0.340120 -0.177279
v 0.343463 0.279788 -0.153352
v 0.370951 0.319376 -0.202016
v 0.348052 0.253730 -0.171489
v 0.377232 0.295754 -0.223150
v 0.410135 0.336845 -0.269852
v 0.387707 0.270174 -0.239870
v 0.421254 0.312071 -0.287486
v 0.466939 0.374439 -0.351713
v 0.434875 0.284713 -0.298236
v 0.481554 0.342674 -0.362976
v 0.522763 0.381765 -0.398759
v 0.496869 0.307489 -0.364261
v 0.535691 0.344315 -0.397966
v 0.574196 0.375473 -0.421549
v 0.547240 0.303358 -0.385852
v 0.581901 0.331400 -0.407074
v 0.614954 0.353261 -0.418368
v 0.586451 0.284257 -0.380938
v 0.614577 0.302842 -0.390541
v 0.609782 0.250329 -0.351707
v 0.600721 0.197496 -0.303405
v 0.614684 0.204249 -0.303833
v 0.587658 0.235738 -0.344166
v 0.585451 0.187472 -0.298212
v 0.564467 0.216998 -0.329992
v 0.556961 0.260407 -0.362894
v 0.527231 0.232207 -0.337102
v 0.512295 0.270210 -0.355520
v 0.485142 0.197680 -0.286503
v 0.467450 0.226440 -0.297728
v 0.439550 0.191587 -0.258141
v 0.419478 0.217093 -0.257704
v 0.450475 0.255808 -0.301693
v 0.401972 0.243619 -0.251536
v 0.372791 0.201588 -0.199876
v 0.357955 0.227325 -0.187197
v 0.391988 0.177493 -0.209043
v 0.541093 0.194826 -0.309734
v 0.533736 0.160899 -0.259929
v 0.569448 0.174563 -0.288453
v 0.645137 0.368102 -0.419298
v 0.644426 0.416260 -0.435138
v 0.610908 0.399765 -0.434102
v 0.563632 0.414841 -0.423796
v 0.602598 0.440629 -0.437124
v 0.590342 0.474312 -0.427315
v 0.550620 0.448018 -0.413725
v 0.535656 0.473744 -0.391720
v 0.508952 0.414296 -0.388198
v 0.494791 0.440670 -0.366684
v 0.480823 0.459880 -0.335041
v 0.453587 0.401579 -0.330901
v 0.442009 0.423054 -0.301335
v 0.432650 0.438033 -0.264151
v 0.404363 0.381977 -0.258802
v 0.398768 0.401056 -0.225873
v 0.425844 0.445934 -0.220772
v 0.455576 0.474118 -0.246568
v 0.422233 0.445818 -0.172791
v 0.445094 0.468624 -0.193063
v 0.424678 0.436025 -0.125716
v 0.438320 0.453099 -0.137398
v 0.422331 0.402991 -0.082908
v 0.415843 0.395197 -0.077528
v 0.409671 0.386346 -0.070579
v 0.440429 0.437545 -0.084321
v 0.447230 0.443393 -0.085956
v 0.453207 0.467020 -0.146165
v 0.468163 0.477424 -0.151166
v 0.490479 0.501906 -0.214840
v 0.513128 0.516583 -0.274213
v 0.458337 0.451467 -0.200370
v 0.485041 0.497980 -0.264613
v 0.502227 0.499228 -0.315707
v 0.535252 0.521095 -0.327001
v 0.565394 0.535945 -0.327928
v 0.556011 0.515332 -0.371176
v 0.589504 0.531832 -0.372213
v 0.574613 0.499534 -0.405049
v 0.519316 0.491038 -0.358624
v 0.467583 0.471181 -0.294485
v 0.673476 0.424331 -0.424613
v 0.293079 -0.038966 0.102277
v 0.300179 0.020158 0.120502
v 0.321445 0.068331 0.138805
vt 0.750000 0.812500
vt 0.718750 0.812500
vt 0.718750 0.875000
vt 0.718750 0.750000
vt 0.750000 0.875000
vt 0.750000 0.750000
vt 0.781250 0.812500
vt 0.781250 0.875000
vt 0.718750 0.937500
vt 0.750000 0.937500
vt 0.734375 1.000000
vt 0.781250 0.937500
vt 0.765625 1.000000
vt 0.812500 0.937500
vt 0.796875 1.000000
vt 0.843750 0.937500
vt 0.828125 1.000000
vt 0.812500 0.875000
vt 0.843750 0.875000
vt 0.812500 0.812500
vt 0.843750 0.812500
vt 0.812500 0.750000
vt 0.781250 0.750000
vt 0.781250 0.687500
vt 0.812500 0.687500
vt 0.781250 0.625000
vt 0.750000 0.687500
vt 0.812500 0.625000
vt 0.781250 0.562500
vt 0.750000 0.625000
vt 0.812500 0.562500
vt 0.781250 0.500000
vt 0.750000 0.562500
vt 0.750000 0.500000
vt 0.718750 0.500000
vt 0.718750 0.562500
vt 0.718750 0.437500
vt 0.750000 0.437500
vt 0.781250 0.437500
vt 0.812500 0.500000
vt 0.812500 0.437500
vt 0.812500 0.375000
vt 0.781250 0.375000
vt 0.843750 0.437500
vt 0.843750 0.375000
vt 0.843750 0.312500
vt 0.812500 0.312500
vt 0.781250 0.312500
vt 0.781250 0.250000
vt 0.750000 0.312500
vt 0.750000 0.250000
vt 0.718750 0.250000
vt 0.750000 0.187500
vt 0.718750 0.187500
vt 0.750000 0.125000
vt 0.781250 0.187500
vt 0.781250 0.125000
vt 0.812500 0.125000
vt 0.812500 0.062500
vt 0.781250 0.062500
vt 0.843750 0.125000
vt 0.843750 0.062500
vt 0.828125 0.000000
vt 0.796875 0.000000
vt 0.734375 0.000000
vt 0.718750 0.062500
vt 0.750000 0.062500
vt 0.703125 0.000000
vt 0.687500 0.062500
vt 0.765625 0.000000
vt 0.671875 0.000000
vt 0.656250 0.062500
vt 0.640625 0.000000
vt 0.625000 0.062500
vt 0.609375 0.000000
vt 0.593750 0.062500
vt 0.578125 0.000000
vt 0.562500 0.062500
vt 0.546875 0.000000
vt 0.531250 0.062500
vt 0.515625 0.000000
vt 0.500000 0.062500
vt 0.484375 0.000000
vt 0.468750 0.062500
vt 0.453125 0.000000
vt 0.437500 0.062500
vt 0.421875 0.000000
vt 0.406250 0.062500
vt 0.390625 0.000000
vt 0.375000 0.062500
vt 0.359375 0.000000
vt 0.343750 0.062500
vt 0.328125 0.000000
vt 0.312500 0.062500
vt 0.296875 0.000000
vt 0.281250 0.062500
vt 0.265625 0.000000
vt 0.250000 0.062500
vt 0.234375 0.000000
vt 0.218750 0.062500
vt 0.203125 0.000000
vt 0.187500 0.062500
vt 0.171875 0.000000
vt 0.156250 0.062500
vt 0.140625 0.000000
vt 0.125000 0.062500
vt 0.109375 0.000000
vt 0.093750 0.062500
vt 0.078125 0.000000
vt 0.062500 0.062500
vt 0.046875 0.000000
vt 0.031250 0.062500
vt 0.015625 0.000000
vt 0.000000 0.062500
vt 0.984375 0.000000
vt 0.968750 0.062500
vt 1.000000 0.062500
vt 0.953125 0.000000
vt 0.937500 0.062500
vt 0.921875 0.000000
vt 0.906250 0.062500
vt 0.890625 0.000000
vt 0.875000 0.062500
vt 0.859375 0.000000
vt 0.906250 0.125000
vt 0.875000 0.125000
vt 0.875000 0.187500
vt 0.843750 0.187500
vt 0.843750 0.250000
vt 0.812500 0.250000
vt 0.812500 0.187500
vt 0.875000 0.250000
vt 0.906250 0.250000
vt 0.875000 0.312500
vt 0.906250 0.187500
vt 0.937500 0.187500
vt 0.968750 0.250000
vt 0.968750 0.187500
vt 0.937500 0.125000
vt 0.937500 0.250000
vt 0.968750 0.312500
vt 0.937500 0.312500
vt 0.906250 0.312500
vt 0.937500 0.375000
vt 0.906250 0.375000
vt 0.906250 0.437500
vt 0.875000 0.437500
vt 0.875000 0.375000
vt 0.906250 0.500000
vt 0.875000 0.500000
vt 0.906250 0.562500
vt 0.875000 0.562500
vt 0.843750 0.500000
vt 0.843750 0.562500
vt 0.875000 0.625000
vt 0.843750 0.625000
vt 0.875000 0.687500
vt 0.843750 0.687500
vt 0.875000 0.750000
vt 0.843750 0.750000
vt 0.875000 0.812500
vt 0.906250 0.875000
vt 0.906250 0.812500
vt 0.875000 0.875000
vt 0.875000 0.937500
vt 0.906250 0.937500
vt 0.890625 1.000000
vt 0.859375 1.000000
vt 0.937500 0.937500
vt 0.921875 1.000000
vt 0.937500 0.875000
vt 0.968750 0.875000
vt 0.937500 0.812500
vt 0.968750 0.812500
vt 0.937500 0.750000
vt 0.906250 0.750000
vt 0.906250 0.687500
vt 0.937500 0.687500
vt 0.906250 0.625000
vt 0.937500 0.625000
vt 0.968750 0.687500
vt 0.968750 0.625000
vt 0.937500 0.562500
vt 0.968750 0.562500
vt 0.937500 0.500000
vt 0.968750 0.500000
vt 0.937500 0.437500
vt 0.968750 0.437500
vt 0.968750 0.375000
vt 1.000000 0.437500
vt 1.000000 0.375000
vt 0.031250 0.500000
vt 0.031250 0.437500
vt 0.000000 0.437500
vt 0.000000 0.375000
vt 0.000000 0.500000
vt 1.000000 0.500000
vt 0.000000 0.562500
vt 1.000000 0.562500
vt 0.031250 0.625000
vt 0.031250 0.562500
vt 0.000000 0.625000
vt 1.000000 0.625000
vt 0.031250 0.687500
vt 0.000000 0.687500
vt 1.000000 0.687500
vt 0.031250 0.750000
vt 0.000000 0.750000
vt 1.000000 0.750000
vt 0.000000 0.812500
vt 1.000000 0.812500
vt 0.968750 0.750000
vt 0.031250 0.875000
vt 0.031250 0.812500
vt 0.000000 0.875000
vt 1.000000 0.875000
vt 0.000000 0.937500
vt 0.968750 0.937500
vt 1.000000 0.937500
vt 0.984375 1.000000
vt 0.953125 1.000000
vt 0.031250 0.937500
vt 0.015625 1.000000
vt 0.062500 0.937500
vt 0.046875 1.000000
vt 0.062500 0.875000
vt 0.093750 0.937500
vt 0.093750 0.875000
vt 0.093750 0.812500
vt 0.062500 0.812500
vt 0.125000 0.812500
vt 0.125000 0.750000
vt 0.093750 0.750000
vt 0.156250 0.750000
vt 0.156250 0.687500
vt 0.125000 0.687500
vt 0.187500 0.750000
vt 0.187500 0.687500
vt 0.156250 0.625000
vt 0.125000 0.625000
vt 0.156250 0.562500
vt 0.125000 0.562500
vt 0.093750 0.625000
vt 0.093750 0.687500
vt 0.062500 0.687500
vt 0.062500 0.750000
vt 0.062500 0.625000
vt 0.093750 0.562500
vt 0.062500 0.562500
vt 0.125000 0.500000
vt 0.093750 0.500000
vt 0.156250 0.437500
vt 0.125000 0.437500
vt 0.156250 0.500000
vt 0.187500 0.500000
vt 0.187500 0.437500
vt 0.218750 0.437500
vt 0.218750 0.375000
vt 0.187500 0.375000
vt 0.250000 0.375000
vt 0.250000 0.312500
vt 0.218750 0.312500
vt 0.281250 0.312500
vt 0.281250 0.250000
vt 0.250000 0.250000
vt 0.312500 0.250000
vt 0.312500 0.187500
vt 0.281250 0.187500
vt 0.250000 0.187500
vt 0.281250 0.125000
vt 0.250000 0.125000
vt 0.218750 0.187500
vt 0.218750 0.250000
vt 0.218750 0.125000
vt 0.187500 0.187500
vt 0.187500 0.250000
vt 0.187500 0.125000
vt 0.156250 0.125000
vt 0.156250 0.187500
vt 0.125000 0.125000
vt 0.125000 0.187500
vt 0.093750 0.125000
vt 0.093750 0.187500
vt 0.062500 0.125000
vt 0.062500 0.187500
vt 0.031250 0.125000
vt 0.031250 0.187500
vt 0.000000 0.125000
vt 0.000000 0.187500
vt 1.000000 0.187500
vt 1.000000 0.125000
vt 0.968750 0.125000
vt 0.031250 0.250000
vt 0.000000 0.250000
vt 1.000000 0.250000
vt 0.031250 0.312500
vt 0.000000 0.312500
vt 1.000000 0.312500
vt 0.031250 0.375000
vt 0.062500 0.375000
vt 0.062500 0.312500
vt 0.093750 0.312500
vt 0.062500 0.250000
vt 0.093750 0.250000
vt 0.125000 0.312500
vt 0.125000 0.250000
vt 0.156250 0.312500
vt 0.125000 0.375000
vt 0.093750 0.375000
vt 0.093750 0.437500
vt 0.062500 0.437500
vt 0.062500 0.500000
vt 0.156250 0.375000
vt 0.187500 0.312500
vt 0.156250 0.250000
vt 0.312500 0.125000
vt 0.343750 0.125000
vt 0.343750 0.187500
vt 0.375000 0.187500
vt 0.343750 0.250000
vt 0.375000 0.125000
vt 0.406250 0.125000
vt 0.437500 0.125000
vt 0.406250 0.187500
vt 0.437500 0.187500
vt 0.406250 0.250000
vt 0.375000 0.250000
vt 0.375000 0.312500
vt 0.343750 0.312500
vt 0.343750 0.375000
vt 0.312500 0.375000
vt 0.312500 0.312500
vt 0.312500 0.437500
vt 0.281250 0.437500
vt 0.281250 0.375000
vt 0.281250 0.500000
vt 0.250000 0.500000
vt 0.250000 0.437500
vt 0.281250 0.562500
vt 0.250000 0.562500
vt 0.218750 0.500000
vt 0.218750 0.562500
vt 0.187500 0.562500
vt 0.250000 0.625000
vt 0.218750 0.625000
vt 0.218750 0.687500
vt 0.187500 0.625000
vt 0.250000 0.687500
vt 0.218750 0.750000
vt 0.250000 0.750000
vt 0.218750 0.812500
vt 0.187500 0.812500
vt 0.187500 0.875000
vt 0.156250 0.875000
vt 0.156250 0.812500
vt 0.187500 0.937500
vt 0.156250 0.937500
vt 0.125000 0.875000
vt 0.125000 0.937500
vt 0.140625 1.000000
vt 0.109375 1.000000
vt 0.171875 1.000000
vt 0.218750 0.937500
vt 0.203125 1.000000
vt 0.218750 0.875000
vt 0.250000 0.875000
vt 0.250000 0.812500
vt 0.281250 0.812500
vt 0.281250 0.750000
vt 0.312500 0.750000
vt 0.312500 0.687500
vt 0.281250 0.687500
vt 0.343750 0.687500
vt 0.343750 0.625000
vt 0.312500 0.625000
vt 0.375000 0.687500
vt 0.375000 0.625000
vt 0.375000 0.562500
vt 0.343750 0.562500
vt 0.406250 0.562500
vt 0.375000 0.500000
vt 0.406250 0.500000
vt 0.406250 0.437500
vt 0.375000 0.437500
vt 0.343750 0.437500
vt 0.343750 0.500000
vt 0.375000 0.375000
vt 0.406250 0.375000
vt 0.406250 0.312500
vt 0.437500 0.312500
vt 0.437500 0.250000
vt 0.468750 0.250000
vt 0.468750 0.187500
vt 0.500000 0.187500
vt 0.500000 0.125000
vt 0.468750 0.125000
vt 0.531250 0.125000
vt 0.562500 0.125000
vt 0.531250 0.187500
vt 0.562500 0.187500
vt 0.531250 0.250000
vt 0.500000 0.250000
vt 0.500000 0.312500
vt 0.468750 0.312500
vt 0.468750 0.375000
vt 0.437500 0.375000
vt 0.437500 0.437500
vt 0.468750 0.437500
vt 0.437500 0.500000
vt 0.468750 0.500000
vt 0.437500 0.562500
vt 0.468750 0.625000
vt 0.468750 0.562500
vt 0.437500 0.625000
vt 0.468750 0.687500
vt 0.437500 0.687500
vt 0.406250 0.625000
vt 0.406250 0.687500
vt 0.437500 0.750000
vt 0.406250 0.750000
vt 0.437500 0.812500
vt 0.406250 0.812500
vt 0.375000 0.750000
vt 0.375000 0.812500
vt 0.343750 0.750000
vt 0.343750 0.812500
vt 0.312500 0.812500
vt 0.375000 0.875000
vt 0.343750 0.875000
vt 0.312500 0.875000
vt 0.343750 0.937500
vt 0.312500 0.937500
vt 0.328125 1.000000
vt 0.281250 0.937500
vt 0.296875 1.000000
vt 0.250000 0.937500
vt 0.265625 1.000000
vt 0.281250 0.875000
vt 0.234375 1.000000
vt 0.375000 0.937500
vt 0.359375 1.000000
vt 0.406250 0.937500
vt 0.390625 1.000000
vt 0.406250 0.875000
vt 0.437500 0.875000
vt 0.468750 0.875000
vt 0.437500 0.937500
vt 0.468750 0.937500
vt 0.453125 1.000000
vt 0.421875 1.000000
vt 0.500000 0.875000
vt 0.500000 0.937500
vt 0.484375 1.000000
vt 0.531250 0.937500
vt 0.515625 1.000000
vt 0.531250 0.875000
vt 0.562500 0.875000
vt 0.531250 0.812500
vt 0.562500 0.812500
vt 0.562500 0.750000
vt 0.531250 0.750000
vt 0.500000 0.812500
vt 0.500000 0.750000
vt 0.468750 0.812500
vt 0.468750 0.750000
vt 0.500000 0.687500
vt 0.531250 0.687500
vt 0.500000 0.625000
vt 0.531250 0.625000
vt 0.531250 0.562500
vt 0.500000 0.562500
vt 0.562500 0.562500
vt 0.562500 0.500000
vt 0.531250 0.500000
vt 0.593750 0.500000
vt 0.593750 0.437500
vt 0.562500 0.437500
vt 0.625000 0.437500
vt 0.625000 0.375000
vt 0.593750 0.375000
vt 0.656250 0.375000
vt 0.656250 0.312500
vt 0.625000 0.312500
vt 0.687500 0.312500
vt 0.687500 0.250000
vt 0.656250 0.250000
vt 0.687500 0.187500
vt 0.718750 0.125000
vt 0.687500 0.125000
vt 0.656250 0.187500
vt 0.625000 0.250000
vt 0.656250 0.125000
vt 0.625000 0.187500
vt 0.593750 0.312500
vt 0.593750 0.250000
vt 0.562500 0.312500
vt 0.562500 0.250000
vt 0.562500 0.375000
vt 0.531250 0.312500
vt 0.531250 0.375000
vt 0.531250 0.437500
vt 0.500000 0.500000
vt 0.500000 0.437500
vt 0.500000 0.375000
vt 0.593750 0.187500
vt 0.625000 0.125000
vt 0.593750 0.125000
vt 0.718750 0.375000
vt 0.718750 0.312500
vt 0.687500 0.375000
vt 0.687500 0.437500
vt 0.656250 0.437500
vt 0.687500 0.500000
vt 0.656250 0.500000
vt 0.656250 0.562500
vt 0.625000 0.562500
vt 0.625000 0.500000
vt 0.625000 0.625000
vt 0.593750 0.625000
vt 0.593750 0.562500
vt 0.593750 0.687500
vt 0.562500 0.687500
vt 0.562500 0.625000
vt 0.593750 0.750000
vt 0.625000 0.750000
vt 0.593750 0.812500
vt 0.625000 0.812500
vt 0.593750 0.875000
vt 0.625000 0.937500
vt 0.625000 0.875000
vt 0.593750 0.937500
vt 0.609375 1.000000
vt 0.562500 0.937500
vt 0.578125 1.000000
vt 0.546875 1.000000
vt 0.656250 0.937500
vt 0.640625 1.000000
vt 0.687500 0.937500
vt 0.671875 1.000000
vt 0.687500 0.875000
vt 0.656250 0.875000
vt 0.687500 0.812500
vt 0.687500 0.750000
vt 0.656250 0.750000
vt 0.656250 0.812500
vt 0.687500 0.687500
vt 0.656250 0.687500
vt 0.718750 0.687500
vt 0.718750 0.625000
vt 0.687500 0.625000
vt 0.687500 0.562500
vt 0.656250 0.625000
vt 0.625000 0.687500
vt 0.703125 1.000000
vt 0.750000 0.375000
vt 0.312500 0.562500
vt 0.312500 0.500000
vt 0.281250 0.625000
vt 0.078125 1.000000
s 1
f 1/1 3/3 2/2
f 1/1 2/2 5/4
f 1/1 8/5 3/3
f 1/1 5/4 4/6
f 6/7 1/1 4/6
f 7/8 1/1 6/7
f 7/8 8/5 1/1
f 8/5 9/9 3/3
f 8/5 10/10 9/9
f 7/8 10/10 8/5
f 10/10 11/11 9/9
f 12/12 11/13 10/10
f 7/8 12/12 10/10
f 13/14 11/15 12/12
f 13/14 12/12 7/8
f 14/16 11/17 13/14
f 14/16 13/14 15/18
f 13/14 7/8 15/18
f 14/16 15/18 16/19
f 16/19 15/18 17/20
f 15/18 7/8 6/7
f 15/18 6/7 17/20
f 16/19 17/20 18/21
f 18/21 17/20 19/22
f 17/20 6/7 20/23
f 17/20 20/23 19/22
f 19/22 20/23 21/24
f 6/7 4/6 20/23
f 21/24 20/23 4/6
f 19/22 21/24 22/25
f 22/25 21/24 24/26
f 21/24 4/6 23/27
f 24/26 21/24 23/27
f 22/25 24/26 25/28
f 25/28 24/26 27/29
f 24/26 23/27 26/30
f 27/29 24/26 26/30
f 25/28 27/29 28/31
f 28/31 27/29 30/32
f 27/29 26/30 29/33
f 27/29 29/33 31/34
f 27/29 31/34 30/32
f 31/34 33/36 32/35
f 31/34 32/35 35/37
f 31/34 29/33 33/36
f 31/34 35/37 34/38
f 36/39 31/34 34/38
f 36/39 30/32 31/34
f 38/40 36/39 37/41
f 40/42 37/41 36/39
f 38/40 30/32 36/39
f 40/42 36/39 39/43
f 39/43 36/39 34/38
f 42/44 40/42 41/45
f 44/46 41/45 40/42
f 42/44 37/41 40/42
f 44/46 40/42 43/47
f 40/42 45/48 43/47
f 40/42 39/43 45/48
f 43/47 45/48 47/49
f 39/43 46/50 45/48
f 45/48 46/50 48/51
f 45/48 48/51 47/49
f 46/50 49/52 48/51
f 50/53 48/51 49/52
f 47/49 48/51 50/53
f 50/53 49/52 51/54
f 53/55 50/53 51/54
f 47/49 50/53 52/56
f 54/57 52/56 50/53
f 54/57 50/53 53/55
f 55/58 52/56 54/57
f 57/59 55/58 54/57
f 57/59 54/57 56/60
f 56/60 54/57 53/55
f 59/61 57/59 58/62
f 60/63 58/62 57/59
f 59/61 55/58 57/59
f 60/64 57/59 56/60
f 60/65 62/67 61/66
f 60/68 61/66 63/69
f 60/70 56/60 62/67
f 60/71 63/69 64/72
f 60/73 64/72 65/74
f 60/75 65/74 66/76
f 60/77 66/76 67/78
f 60/79 67/78 68/80
f 60/81 68/80 69/82
f 60/83 69/82 70/84
f 60/85 70/84 71/86
f 60/87 71/86 72/88
f 60/89 72/88 73/90
f 60/91 73/90 74/92
f 60/93 74/92 75/94
f 60/95 75/94 76/96
f 60/97 76/96 77/98
f 60/99 77/98 78/100
f 60/101 78/100 79/102
f 60/103 79/102 80/104
f 60/105 80/104 81/106
f 60/107 81/106 82/108
f 60/109 82/108 83/110
f 60/111 83/110 84/112
f 60/113 84/112 85/114
f 60/115 85/117 86/116
f 60/118 86/116 87/119
f 60/120 87/119 88/121
f 60/122 88/121 89/123
f 60/124 89/123 58/62
f 90/125 89/123 88/121
f 90/125 91/126 89/123
f 91/126 58/62 89/123
f 90/125 92/127 91/126
f 91/126 92/127 93/128
f 91/126 93/128 59/61
f 91/126 59/61 58/62
f 92/127 94/129 93/128
f 93/128 94/129 96/130
f 59/61 93/128 95/131
f 93/128 96/130 95/131
f 94/129 43/47 96/130
f 43/47 47/49 96/130
f 95/131 96/130 47/49
f 59/61 95/131 55/58
f 55/58 95/131 52/56
f 95/131 47/49 52/56
f 97/132 44/46 94/129
f 92/127 97/132 94/129
f 94/129 44/46 43/47
f 98/133 99/134 97/132
f 100/135 98/133 97/132
f 97/132 99/134 44/46
f 100/135 97/132 92/127
f 101/136 98/133 100/135
f 101/136 100/135 90/125
f 90/125 100/135 92/127
f 103/137 101/136 102/138
f 102/138 101/136 104/139
f 103/137 105/140 101/136
f 101/136 105/140 98/133
f 101/136 90/125 104/139
f 106/141 105/140 103/137
f 106/141 108/142 105/140
f 105/140 107/143 98/133
f 105/140 108/142 107/143
f 106/141 109/144 108/142
f 108/142 109/144 110/145
f 108/142 110/145 107/143
f 109/144 111/146 110/145
f 110/145 111/146 113/147
f 107/143 110/145 112/148
f 110/145 113/147 112/148
f 114/149 113/147 111/146
f 114/149 115/150 113/147
f 112/148 113/147 42/44
f 115/150 42/44 113/147
f 116/151 115/150 114/149
f 116/151 117/152 115/150
f 117/152 118/153 115/150
f 115/150 118/153 42/44
f 117/152 119/154 118/153
f 119/154 38/40 118/153
f 118/153 38/40 37/41
f 118/153 37/41 42/44
f 120/155 119/154 117/152
f 120/155 121/156 119/154
f 121/156 28/31 119/154
f 119/154 28/31 38/40
f 122/157 121/156 120/155
f 122/157 123/158 121/156
f 123/158 25/28 121/156
f 121/156 25/28 28/31
f 124/159 123/158 122/157
f 124/159 125/160 123/158
f 125/160 22/25 123/158
f 123/158 22/25 25/28
f 126/161 125/160 124/159
f 126/161 18/21 125/160
f 125/160 19/22 22/25
f 18/21 19/22 125/160
f 128/162 126/161 127/163
f 127/163 126/161 124/159
f 128/162 129/164 126/161
f 129/164 18/21 126/161
f 128/162 130/165 129/164
f 129/164 130/165 14/16
f 129/164 14/16 16/19
f 129/164 16/19 18/21
f 131/166 11/167 130/165
f 128/162 131/166 130/165
f 130/165 11/168 14/16
f 132/169 11/170 131/166
f 133/171 132/169 131/166
f 133/171 131/166 128/162
f 134/172 132/169 133/171
f 134/172 133/171 135/173
f 133/171 128/162 127/163
f 133/171 127/163 135/173
f 134/172 135/173 136/174
f 136/174 135/173 137/175
f 135/173 127/163 138/176
f 135/173 138/176 137/175
f 137/175 138/176 139/177
f 127/163 124/159 138/176
f 138/176 124/159 122/157
f 138/176 122/157 139/177
f 137/175 139/177 140/178
f 140/178 139/177 141/179
f 139/177 122/157 120/155
f 139/177 120/155 141/179
f 140/178 141/179 142/180
f 142/180 141/179 116/151
f 141/179 120/155 117/152
f 141/179 117/152 116/151
f 144/181 142/180 143/182
f 143/182 142/180 145/183
f 144/181 140/178 142/180
f 142/180 116/151 145/183
f 143/182 145/183 146/184
f 146/184 145/183 147/185
f 145/183 114/149 147/185
f 145/183 116/151 114/149
f 146/184 147/185 148/186
f 148/186 147/185 149/187
f 147/185 114/149 111/146
f 147/185 111/146 149/187
f 148/186 149/187 150/188
f 151/189 150/188 149/187
f 151/189 149/187 109/144
f 109/144 149/187 111/146
f 153/190 151/189 152/191
f 152/191 151/189 106/141
f 153/190 150/188 151/189
f 106/141 151/189 109/144
f 155/192 153/194 154/193
f 154/193 153/194 152/195
f 155/192 156/196 153/194
f 156/197 150/188 153/190
f 155/192 157/198 156/196
f 157/199 148/186 156/197
f 156/197 148/186 150/188
f 159/200 157/198 158/201
f 155/192 158/201 157/198
f 159/200 160/202 157/198
f 160/203 146/184 157/199
f 157/199 146/184 148/186
f 161/204 160/202 159/200
f 161/204 162/205 160/202
f 160/203 143/182 146/184
f 162/206 143/182 160/203
f 163/207 162/205 161/204
f 163/207 164/208 162/205
f 164/209 144/181 162/206
f 162/206 144/181 143/182
f 163/207 165/210 164/208
f 165/211 166/212 164/209
f 164/209 166/212 144/181
f 165/211 136/174 166/212
f 136/174 137/175 166/212
f 166/212 137/175 140/178
f 166/212 140/178 144/181
f 168/213 165/210 167/214
f 163/207 167/214 165/210
f 168/213 169/215 165/210
f 169/216 136/174 165/211
f 168/213 170/217 169/215
f 169/216 170/219 171/218
f 169/216 171/218 134/172
f 169/216 134/172 136/174
f 170/219 11/220 171/218
f 171/218 11/221 132/169
f 134/172 171/218 132/169
f 172/222 11/223 170/217
f 168/213 172/222 170/217
f 173/224 11/225 172/222
f 174/226 173/224 172/222
f 174/226 172/222 168/213
f 176/227 174/226 175/228
f 178/229 175/228 174/226
f 176/227 173/224 174/226
f 178/229 174/226 177/230
f 177/230 174/226 168/213
f 179/231 175/228 178/229
f 181/232 179/231 178/229
f 181/232 178/229 180/233
f 180/233 178/229 177/230
f 182/234 179/231 181/232
f 184/235 182/234 181/232
f 184/235 181/232 183/236
f 183/236 181/232 180/233
f 186/237 184/235 185/238
f 185/238 184/235 187/239
f 186/237 182/234 184/235
f 184/235 183/236 188/240
f 184/235 188/240 187/239
f 190/241 187/239 188/240
f 190/241 188/240 189/242
f 189/242 188/240 191/243
f 188/240 192/244 191/243
f 188/240 183/236 192/244
f 191/243 192/244 193/245
f 183/236 180/233 192/244
f 192/244 180/233 194/246
f 192/244 194/246 193/245
f 180/233 177/230 194/246
f 194/246 177/230 167/214
f 194/246 161/204 193/245
f 194/246 167/214 163/207
f 194/246 163/207 161/204
f 191/243 193/245 195/247
f 195/247 193/245 161/204
f 197/248 191/243 195/247
f 197/248 195/247 196/249
f 196/249 195/247 159/200
f 195/247 161/204 159/200
f 189/242 191/243 197/248
f 199/250 189/242 197/248
f 199/250 197/248 198/251
f 198/251 197/248 196/249
f 201/252 199/250 200/253
f 200/253 199/250 198/251
f 201/252 202/254 199/250
f 202/254 189/242 199/250
f 203/255 190/241 202/254
f 204/256 203/255 202/254
f 202/254 190/241 189/242
f 204/256 202/254 201/252
f 205/257 203/255 204/256
f 207/258 205/257 204/256
f 207/258 204/256 206/259
f 206/259 204/256 201/252
f 208/260 205/257 207/258
f 210/261 208/260 207/258
f 210/261 207/258 209/262
f 209/262 207/258 206/259
f 211/263 208/260 210/261
f 213/264 211/263 210/261
f 213/264 210/261 212/265
f 212/265 210/261 209/262
f 214/266 211/263 213/264
f 216/267 214/266 213/264
f 216/267 213/264 215/268
f 213/264 217/269 215/268
f 213/264 212/265 217/269
f 219/270 215/268 217/269
f 219/270 217/269 218/271
f 218/271 217/269 220/272
f 212/265 220/272 217/269
f 212/265 222/273 220/272
f 218/271 220/272 221/274
f 221/274 220/272 223/275
f 222/273 223/275 220/272
f 222/273 225/276 223/275
f 221/274 223/275 224/277
f 223/275 227/278 224/277
f 225/276 226/279 223/275
f 223/275 226/279 227/278
f 79/102 224/277 227/278
f 79/102 227/278 80/104
f 80/104 227/278 228/280
f 226/279 228/280 227/278
f 226/279 229/281 228/280
f 80/104 228/280 81/106
f 81/106 228/280 230/282
f 229/281 230/282 228/280
f 229/281 231/283 230/282
f 81/106 230/282 82/108
f 82/108 230/282 232/284
f 231/283 232/284 230/282
f 231/283 233/285 232/284
f 82/108 232/284 83/110
f 232/284 84/112 83/110
f 233/285 234/286 232/284
f 232/284 234/286 84/112
f 233/285 235/287 234/286
f 235/287 236/288 234/286
f 234/286 236/288 85/114
f 234/286 85/114 84/112
f 235/287 237/289 236/288
f 237/290 238/292 236/291
f 236/291 238/292 86/116
f 236/291 86/116 85/117
f 237/290 102/138 238/292
f 102/138 104/139 238/292
f 238/292 104/139 87/119
f 238/292 87/119 86/116
f 239/293 237/289 235/287
f 239/293 240/294 237/289
f 240/295 102/138 237/290
f 241/296 240/294 239/293
f 241/296 242/297 240/294
f 242/298 103/137 240/295
f 240/295 103/137 102/138
f 243/299 242/297 241/296
f 243/299 152/195 242/297
f 152/191 106/141 242/298
f 242/298 106/141 103/137
f 244/300 154/193 243/299
f 245/301 244/300 243/299
f 154/193 152/195 243/299
f 245/301 243/299 241/296
f 246/302 244/300 245/301
f 246/302 245/301 247/303
f 245/301 241/296 239/293
f 245/301 239/293 247/303
f 246/302 247/303 248/304
f 248/304 247/303 233/285
f 247/303 239/293 235/287
f 247/303 235/287 233/285
f 250/305 248/304 249/306
f 249/306 248/304 231/283
f 250/305 246/302 248/304
f 248/304 233/285 231/283
f 251/307 252/308 250/305
f 251/307 250/305 249/306
f 250/305 252/308 253/309
f 250/305 253/309 246/302
f 252/308 254/310 253/309
f 253/309 254/310 255/311
f 246/302 253/309 244/300
f 253/309 255/311 244/300
f 244/300 255/311 154/193
f 254/310 256/312 255/311
f 255/311 256/312 155/192
f 255/311 155/192 154/193
f 198/251 196/249 256/312
f 254/310 198/251 256/312
f 256/312 196/249 158/201
f 256/312 158/201 155/192
f 200/253 198/251 254/310
f 252/308 200/253 254/310
f 257/313 200/253 252/308
f 251/307 257/313 252/308
f 206/259 201/252 257/313
f 258/314 206/259 257/313
f 257/313 201/252 200/253
f 258/314 257/313 251/307
f 209/262 206/259 258/314
f 222/273 209/262 258/314
f 222/273 258/314 225/276
f 258/314 259/315 225/276
f 258/314 251/307 259/315
f 225/276 259/315 226/279
f 251/307 249/306 259/315
f 259/315 249/306 229/281
f 259/315 229/281 226/279
f 249/306 231/283 229/281
f 78/100 221/274 224/277
f 78/100 224/277 79/102
f 212/265 209/262 222/273
f 77/98 218/271 221/274
f 77/98 221/274 78/100
f 216/267 219/270 260/316
f 75/94 260/316 219/270
f 216/267 215/268 219/270
f 75/94 219/270 76/96
f 76/96 219/270 218/271
f 74/92 260/316 75/94
f 74/92 261/317 260/316
f 262/318 260/316 261/317
f 262/318 216/267 260/316
f 263/319 264/320 262/318
f 265/321 263/319 262/318
f 262/318 264/320 214/266
f 265/321 262/318 261/317
f 262/318 214/266 216/267
f 266/322 263/319 265/321
f 72/88 266/322 265/321
f 72/88 265/321 73/90
f 73/90 265/321 261/317
f 267/323 268/324 266/322
f 267/323 266/322 72/88
f 266/322 268/324 263/319
f 269/325 270/326 268/324
f 267/323 269/325 268/324
f 268/324 270/326 271/327
f 268/324 271/327 263/319
f 270/326 272/328 271/327
f 271/327 272/328 273/329
f 263/319 271/327 264/320
f 271/327 273/329 264/320
f 272/328 274/330 273/329
f 273/329 274/330 276/331
f 264/320 273/329 275/332
f 273/329 276/331 275/332
f 274/330 277/333 276/331
f 276/331 277/333 279/334
f 275/332 276/331 278/335
f 276/331 279/334 278/335
f 277/333 280/336 279/334
f 279/334 280/336 282/337
f 278/335 279/334 281/338
f 279/334 282/337 281/338
f 283/339 282/337 280/336
f 283/339 284/340 282/337
f 281/338 282/337 285/341
f 284/340 285/341 282/337
f 284/340 287/342 285/341
f 281/338 285/341 205/257
f 205/257 285/341 203/255
f 285/341 286/343 203/255
f 285/341 287/342 286/343
f 288/344 287/342 284/340
f 288/344 289/345 287/342
f 289/345 286/343 287/342
f 288/344 290/346 289/345
f 289/345 290/346 185/238
f 289/345 185/238 291/347
f 289/345 291/347 286/343
f 185/238 187/239 291/347
f 286/343 291/347 187/239
f 292/348 293/349 290/346
f 288/344 292/348 290/346
f 290/346 293/349 186/237
f 290/346 186/237 185/238
f 292/348 294/350 293/349
f 294/350 295/351 293/349
f 293/349 295/351 296/352
f 293/349 296/352 186/237
f 295/351 297/353 296/352
f 296/352 297/353 299/354
f 186/237 296/352 298/355
f 296/352 299/354 298/355
f 300/356 299/354 297/353
f 300/356 301/357 299/354
f 298/355 299/354 302/358
f 301/357 302/358 299/354
f 301/357 303/359 302/358
f 298/355 302/358 179/231
f 179/231 302/358 175/228
f 303/359 175/228 302/358
f 301/357 11/360 303/359
f 303/359 11/361 176/227
f 303/359 176/227 175/228
f 300/356 11/362 301/357
f 304/363 11/364 300/356
f 305/365 304/363 300/356
f 305/365 300/356 297/353
f 306/366 304/363 305/365
f 307/367 306/366 305/365
f 307/367 305/365 295/351
f 295/351 305/365 297/353
f 308/368 306/366 307/367
f 309/369 308/368 307/367
f 309/369 307/367 294/350
f 294/350 307/367 295/351
f 310/370 308/368 309/369
f 312/371 310/370 309/369
f 312/371 309/369 311/372
f 311/372 309/369 294/350
f 313/373 310/370 312/371
f 315/374 313/373 312/371
f 315/374 312/371 314/375
f 314/375 312/371 311/372
f 317/376 315/374 316/377
f 319/378 316/377 315/374
f 317/376 313/373 315/374
f 319/378 315/374 318/379
f 318/379 315/374 314/375
f 320/380 316/377 319/378
f 320/380 319/378 321/381
f 321/381 319/378 318/379
f 320/380 321/381 322/382
f 324/383 322/382 321/381
f 324/383 321/381 323/384
f 321/381 326/385 323/384
f 321/381 318/379 325/386
f 321/381 325/386 326/385
f 327/387 323/384 326/385
f 327/387 326/385 274/330
f 274/330 326/385 277/333
f 325/386 277/333 326/385
f 328/388 323/384 327/387
f 329/389 328/388 327/387
f 329/389 327/387 272/328
f 272/328 327/387 274/330
f 330/390 328/388 329/389
f 331/391 330/390 329/389
f 331/391 329/389 270/326
f 270/326 329/389 272/328
f 332/392 330/390 331/391
f 333/393 332/392 331/391
f 333/393 331/391 269/325
f 269/325 331/391 270/326
f 334/394 332/392 333/393
f 336/395 334/394 333/393
f 336/395 333/393 335/396
f 335/396 333/393 269/325
f 337/397 334/394 336/395
f 337/397 336/395 69/82
f 336/395 335/396 70/84
f 336/395 70/84 69/82
f 338/398 339/399 337/397
f 338/398 337/397 68/80
f 337/397 339/399 334/394
f 337/397 69/82 68/80
f 340/400 341/401 339/399
f 338/398 340/400 339/399
f 339/399 341/401 342/402
f 339/399 342/402 334/394
f 334/394 342/402 332/392
f 341/401 343/403 342/402
f 342/402 343/403 344/404
f 342/402 344/404 332/392
f 343/403 345/405 344/404
f 344/404 345/405 346/406
f 332/392 344/404 330/390
f 344/404 346/406 330/390
f 345/405 347/407 346/406
f 346/406 347/407 324/383
f 330/390 346/406 328/388
f 346/406 324/383 328/388
f 348/408 349/409 347/407
f 345/405 348/408 347/407
f 347/407 349/409 322/382
f 347/407 322/382 324/383
f 350/410 351/411 349/409
f 348/408 350/410 349/409
f 351/411 322/382 349/409
f 353/412 351/411 352/413
f 350/410 352/413 351/411
f 353/412 354/414 351/411
f 354/414 320/380 351/411
f 351/411 320/380 322/382
f 355/415 354/414 353/412
f 355/415 356/416 354/414
f 356/416 357/417 354/414
f 354/414 357/417 320/380
f 356/416 358/418 357/417
f 357/417 317/376 316/377
f 320/380 357/417 316/377
f 357/417 358/418 317/376
f 359/419 358/418 356/416
f 359/419 360/420 358/418
f 360/420 317/376 358/418
f 361/421 360/420 359/419
f 361/421 362/422 360/420
f 362/422 363/423 360/420
f 360/420 363/423 317/376
f 362/422 364/424 363/423
f 364/424 365/425 363/423
f 363/423 365/425 313/373
f 363/423 313/373 317/376
f 364/424 367/426 365/425
f 365/425 366/427 310/370
f 313/373 365/425 310/370
f 365/425 367/426 366/427
f 368/428 367/426 364/424
f 368/428 370/429 367/426
f 367/426 369/430 366/427
f 367/426 370/429 369/430
f 368/428 371/431 370/429
f 370/429 371/431 372/432
f 370/429 372/432 369/430
f 371/431 11/433 372/432
f 372/432 11/435 373/434
f 369/430 372/432 373/434
f 373/434 11/437 375/436
f 369/430 373/434 374/438
f 374/438 373/434 375/436
f 375/436 11/439 304/363
f 374/438 375/436 306/366
f 306/366 375/436 304/363
f 366/427 369/430 374/438
f 366/427 374/438 308/368
f 308/368 374/438 306/366
f 376/440 11/441 371/431
f 368/428 376/440 371/431
f 377/442 11/443 376/440
f 378/444 377/442 376/440
f 378/444 376/440 368/428
f 379/445 377/442 378/444
f 379/445 378/444 362/422
f 378/444 368/428 364/424
f 378/444 364/424 362/422
f 380/446 381/447 379/445
f 380/446 379/445 361/421
f 379/445 381/447 377/442
f 379/445 362/422 361/421
f 382/448 11/449 381/447
f 380/446 382/448 381/447
f 381/447 11/450 377/442
f 383/451 382/448 380/446
f 383/451 384/452 382/448
f 384/452 11/453 382/448
f 385/454 11/455 384/452
f 386/456 385/454 384/452
f 386/456 384/452 383/451
f 387/457 385/454 386/456
f 387/457 386/456 388/458
f 388/458 386/456 383/451
f 387/457 388/458 389/459
f 391/460 389/459 388/458
f 391/460 388/458 390/461
f 390/461 388/458 392/462
f 388/458 383/451 392/462
f 392/462 383/451 380/446
f 390/461 392/462 393/463
f 393/463 392/462 394/464
f 392/462 380/446 394/464
f 380/446 361/421 394/464
f 393/463 394/464 395/465
f 395/465 394/464 361/421
f 393/463 395/465 355/415
f 395/465 361/421 359/419
f 395/465 359/419 356/416
f 395/465 356/416 355/415
f 390/461 393/463 396/466
f 393/463 355/415 396/466
f 390/461 396/466 397/467
f 397/467 396/466 398/468
f 396/466 355/415 353/412
f 396/466 353/412 398/468
f 397/467 398/468 399/469
f 401/470 399/469 398/468
f 401/470 398/468 400/471
f 398/468 352/413 400/471
f 398/468 353/412 352/413
f 402/472 399/469 401/470
f 404/473 402/472 401/470
f 404/473 401/470 403/474
f 403/474 401/470 400/471
f 405/475 402/472 404/473
f 407/476 405/475 404/473
f 407/476 404/473 406/477
f 406/477 404/473 403/474
f 408/478 405/475 407/476
f 410/479 408/478 407/476
f 410/479 407/476 409/480
f 409/480 407/476 406/477
f 411/481 408/478 410/479
f 413/482 411/481 410/479
f 413/482 410/479 412/483
f 412/483 410/479 409/480
f 414/484 411/481 413/482
f 416/485 414/484 413/482
f 416/485 413/482 415/486
f 415/486 413/482 412/483
f 49/52 414/484 416/485
f 51/54 49/52 416/485
f 51/54 416/485 417/487
f 417/487 416/485 415/486
f 419/488 51/54 417/487
f 419/488 417/487 418/489
f 418/489 417/487 420/490
f 417/487 415/486 420/490
f 420/490 415/486 423/491
f 418/489 420/490 421/492
f 421/492 420/490 422/493
f 420/490 423/491 422/493
f 415/486 412/483 423/491
f 423/491 412/483 425/494
f 422/493 423/491 424/495
f 423/491 425/494 424/495
f 412/483 409/480 425/494
f 409/480 427/496 425/494
f 425/494 426/497 424/495
f 425/494 427/496 426/497
f 409/480 430/498 427/496
f 427/496 429/500 428/499
f 426/497 427/496 428/499
f 427/496 430/498 429/500
f 409/480 406/477 430/498
f 430/498 406/477 431/501
f 430/498 431/501 429/500
f 406/477 403/474 431/501
f 431/501 403/474 433/502
f 429/500 431/501 432/503
f 431/501 433/502 432/503
f 403/474 400/471 433/502
f 433/502 400/471 352/413
f 432/503 433/502 350/410
f 433/502 352/413 350/410
f 429/500 432/503 434/504
f 434/504 432/503 348/408
f 432/503 350/410 348/408
f 428/499 429/500 434/504
f 428/499 434/504 343/403
f 343/403 434/504 345/405
f 434/504 348/408 345/405
f 426/497 428/499 341/401
f 341/401 428/499 343/403
f 424/495 426/497 340/400
f 340/400 426/497 341/401
f 422/493 424/495 435/505
f 424/495 340/400 435/505
f 437/506 422/493 435/505
f 437/506 435/505 436/507
f 436/507 435/505 340/400
f 421/492 422/493 437/506
f 64/72 421/492 437/506
f 64/72 437/506 65/74
f 437/506 66/76 65/74
f 437/506 436/507 66/76
f 436/507 340/400 338/398
f 436/507 338/398 67/78
f 436/507 67/78 66/76
f 418/489 421/492 64/72
f 53/55 51/54 419/488
f 62/67 53/55 419/488
f 62/67 419/488 61/66
f 61/66 419/488 418/489
f 61/66 418/489 63/69
f 418/489 64/72 63/69
f 439/508 414/484 438/509
f 49/52 438/509 414/484
f 439/508 440/510 414/484
f 414/484 440/510 411/481
f 35/37 440/510 439/508
f 35/37 442/511 440/510
f 440/510 441/512 411/481
f 440/510 442/511 441/512
f 35/37 443/513 442/511
f 442/511 443/513 444/514
f 442/511 444/514 441/512
f 443/513 445/515 444/514
f 444/514 445/515 447/516
f 441/512 444/514 446/517
f 444/514 447/516 446/517
f 445/515 448/518 447/516
f 447/516 448/518 450/519
f 446/517 447/516 449/520
f 447/516 450/519 449/520
f 448/518 451/521 450/519
f 450/519 451/521 453/522
f 449/520 450/519 452/523
f 450/519 453/522 452/523
f 454/524 453/522 451/521
f 454/524 391/460 453/522
f 452/523 453/522 397/467
f 453/522 390/461 397/467
f 453/522 391/460 390/461
f 455/525 456/526 454/524
f 455/525 454/524 451/521
f 456/526 391/460 454/524
f 457/527 458/528 456/526
f 455/525 457/527 456/526
f 458/528 389/459 456/526
f 456/526 389/459 391/460
f 460/529 458/528 459/530
f 457/527 459/530 458/528
f 460/529 461/531 458/528
f 461/531 387/457 458/528
f 458/528 387/457 389/459
f 460/529 11/532 461/531
f 461/531 11/534 462/533
f 461/531 462/533 387/457
f 462/533 11/535 385/454
f 387/457 462/533 385/454
f 463/536 11/537 460/529
f 463/536 460/529 459/530
f 464/538 11/539 463/536
f 466/540 464/538 463/536
f 466/540 463/536 465/541
f 463/536 459/530 465/541
f 3/3 464/538 466/540
f 3/3 466/540 467/542
f 467/542 466/540 465/541
f 5/4 467/542 468/543
f 467/542 470/544 468/543
f 5/4 2/2 467/542
f 3/3 467/542 2/2
f 467/542 465/541 469/545
f 467/542 469/545 470/544
f 472/546 468/543 470/544
f 472/546 470/544 471/547
f 471/547 470/544 455/525
f 469/545 455/525 470/544
f 473/548 468/543 472/546
f 475/549 473/548 472/546
f 475/549 472/546 474/550
f 474/550 472/546 471/547
f 26/30 473/548 475/549
f 29/33 26/30 475/549
f 29/33 475/549 33/36
f 33/36 475/549 474/550
f 33/36 474/550 476/551
f 476/551 474/550 477/552
f 474/550 471/547 477/552
f 477/552 471/547 478/553
f 476/551 477/552 445/515
f 445/515 477/552 448/518
f 477/552 478/553 448/518
f 471/547 455/525 478/553
f 455/525 451/521 478/553
f 448/518 478/553 451/521
f 32/35 33/36 476/551
f 32/35 476/551 443/513
f 443/513 476/551 445/515
f 23/27 5/4 473/548
f 26/30 23/27 473/548
f 473/548 5/4 468/543
f 465/541 457/527 469/545
f 469/545 457/527 455/525
f 465/541 459/530 457/527
f 9/9 11/554 464/538
f 3/3 9/9 464/538
f 449/520 452/523 402/472
f 402/472 452/523 399/469
f 452/523 397/467 399/469
f 446/517 449/520 405/475
f 405/475 449/520 402/472
f 441/512 446/517 408/478
f 408/478 446/517 405/475
f 35/37 32/35 443/513
f 411/481 441/512 408/478
f 34/38 439/508 479/555
f 479/555 439/508 438/509
f 34/38 35/37 439/508
f 39/43 34/38 479/555
f 479/555 438/509 46/50
f 39/43 479/555 46/50
f 46/50 438/509 49/52
f 310/370 366/427 308/368
f 338/398 68/80 67/78
f 335/396 269/325 267/323
f 335/396 267/323 71/86
f 335/396 71/86 70/84
f 328/388 324/383 323/384
f 325/386 318/379 481/556
f 325/386 481/556 480/557
f 325/386 480/557 277/333
f 318/379 314/375 481/556
f 481/556 314/375 482/558
f 481/556 280/336 480/557
f 481/556 482/558 283/339
f 481/556 283/339 280/336
f 314/375 311/372 482/558
f 482/558 311/372 292/348
f 482/558 284/340 283/339
f 482/558 292/348 288/344
f 482/558 288/344 284/340
f 277/333 480/557 280/336
f 311/372 294/350 292/348
f 186/237 298/355 182/234
f 182/234 298/355 179/231
f 203/255 286/343 190/241
f 286/343 187/239 190/241
f 278/335 281/338 208/260
f 208/260 281/338 205/257
f 275/332 278/335 211/263
f 211/263 278/335 208/260
f 264/320 275/332 214/266
f 214/266 275/332 211/263
f 267/323 72/88 71/86
f 73/90 261/317 74/92
f 76/96 218/271 77/98
f 196/249 159/200 158/201
f 177/230 168/213 167/214
f 176/227 11/559 173/224
f 107/143 112/148 99/134
f 99/134 112/148 41/45
f 112/148 42/44 41/45
f 98/133 107/143 99/134
f 104/139 88/121 87/119
f 104/139 90/125 88/121
f 99/134 41/45 44/46
f 56/60 53/55 62/67
f 28/31 30/32 38/40
f 23/27 4/6 5/4
f 483/1 485/3 484/2
f 483/1 484/2 487/4
f 483/1 490/5 485/3
f 483/1 487/4 486/6
f 488/7 483/1 486/6
f 489/8 483/1 488/7
f 489/8 490/5 483/1
f 490/5 491/9 485/3
f 490/5 492/10 491/9
f 489/8 492/10 490/5
f 492/10 493/11 491/9
f 494/12 493/13 492/10
f 489/8 494/12 492/10
f 495/14 493/15 494/12
f 495/14 494/12 489/8
f 496/16 493/17 495/14
f 496/16 495/14 497/18
f 495/14 489/8 497/18
f 496/16 497/18 498/19
f 498/19 497/18 499/20
f 497/18 489/8 488/7
f 497/18 488/7 499/20
f 498/19 499/20 500/21
f 500/21 499/20 501/22
f 499/20 488/7 502/23
f 499/20 502/23 501/22
f 501/22 502/23 503/24
f 488/7 486/6 502/23
f 503/24 502/23 486/6
f 501/22 503/24 504/25
f 504/25 503/24 506/26
f 503/24 486/6 505/27
f 506/26 503/24 505/27
f 504/25 506/26 507/28
f 507/28 506/26 509/29
f 506/26 505/27 508/30
f 509/29 506/26 508/30
f 507/28 509/29 510/31
f 510/31 509/29 512/32
f 509/29 508/30 511/33
f 509/29 511/33 513/34
f 509/29 513/34 512/32
f 513/34 515/36 514/35
f 513/34 514/35 517/37
f 513/34 511/33 515/36
f 513/34 517/37 516/38
f 518/39 513/34 516/38
f 518/39 512/32 513/34
f 520/40 518/39 519/41
f 522/42 519/41 518/39
f 520/40 512/32 518/39
f 522/42 518/39 521/43
f 521/43 518/39 516/38
f 524/44 522/42 523/45
f 526/46 523/45 522/42
f 524/44 519/41 522/42
f 526/46 522/42 525/47
f 522/42 527/48 525/47
f 522/42 521/43 527/48
f 525/47 527/48 529/49
f 521/43 528/50 527/48
f 527/48 528/50 530/51
f 527/48 530/51 529/49
f 528/50 531/52 530/51
f 532/53 530/51 531/52
f 529/49 530/51 532/53
f 532/53 531/52 533/54
f 535/55 532/53 533/54
f 529/49 532/53 534/56
f 536/57 534/56 532/53
f 536/57 532/53 535/55
f 537/58 534/56 536/57
f 539/59 537/58 536/57
f 539/59 536/57 538/60
f 538/60 536/57 535/55
f 541/61 539/59 540/62
f 542/63 540/62 539/59
f 541/61 537/58 539/59
f 542/64 539/59 538/60
f 542/65 544/67 543/66
f 542/68 543/66 545/69
f 542/70 538/60 544/67
f 542/71 545/69 546/72
f 542/73 546/72 547/74
f 542/75 547/74 548/76
f 542/77 548/76 549/78
f 542/79 549/78 550/80
f 542/81 550/80 551/82
f 542/83 551/82 552/84
f 542/85 552/84 553/86
f 542/87 553/86 554/88
f 542/89 554/88 555/90
f 542/91 555/90 556/92
f 542/93 556/92 557/94
f 542/95 557/94 558/96
f 542/97 558/96 559/98
f 542/99 559/98 560/100
f 542/101 560/100 561/102
f 542/103 561/102 562/104
f 542/105 562/104 563/106
f 542/107 563/106 564/108
f 542/109 564/108 565/110
f 542/111 565/110 566/112
f 542/113 566/112 567/114
f 542/115 567/117 568/116
f 542/118 568/116 569/119
f 542/120 569/119 570/121
f 542/122 570/121 571/123
f 542/124 571/123 540/62
f 572/125 571/123 570/121
f 572/125 573/126 571/123
f 573/126 540/62 571/123
f 572/125 574/127 573/126
f 573/126 574/127 575/128
f 573/126 575/128 541/61
f 573/126 541/61 540/62
f 574/127 576/129 575/128
f 575/128 576/129 578/130
f 541/61 575/128 577/131
f 575/128 578/130 577/131
f 576/129 525/47 578/130
f 525/47 529/49 578/130
f 577/131 578/130 529/49
f 541/61 577/131 537/58
f 537/58 577/131 534/56
f 577/131 529/49 534/56
f 579/132 526/46 576/129
f 574/127 579/132 576/129
f 576/129 526/46 525/47
f 580/133 581/134 579/132
f 582/135 580/133 579/132
f 579/132 581/134 526/46
f 582/135 579/132 574/127
f 583/136 580/133 582/135
f 583/136 582/135 572/125
f 572/125 582/135 574/127
f 585/137 583/136 584/138
f 584/138 583/136 586/139
f 585/137 587/140 583/136
f 583/136 587/140 580/133
f 583/136 572/125 586/139
f 588/141 587/140 585/137
f 588/141 590/142 587/140
f 587/140 589/143 580/133
f 587/140 590/142 589/143
f 588/141 591/144 590/142
f 590/142 591/144 592/145
f 590/142 592/145 589/143
f 591/144 593/146 592/145
f 592/145 593/146 595/147
f 589/143 592/145 594/148
f 592/145 595/147 594/148
f 596/149 595/147 593/146
f 596/149 597/150 595/147
f 594/148 595/147 524/44
f 597/150 524/44 595/147
f 598/151 597/150 596/149
f 598/151 599/152 597/150
f 599/152 600/153 597/150
f 597/150 600/153 524/44
f 599/152 601/154 600/153
f 601/154 520/40 600/153
f 600/153 520/40 519/41
f 600/153 519/41 524/44
f 602/155 601/154 599/152
f 602/155 603/156 601/154
f 603/156 510/31 601/154
f 601/154 510/31 520/40
f 604/157 603/156 602/155
f 604/157 605/158 603/156
f 605/158 507/28 603/156
f 603/156 507/28 510/31
f 606/159 605/158 604/157
f 606/159 607/160 605/158
f 607/160 504/25 605/158
f 605/158 504/25 507/28
f 608/161 607/160 606/159
f 608/161 500/21 607/160
f 607/160 501/22 504/25
f 500/21 501/22 607/160
f 610/162 608/161 609/163
f 609/163 608/161 606/159
f 610/162 611/164 608/161
f 611/164 500/21 608/161
f 610/162 612/165 611/164
f 611/164 612/165 496/16
f 611/164 496/16 498/19
f 611/164 498/19 500/21
f 613/166 493/167 612/165
f 610/162 613/166 612/165
f 612/165 493/168 496/16
f 614/169 493/170 613/166
f 615/171 614/169 613/166
f 615/171 613/166 610/162
f 616/172 614/169 615/171
f 616/172 615/171 617/173
f 615/171 610/162 609/163
f 615/171 609/163 617/173
f 616/172 617/173 618/174
f 618/174 617/173 619/175
f 617/173 609/163 620/176
f 617/173 620/176 619/175
f 619/175 620/176 621/177
f 609/163 606/159 620/176
f 620/176 606/159 604/157
f 620/176 604/157 621/177
f 619/175 621/177 622/178
f 622/178 621/177 623/179
f 621/177 604/157 602/155
f 621/177 602/155 623/179
f 622/178 623/179 624/180
f 624/180 623/179 598/151
f 623/179 602/155 599/152
f 623/179 599/152 598/151
f 626/181 624/180 625/182
f 625/182 624/180 627/183
f 626/181 622/178 624/180
f 624/180 598/151 627/183
f 625/182 627/183 628/184
f 628/184 627/183 629/185
f 627/183 596/149 629/185
f 627/183 598/151 596/149
f 628/184 629/185 630/186
f 630/186 629/185 631/187
f 629/185 596/149 593/146
f 629/185 593/146 631/187
f 630/186 631/187 632/188
f 633/189 632/188 631/187
f 633/189 631/187 591/144
f 591/144 631/187 593/146
f 635/190 633/189 634/191
f 634/191 633/189 588/141
f 635/190 632/188 633/189
f 588/141 633/189 591/144
f 637/192 635/194 636/193
f 636/193 635/194 634/195
f 637/192 638/196 635/194
f 638/197 632/188 635/190
f 637/192 639/198 638/196
f 639/199 630/186 638/197
f 638/197 630/186 632/188
f 641/200 639/198 640/201
f 637/192 640/201 639/198
f 641/200 642/202 639/198
f 642/203 628/184 639/199
f 639/199 628/184 630/186
f 643/204 642/202 641/200
f 643/204 644/205 642/202
f 642/203 625/182 628/184
f 644/206 625/182 642/203
f 645/207 644/205 643/204
f 645/207 646/208 644/205
f 646/209 626/181 644/206
f 644/206 626/181 625/182
f 645/207 647/210 646/208
f 647/211 648/212 646/209
f 646/209 648/212 626/181
f 647/211 618/174 648/212
f 618/174 619/175 648/212
f 648/212 619/175 622/178
f 648/212 622/178 626/181
f 650/213 647/210 649/214
f 645/207 649/214 647/210
f 650/213 651/215 647/210
f 651/216 618/174 647/211
f 650/213 652/217 651/215
f 651/216 652/219 653/218
f 651/216 653/218 616/172
f 651/216 616/172 618/174
f 652/219 493/220 653/218
f 653/218 493/221 614/169
f 616/172 653/218 614/169
f 654/222 493/223 652/217
f 650/213 654/222 652/217
f 655/224 493/225 654/222
f 656/226 655/224 654/222
f 656/226 654/222 650/213
f 658/227 656/226 657/228
f 660/229 657/228 656/226
f 658/227 655/224 656/226
f 660/229 656/226 659/230
f 659/230 656/226 650/213
f 661/231 657/228 660/229
f 663/232 661/231 660/229
f 663/232 660/229 662/233
f 662/233 660/229 659/230
f 664/234 661/231 663/232
f 666/235 664/234 663/232
f 666/235 663/232 665/236
f 665/236 663/232 662/233
f 668/237 666/235 667/238
f 667/238 666/235 669/239
f 668/237 664/234 666/235
f 666/235 665/236 670/240
f 666/235 670/240 669/239
f 672/241 669/239 670/240
f 672/241 670/240 671/242
f 671/242 670/240 673/243
f 670/240 674/244 673/243
f 670/240 665/236 674/244
f 673/243 674/244 675/245
f 665/236 662/233 674/244
f 674/244 662/233 676/246
f 674/244 676/246 675/245
f 662/233 659/230 676/246
f 676/246 659/230 649/214
f 676/246 643/204 675/245
f 676/246 649/214 645/207
f 676/246 645/207 643/204
f 673/243 675/245 677/247
f 677/247 675/245 643/204
f 679/248 673/243 677/247
f 679/248 677/247 678/249
f 678/249 677/247 641/200
f 677/247 643/204 641/200
f 671/242 673/243 679/248
f 681/250 671/242 679/248
f 681/250 679/248 680/251
f 680/251 679/248 678/249
f 683/252 681/250 682/253
f 682/253 681/250 680/251
f 683/252 684/254 681/250
f 684/254 671/242 681/250
f 685/255 672/241 684/254
f 686/256 685/255 684/254
f 684/254 672/241 671/242
f 686/256 684/254 683/252
f 687/257 685/255 686/256
f 689/258 687/257 686/256
f 689/258 686/256 688/259
f 688/259 686/256 683/252
f 690/260 687/257 689/258
f 692/261 690/260 689/258
f 692/261 689/258 691/262
f 691/262 689/258 688/259
f 693/263 690/260 692/261
f 695/264 693/263 692/261
f 695/264 692/261 694/265
f 694/265 692/261 691/262
f 696/266 693/263 695/264
f 698/267 696/266 695/264
f 698/267 695/264 697/268
f 695/264 699/269 697/268
f 695/264 694/265 699/269
f 701/270 697/268 699/269
f 701/270 699/269 700/271
f 700/271 699/269 702/272
f 694/265 702/272 699/269
f 694/265 704/273 702/272
f 700/271 702/272 703/274
f 703/274 702/272 705/275
f 704/273 705/275 702/272
f 704/273 707/276 705/275
f 703/274 705/275 706/277
f 705/275 709/278 706/277
f 707/276 708/279 705/275
f 705/275 708/279 709/278
f 561/102 706/277 709/278
f 561/102 709/278 562/104
f 562/104 709/278 710/280
f 708/279 710/280 709/278
f 708/279 711/281 710/280
f 562/104 710/280 563/106
f 563/106 710/280 712/282
f 711/281 712/282 710/280
f 711/281 713/283 712/282
f 563/106 712/282 564/108
f 564/108 712/282 714/284
f 713/283 714/284 712/282
f 713/283 715/285 714/284
f 564/108 714/284 565/110
f 714/284 566/112 565/110
f 715/285 716/286 714/284
f 714/284 716/286 566/112
f 715/285 717/287 716/286
f 717/287 718/288 716/286
f 716/286 718/288 567/114
f 716/286 567/114 566/112
f 717/287 719/289 718/288
f 719/290 720/292 718/291
f 718/291 720/292 568/116
f 718/291 568/116 567/117
f 719/290 584/138 720/292
f 584/138 586/139 720/292
f 720/292 586/139 569/119
f 720/292 569/119 568/116
f 721/293 719/289 717/287
f 721/293 722/294 719/289
f 722/295 584/138 719/290
f 723/296 722/294 721/293
f 723/296 724/297 722/294
f 724/298 585/137 722/295
f 722/295 585/137 584/138
f 725/299 724/297 723/296
f 725/299 634/195 724/297
f 634/191 588/141 724/298
f 724/298 588/141 585/137
f 726/300 636/193 725/299
f 727/301 726/300 725/299
f 636/193 634/195 725/299
f 727/301 725/299 723/296
f 728/302 726/300 727/301
f 728/302 727/301 729/303
f 727/301 723/296 721/293
f 727/301 721/293 729/303
f 728/302 729/303 730/304
f 730/304 729/303 715/285
f 729/303 721/293 717/287
f 729/303 717/287 715/285
f 732/305 730/304 731/306
f 731/306 730/304 713/283
f 732/305 728/302 730/304
f 730/304 715/285 713/283
f 733/307 734/308 732/305
f 733/307 732/305 731/306
f 732/305 734/308 735/309
f 732/305 735/309 728/302
f 734/308 736/310 735/309
f 735/309 736/310 737/311
f 728/302 735/309 726/300
f 735/309 737/311 726/300
f 726/300 737/311 636/193
f 736/310 738/312 737/311
f 737/311 738/312 637/192
f 737/311 637/192 636/193
f 680/251 678/249 738/312
f 736/310 680/251 738/312
f 738/312 678/249 640/201
f 738/312 640/201 637/192
f 682/253 680/251 736/310
f 734/308 682/253 736/310
f 739/313 682/253 734/308
f 733/307 739/313 734/308
f 688/259 683/252 739/313
f 740/314 688/259 739/313
f 739/313 683/252 682/253
f 740/314 739/313 733/307
f 691/262 688/259 740/314
f 704/273 691/262 740/314
f 704/273 740/314 707/276
f 740/314 741/315 707/276
f 740/314 733/307 741/315
f 707/276 741/315 708/279
f 733/307 731/306 741/315
f 741/315 731/306 711/281
f 741/315 711/281 708/279
f 731/306 713/283 711/281
f 560/100 703/274 706/277
f 560/100 706/277 561/102
f 694/265 691/262 704/273
f 559/98 700/271 703/274
f 559/98 703/274 560/100
f 698/267 701/270 742/316
f 557/94 742/316 701/270
f 698/267 697/268 701/270
f 557/94 701/270 558/96
f 558/96 701/270 700/271
f 556/92 742/316 557/94
f 556/92 743/317 742/316
f 744/318 742/316 743/317
f 744/318 698/267 742/316
f 745/319 746/320 744/318
f 747/321 745/319 744/318
f 744/318 746/320 696/266
f 747/321 744/318 743/317
f 744/318 696/266 698/267
f 748/322 745/319 747/321
f 554/88 748/322 747/321
f 554/88 747/321 555/90
f 555/90 747/321 743/317
f 749/323 750/324 748/322
f 749/323 748/322 554/88
f 748/322 750/324 745/319
f 751/325 752/326 750/324
f 749/323 751/325 750/324
f 750/324 752/326 753/327
f 750/324 753/327 745/319
f 752/326 754/328 753/327
f 753/327 754/328 755/329
f 745/319 753/327 746/320
f 753/327 755/329 746/320
f 754/328 756/330 755/329
f 755/329 756/330 758/331
f 746/320 755/329 757/332
f 755/329 758/331 757/332
f 756/330 759/333 758/331
f 758/331 759/333 761/334
f 757/332 758/331 760/335
f 758/331 761/334 760/335
f 759/333 762/336 761/334
f 761/334 762/336 764/337
f 760/335 761/334 763/338
f 761/334 764/337 763/338
f 765/339 764/337 762/336
f 765/339 766/340 764/337
f 763/338 764/337 767/341
f 766/340 767/341 764/337
f 766/340 769/342 767/341
f 763/338 767/341 687/257
f 687/257 767/341 685/255
f 767/341 768/343 685/255
f 767/341 769/342 768/343
f 770/344 769/342 766/340
f 770/344 771/345 769/342
f 771/345 768/343 769/342
f 770/344 772/346 771/345
f 771/345 772/346 667/238
f 771/345 667/238 773/347
f 771/345 773/347 768/343
f 667/238 669/239 773/347
f 768/343 773/347 669/239
f 774/348 775/349 772/346
f 770/344 774/348 772/346
f 772/346 775/349 668/237
f 772/346 668/237 667/238
f 774/348 776/350 775/349
f 776/350 777/351 775/349
f 775/349 777/351 778/352
f 775/349 778/352 668/237
f 777/351 779/353 778/352
f 778/352 779/353 781/354
f 668/237 778/352 780/355
f 778/352 781/354 780/355
f 782/356 781/354 779/353
f 782/356 783/357 781/354
f 780/355 781/354 784/358
f 783/357 784/358 781/354
f 783/357 785/359 784/358
f 780/355 784/358 661/231
f 661/231 784/358 657/228
f 785/359 657/228 784/358
f 783/357 493/360 785/359
f 785/359 493/361 658/227
f 785/359 658/227 657/228
f 782/356 493/362 783/357
f 786/363 493/364 782/356
f 787/365 786/363 782/356
f 787/365 782/356 779/353
f 788/366 786/363 787/365
f 789/367 788/366 787/365
f 789/367 787/365 777/351
f 777/351 787/365 779/353
f 790/368 788/366 789/367
f 791/369 790/368 789/367
f 791/369 789/367 776/350
f 776/350 789/367 777/351
f 792/370 790/368 791/369
f 794/371 792/370 791/369
f 794/371 791/369 793/372
f 793/372 791/369 776/350
f 795/373 792/370 794/371
f 797/374 795/373 794/371
f 797/374 794/371 796/375
f 796/375 794/371 793/372
f 799/376 797/374 798/377
f 801/378 798/377 797/374
f 799/376 795/373 797/374
f 801/378 797/374 800/379
f 800/379 797/374 796/375
f 802/380 798/377 801/378
f 802/380 801/378 803/381
f 803/381 801/378 800/379
f 802/380 803/381 804/382
f 806/383 804/382 803/381
f 806/383 803/381 805/384
f 803/381 808/385 805/384
f 803/381 800/379 807/386
f 803/381 807/386 808/385
f 809/387 805/384 808/385
f 809/387 808/385 756/330
f 756/330 808/385 759/333
f 807/386 759/333 808/385
f 810/388 805/384 809/387
f 811/389 810/388 809/387
f 811/389 809/387 754/328
f 754/328 809/387 756/330
f 812/390 810/388 811/389
f 813/391 812/390 811/389
f 813/391 811/389 752/326
f 752/326 811/389 754/328
f 814/392 812/390 813/391
f 815/393 814/392 813/391
f 815/393 813/391 751/325
f 751/325 813/391 752/326
f 816/394 814/392 815/393
f 818/395 816/394 815/393
f 818/395 815/393 817/396
f 817/396 815/393 751/325
f 819/397 816/394 818/395
f 819/397 818/395 551/82
f 818/395 817/396 552/84
f 818/395 552/84 551/82
f 820/398 821/399 819/397
f 820/398 819/397 550/80
f 819/397 821/399 816/394
f 819/397 551/82 550/80
f 822/400 823/401 821/399
f 820/398 822/400 821/399
f 821/399 823/401 824/402
f 821/399 824/402 816/394
f 816/394 824/402 814/392
f 823/401 825/403 824/402
f 824/402 825/403 826/404
f 824/402 826/404 814/392
f 825/403 827/405 826/404
f 826/404 827/405 828/406
f 814/392 826/404 812/390
f 826/404 828/406 812/390
f 827/405 829/407 828/406
f 828/406 829/407 806/383
f 812/390 828/406 810/388
f 828/406 806/383 810/388
f 830/408 831/409 829/407
f 827/405 830/408 829/407
f 829/407 831/409 804/382
f 829/407 804/382 806/383
f 832/410 833/411 831/409
f 830/408 832/410 831/409
f 833/411 804/382 831/409
f 835/412 833/411 834/413
f 832/410 834/413 833/411
f 835/412 836/414 833/411
f 836/414 802/380 833/411
f 833/411 802/380 804/382
f 837/415 836/414 835/412
f 837/415 838/416 836/414
f 838/416 839/417 836/414
f 836/414 839/417 802/380
f 838/416 840/418 839/417
f 839/417 799/376 798/377
f 802/380 839/417 798/377
f 839/417 840/418 799/376
f 841/419 840/418 838/416
f 841/419 842/420 840/418
f 842/420 799/376 840/418
f 843/421 842/420 841/419
f 843/421 844/422 842/420
f 844/422 845/423 842/420
f 842/420 845/423 799/376
f 844/422 846/424 845/423
f 846/424 847/425 845/423
f 845/423 847/425 795/373
f 845/423 795/373 799/376
f 846/424 849/426 847/425
f 847/425 848/427 792/370
f 795/373 847/425 792/370
f 847/425 849/426 848/427
f 850/428 849/426 846/424
f 850/428 852/429 849/426
f 849/426 851/430 848/427
f 849/426 852/429 851/430
f 850/428 853/431 852/429
f 852/429 853/431 854/432
f 852/429 854/432 851/430
f 853/431 493/433 854/432
f 854/432 493/435 855/434
f 851/430 854/432 855/434
f 855/434 493/437 857/436
f 851/430 855/434 856/438
f 856/438 855/434 857/436
f 857/436 493/439 786/363
f 856/438 857/436 788/366
f 788/366 857/436 786/363
f 848/427 851/430 856/438
f 848/427 856/438 790/368
f 790/368 856/438 788/366
f 858/440 493/441 853/431
f 850/428 858/440 853/431
f 859/442 493/443 858/440
f 860/444 859/442 858/440
f 860/444 858/440 850/428
f 861/445 859/442 860/444
f 861/445 860/444 844/422
f 860/444 850/428 846/424
f 860/444 846/424 844/422
f 862/446 863/447 861/445
f 862/446 861/445 843/421
f 861/445 863/447 859/442
f 861/445 844/422 843/421
f 864/448 493/449 863/447
f 862/446 864/448 863/447
f 863/447 493/450 859/442
f 865/451 864/448 862/446
f 865/451 866/452 864/448
f 866/452 493/453 864/448
f 867/454 493/455 866/452
f 868/456 867/454 866/452
f 868/456 866/452 865/451
f 869/457 867/454 868/456
f 869/457 868/456 870/458
f 870/458 868/456 865/451
f 869/457 870/458 871/459
f 873/460 871/459 870/458
f 873/460 870/458 872/461
f 872/461 870/458 874/462
f 870/458 865/451 874/462
f 874/462 865/451 862/446
f 872/461 874/462 875/463
f 875/463 874/462 876/464
f 874/462 862/446 876/464
f 862/446 843/421 876/464
f 875/463 876/464 877/465
f 877/465 876/464 843/421
f 875/463 877/465 837/415
f 877/465 843/421 841/419
f 877/465 841/419 838/416
f 877/465 838/416 837/415
f 872/461 875/463 878/466
f 875/463 837/415 878/466
f 872/461 878/466 879/467
f 879/467 878/466 880/468
f 878/466 837/415 835/412
f 878/466 835/412 880/468
f 879/467 880/468 881/469
f 883/470 881/469 880/468
f 883/470 880/468 882/471
f 880/468 834/413 882/471
f 880/468 835/412 834/413
f 884/472 881/469 883/470
f 886/473 884/472 883/470
f 886/473 883/470 885/474
f 885/474 883/470 882/471
f 887/475 884/472 886/473
f 889/476 887/475 886/473
f 889/476 886/473 888/477
f 888/477 886/473 885/474
f 890/478 887/475 889/476
f 892/479 890/478 889/476
f 892/479 889/476 891/480
f 891/480 889/476 888/477
f 893/481 890/478 892/479
f 895/482 893/481 892/479
f 895/482 892/479 894/483
f 894/483 892/479 891/480
f 896/484 893/481 895/482
f 898/485 896/484 895/482
f 898/485 895/482 897/486
f 897/486 895/482 894/483
f 531/52 896/484 898/485
f 533/54 531/52 898/485
f 533/54 898/485 899/487
f 899/487 898/485 897/486
f 901/488 533/54 899/487
f 901/488 899/487 900/489
f 900/489 899/487 902/490
f 899/487 897/486 902/490
f 902/490 897/486 905/491
f 900/489 902/490 903/492
f 903/492 902/490 904/493
f 902/490 905/491 904/493
f 897/486 894/483 905/491
f 905/491 894/483 907/494
f 904/493 905/491 906/495
f 905/491 907/494 906/495
f 894/483 891/480 907/494
f 891/480 909/496 907/494
f 907/494 908/497 906/495
f 907/494 909/496 908/497
f 891/480 912/498 909/496
f 909/496 911/500 910/499
f 908/497 909/496 910/499
f 909/496 912/498 911/500
f 891/480 888/477 912/498
f 912/498 888/477 913/501
f 912/498 913/501 911/500
f 888/477 885/474 913/501
f 913/501 885/474 915/502
f 911/500 913/501 914/503
f 913/501 915/502 914/503
f 885/474 882/471 915/502
f 915/502 882/471 834/413
f 914/503 915/502 832/410
f 915/502 834/413 832/410
f 911/500 914/503 916/504
f 916/504 914/503 830/408
f 914/503 832/410 830/408
f 910/499 911/500 916/504
f 910/499 916/504 825/403
f 825/403 916/504 827/405
f 916/504 830/408 827/405
f 908/497 910/499 823/401
f 823/401 910/499 825/403
f 906/495 908/497 822/400
f 822/400 908/497 823/401
f 904/493 906/495 917/505
f 906/495 822/400 917/505
f 919/506 904/493 917/505
f 919/506 917/505 918/507
f 918/507 917/505 822/400
f 903/492 904/493 919/506
f 546/72 903/492 919/506
f 546/72 919/506 547/74
f 919/506 548/76 547/74
f 919/506 918/507 548/76
f 918/507 822/400 820/398
f 918/507 820/398 549/78
f 918/507 549/78 548/76
f 900/489 903/492 546/72
f 535/55 533/54 901/488
f 544/67 535/55 901/488
f 544/67 901/488 543/66
f 543/66 901/488 900/489
f 543/66 900/489 545/69
f 900/489 546/72 545/69
f 921/508 896/484 920/509
f 531/52 920/509 896/484
f 921/508 922/510 896/484
f 896/484 922/510 893/481
f 517/37 922/510 921/508
f 517/37 924/511 922/510
f 922/510 923/512 893/481
f 922/510 924/511 923/512
f 517/37 925/513 924/511
f 924/511 925/513 926/514
f 924/511 926/514 923/512
f 925/513 927/515 926/514
f 926/514 927/515 929/516
f 923/512 926/514 928/517
f 926/514 929/516 928/517
f 927/515 930/518 929/516
f 929/516 930/518 932/519
f 928/517 929/516 931/520
f 929/516 932/519 931/520
f 930/518 933/521 932/519
f 932/519 933/521 935/522
f 931/520 932/519 934/523
f 932/519 935/522 934/523
f 936/524 935/522 933/521
f 936/524 873/460 935/522
f 934/523 935/522 879/467
f 935/522 872/461 879/467
f 935/522 873/460 872/461
f 937/525 938/526 936/524
f 937/525 936/524 933/521
f 938/526 873/460 936/524
f 939/527 940/528 938/526
f 937/525 939/527 938/526
f 940/528 871/459 938/526
f 938/526 871/459 873/460
f 942/529 940/528 941/530
f 939/527 941/530 940/528
f 942/529 943/531 940/528
f 943/531 869/457 940/528
f 940/528 869/457 871/459
f 942/529 493/532 943/531
f 943/531 493/534 944/533
f 943/531 944/533 869/457
f 944/533 493/535 867/454
f 869/457 944/533 867/454
f 945/536 493/537 942/529
f 945/536 942/529 941/530
f 946/538 493/539 945/536
f 948/540 946/538 945/536
f 948/540 945/536 947/541
f 945/536 941/530 947/541
f 485/3 946/538 948/540
f 485/3 948/540 949/542
f 949/542 948/540 947/541
f 487/4 949/542 950/543
f 949/542 952/544 950/543
f 487/4 484/2 949/542
f 485/3 949/542 484/2
f 949/542 947/541 951/545
f 949/542 951/545 952/544
f 954/546 950/543 952/544
f 954/546 952/544 953/547
f 953/547 952/544 937/525
f 951/545 937/525 952/544
f 955/548 950/543 954/546
f 957/549 955/548 954/546
f 957/549 954/546 956/550
f 956/550 954/546 953/547
f 508/30 955/548 957/549
f 511/33 508/30 957/549
f 511/33 957/549 515/36
f 515/36 957/549 956/550
f 515/36 956/550 958/551
f 958/551 956/550 959/552
f 956/550 953/547 959/552
f 959/552 953/547 960/553
f 958/551 959/552 927/515
f 927/515 959/552 930/518
f 959/552 960/553 930/518
f 953/547 937/525 960/553
f 937/525 933/521 960/553
f 930/518 960/553 933/521
f 514/35 515/36 958/551
f 514/35 958/551 925/513
f 925/513 958/551 927/515
f 505/27 487/4 955/548
f 508/30 505/27 955/548
f 955/548 487/4 950/543
f 947/541 939/527 951/545
f 951/545 939/527 937/525
f 947/541 941/530 939/527
f 491/9 493/554 946/538
f 485/3 491/9 946/538
f 931/520 934/523 884/472
f 884/472 934/523 881/469
f 934/523 879/467 881/469
f 928/517 931/520 887/475
f 887/475 931/520 884/472
f 923/512 928/517 890/478
f 890/478 928/517 887/475
f 517/37 514/35 925/513
f 893/481 923/512 890/478
f 516/38 921/508 961/555
f 961/555 921/508 920/509
f 516/38 517/37 921/508
f 521/43 516/38 961/555
f 961/555 920/509 528/50
f 521/43 961/555 528/50
f 528/50 920/509 531/52
f 792/370 848/427 790/368
f 820/398 550/80 549/78
f 817/396 751/325 749/323
f 817/396 749/323 553/86
f 817/396 553/86 552/84
f 810/388 806/383 805/384
f 807/386 800/379 963/556
f 807/386 963/556 962/557
f 807/386 962/557 759/333
f 800/379 796/375 963/556
f 963/556 796/375 964/558
f 963/556 762/336 962/557
f 963/556 964/558 765/339
f 963/556 765/339 762/336
f 796/375 793/372 964/558
f 964/558 793/372 774/348
f 964/558 766/340 765/339
f 964/558 774/348 770/344
f 964/558 770/344 766/340
f 759/333 962/557 762/336
f 793/372 776/350 774/348
f 668/237 780/355 664/234
f 664/234 780/355 661/231
f 685/255 768/343 672/241
f 768/343 669/239 672/241
f 760/335 763/338 690/260
f 690/260 763/338 687/257
f 757/332 760/335 693/263
f 693/263 760/335 690/260
f 746/320 757/332 696/266
f 696/266 757/332 693/263
f 749/323 554/88 553/86
f 555/90 743/317 556/92
f 558/96 700/271 559/98
f 678/249 641/200 640/201
f 659/230 650/213 649/214
f 658/227 493/559 655/224
f 589/143 594/148 581/134
f 581/134 594/148 523/45
f 594/148 524/44 523/45
f 580/133 589/143 581/134
f 586/139 570/121 569/119
f 586/139 572/125 570/121
f 581/134 523/45 526/46
f 538/60 535/55 544/67
f 510/31 512/32 520/40
f 505/27 486/6 487/4
