o mesmer_tarr_pincers
v -0.542650 0.518318 0.158793
v -0.644381 0.550750 0.086093
v -0.723235 0.537928 0.038856
v -0.750152 0.514942 0.027219
v -0.767243 0.481941 0.024270
v -0.769743 0.391215 0.044545
v -0.429073 0.442018 0.241256
v -0.479323 0.481717 0.192373
v -0.530115 0.511849 0.145798
v -0.579506 0.531818 0.103350
v -0.625608 0.541045 0.066666
v -0.666658 0.539234 0.037154
v -0.701080 0.526476 0.015946
v -0.727555 0.503266 0.003858
v -0.745069 0.470488 0.001351
v -0.752953 0.429387 0.008522
v -0.750909 0.381513 0.025091
v -0.739024 0.328638 0.050413
v -0.717766 0.272671 0.083492
v -0.687953 0.215512 0.123009
v -0.650622 0.158987 0.167352
v -0.423359 0.437712 0.238412
v -0.467278 0.473574 0.187090
v -0.512597 0.500060 0.138138
v -0.557205 0.516816 0.093609
v -0.599385 0.523405 0.055219
v -0.637517 0.519635 0.024438
v -0.670141 0.505671 0.002449
v -0.696005 0.482053 -0.009905
v -0.714118 0.449682 -0.012150
v -0.723787 0.409790 -0.004203
v -0.724646 0.363879 0.013628
v -0.716668 0.313651 0.040649
v -0.700169 0.260920 0.075804
v -0.675795 0.207467 0.117699
v -0.644196 0.155057 0.164645
v -0.417044 0.431246 0.237218
v -0.452575 0.461799 0.185635
v -0.481802 0.446800 0.139513
v -0.529425 0.495635 0.091024
v -0.566716 0.498507 0.052185
v -0.601216 0.491973 0.021070
v -0.631602 0.476305 -0.001126
v -0.656707 0.452113 -0.013550
v -0.675572 0.420318 -0.015729
v -0.687471 0.382128 -0.007578
v -0.691952 0.338984 0.010582
v -0.688849 0.292485 0.038050
v -0.678290 0.244299 0.073747
v -0.660694 0.196040 0.116267
v -0.634833 0.149781 0.163919
v -0.403124 0.395133 0.232161
v -0.436617 0.446530 0.187752
v -0.465290 0.462627 0.139750
v -0.497227 0.469089 0.095692
v -0.528856 0.467303 0.057676
v -0.559147 0.457308 0.027175
v -0.586940 0.439507 0.005355
v -0.611170 0.414592 -0.006943
v -0.630906 0.383518 -0.009249
v -0.645393 0.347462 -0.001480
v -0.654075 0.307783 0.016065
v -0.656627 0.265947 0.042704
v -0.652957 0.223445 0.077393
v -0.643222 0.181673 0.118761
v -0.612762 0.146177 0.165342
v -0.395647 0.386759 0.234562
v -0.420796 0.428240 0.193163
v -0.437981 0.437757 0.149209
v -0.461830 0.438214 0.107420
v -0.487258 0.430994 0.071479
v -0.512927 0.416969 0.042513
v -0.537872 0.396688 0.021640
v -0.561140 0.370935 0.009660
v -0.581835 0.340698 0.007033
v -0.599165 0.307122 0.013855
v -0.612468 0.271473 0.029861
v -0.621235 0.235057 0.054427
v -0.625139 0.199158 0.086593
v -0.600034 0.164687 0.129804
v -0.597001 0.139691 0.169549
v -0.384673 0.363696 0.276313
v -0.387871 0.377362 0.238558
v -0.393698 0.384936 0.200765
v -0.409845 0.405844 0.168887
v -0.424584 0.404152 0.125784
v -0.443521 0.390973 0.093062
v -0.464329 0.372510 0.066495
v -0.478126 0.328126 0.060823
v -0.497818 0.304519 0.050662
v -0.517022 0.278575 0.047893
v -0.535004 0.251278 0.052619
v -0.551074 0.223650 0.064655
v -0.564617 0.196696 0.083528
v -0.575125 0.171347 0.108497
v -0.582204 0.148359 0.138571
v -0.586966 0.132240 0.174369
v -0.379849 0.367342 0.244080
v -0.378676 0.366074 0.211967
v -0.381125 0.358484 0.180817
v -0.390279 0.344725 0.151908
v -0.401191 0.327500 0.126738
v -0.415256 0.307024 0.106035
v -0.432003 0.284104 0.090598
v -0.450791 0.259632 0.081021
v -0.470898 0.234548 0.077667
v -0.491555 0.209800 0.080664
v -0.511969 0.186311 0.089891
v -0.531361 0.164928 0.104985
v -0.548991 0.146358 0.125348
v -0.564196 0.131102 0.150163
v -0.577989 0.124199 0.180319
v -0.371861 0.357069 0.250885
v -0.363192 0.347214 0.225796
v -0.357677 0.332383 0.201031
v -0.358003 0.312509 0.177786
v -0.363186 0.289680 0.157161
v -0.373028 0.265009 0.139837
v -0.387174 0.239503 0.126482
v -0.405084 0.214156 0.117607
v -0.426071 0.189941 0.113550
v -0.449328 0.167774 0.114463
v -0.473966 0.148474 0.120305
v -0.499041 0.132722 0.130844
v -0.523597 0.121019 0.145658
v -0.546702 0.113588 0.164150
v -0.569454 0.115879 0.187319
v -0.364378 0.346899 0.258569
v -0.348424 0.328938 0.241503
v -0.334728 0.307362 0.223896
v -0.327821 0.281133 0.207078
v -0.327737 0.252822 0.191594
v -0.333641 0.224066 0.178097
v -0.345362 0.196039 0.167096
v -0.362454 0.169839 0.159015
v -0.384261 0.146469 0.154160
v -0.409946 0.126810 0.152716
v -0.438525 0.111586 0.154729
v -0.468903 0.101328 0.160116
v -0.499918 0.096263 0.168638
v -0.530419 0.096536 0.180005
v -0.561516 0.107639 0.195150
v -0.357851 0.337172 0.266761
v -0.336664 0.312621 0.257875
v -0.314269 0.284181 0.248650
v -0.300985 0.251751 0.238675
v -0.296206 0.218345 0.228718
v -0.298608 0.185769 0.219344
v -0.308175 0.155384 0.210882
v -0.324539 0.128381 0.203656
v -0.347077 0.105799 0.197943
v -0.374923 0.088483 0.193955
v -0.407008 0.077061 0.191839
v -0.442113 0.071950 0.191670
v -0.478868 0.073060 0.193403
v -0.516010 0.080612 0.197071
v -0.554459 0.099836 0.203528
v -0.352608 0.328301 0.275147
v -0.328561 0.298635 0.273535
v -0.304871 0.265684 0.271375
v -0.286077 0.228336 0.269738
v -0.269799 0.187573 0.267113
v -0.269277 0.151590 0.261996
v -0.277039 0.119099 0.256158
v -0.292799 0.091379 0.249817
v -0.315951 0.069493 0.243214
v -0.345607 0.054260 0.236597
v -0.380633 0.046228 0.230212
v -0.419691 0.045654 0.224289
v -0.461245 0.052226 0.219017
v -0.504009 0.066317 0.214650
v -0.548551 0.092757 0.212130
v -0.348584 0.320356 0.283570
v -0.323422 0.286644 0.288712
v -0.300387 0.250603 0.292619
v -0.279141 0.210364 0.297481
v -0.260324 0.166782 0.301057
v -0.251008 0.125457 0.302952
v -0.253051 0.088517 0.301239
v -0.268452 0.059519 0.295729
v -0.292080 0.038948 0.288242
v -0.323130 0.025455 0.279010
v -0.360420 0.020252 0.268376
v -0.402499 0.023408 0.256733
v -0.447745 0.034566 0.244489
v -0.494826 0.054050 0.232073
v -0.544003 0.086648 0.220635
v -0.345405 0.312914 0.292247
v -0.320545 0.276944 0.303253
v -0.297449 0.238713 0.313184
v -0.276460 0.197070 0.322876
v -0.258089 0.152594 0.331506
v -0.244821 0.101454 0.338885
v -0.240524 0.037920 0.342776
v -0.252259 -0.000517 0.339720
v -0.276385 -0.011366 0.331304
v -0.308372 -0.008998 0.319565
v -0.347156 0.000127 0.304868
v -0.391227 0.006121 0.287758
v -0.438920 0.020793 0.268828
v -0.488776 0.044167 0.248704
v -0.540979 0.081683 0.228729
v -0.343995 0.307578 0.300475
v -0.319362 0.269801 0.316968
v -0.296456 0.229740 0.332352
v -0.275962 0.187131 0.346707
v -0.258325 0.142510 0.359844
v -0.243839 0.071214 0.371833
v -0.238694 0.002448 0.379197
v -0.245200 -0.057083 0.362111
v -0.269489 -0.063524 0.358932
v -0.301922 -0.045160 0.356713
v -0.341402 -0.017726 0.338273
v -0.386391 -0.005451 0.316130
v -0.435144 0.011511 0.291067
v -0.486095 0.036954 0.263944
v -0.539644 0.077967 0.236124
v -0.344795 0.305381 0.307356
v -0.319151 0.264936 0.330105
v -0.297307 0.224806 0.350028
v -0.276833 0.180228 0.369366
v -0.259590 0.132970 0.387029
v -0.245827 0.052420 0.402857
v -0.238439 -0.027866 0.405564
v -0.247620 -0.114399 0.354116
v -0.271657 -0.098174 0.368096
v -0.304020 -0.061975 0.387606
v -0.343256 -0.031895 0.367478
v -0.387964 -0.011532 0.341022
v -0.436478 0.006551 0.310461
v -0.486928 0.032703 0.277222
v -0.540120 0.075602 0.242545
v -0.347419 0.306223 0.312606
v -0.320216 0.263283 0.342411
v -0.299480 0.223040 0.366531
v -0.280253 0.178358 0.390101
v -0.263069 0.127044 0.412541
v -0.250597 0.050670 0.431499
v -0.245452 -0.015885 0.444636
v -0.258819 -0.071214 0.417336
v -0.282809 -0.080137 0.411336
v -0.314597 -0.057279 0.415509
v -0.352915 -0.030469 0.391276
v -0.396462 -0.010626 0.360965
v -0.443032 0.006604 0.326121
v -0.491498 0.031111 0.288125
v -0.542504 0.074608 0.247761
v -0.351203 0.309462 0.316433
v -0.323564 0.268402 0.352395
v -0.303012 0.224291 0.381434
v -0.286282 0.181030 0.408475
v -0.270617 0.135030 0.434061
v -0.259430 0.063524 0.457123
v -0.262638 0.009444 0.466798
v -0.279171 -0.023873 0.463969
v -0.302951 -0.039067 0.453359
v -0.333526 -0.035218 0.434964
v -0.369969 -0.013621 0.409109
v -0.411161 -0.004387 0.376130
v -0.454628 0.011085 0.337731
v -0.500003 0.031866 0.296308
v -0.546781 0.075120 0.251546
v -0.355615 0.314463 0.319030
v -0.331777 0.271678 0.356174
v -0.311666 0.228363 0.390401
v -0.298239 0.190011 0.421668
v -0.286426 0.145893 0.449012
v -0.282248 0.097680 0.469640
v -0.288847 0.049020 0.478767
v -0.306900 0.018936 0.476478
v -0.330944 0.003053 0.465571
v -0.359972 0.001950 0.447230
v -0.394910 0.005256 0.419295
v -0.432169 0.008132 0.385424
v -0.471099 0.019727 0.344983
v -0.511969 0.038846 0.300163
v -0.552511 0.078118 0.253497
v -0.360719 0.320401 0.320301
v -0.343041 0.277724 0.357615
v -0.327936 0.241409 0.394046
v -0.318719 0.207961 0.428606
v -0.312309 0.168825 0.456111
v -0.310385 0.127776 0.473954
v -0.319342 0.093241 0.482609
v -0.340743 0.068978 0.481445
v -0.365015 0.047963 0.471070
v -0.394366 0.034667 0.450689
v -0.426309 0.027109 0.423551
v -0.459299 0.026478 0.388902
v -0.492687 0.031432 0.348173
v -0.525040 0.054352 0.298849
v -0.559011 0.084104 0.253400
v -0.366975 0.326706 0.319878
v -0.356168 0.289011 0.357616
v -0.348364 0.261207 0.394374
v -0.343757 0.225873 0.425569
v -0.346135 0.191814 0.448665
v -0.345919 0.151862 0.466590
v -0.359030 0.122691 0.474066
v -0.381523 0.101447 0.476081
v -0.406908 0.082083 0.465950
v -0.434870 0.065889 0.447943
v -0.464534 0.054165 0.422232
v -0.492681 0.048520 0.387907
v -0.519233 0.046723 0.347247
v -0.540885 0.068721 0.295674
v -0.566208 0.091842 0.251588
v -0.592796 0.118306 0.209968
v -0.374694 0.333473 0.317439
v -0.369620 0.302065 0.354601
v -0.371656 0.277017 0.386328
v -0.377061 0.247803 0.415169
v -0.384580 0.207933 0.434824
v -0.389373 0.171694 0.452617
v -0.401699 0.152419 0.459246
v -0.427134 0.139632 0.457797
v -0.453064 0.121452 0.451694
v -0.481247 0.103052 0.438327
v -0.510996 0.088143 0.413764
v -0.532186 0.076418 0.380797
v -0.545144 0.078428 0.334130
v -0.557001 0.087210 0.288535
v -0.573816 0.101315 0.247978
v -0.383575 0.341470 0.313042
v -0.386139 0.316050 0.346317
v -0.396643 0.297909 0.375136
v -0.412903 0.265732 0.396726
v -0.428549 0.212143 0.424186
v -0.438784 0.197699 0.434157
v -0.451911 0.192622 0.434373
v -0.473327 0.181591 0.433187
v -0.498917 0.164469 0.428675
v -0.528660 0.146667 0.416684
v -0.559220 0.129042 0.392204
v -0.572429 0.113127 0.361412
v -0.572345 0.107700 0.319288
v -0.574794 0.105988 0.279321
v -0.582300 0.110846 0.243308
v -0.392918 0.351152 0.307082
v -0.409256 0.325651 0.335891
v -0.424417 0.305401 0.354499
v -0.446889 0.293861 0.377241
v -0.476421 0.268805 0.396151
v -0.502709 0.266242 0.405935
v -0.513901 0.252142 0.409637
v -0.536136 0.236287 0.405986
v -0.554876 0.215452 0.399977
v -0.576477 0.195630 0.386870
v -0.600350 0.170112 0.367679
v -0.607343 0.149137 0.338784
v -0.600304 0.134750 0.303624
v -0.594552 0.123590 0.269427
v -0.592038 0.119186 0.238321
v -0.402029 0.361961 0.299983
v -0.423958 0.394428 0.342620
v -0.450792 0.388027 0.364438
v -0.479377 0.375393 0.382168
v -0.510024 0.355880 0.392951
v -0.539351 0.335188 0.400952
v -0.565113 0.310677 0.388911
v -0.591762 0.288159 0.381166
v -0.607563 0.263797 0.371284
v -0.621068 0.238611 0.358442
v -0.633774 0.210871 0.340042
v -0.636831 0.183878 0.315107
v -0.628080 0.160775 0.286896
v -0.615492 0.140693 0.258998
v -0.603008 0.126328 0.233253
v -0.410508 0.372919 0.291995
v -0.442759 0.415175 0.324572
v -0.477540 0.417710 0.338159
v -0.513042 0.413275 0.348594
v -0.547239 0.401360 0.356551
v -0.581276 0.385589 0.359566
v -0.612824 0.365031 0.357692
v -0.636780 0.339215 0.349435
v -0.654886 0.311687 0.338605
v -0.667782 0.281595 0.328095
v -0.672717 0.248646 0.310998
v -0.670361 0.215773 0.290745
v -0.657475 0.185103 0.268774
v -0.637610 0.156972 0.247413
v -0.614987 0.133003 0.227820
v -0.418623 0.416229 0.298699
v -0.459262 0.434378 0.305229
v -0.501322 0.445047 0.309868
v -0.543123 0.447805 0.312368
v -0.583212 0.442822 0.312650
v -0.620186 0.430542 0.310625
v -0.652632 0.411610 0.306494
v -0.679433 0.386793 0.300946
v -0.697346 0.356212 0.293184
v -0.709077 0.322767 0.283686
v -0.711212 0.285738 0.272999
v -0.706049 0.246934 0.261462
v -0.687560 0.207884 0.247360
v -0.659055 0.172259 0.233435
v -0.627337 0.139823 0.221320
v -0.425732 0.425234 0.288504
v -0.473074 0.451287 0.285189
v -0.521249 0.469035 0.280653
v -0.568387 0.478008 0.275051
v -0.612748 0.478132 0.268609
v -0.652674 0.469570 0.261593
v -0.686601 0.452719 0.254294
v -0.713288 0.428361 0.247003
v -0.730941 0.397011 0.240085
v -0.740277 0.360613 0.233682
v -0.739984 0.319614 0.228153
v -0.730570 0.275589 0.223487
v -0.709513 0.229983 0.219590
v -0.676511 0.186634 0.215906
v -0.638047 0.146678 0.212945
v -0.431171 0.432766 0.278373
v -0.483661 0.465349 0.265258
v -0.536542 0.488985 0.251645
v -0.587788 0.503134 0.238066
v -0.635462 0.507519 0.225066
v -0.677742 0.502090 0.213161
v -0.713081 0.487211 0.202802
v -0.739910 0.463262 0.194449
v -0.757354 0.431339 0.188404
v -0.764716 0.392577 0.184908
v -0.761814 0.348388 0.184068
v -0.748723 0.300274 0.185838
v -0.725365 0.249732 0.190133
v -0.690374 0.199224 0.196696
v -0.647169 0.152270 0.203789
v -0.434753 0.438576 0.268686
v -0.490629 0.476140 0.246207
v -0.546609 0.504300 0.223951
v -0.600558 0.522446 0.202797
v -0.650422 0.530130 0.183577
v -0.694297 0.527159 0.167044
v -0.730521 0.513721 0.153831
v -0.757642 0.490277 0.144482
v -0.774701 0.457799 0.139326
v -0.780964 0.417434 0.138610
v -0.776311 0.370739 0.142302
v -0.760885 0.319354 0.150237
v -0.735230 0.265056 0.162029
v -0.699416 0.209627 0.177349
v -0.654528 0.156262 0.194656
v -0.436350 0.442485 0.259813
v -0.493717 0.483327 0.228772
v -0.551059 0.514489 0.198625
v -0.606195 0.535301 0.170559
v -0.657022 0.545189 0.145671
v -0.701595 0.543862 0.124926
v -0.738204 0.531404 0.109124
v -0.765448 0.508301 0.098875
v -0.780205 0.481377 0.093019
v -0.788090 0.434057 0.096394
v -0.782642 0.385697 0.104248
v -0.766161 0.332121 0.117819
v -0.739267 0.275217 0.136527
v -0.702932 0.216911 0.159563
v -0.657772 0.159466 0.185918
v -0.435907 0.444381 0.252095
v -0.492812 0.486692 0.213620
v -0.549723 0.519213 0.176627
v -0.604477 0.541245 0.142568
v -0.654986 0.552149 0.112765
v -0.699315 0.551581 0.088366
v -0.735765 0.539589 0.070311
v -0.762939 0.516638 0.059293
v -0.778008 0.488604 0.058659
v -0.785709 0.441745 0.059781
v -0.780446 0.392622 0.071261
v -0.764223 0.338045 0.089724
v -0.737664 0.279959 0.114424
v -0.701764 0.220338 0.144338
v -0.657655 0.161228 0.178206
v -0.433443 0.444220 0.245832
v -0.479584 0.448682 0.197348
v -0.595466 0.540068 0.119879
v -0.687523 0.550020 0.058735
v -0.773854 0.440174 0.030122
v -0.755074 0.336872 0.066976
v -0.730417 0.279099 0.096526
v -0.696715 0.219861 0.132000
v -0.655154 0.161088 0.171932
v 0.542650 0.518318 0.158793
v 0.530115 0.511849 0.145798
v 0.479323 0.481717 0.192373
v 0.595467 0.540068 0.119879
v 0.579506 0.531818 0.103350
v 0.549723 0.519214 0.176627
v 0.492812 0.486692 0.213620
v 0.479584 0.448682 0.197348
v 0.429073 0.442018 0.241256
v 0.433443 0.444220 0.245832
v 0.384673 0.363696 0.276313
v 0.435908 0.444381 0.252095
v 0.436350 0.442485 0.259813
v 0.434753 0.438576 0.268686
v 0.493717 0.483327 0.228772
v 0.490629 0.476140 0.246207
v 0.551059 0.514489 0.198625
v 0.546609 0.504300 0.223951
v 0.606195 0.535301 0.170559
v 0.604478 0.541245 0.142568
v 0.654986 0.552149 0.112765
v 0.657022 0.545189 0.145673
v 0.644381 0.550750 0.086093
v 0.699315 0.551582 0.088366
v 0.701595 0.543862 0.124926
v 0.687523 0.550020 0.058736
v 0.735765 0.539589 0.070311
v 0.738205 0.531404 0.109124
v 0.723237 0.537928 0.038856
v 0.762940 0.516638 0.059293
v 0.750153 0.514942 0.027219
v 0.727556 0.503266 0.003859
v 0.701080 0.526477 0.015947
v 0.767243 0.481941 0.024270
v 0.745070 0.470488 0.001353
v 0.778008 0.488604 0.058660
v 0.780205 0.481377 0.093019
v 0.765448 0.508301 0.098875
v 0.785709 0.441745 0.059781
v 0.788090 0.434057 0.096394
v 0.780964 0.417434 0.138610
v 0.774701 0.457798 0.139327
v 0.782642 0.385697 0.104250
v 0.776312 0.370739 0.142302
v 0.780446 0.392622 0.071262
v 0.769744 0.391215 0.044545
v 0.764224 0.338045 0.089725
v 0.755074 0.336872 0.066976
v 0.739026 0.328638 0.050413
v 0.730417 0.279100 0.096526
v 0.717766 0.272671 0.083492
v 0.737664 0.279959 0.114425
v 0.696715 0.219861 0.132000
v 0.701764 0.220338 0.144338
v 0.702932 0.216911 0.159563
v 0.657655 0.161228 0.178206
v 0.657772 0.159466 0.185918
v 0.654528 0.156262 0.194656
v 0.699416 0.209627 0.177349
v 0.592796 0.118306 0.209968
v 0.650622 0.158987 0.167352
v 0.655154 0.161088 0.171932
v 0.644196 0.155057 0.164645
v 0.634834 0.149781 0.163919
v 0.612762 0.146177 0.165342
v 0.597001 0.139691 0.169549
v 0.586966 0.132240 0.174369
v 0.577989 0.124199 0.180319
v 0.569454 0.115879 0.187320
v 0.561516 0.107639 0.195150
v 0.554459 0.099836 0.203528
v 0.548551 0.092757 0.212130
v 0.544003 0.086648 0.220635
v 0.540979 0.081684 0.228729
v 0.539644 0.077967 0.236124
v 0.540120 0.075602 0.242545
v 0.542504 0.074608 0.247761
v 0.546781 0.075120 0.251546
v 0.552511 0.078118 0.253497
v 0.559011 0.084104 0.253400
v 0.566208 0.091842 0.251588
v 0.573816 0.101315 0.247978
v 0.582300 0.110846 0.243308
v 0.592038 0.119185 0.238321
v 0.603008 0.126328 0.233253
v 0.614987 0.133003 0.227820
v 0.627337 0.139823 0.221320
v 0.638047 0.146678 0.212946
v 0.647169 0.152270 0.203789
v 0.676511 0.186634 0.215906
v 0.690375 0.199224 0.196696
v 0.725365 0.249732 0.190133
v 0.735230 0.265056 0.162029
v 0.760885 0.319354 0.150239
v 0.739268 0.275217 0.136527
v 0.766161 0.332121 0.117819
v 0.748723 0.300274 0.185839
v 0.730572 0.275589 0.223487
v 0.761815 0.348387 0.184068
v 0.709513 0.229983 0.219590
v 0.687561 0.207884 0.247360
v 0.657475 0.185103 0.268774
v 0.670361 0.215773 0.290746
v 0.659055 0.172259 0.233435
v 0.706049 0.246934 0.261462
v 0.672718 0.248646 0.310998
v 0.739984 0.319614 0.228154
v 0.711212 0.285738 0.272999
v 0.709077 0.322768 0.283686
v 0.740277 0.360613 0.233682
v 0.730941 0.397011 0.240087
v 0.764716 0.392577 0.184908
v 0.757354 0.431339 0.188404
v 0.713288 0.428361 0.247003
v 0.739912 0.463262 0.194449
v 0.686601 0.452719 0.254295
v 0.713081 0.487211 0.202802
v 0.757642 0.490277 0.144482
v 0.730521 0.513721 0.153831
v 0.677742 0.502090 0.213163
v 0.694297 0.527159 0.167044
v 0.635462 0.507519 0.225066
v 0.650423 0.530130 0.183577
v 0.587788 0.503134 0.238067
v 0.600558 0.522446 0.202797
v 0.536543 0.488985 0.251645
v 0.521249 0.469036 0.280653
v 0.473074 0.451287 0.285189
v 0.483661 0.465349 0.265258
v 0.431171 0.432766 0.278373
v 0.425732 0.425234 0.288504
v 0.418623 0.416229 0.298699
v 0.459262 0.434379 0.305229
v 0.442759 0.415175 0.324572
v 0.501322 0.445047 0.309868
v 0.477540 0.417710 0.338159
v 0.543123 0.447805 0.312368
v 0.568387 0.478008 0.275051
v 0.612748 0.478132 0.268609
v 0.583212 0.442822 0.312650
v 0.652674 0.469568 0.261593
v 0.620186 0.430543 0.310625
v 0.581276 0.385589 0.359567
v 0.547239 0.401359 0.356551
v 0.652632 0.411610 0.306496
v 0.612824 0.365031 0.357693
v 0.679433 0.386793 0.300946
v 0.636780 0.339215 0.349435
v 0.697346 0.356212 0.293185
v 0.654886 0.311687 0.338607
v 0.667782 0.281595 0.328097
v 0.621069 0.238611 0.358442
v 0.607563 0.263797 0.371284
v 0.554876 0.215452 0.399977
v 0.536136 0.236287 0.405986
v 0.591762 0.288159 0.381166
v 0.565112 0.310677 0.388911
v 0.513901 0.252142 0.409637
v 0.502709 0.266242 0.405935
v 0.539351 0.335187 0.400952
v 0.476421 0.268805 0.396151
v 0.510024 0.355880 0.392951
v 0.446890 0.293861 0.377241
v 0.479377 0.375393 0.382168
v 0.450792 0.388027 0.364438
v 0.513042 0.413275 0.348596
v 0.424417 0.305401 0.354499
v 0.409256 0.325651 0.335891
v 0.423958 0.394428 0.342620
v 0.402029 0.361961 0.299983
v 0.410508 0.372919 0.291995
v 0.392919 0.351150 0.307082
v 0.383575 0.341470 0.313042
v 0.386139 0.316050 0.346317
v 0.369620 0.302065 0.354601
v 0.374694 0.333473 0.317439
v 0.396643 0.297909 0.375136
v 0.371656 0.277017 0.386328
v 0.348364 0.261205 0.394374
v 0.377061 0.247803 0.415169
v 0.343757 0.225873 0.425570
v 0.318720 0.207962 0.428606
v 0.346135 0.191814 0.448665
v 0.312309 0.168825 0.456111
v 0.286426 0.145893 0.449012
v 0.298239 0.190011 0.421668
v 0.310385 0.127776 0.473954
v 0.345919 0.151862 0.466590
v 0.359030 0.122691 0.474066
v 0.319342 0.093241 0.482609
v 0.389373 0.171694 0.452617
v 0.384580 0.207934 0.434824
v 0.428549 0.212143 0.424186
v 0.412903 0.265732 0.396726
v 0.438785 0.197699 0.434157
v 0.451911 0.192622 0.434373
v 0.401699 0.152419 0.459246
v 0.427133 0.139632 0.457798
v 0.381523 0.101447 0.476081
v 0.406908 0.082083 0.465951
v 0.365015 0.047963 0.471070
v 0.340743 0.068978 0.481445
v 0.306900 0.018935 0.476478
v 0.330944 0.003053 0.465569
v 0.302951 -0.039067 0.453358
v 0.359972 0.001911 0.447230
v 0.333526 -0.035286 0.434963
v 0.314597 -0.057403 0.415509
v 0.369969 -0.013812 0.409109
v 0.352915 -0.030830 0.391276
v 0.343256 -0.032507 0.367478
v 0.396462 -0.010626 0.360964
v 0.387964 -0.011532 0.341022
v 0.386391 -0.005451 0.316130
v 0.436478 0.006551 0.310461
v 0.435144 0.011511 0.291067
v 0.443032 0.006603 0.326121
v 0.491498 0.031111 0.288125
v 0.486928 0.032703 0.277222
v 0.454628 0.011085 0.337731
v 0.500003 0.031866 0.296308
v 0.411161 -0.004387 0.376128
v 0.471099 0.019727 0.344983
v 0.511969 0.038846 0.300163
v 0.432169 0.008133 0.385424
v 0.492687 0.031432 0.348173
v 0.525040 0.054352 0.298849
v 0.540885 0.068721 0.295674
v 0.519233 0.046723 0.347247
v 0.557001 0.087210 0.288535
v 0.545145 0.078428 0.334130
v 0.574794 0.105988 0.279322
v 0.572345 0.107700 0.319288
v 0.594553 0.123590 0.269427
v 0.600304 0.134750 0.303625
v 0.615492 0.140693 0.258999
v 0.628080 0.160775 0.286896
v 0.637610 0.156972 0.247413
v 0.607343 0.149137 0.338784
v 0.636831 0.183878 0.315107
v 0.600350 0.170112 0.367680
v 0.633774 0.210871 0.340042
v 0.576477 0.195630 0.386870
v 0.528660 0.146667 0.416684
v 0.559220 0.129042 0.392204
v 0.510997 0.088143 0.413764
v 0.572428 0.113127 0.361412
v 0.532186 0.076418 0.380797
v 0.492681 0.048520 0.387907
v 0.464533 0.054166 0.422232
v 0.426308 0.027109 0.423550
v 0.434870 0.065889 0.447943
v 0.481245 0.103053 0.438327
v 0.453064 0.121452 0.451693
v 0.498917 0.164468 0.428675
v 0.473326 0.181591 0.433187
v 0.394366 0.034667 0.450689
v 0.394909 0.005256 0.419295
v 0.459300 0.026478 0.388902
v 0.486095 0.036954 0.263944
v 0.488776 0.044167 0.248704
v 0.438920 0.020793 0.268828
v 0.447745 0.034566 0.244489
v 0.391227 0.006121 0.287758
v 0.494826 0.054050 0.232073
v 0.504009 0.066317 0.214650
v 0.516010 0.080612 0.197071
v 0.461245 0.052226 0.219017
v 0.478868 0.073060 0.193403
v 0.419691 0.045654 0.224290
v 0.402499 0.023408 0.256733
v 0.360420 0.020252 0.268375
v 0.347156 0.000127 0.304868
v 0.308372 -0.009083 0.319564
v 0.341402 -0.017726 0.338274
v 0.301921 -0.045160 0.356713
v 0.269489 -0.063524 0.358932
v 0.304021 -0.062247 0.387528
v 0.271657 -0.098174 0.368096
v 0.247620 -0.114399 0.354117
v 0.282809 -0.080137 0.411336
v 0.258818 -0.071214 0.417336
v 0.238439 -0.027866 0.405564
v 0.245452 -0.015885 0.444636
v 0.279171 -0.023835 0.463968
v 0.288847 0.049020 0.478767
v 0.262638 0.009444 0.466797
v 0.250597 0.050670 0.431497
v 0.259429 0.063524 0.457122
v 0.270617 0.135030 0.434061
v 0.282246 0.097680 0.469640
v 0.263069 0.125261 0.412541
v 0.286282 0.181030 0.408475
v 0.280253 0.178358 0.390101
v 0.303012 0.224291 0.381434
v 0.311666 0.228363 0.390401
v 0.331777 0.271678 0.356174
v 0.327936 0.241409 0.394046
v 0.343041 0.277725 0.357615
v 0.355615 0.314463 0.319030
v 0.360719 0.320401 0.320301
v 0.356168 0.289011 0.357616
v 0.366975 0.326706 0.319878
v 0.351203 0.309462 0.316433
v 0.323564 0.268402 0.352396
v 0.320216 0.263283 0.342411
v 0.299480 0.223040 0.366530
v 0.297307 0.224806 0.350028
v 0.276833 0.180228 0.369366
v 0.275962 0.187131 0.346708
v 0.259590 0.133173 0.387027
v 0.258325 0.142510 0.359844
v 0.258089 0.152594 0.331506
v 0.243839 0.071000 0.371833
v 0.244821 0.102409 0.338885
v 0.251008 0.125457 0.302952
v 0.260325 0.166782 0.301056
v 0.240524 0.040409 0.342776
v 0.253051 0.088517 0.301240
v 0.277039 0.119099 0.256158
v 0.268452 0.059519 0.295729
v 0.292799 0.091379 0.249817
v 0.292078 0.038948 0.288242
v 0.315951 0.069493 0.243214
v 0.252260 -0.000517 0.339721
v 0.276385 -0.014755 0.331304
v 0.323130 0.025455 0.279010
v 0.345607 0.054260 0.236597
v 0.380633 0.046228 0.230212
v 0.407008 0.077061 0.191839
v 0.442113 0.071950 0.191670
v 0.468903 0.101328 0.160116
v 0.499918 0.096263 0.168638
v 0.523597 0.121019 0.145658
v 0.530419 0.096536 0.180005
v 0.546702 0.113588 0.164150
v 0.564196 0.131102 0.150163
v 0.582204 0.148359 0.138571
v 0.548991 0.146358 0.125348
v 0.575125 0.171347 0.108498
v 0.531361 0.164928 0.104985
v 0.499041 0.132722 0.130845
v 0.473966 0.148474 0.120305
v 0.438525 0.111587 0.154729
v 0.409946 0.126810 0.152716
v 0.374923 0.088483 0.193955
v 0.347077 0.105799 0.197941
v 0.384261 0.146469 0.154160
v 0.324539 0.128381 0.203656
v 0.362454 0.169839 0.159015
v 0.308175 0.155384 0.210882
v 0.345362 0.196039 0.167096
v 0.333641 0.224066 0.178097
v 0.298608 0.185769 0.219342
v 0.327737 0.252822 0.191594
v 0.296206 0.218345 0.228718
v 0.269277 0.151590 0.261995
v 0.269799 0.187573 0.267112
v 0.300985 0.251751 0.238676
v 0.286077 0.228338 0.269738
v 0.314269 0.284181 0.248650
v 0.304871 0.265684 0.271375
v 0.279141 0.210364 0.297481
v 0.300387 0.250604 0.292619
v 0.276460 0.197070 0.322876
v 0.296457 0.229740 0.332352
v 0.297449 0.238713 0.313184
v 0.323422 0.286644 0.288712
v 0.319362 0.269801 0.316969
v 0.320545 0.276944 0.303253
v 0.345405 0.312914 0.292247
v 0.343995 0.307578 0.300475
v 0.344795 0.305381 0.307357
v 0.319151 0.264936 0.330105
v 0.347419 0.306223 0.312606
v 0.348584 0.320356 0.283571
v 0.352608 0.328301 0.275147
v 0.328561 0.298635 0.273535
v 0.336664 0.312621 0.257875
v 0.348424 0.328938 0.241503
v 0.357851 0.337172 0.266761
v 0.364378 0.346899 0.258569
v 0.363192 0.347214 0.225797
v 0.371861 0.357069 0.250886
v 0.379849 0.367342 0.244080
v 0.378676 0.366074 0.211968
v 0.393698 0.384936 0.200765
v 0.381125 0.358484 0.180817
v 0.409846 0.405844 0.168887
v 0.390279 0.344725 0.151908
v 0.424584 0.404152 0.125784
v 0.357677 0.332383 0.201031
v 0.358003 0.312509 0.177786
v 0.334728 0.307362 0.223897
v 0.327821 0.281133 0.207078
v 0.363186 0.289680 0.157161
v 0.401191 0.327500 0.126738
v 0.373028 0.265009 0.139837
v 0.415256 0.307024 0.106035
v 0.387174 0.239503 0.126482
v 0.432003 0.284104 0.090598
v 0.478126 0.328128 0.060823
v 0.450791 0.259632 0.081021
v 0.497818 0.304519 0.050662
v 0.561140 0.370935 0.009660
v 0.517022 0.278575 0.047893
v 0.581835 0.340698 0.007033
v 0.630907 0.383518 -0.009249
v 0.599165 0.307122 0.013855
v 0.645393 0.347462 -0.001480
v 0.687471 0.382128 -0.007578
v 0.654076 0.307783 0.016066
v 0.691952 0.338984 0.010582
v 0.724647 0.363879 0.013628
v 0.688849 0.292485 0.038050
v 0.716668 0.313651 0.040649
v 0.700169 0.260920 0.075805
v 0.675795 0.207467 0.117699
v 0.687954 0.215512 0.123009
v 0.678290 0.244299 0.073747
v 0.660695 0.196041 0.116267
v 0.652957 0.223445 0.077393
v 0.656628 0.265947 0.042704
v 0.621235 0.235057 0.054429
v 0.612468 0.271473 0.029862
v 0.564618 0.196697 0.083528
v 0.551074 0.223650 0.064655
v 0.511969 0.186311 0.089891
v 0.491555 0.209800 0.080664
v 0.535004 0.251278 0.052619
v 0.470898 0.234548 0.077667
v 0.426071 0.189941 0.113550
v 0.405084 0.214156 0.117607
v 0.449328 0.167774 0.114463
v 0.625139 0.199158 0.086593
v 0.600034 0.164687 0.129804
v 0.643222 0.181673 0.118761
v 0.750909 0.381513 0.025092
v 0.752953 0.429387 0.008522
v 0.723788 0.409790 -0.004203
v 0.675572 0.420318 -0.015727
v 0.714119 0.449682 -0.012150
v 0.696005 0.482053 -0.009905
v 0.656709 0.452113 -0.013549
v 0.631602 0.476305 -0.001124
v 0.611170 0.414594 -0.006943
v 0.586942 0.439507 0.005355
v 0.559148 0.457308 0.027175
v 0.537874 0.396688 0.021640
v 0.512927 0.416969 0.042513
v 0.487258 0.430994 0.071480
v 0.464329 0.372510 0.066495
v 0.443521 0.390973 0.093062
v 0.461830 0.438214 0.107420
v 0.497227 0.469089 0.095692
v 0.437982 0.437757 0.149209
v 0.465290 0.462627 0.139750
v 0.420796 0.428240 0.193163
v 0.436617 0.446530 0.187753
v 0.403124 0.395133 0.232161
v 0.395647 0.386759 0.234562
v 0.387871 0.377363 0.238558
v 0.417044 0.431246 0.237218
v 0.423359 0.437712 0.238412
v 0.452575 0.461799 0.185635
v 0.467278 0.473574 0.187092
v 0.512597 0.500060 0.138138
v 0.557207 0.516817 0.093611
v 0.481802 0.446802 0.139513
v 0.529425 0.495635 0.091026
v 0.566716 0.498507 0.052185
v 0.599385 0.523405 0.055219
v 0.625609 0.541045 0.066667
v 0.637517 0.519635 0.024439
v 0.666659 0.539234 0.037154
v 0.670142 0.505671 0.002449
v 0.601216 0.491973 0.021071
v 0.528856 0.467303 0.057676
v 0.773856 0.440174 0.030122
v 0.245201 -0.057083 0.362110
v 0.238694 0.002448 0.379197
v 0.245827 0.052420 0.402857
vt 0.750000 0.312500
vt 0.718750 0.250000
vt 0.750000 0.250000
vt 0.750000 0.687500
vt 0.718750 0.750000
vt 0.718750 0.687500
vt 0.750000 0.187500
vt 0.718750 0.187500
vt 0.750000 0.625000
vt 0.718750 0.625000
vt 0.750000 0.125000
vt 0.718750 0.125000
vt 0.750000 0.562500
vt 0.718750 0.562500
vt 0.750000 0.062500
vt 0.718750 0.062500
vt 0.750000 0.500000
vt 0.718750 0.500000
vt 0.750000 0.937500
vt 0.734375 1.000000
vt 0.718750 0.937500
vt 0.734375 0.000000
vt 0.718750 0.437500
vt 0.750000 0.437500
vt 0.750000 0.875000
vt 0.718750 0.875000
vt 0.718750 0.375000
vt 0.750000 0.375000
vt 0.750000 0.812500
vt 0.718750 0.812500
vt 0.718750 0.312500
vt 0.750000 0.750000
vt 0.687500 0.312500
vt 0.687500 0.812500
vt 0.687500 0.750000
vt 0.687500 0.250000
vt 0.687500 0.687500
vt 0.687500 0.187500
vt 0.687500 0.625000
vt 0.687500 0.125000
vt 0.687500 0.562500
vt 0.687500 0.062500
vt 0.687500 0.500000
vt 0.703125 1.000000
vt 0.687500 0.937500
vt 0.703125 0.000000
vt 0.687500 0.437500
vt 0.687500 0.875000
vt 0.687500 0.375000
vt 0.656250 0.062500
vt 0.656250 0.562500
vt 0.656250 0.500000
vt 0.671875 1.000000
vt 0.656250 0.937500
vt 0.671875 0.000000
vt 0.656250 0.437500
vt 0.656250 0.875000
vt 0.656250 0.375000
vt 0.656250 0.812500
vt 0.656250 0.312500
vt 0.656250 0.750000
vt 0.656250 0.250000
vt 0.656250 0.687500
vt 0.656250 0.187500
vt 0.656250 0.625000
vt 0.656250 0.125000
vt 0.625000 0.750000
vt 0.625000 0.312500
vt 0.625000 0.250000
vt 0.625000 0.687500
vt 0.625000 0.187500
vt 0.625000 0.625000
vt 0.625000 0.125000
vt 0.625000 0.562500
vt 0.625000 0.062500
vt 0.625000 0.500000
vt 0.640625 1.000000
vt 0.625000 0.937500
vt 0.640625 0.000000
vt 0.625000 0.437500
vt 0.625000 0.875000
vt 0.625000 0.375000
vt 0.625000 0.812500
vt 0.593750 0.562500
vt 0.593750 0.500000
vt 0.609375 1.000000
vt 0.593750 0.937500
vt 0.609375 0.000000
vt 0.593750 0.062500
vt 0.593750 0.437500
vt 0.593750 0.875000
vt 0.593750 0.375000
vt 0.593750 0.812500
vt 0.593750 0.312500
vt 0.593750 0.750000
vt 0.593750 0.250000
vt 0.593750 0.687500
vt 0.593750 0.187500
vt 0.593750 0.625000
vt 0.593750 0.125000
vt 0.562500 0.250000
vt 0.562500 0.687500
vt 0.562500 0.187500
vt 0.562500 0.625000
vt 0.562500 0.125000
vt 0.562500 0.562500
vt 0.562500 0.062500
vt 0.562500 0.500000
vt 0.578125 1.000000
vt 0.562500 0.937500
vt 0.578125 0.000000
vt 0.562500 0.437500
vt 0.562500 0.875000
vt 0.562500 0.375000
vt 0.562500 0.812500
vt 0.562500 0.312500
vt 0.562500 0.750000
vt 0.546875 0.000000
vt 0.531250 0.062500
vt 0.531250 0.500000
vt 0.531250 0.437500
vt 0.531250 0.937500
vt 0.531250 0.875000
vt 0.531250 0.375000
vt 0.531250 0.812500
vt 0.531250 0.312500
vt 0.531250 0.750000
vt 0.531250 0.250000
vt 0.531250 0.687500
vt 0.531250 0.187500
vt 0.531250 0.625000
vt 0.531250 0.125000
vt 0.531250 0.562500
vt 0.546875 1.000000
vt 0.500000 0.250000
vt 0.500000 0.187500
vt 0.500000 0.625000
vt 0.500000 0.125000
vt 0.500000 0.562500
vt 0.500000 0.062500
vt 0.500000 0.500000
vt 0.515625 1.000000
vt 0.500000 0.937500
vt 0.515625 0.000000
vt 0.500000 0.437500
vt 0.500000 0.875000
vt 0.500000 0.375000
vt 0.500000 0.812500
vt 0.500000 0.312500
vt 0.500000 0.750000
vt 0.500000 0.687500
vt 0.468750 0.937500
vt 0.468750 0.875000
vt 0.468750 0.437500
vt 0.468750 0.375000
vt 0.468750 0.812500
vt 0.468750 0.312500
vt 0.468750 0.750000
vt 0.468750 0.250000
vt 0.468750 0.687500
vt 0.468750 0.187500
vt 0.468750 0.625000
vt 0.468750 0.125000
vt 0.468750 0.562500
vt 0.468750 0.062500
vt 0.468750 0.500000
vt 0.484375 1.000000
vt 0.484375 0.000000
vt 0.437500 0.625000
vt 0.437500 0.187500
vt 0.437500 0.125000
vt 0.437500 0.562500
vt 0.437500 0.062500
vt 0.437500 0.500000
vt 0.453125 1.000000
vt 0.437500 0.937500
vt 0.453125 0.000000
vt 0.437500 0.437500
vt 0.437500 0.875000
vt 0.437500 0.375000
vt 0.437500 0.812500
vt 0.437500 0.312500
vt 0.437500 0.750000
vt 0.437500 0.250000
vt 0.437500 0.687500
vt 0.406250 0.437500
vt 0.406250 0.375000
vt 0.406250 0.812500
vt 0.406250 0.312500
vt 0.406250 0.750000
vt 0.406250 0.250000
vt 0.406250 0.687500
vt 0.406250 0.187500
vt 0.406250 0.625000
vt 0.406250 0.125000
vt 0.406250 0.562500
vt 0.406250 0.062500
vt 0.406250 0.500000
vt 0.421875 1.000000
vt 0.406250 0.937500
vt 0.421875 0.000000
vt 0.406250 0.875000
vt 0.375000 0.187500
vt 0.375000 0.125000
vt 0.375000 0.625000
vt 0.375000 0.562500
vt 0.375000 0.062500
vt 0.375000 0.500000
vt 0.390625 1.000000
vt 0.375000 0.937500
vt 0.390625 0.000000
vt 0.375000 0.437500
vt 0.375000 0.875000
vt 0.375000 0.375000
vt 0.375000 0.812500
vt 0.375000 0.312500
vt 0.375000 0.750000
vt 0.375000 0.250000
vt 0.375000 0.687500
vt 0.343750 0.812500
vt 0.343750 0.375000
vt 0.343750 0.312500
vt 0.343750 0.750000
vt 0.343750 0.250000
vt 0.343750 0.687500
vt 0.343750 0.187500
vt 0.343750 0.625000
vt 0.343750 0.125000
vt 0.343750 0.562500
vt 0.343750 0.062500
vt 0.343750 0.500000
vt 0.359375 1.000000
vt 0.343750 0.937500
vt 0.359375 0.000000
vt 0.343750 0.437500
vt 0.343750 0.875000
vt 0.312500 0.625000
vt 0.312500 0.562500
vt 0.312500 0.125000
vt 0.312500 0.062500
vt 0.312500 0.500000
vt 0.328125 1.000000
vt 0.312500 0.937500
vt 0.328125 0.000000
vt 0.312500 0.437500
vt 0.312500 0.875000
vt 0.312500 0.375000
vt 0.312500 0.812500
vt 0.312500 0.312500
vt 0.312500 0.750000
vt 0.312500 0.250000
vt 0.312500 0.687500
vt 0.312500 0.187500
vt 0.281250 0.375000
vt 0.281250 0.312500
vt 0.281250 0.812500
vt 0.281250 0.750000
vt 0.281250 0.250000
vt 0.281250 0.687500
vt 0.281250 0.187500
vt 0.281250 0.625000
vt 0.281250 0.125000
vt 0.281250 0.562500
vt 0.281250 0.062500
vt 0.281250 0.500000
vt 0.296875 1.000000
vt 0.281250 0.937500
vt 0.296875 0.000000
vt 0.281250 0.437500
vt 0.281250 0.875000
vt 0.250000 0.125000
vt 0.250000 0.062500
vt 0.250000 0.500000
vt 0.265625 1.000000
vt 0.250000 0.937500
vt 0.265625 0.000000
vt 0.250000 0.437500
vt 0.250000 0.875000
vt 0.250000 0.375000
vt 0.250000 0.812500
vt 0.250000 0.312500
vt 0.250000 0.750000
vt 0.250000 0.250000
vt 0.250000 0.687500
vt 0.250000 0.187500
vt 0.250000 0.625000
vt 0.250000 0.562500
vt 0.218750 0.312500
vt 0.218750 0.250000
vt 0.218750 0.750000
vt 0.218750 0.687500
vt 0.218750 0.187500
vt 0.218750 0.625000
vt 0.218750 0.125000
vt 0.218750 0.562500
vt 0.218750 0.062500
vt 0.218750 0.500000
vt 0.234375 1.000000
vt 0.218750 0.937500
vt 0.234375 0.000000
vt 0.218750 0.437500
vt 0.218750 0.875000
vt 0.218750 0.375000
vt 0.218750 0.812500
vt 0.203125 1.000000
vt 0.187500 0.937500
vt 0.203125 0.000000
vt 0.187500 0.062500
vt 0.187500 0.500000
vt 0.187500 0.437500
vt 0.187500 0.875000
vt 0.187500 0.375000
vt 0.187500 0.812500
vt 0.187500 0.312500
vt 0.187500 0.750000
vt 0.187500 0.250000
vt 0.187500 0.687500
vt 0.187500 0.187500
vt 0.187500 0.625000
vt 0.187500 0.125000
vt 0.187500 0.562500
vt 0.156250 0.687500
vt 0.156250 0.187500
vt 0.156250 0.625000
vt 0.156250 0.125000
vt 0.156250 0.562500
vt 0.156250 0.062500
vt 0.156250 0.500000
vt 0.171875 1.000000
vt 0.156250 0.937500
vt 0.171875 0.000000
vt 0.156250 0.437500
vt 0.156250 0.875000
vt 0.156250 0.375000
vt 0.156250 0.812500
vt 0.156250 0.312500
vt 0.156250 0.750000
vt 0.156250 0.250000
vt 0.125000 0.500000
vt 0.125000 0.437500
vt 0.125000 0.875000
vt 0.125000 0.375000
vt 0.125000 0.812500
vt 0.125000 0.312500
vt 0.125000 0.750000
vt 0.125000 0.250000
vt 0.125000 0.687500
vt 0.125000 0.187500
vt 0.125000 0.625000
vt 0.125000 0.125000
vt 0.125000 0.562500
vt 0.125000 0.062500
vt 0.140625 1.000000
vt 0.125000 0.937500
vt 0.140625 0.000000
vt 0.093750 0.187500
vt 0.093750 0.687500
vt 0.093750 0.625000
vt 0.093750 0.125000
vt 0.093750 0.562500
vt 0.093750 0.062500
vt 0.093750 0.500000
vt 0.109375 1.000000
vt 0.093750 0.937500
vt 0.109375 0.000000
vt 0.093750 0.437500
vt 0.093750 0.875000
vt 0.093750 0.375000
vt 0.093750 0.812500
vt 0.093750 0.312500
vt 0.093750 0.750000
vt 0.093750 0.250000
vt 0.062500 0.875000
vt 0.062500 0.437500
vt 0.062500 0.375000
vt 0.062500 0.812500
vt 0.062500 0.312500
vt 0.062500 0.750000
vt 0.062500 0.250000
vt 0.062500 0.687500
vt 0.062500 0.187500
vt 0.062500 0.625000
vt 0.062500 0.125000
vt 0.062500 0.562500
vt 0.062500 0.062500
vt 0.062500 0.500000
vt 0.078125 1.000000
vt 0.062500 0.937500
vt 0.078125 0.000000
vt 0.031250 0.687500
vt 0.031250 0.625000
vt 0.031250 0.125000
vt 0.031250 0.562500
vt 0.031250 0.062500
vt 0.031250 0.500000
vt 0.046875 1.000000
vt 0.031250 0.937500
vt 0.046875 0.000000
vt 0.031250 0.437500
vt 0.031250 0.875000
vt 0.031250 0.375000
vt 0.031250 0.812500
vt 0.031250 0.312500
vt 0.031250 0.750000
vt 0.031250 0.250000
vt 0.031250 0.187500
vt 0.000000 0.375000
vt 0.000000 0.812500
vt 0.000000 0.312500
vt 0.000000 0.750000
vt 0.000000 0.250000
vt 0.000000 0.687500
vt 0.000000 0.187500
vt 0.000000 0.625000
vt 0.000000 0.125000
vt 0.000000 0.562500
vt 0.000000 0.062500
vt 0.000000 0.500000
vt 0.015625 1.000000
vt 0.000000 0.937500
vt 0.015625 0.000000
vt 0.000000 0.437500
vt 0.000000 0.875000
vt 1.000000 0.187500
vt 0.968750 0.125000
vt 1.000000 0.125000
vt 1.000000 0.625000
vt 0.968750 0.562500
vt 1.000000 0.562500
vt 0.968750 0.062500
vt 1.000000 0.062500
vt 0.968750 0.500000
vt 1.000000 0.500000
vt 1.000000 0.937500
vt 0.984375 1.000000
vt 0.968750 0.937500
vt 0.984375 0.000000
vt 0.968750 0.437500
vt 1.000000 0.437500
vt 1.000000 0.875000
vt 0.968750 0.875000
vt 0.968750 0.375000
vt 1.000000 0.375000
vt 0.968750 0.812500
vt 1.000000 0.812500
vt 0.968750 0.312500
vt 1.000000 0.312500
vt 0.968750 0.750000
vt 1.000000 0.750000
vt 0.968750 0.250000
vt 1.000000 0.250000
vt 0.968750 0.687500
vt 1.000000 0.687500
vt 0.968750 0.187500
vt 0.968750 0.625000
vt 0.937500 0.375000
vt 0.937500 0.312500
vt 0.937500 0.750000
vt 0.937500 0.250000
vt 0.937500 0.687500
vt 0.937500 0.187500
vt 0.937500 0.625000
vt 0.937500 0.125000
vt 0.937500 0.562500
vt 0.937500 0.062500
vt 0.937500 0.500000
vt 0.953125 1.000000
vt 0.937500 0.937500
vt 0.953125 0.000000
vt 0.937500 0.437500
vt 0.937500 0.875000
vt 0.937500 0.812500
vt 0.906250 0.062500
vt 0.906250 0.500000
vt 0.921875 1.000000
vt 0.906250 0.937500
vt 0.921875 0.000000
vt 0.906250 0.437500
vt 0.906250 0.875000
vt 0.906250 0.375000
vt 0.906250 0.812500
vt 0.906250 0.312500
vt 0.906250 0.750000
vt 0.906250 0.250000
vt 0.906250 0.687500
vt 0.906250 0.187500
vt 0.906250 0.625000
vt 0.906250 0.125000
vt 0.906250 0.562500
vt 0.875000 0.750000
vt 0.875000 0.312500
vt 0.875000 0.250000
vt 0.875000 0.687500
vt 0.875000 0.187500
vt 0.875000 0.625000
vt 0.875000 0.125000
vt 0.875000 0.562500
vt 0.875000 0.062500
vt 0.875000 0.500000
vt 0.890625 1.000000
vt 0.875000 0.937500
vt 0.890625 0.000000
vt 0.875000 0.437500
vt 0.875000 0.875000
vt 0.875000 0.375000
vt 0.875000 0.812500
vt 0.843750 0.500000
vt 0.859375 1.000000
vt 0.843750 0.937500
vt 0.859375 0.000000
vt 0.843750 0.062500
vt 0.843750 0.437500
vt 0.843750 0.875000
vt 0.843750 0.375000
vt 0.843750 0.812500
vt 0.843750 0.312500
vt 0.843750 0.750000
vt 0.843750 0.250000
vt 0.843750 0.687500
vt 0.843750 0.187500
vt 0.843750 0.625000
vt 0.843750 0.125000
vt 0.843750 0.562500
vt 0.812500 0.312500
vt 0.812500 0.250000
vt 0.812500 0.687500
vt 0.812500 0.187500
vt 0.812500 0.625000
vt 0.812500 0.125000
vt 0.812500 0.562500
vt 0.812500 0.062500
vt 0.812500 0.500000
vt 0.828125 1.000000
vt 0.812500 0.937500
vt 0.828125 0.000000
vt 0.812500 0.437500
vt 0.812500 0.875000
vt 0.812500 0.375000
vt 0.812500 0.812500
vt 0.812500 0.750000
vt 0.796875 1.000000
vt 0.781250 0.937500
vt 0.796875 0.000000
vt 0.781250 0.062500
vt 0.781250 0.437500
vt 0.781250 0.875000
vt 0.781250 0.375000
vt 0.781250 0.812500
vt 0.781250 0.312500
vt 0.781250 0.750000
vt 0.781250 0.250000
vt 0.781250 0.687500
vt 0.781250 0.187500
vt 0.781250 0.625000
vt 0.781250 0.125000
vt 0.781250 0.562500
vt 0.781250 0.500000
vt 0.765625 1.000000
vt 0.765625 0.000000
s 1
f 6/1 18/2 479/3
f 2/4 10/5 11/6
f 480/7 18/2 19/8
f 477/9 11/6 12/10
f 481/11 19/8 20/12
f 3/13 12/10 13/14
f 482/15 20/12 21/16
f 4/17 13/14 14/18
f 474/19 82/20 7/21
f 308/22 482/15 21/16
f 4/17 15/23 5/24
f 475/25 7/21 8/26
f 5/24 16/27 478/28
f 1/29 8/26 9/30
f 478/28 17/31 6/1
f 1/29 10/5 476/32
f 16/27 32/33 17/31
f 10/5 24/34 25/35
f 18/2 32/33 33/36
f 11/6 25/35 26/37
f 19/8 33/36 34/38
f 12/10 26/37 27/39
f 20/12 34/38 35/40
f 13/14 27/39 28/41
f 21/16 35/40 36/42
f 14/18 28/41 29/43
f 7/21 82/44 22/45
f 308/46 21/16 36/42
f 15/23 29/43 30/47
f 8/26 22/45 23/48
f 15/23 31/49 16/27
f 8/26 24/34 9/30
f 35/40 51/50 36/42
f 29/43 43/51 44/52
f 22/45 82/53 37/54
f 308/55 36/42 51/50
f 30/47 44/52 45/56
f 23/48 37/54 38/57
f 31/49 45/56 46/58
f 24/34 38/57 39/59
f 32/33 46/58 47/60
f 24/34 40/61 25/35
f 33/36 47/60 48/62
f 26/37 40/61 41/63
f 34/38 48/62 49/64
f 27/39 41/63 42/65
f 35/40 49/64 50/66
f 28/41 42/65 43/51
f 39/59 55/67 40/61
f 48/62 62/68 63/69
f 41/63 55/67 56/70
f 49/64 63/69 64/71
f 42/65 56/70 57/72
f 50/66 64/71 65/73
f 43/51 57/72 58/74
f 51/50 65/73 66/75
f 44/52 58/74 59/76
f 37/54 82/77 52/78
f 308/79 51/50 66/75
f 45/56 59/76 60/80
f 37/54 53/81 38/57
f 46/58 60/80 61/82
f 38/57 54/83 39/59
f 47/60 61/82 62/68
f 59/76 73/84 74/85
f 52/78 82/86 67/87
f 308/88 66/75 81/89
f 60/80 74/85 75/90
f 52/78 68/91 53/81
f 61/82 75/90 76/92
f 54/83 68/91 69/93
f 62/68 76/92 77/94
f 55/67 69/93 70/95
f 63/69 77/94 78/96
f 55/67 71/97 56/70
f 64/71 78/96 79/98
f 57/72 71/97 72/99
f 65/73 79/98 80/100
f 58/74 72/99 73/84
f 65/73 81/89 66/75
f 77/94 94/101 78/96
f 70/95 87/102 71/97
f 78/96 95/103 79/98
f 72/99 87/102 88/104
f 80/100 95/103 96/105
f 73/84 88/104 89/106
f 80/100 97/107 81/89
f 74/85 89/106 90/108
f 67/87 82/109 83/110
f 308/111 81/89 97/107
f 75/90 90/108 91/112
f 67/87 84/113 68/91
f 76/92 91/112 92/114
f 68/91 85/115 69/93
f 76/92 93/116 77/94
f 69/93 86/117 70/95
f 308/118 97/107 112/119
f 91/112 105/120 106/121
f 84/113 98/122 99/123
f 92/114 106/121 107/124
f 84/113 100/125 85/115
f 93/116 107/124 108/126
f 86/117 100/125 101/127
f 94/101 108/126 109/128
f 87/102 101/127 102/129
f 95/103 109/128 110/130
f 88/104 102/129 103/131
f 96/105 110/130 111/132
f 89/106 103/131 104/133
f 96/105 112/119 97/107
f 90/108 104/133 105/120
f 83/110 82/134 98/122
f 110/130 124/135 125/136
f 102/129 118/137 103/131
f 111/132 125/136 126/138
f 104/133 118/137 119/139
f 111/132 127/140 112/119
f 105/120 119/139 120/141
f 98/122 82/142 113/143
f 308/144 112/119 127/140
f 106/121 120/141 121/145
f 99/123 113/143 114/146
f 107/124 121/145 122/147
f 100/125 114/146 115/148
f 108/126 122/147 123/149
f 101/127 115/148 116/150
f 109/128 123/149 124/135
f 101/127 117/151 102/129
f 114/146 128/152 129/153
f 122/147 136/154 137/155
f 115/148 129/153 130/156
f 123/149 137/155 138/157
f 116/150 130/156 131/158
f 124/135 138/157 139/159
f 116/150 132/160 117/151
f 125/136 139/159 140/161
f 117/151 133/162 118/137
f 126/138 140/161 141/163
f 118/137 134/164 119/139
f 126/138 142/165 127/140
f 120/141 134/164 135/166
f 113/143 82/167 128/152
f 308/168 127/140 142/165
f 121/145 135/166 136/154
f 132/160 148/169 133/162
f 141/163 155/170 156/171
f 133/162 149/172 134/164
f 141/163 157/173 142/165
f 135/166 149/172 150/174
f 128/152 82/175 143/176
f 308/177 142/165 157/173
f 136/154 150/174 151/178
f 129/153 143/176 144/179
f 137/155 151/178 152/180
f 129/153 145/181 130/156
f 138/157 152/180 153/182
f 131/158 145/181 146/183
f 139/159 153/182 154/184
f 131/158 147/185 132/160
f 140/161 154/184 155/170
f 152/180 166/186 167/187
f 144/179 160/188 145/181
f 153/182 167/187 168/189
f 145/181 161/190 146/183
f 154/184 168/189 169/191
f 146/183 162/192 147/185
f 155/170 169/191 170/193
f 147/185 163/194 148/169
f 156/171 170/193 171/195
f 148/169 164/196 149/172
f 156/171 172/197 157/173
f 149/172 165/198 150/174
f 143/176 82/199 158/200
f 308/201 157/173 172/197
f 151/178 165/198 166/186
f 144/179 158/200 159/202
f 171/195 185/203 186/204
f 164/196 178/205 179/206
f 172/197 186/204 187/207
f 164/196 180/208 165/198
f 158/200 82/209 173/210
f 308/211 172/197 187/207
f 166/186 180/208 181/212
f 159/202 173/210 174/213
f 167/187 181/212 182/214
f 159/202 175/215 160/188
f 168/189 182/214 183/216
f 160/188 176/217 161/190
f 169/191 183/216 184/218
f 161/190 177/219 162/192
f 170/193 184/218 185/203
f 163/194 177/219 178/205
f 174/213 190/220 175/215
f 183/216 197/221 198/222
f 175/215 191/223 176/217
f 184/218 198/222 199/224
f 176/217 192/225 177/219
f 185/203 199/224 200/226
f 177/219 193/227 178/205
f 186/204 200/226 201/228
f 179/206 193/227 194/229
f 187/207 201/228 202/230
f 180/208 194/229 195/231
f 173/210 82/232 188/233
f 308/234 187/207 202/230
f 180/208 196/235 181/212
f 174/213 188/233 189/236
f 182/214 196/235 197/221
f 194/229 208/237 209/238
f 202/230 216/239 217/240
f 195/231 209/238 210/241
f 188/233 82/242 203/243
f 308/244 202/230 217/240
f 195/231 211/245 196/235
f 189/236 203/243 204/246
f 197/221 211/245 212/247
f 190/220 204/246 205/248
f 198/222 212/247 213/249
f 191/223 205/248 206/250
f 199/224 213/249 214/251
f 192/225 206/250 207/252
f 200/226 214/251 215/253
f 193/227 207/252 208/237
f 200/226 216/239 201/228
f 213/249 227/254 228/255
f 206/250 220/256 221/257
f 214/251 228/255 229/258
f 207/252 221/257 222/259
f 215/253 229/258 230/260
f 208/237 222/259 223/261
f 215/253 231/262 216/239
f 209/238 223/261 224/263
f 217/240 231/262 232/264
f 209/238 225/265 210/241
f 203/243 82/266 218/267
f 308/268 217/240 232/264
f 211/245 225/265 226/269
f 204/246 218/267 219/270
f 212/247 226/269 227/254
f 205/248 219/270 220/256
f 232/264 246/271 247/272
f 224/263 240/273 225/265
f 218/267 82/274 233/275
f 308/276 232/264 247/272
f 226/269 240/273 241/277
f 219/270 233/275 234/278
f 227/254 241/277 242/279
f 220/256 234/278 235/280
f 228/255 242/279 243/281
f 221/257 235/280 236/282
f 229/258 243/281 244/283
f 222/259 236/282 237/284
f 229/258 245/285 230/260
f 223/261 237/284 238/286
f 231/262 245/285 246/271
f 223/261 239/287 224/263
f 244/283 258/288 259/289
f 237/284 251/290 252/291
f 244/283 260/292 245/285
f 238/286 252/291 253/293
f 246/271 260/292 261/294
f 238/286 254/295 239/287
f 247/272 261/294 262/296
f 239/287 255/297 240/273
f 233/275 82/298 248/299
f 308/300 247/272 262/296
f 241/277 255/297 256/301
f 234/278 248/299 249/302
f 242/279 256/301 257/303
f 235/280 249/302 250/304
f 243/281 257/303 258/288
f 236/282 250/304 251/290
f 248/299 82/305 263/306
f 308/307 262/296 277/308
f 256/301 270/309 271/310
f 249/302 263/306 264/311
f 257/303 271/310 272/312
f 250/304 264/311 265/313
f 258/288 272/312 273/314
f 251/290 265/313 266/315
f 259/289 273/314 274/316
f 252/291 266/315 267/317
f 259/289 275/318 260/292
f 253/293 267/317 268/319
f 261/294 275/318 276/320
f 253/293 269/321 254/295
f 262/296 276/320 277/308
f 255/297 269/321 270/309
f 266/315 282/322 267/317
f 274/316 290/323 275/318
f 267/317 283/324 268/319
f 275/318 291/325 276/320
f 269/321 283/324 284/326
f 277/308 291/325 292/327
f 270/309 284/326 285/328
f 263/306 82/329 278/330
f 308/331 277/308 292/327
f 271/310 285/328 286/332
f 263/306 279/333 264/311
f 272/312 286/332 287/334
f 265/313 279/333 280/335
f 273/314 287/334 288/336
f 266/315 280/335 281/337
f 273/314 289/338 274/316
f 286/332 300/339 301/340
f 278/330 294/341 279/333
f 287/334 301/340 302/342
f 280/335 294/341 295/343
f 288/336 302/342 303/344
f 281/337 295/343 296/345
f 288/336 304/346 289/338
f 282/322 296/345 297/347
f 289/338 305/348 290/323
f 282/322 298/349 283/324
f 290/323 306/350 291/325
f 284/326 298/349 299/351
f 292/327 306/350 307/352
f 285/328 299/351 300/339
f 278/330 82/353 293/354
f 308/355 292/327 307/352
f 304/346 321/356 305/348
f 298/349 313/357 314/358
f 305/348 322/359 306/350
f 299/351 314/358 315/360
f 307/352 322/359 323/361
f 300/339 315/360 316/362
f 293/354 82/363 309/364
f 308/365 307/352 323/361
f 301/340 316/362 317/366
f 293/354 310/367 294/341
f 302/342 317/366 318/368
f 295/343 310/367 311/369
f 303/344 318/368 319/370
f 296/345 311/369 312/371
f 303/344 320/372 304/346
f 297/347 312/371 313/357
f 309/364 325/373 310/367
f 318/368 332/374 333/375
f 311/369 325/373 326/376
f 319/370 333/375 334/377
f 312/371 326/376 327/378
f 319/370 335/379 320/372
f 313/357 327/378 328/380
f 320/372 336/381 321/356
f 314/358 328/380 329/382
f 321/356 337/383 322/359
f 315/360 329/382 330/384
f 323/361 337/383 338/385
f 316/362 330/384 331/386
f 309/364 82/387 324/388
f 308/389 323/361 338/385
f 317/366 331/386 332/374
f 329/382 343/390 344/391
f 336/381 352/392 337/383
f 330/384 344/391 345/393
f 337/383 353/394 338/385
f 331/386 345/393 346/395
f 324/388 82/396 339/397
f 308/398 338/385 353/394
f 332/374 346/395 347/399
f 325/373 339/397 340/400
f 333/375 347/399 348/401
f 326/376 340/400 341/402
f 334/377 348/401 349/403
f 327/378 341/402 342/404
f 334/377 350/405 335/379
f 327/378 343/390 328/380
f 335/379 351/406 336/381
f 347/399 363/407 348/401
f 340/400 356/408 341/402
f 348/401 364/409 349/403
f 342/404 356/408 357/410
f 349/403 365/411 350/405
f 342/404 358/412 343/390
f 350/405 366/413 351/406
f 343/390 359/414 344/391
f 351/406 367/415 352/392
f 344/391 360/416 345/393
f 352/392 368/417 353/394
f 346/395 360/416 361/418
f 339/397 82/419 354/420
f 308/421 353/394 368/417
f 346/395 362/422 347/399
f 340/400 354/420 355/423
f 366/424 382/425 367/426
f 359/427 375/428 360/429
f 367/426 383/430 368/431
f 360/429 376/432 361/433
f 354/434 82/435 369/436
f 308/437 368/431 383/430
f 361/433 377/438 362/439
f 355/440 369/436 370/441
f 362/439 378/442 363/443
f 355/440 371/444 356/445
f 363/443 379/446 364/447
f 356/445 372/448 357/449
f 364/447 380/450 365/451
f 357/449 373/452 358/453
f 365/451 381/454 366/424
f 358/453 374/455 359/427
f 379/446 393/456 394/457
f 371/444 387/458 372/448
f 379/446 395/459 380/450
f 372/448 388/460 373/452
f 380/450 396/461 381/454
f 373/452 389/462 374/455
f 381/454 397/463 382/425
f 374/455 390/464 375/428
f 382/425 398/465 383/430
f 375/428 391/466 376/432
f 369/436 82/467 384/468
f 308/469 383/430 398/465
f 376/432 392/470 377/438
f 370/441 384/468 385/471
f 378/442 392/470 393/456
f 370/441 386/472 371/444
f 397/463 413/473 398/465
f 390/464 406/474 391/466
f 384/468 82/475 399/476
f 308/477 398/465 413/473
f 391/466 407/478 392/470
f 385/471 399/476 400/479
f 393/456 407/478 408/480
f 385/471 401/481 386/472
f 394/457 408/480 409/482
f 386/472 402/483 387/458
f 395/459 409/482 410/484
f 387/458 403/485 388/460
f 396/461 410/484 411/486
f 388/460 404/487 389/462
f 396/461 412/488 397/463
f 389/462 405/489 390/464
f 401/481 417/490 402/483
f 410/484 424/491 425/492
f 402/483 418/493 403/485
f 411/486 425/492 426/494
f 403/485 419/495 404/487
f 412/488 426/494 427/496
f 404/487 420/497 405/489
f 412/488 428/498 413/473
f 405/489 421/499 406/474
f 399/476 82/500 414/501
f 308/502 413/473 428/498
f 406/474 422/503 407/478
f 400/479 414/501 415/504
f 408/480 422/503 423/505
f 400/479 416/506 401/481
f 409/482 423/505 424/491
f 420/497 436/507 421/499
f 414/501 82/508 429/509
f 308/510 428/498 443/511
f 421/499 437/512 422/503
f 415/504 429/509 430/513
f 423/505 437/512 438/514
f 415/504 431/515 416/506
f 424/491 438/514 439/516
f 416/506 432/517 417/490
f 425/492 439/516 440/518
f 417/490 433/519 418/493
f 426/494 440/518 441/520
f 418/493 434/521 419/495
f 427/496 441/520 442/522
f 419/495 435/523 420/497
f 427/496 443/511 428/498
f 440/518 454/524 455/525
f 432/517 448/526 433/519
f 441/520 455/525 456/527
f 433/519 449/528 434/521
f 442/522 456/527 457/529
f 434/521 450/530 435/523
f 442/522 458/531 443/511
f 435/523 451/532 436/507
f 429/509 82/533 444/534
f 308/535 443/511 458/531
f 436/507 452/536 437/512
f 429/509 445/537 430/513
f 437/512 453/538 438/514
f 430/513 446/539 431/515
f 439/516 453/538 454/524
f 431/515 447/540 432/517
f 444/534 82/541 459/542
f 308/543 458/531 473/544
f 451/532 467/545 452/536
f 444/534 460/546 445/537
f 453/538 467/545 468/547
f 445/537 461/548 446/539
f 453/538 469/549 454/524
f 446/539 462/550 447/540
f 454/524 470/551 455/525
f 447/540 463/552 448/526
f 456/527 470/551 471/553
f 448/526 464/554 449/528
f 457/529 471/553 472/555
f 449/528 465/556 450/530
f 458/531 472/555 473/544
f 450/530 466/557 451/532
f 463/552 476/32 2/4
f 470/551 480/7 471/553
f 464/554 2/4 477/9
f 472/555 480/7 481/11
f 465/556 477/9 3/13
f 473/544 481/11 482/15
f 465/556 4/17 466/557
f 459/542 82/558 474/19
f 308/559 473/544 482/15
f 467/545 4/17 5/24
f 460/546 474/19 475/25
f 468/547 5/24 478/28
f 460/546 1/29 461/548
f 468/547 6/1 469/549
f 461/548 476/32 462/550
f 469/549 479/3 470/551
f 6/1 17/31 18/2
f 2/4 476/32 10/5
f 480/7 479/3 18/2
f 477/9 2/4 11/6
f 481/11 480/7 19/8
f 3/13 477/9 12/10
f 482/15 481/11 20/12
f 4/17 3/13 13/14
f 4/17 14/18 15/23
f 475/25 474/19 7/21
f 5/24 15/23 16/27
f 1/29 475/25 8/26
f 478/28 16/27 17/31
f 1/29 9/30 10/5
f 16/27 31/49 32/33
f 10/5 9/30 24/34
f 18/2 17/31 32/33
f 11/6 10/5 25/35
f 19/8 18/2 33/36
f 12/10 11/6 26/37
f 20/12 19/8 34/38
f 13/14 12/10 27/39
f 21/16 20/12 35/40
f 14/18 13/14 28/41
f 15/23 14/18 29/43
f 8/26 7/21 22/45
f 15/23 30/47 31/49
f 8/26 23/48 24/34
f 35/40 50/66 51/50
f 29/43 28/41 43/51
f 30/47 29/43 44/52
f 23/48 22/45 37/54
f 31/49 30/47 45/56
f 24/34 23/48 38/57
f 32/33 31/49 46/58
f 24/34 39/59 40/61
f 33/36 32/33 47/60
f 26/37 25/35 40/61
f 34/38 33/36 48/62
f 27/39 26/37 41/63
f 35/40 34/38 49/64
f 28/41 27/39 42/65
f 39/59 54/83 55/67
f 48/62 47/60 62/68
f 41/63 40/61 55/67
f 49/64 48/62 63/69
f 42/65 41/63 56/70
f 50/66 49/64 64/71
f 43/51 42/65 57/72
f 51/50 50/66 65/73
f 44/52 43/51 58/74
f 45/56 44/52 59/76
f 37/54 52/78 53/81
f 46/58 45/56 60/80
f 38/57 53/81 54/83
f 47/60 46/58 61/82
f 59/76 58/74 73/84
f 60/80 59/76 74/85
f 52/78 67/87 68/91
f 61/82 60/80 75/90
f 54/83 53/81 68/91
f 62/68 61/82 76/92
f 55/67 54/83 69/93
f 63/69 62/68 77/94
f 55/67 70/95 71/97
f 64/71 63/69 78/96
f 57/72 56/70 71/97
f 65/73 64/71 79/98
f 58/74 57/72 72/99
f 65/73 80/100 81/89
f 77/94 93/116 94/101
f 70/95 86/117 87/102
f 78/96 94/101 95/103
f 72/99 71/97 87/102
f 80/100 79/98 95/103
f 73/84 72/99 88/104
f 80/100 96/105 97/107
f 74/85 73/84 89/106
f 75/90 74/85 90/108
f 67/87 83/110 84/113
f 76/92 75/90 91/112
f 68/91 84/113 85/115
f 76/92 92/114 93/116
f 69/93 85/115 86/117
f 91/112 90/108 105/120
f 84/113 83/110 98/122
f 92/114 91/112 106/121
f 84/113 99/123 100/125
f 93/116 92/114 107/124
f 86/117 85/115 100/125
f 94/101 93/116 108/126
f 87/102 86/117 101/127
f 95/103 94/101 109/128
f 88/104 87/102 102/129
f 96/105 95/103 110/130
f 89/106 88/104 103/131
f 96/105 111/132 112/119
f 90/108 89/106 104/133
f 110/130 109/128 124/135
f 102/129 117/151 118/137
f 111/132 110/130 125/136
f 104/133 103/131 118/137
f 111/132 126/138 127/140
f 105/120 104/133 119/139
f 106/121 105/120 120/141
f 99/123 98/122 113/143
f 107/124 106/121 121/145
f 100/125 99/123 114/146
f 108/126 107/124 122/147
f 101/127 100/125 115/148
f 109/128 108/126 123/149
f 101/127 116/150 117/151
f 114/146 113/143 128/152
f 122/147 121/145 136/154
f 115/148 114/146 129/153
f 123/149 122/147 137/155
f 116/150 115/148 130/156
f 124/135 123/149 138/157
f 116/150 131/158 132/160
f 125/136 124/135 139/159
f 117/151 132/160 133/162
f 126/138 125/136 140/161
f 118/137 133/162 134/164
f 126/138 141/163 142/165
f 120/141 119/139 134/164
f 121/145 120/141 135/166
f 132/160 147/185 148/169
f 141/163 140/161 155/170
f 133/162 148/169 149/172
f 141/163 156/171 157/173
f 135/166 134/164 149/172
f 136/154 135/166 150/174
f 129/153 128/152 143/176
f 137/155 136/154 151/178
f 129/153 144/179 145/181
f 138/157 137/155 152/180
f 131/158 130/156 145/181
f 139/159 138/157 153/182
f 131/158 146/183 147/185
f 140/161 139/159 154/184
f 152/180 151/178 166/186
f 144/179 159/202 160/188
f 153/182 152/180 167/187
f 145/181 160/188 161/190
f 154/184 153/182 168/189
f 146/183 161/190 162/192
f 155/170 154/184 169/191
f 147/185 162/192 163/194
f 156/171 155/170 170/193
f 148/169 163/194 164/196
f 156/171 171/195 172/197
f 149/172 164/196 165/198
f 151/178 150/174 165/198
f 144/179 143/176 158/200
f 171/195 170/193 185/203
f 164/196 163/194 178/205
f 172/197 171/195 186/204
f 164/196 179/206 180/208
f 166/186 165/198 180/208
f 159/202 158/200 173/210
f 167/187 166/186 181/212
f 159/202 174/213 175/215
f 168/189 167/187 182/214
f 160/188 175/215 176/217
f 169/191 168/189 183/216
f 161/190 176/217 177/219
f 170/193 169/191 184/218
f 163/194 162/192 177/219
f 174/213 189/236 190/220
f 183/216 182/214 197/221
f 175/215 190/220 191/223
f 184/218 183/216 198/222
f 176/217 191/223 192/225
f 185/203 184/218 199/224
f 177/219 192/225 193/227
f 186/204 185/203 200/226
f 179/206 178/205 193/227
f 187/207 186/204 201/228
f 180/208 179/206 194/229
f 180/208 195/231 196/235
f 174/213 173/210 188/233
f 182/214 181/212 196/235
f 194/229 193/227 208/237
f 202/230 201/228 216/239
f 195/231 194/229 209/238
f 195/231 210/241 211/245
f 189/236 188/233 203/243
f 197/221 196/235 211/245
f 190/220 189/236 204/246
f 198/222 197/221 212/247
f 191/223 190/220 205/248
f 199/224 198/222 213/249
f 192/225 191/223 206/250
f 200/226 199/224 214/251
f 193/227 192/225 207/252
f 200/226 215/253 216/239
f 213/249 212/247 227/254
f 206/250 205/248 220/256
f 214/251 213/249 228/255
f 207/252 206/250 221/257
f 215/253 214/251 229/258
f 208/237 207/252 222/259
f 215/253 230/260 231/262
f 209/238 208/237 223/261
f 217/240 216/239 231/262
f 209/238 224/263 225/265
f 211/245 210/241 225/265
f 204/246 203/243 218/267
f 212/247 211/245 226/269
f 205/248 204/246 219/270
f 232/264 231/262 246/271
f 224/263 239/287 240/273
f 226/269 225/265 240/273
f 219/270 218/267 233/275
f 227/254 226/269 241/277
f 220/256 219/270 234/278
f 228/255 227/254 242/279
f 221/257 220/256 235/280
f 229/258 228/255 243/281
f 222/259 221/257 236/282
f 229/258 244/283 245/285
f 223/261 222/259 237/284
f 231/262 230/260 245/285
f 223/261 238/286 239/287
f 244/283 243/281 258/288
f 237/284 236/282 251/290
f 244/283 259/289 260/292
f 238/286 237/284 252/291
f 246/271 245/285 260/292
f 238/286 253/293 254/295
f 247/272 246/271 261/294
f 239/287 254/295 255/297
f 241/277 240/273 255/297
f 234/278 233/275 248/299
f 242/279 241/277 256/301
f 235/280 234/278 249/302
f 243/281 242/279 257/303
f 236/282 235/280 250/304
f 256/301 255/297 270/309
f 249/302 248/299 263/306
f 257/303 256/301 271/310
f 250/304 249/302 264/311
f 258/288 257/303 272/312
f 251/290 250/304 265/313
f 259/289 258/288 273/314
f 252/291 251/290 266/315
f 259/289 274/316 275/318
f 253/293 252/291 267/317
f 261/294 260/292 275/318
f 253/293 268/319 269/321
f 262/296 261/294 276/320
f 255/297 254/295 269/321
f 266/315 281/337 282/322
f 274/316 289/338 290/323
f 267/317 282/322 283/324
f 275/318 290/323 291/325
f 269/321 268/319 283/324
f 277/308 276/320 291/325
f 270/309 269/321 284/326
f 271/310 270/309 285/328
f 263/306 278/330 279/333
f 272/312 271/310 286/332
f 265/313 264/311 279/333
f 273/314 272/312 287/334
f 266/315 265/313 280/335
f 273/314 288/336 289/338
f 286/332 285/328 300/339
f 278/330 293/354 294/341
f 287/334 286/332 301/340
f 280/335 279/333 294/341
f 288/336 287/334 302/342
f 281/337 280/335 295/343
f 288/336 303/344 304/346
f 282/322 281/337 296/345
f 289/338 304/346 305/348
f 282/322 297/347 298/349
f 290/323 305/348 306/350
f 284/326 283/324 298/349
f 292/327 291/325 306/350
f 285/328 284/326 299/351
f 304/346 320/372 321/356
f 298/349 297/347 313/357
f 305/348 321/356 322/359
f 299/351 298/349 314/358
f 307/352 306/350 322/359
f 300/339 299/351 315/360
f 301/340 300/339 316/362
f 293/354 309/364 310/367
f 302/342 301/340 317/366
f 295/343 294/341 310/367
f 303/344 302/342 318/368
f 296/345 295/343 311/369
f 303/344 319/370 320/372
f 297/347 296/345 312/371
f 309/364 324/388 325/373
f 318/368 317/366 332/374
f 311/369 310/367 325/373
f 319/370 318/368 333/375
f 312/371 311/369 326/376
f 319/370 334/377 335/379
f 313/357 312/371 327/378
f 320/372 335/379 336/381
f 314/358 313/357 328/380
f 321/356 336/381 337/383
f 315/360 314/358 329/382
f 323/361 322/359 337/383
f 316/362 315/360 330/384
f 317/366 316/362 331/386
f 329/382 328/380 343/390
f 336/381 351/406 352/392
f 330/384 329/382 344/391
f 337/383 352/392 353/394
f 331/386 330/384 345/393
f 332/374 331/386 346/395
f 325/373 324/388 339/397
f 333/375 332/374 347/399
f 326/376 325/373 340/400
f 334/377 333/375 348/401
f 327/378 326/376 341/402
f 334/377 349/403 350/405
f 327/378 342/404 343/390
f 335/379 350/405 351/406
f 347/399 362/422 363/407
f 340/400 355/423 356/408
f 348/401 363/407 364/409
f 342/404 341/402 356/408
f 349/403 364/409 365/411
f 342/404 357/410 358/412
f 350/405 365/411 366/413
f 343/390 358/412 359/414
f 351/406 366/413 367/415
f 344/391 359/414 360/416
f 352/392 367/415 368/417
f 346/395 345/393 360/416
f 346/395 361/418 362/422
f 340/400 339/397 354/420
f 366/424 381/454 382/425
f 359/427 374/455 375/428
f 367/426 382/425 383/430
f 360/429 375/428 376/432
f 361/433 376/432 377/438
f 355/440 354/434 369/436
f 362/439 377/438 378/442
f 355/440 370/441 371/444
f 363/443 378/442 379/446
f 356/445 371/444 372/448
f 364/447 379/446 380/450
f 357/449 372/448 373/452
f 365/451 380/450 381/454
f 358/453 373/452 374/455
f 379/446 378/442 393/456
f 371/444 386/472 387/458
f 379/446 394/457 395/459
f 372/448 387/458 388/460
f 380/450 395/459 396/461
f 373/452 388/460 389/462
f 381/454 396/461 397/463
f 374/455 389/462 390/464
f 382/425 397/463 398/465
f 375/428 390/464 391/466
f 376/432 391/466 392/470
f 370/441 369/436 384/468
f 378/442 377/438 392/470
f 370/441 385/471 386/472
f 397/463 412/488 413/473
f 390/464 405/489 406/474
f 391/466 406/474 407/478
f 385/471 384/468 399/476
f 393/456 392/470 407/478
f 385/471 400/479 401/481
f 394/457 393/456 408/480
f 386/472 401/481 402/483
f 395/459 394/457 409/482
f 387/458 402/483 403/485
f 396/461 395/459 410/484
f 388/460 403/485 404/487
f 396/461 411/486 412/488
f 389/462 404/487 405/489
f 401/481 416/506 417/490
f 410/484 409/482 424/491
f 402/483 417/490 418/493
f 411/486 410/484 425/492
f 403/485 418/493 419/495
f 412/488 411/486 426/494
f 404/487 419/495 420/497
f 412/488 427/496 428/498
f 405/489 420/497 421/499
f 406/474 421/499 422/503
f 400/479 399/476 414/501
f 408/480 407/478 422/503
f 400/479 415/504 416/506
f 409/482 408/480 423/505
f 420/497 435/523 436/507
f 421/499 436/507 437/512
f 415/504 414/501 429/509
f 423/505 422/503 437/512
f 415/504 430/513 431/515
f 424/491 423/505 438/514
f 416/506 431/515 432/517
f 425/492 424/491 439/516
f 417/490 432/517 433/519
f 426/494 425/492 440/518
f 418/493 433/519 434/521
f 427/496 426/494 441/520
f 419/495 434/521 435/523
f 427/496 442/522 443/511
f 440/518 439/516 454/524
f 432/517 447/540 448/526
f 441/520 440/518 455/525
f 433/519 448/526 449/528
f 442/522 441/520 456/527
f 434/521 449/528 450/530
f 442/522 457/529 458/531
f 435/523 450/530 451/532
f 436/507 451/532 452/536
f 429/509 444/534 445/537
f 437/512 452/536 453/538
f 430/513 445/537 446/539
f 439/516 438/514 453/538
f 431/515 446/539 447/540
f 451/532 466/557 467/545
f 444/534 459/542 460/546
f 453/538 452/536 467/545
f 445/537 460/546 461/548
f 453/538 468/547 469/549
f 446/539 461/548 462/550
f 454/524 469/549 470/551
f 447/540 462/550 463/552
f 456/527 455/525 470/551
f 448/526 463/552 464/554
f 457/529 456/527 471/553
f 449/528 464/554 465/556
f 458/531 457/529 472/555
f 450/530 465/556 466/557
f 463/552 462/550 476/32
f 470/551 479/3 480/7
f 464/554 463/552 2/4
f 472/555 471/553 480/7
f 465/556 464/554 477/9
f 473/544 472/555 481/11
f 465/556 3/13 4/17
f 467/545 466/557 4/17
f 460/546 459/542 474/19
f 468/547 467/545 5/24
f 460/546 475/25 1/29
f 468/547 478/28 6/1
f 461/548 1/29 476/32
f 469/549 6/1 479/3
f 483/29 487/5 484/30
f 483/29 484/30 485/26
f 483/29 485/26 490/25
f 488/548 486/32 483/29
f 483/29 486/32 487/5
f 489/546 488/548 483/29
f 489/546 483/29 490/25
f 490/25 485/26 491/21
f 490/25 491/21 492/19
f 489/546 490/25 492/19
f 492/19 491/21 493/20
f 494/542 492/19 493/558
f 489/546 492/19 494/542
f 495/534 489/546 494/542
f 495/534 494/542 493/541
f 496/509 497/537 495/534
f 496/509 495/534 493/533
f 495/534 497/537 489/546
f 498/513 499/539 497/537
f 496/509 498/513 497/537
f 497/537 488/548 489/546
f 497/537 499/539 488/548
f 500/515 501/540 499/539
f 498/513 500/515 499/539
f 499/539 502/550 488/548
f 499/539 501/540 502/550
f 501/540 503/552 502/550
f 488/548 502/550 486/32
f 503/552 486/32 502/550
f 504/526 506/554 503/552
f 501/540 504/526 503/552
f 506/554 505/4 503/552
f 503/552 505/4 486/32
f 507/528 509/556 506/554
f 504/526 507/528 506/554
f 509/556 508/9 506/554
f 506/554 508/9 505/4
f 510/530 512/557 509/556
f 507/528 510/530 509/556
f 509/556 513/17 511/13
f 509/556 511/13 508/9
f 509/556 512/557 513/17
f 513/17 517/23 514/18
f 513/17 514/18 515/14
f 513/17 515/14 511/13
f 518/545 516/24 513/17
f 513/17 516/24 517/23
f 518/545 513/17 512/557
f 522/538 518/545 519/536
f 520/532 519/536 518/545
f 520/532 518/545 512/557
f 521/547 516/24 518/545
f 522/538 521/547 518/545
f 526/516 522/538 523/514
f 524/512 523/514 522/538
f 524/512 522/538 519/536
f 522/538 525/524 527/549
f 526/516 525/524 522/538
f 522/538 527/549 521/547
f 525/524 529/551 527/549
f 521/547 527/549 528/1
f 527/549 530/3 528/1
f 527/549 529/551 530/3
f 528/1 530/3 531/2
f 532/7 531/2 530/3
f 529/551 532/7 530/3
f 535/11 533/8 532/7
f 532/7 533/8 531/2
f 536/555 532/7 534/553
f 529/551 534/553 532/7
f 536/555 535/11 532/7
f 539/531 536/555 537/529
f 537/529 536/555 534/553
f 538/544 535/11 536/555
f 539/531 538/544 536/555
f 542/535 539/531 540/511
f 541/522 540/511 539/531
f 541/522 539/531 537/529
f 542/543 538/544 539/531
f 542/46 545/42 543/16
f 542/22 543/16 544/15
f 542/559 544/15 538/544
f 542/55 546/50 545/42
f 542/79 547/75 546/50
f 542/88 548/89 547/75
f 542/111 549/107 548/89
f 542/118 550/119 549/107
f 542/144 551/140 550/119
f 542/168 552/165 551/140
f 542/177 553/173 552/165
f 542/201 554/197 553/173
f 542/211 555/207 554/197
f 542/234 556/230 555/207
f 542/244 557/240 556/230
f 542/268 558/264 557/240
f 542/276 559/272 558/264
f 542/300 560/296 559/272
f 542/307 561/308 560/296
f 542/331 562/327 561/308
f 542/355 563/352 562/327
f 542/365 564/361 563/352
f 542/389 565/385 564/361
f 542/398 566/394 565/385
f 542/421 567/417 566/394
f 542/437 568/430 567/431
f 542/469 569/465 568/430
f 542/477 570/473 569/465
f 542/502 571/498 570/473
f 542/510 540/511 571/498
f 572/488 570/473 571/498
f 572/488 571/498 573/496
f 573/496 571/498 540/511
f 572/488 573/496 574/494
f 573/496 575/520 574/494
f 573/496 540/511 541/522
f 573/496 541/522 575/520
f 574/494 575/520 576/518
f 575/520 578/525 576/518
f 541/522 577/527 575/520
f 575/520 577/527 578/525
f 576/518 578/525 525/524
f 525/524 578/525 529/551
f 577/527 529/551 578/525
f 537/529 534/553 577/527
f 541/522 537/529 577/527
f 577/527 534/553 529/551
f 574/494 576/518 579/492
f 579/492 576/518 526/516
f 576/518 525/524 526/516
f 582/486 579/492 580/484
f 580/484 579/492 581/491
f 579/492 526/516 581/491
f 582/486 574/494 579/492
f 583/461 572/488 582/486
f 583/461 582/486 580/484
f 572/488 574/494 582/486
f 584/454 586/463 583/461
f 585/450 584/454 583/461
f 585/450 583/461 587/459
f 583/461 580/484 587/459
f 583/461 586/463 572/488
f 588/446 585/450 587/459
f 588/446 587/459 590/457
f 587/459 580/484 589/482
f 587/459 589/482 590/457
f 588/446 590/457 591/456
f 590/457 592/480 591/456
f 590/457 589/482 592/480
f 591/456 592/480 593/478
f 592/480 595/503 593/478
f 589/482 594/505 592/480
f 592/480 594/505 595/503
f 596/474 593/478 595/503
f 596/474 595/503 597/499
f 594/505 524/512 595/503
f 597/499 595/503 524/512
f 598/489 596/474 597/499
f 598/489 597/499 599/497
f 599/497 597/499 600/507
f 597/499 524/512 600/507
f 599/497 600/507 601/523
f 601/523 600/507 520/532
f 600/507 519/536 520/532
f 600/507 524/512 519/536
f 602/495 599/497 601/523
f 602/495 601/523 603/521
f 603/521 601/523 510/530
f 601/523 520/532 510/530
f 604/493 602/495 603/521
f 604/493 603/521 605/519
f 605/519 603/521 507/528
f 603/521 510/530 507/528
f 606/490 604/493 605/519
f 606/490 605/519 607/517
f 607/517 605/519 504/526
f 605/519 507/528 504/526
f 608/506 606/490 607/517
f 608/506 607/517 500/515
f 607/517 504/526 501/540
f 500/515 607/517 501/540
f 609/481 606/490 608/506
f 610/479 609/481 608/506
f 610/479 608/506 611/504
f 611/504 608/506 500/515
f 610/479 611/504 612/501
f 611/504 496/509 612/501
f 611/504 500/515 498/513
f 611/504 498/513 496/509
f 610/479 612/501 613/476
f 613/476 612/501 493/500
f 612/501 496/509 493/508
f 615/471 613/476 614/468
f 614/468 613/476 493/475
f 615/471 610/479 613/476
f 616/441 617/472 615/471
f 616/441 615/471 614/468
f 615/471 609/481 610/479
f 615/471 617/472 609/481
f 618/444 619/458 617/472
f 616/441 618/444 617/472
f 617/472 620/483 609/481
f 617/472 619/458 620/483
f 619/458 621/485 620/483
f 609/481 620/483 606/490
f 620/483 604/493 606/490
f 620/483 621/485 604/493
f 622/460 623/487 621/485
f 619/458 622/460 621/485
f 621/485 602/495 604/493
f 621/485 623/487 602/495
f 624/462 598/489 623/487
f 622/460 624/462 623/487
f 623/487 599/497 602/495
f 623/487 598/489 599/497
f 625/455 627/464 624/462
f 626/452 625/455 624/462
f 626/452 624/462 622/460
f 624/462 627/464 598/489
f 628/428 629/466 627/464
f 625/455 628/428 627/464
f 627/464 629/466 596/474
f 627/464 596/474 598/489
f 630/432 631/470 629/466
f 628/428 630/432 629/466
f 629/466 593/478 596/474
f 629/466 631/470 593/478
f 633/442 631/470 632/438
f 630/432 632/438 631/470
f 591/456 593/478 631/470
f 633/442 591/456 631/470
f 634/443 588/446 633/442
f 635/439 634/443 633/442
f 635/439 633/442 632/438
f 588/446 591/456 633/442
f 636/399 634/407 635/422
f 637/395 636/399 635/422
f 637/395 635/422 638/418
f 638/433 635/439 632/438
f 637/395 638/418 639/416
f 639/429 638/433 630/432
f 638/433 632/438 630/432
f 637/395 639/416 640/393
f 641/391 640/393 639/416
f 641/391 639/416 642/414
f 642/427 639/429 628/428
f 639/429 630/432 628/428
f 643/390 641/391 642/414
f 643/390 642/414 644/412
f 642/427 628/428 625/455
f 644/453 642/427 625/455
f 645/404 643/390 644/412
f 645/404 644/412 646/410
f 646/449 644/453 626/452
f 644/453 625/455 626/452
f 645/404 646/410 647/408
f 647/445 646/449 648/448
f 646/449 626/452 648/448
f 647/445 648/448 618/444
f 618/444 648/448 619/458
f 648/448 622/460 619/458
f 648/448 626/452 622/460
f 645/404 647/408 649/402
f 650/400 649/402 647/408
f 650/400 647/408 651/423
f 651/440 647/445 618/444
f 650/400 651/423 652/420
f 651/440 653/436 652/434
f 651/440 618/444 616/441
f 651/440 616/441 653/436
f 652/434 653/436 493/435
f 653/436 614/468 493/467
f 616/441 614/468 653/436
f 650/400 652/420 654/397
f 654/397 652/420 493/419
f 656/373 654/397 655/388
f 655/388 654/397 493/396
f 656/373 650/400 654/397
f 660/369 656/373 657/367
f 658/364 657/367 656/373
f 658/364 656/373 655/388
f 659/376 650/400 656/373
f 660/369 659/376 656/373
f 663/345 660/369 661/343
f 661/343 660/369 657/367
f 662/371 659/376 660/369
f 663/345 662/371 660/369
f 666/322 663/345 664/337
f 664/337 663/345 661/343
f 665/347 662/371 663/345
f 666/322 665/347 663/345
f 667/317 669/324 666/322
f 668/315 667/317 666/322
f 668/315 666/322 664/337
f 666/322 670/349 665/347
f 666/322 669/324 670/349
f 672/326 670/349 669/324
f 671/351 673/358 670/349
f 672/326 671/351 670/349
f 670/349 673/358 674/357
f 670/349 674/357 665/347
f 673/358 675/380 674/357
f 665/347 674/357 662/371
f 674/357 676/378 662/371
f 674/357 675/380 676/378
f 662/371 676/378 659/376
f 676/378 649/402 659/376
f 676/378 675/380 643/390
f 676/378 643/390 645/404
f 676/378 645/404 649/402
f 677/382 643/390 675/380
f 673/358 677/382 675/380
f 679/360 677/382 673/358
f 678/384 641/391 677/382
f 679/360 678/384 677/382
f 677/382 641/391 643/390
f 681/339 679/360 671/351
f 671/351 679/360 673/358
f 680/362 678/384 679/360
f 681/339 680/362 679/360
f 682/340 680/362 681/339
f 683/332 682/340 681/339
f 683/332 681/339 684/328
f 684/328 681/339 671/351
f 686/310 684/328 685/309
f 685/309 684/328 672/326
f 684/328 671/351 672/326
f 686/310 683/332 684/328
f 689/303 686/310 687/301
f 687/301 686/310 685/309
f 688/312 683/332 686/310
f 689/303 688/312 686/310
f 692/281 689/303 690/279
f 690/279 689/303 687/301
f 691/288 688/312 689/303
f 692/281 691/288 689/303
f 695/258 692/281 693/255
f 693/255 692/281 690/279
f 694/283 691/288 692/281
f 695/258 694/283 692/281
f 698/253 695/258 696/251
f 696/251 695/258 693/255
f 695/258 697/260 699/285
f 698/253 697/260 695/258
f 695/258 699/285 694/283
f 701/262 699/285 697/260
f 700/271 702/292 699/285
f 701/262 700/271 699/285
f 694/283 699/285 702/292
f 694/283 702/292 704/289
f 703/294 705/318 702/292
f 700/271 703/294 702/292
f 704/289 702/292 705/318
f 704/289 705/318 707/316
f 705/318 706/320 709/325
f 703/294 706/320 705/318
f 707/316 705/318 708/323
f 705/318 709/325 708/323
f 561/308 709/325 706/320
f 562/327 710/350 709/325
f 561/308 562/327 709/325
f 708/323 709/325 710/350
f 708/323 710/350 711/348
f 563/352 712/359 710/350
f 562/327 563/352 710/350
f 711/348 710/350 712/359
f 711/348 712/359 713/356
f 564/361 714/383 712/359
f 563/352 564/361 712/359
f 713/356 712/359 714/383
f 713/356 714/383 715/381
f 714/383 565/385 566/394
f 564/361 565/385 714/383
f 715/381 714/383 716/392
f 714/383 566/394 716/392
f 715/381 716/392 717/406
f 717/406 716/392 718/415
f 716/392 567/417 718/415
f 716/392 566/394 567/417
f 717/406 718/415 719/413
f 719/424 718/426 720/425
f 718/426 568/430 720/425
f 718/426 567/431 568/430
f 719/424 720/425 584/454
f 584/454 720/425 586/463
f 720/425 569/465 586/463
f 720/425 568/430 569/465
f 721/405 717/406 719/413
f 721/405 719/413 722/411
f 722/451 719/424 584/454
f 723/403 721/405 722/411
f 723/403 722/411 724/409
f 724/447 722/451 585/450
f 722/451 584/454 585/450
f 725/401 723/403 724/409
f 725/401 724/409 634/407
f 634/443 724/447 588/446
f 724/447 585/450 588/446
f 727/377 725/401 726/375
f 726/375 725/401 636/399
f 636/399 725/401 634/407
f 727/377 723/403 725/401
f 728/370 729/379 727/377
f 728/370 727/377 726/375
f 727/377 721/405 723/403
f 727/377 729/379 721/405
f 730/372 715/381 729/379
f 728/370 730/372 729/379
f 729/379 717/406 721/405
f 729/379 715/381 717/406
f 731/346 713/356 730/372
f 732/344 731/346 730/372
f 732/344 730/372 728/370
f 730/372 713/356 715/381
f 733/336 731/346 732/344
f 733/336 732/344 734/342
f 732/344 735/368 734/342
f 732/344 728/370 735/368
f 734/342 735/368 736/366
f 735/368 737/374 736/366
f 728/370 726/375 735/368
f 735/368 726/375 737/374
f 726/375 636/399 737/374
f 736/366 737/374 738/386
f 737/374 637/395 738/386
f 737/374 636/399 637/395
f 736/366 738/386 680/362
f 680/362 738/386 678/384
f 738/386 640/393 678/384
f 738/386 637/395 640/393
f 734/342 736/366 682/340
f 682/340 736/366 680/362
f 733/336 734/342 739/334
f 739/334 734/342 682/340
f 740/314 739/334 688/312
f 688/312 739/334 683/332
f 739/334 682/340 683/332
f 740/314 733/336 739/334
f 704/289 740/314 691/288
f 691/288 740/314 688/312
f 740/314 707/316 741/338
f 704/289 707/316 740/314
f 740/314 741/338 733/336
f 707/316 708/323 741/338
f 733/336 741/338 731/346
f 741/338 711/348 731/346
f 741/338 708/323 711/348
f 731/346 711/348 713/356
f 560/296 706/320 703/294
f 560/296 561/308 706/320
f 694/283 704/289 691/288
f 559/272 703/294 700/271
f 559/272 560/296 703/294
f 557/240 701/262 742/239
f 698/253 742/239 701/262
f 698/253 701/262 697/260
f 558/264 700/271 701/262
f 557/240 558/264 701/262
f 556/230 557/240 742/239
f 556/230 742/239 743/228
f 744/226 743/228 742/239
f 744/226 742/239 698/253
f 747/204 744/226 745/203
f 745/203 744/226 746/224
f 744/226 696/251 746/224
f 747/204 743/228 744/226
f 744/226 698/253 696/251
f 554/197 747/204 748/195
f 748/195 747/204 745/203
f 555/207 743/228 747/204
f 554/197 555/207 747/204
f 749/171 554/197 748/195
f 749/171 748/195 750/193
f 748/195 745/203 750/193
f 749/171 750/193 751/170
f 751/170 750/193 752/191
f 750/193 753/218 752/191
f 750/193 745/203 753/218
f 752/191 753/218 754/216
f 753/218 755/222 754/216
f 745/203 746/224 753/218
f 753/218 746/224 755/222
f 754/216 755/222 756/221
f 755/222 758/247 756/221
f 746/224 757/249 755/222
f 755/222 757/249 758/247
f 756/221 758/247 759/245
f 758/247 761/269 759/245
f 757/249 760/254 758/247
f 758/247 760/254 761/269
f 759/245 761/269 762/265
f 761/269 764/273 762/265
f 760/254 763/277 761/269
f 761/269 763/277 764/273
f 765/263 762/265 764/273
f 765/263 764/273 766/287
f 763/277 767/297 764/273
f 766/287 764/273 767/297
f 766/287 767/297 769/295
f 687/301 685/309 767/297
f 763/277 687/301 767/297
f 767/297 685/309 768/321
f 767/297 768/321 769/295
f 770/286 766/287 769/295
f 770/286 769/295 771/293
f 771/293 769/295 768/321
f 770/286 771/293 772/291
f 771/293 667/317 772/291
f 771/293 768/321 773/319
f 771/293 773/319 667/317
f 667/317 773/319 669/324
f 768/321 669/324 773/319
f 770/286 772/291 774/284
f 774/284 772/291 775/290
f 772/291 668/315 775/290
f 772/291 667/317 668/315
f 774/284 775/290 776/282
f 776/282 775/290 777/304
f 775/290 778/313 777/304
f 775/290 668/315 778/313
f 777/304 778/313 779/311
f 778/313 781/333 779/311
f 668/315 780/335 778/313
f 778/313 780/335 781/333
f 782/306 779/311 781/333
f 782/306 781/333 783/330
f 780/335 784/341 781/333
f 783/330 781/333 784/341
f 783/330 784/341 785/354
f 661/343 657/367 784/341
f 780/335 661/343 784/341
f 785/354 784/341 657/367
f 783/330 785/354 493/353
f 785/354 658/364 493/363
f 785/354 657/367 658/364
f 782/306 783/330 493/329
f 787/302 782/306 786/299
f 786/299 782/306 493/305
f 787/302 779/311 782/306
f 789/280 787/302 788/278
f 788/278 787/302 786/299
f 777/304 779/311 787/302
f 789/280 777/304 787/302
f 791/257 789/280 790/256
f 790/256 789/280 788/278
f 776/282 777/304 789/280
f 791/257 776/282 789/280
f 794/252 791/257 792/250
f 792/250 791/257 790/256
f 793/259 776/282 791/257
f 794/252 793/259 791/257
f 797/227 794/252 795/225
f 795/225 794/252 792/250
f 796/237 793/259 794/252
f 797/227 796/237 794/252
f 801/206 797/227 798/205
f 799/219 798/205 797/227
f 799/219 797/227 795/225
f 800/229 796/237 797/227
f 801/206 800/229 797/227
f 802/196 803/208 801/206
f 802/196 801/206 798/205
f 803/208 800/229 801/206
f 806/186 803/208 804/198
f 802/196 804/198 803/208
f 803/208 805/212 808/235
f 806/186 805/212 803/208
f 803/208 808/235 807/231
f 803/208 807/231 800/229
f 809/214 808/235 805/212
f 756/221 759/245 808/235
f 809/214 756/221 808/235
f 807/231 808/235 759/245
f 811/189 809/214 810/187
f 810/187 809/214 805/212
f 754/216 756/221 809/214
f 811/189 754/216 809/214
f 813/184 811/189 812/182
f 812/182 811/189 810/187
f 752/191 754/216 811/189
f 813/184 752/191 811/189
f 815/161 813/184 814/159
f 814/159 813/184 812/182
f 751/170 752/191 813/184
f 815/161 751/170 813/184
f 818/138 815/161 816/136
f 816/136 815/161 814/159
f 817/163 751/170 815/161
f 818/138 817/163 815/161
f 819/132 551/140 818/138
f 819/132 818/138 816/136
f 818/138 552/165 817/163
f 818/138 551/140 552/165
f 820/105 550/119 819/132
f 820/105 819/132 821/130
f 819/132 816/136 821/130
f 819/132 550/119 551/140
f 820/105 821/130 822/103
f 822/103 821/130 823/128
f 821/130 824/135 823/128
f 821/130 816/136 824/135
f 816/136 814/159 824/135
f 823/128 824/135 825/149
f 824/135 826/157 825/149
f 824/135 814/159 826/157
f 825/149 826/157 827/155
f 826/157 828/180 827/155
f 814/159 812/182 826/157
f 826/157 812/182 828/180
f 827/155 828/180 829/178
f 828/180 806/186 829/178
f 812/182 810/187 828/180
f 828/180 810/187 806/186
f 827/155 829/178 830/154
f 830/154 829/178 831/174
f 829/178 804/198 831/174
f 829/178 806/186 804/198
f 830/154 831/174 832/166
f 832/166 831/174 833/172
f 833/172 831/174 804/198
f 832/166 833/172 834/164
f 835/162 834/164 833/172
f 835/162 833/172 836/169
f 836/169 833/172 802/196
f 833/172 804/198 802/196
f 837/160 835/162 836/169
f 837/160 836/169 838/185
f 838/185 836/169 839/194
f 836/169 802/196 839/194
f 838/185 839/194 840/192
f 802/196 798/205 839/194
f 839/194 798/205 799/219
f 839/194 799/219 840/192
f 841/183 838/185 840/192
f 841/183 840/192 842/190
f 842/190 840/192 799/219
f 843/181 841/183 842/190
f 843/181 842/190 844/188
f 844/188 842/190 845/217
f 842/190 799/219 845/217
f 844/188 845/217 846/215
f 846/215 845/217 847/223
f 845/217 795/225 847/223
f 845/217 799/219 795/225
f 846/215 847/223 849/220
f 795/225 792/250 847/223
f 847/223 792/250 848/248
f 847/223 848/248 849/220
f 850/213 846/215 849/220
f 850/213 849/220 852/236
f 849/220 848/248 851/246
f 849/220 851/246 852/236
f 850/213 852/236 853/233
f 852/236 854/243 853/233
f 852/236 851/246 854/243
f 853/233 854/243 493/242
f 854/243 855/267 493/266
f 851/246 855/267 854/243
f 855/267 857/275 493/274
f 856/270 857/275 855/267
f 851/246 856/270 855/267
f 857/275 786/299 493/298
f 788/278 786/299 857/275
f 856/270 788/278 857/275
f 848/248 856/270 851/246
f 790/256 788/278 856/270
f 848/248 790/256 856/270
f 850/213 853/233 858/210
f 858/210 853/233 493/232
f 860/202 858/210 859/200
f 859/200 858/210 493/209
f 860/202 850/213 858/210
f 861/179 844/188 860/202
f 861/179 860/202 859/200
f 860/202 846/215 850/213
f 860/202 844/188 846/215
f 862/153 843/181 861/179
f 862/153 861/179 863/176
f 861/179 859/200 863/176
f 861/179 843/181 844/188
f 862/153 863/176 864/152
f 864/152 863/176 493/175
f 863/176 859/200 493/199
f 865/146 862/153 864/152
f 865/146 864/152 866/143
f 866/143 864/152 493/167
f 868/123 866/143 867/122
f 867/122 866/143 493/142
f 868/123 865/146 866/143
f 869/113 870/125 868/123
f 869/113 868/123 867/122
f 870/125 865/146 868/123
f 873/117 870/125 871/115
f 869/113 871/115 870/125
f 872/127 874/148 870/125
f 873/117 872/127 870/125
f 870/125 874/148 865/146
f 874/148 862/153 865/146
f 875/150 876/156 874/148
f 872/127 875/150 874/148
f 874/148 876/156 862/153
f 862/153 876/156 843/181
f 877/158 843/181 876/156
f 875/150 877/158 876/156
f 875/150 837/160 877/158
f 877/158 838/185 841/183
f 877/158 841/183 843/181
f 877/158 837/160 838/185
f 872/127 878/151 875/150
f 875/150 878/151 837/160
f 879/129 880/137 878/151
f 872/127 879/129 878/151
f 878/151 835/162 837/160
f 878/151 880/137 835/162
f 883/133 880/137 881/131
f 879/129 881/131 880/137
f 880/137 882/139 834/164
f 883/133 882/139 880/137
f 880/137 834/164 835/162
f 886/108 883/133 884/106
f 884/106 883/133 881/131
f 885/120 882/139 883/133
f 886/108 885/120 883/133
f 889/90 886/108 887/85
f 887/85 886/108 884/106
f 888/112 885/120 886/108
f 889/90 888/112 886/108
f 892/82 889/90 890/80
f 890/80 889/90 887/85
f 891/92 888/112 889/90
f 892/82 891/92 889/90
f 895/60 892/82 893/58
f 893/58 892/82 890/80
f 894/68 891/92 892/82
f 895/60 894/68 892/82
f 898/36 895/60 896/33
f 896/33 895/60 893/58
f 897/62 894/68 895/60
f 898/36 897/62 895/60
f 533/8 898/36 531/2
f 531/2 898/36 896/33
f 899/38 897/62 898/36
f 533/8 899/38 898/36
f 901/12 899/38 533/8
f 900/40 902/64 899/38
f 901/12 900/40 899/38
f 899/38 902/64 897/62
f 902/64 905/69 897/62
f 903/66 904/71 902/64
f 900/40 903/66 902/64
f 902/64 904/71 905/69
f 897/62 905/69 894/68
f 905/69 907/94 894/68
f 904/71 906/96 905/69
f 905/69 906/96 907/94
f 894/68 907/94 891/92
f 891/92 907/94 909/116
f 907/94 906/96 908/101
f 907/94 908/101 909/116
f 891/92 909/116 912/114
f 908/101 910/126 909/116
f 909/116 910/126 911/124
f 909/116 911/124 912/114
f 891/92 912/114 888/112
f 912/114 913/121 888/112
f 912/114 911/124 913/121
f 888/112 913/121 885/120
f 913/121 915/141 885/120
f 911/124 914/145 913/121
f 913/121 914/145 915/141
f 885/120 915/141 882/139
f 915/141 834/164 882/139
f 914/145 832/166 915/141
f 915/141 832/166 834/164
f 916/147 830/154 914/145
f 911/124 916/147 914/145
f 914/145 830/154 832/166
f 910/126 916/147 911/124
f 825/149 827/155 916/147
f 910/126 825/149 916/147
f 916/147 827/155 830/154
f 823/128 825/149 910/126
f 908/101 823/128 910/126
f 906/96 822/103 908/101
f 822/103 823/128 908/101
f 906/96 917/98 822/103
f 904/71 917/98 906/96
f 919/73 917/98 904/71
f 918/100 822/103 917/98
f 919/73 918/100 917/98
f 546/50 919/73 903/66
f 903/66 919/73 904/71
f 919/73 547/75 548/89
f 546/50 547/75 919/73
f 919/73 548/89 918/100
f 918/100 549/107 820/105
f 918/100 820/105 822/103
f 918/100 548/89 549/107
f 900/40 546/50 903/66
f 544/15 901/12 535/11
f 535/11 901/12 533/8
f 543/16 900/40 901/12
f 544/15 543/16 901/12
f 900/40 545/42 546/50
f 543/16 545/42 900/40
f 531/2 896/33 920/31
f 921/27 920/31 896/33
f 921/27 896/33 922/49
f 896/33 893/58 922/49
f 517/23 921/27 922/49
f 517/23 922/49 924/47
f 922/49 893/58 923/56
f 922/49 923/56 924/47
f 517/23 924/47 925/43
f 924/47 926/52 925/43
f 924/47 923/56 926/52
f 925/43 926/52 927/51
f 926/52 929/74 927/51
f 923/56 928/76 926/52
f 926/52 928/76 929/74
f 927/51 929/74 930/72
f 929/74 932/99 930/72
f 928/76 931/84 929/74
f 929/74 931/84 932/99
f 930/72 932/99 933/97
f 932/99 935/102 933/97
f 931/84 934/104 932/99
f 932/99 934/104 935/102
f 936/95 933/97 935/102
f 936/95 935/102 873/117
f 934/104 879/129 935/102
f 935/102 879/129 872/127
f 935/102 872/127 873/117
f 937/67 933/97 936/95
f 937/67 936/95 938/93
f 938/93 936/95 873/117
f 937/67 938/93 939/83
f 939/83 938/93 940/91
f 940/91 938/93 871/115
f 938/93 873/117 871/115
f 939/83 940/91 941/81
f 942/78 941/81 940/91
f 942/78 940/91 943/87
f 943/87 940/91 869/113
f 940/91 871/115 869/113
f 942/78 943/87 493/86
f 943/87 944/110 493/109
f 943/87 869/113 944/110
f 944/110 867/122 493/134
f 869/113 867/122 944/110
f 945/54 941/81 942/78
f 945/54 942/78 493/77
f 948/48 945/54 946/45
f 946/45 945/54 493/53
f 945/54 947/57 941/81
f 948/48 947/57 945/54
f 485/26 949/34 948/48
f 485/26 948/48 946/45
f 949/34 947/57 948/48
f 949/34 950/35 952/61
f 487/5 950/35 949/34
f 487/5 949/34 484/30
f 485/26 484/30 949/34
f 949/34 952/61 951/59
f 949/34 951/59 947/57
f 954/37 952/61 950/35
f 953/63 937/67 952/61
f 954/37 953/63 952/61
f 951/59 952/61 937/67
f 957/10 954/37 955/6
f 955/6 954/37 950/35
f 956/39 953/63 954/37
f 957/10 956/39 954/37
f 511/13 957/10 508/9
f 508/9 957/10 955/6
f 515/14 956/39 957/10
f 511/13 515/14 957/10
f 958/41 959/65 956/39
f 515/14 958/41 956/39
f 956/39 959/65 953/63
f 959/65 960/70 953/63
f 927/51 930/72 959/65
f 958/41 927/51 959/65
f 959/65 930/72 960/70
f 953/63 960/70 937/67
f 937/67 960/70 933/97
f 930/72 933/97 960/70
f 514/18 958/41 515/14
f 925/43 927/51 958/41
f 514/18 925/43 958/41
f 508/9 955/6 505/4
f 505/4 955/6 487/5
f 955/6 950/35 487/5
f 947/57 951/59 939/83
f 951/59 937/67 939/83
f 947/57 939/83 941/81
f 485/26 946/45 491/21
f 491/21 946/45 493/44
f 884/106 881/131 934/104
f 931/84 884/106 934/104
f 934/104 881/131 879/129
f 887/85 884/106 931/84
f 928/76 887/85 931/84
f 890/80 887/85 928/76
f 923/56 890/80 928/76
f 517/23 925/43 514/18
f 893/58 890/80 923/56
f 961/28 920/31 921/27
f 516/24 961/28 921/27
f 516/24 921/27 517/23
f 521/547 961/28 516/24
f 521/547 528/1 961/28
f 961/28 528/1 920/31
f 528/1 531/2 920/31
f 792/250 790/256 848/248
f 820/105 549/107 550/119
f 817/163 553/173 749/171
f 817/163 749/171 751/170
f 817/163 552/165 553/173
f 810/187 805/212 806/186
f 807/231 963/238 800/229
f 807/231 759/245 962/241
f 807/231 962/241 963/238
f 800/229 963/238 796/237
f 963/238 964/261 796/237
f 963/238 962/241 762/265
f 963/238 762/265 765/263
f 963/238 765/263 964/261
f 796/237 964/261 793/259
f 964/261 774/284 793/259
f 964/261 765/263 766/287
f 964/261 766/287 770/286
f 964/261 770/286 774/284
f 759/245 762/265 962/241
f 793/259 774/284 776/282
f 664/337 661/343 780/335
f 668/315 664/337 780/335
f 685/309 672/326 768/321
f 768/321 672/326 669/324
f 690/279 687/301 763/277
f 760/254 690/279 763/277
f 693/255 690/279 760/254
f 757/249 693/255 760/254
f 696/251 693/255 757/249
f 746/224 696/251 757/249
f 749/171 553/173 554/197
f 555/207 556/230 743/228
f 558/264 559/272 700/271
f 678/384 640/393 641/391
f 659/376 649/402 650/400
f 658/364 655/388 493/387
f 581/491 523/514 594/505
f 589/482 581/491 594/505
f 594/505 523/514 524/512
f 580/484 581/491 589/482
f 586/463 569/465 570/473
f 586/463 570/473 572/488
f 581/491 526/516 523/514
f 538/544 544/15 535/11
f 510/530 520/532 512/557
f 505/4 487/5 486/32
